<svg width="76" height="76" viewBox="0 0 76 76" fill="none" xmlns="http://www.w3.org/2000/svg">
<g filter="url(#filter0_b_122_631)">
<rect x="-0.000488281" width="76" height="76" rx="38" fill="#EFEFEF" fill-opacity="0.2"/>
</g>
<path d="M55.274 22C57.8835 22 59.999 24.0771 59.999 26.6393V50.3607C59.999 52.9228 57.8835 55 55.274 55H22.724C20.1145 55 17.999 52.9228 17.999 50.3607V26.6393C17.999 24.0771 20.1145 22 22.724 22H55.274ZM55.274 25.0929H22.724C21.8542 25.0929 21.149 25.7852 21.149 26.6393V50.3607C21.149 51.2147 21.8542 51.9071 22.724 51.9071H55.274C56.1438 51.9071 56.849 51.2147 56.849 50.3607V26.6393C56.849 25.7852 56.1438 25.0929 55.274 25.0929ZM34.274 39.5262C35.1438 39.5262 35.849 40.2186 35.849 41.0726V42.0885L35.8324 42.3125C35.4906 44.6072 33.5341 45.7138 30.5989 45.7138C27.6635 45.7138 25.707 44.6061 25.3656 42.31L25.349 42.0867V41.0726C25.349 40.2186 26.0542 39.5262 26.924 39.5262H34.274ZM41.6289 40.5491H51.074C51.9438 40.5491 52.649 41.2415 52.649 42.0956C52.649 42.8785 52.0564 43.5255 51.2878 43.628L51.074 43.642H41.6289C40.759 43.642 40.0539 42.9498 40.0539 42.0956C40.0539 41.3126 40.6463 40.6656 41.4151 40.5633L41.6289 40.5491H51.074H41.6289ZM30.599 31.2831C32.3387 31.2831 33.749 32.6678 33.749 34.376C33.749 36.0841 32.3387 37.4686 30.599 37.4686C28.8594 37.4686 27.4491 36.0841 27.4491 34.376C27.4491 32.6678 28.8594 31.2831 30.599 31.2831ZM41.6289 33.3405H51.074C51.9438 33.3405 52.649 34.0329 52.649 34.8869C52.649 35.6698 52.0564 36.3169 51.2878 36.4193L51.074 36.4333H41.6289C40.759 36.4333 40.0539 35.741 40.0539 34.8869C40.0539 34.104 40.6463 33.457 41.4151 33.3546L41.6289 33.3405H51.074H41.6289Z" fill="url(#paint0_linear_122_631)"/>
<defs>
<filter id="filter0_b_122_631" x="-50.0005" y="-50" width="176" height="176" filterUnits="userSpaceOnUse" color-interpolation-filters="sRGB">
<feFlood flood-opacity="0" result="BackgroundImageFix"/>
<feGaussianBlur in="BackgroundImageFix" stdDeviation="25"/>
<feComposite in2="SourceAlpha" operator="in" result="effect1_backgroundBlur_122_631"/>
<feBlend mode="normal" in="SourceGraphic" in2="effect1_backgroundBlur_122_631" result="shape"/>
</filter>
<linearGradient id="paint0_linear_122_631" x1="17.999" y1="17.6579" x2="59.6954" y2="57.9197" gradientUnits="userSpaceOnUse">
<stop stop-color="#F476F7"/>
<stop offset="0.53125" stop-color="#8A57DD"/>
<stop offset="1" stop-color="#1F34B5"/>
</linearGradient>
</defs>
</svg>
