<svg width="77" height="76" viewBox="0 0 77 76" fill="none" xmlns="http://www.w3.org/2000/svg">
<g filter="url(#filter0_b_122_612)">
<rect x="0.998535" width="76" height="76" rx="38" fill="#EFEFEF" fill-opacity="0.2"/>
</g>
<path d="M25.7907 28.4167C27.9538 28.4167 29.7074 26.7004 29.7074 24.5833C29.7074 22.4662 27.9538 20.75 25.7907 20.75C23.6276 20.75 21.874 22.4662 21.874 24.5833C21.874 26.7004 23.6276 28.4167 25.7907 28.4167ZM53.2074 28.4167C55.3705 28.4167 57.124 26.7004 57.124 24.5833C57.124 22.4662 55.3705 20.75 53.2074 20.75C51.0442 20.75 49.2907 22.4662 49.2907 24.5833C49.2907 26.7004 51.0442 28.4167 53.2074 28.4167ZM57.124 51.4167C57.124 53.5338 55.3705 55.25 53.2074 55.25C51.0442 55.25 49.2907 53.5338 49.2907 51.4167C49.2907 49.2995 51.0442 47.5833 53.2074 47.5833C55.3705 47.5833 57.124 49.2995 57.124 51.4167ZM25.7907 55.25C27.9538 55.25 29.7074 53.5338 29.7074 51.4167C29.7074 49.2995 27.9538 47.5833 25.7907 47.5833C23.6276 47.5833 21.874 49.2995 21.874 51.4167C21.874 53.5338 23.6276 55.25 25.7907 55.25ZM31.5845 25.5417C31.6379 25.23 31.6657 24.9099 31.6657 24.5833C31.6657 23.9113 31.5479 23.2662 31.3314 22.6667H40.4782C43.1821 22.6667 45.374 24.812 45.374 27.4583V32.25H50.2699C52.9737 32.25 55.1657 34.3953 55.1657 37.0417V45.9938C54.5531 45.782 53.894 45.6667 53.2074 45.6667C52.8737 45.6667 52.5466 45.6939 52.2282 45.7462V37.0417C52.2282 35.9831 51.3514 35.125 50.2699 35.125H45.374V38.9583C45.374 41.6047 43.1821 43.75 40.4782 43.75H36.5615V48.5417C36.5615 49.6002 37.4383 50.4583 38.5199 50.4583H47.4136C47.3602 50.77 47.3324 51.0901 47.3324 51.4167C47.3324 52.0886 47.4503 52.7338 47.6666 53.3333H38.5199C35.816 53.3333 33.624 51.188 33.624 48.5417V43.75H28.7282C26.0243 43.75 23.8324 41.6047 23.8324 38.9583V30.0061C24.4449 30.218 25.104 30.3333 25.7907 30.3333C26.1243 30.3333 26.4514 30.3061 26.7699 30.2538V38.9583C26.7699 40.0169 27.6466 40.875 28.7282 40.875H33.624V37.0417C33.624 34.3953 35.816 32.25 38.5199 32.25H42.4365V27.4583C42.4365 26.3998 41.5598 25.5417 40.4782 25.5417H31.5845ZM40.4782 40.875C41.5598 40.875 42.4365 40.0169 42.4365 38.9583V35.125H38.5199C37.4383 35.125 36.5615 35.9831 36.5615 37.0417V40.875H40.4782Z" fill="url(#paint0_linear_122_612)"/>
<defs>
<filter id="filter0_b_122_612" x="-49.0015" y="-50" width="176" height="176" filterUnits="userSpaceOnUse" color-interpolation-filters="sRGB">
<feFlood flood-opacity="0" result="BackgroundImageFix"/>
<feGaussianBlur in="BackgroundImageFix" stdDeviation="25"/>
<feComposite in2="SourceAlpha" operator="in" result="effect1_backgroundBlur_122_612"/>
<feBlend mode="normal" in="SourceGraphic" in2="effect1_backgroundBlur_122_612" result="shape"/>
</filter>
<linearGradient id="paint0_linear_122_612" x1="21.874" y1="18.2344" x2="56.3738" y2="53.117" gradientUnits="userSpaceOnUse">
<stop stop-color="#F476F7"/>
<stop offset="0.479167" stop-color="#7751D8"/>
<stop offset="1" stop-color="#2035B6"/>
</linearGradient>
</defs>
</svg>
