<svg width="76" height="76" viewBox="0 0 76 76" fill="none" xmlns="http://www.w3.org/2000/svg">
<g filter="url(#filter0_b_122_622)">
<rect x="-0.000488281" width="76" height="76" rx="38" fill="#EFEFEF" fill-opacity="0.2"/>
</g>
<path d="M38.0063 21C37.5482 21 37.1391 21.2086 36.8704 21.5354L36.7588 21.6192C32.568 20.3579 27.8268 21.362 24.5123 24.6315C21.5642 27.5398 20.433 31.5616 21.1189 35.3245L21.0895 35.353L19.2189 37.1984C17.5924 38.8028 17.5924 41.4042 19.2189 43.0088C20.1745 43.9514 21.4789 44.3404 22.7223 44.1755C22.9055 44.8472 23.2644 45.4822 23.7989 46.0094C24.5254 46.7261 25.4535 47.1227 26.4031 47.1992C26.4805 48.1361 26.8825 49.0519 27.6092 49.7686C28.3692 50.5185 29.3499 50.9178 30.3451 50.9669C30.395 51.9485 30.7999 52.9155 31.5598 53.6652C33.0456 55.1309 35.3748 55.2578 37.0064 54.0457L37.7618 54.7907C39.3964 56.4031 42.0462 56.4031 43.6808 54.7907C44.4047 54.0765 44.8078 53.1664 44.8905 52.2335C45.8342 52.1538 46.7557 51.7578 47.4782 51.0449C48.2027 50.3305 48.6043 49.4188 48.6838 48.4855C49.6152 48.399 50.5228 48.004 51.2363 47.3C51.7956 46.7484 52.1627 46.0789 52.3374 45.3726C53.5621 45.517 54.8393 45.1254 55.7791 44.1984C57.4057 42.5938 57.4057 39.9925 55.7791 38.3879L54.1502 36.781L54.485 35.4879C55.2125 32.6759 54.8467 29.6974 53.4599 27.1392C51.4128 23.3626 47.4276 21.0097 43.0955 21.0097H39.9555C39.8216 21.0033 39.6872 21 39.5519 21H38.0063ZM43.721 30.5948L50.4902 37.2721L50.4978 37.2801L50.5238 37.3064L53.6995 40.4392C54.1777 40.9108 54.1777 41.6755 53.6995 42.1472C53.2215 42.6186 52.4464 42.6186 51.9682 42.1472L48.7925 39.0142C48.2183 38.4479 47.2873 38.4479 46.7131 39.0142L46.6812 39.0457C46.1069 39.6122 46.1069 40.5305 46.6812 41.0971L49.1569 43.5393C49.6354 44.0113 49.6354 44.7766 49.1569 45.2486C48.7207 45.6788 48.0352 45.7176 47.5564 45.3621C46.9687 44.926 46.1448 44.9851 45.6273 45.5009C45.11 46.0164 45.0582 46.8297 45.5063 47.405C45.8745 47.8779 45.8379 48.5604 45.3988 48.9937C44.956 49.4304 44.2565 49.4634 43.7767 49.0909C43.193 48.6375 42.3579 48.685 41.8308 49.2017C41.3036 49.7184 41.2502 50.5418 41.7062 51.1206C42.0847 51.601 42.0489 52.2977 41.6012 52.7395C41.1152 53.2188 40.3274 53.2188 39.8414 52.7395L39.1149 52.0228L39.3205 51.8198C40.9471 50.2155 40.9471 47.614 39.3205 46.0094C38.5605 45.2597 37.5798 44.8602 36.5847 44.8111C36.5349 43.8297 36.1299 42.8625 35.3701 42.113C34.6435 41.3963 33.7154 40.9997 32.7658 40.9232C32.6884 39.9863 32.2864 39.0705 31.5598 38.3536C30.6042 37.411 29.2998 37.0222 28.0564 37.1871C27.8732 36.5152 27.5143 35.8804 26.9798 35.353C26.1369 34.5215 25.0225 34.1209 23.918 34.1513C23.6311 31.4878 24.5224 28.7243 26.5918 26.6829C28.5153 24.7855 31.0712 23.892 33.5901 24.0027L30.6637 26.2039C28.6627 27.709 28.2772 30.5365 29.8032 32.5155C31.3257 34.49 34.1754 34.873 36.1718 33.3713L39.863 30.5948H43.721ZM32.434 28.5237L38.5671 23.9104H39.5519C39.6487 23.9104 39.7446 23.9129 39.8398 23.918C39.8658 23.9194 39.892 23.9201 39.9182 23.9201H43.0955C46.3556 23.9201 49.3457 25.6907 50.8787 28.5184C51.8455 30.3021 52.1488 32.3572 51.746 34.3298L45.4686 28.1279C45.1924 27.8445 44.8121 27.6844 44.415 27.6844H39.3706C39.0508 27.6844 38.7401 27.7881 38.4853 27.9797L34.4015 31.0515C33.691 31.5859 32.6728 31.4491 32.1309 30.7464C31.5925 30.0482 31.728 29.0547 32.434 28.5237ZM25.8784 43.9582C25.5502 43.6344 25.4473 43.1728 25.5696 42.7624C25.6255 42.575 25.7284 42.3982 25.8784 42.2502L27.7489 40.405C28.227 39.9333 29.0022 39.9333 29.4803 40.405C29.9529 40.8713 29.9583 41.6239 29.4964 42.0965L29.4798 42.113L27.6092 43.9582L27.5931 43.9743C27.4466 44.1134 27.2736 44.2096 27.0905 44.2626C26.6746 44.3833 26.2065 44.2818 25.8784 43.9582ZM24.9182 37.4225C25.0658 37.574 25.1654 37.7544 25.2171 37.9446C25.3266 38.3478 25.221 38.796 24.9003 39.1122L23.0298 40.9576C22.5517 41.4291 21.7765 41.4291 21.2984 40.9576C20.8203 40.4859 20.8203 39.7213 21.2984 39.2496L23.169 37.4044C23.6471 36.9328 24.4222 36.9328 24.9003 37.4044L24.9182 37.4225ZM35.3705 51.6138C35.2204 51.762 35.0408 51.8637 34.8503 51.9188C34.4348 52.0389 33.9671 51.9372 33.6392 51.6138C33.3114 51.2904 33.2083 50.8292 33.3302 50.4192C33.386 50.2314 33.489 50.0542 33.6392 49.906L35.5098 48.0608C35.9879 47.5891 36.7631 47.5891 37.2412 48.0608C37.7192 48.5323 37.7192 49.2969 37.2412 49.7686L35.3705 51.6138ZM31.42 47.7174C31.2702 47.8652 31.0912 47.9667 30.9013 48.0218C30.4852 48.1427 30.0169 48.0412 29.6887 47.7174C29.3604 47.3936 29.2575 46.9316 29.3801 46.5212C29.4339 46.3408 29.5314 46.1702 29.6725 46.0257L29.6892 46.0094L31.5598 44.1642L31.5759 44.1481C32.0551 43.6928 32.818 43.6982 33.2906 44.1642C33.7687 44.6359 33.7687 45.4006 33.2906 45.8722L31.42 47.7174Z" fill="url(#paint0_linear_122_622)"/>
<defs>
<filter id="filter0_b_122_622" x="-50.0005" y="-50" width="176" height="176" filterUnits="userSpaceOnUse" color-interpolation-filters="sRGB">
<feFlood flood-opacity="0" result="BackgroundImageFix"/>
<feGaussianBlur in="BackgroundImageFix" stdDeviation="25"/>
<feComposite in2="SourceAlpha" operator="in" result="effect1_backgroundBlur_122_622"/>
<feBlend mode="normal" in="SourceGraphic" in2="effect1_backgroundBlur_122_622" result="shape"/>
</filter>
<linearGradient id="paint0_linear_122_622" x1="29.1976" y1="24.5606" x2="47.6297" y2="48.3607" gradientUnits="userSpaceOnUse">
<stop offset="0.0784208" stop-color="#F375F6"/>
<stop offset="0.574314" stop-color="#624BD2"/>
<stop offset="1" stop-color="#1D33B4"/>
</linearGradient>
</defs>
</svg>
