<svg width="40" height="40" viewBox="0 0 40 40" fill="none" xmlns="http://www.w3.org/2000/svg">
<path d="M17.6667 22.0834L14.0833 18.5001C13.7778 18.1945 13.3889 18.0417 12.9167 18.0417C12.4444 18.0417 12.0556 18.1945 11.75 18.5001C11.4444 18.8056 11.2917 19.1945 11.2917 19.6667C11.2917 20.139 11.4444 20.5279 11.75 20.8334L16.5 25.5834C16.8333 25.9167 17.2222 26.0834 17.6667 26.0834C18.1111 26.0834 18.5 25.9167 18.8333 25.5834L28.25 16.1667C28.5556 15.8612 28.7083 15.4723 28.7083 15.0001C28.7083 14.5279 28.5556 14.139 28.25 13.8334C27.9444 13.5279 27.5556 13.3751 27.0833 13.3751C26.6111 13.3751 26.2222 13.5279 25.9167 13.8334L17.6667 22.0834ZM8.33334 35.0001C7.41667 35.0001 6.63167 34.6734 5.97834 34.0201C5.325 33.3667 4.99889 32.5823 5 31.6667V8.33341C5 7.41675 5.32667 6.63175 5.98 5.97841C6.63334 5.32508 7.41778 4.99897 8.33334 5.00008H15.3333C15.6944 4.00008 16.2989 3.19453 17.1467 2.58341C17.9944 1.9723 18.9456 1.66675 20 1.66675C21.0556 1.66675 22.0072 1.9723 22.855 2.58341C23.7028 3.19453 24.3067 4.00008 24.6667 5.00008H31.6667C32.5833 5.00008 33.3683 5.32675 34.0217 5.98008C34.675 6.63341 35.0011 7.41786 35 8.33341V31.6667C35 32.5834 34.6733 33.3684 34.02 34.0217C33.3667 34.6751 32.5822 35.0012 31.6667 35.0001H8.33334ZM8.33334 31.6667H31.6667V8.33341H8.33334V31.6667ZM20 7.08341C20.3611 7.08341 20.6594 6.96508 20.895 6.72841C21.1306 6.49175 21.2489 6.19341 21.25 5.83341C21.25 5.4723 21.1317 5.17397 20.895 4.93841C20.6583 4.70286 20.36 4.58453 20 4.58341C19.6389 4.58341 19.3406 4.70175 19.105 4.93841C18.8694 5.17508 18.7511 5.47341 18.75 5.83341C18.75 6.19453 18.8683 6.49286 19.105 6.72841C19.3417 6.96397 19.64 7.0823 20 7.08341Z" fill="url(#paint0_linear_305_36)"/>
<defs>
<linearGradient id="paint0_linear_305_36" x1="20" y1="1.66675" x2="20" y2="35.0001" gradientUnits="userSpaceOnUse">
<stop stop-color="white"/>
<stop offset="1" stop-color="#A994FE"/>
</linearGradient>
</defs>
</svg>
