<svg width="14" height="19" viewBox="0 0 14 19" fill="none" xmlns="http://www.w3.org/2000/svg">
<path d="M0.0771484 2.50006C0.0771484 2.04103 0.259497 1.6008 0.584079 1.27622C0.908661 0.951635 1.34889 0.769287 1.80792 0.769287H8.731C8.96049 0.769336 9.18057 0.860542 9.34282 1.02284L13.6697 5.34977C13.832 5.51202 13.9233 5.7321 13.9233 5.96159V16.3462C13.9233 16.8052 13.741 17.2455 13.4164 17.57C13.0918 17.8946 12.6516 18.077 12.1925 18.077H1.80792C1.34889 18.077 0.908661 17.8946 0.584079 17.57C0.259497 17.2455 0.0771484 16.8052 0.0771484 16.3462V2.50006ZM11.8343 5.96159L8.731 2.85833V5.96159H11.8343ZM7.00023 2.50006H1.80792V16.3462H12.1925V7.69236H7.86561C7.6361 7.69236 7.41598 7.60119 7.25369 7.4389C7.0914 7.27661 7.00023 7.05649 7.00023 6.82698V2.50006ZM10.2082 9.67669C10.3704 9.83897 10.4616 10.059 10.4616 10.2885C10.4616 10.518 10.3704 10.7381 10.2082 10.9003L6.74667 14.3619C6.58438 14.5241 6.36431 14.6153 6.13484 14.6153C5.90537 14.6153 5.6853 14.5241 5.52301 14.3619L3.79225 12.6311C3.70959 12.5513 3.64366 12.4558 3.59831 12.3502C3.55296 12.2446 3.52908 12.1311 3.52809 12.0162C3.52709 11.9013 3.54898 11.7873 3.5925 11.681C3.63601 11.5746 3.70027 11.478 3.78152 11.3967C3.86277 11.3155 3.95939 11.2512 4.06575 11.2077C4.1721 11.1642 4.28605 11.1423 4.40096 11.1433C4.51586 11.1443 4.62942 11.1682 4.735 11.2135C4.84058 11.2589 4.93607 11.3248 5.0159 11.4075L6.13484 12.5264L8.98455 9.67669C9.14684 9.51446 9.36691 9.42332 9.59638 9.42332C9.82585 9.42332 10.0459 9.51446 10.2082 9.67669Z" fill="url(#paint0_linear_305_102)"/>
<defs>
<linearGradient id="paint0_linear_305_102" x1="7.00023" y1="0.769287" x2="7.00023" y2="18.077" gradientUnits="userSpaceOnUse">
<stop stop-color="white"/>
<stop offset="1" stop-color="#9F87FC"/>
</linearGradient>
</defs>
</svg>
