<svg width="41" height="41" viewBox="0 0 41 41" fill="none" xmlns="http://www.w3.org/2000/svg">
<path d="M20.5003 6.83341C16.8757 6.83341 13.3995 8.27329 10.8365 10.8363C8.27354 13.3993 6.83366 16.8755 6.83366 20.5001C6.83366 24.1247 8.27354 27.6009 10.8365 30.1639C13.3995 32.7269 16.8757 34.1667 20.5003 34.1667C24.125 34.1667 27.6011 32.7269 30.1641 30.1639C32.7271 27.6009 34.167 24.1247 34.167 20.5001C34.167 16.8755 32.7271 13.3993 30.1641 10.8363C27.6011 8.27329 24.125 6.83341 20.5003 6.83341ZM3.41699 20.5001C3.41699 11.065 11.0652 3.41675 20.5003 3.41675C29.9355 3.41675 37.5837 11.065 37.5837 20.5001C37.5837 29.9352 29.9355 37.5834 20.5003 37.5834C11.0652 37.5834 3.41699 29.9352 3.41699 20.5001ZM20.5003 10.2501C20.9534 10.2501 21.3879 10.4301 21.7083 10.7504C22.0287 11.0708 22.2087 11.5053 22.2087 11.9584V19.7928L26.8331 24.4173C27.1443 24.7395 27.3165 25.171 27.3126 25.6189C27.3087 26.0669 27.129 26.4953 26.8123 26.8121C26.4956 27.1288 26.0671 27.3085 25.6192 27.3124C25.1713 27.3163 24.7397 27.1441 24.4175 26.8329L19.2925 21.7079C18.9721 21.3876 18.7921 20.9531 18.792 20.5001V11.9584C18.792 11.5053 18.972 11.0708 19.2924 10.7504C19.6127 10.4301 20.0472 10.2501 20.5003 10.2501Z" fill="url(#paint0_linear_305_19)"/>
<defs>
<linearGradient id="paint0_linear_305_19" x1="20.5003" y1="3.41675" x2="20.5003" y2="37.5834" gradientUnits="userSpaceOnUse">
<stop stop-color="#FAF9FF"/>
<stop offset="1" stop-color="#A48EFD"/>
</linearGradient>
</defs>
</svg>
