<svg width="34" height="32" viewBox="0 0 34 32" fill="none" xmlns="http://www.w3.org/2000/svg">
<path d="M8.50226 14.625C9.77842 14.625 10.9295 13.9188 11.718 12.915C12.9471 11.3469 14.49 10.0526 16.2479 9.115C17.3927 8.507 18.3854 7.60133 18.8652 6.39958C19.2021 5.55765 19.3752 4.65911 19.375 3.75225V2.75C19.375 2.43506 19.5001 2.13301 19.7228 1.91031C19.9455 1.68761 20.2476 1.5625 20.5625 1.5625C21.5073 1.5625 22.4135 1.93783 23.0816 2.60593C23.7497 3.27403 24.125 4.18017 24.125 5.125C24.125 6.949 23.7133 8.67642 22.9803 10.2202C22.5591 11.1037 23.1497 12.25 24.1282 12.25H29.0777C30.7022 12.25 32.1573 13.3488 32.3298 14.9654C32.4011 15.6336 32.4375 16.3113 32.4375 17C32.4441 21.3326 30.9635 25.5361 28.2433 28.9083C27.6289 29.6714 26.6805 30.0625 25.702 30.0625H19.3433C18.5777 30.0621 17.817 29.9392 17.0903 29.6983L12.1598 28.0517C11.4332 27.81 10.6724 27.6871 9.90667 27.6875H7.34801M7.34801 27.6875C7.47942 28.0121 7.62192 28.3287 7.77551 28.6407C8.08742 29.274 7.65201 30.0625 6.94742 30.0625H5.50976C4.10217 30.0625 2.79751 29.2423 2.38742 27.8965C1.83903 26.0966 1.56102 24.2253 1.56251 22.3438C1.56251 19.8848 2.02959 17.5368 2.87826 15.3803C3.36276 14.1548 4.59776 13.4375 5.91667 13.4375H7.58392C8.33126 13.4375 8.76351 14.3178 8.37559 14.9575C7.02325 17.1836 6.31001 19.7391 6.31409 22.3438C6.3115 24.1751 6.66312 25.9897 7.34959 27.6875H7.34801ZM20.5625 12.25H24.125" stroke="url(#paint0_linear_305_28)" stroke-width="2.59091" stroke-linecap="round" stroke-linejoin="round"/>
<defs>
<linearGradient id="paint0_linear_305_28" x1="17" y1="1.5625" x2="17" y2="30.0625" gradientUnits="userSpaceOnUse">
<stop stop-color="white"/>
<stop offset="1" stop-color="#A994FE"/>
</linearGradient>
</defs>
</svg>
