<svg width="38" height="38" viewBox="0 0 38 38" fill="none" xmlns="http://www.w3.org/2000/svg">
<path d="M13.6562 19C14.64 19 15.4375 18.2025 15.4375 17.2188C15.4375 16.235 14.64 15.4375 13.6562 15.4375C12.6725 15.4375 11.875 16.235 11.875 17.2188C11.875 18.2025 12.6725 19 13.6562 19Z" fill="white"/>
<path d="M19.0037 28.5001C15.6327 28.5001 12.7975 26.3084 11.9002 23.3174C11.8751 23.2284 11.8712 23.1347 11.8887 23.0439C11.9062 22.9531 11.9446 22.8676 12.001 22.7943C12.0574 22.721 12.1301 22.6619 12.2133 22.6216C12.2966 22.5814 12.3881 22.5612 12.4806 22.5626H25.5201C25.6126 22.5612 25.7041 22.5814 25.7873 22.6216C25.8706 22.6619 25.9433 22.721 25.9997 22.7943C26.0561 22.8676 26.0945 22.9531 26.112 23.0439C26.1295 23.1347 26.1256 23.2284 26.1005 23.3174C25.2106 26.3084 22.3747 28.5001 19.0037 28.5001Z" fill="white"/>
<path d="M24.3438 19C25.3275 19 26.125 18.2025 26.125 17.2188C26.125 16.235 25.3275 15.4375 24.3438 15.4375C23.36 15.4375 22.5625 16.235 22.5625 17.2188C22.5625 18.2025 23.36 19 24.3438 19Z" fill="white"/>
<path d="M19 34.4375C27.5259 34.4375 34.4375 27.5259 34.4375 19C34.4375 10.4741 27.5259 3.5625 19 3.5625C10.4741 3.5625 3.5625 10.4741 3.5625 19C3.5625 27.5259 10.4741 34.4375 19 34.4375Z" stroke="url(#paint0_linear_305_45)" stroke-width="2.375" stroke-miterlimit="10"/>
<defs>
<linearGradient id="paint0_linear_305_45" x1="19" y1="3.5625" x2="19" y2="34.4375" gradientUnits="userSpaceOnUse">
<stop stop-color="white"/>
<stop offset="1" stop-color="#A893FE"/>
</linearGradient>
</defs>
</svg>
