<svg width="20" height="14" viewBox="0 0 20 14" fill="none" xmlns="http://www.w3.org/2000/svg">
<path d="M16.3462 0C16.7797 0 17.1955 0.182348 17.502 0.506931C17.8086 0.831513 17.9808 1.27174 17.9808 1.73077V10.3846C17.9808 11.3452 17.2534 12.1154 16.3462 12.1154H19.6154V13.8462H0V12.1154H3.26923C2.8357 12.1154 2.41993 11.933 2.11338 11.6085C1.80683 11.2839 1.63462 10.8436 1.63462 10.3846V1.73077C1.63462 0.770192 2.36202 0 3.26923 0H16.3462ZM16.3462 1.73077H3.26923V10.3846H16.3462V1.73077ZM9.80769 6.92308C11.6139 6.92308 13.0769 7.70192 13.0769 8.65385V9.51923H6.53846V8.65385C6.53846 7.70192 8.00144 6.92308 9.80769 6.92308ZM9.80769 2.59615C10.2412 2.59615 10.657 2.7785 10.9635 3.10308C11.2701 3.42767 11.4423 3.86789 11.4423 4.32692C11.4423 4.78595 11.2701 5.22618 10.9635 5.55076C10.657 5.87534 10.2412 6.05769 9.80769 6.05769C8.90048 6.05769 8.17308 5.2875 8.17308 4.32692C8.17308 3.36635 8.90865 2.59615 9.80769 2.59615Z" fill="url(#paint0_linear_305_97)"/>
<defs>
<linearGradient id="paint0_linear_305_97" x1="9.80769" y1="0" x2="9.80769" y2="13.8462" gradientUnits="userSpaceOnUse">
<stop stop-color="#DB71F2"/>
<stop offset="0.0001" stop-color="white"/>
<stop offset="1" stop-color="#9980FC"/>
</linearGradient>
</defs>
</svg>
