<svg width="18" height="18" viewBox="0 0 18 18" fill="none" xmlns="http://www.w3.org/2000/svg">
<path d="M16.6692 0.722173C16.5109 0.617534 16.334 0.545684 16.1485 0.510729C15.9631 0.475774 15.7726 0.478398 15.5882 0.518451C15.4037 0.558504 15.2287 0.635201 15.0734 0.744161C14.918 0.853122 14.7852 0.99221 14.6825 1.15348L6.63364 13.7956L2.7083 10.0973C2.56981 9.96678 2.40745 9.86537 2.2305 9.79882C2.05355 9.73227 1.86546 9.70189 1.67699 9.70941C1.29635 9.7246 0.937215 9.89325 0.6786 10.1783C0.419985 10.4633 0.28307 10.8413 0.297976 11.2291C0.312882 11.617 0.478388 11.983 0.758083 12.2465L5.91206 17.1021C5.91206 17.1021 6.06002 17.2319 6.12849 17.2773C6.28673 17.382 6.46367 17.4539 6.6492 17.4889C6.83473 17.5239 7.02521 17.5213 7.20975 17.4812C7.39429 17.4412 7.56928 17.3644 7.7247 17.2554C7.88013 17.1464 8.01295 17.0073 8.11558 16.846L17.0924 2.74649C17.1951 2.58526 17.2656 2.405 17.2999 2.216C17.3342 2.027 17.3317 1.83296 17.2924 1.64498C17.253 1.45699 17.1778 1.27874 17.0708 1.1204C16.9639 0.962062 16.8274 0.826743 16.6692 0.722173Z" fill="url(#paint0_linear_305_112)"/>
<defs>
<linearGradient id="paint0_linear_305_112" x1="8.81038" y1="0.486328" x2="8.81038" y2="20.2498" gradientUnits="userSpaceOnUse">
<stop stop-color="white"/>
<stop offset="1" stop-color="#8385FF"/>
</linearGradient>
</defs>
</svg>
