<svg width="650" height="235" viewBox="0 0 650 235" fill="none" xmlns="http://www.w3.org/2000/svg">
<path d="M37.6154 125.817C37.6154 125.817 37.6598 100.211 37.719 85.9808C37.8077 66.5534 24.2534 57.6229 9.8408 56.4517C3.10802 55.91 0.62207 56.4517 0.62207 56.4517V178.316L8.50904 182.43C8.50904 182.43 10.8174 162.022 18.2013 144.98C26.9465 124.806 37.6154 125.802 37.6154 125.802V125.817Z" fill="white"/>
<path d="M36.3178 163.063C23.2221 163.063 18.3242 188.126 18.3242 188.126L69.8929 215.738C69.8929 215.738 55.3619 163.048 36.3178 163.063Z" fill="white"/>
<path d="M56.8449 54.3188C56.9188 82.2375 56.8449 134.166 56.8449 134.166C56.8449 134.166 64.3027 142.32 72.752 164.09C80.8461 184.952 88.7035 225.945 88.7035 225.945L104.196 234.334V0.0917969C104.196 0.0917969 56.7561 23.6624 56.8449 54.3188Z" fill="white"/>
<path d="M117.522 227.072L130.84 219.899V14.4832L117.522 7.29492V227.072Z" fill="white"/>
<path d="M139.709 215.065L150.067 209.458V24.8757L139.709 19.2832V215.065Z" fill="white"/>
<path d="M157.06 28.0879V206.243L164.458 202.232V32.0846L157.06 28.0879Z" fill="white"/>
<path fill-rule="evenodd" clip-rule="evenodd" d="M200.252 32.7454L198.521 32.7454V108.872H200.338C204.281 108.872 204.281 108.872 207.56 108.872C211.122 108.872 214.554 108.872 219.202 108.872C225.624 108.872 231.316 108.186 236.222 106.785H236.236C241.256 105.299 245.518 102.941 248.936 99.6685V99.6542C252.369 96.3102 254.872 92.0229 256.488 86.8782C258.175 81.7336 258.991 75.6028 258.991 68.5146C258.991 62.7126 258.376 57.5965 257.103 53.2235C255.816 48.7219 253.642 44.9206 250.538 41.891C247.492 38.7899 243.487 36.5605 238.61 35.1457C233.805 33.6595 227.796 32.7453 220.901 32.7453C218.141 32.7453 215.903 32.7453 213.799 32.7454C212.231 32.7455 211.906 32.7285 208.121 32.7285C206.461 32.7285 205.065 32.7455 203.756 32.7454C202.523 32.7454 203.308 32.7454 200.338 32.7454H200.252ZM239.154 90.7796V90.8082C237.194 92.766 234.563 94.238 231.187 95.1526C227.741 96.0958 223.564 96.5817 218.63 96.5817C217.157 96.5817 215.684 96.5245 214.211 96.3959C213.396 96.3244 212.609 96.2387 211.865 96.153V45.7209C212.866 45.6209 213.911 45.5208 214.983 45.4494C216.8 45.3208 218.687 45.2493 220.647 45.2493C225.681 45.2493 229.743 45.7066 232.904 46.5783C236.079 47.4358 238.481 48.8077 240.241 50.6083V50.6369C241.986 52.3804 243.287 54.7526 244.088 57.8537C244.903 61.0263 245.332 64.9705 245.332 69.7293C245.332 74.9883 244.774 79.3327 243.716 82.8053V82.8339C242.729 86.2065 241.199 88.8361 239.168 90.7939L239.154 90.7796Z" fill="white"/>
<path fill-rule="evenodd" clip-rule="evenodd" d="M277.558 108.866L283.165 94.6747H305.791L311.497 108.866H324.956L300.47 49.0391H288.757L264.486 108.866H277.544H277.558ZM301.286 83.1772L294.449 66.1648L287.67 83.1772H301.286Z" fill="white"/>
<path d="M346.946 49.0391H335.951V108.866H346.946V49.0391Z" fill="white"/>
<path d="M376.82 49.0391H363.436V108.866H407.413V97.1698H376.82V49.0391Z" fill="white"/>
<path d="M418.572 86.1254V158.398L418.656 201.325H431.273V176.498H433.074L456.648 201.325H473.383L443.528 170.615L470.312 141.931H454.163L432.739 165.773H430.98V86.0128L452.81 49.0391H438.908L424.937 73.9228L410.421 49.0391H396.422L418.572 86.1254Z" fill="white"/>
<path fill-rule="evenodd" clip-rule="evenodd" d="M200.654 126.089L198.521 126.218L198.521 201.327H200.442C203.896 201.327 205.44 201.327 209.983 201.327C214.527 201.327 223.108 201.327 227.69 201.327C233.028 201.327 237.655 200.924 241.556 200.062H241.571H241.586C245.488 199.142 248.799 197.719 251.445 195.736H251.46L251.475 195.707C254.122 193.652 256.042 191.094 257.252 188.061C258.431 185.086 258.991 181.666 258.991 177.843C258.991 172.856 257.66 168.616 254.772 165.31C253.033 163.241 250.704 161.717 247.877 160.697C249.449 159.619 250.78 158.311 251.869 156.773C254.137 153.583 255.165 149.616 255.165 145.031C255.165 141.769 254.681 138.851 253.653 136.336C252.655 133.677 250.931 131.479 248.527 129.826C246.138 128.115 243.083 126.937 239.484 126.233C235.886 125.529 231.485 125.184 226.314 125.184C224.847 125.184 218.436 125.212 216.41 125.284C214.504 125.356 212.569 125.414 210.588 125.485C208.653 125.557 206.778 125.658 204.978 125.787C203.224 125.917 201.788 126.017 200.669 126.089H200.654ZM241.662 186.279H241.647L241.632 186.308C240.558 187.113 239.016 187.817 236.838 188.306C234.646 188.737 231.818 188.967 228.325 188.967C226.284 188.967 219.479 188.938 216.999 188.866C215.427 188.78 213.96 188.651 212.599 188.464V168.214H230.004C235.553 168.214 239.303 169.076 241.586 170.484H241.601L241.617 170.499C243.522 171.634 244.792 173.833 244.792 177.929C244.792 180.099 244.49 181.853 243.975 183.232V183.261L243.96 183.29C243.552 184.468 242.796 185.46 241.662 186.279ZM240.407 141.941V141.985L240.437 142.028C240.845 143.364 241.087 145.189 241.087 147.561C241.087 150.665 240.15 152.879 238.486 154.474C236.959 155.868 233.814 156.874 228.325 156.874H212.614V137.716C213.718 137.673 214.867 137.644 216.062 137.644H216.138C218.209 137.572 224.817 137.544 226.737 137.544C230.14 137.544 232.786 137.716 234.736 138.018C236.717 138.32 238.003 138.837 238.804 139.412C239.53 139.944 240.104 140.734 240.422 141.941H240.407Z" fill="white"/>
<path fill-rule="evenodd" clip-rule="evenodd" d="M277.558 201.327L283.165 187.136H305.791L311.497 201.327H324.956L300.47 141.5H288.757L264.486 201.327H277.544H277.558ZM301.286 175.638H287.67L294.449 158.626L301.3 175.638H301.286Z" fill="white"/>
<path d="M343.987 141.514H335.951V201.327H348.917L348.523 164.305V158.452L395.281 201.313H407.415V141.5H394.449V178.394V183.383L348.071 141.514V141.5L343.987 141.514Z" fill="white"/>
<path d="M519.897 141.514H511.861V201.327H524.827L524.433 164.305V158.452L571.191 201.313H583.325V141.5H570.359V178.394V183.383L523.981 141.514V141.5L519.897 141.514Z" fill="white"/>
<path d="M500.867 141.5H484.375V201.327H500.867V141.5Z" fill="white"/>
<path d="M649.293 168.66H623.535V179.632H636.784V189.213C635.897 189.378 634.937 189.543 633.903 189.695C632.235 189.929 630.418 190.052 628.439 190.052C624.791 190.052 621.645 189.708 618.972 189.061C616.446 188.428 614.408 187.423 612.768 186.074C611.218 184.684 609.992 182.812 609.12 180.389C608.249 177.897 607.791 174.731 607.791 170.821C607.791 163.815 609.534 159.341 612.443 156.835C615.53 154.233 620.463 152.747 627.715 152.747C630.846 152.747 633.46 153.118 635.587 153.793H635.617L635.646 153.821C638.024 154.495 640.018 155.252 641.657 156.078L644.921 157.716V144.721L643.725 144.143C642.027 143.317 639.87 142.684 637.33 142.216C634.731 141.734 631.599 141.5 627.996 141.5C617.273 141.5 608.781 143.813 602.902 148.782C597.024 153.834 594.321 161.557 594.321 171.51C594.321 176.603 594.956 181.077 596.3 184.876V184.904L596.315 184.918C597.733 188.676 599.889 191.828 602.799 194.334C605.709 196.839 609.312 198.615 613.536 199.716C617.775 200.804 622.679 201.327 628.202 201.327C632.943 201.327 637.064 200.9 640.491 200.005C643.74 199.166 646.236 198.436 647.875 197.803L649.249 197.28V168.674L649.293 168.66Z" fill="white"/>
<path d="M525.774 62.427H530.149V77.3985H532.677L545.752 62.427H551.391L536.468 78.9054L553.19 96.4531H547.551L532.725 80.8011H530.149V96.4531H525.774V62.427ZM559.383 62.427H563.757V83.8148C563.757 84.8842 563.709 86.0995 563.612 87.3633C563.514 88.6271 563.369 89.9395 563.271 91.2034C564.292 89.1618 565.459 87.2175 566.723 85.3217L582.277 62.427H586.847V96.4531H582.472V75.3569C582.472 74.2875 582.472 73.0237 582.569 71.6626C582.666 70.3016 582.764 68.9406 582.958 67.5309C582.375 68.6489 581.791 69.7183 581.208 70.7877C580.625 71.8571 580.041 72.732 579.555 73.4612L563.952 96.4531H559.383V62.427ZM597.738 62.427H618.105V66.3157H602.113V75.7944C603.279 75.6972 604.349 75.6 605.37 75.5513C606.342 75.5027 607.265 75.4541 608.14 75.4541C610.085 75.4541 611.835 75.6486 613.39 75.9402C614.897 76.2805 616.161 76.8152 617.182 77.5929C618.154 78.3707 618.931 79.4401 619.466 80.7039C619.952 81.9677 620.244 83.5718 620.244 85.4189C620.244 89.1132 619.126 91.9811 616.939 93.9255C614.703 95.8698 611.105 96.842 606.147 96.842C604.689 96.842 603.182 96.842 601.627 96.7448C600.071 96.6476 598.759 96.5503 597.738 96.3559V62.427ZM602.113 92.613C603.377 92.8075 604.786 92.9047 606.439 92.9047C608.189 92.9047 609.647 92.7589 610.814 92.4672C611.98 92.1756 612.953 91.7381 613.682 91.1548C614.362 90.5715 614.897 89.7937 615.189 88.8702C615.48 87.9466 615.675 86.8772 615.675 85.6134C615.675 84.4468 615.529 83.4746 615.286 82.6482C614.994 81.8705 614.557 81.19 613.876 80.7039C613.196 80.2178 612.321 79.8775 611.203 79.6831C610.085 79.4887 608.675 79.3428 607.022 79.3428C606.245 79.3428 605.467 79.3914 604.64 79.4401C603.814 79.4887 602.988 79.5859 602.113 79.6831V92.613Z" fill="white"/>
<rect x="496.888" y="50.5581" width="150.883" height="56.7887" rx="28.3943" stroke="white" stroke-width="3.03805"/>
</svg>
