<svg width="408" height="118" viewBox="0 0 408 118" fill="none" xmlns="http://www.w3.org/2000/svg">
<g filter="url(#filter0_b_102_49)">
<rect x="16.3057" y="17.4336" width="374.651" height="84.0172" rx="30" fill="url(#paint0_linear_102_49)" fill-opacity="0.5"/>
</g>
<rect x="16.7047" y="16.9703" width="374.896" height="84.6295" rx="29.601" stroke="url(#paint1_linear_102_49)" stroke-opacity="0.5" stroke-width="0.798009"/>
<path d="M18.0211 41C18.0211 41 17.5625 19.0025 8 7C23.7306 15.4773 49.448 16.9183 56.2859 17.155C56.8486 17.165 57.42 17.1799 58 17.2C58 17.2 57.3883 17.1931 56.2859 17.155C22.973 16.5627 19.7462 33.3577 18.0211 41Z" fill="#673283"/>
<path d="M8 7C17.5625 19.0025 18.0211 41 18.0211 41C19.7753 33.2286 23.0824 15.9927 58 17.2C58 17.2 26.2667 16.844 8 7Z" stroke="#832D9E"/>
<rect x="17.3057" y="17.335" width="373.694" height="83.6646" rx="29" fill="url(#paint2_linear_102_49)" stroke="url(#paint3_linear_102_49)" stroke-width="2"/>
<g filter="url(#filter1_f_102_49)">
<rect x="17.9017" y="18.1673" width="372.502" height="82.2355" rx="28.404" stroke="url(#paint4_linear_102_49)" stroke-width="3.19204"/>
</g>
<path d="M55.135 52.1094L55.495 50.3454C56.413 51.1554 57.511 51.5154 59.023 51.5154C60.085 51.5154 60.949 51.2994 61.507 50.9214C62.155 50.4534 62.551 49.7154 62.551 48.7434C62.551 47.6454 61.705 46.9614 59.923 46.9614H58.177L58.465 45.6834H60.031C62.029 45.6834 63.325 44.8554 63.325 43.1994C63.325 42.1914 62.659 41.4354 60.949 41.4354C59.761 41.4354 58.555 41.7234 57.493 42.3534L57.853 40.5894C58.843 40.2294 60.013 39.9954 61.489 39.9954C63.865 39.9954 65.053 41.0214 65.053 42.6594C65.053 44.5854 63.955 45.7734 62.029 46.2774C63.433 46.4754 64.279 47.3034 64.279 48.6174C64.279 50.1474 63.667 51.3354 62.515 52.0914C61.579 52.7034 60.247 52.9554 58.717 52.9554C57.223 52.9554 55.801 52.5234 55.135 52.1094ZM73.1498 52.7754L73.2938 51.0474C72.5198 52.2534 71.4578 52.9554 69.8018 52.9554C67.6058 52.9554 66.3998 51.6954 66.3998 49.5714C66.3998 46.3494 67.8218 43.0554 71.5838 43.0554C73.2038 43.0554 74.3018 43.8294 74.5898 45.2334L75.2918 43.2354H76.4798L74.4638 52.7754H73.1498ZM68.0018 49.2834C68.0018 50.8674 68.9018 51.6054 70.3958 51.6054C72.3578 51.6054 73.4018 50.2914 73.7978 48.5994L73.9958 47.5554C74.0678 47.2494 74.0858 46.9614 74.0858 46.6914C74.0858 45.2874 73.3118 44.4054 71.6738 44.4054C69.0098 44.4054 68.0018 46.9254 68.0018 49.2834ZM77.6786 52.7754L79.7126 43.2354H81.2606L80.4146 47.2314H85.3466L86.1926 43.2354H87.7406L85.7066 52.7754H84.1586L85.0406 48.5814H80.1086L79.2266 52.7754H77.6786ZM89.5222 49.6434L90.8902 43.2354H92.4562L91.1602 49.3014C91.0882 49.6434 91.0522 49.9314 91.0522 50.1834C91.0522 51.2094 91.6282 51.6054 92.8882 51.6054C94.7242 51.6054 95.7502 50.6154 96.1282 48.8694L97.3342 43.2354H98.8822L96.8482 52.7754H95.5162L95.6422 51.0654C94.7962 52.3974 93.5902 52.9554 92.0242 52.9554C90.2602 52.9554 89.3962 52.2354 89.3962 50.7774C89.3962 50.4354 89.4322 50.0574 89.5222 49.6434ZM100.073 52.7754L102.107 43.2354H104.069L105.779 48.8874L109.829 43.2354H111.863L109.829 52.7754H108.335L109.595 46.7814C109.721 46.1334 109.955 45.3594 110.153 44.6574C109.703 45.3594 109.127 46.2234 108.803 46.6554L105.977 50.4894H104.915L103.745 46.6734C103.601 46.2054 103.367 45.3414 103.187 44.6574C103.097 45.3054 102.989 46.1514 102.845 46.8174L101.567 52.7754H100.073ZM120.083 52.7754L120.227 51.0474C119.453 52.2534 118.391 52.9554 116.735 52.9554C114.539 52.9554 113.333 51.6954 113.333 49.5714C113.333 46.3494 114.755 43.0554 118.517 43.0554C120.137 43.0554 121.235 43.8294 121.523 45.2334L122.225 43.2354H123.413L121.397 52.7754H120.083ZM114.935 49.2834C114.935 50.8674 115.835 51.6054 117.329 51.6054C119.291 51.6054 120.335 50.2914 120.731 48.5994L120.929 47.5554C121.001 47.2494 121.019 46.9614 121.019 46.6914C121.019 45.2874 120.245 44.4054 118.607 44.4054C115.943 44.4054 114.935 46.9254 114.935 49.2834ZM125.188 49.6434L126.556 43.2354H128.122L126.826 49.3014C126.754 49.6434 126.718 49.9314 126.718 50.1834C126.718 51.2094 127.294 51.6054 128.554 51.6054C130.39 51.6054 131.416 50.6154 131.794 48.8694L133 43.2354H134.548L132.514 52.7754H131.182L131.308 51.0654C130.462 52.3974 129.256 52.9554 127.69 52.9554C125.926 52.9554 125.062 52.2354 125.062 50.7774C125.062 50.4354 125.098 50.0574 125.188 49.6434ZM130.84 41.6154C129.436 41.6154 128.572 40.9674 128.572 39.6354C128.572 39.4734 128.572 39.2934 128.608 39.0954H129.886C129.868 39.2394 129.868 39.3654 129.868 39.4914C129.868 40.2474 130.264 40.6074 131.056 40.6074C131.974 40.6074 132.604 40.1214 132.91 39.0954H134.152C133.684 40.7874 132.424 41.6154 130.84 41.6154ZM135.739 52.7754L137.755 43.2354H139.069L138.907 44.9454C139.555 43.7574 140.707 43.0554 142.183 43.0554C143.731 43.0554 144.469 43.7034 144.433 45.0534C145.135 43.6674 146.395 43.0554 147.925 43.0554C149.617 43.0554 150.319 43.7574 150.319 45.0174C150.319 45.3414 150.283 45.6834 150.193 46.0794L148.789 52.7754H147.241L148.537 46.5654C148.609 46.2414 148.645 45.9534 148.645 45.7194C148.645 44.8014 148.159 44.4054 146.953 44.4054C145.513 44.4054 144.595 45.3414 144.289 46.8174L143.029 52.7754H141.481L142.777 46.6194C142.849 46.2954 142.867 45.9894 142.867 45.7554C142.867 44.7654 142.345 44.4054 141.265 44.4054C139.699 44.4054 138.817 45.4314 138.529 46.8174L137.287 52.7754H135.739ZM156.052 52.9554C153.478 52.9554 152.2 51.5514 152.2 49.1214C152.2 45.6474 154.306 43.0554 157.528 43.0554C160.156 43.0554 161.056 44.1354 161.056 45.5394C161.056 47.3574 159.472 48.3654 156.142 48.3654H153.856C153.82 48.5634 153.766 48.9594 153.766 49.3194C153.766 50.7414 154.54 51.6594 156.43 51.6594C157.654 51.6594 159.094 51.2454 159.958 50.4894L159.67 51.9474C158.95 52.5054 157.51 52.9554 156.052 52.9554ZM156.304 47.2674C158.95 47.2674 159.454 46.5474 159.454 45.7554C159.454 45.0174 159.004 44.3514 157.528 44.3514C155.692 44.3514 154.558 45.3054 154.072 47.2674H156.304ZM169.934 50.5794L169.61 52.0914C168.98 52.5234 167.81 52.9554 166.406 52.9554C163.94 52.9554 162.464 51.5874 162.464 49.1754C162.464 45.5034 164.408 43.0554 168.08 43.0554C169.394 43.0554 170.384 43.3614 170.852 43.6854L170.492 45.2694C170.006 44.8734 169.088 44.4054 167.9 44.4054C165.416 44.4054 164.066 46.1334 164.066 48.9234C164.066 50.4534 164.948 51.6054 166.928 51.6054C168.026 51.6054 169.178 51.1374 169.934 50.5794ZM175.134 52.8654C173.01 52.8654 172.344 52.4514 172.344 51.6054C172.344 51.4614 172.362 51.2994 172.398 51.1194L174.072 43.2354H175.638L174.954 46.4574C175.656 46.4034 176.052 46.3854 176.808 46.3854C179.22 46.3854 180.246 47.0154 180.246 48.6354C180.246 51.4074 178.752 52.8654 175.134 52.8654ZM175.548 51.5694C177.654 51.5694 178.644 50.8494 178.644 48.9954C178.644 47.9694 177.978 47.6814 176.16 47.6814C175.602 47.6814 175.26 47.6994 174.648 47.7534L174.018 50.7054C174 50.8134 173.982 50.9214 173.982 51.0114C173.982 51.4074 174.306 51.5694 175.548 51.5694ZM186.022 52.7754L186.382 51.0654C186.526 51.1194 186.652 51.1554 186.814 51.1554C187.894 51.1554 188.722 49.9854 189.982 44.3874L190.252 43.2354H196.876L194.842 52.7754H193.276L195.022 44.5854H191.386L191.224 45.2874C189.91 51.1374 188.56 52.8654 186.706 52.8654C186.436 52.8654 186.22 52.8294 186.022 52.7754ZM198.071 52.7754L200.105 43.2354H201.653L200.789 47.2314H202.445C203.003 44.6934 204.857 43.0374 207.575 43.0374C209.717 43.0374 211.229 44.2614 211.229 46.6374C211.229 50.5074 209.393 52.9554 206.153 52.9554C203.381 52.9554 202.265 51.4434 202.265 48.9954V48.5814H200.501L199.619 52.7754H198.071ZM206.189 51.6054C208.583 51.6054 209.627 49.4094 209.627 46.9074C209.627 45.3234 208.961 44.3874 207.413 44.3874C205.091 44.3874 203.795 46.1514 203.795 48.8154C203.795 50.5614 204.515 51.6054 206.189 51.6054ZM217.374 52.9554C214.908 52.9554 213.378 51.8574 213.378 49.3194C213.378 48.7974 213.396 48.2214 213.504 47.5734C214.494 41.2554 216.546 39.9234 219.984 39.4914C221.334 39.3294 222.81 39.2034 223.638 38.8794L223.278 40.4994C222.774 40.6974 222 40.7874 220.074 40.9854C217.536 41.2194 216.042 41.9394 215.268 45.1254L215.088 45.8274C216.078 44.1714 217.59 43.4154 219.48 43.4154C221.406 43.4154 222.702 44.5314 222.702 46.6554C222.702 50.4354 220.704 52.9554 217.374 52.9554ZM217.392 51.6054C219.912 51.6054 221.1 49.6434 221.1 47.0874C221.1 45.4494 220.11 44.7654 218.85 44.7654C216.294 44.7654 214.98 46.5474 214.98 49.1034C214.98 50.7774 215.772 51.6054 217.392 51.6054ZM224.803 49.6434L226.171 43.2354H227.737L226.441 49.3014C226.369 49.6434 226.333 49.9314 226.333 50.1834C226.333 51.2094 226.909 51.6054 228.169 51.6054C230.005 51.6054 231.031 50.6154 231.409 48.8694L232.615 43.2354H234.163L232.129 52.7754H230.797L230.923 51.0654C230.077 52.3974 228.871 52.9554 227.305 52.9554C225.541 52.9554 224.677 52.2354 224.677 50.7774C224.677 50.4354 224.713 50.0574 224.803 49.6434ZM235.354 52.7754L237.388 43.2354H239.35L241.06 48.8874L245.11 43.2354H247.144L245.11 52.7754H243.616L244.876 46.7814C245.002 46.1334 245.236 45.3594 245.434 44.6574C244.984 45.3594 244.408 46.2234 244.084 46.6554L241.258 50.4894H240.196L239.026 46.6734C238.882 46.2054 238.648 45.3414 238.468 44.6574C238.378 45.3054 238.27 46.1514 238.126 46.8174L236.848 52.7754H235.354ZM251.261 52.8654C249.173 52.8654 248.633 52.4514 248.633 51.6054C248.633 51.4614 248.651 51.2814 248.687 51.1194L250.379 43.2354H251.927L251.243 46.4574C251.945 46.4034 252.305 46.3854 252.917 46.3854C255.149 46.3854 256.175 47.0154 256.175 48.6354C256.175 51.4074 254.699 52.8654 251.261 52.8654ZM251.657 51.5694C253.601 51.5694 254.591 50.8494 254.591 49.0134C254.591 47.9694 253.925 47.6814 252.269 47.6814C251.837 47.6814 251.531 47.6994 250.937 47.7714L250.307 50.7054C250.289 50.8134 250.271 50.9214 250.271 51.0114C250.271 51.4074 250.469 51.5694 251.657 51.5694ZM258.443 52.7754H256.895L258.929 43.2354H260.477L258.443 52.7754ZM261.686 52.7754L263.72 43.2354H265.682L267.392 48.8874L271.442 43.2354H273.476L271.442 52.7754H269.948L271.208 46.7814C271.334 46.1334 271.568 45.3594 271.766 44.6574C271.316 45.3594 270.74 46.2234 270.416 46.6554L267.59 50.4894H266.528L265.358 46.6734C265.214 46.2054 264.98 45.3414 264.8 44.6574C264.71 45.3054 264.602 46.1514 264.458 46.8174L263.18 52.7754H261.686ZM284.199 52.9554C281.517 52.9554 280.221 51.4794 280.221 49.3194C280.221 45.4854 282.201 43.3254 285.279 43.3254C286.827 43.3254 288.051 44.0454 288.393 45.0894C288.429 44.8194 288.429 44.6034 288.429 44.4774C288.429 41.5614 286.935 40.5354 284.163 40.2834L284.451 39.0954C288.483 39.2394 289.833 41.2914 289.833 44.2794C289.833 45.5034 289.671 46.7634 289.401 48.1134C288.789 51.3174 287.025 52.9554 284.199 52.9554ZM284.271 51.6054C286.791 51.6054 287.961 49.4094 287.961 47.1594C287.961 45.5394 287.025 44.6754 285.387 44.6754C283.227 44.6754 281.823 46.2234 281.823 49.0314C281.823 50.5794 282.507 51.6054 284.271 51.6054ZM295.376 52.9554C292.802 52.9554 291.524 51.5514 291.524 49.1214C291.524 45.6474 293.63 43.0554 296.852 43.0554C299.48 43.0554 300.38 44.1354 300.38 45.5394C300.38 47.3574 298.796 48.3654 295.466 48.3654H293.18C293.144 48.5634 293.09 48.9594 293.09 49.3194C293.09 50.7414 293.864 51.6594 295.754 51.6594C296.978 51.6594 298.418 51.2454 299.282 50.4894L298.994 51.9474C298.274 52.5054 296.834 52.9554 295.376 52.9554ZM295.628 47.2674C298.274 47.2674 298.778 46.5474 298.778 45.7554C298.778 45.0174 298.328 44.3514 296.852 44.3514C295.016 44.3514 293.882 45.3054 293.396 47.2674H295.628ZM300.42 52.7754L300.78 51.0654C300.924 51.1194 301.05 51.1554 301.212 51.1554C302.292 51.1554 303.12 49.9854 304.38 44.3874L304.65 43.2354H311.274L309.24 52.7754H307.674L309.42 44.5854H305.784L305.622 45.2874C304.308 51.1374 302.958 52.8654 301.104 52.8654C300.834 52.8654 300.618 52.8294 300.42 52.7754ZM312.74 49.2834C312.74 45.5214 314.792 43.0554 318.284 43.0554C320.426 43.0554 322.01 44.2614 322.01 46.6734C322.01 50.4894 320.156 52.9554 316.808 52.9554C314.054 52.9554 312.74 51.4434 312.74 49.2834ZM314.342 48.9954C314.342 50.5794 315.044 51.6054 316.916 51.6054C319.328 51.6054 320.408 49.4094 320.408 46.9434C320.408 45.3054 319.688 44.4054 318.122 44.4054C315.818 44.4054 314.342 46.2414 314.342 48.9954ZM323.561 52.7754L325.595 43.2354H327.557L329.267 48.8874L333.317 43.2354H335.351L333.317 52.7754H331.823L333.083 46.7814C333.209 46.1334 333.443 45.3594 333.641 44.6574C333.191 45.3594 332.615 46.2234 332.291 46.6554L329.465 50.4894H328.403L327.233 46.6734C327.089 46.2054 326.855 45.3414 326.675 44.6574C326.585 45.3054 326.477 46.1514 326.333 46.8174L325.055 52.7754H323.561ZM335.688 54.7014C336.678 54.4854 337.578 53.7294 337.866 52.8474C337.2 52.8474 336.822 52.4874 336.822 51.8034C336.822 51.0294 337.254 50.6154 338.082 50.6154C338.82 50.6154 339.27 51.0654 339.27 51.8034C339.27 53.4774 338.028 55.1334 336.39 55.6554L335.688 54.7014ZM55.765 72.2834C55.765 68.5214 57.817 66.0554 61.309 66.0554C63.451 66.0554 65.035 67.2614 65.035 69.6734C65.035 73.4894 63.181 75.9554 59.833 75.9554C57.079 75.9554 55.765 74.4434 55.765 72.2834ZM57.367 71.9954C57.367 73.5794 58.069 74.6054 59.941 74.6054C62.353 74.6054 63.433 72.4094 63.433 69.9434C63.433 68.3054 62.713 67.4054 61.147 67.4054C58.843 67.4054 57.367 69.2414 57.367 71.9954ZM74.3268 73.5794L74.0028 75.0914C73.3728 75.5234 72.2028 75.9554 70.7988 75.9554C68.3328 75.9554 66.8568 74.5874 66.8568 72.1754C66.8568 68.5034 68.8008 66.0554 72.4728 66.0554C73.7868 66.0554 74.7768 66.3614 75.2448 66.6854L74.8848 68.2694C74.3988 67.8734 73.4808 67.4054 72.2928 67.4054C69.8088 67.4054 68.4588 69.1334 68.4588 71.9234C68.4588 73.4534 69.3408 74.6054 71.3208 74.6054C72.4188 74.6054 73.5708 74.1374 74.3268 73.5794ZM76.4481 75.7754L78.4641 66.2354H79.7781L79.6161 67.9454C80.2641 66.7574 81.4161 66.0554 82.8921 66.0554C84.4401 66.0554 85.1781 66.7034 85.1421 68.0534C85.8441 66.6674 87.1041 66.0554 88.6341 66.0554C90.3261 66.0554 91.0281 66.7574 91.0281 68.0174C91.0281 68.3414 90.9921 68.6834 90.9021 69.0794L89.4981 75.7754H87.9501L89.2461 69.5654C89.3181 69.2414 89.3541 68.9534 89.3541 68.7194C89.3541 67.8014 88.8681 67.4054 87.6621 67.4054C86.2221 67.4054 85.3041 68.3414 84.9981 69.8174L83.7381 75.7754H82.1901L83.4861 69.6194C83.5581 69.2954 83.5761 68.9894 83.5761 68.7554C83.5761 67.7654 83.0541 67.4054 81.9741 67.4054C80.4081 67.4054 79.5261 68.4314 79.2381 69.8174L77.9961 75.7754H76.4481ZM99.6048 75.7754L99.7488 74.0474C98.9748 75.2534 97.9128 75.9554 96.2568 75.9554C94.0608 75.9554 92.8548 74.6954 92.8548 72.5714C92.8548 69.3494 94.2768 66.0554 98.0388 66.0554C99.6588 66.0554 100.757 66.8294 101.045 68.2334L101.747 66.2354H102.935L100.919 75.7754H99.6048ZM94.4568 72.2834C94.4568 73.8674 95.3568 74.6054 96.8508 74.6054C98.8128 74.6054 99.8568 73.2914 100.253 71.5994L100.451 70.5554C100.523 70.2494 100.541 69.9614 100.541 69.6914C100.541 68.2874 99.7668 67.4054 98.1288 67.4054C95.4648 67.4054 94.4568 69.9254 94.4568 72.2834ZM103.036 75.7754L103.396 74.0654C103.54 74.1194 103.666 74.1554 103.828 74.1554C104.908 74.1554 105.736 72.9854 106.996 67.3874L107.266 66.2354H113.89L111.856 75.7754H110.29L112.036 67.5854H108.4L108.238 68.2874C106.924 74.1374 105.574 75.8654 103.72 75.8654C103.45 75.8654 103.234 75.8294 103.036 75.7754ZM118.163 75.8654C116.039 75.8654 115.373 75.4514 115.373 74.6054C115.373 74.4614 115.391 74.2994 115.427 74.1194L117.101 66.2354H118.667L117.983 69.4574C118.685 69.4034 119.081 69.3854 119.837 69.3854C122.249 69.3854 123.275 70.0154 123.275 71.6354C123.275 74.4074 121.781 75.8654 118.163 75.8654ZM118.577 74.5694C120.683 74.5694 121.673 73.8494 121.673 71.9954C121.673 70.9694 121.007 70.6814 119.189 70.6814C118.631 70.6814 118.289 70.6994 117.677 70.7534L117.047 73.7054C117.029 73.8134 117.011 73.9214 117.011 74.0114C117.011 74.4074 117.335 74.5694 118.577 74.5694ZM124.929 75.7754L126.963 66.2354H128.511L127.665 70.2314H132.597L133.443 66.2354H134.991L132.957 75.7754H131.409L132.291 71.5814H127.359L126.477 75.7754H124.929ZM136.466 72.2834C136.466 68.5214 138.518 66.0554 142.01 66.0554C144.152 66.0554 145.736 67.2614 145.736 69.6734C145.736 73.4894 143.882 75.9554 140.534 75.9554C137.78 75.9554 136.466 74.4434 136.466 72.2834ZM138.068 71.9954C138.068 73.5794 138.77 74.6054 140.642 74.6054C143.054 74.6054 144.134 72.4094 144.134 69.9434C144.134 68.3054 143.414 67.4054 141.848 67.4054C139.544 67.4054 138.068 69.2414 138.068 71.9954ZM151.464 75.9554C148.89 75.9554 147.612 74.5514 147.612 72.1214C147.612 68.6474 149.718 66.0554 152.94 66.0554C155.568 66.0554 156.468 67.1354 156.468 68.5394C156.468 70.3574 154.884 71.3654 151.554 71.3654H149.268C149.232 71.5634 149.178 71.9594 149.178 72.3194C149.178 73.7414 149.952 74.6594 151.842 74.6594C153.066 74.6594 154.506 74.2454 155.37 73.4894L155.082 74.9474C154.362 75.5054 152.922 75.9554 151.464 75.9554ZM151.716 70.2674C154.362 70.2674 154.866 69.5474 154.866 68.7554C154.866 68.0174 154.416 67.3514 152.94 67.3514C151.104 67.3514 149.97 68.3054 149.484 70.2674H151.716ZM162.827 75.7754L164.861 66.2354H166.823L168.533 71.8874L172.583 66.2354H174.617L172.583 75.7754H171.089L172.349 69.7814C172.475 69.1334 172.709 68.3594 172.907 67.6574C172.457 68.3594 171.881 69.2234 171.557 69.6554L168.731 73.4894H167.669L166.499 69.6734C166.355 69.2054 166.121 68.3414 165.941 67.6574C165.851 68.3054 165.743 69.1514 165.599 69.8174L164.321 75.7754H162.827ZM178.733 75.8654C176.645 75.8654 176.105 75.4514 176.105 74.6054C176.105 74.4614 176.123 74.2814 176.159 74.1194L177.851 66.2354H179.399L178.715 69.4574C179.417 69.4034 179.777 69.3854 180.389 69.3854C182.621 69.3854 183.647 70.0154 183.647 71.6354C183.647 74.4074 182.171 75.8654 178.733 75.8654ZM179.129 74.5694C181.073 74.5694 182.063 73.8494 182.063 72.0134C182.063 70.9694 181.397 70.6814 179.741 70.6814C179.309 70.6814 179.003 70.6994 178.409 70.7714L177.779 73.7054C177.761 73.8134 177.743 73.9214 177.743 74.0114C177.743 74.4074 177.941 74.5694 179.129 74.5694ZM185.915 75.7754H184.367L186.401 66.2354H187.949L185.915 75.7754ZM202.12 73.5794L201.796 75.0914C201.166 75.5234 199.996 75.9554 198.592 75.9554C196.126 75.9554 194.65 74.5874 194.65 72.1754C194.65 68.5034 196.594 66.0554 200.266 66.0554C201.58 66.0554 202.57 66.3614 203.038 66.6854L202.678 68.2694C202.192 67.8734 201.274 67.4054 200.086 67.4054C197.602 67.4054 196.252 69.1334 196.252 71.9234C196.252 73.4534 197.134 74.6054 199.114 74.6054C200.212 74.6054 201.364 74.1374 202.12 73.5794ZM208.367 75.9554C205.685 75.9554 204.389 74.4794 204.389 72.3194C204.389 68.4854 206.369 66.3254 209.447 66.3254C210.995 66.3254 212.219 67.0454 212.561 68.0894C212.597 67.8194 212.597 67.6034 212.597 67.4774C212.597 64.5614 211.103 63.5354 208.331 63.2834L208.619 62.0954C212.651 62.2394 214.001 64.2914 214.001 67.2794C214.001 68.5034 213.839 69.7634 213.569 71.1134C212.957 74.3174 211.193 75.9554 208.367 75.9554ZM208.439 74.6054C210.959 74.6054 212.129 72.4094 212.129 70.1594C212.129 68.5394 211.193 67.6754 209.555 67.6754C207.395 67.6754 205.991 69.2234 205.991 72.0314C205.991 73.5794 206.675 74.6054 208.439 74.6054ZM219.544 75.9554C216.97 75.9554 215.692 74.5514 215.692 72.1214C215.692 68.6474 217.798 66.0554 221.02 66.0554C223.648 66.0554 224.548 67.1354 224.548 68.5394C224.548 70.3574 222.964 71.3654 219.634 71.3654H217.348C217.312 71.5634 217.258 71.9594 217.258 72.3194C217.258 73.7414 218.032 74.6594 219.922 74.6594C221.146 74.6594 222.586 74.2454 223.45 73.4894L223.162 74.9474C222.442 75.5054 221.002 75.9554 219.544 75.9554ZM219.796 70.2674C222.442 70.2674 222.946 69.5474 222.946 68.7554C222.946 68.0174 222.496 67.3514 221.02 67.3514C219.184 67.3514 218.05 68.3054 217.564 70.2674H219.796ZM224.588 75.7754L224.948 74.0654C225.092 74.1194 225.218 74.1554 225.38 74.1554C226.46 74.1554 227.288 72.9854 228.548 67.3874L228.818 66.2354H235.442L233.408 75.7754H231.842L233.588 67.5854H229.952L229.79 68.2874C228.476 74.1374 227.126 75.8654 225.272 75.8654C225.002 75.8654 224.786 75.8294 224.588 75.7754ZM243.658 75.7754L243.802 74.0474C243.028 75.2534 241.966 75.9554 240.31 75.9554C238.114 75.9554 236.908 74.6954 236.908 72.5714C236.908 69.3494 238.33 66.0554 242.092 66.0554C243.712 66.0554 244.81 66.8294 245.098 68.2334L245.8 66.2354H246.988L244.972 75.7754H243.658ZM238.51 72.2834C238.51 73.8674 239.41 74.6054 240.904 74.6054C242.866 74.6054 243.91 73.2914 244.306 71.5994L244.504 70.5554C244.576 70.2494 244.594 69.9614 244.594 69.6914C244.594 68.2874 243.82 67.4054 242.182 67.4054C239.518 67.4054 238.51 69.9254 238.51 72.2834ZM252.362 75.9554C249.788 75.9554 248.51 74.5514 248.51 72.1214C248.51 68.6474 250.616 66.0554 253.838 66.0554C256.466 66.0554 257.366 67.1354 257.366 68.5394C257.366 70.3574 255.782 71.3654 252.452 71.3654H250.166C250.13 71.5634 250.076 71.9594 250.076 72.3194C250.076 73.7414 250.85 74.6594 252.74 74.6594C253.964 74.6594 255.404 74.2454 256.268 73.4894L255.98 74.9474C255.26 75.5054 253.82 75.9554 252.362 75.9554ZM252.614 70.2674C255.26 70.2674 255.764 69.5474 255.764 68.7554C255.764 68.0174 255.314 67.3514 253.838 67.3514C252.002 67.3514 250.868 68.3054 250.382 70.2674H252.614ZM258.505 75.7754L260.539 66.2354H262.501L264.211 71.8874L268.261 66.2354H270.295L268.261 75.7754H266.767L268.027 69.7814C268.153 69.1334 268.387 68.3594 268.585 67.6574C268.135 68.3594 267.559 69.2234 267.235 69.6554L264.409 73.4894H263.347L262.177 69.6734C262.033 69.2054 261.799 68.3414 261.619 67.6574C261.529 68.3054 261.421 69.1514 261.277 69.8174L259.999 75.7754H258.505ZM276.194 75.3254L276.554 73.6154C277.13 74.1374 278.192 74.6414 279.668 74.6414C281.63 74.6414 282.422 73.9034 282.422 72.6434C282.422 71.8514 281.882 71.4374 280.298 71.4374H278.858L279.092 70.3214H280.676C282.332 70.3214 282.962 69.4934 282.962 68.4494C282.962 67.7294 282.476 67.3694 281.018 67.3694C279.776 67.3694 278.786 67.7294 277.868 68.2874L278.228 66.6494C279.11 66.3074 280.172 66.0554 281.558 66.0554C283.808 66.0554 284.636 66.7034 284.636 67.8914C284.636 69.2414 284.024 70.3754 282.296 70.7534C283.466 70.8254 284.078 71.4374 284.078 72.4274C284.078 74.4974 282.656 75.9554 279.29 75.9554C278.246 75.9554 276.968 75.7574 276.194 75.3254ZM293.035 75.7754L293.179 74.0474C292.405 75.2534 291.343 75.9554 289.687 75.9554C287.491 75.9554 286.285 74.6954 286.285 72.5714C286.285 69.3494 287.707 66.0554 291.469 66.0554C293.089 66.0554 294.187 66.8294 294.475 68.2334L295.177 66.2354H296.365L294.349 75.7754H293.035ZM287.887 72.2834C287.887 73.8674 288.787 74.6054 290.281 74.6054C292.243 74.6054 293.287 73.2914 293.683 71.5994L293.881 70.5554C293.953 70.2494 293.971 69.9614 293.971 69.6914C293.971 68.2874 293.197 67.4054 291.559 67.4054C288.895 67.4054 287.887 69.9254 287.887 72.2834ZM303.18 73.9214L304.818 66.2354C305.772 66.1994 306.96 66.1454 308.292 66.1454C310.938 66.1454 311.586 66.7934 311.586 68.0534C311.586 69.2594 310.974 70.3394 309.318 70.7174C310.506 70.8614 311.064 71.4014 311.064 72.5714C311.064 74.5694 309.678 75.8654 306.222 75.8654C303.792 75.8654 302.892 75.3074 303.18 73.9214ZM305.25 71.4014L304.782 73.6334C304.638 74.3534 305.106 74.5874 306.636 74.5874C308.598 74.5874 309.48 74.1014 309.48 72.6434C309.48 71.7254 308.922 71.4014 307.572 71.4014H305.25ZM305.484 70.2854H307.734C309.12 70.2854 310.002 69.7814 310.002 68.5034C310.002 67.7294 309.606 67.4234 308.058 67.4234C307.212 67.4234 306.708 67.4414 306.114 67.4774L305.484 70.2854ZM320.21 75.7754L320.354 74.0474C319.58 75.2534 318.518 75.9554 316.862 75.9554C314.666 75.9554 313.46 74.6954 313.46 72.5714C313.46 69.3494 314.882 66.0554 318.644 66.0554C320.264 66.0554 321.362 66.8294 321.65 68.2334L322.352 66.2354H323.54L321.524 75.7754H320.21ZM315.062 72.2834C315.062 73.8674 315.962 74.6054 317.456 74.6054C319.418 74.6054 320.462 73.2914 320.858 71.5994L321.056 70.5554C321.128 70.2494 321.146 69.9614 321.146 69.6914C321.146 68.2874 320.372 67.4054 318.734 67.4054C316.07 67.4054 315.062 69.9254 315.062 72.2834ZM332.479 73.5794L332.155 75.0914C331.525 75.5234 330.355 75.9554 328.951 75.9554C326.485 75.9554 325.009 74.5874 325.009 72.1754C325.009 68.5034 326.953 66.0554 330.625 66.0554C331.939 66.0554 332.929 66.3614 333.397 66.6854L333.037 68.2694C332.551 67.8734 331.633 67.4054 330.445 67.4054C327.961 67.4054 326.611 69.1334 326.611 71.9234C326.611 73.4534 327.493 74.6054 329.473 74.6054C330.571 74.6054 331.723 74.1374 332.479 73.5794ZM336.544 71.7254L338.29 63.1754H339.982L338.074 71.7254H336.544ZM336.67 75.8654C335.896 75.8654 335.518 75.4874 335.518 74.7314C335.518 73.9934 335.896 73.6154 336.67 73.6154C337.426 73.6154 337.804 73.9934 337.804 74.7314C337.804 75.4874 337.426 75.8654 336.67 75.8654Z" fill="white"/>
<defs>
<filter id="filter0_b_102_49" x="-207.694" y="-206.566" width="822.651" height="532.017" filterUnits="userSpaceOnUse" color-interpolation-filters="sRGB">
<feFlood flood-opacity="0" result="BackgroundImageFix"/>
<feGaussianBlur in="BackgroundImageFix" stdDeviation="112"/>
<feComposite in2="SourceAlpha" operator="in" result="effect1_backgroundBlur_102_49"/>
<feBlend mode="normal" in="SourceGraphic" in2="effect1_backgroundBlur_102_49" result="shape"/>
</filter>
<filter id="filter1_f_102_49" x="0.345475" y="0.6111" width="407.615" height="117.348" filterUnits="userSpaceOnUse" color-interpolation-filters="sRGB">
<feFlood flood-opacity="0" result="BackgroundImageFix"/>
<feBlend mode="normal" in="SourceGraphic" in2="BackgroundImageFix" result="shape"/>
<feGaussianBlur stdDeviation="7.98009" result="effect1_foregroundBlur_102_49"/>
</filter>
<linearGradient id="paint0_linear_102_49" x1="3.32275" y1="-72.5" x2="203.382" y2="99.2628" gradientUnits="userSpaceOnUse">
<stop stop-color="#A864C0"/>
<stop offset="0.928049" stop-color="#F9CDCD" stop-opacity="0"/>
</linearGradient>
<linearGradient id="paint1_linear_102_49" x1="27.7218" y1="18.5696" x2="67.4416" y2="180.721" gradientUnits="userSpaceOnUse">
<stop stop-color="white"/>
<stop offset="0.359375" stop-color="white" stop-opacity="0.03"/>
<stop offset="0.6875" stop-color="white" stop-opacity="0.03"/>
<stop offset="1" stop-color="white"/>
</linearGradient>
<linearGradient id="paint2_linear_102_49" x1="29.7975" y1="14.8321" x2="68.0486" y2="172.368" gradientUnits="userSpaceOnUse">
<stop stop-color="#E32FE0" stop-opacity="0.08"/>
<stop offset="1" stop-color="#070059" stop-opacity="0.03"/>
</linearGradient>
<linearGradient id="paint3_linear_102_49" x1="27.7218" y1="18.3388" x2="67.6498" y2="180.889" gradientUnits="userSpaceOnUse">
<stop stop-color="#AB22AF"/>
<stop offset="0.359375" stop-color="#D16CEB" stop-opacity="0.03"/>
<stop offset="0.6875" stop-color="#5D7CE4" stop-opacity="0.03"/>
<stop offset="1" stop-color="#070057"/>
</linearGradient>
<linearGradient id="paint4_linear_102_49" x1="27.7218" y1="18.5696" x2="67.4416" y2="180.721" gradientUnits="userSpaceOnUse">
<stop stop-color="#AB22AF"/>
<stop offset="0.359375" stop-color="#D16CEB" stop-opacity="0.03"/>
<stop offset="0.6875" stop-color="#5D7CE4" stop-opacity="0.03"/>
<stop offset="1" stop-color="#070057"/>
</linearGradient>
</defs>
</svg>
