<svg width="325" height="60" viewBox="0 0 325 60" fill="none" xmlns="http://www.w3.org/2000/svg">
<path d="M10.6417 28.4326C11.1115 24.2382 12.0147 8.7381 1 1C21.7906 4.71687 32.2393 5.71459 37.0084 5.95749C38.1345 5.92351 39.2983 5.93675 40.5 6C40.5 6 39.5797 6.08845 37.0084 5.95749C20.8192 6.44599 12.4062 16.6943 10.6417 28.4326C10.5651 29.1166 10.5 29.5 10.5 29.5C10.5412 29.143 10.5884 28.7871 10.6417 28.4326Z" fill="#E32FE0" fill-opacity="0.08"/>
<path d="M1 1C13.811 10 10.5 29.5 10.5 29.5C12 16.5 21.5 5 40.5 6C40.5 6 33 6.72084 1 1Z" stroke="url(#paint0_linear_180_123600)" stroke-width="2"/>
<g filter="url(#filter0_b_180_123600)">
<rect x="9" y="5" width="315" height="55" rx="27.5" fill="url(#paint1_linear_180_123600)" fill-opacity="0.5"/>
</g>
<rect x="10" y="6" width="314" height="53" rx="26.5" fill="url(#paint2_linear_180_123600)" stroke="url(#paint3_linear_180_123600)" stroke-width="2"/>
<path d="M38.12 28.408L38.44 26.84C39.256 27.56 40.232 27.88 41.576 27.88C42.52 27.88 43.288 27.688 43.784 27.352C44.36 26.936 44.712 26.28 44.712 25.416C44.712 24.44 43.96 23.832 42.376 23.832H40.824L41.08 22.696H42.472C44.248 22.696 45.4 21.96 45.4 20.488C45.4 19.592 44.808 18.92 43.288 18.92C42.232 18.92 41.16 19.176 40.216 19.736L40.536 18.168C41.416 17.848 42.456 17.64 43.768 17.64C45.88 17.64 46.936 18.552 46.936 20.008C46.936 21.72 45.96 22.776 44.248 23.224C45.496 23.4 46.248 24.136 46.248 25.304C46.248 26.664 45.704 27.72 44.68 28.392C43.848 28.936 42.664 29.16 41.304 29.16C39.976 29.16 38.712 28.776 38.12 28.408ZM54.1331 29L54.2611 27.464C53.5731 28.536 52.6291 29.16 51.1571 29.16C49.2051 29.16 48.1331 28.04 48.1331 26.152C48.1331 23.288 49.3971 20.36 52.7411 20.36C54.1811 20.36 55.1571 21.048 55.4131 22.296L56.0371 20.52H57.0931L55.3011 29H54.1331ZM49.5571 25.896C49.5571 27.304 50.3571 27.96 51.6851 27.96C53.4291 27.96 54.3571 26.792 54.7091 25.288L54.8851 24.36C54.9491 24.088 54.9651 23.832 54.9651 23.592C54.9651 22.344 54.2771 21.56 52.8211 21.56C50.4531 21.56 49.5571 23.8 49.5571 25.896ZM58.1588 29L59.9668 20.52H61.3428L60.5908 24.072H64.9748L65.7268 20.52H67.1028L65.2948 29H63.9188L64.7028 25.272H60.3188L59.5348 29H58.1588ZM68.6864 26.216L69.9024 20.52H71.2944L70.1424 25.912C70.0784 26.216 70.0464 26.472 70.0464 26.696C70.0464 27.608 70.5584 27.96 71.6784 27.96C73.3104 27.96 74.2224 27.08 74.5584 25.528L75.6304 20.52H77.0064L75.1984 29H74.0144L74.1264 27.48C73.3744 28.664 72.3024 29.16 70.9104 29.16C69.3424 29.16 68.5744 28.52 68.5744 27.224C68.5744 26.92 68.6064 26.584 68.6864 26.216ZM78.065 29L79.873 20.52H81.617L83.137 25.544L86.737 20.52H88.545L86.737 29H85.409L86.529 23.672C86.641 23.096 86.849 22.408 87.025 21.784C86.625 22.408 86.113 23.176 85.825 23.56L83.313 26.968H82.369L81.329 23.576C81.201 23.16 80.993 22.392 80.833 21.784C80.753 22.36 80.657 23.112 80.529 23.704L79.393 29H78.065ZM95.8519 29L95.9799 27.464C95.2919 28.536 94.3479 29.16 92.8759 29.16C90.9239 29.16 89.8519 28.04 89.8519 26.152C89.8519 23.288 91.1159 20.36 94.4599 20.36C95.8999 20.36 96.8759 21.048 97.1319 22.296L97.7559 20.52H98.8119L97.0199 29H95.8519ZM91.2759 25.896C91.2759 27.304 92.0759 27.96 93.4039 27.96C95.1479 27.96 96.0759 26.792 96.4279 25.288L96.6039 24.36C96.6679 24.088 96.6839 23.832 96.6839 23.592C96.6839 22.344 95.9959 21.56 94.5399 21.56C92.1719 21.56 91.2759 23.8 91.2759 25.896ZM100.39 26.216L101.606 20.52H102.998L101.846 25.912C101.782 26.216 101.75 26.472 101.75 26.696C101.75 27.608 102.262 27.96 103.382 27.96C105.014 27.96 105.926 27.08 106.262 25.528L107.334 20.52H108.71L106.902 29H105.718L105.83 27.48C105.078 28.664 104.006 29.16 102.614 29.16C101.046 29.16 100.278 28.52 100.278 27.224C100.278 26.92 100.31 26.584 100.39 26.216ZM105.414 19.08C104.166 19.08 103.398 18.504 103.398 17.32C103.398 17.176 103.398 17.016 103.43 16.84H104.566C104.55 16.968 104.55 17.08 104.55 17.192C104.55 17.864 104.902 18.184 105.606 18.184C106.422 18.184 106.982 17.752 107.253 16.84H108.358C107.942 18.344 106.822 19.08 105.414 19.08ZM109.768 29L111.56 20.52H112.728L112.584 22.04C113.16 20.984 114.184 20.36 115.496 20.36C116.872 20.36 117.528 20.936 117.496 22.136C118.12 20.904 119.24 20.36 120.6 20.36C122.104 20.36 122.728 20.984 122.728 22.104C122.728 22.392 122.696 22.696 122.616 23.048L121.368 29H119.992L121.144 23.48C121.208 23.192 121.24 22.936 121.24 22.728C121.24 21.912 120.808 21.56 119.736 21.56C118.456 21.56 117.64 22.392 117.368 23.704L116.248 29H114.872L116.024 23.528C116.088 23.24 116.104 22.968 116.104 22.76C116.104 21.88 115.64 21.56 114.68 21.56C113.288 21.56 112.504 22.472 112.248 23.704L111.144 29H109.768ZM127.824 29.16C125.536 29.16 124.4 27.912 124.4 25.752C124.4 22.664 126.272 20.36 129.136 20.36C131.472 20.36 132.272 21.32 132.272 22.568C132.272 24.184 130.864 25.08 127.904 25.08H125.872C125.84 25.256 125.792 25.608 125.792 25.928C125.792 27.192 126.48 28.008 128.16 28.008C129.248 28.008 130.528 27.64 131.296 26.968L131.04 28.264C130.4 28.76 129.12 29.16 127.824 29.16ZM128.048 24.104C130.4 24.104 130.848 23.464 130.848 22.76C130.848 22.104 130.448 21.512 129.136 21.512C127.504 21.512 126.496 22.36 126.064 24.104H128.048ZM140.164 27.048L139.876 28.392C139.316 28.776 138.276 29.16 137.028 29.16C134.836 29.16 133.524 27.944 133.524 25.8C133.524 22.536 135.252 20.36 138.516 20.36C139.684 20.36 140.564 20.632 140.98 20.92L140.66 22.328C140.228 21.976 139.412 21.56 138.356 21.56C136.148 21.56 134.948 23.096 134.948 25.576C134.948 26.936 135.732 27.96 137.492 27.96C138.468 27.96 139.492 27.544 140.164 27.048ZM144.785 29.08C142.897 29.08 142.305 28.712 142.305 27.96C142.305 27.832 142.321 27.688 142.353 27.528L143.841 20.52H145.233L144.625 23.384C145.249 23.336 145.601 23.32 146.273 23.32C148.417 23.32 149.329 23.88 149.329 25.32C149.329 27.784 148.001 29.08 144.785 29.08ZM145.153 27.928C147.025 27.928 147.905 27.288 147.905 25.64C147.905 24.728 147.313 24.472 145.697 24.472C145.201 24.472 144.897 24.488 144.353 24.536L143.793 27.16C143.777 27.256 143.761 27.352 143.761 27.432C143.761 27.784 144.049 27.928 145.153 27.928ZM154.464 29L154.784 27.48C154.912 27.528 155.024 27.56 155.168 27.56C156.128 27.56 156.864 26.52 157.984 21.544L158.224 20.52H164.112L162.304 29H160.912L162.464 21.72H159.232L159.088 22.344C157.92 27.544 156.72 29.08 155.072 29.08C154.832 29.08 154.64 29.048 154.464 29ZM165.174 29L166.982 20.52H168.358L167.59 24.072H169.062C169.558 21.816 171.206 20.344 173.622 20.344C175.526 20.344 176.87 21.432 176.87 23.544C176.87 26.984 175.238 29.16 172.358 29.16C169.894 29.16 168.902 27.816 168.902 25.64V25.272H167.334L166.55 29H165.174ZM172.39 27.96C174.518 27.96 175.446 26.008 175.446 23.784C175.446 22.376 174.854 21.544 173.478 21.544C171.414 21.544 170.262 23.112 170.262 25.48C170.262 27.032 170.902 27.96 172.39 27.96ZM182.333 29.16C180.141 29.16 178.781 28.184 178.781 25.928C178.781 25.464 178.797 24.952 178.893 24.376C179.773 18.76 181.597 17.576 184.653 17.192C185.852 17.048 187.165 16.936 187.901 16.648L187.581 18.088C187.133 18.264 186.445 18.344 184.733 18.52C182.477 18.728 181.149 19.368 180.461 22.2L180.301 22.824C181.181 21.352 182.525 20.68 184.205 20.68C185.917 20.68 187.069 21.672 187.069 23.56C187.069 26.92 185.293 29.16 182.333 29.16ZM182.349 27.96C184.589 27.96 185.645 26.216 185.645 23.944C185.645 22.488 184.765 21.88 183.645 21.88C181.373 21.88 180.205 23.464 180.205 25.736C180.205 27.224 180.909 27.96 182.349 27.96ZM188.936 26.216L190.152 20.52H191.544L190.392 25.912C190.328 26.216 190.296 26.472 190.296 26.696C190.296 27.608 190.808 27.96 191.928 27.96C193.56 27.96 194.472 27.08 194.808 25.528L195.88 20.52H197.256L195.448 29H194.264L194.376 27.48C193.624 28.664 192.552 29.16 191.16 29.16C189.592 29.16 188.824 28.52 188.824 27.224C188.824 26.92 188.856 26.584 188.936 26.216ZM198.315 29L200.123 20.52H201.867L203.387 25.544L206.987 20.52H208.795L206.987 29H205.659L206.779 23.672C206.891 23.096 207.099 22.408 207.275 21.784C206.875 22.408 206.363 23.176 206.075 23.56L203.563 26.968H202.619L201.579 23.576C201.451 23.16 201.243 22.392 201.083 21.784C201.003 22.36 200.907 23.112 200.779 23.704L199.643 29H198.315ZM212.454 29.08C210.598 29.08 210.118 28.712 210.118 27.96C210.118 27.832 210.134 27.672 210.166 27.528L211.67 20.52H213.046L212.438 23.384C213.062 23.336 213.382 23.32 213.926 23.32C215.91 23.32 216.822 23.88 216.822 25.32C216.822 27.784 215.51 29.08 212.454 29.08ZM212.806 27.928C214.534 27.928 215.414 27.288 215.414 25.656C215.414 24.728 214.822 24.472 213.35 24.472C212.966 24.472 212.694 24.488 212.166 24.552L211.606 27.16C211.59 27.256 211.574 27.352 211.574 27.432C211.574 27.784 211.75 27.928 212.806 27.928ZM218.838 29H217.462L219.27 20.52H220.646L218.838 29ZM221.721 29L223.529 20.52H225.273L226.793 25.544L230.393 20.52H232.201L230.393 29H229.065L230.185 23.672C230.297 23.096 230.505 22.408 230.681 21.784C230.281 22.408 229.769 23.176 229.481 23.56L226.969 26.968H226.025L224.985 23.576C224.857 23.16 224.649 22.392 224.489 21.784C224.409 22.36 224.313 23.112 224.185 23.704L223.049 29H221.721ZM241.733 29.16C239.349 29.16 238.197 27.848 238.197 25.928C238.197 22.52 239.957 20.6 242.693 20.6C244.069 20.6 245.157 21.24 245.461 22.168C245.493 21.928 245.493 21.736 245.493 21.624C245.493 19.032 244.165 18.12 241.701 17.896L241.957 16.84C245.541 16.968 246.741 18.792 246.741 21.448C246.741 22.536 246.597 23.656 246.357 24.856C245.813 27.704 244.245 29.16 241.733 29.16ZM241.797 27.96C244.037 27.96 245.077 26.008 245.077 24.008C245.077 22.568 244.245 21.8 242.789 21.8C240.869 21.8 239.621 23.176 239.621 25.672C239.621 27.048 240.229 27.96 241.797 27.96ZM251.668 29.16C249.38 29.16 248.244 27.912 248.244 25.752C248.244 22.664 250.116 20.36 252.98 20.36C255.316 20.36 256.116 21.32 256.116 22.568C256.116 24.184 254.708 25.08 251.748 25.08H249.716C249.684 25.256 249.636 25.608 249.636 25.928C249.636 27.192 250.324 28.008 252.004 28.008C253.092 28.008 254.372 27.64 255.14 26.968L254.884 28.264C254.244 28.76 252.964 29.16 251.668 29.16ZM251.892 24.104C254.244 24.104 254.692 23.464 254.692 22.76C254.692 22.104 254.292 21.512 252.98 21.512C251.348 21.512 250.34 22.36 249.908 24.104H251.892ZM256.152 29L256.472 27.48C256.6 27.528 256.712 27.56 256.856 27.56C257.816 27.56 258.552 26.52 259.672 21.544L259.911 20.52H265.8L263.992 29H262.6L264.152 21.72H260.92L260.776 22.344C259.608 27.544 258.408 29.08 256.76 29.08C256.52 29.08 256.328 29.048 256.152 29ZM267.102 25.896C267.102 22.552 268.926 20.36 272.03 20.36C273.934 20.36 275.342 21.432 275.342 23.576C275.342 26.968 273.694 29.16 270.718 29.16C268.27 29.16 267.102 27.816 267.102 25.896ZM268.526 25.64C268.526 27.048 269.15 27.96 270.814 27.96C272.958 27.96 273.918 26.008 273.918 23.816C273.918 22.36 273.278 21.56 271.886 21.56C269.838 21.56 268.526 23.192 268.526 25.64ZM276.721 29L278.529 20.52H280.273L281.793 25.544L285.393 20.52H287.201L285.393 29H284.065L285.185 23.672C285.297 23.096 285.505 22.408 285.681 21.784C285.281 22.408 284.769 23.176 284.481 23.56L281.969 26.968H281.025L279.985 23.576C279.857 23.16 279.649 22.392 279.489 21.784C279.409 22.36 279.313 23.112 279.185 23.704L278.049 29H276.721ZM287.5 30.712C288.38 30.52 289.18 29.848 289.436 29.064C288.844 29.064 288.508 28.744 288.508 28.136C288.508 27.448 288.892 27.08 289.628 27.08C290.284 27.08 290.684 27.48 290.684 28.136C290.684 29.624 289.58 31.096 288.124 31.56L287.5 30.712ZM38.68 45.896C38.68 42.552 40.504 40.36 43.608 40.36C45.512 40.36 46.92 41.432 46.92 43.576C46.92 46.968 45.272 49.16 42.296 49.16C39.848 49.16 38.68 47.816 38.68 45.896ZM40.104 45.64C40.104 47.048 40.728 47.96 42.392 47.96C44.536 47.96 45.496 46.008 45.496 43.816C45.496 42.36 44.856 41.56 43.464 41.56C41.416 41.56 40.104 43.192 40.104 45.64ZM55.1794 47.048L54.8914 48.392C54.3314 48.776 53.2914 49.16 52.0434 49.16C49.8514 49.16 48.5394 47.944 48.5394 45.8C48.5394 42.536 50.2674 40.36 53.5314 40.36C54.6994 40.36 55.5794 40.632 55.9954 40.92L55.6754 42.328C55.2434 41.976 54.4274 41.56 53.3714 41.56C51.1634 41.56 49.9634 43.096 49.9634 45.576C49.9634 46.936 50.7474 47.96 52.5074 47.96C53.4834 47.96 54.5074 47.544 55.1794 47.048ZM57.065 49L58.857 40.52H60.025L59.881 42.04C60.457 40.984 61.481 40.36 62.793 40.36C64.169 40.36 64.825 40.936 64.793 42.136C65.417 40.904 66.537 40.36 67.897 40.36C69.401 40.36 70.025 40.984 70.025 42.104C70.025 42.392 69.993 42.696 69.913 43.048L68.665 49H67.289L68.441 43.48C68.505 43.192 68.537 42.936 68.537 42.728C68.537 41.912 68.105 41.56 67.033 41.56C65.753 41.56 64.937 42.392 64.665 43.704L63.545 49H62.169L63.321 43.528C63.385 43.24 63.401 42.968 63.401 42.76C63.401 41.88 62.937 41.56 61.977 41.56C60.585 41.56 59.801 42.472 59.545 43.704L58.441 49H57.065ZM77.6488 49L77.7768 47.464C77.0888 48.536 76.1448 49.16 74.6727 49.16C72.7208 49.16 71.6488 48.04 71.6488 46.152C71.6488 43.288 72.9128 40.36 76.2568 40.36C77.6968 40.36 78.6728 41.048 78.9288 42.296L79.5528 40.52H80.6088L78.8168 49H77.6488ZM73.0728 45.896C73.0728 47.304 73.8728 47.96 75.2008 47.96C76.9448 47.96 77.8728 46.792 78.2248 45.288L78.4008 44.36C78.4648 44.088 78.4808 43.832 78.4808 43.592C78.4808 42.344 77.7928 41.56 76.3368 41.56C73.9688 41.56 73.0728 43.8 73.0728 45.896ZM80.6984 49L81.0184 47.48C81.1464 47.528 81.2584 47.56 81.4024 47.56C82.3624 47.56 83.0984 46.52 84.2184 41.544L84.4584 40.52H90.3464L88.5384 49H87.1464L88.6984 41.72H85.4664L85.3224 42.344C84.1544 47.544 82.9544 49.08 81.3064 49.08C81.0664 49.08 80.8744 49.048 80.6984 49ZM94.1448 49.08C92.2568 49.08 91.6648 48.712 91.6648 47.96C91.6648 47.832 91.6808 47.688 91.7128 47.528L93.2008 40.52H94.5928L93.9848 43.384C94.6088 43.336 94.9608 43.32 95.6328 43.32C97.7768 43.32 98.6888 43.88 98.6888 45.32C98.6888 47.784 97.3608 49.08 94.1448 49.08ZM94.5128 47.928C96.3848 47.928 97.2648 47.288 97.2648 45.64C97.2648 44.728 96.6728 44.472 95.0568 44.472C94.5608 44.472 94.2568 44.488 93.7128 44.536L93.1528 47.16C93.1368 47.256 93.1208 47.352 93.1208 47.432C93.1208 47.784 93.4088 47.928 94.5128 47.928ZM100.159 49L101.967 40.52H103.343L102.591 44.072H106.975L107.727 40.52H109.103L107.295 49H105.919L106.703 45.272H102.319L101.535 49H100.159ZM110.414 45.896C110.414 42.552 112.238 40.36 115.342 40.36C117.246 40.36 118.654 41.432 118.654 43.576C118.654 46.968 117.006 49.16 114.03 49.16C111.582 49.16 110.414 47.816 110.414 45.896ZM111.838 45.64C111.838 47.048 112.462 47.96 114.126 47.96C116.27 47.96 117.23 46.008 117.23 43.816C117.23 42.36 116.59 41.56 115.198 41.56C113.15 41.56 111.838 43.192 111.838 45.64ZM123.746 49.16C121.458 49.16 120.322 47.912 120.322 45.752C120.322 42.664 122.194 40.36 125.058 40.36C127.394 40.36 128.194 41.32 128.194 42.568C128.194 44.184 126.786 45.08 123.826 45.08H121.794C121.762 45.256 121.714 45.608 121.714 45.928C121.714 47.192 122.402 48.008 124.082 48.008C125.17 48.008 126.45 47.64 127.218 46.968L126.962 48.264C126.322 48.76 125.042 49.16 123.746 49.16ZM123.97 44.104C126.322 44.104 126.77 43.464 126.77 42.76C126.77 42.104 126.37 41.512 125.058 41.512C123.426 41.512 122.418 42.36 121.986 44.104H123.97ZM133.846 49L135.654 40.52H137.398L138.918 45.544L142.518 40.52H144.326L142.518 49H141.19L142.31 43.672C142.422 43.096 142.63 42.408 142.806 41.784C142.406 42.408 141.894 43.176 141.606 43.56L139.094 46.968H138.15L137.11 43.576C136.982 43.16 136.774 42.392 136.614 41.784C136.534 42.36 136.438 43.112 136.31 43.704L135.174 49H133.846ZM147.985 49.08C146.129 49.08 145.649 48.712 145.649 47.96C145.649 47.832 145.665 47.672 145.697 47.528L147.201 40.52H148.577L147.969 43.384C148.593 43.336 148.913 43.32 149.457 43.32C151.441 43.32 152.353 43.88 152.353 45.32C152.353 47.784 151.041 49.08 147.985 49.08ZM148.337 47.928C150.065 47.928 150.945 47.288 150.945 45.656C150.945 44.728 150.353 44.472 148.881 44.472C148.497 44.472 148.225 44.488 147.697 44.552L147.137 47.16C147.121 47.256 147.105 47.352 147.105 47.432C147.105 47.784 147.281 47.928 148.337 47.928ZM154.369 49H152.993L154.801 40.52H156.177L154.369 49ZM168.773 47.048L168.485 48.392C167.925 48.776 166.885 49.16 165.637 49.16C163.445 49.16 162.133 47.944 162.133 45.8C162.133 42.536 163.861 40.36 167.125 40.36C168.293 40.36 169.173 40.632 169.589 40.92L169.269 42.328C168.837 41.976 168.021 41.56 166.965 41.56C164.757 41.56 163.557 43.096 163.557 45.576C163.557 46.936 164.341 47.96 166.101 47.96C167.077 47.96 168.101 47.544 168.773 47.048ZM174.327 49.16C171.943 49.16 170.791 47.848 170.791 45.928C170.791 42.52 172.551 40.6 175.287 40.6C176.663 40.6 177.751 41.24 178.055 42.168C178.087 41.928 178.087 41.736 178.087 41.624C178.087 39.032 176.759 38.12 174.295 37.896L174.551 36.84C178.135 36.968 179.335 38.792 179.335 41.448C179.335 42.536 179.191 43.656 178.951 44.856C178.407 47.704 176.839 49.16 174.327 49.16ZM174.391 47.96C176.631 47.96 177.671 46.008 177.671 44.008C177.671 42.568 176.839 41.8 175.383 41.8C173.463 41.8 172.215 43.176 172.215 45.672C172.215 47.048 172.823 47.96 174.391 47.96ZM184.261 49.16C181.973 49.16 180.837 47.912 180.837 45.752C180.837 42.664 182.709 40.36 185.573 40.36C187.909 40.36 188.709 41.32 188.709 42.568C188.709 44.184 187.301 45.08 184.341 45.08H182.309C182.277 45.256 182.229 45.608 182.229 45.928C182.229 47.192 182.917 48.008 184.597 48.008C185.685 48.008 186.965 47.64 187.733 46.968L187.477 48.264C186.837 48.76 185.557 49.16 184.261 49.16ZM184.485 44.104C186.837 44.104 187.285 43.464 187.285 42.76C187.285 42.104 186.885 41.512 185.573 41.512C183.941 41.512 182.933 42.36 182.501 44.104H184.485ZM188.745 49L189.065 47.48C189.193 47.528 189.305 47.56 189.449 47.56C190.409 47.56 191.145 46.52 192.265 41.544L192.505 40.52H198.393L196.585 49H195.193L196.745 41.72H193.513L193.369 42.344C192.201 47.544 191.001 49.08 189.353 49.08C189.113 49.08 188.921 49.048 188.745 49ZM205.696 49L205.824 47.464C205.136 48.536 204.192 49.16 202.72 49.16C200.768 49.16 199.696 48.04 199.696 46.152C199.696 43.288 200.96 40.36 204.304 40.36C205.744 40.36 206.72 41.048 206.976 42.296L207.6 40.52H208.656L206.864 49H205.696ZM201.12 45.896C201.12 47.304 201.92 47.96 203.248 47.96C204.992 47.96 205.92 46.792 206.272 45.288L206.448 44.36C206.512 44.088 206.528 43.832 206.528 43.592C206.528 42.344 205.84 41.56 204.384 41.56C202.016 41.56 201.12 43.8 201.12 45.896ZM213.433 49.16C211.145 49.16 210.009 47.912 210.009 45.752C210.009 42.664 211.881 40.36 214.745 40.36C217.081 40.36 217.881 41.32 217.881 42.568C217.881 44.184 216.473 45.08 213.513 45.08H211.481C211.449 45.256 211.401 45.608 211.401 45.928C211.401 47.192 212.089 48.008 213.769 48.008C214.857 48.008 216.137 47.64 216.905 46.968L216.649 48.264C216.009 48.76 214.729 49.16 213.433 49.16ZM213.657 44.104C216.009 44.104 216.457 43.464 216.457 42.76C216.457 42.104 216.057 41.512 214.745 41.512C213.113 41.512 212.105 42.36 211.673 44.104H213.657ZM218.893 49L220.701 40.52H222.445L223.965 45.544L227.565 40.52H229.373L227.565 49H226.237L227.357 43.672C227.469 43.096 227.677 42.408 227.853 41.784C227.453 42.408 226.941 43.176 226.653 43.56L224.141 46.968H223.197L222.157 43.576C222.029 43.16 221.821 42.392 221.661 41.784C221.581 42.36 221.485 43.112 221.357 43.704L220.221 49H218.893ZM234.617 48.6L234.937 47.08C235.449 47.544 236.393 47.992 237.705 47.992C239.449 47.992 240.153 47.336 240.153 46.216C240.153 45.512 239.673 45.144 238.265 45.144H236.985L237.193 44.152H238.601C240.073 44.152 240.633 43.416 240.633 42.488C240.633 41.848 240.201 41.528 238.905 41.528C237.801 41.528 236.921 41.848 236.105 42.344L236.425 40.888C237.209 40.584 238.153 40.36 239.385 40.36C241.385 40.36 242.121 40.936 242.121 41.992C242.121 43.192 241.577 44.2 240.041 44.536C241.081 44.6 241.625 45.144 241.625 46.024C241.625 47.864 240.361 49.16 237.369 49.16C236.441 49.16 235.305 48.984 234.617 48.6ZM249.586 49L249.714 47.464C249.026 48.536 248.082 49.16 246.61 49.16C244.658 49.16 243.586 48.04 243.586 46.152C243.586 43.288 244.85 40.36 248.194 40.36C249.634 40.36 250.61 41.048 250.866 42.296L251.49 40.52H252.546L250.754 49H249.586ZM245.01 45.896C245.01 47.304 245.81 47.96 247.138 47.96C248.882 47.96 249.81 46.792 250.162 45.288L250.338 44.36C250.402 44.088 250.418 43.832 250.418 43.592C250.418 42.344 249.73 41.56 248.274 41.56C245.906 41.56 245.01 43.8 245.01 45.896ZM258.605 47.352L260.061 40.52C260.909 40.488 261.965 40.44 263.149 40.44C265.501 40.44 266.077 41.016 266.077 42.136C266.077 43.208 265.533 44.168 264.061 44.504C265.117 44.632 265.613 45.112 265.613 46.152C265.613 47.928 264.381 49.08 261.309 49.08C259.149 49.08 258.349 48.584 258.605 47.352ZM260.445 45.112L260.029 47.096C259.901 47.736 260.317 47.944 261.677 47.944C263.421 47.944 264.205 47.512 264.205 46.216C264.205 45.4 263.709 45.112 262.509 45.112H260.445ZM260.653 44.12H262.653C263.885 44.12 264.669 43.672 264.669 42.536C264.669 41.848 264.317 41.576 262.941 41.576C262.189 41.576 261.741 41.592 261.213 41.624L260.653 44.12ZM273.743 49L273.871 47.464C273.183 48.536 272.239 49.16 270.766 49.16C268.815 49.16 267.743 48.04 267.743 46.152C267.743 43.288 269.007 40.36 272.351 40.36C273.791 40.36 274.767 41.048 275.023 42.296L275.647 40.52H276.703L274.911 49H273.743ZM269.167 45.896C269.167 47.304 269.967 47.96 271.295 47.96C273.039 47.96 273.967 46.792 274.319 45.288L274.495 44.36C274.559 44.088 274.575 43.832 274.575 43.592C274.575 42.344 273.887 41.56 272.431 41.56C270.062 41.56 269.167 43.8 269.167 45.896ZM284.648 47.048L284.36 48.392C283.8 48.776 282.76 49.16 281.512 49.16C279.32 49.16 278.008 47.944 278.008 45.8C278.008 42.536 279.736 40.36 283 40.36C284.168 40.36 285.048 40.632 285.464 40.92L285.144 42.328C284.712 41.976 283.896 41.56 282.84 41.56C280.632 41.56 279.432 43.096 279.432 45.576C279.432 46.936 280.216 47.96 281.976 47.96C282.952 47.96 283.976 47.544 284.648 47.048ZM288.262 45.4L289.814 37.8H291.318L289.622 45.4H288.262ZM288.374 49.08C287.686 49.08 287.35 48.744 287.35 48.072C287.35 47.416 287.686 47.08 288.374 47.08C289.046 47.08 289.382 47.416 289.382 48.072C289.382 48.744 289.046 49.08 288.374 49.08Z" fill="white"/>
<defs>
<filter id="filter0_b_180_123600" x="-215" y="-219" width="763" height="503" filterUnits="userSpaceOnUse" color-interpolation-filters="sRGB">
<feFlood flood-opacity="0" result="BackgroundImageFix"/>
<feGaussianBlur in="BackgroundImageFix" stdDeviation="112"/>
<feComposite in2="SourceAlpha" operator="in" result="effect1_backgroundBlur_180_123600"/>
<feBlend mode="normal" in="SourceGraphic" in2="effect1_backgroundBlur_180_123600" result="shape"/>
</filter>
<linearGradient id="paint0_linear_180_123600" x1="2.20028" y1="1.64327" x2="28.7587" y2="37.0547" gradientUnits="userSpaceOnUse">
<stop stop-color="#AB22AF"/>
<stop offset="1" stop-color="#D16CEB" stop-opacity="0.03"/>
</linearGradient>
<linearGradient id="paint1_linear_180_123600" x1="40.5" y1="62.8571" x2="24.8306" y2="1.64998" gradientUnits="userSpaceOnUse">
<stop stop-color="#A864C0"/>
<stop offset="1" stop-color="#F9CDCD" stop-opacity="0"/>
</linearGradient>
<linearGradient id="paint2_linear_180_123600" x1="20.3481" y1="4.03509" x2="39.5403" y2="107.585" gradientUnits="userSpaceOnUse">
<stop stop-color="#E32FE0" stop-opacity="0.08"/>
<stop offset="1" stop-color="#070059" stop-opacity="0.03"/>
</linearGradient>
<linearGradient id="paint3_linear_180_123600" x1="18.6022" y1="6.28655" x2="38.6463" y2="113.189" gradientUnits="userSpaceOnUse">
<stop stop-color="#AB22AF"/>
<stop offset="0.359375" stop-color="#D16CEB" stop-opacity="0.03"/>
<stop offset="0.6875" stop-color="#5D7CE4" stop-opacity="0.03"/>
<stop offset="1" stop-color="#070057"/>
</linearGradient>
</defs>
</svg>
