<svg width="718" height="105" viewBox="0 0 718 105" fill="none" xmlns="http://www.w3.org/2000/svg">
<path d="M11.34 26H2.73L2.73 5L11.85 5C16.53 5 18.93 6.74 18.93 10.22C18.93 12.62 17.97 14.21 15.81 15.05C18.39 15.5 19.56 17.15 19.56 19.88C19.56 24.23 16.44 26 11.34 26ZM6.48 22.55H11.58C14.46 22.55 15.78 21.62 15.78 19.61C15.78 17.6 14.28 16.82 11.64 16.82H6.48L6.48 22.55ZM6.48 13.88H11.31C13.68 13.88 15.18 12.83 15.18 11.03C15.18 9.35 14.07 8.45 11.4 8.45H6.48L6.48 13.88ZM33.5138 26L33.5138 19.94H26.7338V26H23.2238V11H26.7338V16.85H33.5138V11H37.0238L37.0238 26L33.5138 26ZM53.6606 24.5C52.9406 25.34 50.8706 26.33 48.1406 26.3C43.1906 26.33 40.2506 23.6 40.2506 18.44C40.2506 13.46 43.3706 10.67 47.9006 10.67C52.2506 10.7 54.8606 13.37 54.8606 18.08V19.52H43.7306C44.0006 22.01 45.5306 23.27 48.2606 23.27C51.0206 23.27 52.8506 22.22 53.6606 20.9V24.5ZM47.8106 13.73C45.5606 13.73 44.1506 14.87 43.7906 17.03H51.3506C51.2606 14.99 49.9406 13.73 47.8106 13.73ZM70.027 24.5C69.367 25.34 67.477 26.33 65.047 26.33C60.247 26.33 57.067 23.69 57.067 18.44C57.067 13.28 60.307 10.7 65.077 10.67C67.087 10.7 68.887 11.3 69.877 12.05V16.43C68.857 14.84 67.267 13.76 65.077 13.73C62.197 13.73 60.637 15.26 60.637 18.29V18.74C60.637 21.83 62.317 23.27 65.137 23.27C67.627 23.27 69.277 22.22 70.027 20.9V24.5ZM85.2427 24.5C84.5227 25.34 82.4527 26.33 79.7227 26.3C74.7727 26.33 71.8327 23.6 71.8327 18.44C71.8327 13.46 74.9527 10.67 79.4827 10.67C83.8327 10.7 86.4427 13.37 86.4427 18.08V19.52L75.3127 19.52C75.5827 22.01 77.1127 23.27 79.8427 23.27C82.6027 23.27 84.4327 22.22 85.2427 20.9V24.5ZM79.3927 13.73C77.1427 13.73 75.7327 14.87 75.3727 17.03H82.9327C82.8427 14.99 81.5227 13.73 79.3927 13.73ZM99.9591 26V19.94H93.1791V26H89.6691V11L93.1791 11V16.85H99.9591V11H103.469V26H99.9591ZM107.746 26V11H111.226V21.17L118.426 11H121.756V26H118.276V15.71L111.076 26L107.746 26ZM138.416 24.5C137.696 25.34 135.626 26.33 132.896 26.3C127.946 26.33 125.006 23.6 125.006 18.44C125.006 13.46 128.126 10.67 132.656 10.67C137.006 10.7 139.616 13.37 139.616 18.08V19.52L128.486 19.52C128.756 22.01 130.286 23.27 133.016 23.27C135.776 23.27 137.606 22.22 138.416 20.9V24.5ZM132.566 13.73C130.316 13.73 128.906 14.87 128.546 17.03L136.106 17.03C136.016 14.99 134.696 13.73 132.566 13.73ZM150.666 26V11L154.146 11V21.17L161.346 11H164.676V26H161.196V15.71L153.996 26H150.666ZM188.679 24.5C188.019 25.34 186.129 26.33 183.699 26.33C178.899 26.33 175.719 23.69 175.719 18.44C175.719 13.28 178.959 10.7 183.729 10.67C185.739 10.7 187.539 11.3 188.529 12.05V16.43C187.509 14.84 185.919 13.76 183.729 13.73C180.849 13.73 179.289 15.26 179.289 18.29V18.74C179.289 21.83 180.969 23.27 183.789 23.27C186.279 23.27 187.929 22.22 188.679 20.9V24.5ZM202.176 26V19.94H195.396V26H191.886V11H195.396V16.85H202.176V11H205.686V26H202.176ZM219.053 26V21.05H215.573L212.543 26H208.673L212.153 20.57C210.383 19.85 209.423 18.38 209.423 16.43C209.423 12.68 211.523 11 216.173 11H222.563V26H219.053ZM216.263 14.09C213.923 14.09 212.933 14.69 212.933 16.43C212.963 17.66 213.773 18.35 215.603 18.35H219.053V14.09H216.263ZM230.257 26V14.09L225.457 14.09V11L238.597 11V14.09L233.737 14.09V26L230.257 26ZM241.515 26V11H244.995V21.17L252.195 11H255.525V26H252.045V15.71L244.845 26H241.515ZM272.186 24.5C271.466 25.34 269.396 26.33 266.666 26.3C261.716 26.33 258.776 23.6 258.776 18.44C258.776 13.46 261.896 10.67 266.426 10.67C270.776 10.7 273.386 13.37 273.386 18.08V19.52H262.256C262.526 22.01 264.056 23.27 266.786 23.27C269.546 23.27 271.376 22.22 272.186 20.9V24.5ZM266.336 13.73C264.086 13.73 262.676 14.87 262.316 17.03H269.876C269.786 14.99 268.466 13.73 266.336 13.73ZM294.695 26V19.94H287.915V26H284.405V11L287.915 11V16.85H294.695V11H298.205V26H294.695ZM302.812 16.43V12.05C303.802 11.3 305.602 10.7 308.182 10.7C312.562 10.7 314.722 12.2 314.722 16.1V26H311.422V23.3C310.702 25.04 308.872 26.24 306.472 26.24C303.442 26.24 301.642 24.53 301.642 21.59C301.642 18.17 304.132 17.21 307.822 17.21H311.212V16.55C311.212 14.42 310.192 13.76 308.182 13.76C305.422 13.76 303.832 14.84 302.812 16.43ZM307.582 23.09C309.952 23.09 311.062 21.74 311.212 20.72V19.49H308.242C306.172 19.49 305.182 19.88 305.182 21.23C305.182 22.37 306.022 23.09 307.582 23.09ZM328.491 26V14.09L323.631 14.09L323.541 15.98C323.151 25.34 320.871 26.18 318.531 26.18C317.961 26.18 317.361 26.12 317.061 26.03V22.4C317.331 22.49 317.601 22.52 317.841 22.52C319.131 22.52 320.181 22.1 320.391 14.27L320.511 11L331.971 11V26L328.491 26ZM336.291 26V11H339.771V21.17L346.971 11L350.301 11V26H346.821V15.71L339.621 26H336.291ZM363.661 26V20.72C362.611 21.32 361.171 21.59 359.791 21.59C356.191 21.59 354.031 19.97 354.031 16.37V11H357.541V15.83C357.541 17.63 358.561 18.47 360.421 18.47C361.621 18.47 362.761 18.23 363.661 17.78V11H367.171V26H363.661ZM381.707 26V19.94L374.927 19.94V26H371.417V11L374.927 11V16.85L381.707 16.85V11L385.217 11V26H381.707ZM389.464 26V11H392.974V15.44H395.554C399.634 15.44 401.884 16.61 401.884 20.54C401.854 24.35 399.814 26 395.164 26H389.464ZM403.594 26V11H407.104V26H403.594ZM395.044 22.91C397.414 22.91 398.344 22.31 398.374 20.54C398.344 18.95 397.594 18.53 395.284 18.53H392.974V22.91H395.044ZM409.548 26L414.648 18.32L409.908 11H414.018L417.228 16.07L420.438 11L424.398 11L419.598 18.11L424.758 26H420.648L417.078 20.33L413.508 26H409.548ZM12.18 59L12.18 47.09H5.64L5.64 59H2.13L2.13 44H15.69L15.69 59H12.18ZM26.6325 59.33C21.9525 59.33 18.9225 56.69 18.9225 51.44C18.9225 46.25 22.0725 43.67 26.7525 43.67C31.4025 43.7 34.4325 46.34 34.4325 51.56C34.4325 56.75 31.2825 59.3 26.6325 59.33ZM22.4925 51.44V51.53C22.4925 54.83 24.0525 56.27 26.6925 56.27C29.3625 56.27 30.8625 54.74 30.8625 51.56V51.47C30.8625 48.17 29.2725 46.73 26.6325 46.73C23.9625 46.76 22.4925 48.29 22.4925 51.44ZM64.7201 64.4H59.9801L55.8101 59.33C49.0301 59.3 44.5601 55.28 44.5601 48.47C44.5601 42.17 48.9401 37.7 55.7801 37.67C62.5601 37.67 67.0601 41.72 67.0601 48.53C67.0601 53.48 64.3601 57.29 59.9201 58.73L64.7201 64.4ZM48.5201 48.5C48.5201 52.61 51.0101 55.85 55.8101 55.88C60.3101 55.88 63.1001 52.91 63.1001 48.5C63.1001 44.42 60.5801 41.18 55.8101 41.12C51.3101 41.12 48.5201 44.09 48.5201 48.5ZM83.9817 59L79.4817 52.37C78.8817 52.43 78.2817 52.46 77.6217 52.46H74.7417V59L70.9917 59L70.9917 38L77.6217 38C84.2517 38 87.0717 40.37 87.0717 45.11C87.0717 48.26 85.7217 50.39 83.1117 51.53L88.4817 59H83.9817ZM77.9517 41.45H74.7417V49.01H77.8917C81.3717 49.01 83.1717 47.87 83.1717 45.02C83.1717 42.44 81.6117 41.45 77.9517 41.45ZM91.7548 51.77V48.53H99.7948V51.77H91.7548ZM104.318 59V44H107.828V49.85H110.258L114.458 44H118.358L113.108 51.08L119.198 59H114.938L110.228 52.79H107.828V59H104.318ZM127.853 59.33C123.173 59.33 120.143 56.69 120.143 51.44C120.143 46.25 123.293 43.67 127.973 43.67C132.623 43.7 135.653 46.34 135.653 51.56C135.653 56.75 132.503 59.3 127.853 59.33ZM123.713 51.44V51.53C123.713 54.83 125.273 56.27 127.913 56.27C130.583 56.27 132.083 54.74 132.083 51.56V51.47C132.083 48.17 130.493 46.73 127.853 46.73C125.183 46.76 123.713 48.29 123.713 51.44ZM136.915 55.82H138.655C139.495 53.66 140.005 50.69 140.005 45.71V44H151.525V55.82H153.805V62.9H150.625V59H140.095V62.9H136.915V55.82ZM143.275 47.45C143.185 50.9 142.885 53.48 142.045 55.82H148.015V47.09H143.275V47.45ZM160.732 59.06L154.402 44H158.332L162.442 54.29L165.802 44H169.522L163.522 60.59C162.202 64.19 160.852 65 158.872 65C157.942 65 156.922 64.73 156.472 64.34V61.07C156.922 61.52 157.612 61.82 158.272 61.82C159.352 61.82 160.162 61.1 160.732 59.06Z" fill="white"/>
<path d="M182.48 56.608H184.336C185.232 54.304 185.776 51.136 185.776 45.824V44H198.064V56.608H200.496V64.16H197.104V60H185.872V64.16H182.48V56.608ZM189.264 47.68C189.168 51.36 188.848 54.112 187.952 56.608H194.32V47.296H189.264V47.68ZM214.609 60V47.296L209.425 47.296L209.329 49.312C208.913 59.296 206.481 60.192 203.985 60.192C203.377 60.192 202.737 60.128 202.417 60.032V56.16C202.705 56.256 202.993 56.288 203.249 56.288C204.625 56.288 205.745 55.84 205.969 47.488L206.097 44L218.321 44V60H214.609ZM232.625 60V54.72H228.913L225.681 60H221.553L225.265 54.208C223.377 53.44 222.353 51.872 222.353 49.792C222.353 45.792 224.593 44 229.553 44H236.369V60H232.625ZM229.649 47.296C227.153 47.296 226.097 47.936 226.097 49.792C226.129 51.104 226.993 51.84 228.945 51.84H232.625V47.296H229.649ZM263.353 35.2V39.04C262.713 39.392 260.889 39.68 258.265 39.904C253.145 40.384 251.993 42.4 251.577 46.976C252.825 45.184 254.777 44 257.657 44C261.593 44 264.857 45.984 264.857 51.776C264.857 57.44 261.849 60.32 256.793 60.32C251.353 60.32 248.313 57.088 248.313 49.696C248.313 40.864 250.745 37.312 256.249 36.416C258.713 36 262.041 35.872 263.353 35.2ZM252.153 51.808C252.153 54.784 253.625 56.928 256.537 56.928C259.065 56.928 260.953 55.584 260.953 52.096C260.953 48.768 259.385 47.328 256.697 47.328C253.881 47.328 252.153 48.832 252.153 51.808ZM268.304 60V44H272.016V54.848L279.696 44H283.248V60H279.536V49.024L271.856 60H268.304ZM287.003 58.368V54.528C287.931 55.936 290.043 57.056 293.051 57.056C295.163 57.056 296.507 56.416 296.507 55.072C296.507 53.824 295.579 53.312 293.403 53.312H290.651V50.592H292.923C294.651 50.592 295.803 50.048 295.803 48.704C295.803 47.616 295.099 46.976 293.147 46.944C290.459 46.944 288.539 48.096 287.291 49.792V45.12C288.507 44.32 290.683 43.68 293.147 43.68H293.275C297.723 43.68 299.611 45.312 299.611 47.84C299.611 49.856 298.555 50.88 296.955 51.552C299.099 51.968 300.283 53.056 300.283 55.2C300.283 58.56 297.371 60.32 293.051 60.32C290.235 60.32 287.803 59.264 287.003 58.368ZM314.717 60V53.536H307.485V60H303.741V44H307.485V50.24H314.717V44H318.461V60L314.717 60ZM336.207 58.4C335.439 59.296 333.231 60.352 330.319 60.32C325.039 60.352 321.903 57.44 321.903 51.936C321.903 46.624 325.231 43.648 330.063 43.648C334.703 43.68 337.487 46.528 337.487 51.552V53.088H325.615C325.903 55.744 327.535 57.088 330.447 57.088C333.391 57.088 335.343 55.968 336.207 54.56V58.4ZM329.967 46.912C327.567 46.912 326.063 48.128 325.679 50.432H333.743C333.647 48.256 332.239 46.912 329.967 46.912ZM353.664 58.4C352.96 59.296 350.944 60.352 348.352 60.352C343.232 60.352 339.84 57.536 339.84 51.936C339.84 46.432 343.296 43.68 348.384 43.648C350.528 43.68 352.448 44.32 353.504 45.12V49.792C352.416 48.096 350.72 46.944 348.384 46.912C345.312 46.912 343.648 48.544 343.648 51.776V52.256C343.648 55.552 345.44 57.088 348.448 57.088C351.104 57.088 352.864 55.968 353.664 54.56V58.4ZM357.341 52.288V48.832H365.917V52.288H357.341ZM370.741 60V44H374.485V50.24H377.077L381.557 44H385.717L380.117 51.552L386.613 60H382.069L377.045 53.376H374.485V60H370.741ZM389.594 49.792V45.12C390.65 44.32 392.57 43.68 395.322 43.68C399.994 43.68 402.298 45.28 402.298 49.44V60H398.778V57.12C398.01 58.976 396.058 60.256 393.498 60.256C390.266 60.256 388.346 58.432 388.346 55.296C388.346 51.648 391.002 50.624 394.938 50.624H398.554V49.92C398.554 47.648 397.466 46.944 395.322 46.944C392.378 46.944 390.682 48.096 389.594 49.792ZM394.682 56.896C397.21 56.896 398.394 55.456 398.554 54.368V53.056H395.385C393.178 53.056 392.122 53.472 392.122 54.912C392.122 56.128 393.018 56.896 394.682 56.896ZM406.616 66.176V44H410.136V47.328C410.712 45.536 412.408 43.68 415.8 43.68C419.864 43.68 422.712 46.048 422.712 51.648C422.712 57.952 419.864 60.352 415.48 60.352C412.92 60.352 411.16 59.072 410.36 57.568V66.176H406.616ZM410.36 51.328V52.544C410.36 55.424 412.024 57.056 414.648 57.056C417.656 57.056 418.968 55.584 418.968 51.808C418.968 48.288 417.272 47.008 414.712 47.008C411.768 47.008 410.424 48.64 410.36 51.328ZM429.764 60V47.296H424.644V44H438.66V47.296H433.476V60H429.764Z" fill="url(#paint0_linear_433_574)"/>
<defs>
<linearGradient id="paint0_linear_433_574" x1="191.277" y1="89.7553" x2="684.683" y2="89.7553" gradientUnits="userSpaceOnUse">
<stop stop-color="#DB32E1"/>
<stop offset="0.510417" stop-color="#7A4FDC"/>
<stop offset="1" stop-color="#3D51C2"/>
</linearGradient>
</defs>
</svg>
