<svg width="524" height="137" viewBox="0 0 524 137" fill="none" xmlns="http://www.w3.org/2000/svg">
<path d="M10.72 19.46H7.48L7.48 26H3.73L3.73 5L10.72 5C17.35 5 20.17 7.37 20.17 12.11C20.17 17 16.87 19.46 10.72 19.46ZM11.05 8.45H7.48L7.48 16.01H10.99C14.47 16.01 16.27 14.87 16.27 12.02C16.27 9.44 14.71 8.45 11.05 8.45ZM23.1013 11.78L23.1013 6.56C24.3913 5.69 26.9713 4.7 30.4213 4.67C37.2013 4.67 41.8513 8.72 41.8513 15.53C41.8513 21.86 37.5613 26.33 30.4513 26.33C26.8213 26.33 24.0013 24.95 22.9513 23.69V19.07C24.1813 21.2 26.8213 22.88 30.5413 22.88C34.8613 22.85 37.4713 20.54 37.8913 16.85L27.6013 16.85V13.58L37.8313 13.58C37.2913 10.49 34.9213 8.15 30.4213 8.12C27.0913 8.12 24.4213 9.92 23.1013 11.78ZM44.271 15.47C44.271 9.14 48.681 4.67 55.521 4.67C62.271 4.7 66.771 8.75 66.771 15.53C66.771 21.86 62.361 26.33 55.521 26.33C48.771 26.33 44.271 22.28 44.271 15.47ZM48.231 15.5C48.231 19.61 50.751 22.85 55.551 22.88C60.021 22.88 62.811 19.91 62.811 15.5C62.811 11.39 60.291 8.15 55.491 8.12C50.991 8.15 48.231 11.12 48.231 15.5ZM87.9456 26V14.09H81.4056V26H77.8956V11L91.4556 11V26H87.9456ZM95.7081 31.79V11H99.0081V14.12C99.5481 12.44 101.138 10.7 104.318 10.7C108.128 10.7 110.798 12.92 110.798 18.17C110.798 24.08 108.128 26.33 104.018 26.33C101.618 26.33 99.9681 25.13 99.2181 23.72V31.79H95.7081ZM99.2181 17.87V19.01C99.2181 21.71 100.778 23.24 103.238 23.24C106.058 23.24 107.288 21.86 107.288 18.32C107.288 15.02 105.698 13.82 103.298 13.82C100.538 13.82 99.2781 15.35 99.2181 17.87ZM126.379 24.5C125.659 25.34 123.589 26.33 120.859 26.3C115.909 26.33 112.969 23.6 112.969 18.44C112.969 13.46 116.089 10.67 120.619 10.67C124.969 10.7 127.579 13.37 127.579 18.08V19.52H116.449C116.719 22.01 118.249 23.27 120.979 23.27C123.739 23.27 125.569 22.22 126.379 20.9V24.5ZM120.529 13.73C118.279 13.73 116.869 14.87 116.509 17.03H124.069C123.979 14.99 122.659 13.73 120.529 13.73ZM128.833 22.82H130.573C131.413 20.66 131.923 17.69 131.923 12.71V11L143.443 11V22.82H145.723V29.9H142.543V26L132.013 26V29.9H128.833V22.82ZM135.193 14.45C135.103 17.9 134.803 20.48 133.963 22.82L139.933 22.82V14.09H135.193V14.45ZM160.383 24.5C159.723 25.34 157.833 26.33 155.403 26.33C150.603 26.33 147.423 23.69 147.423 18.44C147.423 13.28 150.663 10.7 155.433 10.67C157.443 10.7 159.243 11.3 160.233 12.05V16.43C159.213 14.84 157.623 13.76 155.433 13.73C152.553 13.73 150.993 15.26 150.993 18.29V18.74C150.993 21.83 152.673 23.27 155.493 23.27C157.983 23.27 159.633 22.22 160.383 20.9V24.5ZM167.331 26V14.09L162.531 14.09V11L175.671 11V14.09H170.811V26H167.331ZM178.656 16.43V12.05C179.646 11.3 181.446 10.7 184.026 10.7C188.406 10.7 190.566 12.2 190.566 16.1V26H187.266V23.3C186.546 25.04 184.716 26.24 182.316 26.24C179.286 26.24 177.486 24.53 177.486 21.59C177.486 18.17 179.976 17.21 183.666 17.21L187.056 17.21V16.55C187.056 14.42 186.036 13.76 184.026 13.76C181.266 13.76 179.676 14.84 178.656 16.43ZM183.426 23.09C185.796 23.09 186.906 21.74 187.056 20.72V19.49L184.086 19.49C182.016 19.49 181.026 19.88 181.026 21.23C181.026 22.37 181.866 23.09 183.426 23.09ZM194.614 26V11H202.174C205.744 11 207.154 12.23 207.154 14.48C207.154 16.28 206.194 17.51 204.574 17.9C206.494 18.14 207.904 19.01 207.904 21.56C207.904 24.44 206.014 26 202.084 26H194.614ZM198.124 23.09H201.754C203.614 23.09 204.424 22.52 204.424 21.32C204.424 20 203.584 19.58 201.964 19.58H198.124V23.09ZM198.124 17.06H201.334C202.714 17.06 203.644 16.61 203.644 15.35C203.644 14.24 202.864 13.91 201.364 13.91L198.124 13.94V17.06ZM211.139 26V11H214.619V21.17L221.819 11H225.149V26H221.669V15.71L214.469 26H211.139ZM239.139 26V14.09H234.279L234.189 15.98C233.799 25.34 231.519 26.18 229.179 26.18C228.609 26.18 228.009 26.12 227.709 26.03V22.4C227.979 22.49 228.249 22.52 228.489 22.52C229.779 22.52 230.829 22.1 231.039 14.27L231.159 11L242.619 11V26H239.139ZM266.222 21.77V25.67L259.562 18.5L266.222 11.33V15.26L263.342 18.5L266.222 21.77ZM260.312 21.77V25.67L253.652 18.5L260.312 11.33V15.26L257.402 18.5L260.312 21.77ZM270.449 26V5L285.359 5V8.45L274.199 8.45V12.2L278.309 12.2C284.069 12.2 287.009 14.36 287.009 18.98C287.009 23.6 283.589 26 278.219 26H270.449ZM278.189 15.65L274.199 15.65V22.55H278.189C281.189 22.55 283.109 21.68 283.109 18.89C283.109 16.37 281.429 15.65 278.189 15.65ZM302.922 24.5C302.202 25.34 300.132 26.33 297.402 26.3C292.452 26.33 289.512 23.6 289.512 18.44C289.512 13.46 292.632 10.67 297.162 10.67C301.512 10.7 304.122 13.37 304.122 18.08V19.52H292.992C293.262 22.01 294.792 23.27 297.522 23.27C300.282 23.27 302.112 22.22 302.922 20.9V24.5ZM297.072 13.73C294.822 13.73 293.412 14.87 293.052 17.03H300.612C300.522 14.99 299.202 13.73 297.072 13.73ZM306.394 24.47V20.87C307.264 22.19 309.244 23.24 312.064 23.24C314.044 23.24 315.304 22.64 315.304 21.38C315.304 20.21 314.434 19.73 312.394 19.73H309.814V17.18H311.944C313.564 17.18 314.644 16.67 314.644 15.41C314.644 14.39 313.984 13.79 312.154 13.76C309.634 13.76 307.834 14.84 306.664 16.43V12.05C307.804 11.3 309.844 10.7 312.154 10.7H312.274C316.444 10.7 318.214 12.23 318.214 14.6C318.214 16.49 317.224 17.45 315.724 18.08C317.734 18.47 318.844 19.49 318.844 21.5C318.844 24.65 316.114 26.3 312.064 26.3C309.424 26.3 307.144 25.31 306.394 24.47ZM328.775 26.33C324.095 26.33 321.065 23.69 321.065 18.44C321.065 13.25 324.215 10.67 328.895 10.67C333.545 10.7 336.575 13.34 336.575 18.56C336.575 23.75 333.425 26.3 328.775 26.33ZM324.635 18.44V18.53C324.635 21.83 326.195 23.27 328.835 23.27C331.505 23.27 333.005 21.74 333.005 18.56V18.47C333.005 15.17 331.415 13.73 328.775 13.73C326.105 13.76 324.635 15.29 324.635 18.44ZM349.86 26V14.09L343.32 14.09V26H339.81V11L353.37 11V26H349.86ZM357.982 16.43V12.05C358.972 11.3 360.772 10.7 363.352 10.7C367.732 10.7 369.892 12.2 369.892 16.1V26H366.592V23.3C365.872 25.04 364.042 26.24 361.642 26.24C358.612 26.24 356.812 24.53 356.812 21.59C356.812 18.17 359.302 17.21 362.992 17.21H366.382V16.55C366.382 14.42 365.362 13.76 363.352 13.76C360.592 13.76 359.002 14.84 357.982 16.43ZM362.752 23.09C365.122 23.09 366.232 21.74 366.382 20.72V19.49H363.412C361.342 19.49 360.352 19.88 360.352 21.23C360.352 22.37 361.192 23.09 362.752 23.09ZM385.881 24.5C385.221 25.34 383.331 26.33 380.901 26.33C376.101 26.33 372.921 23.69 372.921 18.44C372.921 13.28 376.161 10.7 380.931 10.67C382.941 10.7 384.741 11.3 385.731 12.05V16.43C384.711 14.84 383.121 13.76 380.931 13.73C378.051 13.73 376.491 15.26 376.491 18.29V18.74C376.491 21.83 378.171 23.27 380.991 23.27C383.481 23.27 385.131 22.22 385.881 20.9V24.5ZM399.377 26V19.94H392.597V26H389.087V11H392.597V16.85H399.377V11H402.887V26H399.377ZM407.134 26V11L410.644 11V15.44H413.224C417.304 15.44 419.554 16.61 419.554 20.54C419.524 24.35 417.484 26 412.834 26H407.134ZM421.264 26V11L424.774 11V26H421.264ZM412.714 22.91C415.084 22.91 416.014 22.31 416.044 20.54C416.014 18.95 415.264 18.53 412.954 18.53H410.644V22.91H412.714ZM441.438 24.5C440.718 25.34 438.648 26.33 435.918 26.3C430.968 26.33 428.028 23.6 428.028 18.44C428.028 13.46 431.148 10.67 435.678 10.67C440.028 10.7 442.638 13.37 442.638 18.08V19.52H431.508C431.778 22.01 433.308 23.27 436.038 23.27C438.798 23.27 440.628 22.22 441.438 20.9V24.5ZM435.588 13.73C433.338 13.73 431.928 14.87 431.568 17.03H439.128C439.038 14.99 437.718 13.73 435.588 13.73ZM15.07 57.5C14.41 58.34 12.52 59.33 10.09 59.33C5.29 59.33 2.11 56.69 2.11 51.44C2.11 46.28 5.35 43.7 10.12 43.67C12.13 43.7 13.93 44.3 14.92 45.05V49.43C13.9 47.84 12.31 46.76 10.12 46.73C7.24 46.73 5.68 48.26 5.68 51.29V51.74C5.68 54.83 7.36 56.27 10.18 56.27C12.67 56.27 14.32 55.22 15.07 53.9L15.07 57.5ZM16.9773 55.82H18.7173C19.5573 53.66 20.0673 50.69 20.0673 45.71V44L31.5873 44L31.5873 55.82H33.8673L33.8673 62.9H30.6873V59L20.1573 59V62.9H16.9773V55.82ZM23.3373 47.45C23.2473 50.9 22.9473 53.48 22.1073 55.82L28.0773 55.82L28.0773 47.09L23.3373 47.09V47.45ZM48.977 57.5C48.257 58.34 46.187 59.33 43.457 59.3C38.507 59.33 35.567 56.6 35.567 51.44C35.567 46.46 38.687 43.67 43.217 43.67C47.567 43.7 50.177 46.37 50.177 51.08V52.52H39.047C39.317 55.01 40.847 56.27 43.577 56.27C46.337 56.27 48.167 55.22 48.977 53.9V57.5ZM43.127 46.73C40.877 46.73 39.467 47.87 39.107 50.03H46.667C46.577 47.99 45.257 46.73 43.127 46.73ZM62.8305 59V47.09H57.9705L57.8805 48.98C57.4905 58.34 55.2105 59.18 52.8705 59.18C52.3005 59.18 51.7005 59.12 51.4005 59.03V55.4C51.6705 55.49 51.9405 55.52 52.1805 55.52C53.4705 55.52 54.5205 55.1 54.7305 47.27L54.8505 44H66.3105V59H62.8305ZM70.6007 59V44H74.1107V49.85L76.5407 49.85L80.7407 44H84.6407L79.3907 51.08L85.4807 59H81.2207L76.5107 52.79L74.1107 52.79V59H70.6007ZM88.0623 59V44H91.5423V54.17L98.7423 44H102.072V59H98.5923V48.71L91.3923 59H88.0623ZM105.713 48.23V44.33L112.373 51.5L105.713 58.67V54.74L108.623 51.5L105.713 48.23ZM111.653 48.23V44.33L118.313 51.5L111.653 58.67V54.74L114.533 51.5L111.653 48.23ZM135.972 59.33C131.292 59.33 128.262 56.69 128.262 51.44C128.262 46.25 131.412 43.67 136.092 43.67C140.742 43.7 143.772 46.34 143.772 51.56C143.772 56.75 140.622 59.3 135.972 59.33ZM131.832 51.44V51.53C131.832 54.83 133.392 56.27 136.032 56.27C138.702 56.27 140.202 54.74 140.202 51.56V51.47C140.202 48.17 138.612 46.73 135.972 46.73C133.302 46.76 131.832 48.29 131.832 51.44ZM150.427 59V47.09H145.627V44H158.767V47.09H153.907V59H150.427ZM187.388 52.07V56.69C186.338 57.95 183.578 59.33 179.948 59.33C173.108 59.3 168.548 55.25 168.548 48.47C168.548 42.14 173.048 37.67 180.008 37.67C183.308 37.67 185.738 38.69 186.968 39.56V44.78C185.708 42.92 183.158 41.12 180.008 41.12C175.418 41.12 172.598 44.09 172.598 48.5C172.598 52.58 175.088 55.79 179.918 55.88C183.578 55.88 186.158 54.2 187.388 52.07ZM203.215 35.75V39.35C202.615 39.68 200.905 39.95 198.445 40.16C193.645 40.61 192.565 42.5 192.175 46.79C193.345 45.11 195.175 44 197.875 44C201.565 44 204.625 45.86 204.625 51.29C204.625 56.6 201.805 59.3 197.065 59.3C191.965 59.3 189.115 56.27 189.115 49.34C189.115 41.06 191.395 37.73 196.555 36.89C198.865 36.5 201.985 36.38 203.215 35.75ZM192.715 51.32C192.715 54.11 194.095 56.12 196.825 56.12C199.195 56.12 200.965 54.86 200.965 51.59C200.965 48.47 199.495 47.12 196.975 47.12C194.335 47.12 192.715 48.53 192.715 51.32ZM220.217 57.5C219.497 58.34 217.427 59.33 214.697 59.3C209.747 59.33 206.807 56.6 206.807 51.44C206.807 46.46 209.927 43.67 214.457 43.67C218.807 43.7 221.417 46.37 221.417 51.08V52.52L210.287 52.52C210.557 55.01 212.087 56.27 214.817 56.27C217.577 56.27 219.407 55.22 220.217 53.9V57.5ZM214.367 46.73C212.117 46.73 210.707 47.87 210.347 50.03H217.907C217.817 47.99 216.497 46.73 214.367 46.73ZM224.644 64.79V44H227.944V47.12C228.484 45.44 230.074 43.7 233.254 43.7C237.064 43.7 239.734 45.92 239.734 51.17C239.734 57.08 237.064 59.33 232.954 59.33C230.554 59.33 228.904 58.13 228.154 56.72V64.79H224.644ZM228.154 50.87V52.01C228.154 54.71 229.714 56.24 232.174 56.24C234.994 56.24 236.224 54.86 236.224 51.32C236.224 48.02 234.634 46.82 232.234 46.82C229.474 46.82 228.214 48.35 228.154 50.87ZM243.285 49.43V45.05C244.275 44.3 246.075 43.7 248.655 43.7C253.035 43.7 255.195 45.2 255.195 49.1V59H251.895V56.3C251.175 58.04 249.345 59.24 246.945 59.24C243.915 59.24 242.115 57.53 242.115 54.59C242.115 51.17 244.605 50.21 248.295 50.21H251.685V49.55C251.685 47.42 250.665 46.76 248.655 46.76C245.895 46.76 244.305 47.84 243.285 49.43ZM248.055 56.09C250.425 56.09 251.535 54.74 251.685 53.72V52.49H248.715C246.645 52.49 245.655 52.88 245.655 54.23C245.655 55.37 246.495 56.09 248.055 56.09Z" fill="white"/>
<path d="M279.248 60V53.536L272.016 53.536V60H268.272V44L272.016 44V50.24L279.248 50.24V44H282.992V60H279.248ZM287.906 49.792V45.12C288.962 44.32 290.882 43.68 293.634 43.68C298.306 43.68 300.61 45.28 300.61 49.44V60H297.09V57.12C296.322 58.976 294.37 60.256 291.81 60.256C288.578 60.256 286.658 58.432 286.658 55.296C286.658 51.648 289.314 50.624 293.25 50.624L296.866 50.624V49.92C296.866 47.648 295.778 46.944 293.634 46.944C290.69 46.944 288.994 48.096 287.906 49.792ZM292.994 56.896C295.522 56.896 296.706 55.456 296.866 54.368V53.056L293.698 53.056C291.49 53.056 290.434 53.472 290.434 54.912C290.434 56.128 291.33 56.896 292.994 56.896ZM313.241 60V44H316.985V56.608H323.769V44H327.513V56.608H329.913V64.16H326.521V60H313.241ZM332.867 60V44H336.579V54.848L344.259 44H347.811V60H344.099V49.024L336.419 60H332.867ZM359.79 36H363.534V44H364.142C368.718 44 372.046 46.176 372.046 52C372.046 57.472 368.782 60 364.238 60H363.534V66.176H359.79V60H359.182C354.606 60 351.278 57.824 351.278 52C351.278 46.528 354.542 44 359.086 44H359.79V36ZM354.99 51.84C354.99 55.648 356.686 56.704 359.214 56.704H359.79V47.296H359.246C356.622 47.296 354.99 48.576 354.99 51.84ZM364.11 47.296H363.534V56.704H364.046C366.67 56.704 368.302 55.424 368.302 52.16C368.302 48.352 366.606 47.296 364.11 47.296ZM375.491 66.176V44H379.011V47.328C379.587 45.536 381.283 43.68 384.675 43.68C388.739 43.68 391.587 46.048 391.587 51.648C391.587 57.952 388.739 60.352 384.355 60.352C381.795 60.352 380.035 59.072 379.235 57.568V66.176H375.491ZM379.235 51.328V52.544C379.235 55.424 380.899 57.056 383.523 57.056C386.531 57.056 387.843 55.584 387.843 51.808C387.843 48.288 386.147 47.008 383.587 47.008C380.643 47.008 379.299 48.64 379.235 51.328ZM402.127 60.352C397.135 60.352 393.903 57.536 393.903 51.936C393.903 46.4 397.263 43.648 402.255 43.648C407.215 43.68 410.447 46.496 410.447 52.064C410.447 57.6 407.087 60.32 402.127 60.352ZM397.711 51.936V52.032C397.711 55.552 399.375 57.088 402.191 57.088C405.039 57.088 406.639 55.456 406.639 52.064V51.968C406.639 48.448 404.943 46.912 402.127 46.912C399.279 46.944 397.711 48.576 397.711 51.936ZM413.897 60V44H421.961C425.769 44 427.273 45.312 427.273 47.712C427.273 49.632 426.249 50.944 424.521 51.36C426.569 51.616 428.073 52.544 428.073 55.264C428.073 58.336 426.057 60 421.865 60H413.897ZM417.641 56.896H421.513C423.497 56.896 424.361 56.288 424.361 55.008C424.361 53.6 423.465 53.152 421.737 53.152H417.641V56.896ZM417.641 50.464H421.065C422.537 50.464 423.529 49.984 423.529 48.64C423.529 47.456 422.697 47.104 421.097 47.104L417.641 47.136V50.464ZM438.627 60.352C433.635 60.352 430.403 57.536 430.403 51.936C430.403 46.4 433.763 43.648 438.755 43.648C443.715 43.68 446.947 46.496 446.947 52.064C446.947 57.6 443.587 60.32 438.627 60.352ZM434.211 51.936V52.032C434.211 55.552 435.875 57.088 438.691 57.088C441.539 57.088 443.139 55.456 443.139 52.064V51.968C443.139 48.448 441.443 46.912 438.627 46.912C435.779 46.944 434.211 48.576 434.211 51.936ZM450.429 60V44H454.141V54.848L461.821 44L465.373 44V60H461.661V49.024L453.981 60H450.429ZM460.029 36.032H463.485C463.485 39.648 460.797 40.992 458.045 40.992C454.877 40.992 452.285 39.648 452.285 36.032H455.741C455.741 37.376 456.413 38.208 457.981 38.208C459.261 38.208 460.029 37.632 460.029 36.032ZM12.992 95L12.992 82.296H6.016L6.016 95H2.272L2.272 79H16.736L16.736 95H12.992ZM31.64 95L31.64 82.296H26.456L26.36 84.312C25.944 94.296 23.512 95.192 21.016 95.192C20.408 95.192 19.768 95.128 19.448 95.032L19.448 91.16C19.736 91.256 20.024 91.288 20.28 91.288C21.656 91.288 22.776 90.84 23 82.488L23.128 79H35.352V95H31.64ZM40.3123 84.792V80.12C41.3683 79.32 43.2883 78.68 46.0403 78.68C50.7123 78.68 53.0163 80.28 53.0163 84.44V95H49.4963V92.12C48.7283 93.976 46.7763 95.256 44.2163 95.256C40.9843 95.256 39.0643 93.432 39.0643 90.296C39.0643 86.648 41.7203 85.624 45.6562 85.624H49.2723V84.92C49.2723 82.648 48.1843 81.944 46.0403 81.944C43.0963 81.944 41.4003 83.096 40.3123 84.792ZM45.4003 91.896C47.9283 91.896 49.1123 90.456 49.2723 89.368V88.056H46.1042C43.8963 88.056 42.8403 88.472 42.8403 89.912C42.8403 91.128 43.7363 91.896 45.4003 91.896ZM60.9825 95V82.296H55.8625V79L69.8785 79L69.8785 82.296H64.6945V95L60.9825 95ZM80.3835 71H84.1275V79H84.7355C89.3115 79 92.6395 81.176 92.6395 87C92.6395 92.472 89.3755 95 84.8315 95H84.1275V101.176H80.3835V95H79.7755C75.1995 95 71.8715 92.824 71.8715 87C71.8715 81.528 75.1355 79 79.6795 79H80.3835V71ZM75.5835 86.84C75.5835 90.648 77.2795 91.704 79.8075 91.704H80.3835V82.296H79.8395C77.2155 82.296 75.5835 83.576 75.5835 86.84ZM84.7035 82.296H84.1275V91.704H84.6395C87.2635 91.704 88.8955 90.424 88.8955 87.16C88.8955 83.352 87.1995 82.296 84.7035 82.296ZM103.22 95.352C98.2285 95.352 94.9965 92.536 94.9965 86.936C94.9965 81.4 98.3565 78.648 103.349 78.648C108.309 78.68 111.541 81.496 111.541 87.064C111.541 92.6 108.181 95.32 103.22 95.352ZM98.8045 86.936V87.032C98.8045 90.552 100.469 92.088 103.285 92.088C106.133 92.088 107.733 90.456 107.733 87.064V86.968C107.733 83.448 106.037 81.912 103.22 81.912C100.373 81.944 98.8045 83.576 98.8045 86.936ZM114.991 101.176L114.991 79H118.511L118.511 82.328C119.087 80.536 120.783 78.68 124.175 78.68C128.239 78.68 131.087 81.048 131.087 86.648C131.087 92.952 128.239 95.352 123.855 95.352C121.295 95.352 119.535 94.072 118.735 92.568V101.176H114.991ZM118.735 86.328V87.544C118.735 90.424 120.399 92.056 123.023 92.056C126.031 92.056 127.343 90.584 127.343 86.808C127.343 83.288 125.647 82.008 123.087 82.008C120.143 82.008 118.799 83.64 118.735 86.328ZM148.667 95V84.248L144.059 91.032H142.875L138.235 84.216V95H134.491V79H138.363L143.579 86.488L148.635 79H152.411V95H148.667ZM170.176 93.4C169.408 94.296 167.2 95.352 164.288 95.32C159.008 95.352 155.872 92.44 155.872 86.936C155.872 81.624 159.2 78.648 164.032 78.648C168.672 78.68 171.456 81.528 171.456 86.552V88.088H159.584C159.872 90.744 161.504 92.088 164.416 92.088C167.36 92.088 169.312 90.968 170.176 89.56V93.4ZM163.936 81.912C161.536 81.912 160.032 83.128 159.648 85.432H167.712C167.616 83.256 166.208 81.912 163.936 81.912ZM193.93 95V82.296H186.954V95H183.21V79H197.674V95H193.93ZM209.345 95.352C204.354 95.352 201.122 92.536 201.122 86.936C201.122 81.4 204.482 78.648 209.474 78.648C214.434 78.68 217.666 81.496 217.666 87.064C217.666 92.6 214.306 95.32 209.345 95.352ZM204.93 86.936V87.032C204.93 90.552 206.594 92.088 209.41 92.088C212.258 92.088 213.858 90.456 213.858 87.064V86.968C213.858 83.448 212.162 81.912 209.345 81.912C206.498 81.944 204.93 83.576 204.93 86.936ZM233.076 95V82.296H227.956V79H241.972V82.296H236.788V95H233.076ZM252.189 95.352C247.197 95.352 243.965 92.536 243.965 86.936C243.965 81.4 247.325 78.648 252.317 78.648C257.277 78.68 260.509 81.496 260.509 87.064C260.509 92.6 257.149 95.32 252.189 95.352ZM247.773 86.936V87.032C247.773 90.552 249.437 92.088 252.253 92.088C255.101 92.088 256.701 90.456 256.701 87.064V86.968C256.701 83.448 255.005 81.912 252.189 81.912C249.341 81.944 247.773 83.576 247.773 86.936ZM263.96 101.176V79L267.48 79V82.328C268.056 80.536 269.752 78.68 273.144 78.68C277.208 78.68 280.056 81.048 280.056 86.648C280.056 92.952 277.208 95.352 272.824 95.352C270.264 95.352 268.504 94.072 267.704 92.568V101.176H263.96ZM267.704 86.328V87.544C267.704 90.424 269.368 92.056 271.992 92.056C275 92.056 276.312 90.584 276.312 86.808C276.312 83.288 274.616 82.008 272.056 82.008C269.112 82.008 267.768 83.64 267.704 86.328ZM283.46 95V79H294.948V82.296H287.204V95H283.46ZM305.502 95.352C300.51 95.352 297.278 92.536 297.278 86.936C297.278 81.4 300.638 78.648 305.63 78.648C310.59 78.68 313.822 81.496 313.822 87.064C313.822 92.6 310.462 95.32 305.502 95.352ZM301.086 86.936V87.032C301.086 90.552 302.75 92.088 305.566 92.088C308.414 92.088 310.014 90.456 310.014 87.064V86.968C310.014 83.448 308.318 81.912 305.502 81.912C302.654 81.944 301.086 83.576 301.086 86.936ZM317.272 95V79H325.336C329.144 79 330.648 80.312 330.648 82.712C330.648 84.632 329.624 85.944 327.896 86.36C329.944 86.616 331.448 87.544 331.448 90.264C331.448 93.336 329.432 95 325.24 95H317.272ZM321.016 91.896H324.888C326.872 91.896 327.736 91.288 327.736 90.008C327.736 88.6 326.84 88.152 325.112 88.152H321.016V91.896ZM321.016 85.464H324.44C325.912 85.464 326.904 84.984 326.904 83.64C326.904 82.456 326.072 82.104 324.472 82.104L321.016 82.136V85.464ZM345.234 95V82.296H340.05L339.954 84.312C339.538 94.296 337.106 95.192 334.61 95.192C334.002 95.192 333.362 95.128 333.042 95.032V91.16C333.33 91.256 333.618 91.288 333.874 91.288C335.25 91.288 336.37 90.84 336.594 82.488L336.722 79H348.946V95H345.234ZM366.738 93.4C365.97 94.296 363.762 95.352 360.85 95.32C355.57 95.352 352.434 92.44 352.434 86.936C352.434 81.624 355.762 78.648 360.594 78.648C365.234 78.68 368.018 81.528 368.018 86.552V88.088H356.146C356.434 90.744 358.066 92.088 360.978 92.088C363.922 92.088 365.874 90.968 366.738 89.56V93.4ZM360.498 81.912C358.098 81.912 356.594 83.128 356.21 85.432H364.274C364.178 83.256 362.77 81.912 360.498 81.912ZM2.272 130L2.272 114H10.336C14.144 114 15.648 115.312 15.648 117.712C15.648 119.632 14.624 120.944 12.896 121.36C14.944 121.616 16.448 122.544 16.448 125.264C16.448 128.336 14.432 130 10.24 130H2.272ZM6.016 126.896H9.888C11.872 126.896 12.736 126.288 12.736 125.008C12.736 123.6 11.84 123.152 10.112 123.152H6.016L6.016 126.896ZM6.016 120.464H9.44C10.912 120.464 11.904 119.984 11.904 118.64C11.904 117.456 11.072 117.104 9.472 117.104L6.016 117.136L6.016 120.464ZM23.5138 130V117.296H18.3938L18.3938 114H32.4098V117.296H27.2258V130H23.5138ZM42.6267 130.352C37.6348 130.352 34.4028 127.536 34.4028 121.936C34.4028 116.4 37.7628 113.648 42.7548 113.648C47.7148 113.68 50.9468 116.496 50.9468 122.064C50.9468 127.6 47.5868 130.32 42.6267 130.352ZM38.2108 121.936V122.032C38.2108 125.552 39.8748 127.088 42.6908 127.088C45.5388 127.088 47.1388 125.456 47.1388 122.064V121.968C47.1388 118.448 45.4428 116.912 42.6267 116.912C39.7788 116.944 38.2108 118.576 38.2108 121.936ZM54.397 136.176V114H57.917V117.328C58.493 115.536 60.189 113.68 63.581 113.68C67.645 113.68 70.493 116.048 70.493 121.648C70.493 127.952 67.645 130.352 63.261 130.352C60.701 130.352 58.941 129.072 58.141 127.568V136.176H54.397ZM58.141 121.328V122.544C58.141 125.424 59.805 127.056 62.429 127.056C65.437 127.056 66.749 125.584 66.749 121.808C66.749 118.288 65.053 117.008 62.493 117.008C59.549 117.008 58.205 118.64 58.141 121.328ZM86.633 128.4C85.929 129.296 83.913 130.352 81.321 130.352C76.201 130.352 72.809 127.536 72.809 121.936C72.809 116.432 76.265 113.68 81.353 113.648C83.497 113.68 85.417 114.32 86.473 115.12V119.792C85.385 118.096 83.689 116.944 81.353 116.912C78.281 116.912 76.617 118.544 76.617 121.776V122.256C76.617 125.552 78.409 127.088 81.417 127.088C84.073 127.088 85.833 125.968 86.633 124.56V128.4ZM90.0533 130V114H93.7973V118.736H96.5493C100.901 118.736 103.301 119.984 103.301 124.176C103.269 128.24 101.093 130 96.1333 130H90.0533ZM105.125 130V114H108.869V130H105.125ZM96.0052 126.704C98.5333 126.704 99.5253 126.064 99.5573 124.176C99.5253 122.48 98.7253 122.032 96.2613 122.032H93.7973V126.704H96.0052ZM113.428 136.176V114H116.948V117.328C117.524 115.536 119.22 113.68 122.612 113.68C126.676 113.68 129.524 116.048 129.524 121.648C129.524 127.952 126.676 130.352 122.292 130.352C119.732 130.352 117.972 129.072 117.172 127.568V136.176H113.428ZM117.172 121.328V122.544C117.172 125.424 118.836 127.056 121.46 127.056C124.468 127.056 125.78 125.584 125.78 121.808C125.78 118.288 124.084 117.008 121.524 117.008C118.58 117.008 117.236 118.64 117.172 121.328ZM146.56 124.176C146.528 128.24 144.352 130 139.36 130H132.928L132.928 114H136.672V118.736H139.776C144.128 118.736 146.56 119.984 146.56 124.176ZM142.816 124.144C142.752 122.48 141.92 122.032 139.488 122.032H136.672V126.704H139.264C141.824 126.704 142.816 126.064 142.816 124.144ZM163.176 128.4C162.408 129.296 160.2 130.352 157.288 130.32C152.008 130.352 148.872 127.44 148.872 121.936C148.872 116.624 152.2 113.648 157.032 113.648C161.672 113.68 164.456 116.528 164.456 121.552V123.088H152.584C152.872 125.744 154.504 127.088 157.416 127.088C160.36 127.088 162.312 125.968 163.176 124.56V128.4ZM156.936 116.912C154.536 116.912 153.032 118.128 152.648 120.432H160.712C160.616 118.256 159.208 116.912 156.936 116.912ZM182.073 130L182.073 119.248L177.465 126.032H176.281L171.641 119.216L171.641 130H167.897L167.897 114H171.769L176.985 121.488L182.041 114H185.817L185.817 130H182.073Z" fill="url(#paint0_linear_5529_1537)"/>
<defs>
<linearGradient id="paint0_linear_5529_1537" x1="9.05174" y1="112.615" x2="490.491" y2="112.615" gradientUnits="userSpaceOnUse">
<stop stop-color="#DB32E1"/>
<stop offset="0.510417" stop-color="#7A4FDC"/>
<stop offset="1" stop-color="#3D51C2"/>
</linearGradient>
</defs>
</svg>
