<svg width="644" height="109" viewBox="0 0 644 109" fill="none" xmlns="http://www.w3.org/2000/svg">
<path d="M6.48 5L6.48 20.69L17.94 5L22.02 5L22.02 26H18.27V10.07L6.75 26H2.73L2.73 5L6.48 5ZM38.8259 24.5C38.1659 25.34 36.2759 26.33 33.8459 26.33C29.0459 26.33 25.8659 23.69 25.8659 18.44C25.8659 13.28 29.1059 10.7 33.8759 10.67C35.8859 10.7 37.6859 11.3 38.6759 12.05V16.43C37.6559 14.84 36.0659 13.76 33.8759 13.73C30.9959 13.73 29.4359 15.26 29.4359 18.29V18.74C29.4359 21.83 31.1159 23.27 33.9359 23.27C36.4259 23.27 38.0759 22.22 38.8259 20.9V24.5ZM52.0823 26L52.0823 14.09H45.5423L45.5423 26H42.0323L42.0323 11L55.5923 11L55.5923 26H52.0823ZM66.5348 26.33C61.8548 26.33 58.8248 23.69 58.8248 18.44C58.8248 13.25 61.9748 10.67 66.6548 10.67C71.3048 10.7 74.3348 13.34 74.3348 18.56C74.3348 23.75 71.1848 26.3 66.5348 26.33ZM62.3948 18.44V18.53C62.3948 21.83 63.9548 23.27 66.5948 23.27C69.2648 23.27 70.7648 21.74 70.7648 18.56V18.47C70.7648 15.17 69.1748 13.73 66.5348 13.73C63.8648 13.76 62.3948 15.29 62.3948 18.44ZM87.2016 26V14.09H82.3416L82.2516 15.98C81.8616 25.34 79.5816 26.18 77.2416 26.18C76.6716 26.18 76.0716 26.12 75.7716 26.03V22.4C76.0416 22.49 76.3116 22.52 76.5516 22.52C77.8416 22.52 78.8916 22.1 79.1016 14.27L79.2216 11L90.6816 11V26H87.2016ZM105.262 26V19.94H98.4818V26H94.9718V11H98.4818V16.85H105.262V11H108.772V26H105.262ZM125.409 24.5C124.689 25.34 122.619 26.33 119.889 26.3C114.939 26.33 111.999 23.6 111.999 18.44C111.999 13.46 115.119 10.67 119.649 10.67C123.999 10.7 126.609 13.37 126.609 18.08V19.52H115.479C115.749 22.01 117.279 23.27 120.009 23.27C122.769 23.27 124.599 22.22 125.409 20.9V24.5ZM119.559 13.73C117.309 13.73 115.899 14.87 115.539 17.03H123.099C123.009 14.99 121.689 13.73 119.559 13.73ZM140.125 26V19.94L133.345 19.94V26H129.835V11H133.345V16.85L140.125 16.85V11L143.635 11V26H140.125ZM147.912 26V11H151.392V21.17L158.592 11H161.922V26L158.442 26V15.71L151.242 26H147.912ZM178.583 24.5C177.863 25.34 175.793 26.33 173.063 26.3C168.113 26.33 165.173 23.6 165.173 18.44C165.173 13.46 168.293 10.67 172.823 10.67C177.173 10.7 179.783 13.37 179.783 18.08V19.52H168.653C168.923 22.01 170.453 23.27 173.183 23.27C175.943 23.27 177.773 22.22 178.583 20.9V24.5ZM172.733 13.73C170.483 13.73 169.073 14.87 168.713 17.03H176.273C176.183 14.99 174.863 13.73 172.733 13.73ZM190.052 24.47V20.87C190.922 22.19 192.902 23.24 195.722 23.24C197.702 23.24 198.962 22.64 198.962 21.38C198.962 20.21 198.092 19.73 196.052 19.73H193.472V17.18H195.602C197.222 17.18 198.302 16.67 198.302 15.41C198.302 14.39 197.642 13.79 195.812 13.76C193.292 13.76 191.492 14.84 190.322 16.43V12.05C191.462 11.3 193.502 10.7 195.812 10.7H195.932C200.102 10.7 201.872 12.23 201.872 14.6C201.872 16.49 200.882 17.45 199.382 18.08C201.392 18.47 202.502 19.49 202.502 21.5C202.502 24.65 199.772 26.3 195.722 26.3C193.082 26.3 190.802 25.31 190.052 24.47ZM206.103 16.43V12.05C207.093 11.3 208.893 10.7 211.473 10.7C215.853 10.7 218.013 12.2 218.013 16.1V26H214.713V23.3C213.993 25.04 212.163 26.24 209.763 26.24C206.733 26.24 204.933 24.53 204.933 21.59C204.933 18.17 207.423 17.21 211.113 17.21H214.503V16.55C214.503 14.42 213.483 13.76 211.473 13.76C208.713 13.76 207.123 14.84 206.103 16.43ZM210.873 23.09C213.243 23.09 214.353 21.74 214.503 20.72V19.49H211.533C209.463 19.49 208.473 19.88 208.473 21.23C208.473 22.37 209.313 23.09 210.873 23.09ZM232.112 26V14.09L225.572 14.09V26H222.062V11L235.622 11V26H232.112ZM239.874 31.79V11H243.174V14.12C243.714 12.44 245.304 10.7 248.484 10.7C252.294 10.7 254.964 12.92 254.964 18.17C254.964 24.08 252.294 26.33 248.184 26.33C245.784 26.33 244.134 25.13 243.384 23.72V31.79H239.874ZM243.384 17.87V19.01C243.384 21.71 244.944 23.24 247.404 23.24C250.224 23.24 251.454 21.86 251.454 18.32C251.454 15.02 249.864 13.82 247.464 13.82C244.704 13.82 243.444 15.35 243.384 17.87ZM264.845 26.33C260.165 26.33 257.135 23.69 257.135 18.44C257.135 13.25 260.285 10.67 264.965 10.67C269.615 10.7 272.645 13.34 272.645 18.56C272.645 23.75 269.495 26.3 264.845 26.33ZM260.705 18.44V18.53C260.705 21.83 262.265 23.27 264.905 23.27C267.575 23.27 269.075 21.74 269.075 18.56V18.47C269.075 15.17 267.485 13.73 264.845 13.73C262.175 13.76 260.705 15.29 260.705 18.44ZM287.82 24.5C287.16 25.34 285.27 26.33 282.84 26.33C278.04 26.33 274.86 23.69 274.86 18.44C274.86 13.28 278.1 10.7 282.87 10.67C284.88 10.7 286.68 11.3 287.67 12.05V16.43C286.65 14.84 285.06 13.76 282.87 13.73C279.99 13.73 278.43 15.26 278.43 18.29V18.74C278.43 21.83 280.11 23.27 282.93 23.27C285.42 23.27 287.07 22.22 287.82 20.9V24.5ZM297.336 26.33C292.656 26.33 289.626 23.69 289.626 18.44C289.626 13.25 292.776 10.67 297.456 10.67C302.106 10.7 305.136 13.34 305.136 18.56C305.136 23.75 301.986 26.3 297.336 26.33ZM293.196 18.44V18.53C293.196 21.83 294.756 23.27 297.396 23.27C300.066 23.27 301.566 21.74 301.566 18.56V18.47C301.566 15.17 299.976 13.73 297.336 13.73C294.666 13.76 293.196 15.29 293.196 18.44ZM308.37 26V11L315.93 11C319.5 11 320.91 12.23 320.91 14.48C320.91 16.28 319.95 17.51 318.33 17.9C320.25 18.14 321.66 19.01 321.66 21.56C321.66 24.44 319.77 26 315.84 26H308.37ZM311.88 23.09H315.51C317.37 23.09 318.18 22.52 318.18 21.32C318.18 20 317.34 19.58 315.72 19.58H311.88V23.09ZM311.88 17.06H315.09C316.47 17.06 317.4 16.61 317.4 15.35C317.4 14.24 316.62 13.91 315.12 13.91L311.88 13.94V17.06ZM332.657 26V11L343.427 11V14.09H336.167V26H332.657ZM353.322 26.33C348.642 26.33 345.612 23.69 345.612 18.44C345.612 13.25 348.762 10.67 353.442 10.67C358.092 10.7 361.122 13.34 361.122 18.56C361.122 23.75 357.972 26.3 353.322 26.33ZM349.182 18.44V18.53C349.182 21.83 350.742 23.27 353.382 23.27C356.052 23.27 357.552 21.74 357.552 18.56V18.47C357.552 15.17 355.962 13.73 353.322 13.73C350.652 13.76 349.182 15.29 349.182 18.44ZM376.297 24.5C375.637 25.34 373.747 26.33 371.317 26.33C366.517 26.33 363.337 23.69 363.337 18.44C363.337 13.28 366.577 10.7 371.347 10.67C373.357 10.7 375.157 11.3 376.147 12.05V16.43C375.127 14.84 373.537 13.76 371.347 13.73C368.467 13.73 366.907 15.26 366.907 18.29V18.74C366.907 21.83 368.587 23.27 371.407 23.27C373.897 23.27 375.547 22.22 376.297 20.9V24.5ZM385.812 26.33C381.132 26.33 378.102 23.69 378.102 18.44C378.102 13.25 381.252 10.67 385.932 10.67C390.582 10.7 393.612 13.34 393.612 18.56C393.612 23.75 390.462 26.3 385.812 26.33ZM381.672 18.44V18.53C381.672 21.83 383.232 23.27 385.872 23.27C388.542 23.27 390.042 21.74 390.042 18.56V18.47C390.042 15.17 388.452 13.73 385.812 13.73C383.142 13.76 381.672 15.29 381.672 18.44ZM396.847 31.79V11L400.147 11V14.12C400.687 12.44 402.277 10.7 405.457 10.7C409.267 10.7 411.937 12.92 411.937 18.17C411.937 24.08 409.267 26.33 405.157 26.33C402.757 26.33 401.107 25.13 400.357 23.72V31.79H396.847ZM400.357 17.87V19.01C400.357 21.71 401.917 23.24 404.377 23.24C407.197 23.24 408.427 21.86 408.427 18.32C408.427 15.02 406.837 13.82 404.437 13.82C401.677 13.82 400.417 15.35 400.357 17.87ZM415.128 26V11L425.898 11V14.09L418.638 14.09V26H415.128ZM429.345 16.43V12.05C430.335 11.3 432.135 10.7 434.715 10.7C439.095 10.7 441.255 12.2 441.255 16.1V26H437.955V23.3C437.235 25.04 435.405 26.24 433.005 26.24C429.975 26.24 428.175 24.53 428.175 21.59C428.175 18.17 430.665 17.21 434.355 17.21H437.745V16.55C437.745 14.42 436.725 13.76 434.715 13.76C431.955 13.76 430.365 14.84 429.345 16.43ZM434.115 23.09C436.485 23.09 437.595 21.74 437.745 20.72V19.49H434.775C432.705 19.49 431.715 19.88 431.715 21.23C431.715 22.37 432.555 23.09 434.115 23.09ZM455.594 26V19.94L448.814 19.94V26H445.304V11L448.814 11V16.85L455.594 16.85V11L459.104 11V26H455.594ZM470.041 26.33C465.361 26.33 462.331 23.69 462.331 18.44C462.331 13.25 465.481 10.67 470.161 10.67C474.811 10.7 477.841 13.34 477.841 18.56C477.841 23.75 474.691 26.3 470.041 26.33ZM465.901 18.44V18.53C465.901 21.83 467.461 23.27 470.101 23.27C472.771 23.27 474.271 21.74 474.271 18.56V18.47C474.271 15.17 472.681 13.73 470.041 13.73C467.371 13.76 465.901 15.29 465.901 18.44ZM481.075 26V11L488.635 11C492.205 11 493.615 12.23 493.615 14.48C493.615 16.28 492.655 17.51 491.035 17.9C492.955 18.14 494.365 19.01 494.365 21.56C494.365 24.44 492.475 26 488.545 26H481.075ZM484.585 23.09H488.215C490.075 23.09 490.885 22.52 490.885 21.32C490.885 20 490.045 19.58 488.425 19.58H484.585V23.09ZM484.585 17.06H487.795C489.175 17.06 490.105 16.61 490.105 15.35C490.105 14.24 489.325 13.91 487.825 13.91L484.585 13.94V17.06Z" fill="white"/>
<path d="M15.008 62.4C14.304 63.296 12.288 64.352 9.696 64.352C4.576 64.352 1.184 61.536 1.184 55.936C1.184 50.432 4.64 47.68 9.728 47.648C11.872 47.68 13.792 48.32 14.848 49.12L14.848 53.792C13.76 52.096 12.064 50.944 9.728 50.912C6.656 50.912 4.992 52.544 4.992 55.776V56.256C4.992 59.552 6.784 61.088 9.792 61.088C12.448 61.088 14.208 59.968 15.008 58.56L15.008 62.4ZM22.42 64V51.296H17.3V48L31.316 48V51.296L26.132 51.296V64H22.42ZM34.4998 53.792V49.12C35.5558 48.32 37.4758 47.68 40.2278 47.68C44.8998 47.68 47.2038 49.28 47.2038 53.44L47.2038 64H43.6838V61.12C42.9158 62.976 40.9638 64.256 38.4038 64.256C35.1718 64.256 33.2518 62.432 33.2518 59.296C33.2518 55.648 35.9078 54.624 39.8438 54.624H43.4598V53.92C43.4598 51.648 42.3718 50.944 40.2278 50.944C37.2838 50.944 35.5878 52.096 34.4998 53.792ZM39.5878 60.896C42.1158 60.896 43.2998 59.456 43.4598 58.368V57.056H40.2917C38.0838 57.056 37.0278 57.472 37.0278 58.912C37.0278 60.128 37.9238 60.896 39.5878 60.896ZM62.498 64V57.536L55.266 57.536V64H51.522L51.522 48H55.266V54.24L62.498 54.24V48H66.242V64H62.498ZM83.988 62.4C83.22 63.296 81.012 64.352 78.1 64.32C72.82 64.352 69.684 61.44 69.684 55.936C69.684 50.624 73.012 47.648 77.844 47.648C82.484 47.68 85.268 50.528 85.268 55.552V57.088H73.396C73.684 59.744 75.316 61.088 78.228 61.088C81.172 61.088 83.124 59.968 83.988 58.56V62.4ZM77.748 50.912C75.348 50.912 73.844 52.128 73.46 54.432H81.524C81.428 52.256 80.02 50.912 77.748 50.912ZM92.3575 64V51.296H87.2375V48H101.254V51.296H96.0695V64H92.3575ZM126.759 39.2V43.04C126.119 43.392 124.295 43.68 121.671 43.904C116.551 44.384 115.399 46.4 114.983 50.976C116.231 49.184 118.183 48 121.063 48C124.999 48 128.263 49.984 128.263 55.776C128.263 61.44 125.255 64.32 120.199 64.32C114.759 64.32 111.719 61.088 111.719 53.696C111.719 44.864 114.151 41.312 119.655 40.416C122.119 40 125.447 39.872 126.759 39.2ZM115.559 55.808C115.559 58.784 117.031 60.928 119.943 60.928C122.471 60.928 124.359 59.584 124.359 56.096C124.359 52.768 122.791 51.328 120.103 51.328C117.287 51.328 115.559 52.832 115.559 55.808ZM131.678 64V48H135.422V52.736H138.174C142.526 52.736 144.926 53.984 144.926 58.176C144.894 62.24 142.718 64 137.758 64L131.678 64ZM146.75 64V48H150.494V64H146.75ZM137.63 60.704C140.158 60.704 141.15 60.064 141.182 58.176C141.15 56.48 140.35 56.032 137.886 56.032L135.422 56.032V60.704L137.63 60.704ZM167.789 62.4C167.085 63.296 165.069 64.352 162.477 64.352C157.357 64.352 153.965 61.536 153.965 55.936C153.965 50.432 157.421 47.68 162.509 47.648C164.653 47.68 166.573 48.32 167.629 49.12V53.792C166.541 52.096 164.845 50.944 162.509 50.912C159.437 50.912 157.773 52.544 157.773 55.776V56.256C157.773 59.552 159.565 61.088 162.573 61.088C165.229 61.088 166.989 59.968 167.789 58.56V62.4ZM175.201 64V51.296H170.081V48H184.097V51.296H178.913V64H175.201ZM187.178 70.176V48H190.698V51.328C191.274 49.536 192.97 47.68 196.362 47.68C200.426 47.68 203.274 50.048 203.274 55.648C203.274 61.952 200.426 64.352 196.042 64.352C193.482 64.352 191.722 63.072 190.922 61.568V70.176H187.178ZM190.922 55.328V56.544C190.922 59.424 192.586 61.056 195.21 61.056C198.218 61.056 199.53 59.584 199.53 55.808C199.53 52.288 197.834 51.008 195.274 51.008C192.33 51.008 190.986 52.64 190.922 55.328ZM219.894 62.4C219.126 63.296 216.918 64.352 214.006 64.32C208.726 64.352 205.59 61.44 205.59 55.936C205.59 50.624 208.918 47.648 213.75 47.648C218.39 47.68 221.174 50.528 221.174 55.552V57.088H209.302C209.59 59.744 211.222 61.088 214.134 61.088C217.078 61.088 219.03 59.968 219.894 58.56V62.4ZM213.654 50.912C211.254 50.912 209.75 52.128 209.366 54.432H217.43C217.334 52.256 215.926 50.912 213.654 50.912ZM237.832 62.4C237.064 63.296 234.856 64.352 231.944 64.32C226.664 64.352 223.528 61.44 223.528 55.936C223.528 50.624 226.856 47.648 231.688 47.648C236.328 47.68 239.112 50.528 239.112 55.552V57.088L227.24 57.088C227.528 59.744 229.16 61.088 232.072 61.088C235.016 61.088 236.968 59.968 237.832 58.56V62.4ZM231.592 50.912C229.192 50.912 227.688 52.128 227.304 54.432L235.368 54.432C235.272 52.256 233.864 50.912 231.592 50.912Z" fill="url(#paint0_linear_4895_5911)"/>
<defs>
<linearGradient id="paint0_linear_4895_5911" x1="9.27674" y1="93.7553" x2="502.683" y2="93.7553" gradientUnits="userSpaceOnUse">
<stop stop-color="#DB32E1"/>
<stop offset="0.510417" stop-color="#7A4FDC"/>
<stop offset="1" stop-color="#3D51C2"/>
</linearGradient>
</defs>
</svg>
