<svg width="522" height="123" viewBox="0 0 522 123" fill="none" xmlns="http://www.w3.org/2000/svg">
<path d="M22.382 33L22.382 10.77L8.208 10.77L8.208 33H3.458L3.458 6.4L27.132 6.4L27.132 33L22.382 33ZM33.2761 40.334L33.2761 14H37.4561V17.952C38.1401 15.824 40.1541 13.62 44.1821 13.62C49.0081 13.62 52.3901 16.432 52.3901 23.082C52.3901 30.568 49.0081 33.418 43.8021 33.418C40.7621 33.418 38.6721 31.898 37.7221 30.112V40.334H33.2761ZM37.7221 22.702V24.146C37.7221 27.566 39.6981 29.504 42.8141 29.504C46.3861 29.504 47.9441 27.756 47.9441 23.272C47.9441 19.092 45.9301 17.572 42.8901 17.572C39.3941 17.572 37.7981 19.51 37.7221 22.702ZM64.9064 33.418C58.9784 33.418 55.1404 30.074 55.1404 23.424C55.1404 16.85 59.1304 13.582 65.0584 13.582C70.9484 13.62 74.7864 16.964 74.7864 23.576C74.7864 30.15 70.7964 33.38 64.9064 33.418ZM59.6624 23.424V23.538C59.6624 27.718 61.6384 29.542 64.9824 29.542C68.3644 29.542 70.2644 27.604 70.2644 23.576V23.462C70.2644 19.282 68.2504 17.458 64.9064 17.458C61.5244 17.496 59.6624 19.434 59.6624 23.424ZM103.347 27.642V32.582L94.9106 23.5L103.347 14.418V19.396L99.6986 23.5L103.347 27.642ZM95.8606 27.642V32.582L87.4246 23.5L95.8606 14.418V19.396L92.1746 23.5L95.8606 27.642ZM107.94 33V14H112.386V21.41H115.464L120.784 14H125.724L119.074 22.968L126.788 33L121.392 33L115.426 25.134H112.386V33H107.94ZM137.752 33.418C131.824 33.418 127.986 30.074 127.986 23.424C127.986 16.85 131.976 13.582 137.904 13.582C143.794 13.62 147.632 16.964 147.632 23.576C147.632 30.15 143.642 33.38 137.752 33.418ZM132.508 23.424V23.538C132.508 27.718 134.484 29.542 137.828 29.542C141.21 29.542 143.11 27.604 143.11 23.576V23.462C143.11 19.282 141.096 17.458 137.752 17.458C134.37 17.496 132.508 19.434 132.508 23.424ZM163.93 33V17.914L157.774 17.914L157.66 20.308C157.166 32.164 154.278 33.228 151.314 33.228C150.592 33.228 149.832 33.152 149.452 33.038V28.44C149.794 28.554 150.136 28.592 150.44 28.592C152.074 28.592 153.404 28.06 153.67 18.142L153.822 14L168.338 14V33H163.93ZM189.466 31.1C188.554 32.164 185.932 33.418 182.474 33.38C176.204 33.418 172.48 29.96 172.48 23.424C172.48 17.116 176.432 13.582 182.17 13.582C187.68 13.62 190.986 17.002 190.986 22.968V24.792L176.888 24.792C177.23 27.946 179.168 29.542 182.626 29.542C186.122 29.542 188.44 28.212 189.466 26.54V31.1ZM182.056 17.458C179.206 17.458 177.42 18.902 176.964 21.638L186.54 21.638C186.426 19.054 184.754 17.458 182.056 17.458ZM210.197 31.1C209.361 32.164 206.967 33.418 203.889 33.418C197.809 33.418 193.781 30.074 193.781 23.424C193.781 16.888 197.885 13.62 203.927 13.582C206.473 13.62 208.753 14.38 210.007 15.33V20.878C208.715 18.864 206.701 17.496 203.927 17.458C200.279 17.458 198.303 19.396 198.303 23.234V23.804C198.303 27.718 200.431 29.542 204.003 29.542C207.157 29.542 209.247 28.212 210.197 26.54V31.1ZM222.25 33.418C216.322 33.418 212.484 30.074 212.484 23.424C212.484 16.85 216.474 13.582 222.402 13.582C228.292 13.62 232.13 16.964 232.13 23.576C232.13 30.15 228.14 33.38 222.25 33.418ZM217.006 23.424V23.538C217.006 27.718 218.982 29.542 222.326 29.542C225.708 29.542 227.608 27.604 227.608 23.576V23.462C227.608 19.282 225.594 17.458 222.25 17.458C218.868 17.496 217.006 19.434 217.006 23.424ZM263.274 5.64V7.654H264.262C272.394 7.654 276.916 12.062 276.916 19.396C276.916 27.186 272.09 31.214 263.92 31.214H263.274V33.76H258.524V31.214H257.536C249.404 31.214 244.882 26.806 244.882 19.472C244.882 11.682 249.708 7.654 257.878 7.654H258.524V5.64L263.274 5.64ZM249.898 19.32C249.898 24.906 253.318 27.072 257.726 27.072H258.524V11.796H257.802C252.482 11.796 249.898 14.228 249.898 19.32ZM264.072 11.796H263.274V27.072H263.996C269.316 27.072 271.9 24.64 271.9 19.548C271.9 13.962 268.48 11.796 264.072 11.796ZM289.567 33.418C283.639 33.418 279.801 30.074 279.801 23.424C279.801 16.85 283.791 13.582 289.719 13.582C295.609 13.62 299.447 16.964 299.447 23.576C299.447 30.15 295.457 33.38 289.567 33.418ZM284.323 23.424V23.538C284.323 27.718 286.299 29.542 289.643 29.542C293.025 29.542 294.925 27.604 294.925 23.576V23.462C294.925 19.282 292.911 17.458 289.567 17.458C286.185 17.496 284.323 19.434 284.323 23.424ZM303.544 40.334V14H307.724V17.952C308.408 15.824 310.422 13.62 314.45 13.62C319.276 13.62 322.658 16.432 322.658 23.082C322.658 30.568 319.276 33.418 314.07 33.418C311.03 33.418 308.94 31.898 307.99 30.112V40.334H303.544ZM307.99 22.702V24.146C307.99 27.566 309.966 29.504 313.082 29.504C316.654 29.504 318.212 27.756 318.212 23.272C318.212 19.092 316.198 17.572 313.158 17.572C309.662 17.572 308.066 19.51 307.99 22.702ZM331.032 33V17.914L324.952 17.914V14L341.596 14V17.914H335.44V33H331.032ZM352.216 33.076L344.198 14L349.176 14L354.382 27.034L358.638 14L363.35 14L355.75 35.014C354.078 39.574 352.368 40.6 349.86 40.6C348.682 40.6 347.39 40.258 346.82 39.764V35.622C347.39 36.192 348.264 36.572 349.1 36.572C350.468 36.572 351.494 35.66 352.216 33.076ZM379.293 33V25.324L370.705 25.324V33L366.259 33V14H370.705V21.41L379.293 21.41V14H383.739V33H379.293ZM389.118 33V14H393.564V19.624H396.832C402 19.624 404.85 21.106 404.85 26.084C404.812 30.91 402.228 33 396.338 33H389.118ZM407.016 33V14L411.462 14V33H407.016ZM396.186 29.086C399.188 29.086 400.366 28.326 400.404 26.084C400.366 24.07 399.416 23.538 396.49 23.538H393.564V29.086H396.186ZM416.078 19.358V14.418L424.514 23.5L416.078 32.582V27.604L419.764 23.5L416.078 19.358ZM423.602 19.358V14.418L432.038 23.5L423.602 32.582V27.604L427.25 23.5L423.602 19.358ZM2.736 75L2.736 56H7.144L7.144 68.882L16.264 56H20.482L20.482 75H16.074L16.074 61.966L6.954 75H2.736ZM50.3545 69.642V74.582L41.9185 65.5L50.3545 56.418L50.3545 61.396L46.7065 65.5L50.3545 69.642ZM42.8685 69.642V74.582L34.4325 65.5L42.8685 56.418L42.8685 61.396L39.1825 65.5L42.8685 69.642ZM53.998 73.062V68.502C55.1 70.174 57.608 71.504 61.18 71.504C63.688 71.504 65.284 70.744 65.284 69.148C65.284 67.666 64.182 67.058 61.598 67.058H58.33V63.828H61.028C63.08 63.828 64.448 63.182 64.448 61.586C64.448 60.294 63.612 59.534 61.294 59.496C58.102 59.496 55.822 60.864 54.34 62.878L54.34 57.33C55.784 56.38 58.368 55.62 61.294 55.62H61.446C66.728 55.62 68.97 57.558 68.97 60.56C68.97 62.954 67.716 64.17 65.816 64.968C68.362 65.462 69.768 66.754 69.768 69.3C69.768 73.29 66.31 75.38 61.18 75.38C57.836 75.38 54.948 74.126 53.998 73.062ZM82.3478 75.418C76.4198 75.418 72.5818 72.074 72.5818 65.424C72.5818 58.85 76.5718 55.582 82.4998 55.582C88.3898 55.62 92.2278 58.964 92.2278 65.576C92.2278 72.15 88.2378 75.38 82.3478 75.418ZM77.1038 65.424V65.538C77.1038 69.718 79.0798 71.542 82.4238 71.542C85.8058 71.542 87.7058 69.604 87.7058 65.576V65.462C87.7058 61.282 85.6918 59.458 82.3478 59.458C78.9658 59.496 77.1038 61.434 77.1038 65.424ZM108.526 75V59.914H102.37L102.256 62.308C101.762 74.164 98.8736 75.228 95.9096 75.228C95.1876 75.228 94.4276 75.152 94.0476 75.038V70.44C94.3896 70.554 94.7316 70.592 95.0356 70.592C96.6696 70.592 97.9996 70.06 98.2656 60.142L98.4176 56H112.934V75H108.526ZM126.842 75.418C120.914 75.418 117.076 72.074 117.076 65.424C117.076 58.85 121.066 55.582 126.994 55.582C132.884 55.62 136.722 58.964 136.722 65.576C136.722 72.15 132.732 75.38 126.842 75.418ZM121.598 65.424V65.538C121.598 69.718 123.574 71.542 126.918 71.542C130.3 71.542 132.2 69.604 132.2 65.576V65.462C132.2 61.282 130.186 59.458 126.842 59.458C123.46 59.496 121.598 61.434 121.598 65.424ZM145.151 75V59.914H139.071V56H155.715V59.914H149.559V75L145.151 75ZM166.336 75.076L158.318 56H163.296L168.502 69.034L172.758 56H177.469L169.87 77.014C168.198 81.574 166.488 82.6 163.98 82.6C162.802 82.6 161.51 82.258 160.94 81.764L160.94 77.622C161.51 78.192 162.384 78.572 163.22 78.572C164.588 78.572 165.614 77.66 166.336 75.076ZM180.378 75V56H184.824V63.41H187.712C188.472 58.242 192.082 55.658 197.136 55.658C203.026 55.658 206.902 59.002 206.902 65.652C206.902 72.226 202.912 75.456 196.984 75.494C191.816 75.494 188.32 72.758 187.674 67.324H184.824V75H180.378ZM197.098 71.618C200.48 71.618 202.342 69.68 202.342 65.652V65.538C202.342 61.396 200.366 59.572 197.06 59.534C193.792 59.534 191.968 61.472 191.968 65.5V65.614C191.968 69.794 193.906 71.618 197.098 71.618ZM220.864 82.334L220.864 56H225.044V59.952C225.728 57.824 227.742 55.62 231.77 55.62C236.596 55.62 239.978 58.432 239.978 65.082C239.978 72.568 236.596 75.418 231.39 75.418C228.35 75.418 226.26 73.898 225.31 72.112L225.31 82.334H220.864ZM225.31 64.702V66.146C225.31 69.566 227.286 71.504 230.402 71.504C233.974 71.504 235.532 69.756 235.532 65.272C235.532 61.092 233.518 59.572 230.478 59.572C226.982 59.572 225.386 61.51 225.31 64.702ZM244.02 75V56H248.466V61.624H251.734C256.902 61.624 259.752 63.106 259.752 68.084C259.714 72.91 257.13 75 251.24 75L244.02 75ZM261.918 75V56H266.364V75H261.918ZM251.088 71.086C254.09 71.086 255.268 70.326 255.306 68.084C255.268 66.07 254.318 65.538 251.392 65.538H248.466V71.086H251.088ZM288.536 45.55V50.11C287.776 50.528 285.61 50.87 282.494 51.136C276.414 51.706 275.046 54.1 274.552 59.534C276.034 57.406 278.352 56 281.772 56C286.446 56 290.322 58.356 290.322 65.234C290.322 71.96 286.75 75.38 280.746 75.38C274.286 75.38 270.676 71.542 270.676 62.764C270.676 52.276 273.564 48.058 280.1 46.994C283.026 46.5 286.978 46.348 288.536 45.55ZM275.236 65.272C275.236 68.806 276.984 71.352 280.442 71.352C283.444 71.352 285.686 69.756 285.686 65.614C285.686 61.662 283.824 59.952 280.632 59.952C277.288 59.952 275.236 61.738 275.236 65.272ZM294.378 75V56H298.824V63.41H301.902L307.222 56H312.162L305.512 64.968L313.226 75H307.83L301.864 67.134H298.824V75H294.378ZM322.046 75.076L314.028 56L319.006 56L324.212 69.034L328.468 56H333.18L325.58 77.014C323.908 81.574 322.198 82.6 319.69 82.6C318.512 82.6 317.22 82.258 316.65 81.764V77.622C317.22 78.192 318.094 78.572 318.93 78.572C320.298 78.572 321.324 77.66 322.046 75.076ZM335.291 61.358V56.418L343.727 65.5L335.291 74.582V69.604L338.977 65.5L335.291 61.358ZM342.815 61.358V56.418L351.251 65.5L342.815 74.582V69.604L346.463 65.5L342.815 61.358Z" fill="white"/>
<path d="M3.485 115L3.485 97.5H12.305C16.47 97.5 18.115 98.935 18.115 101.56C18.115 103.66 16.995 105.095 15.105 105.55C17.345 105.83 18.99 106.845 18.99 109.82C18.99 113.18 16.785 115 12.2 115H3.485ZM7.58 111.605H11.815C13.985 111.605 14.93 110.94 14.93 109.54C14.93 108 13.95 107.51 12.06 107.51H7.58V111.605ZM7.58 104.57H11.325C12.935 104.57 14.02 104.045 14.02 102.575C14.02 101.28 13.11 100.895 11.36 100.895L7.58 100.93V104.57ZM47.255 87.875V92.075C46.555 92.46 44.56 92.775 41.69 93.02C36.09 93.545 34.83 95.75 34.375 100.755C35.74 98.795 37.875 97.5 41.025 97.5C45.33 97.5 48.9 99.67 48.9 106.005C48.9 112.2 45.61 115.35 40.08 115.35C34.13 115.35 30.805 111.815 30.805 103.73C30.805 94.07 33.465 90.185 39.485 89.205C42.18 88.75 45.82 88.61 47.255 87.875ZM35.005 106.04C35.005 109.295 36.615 111.64 39.8 111.64C42.565 111.64 44.63 110.17 44.63 106.355C44.63 102.715 42.915 101.14 39.975 101.14C36.895 101.14 35.005 102.785 35.005 106.04ZM53.0554 103.835V98.725C54.2104 97.85 56.3104 97.15 59.3204 97.15C64.4304 97.15 66.9504 98.9 66.9504 103.45V115H63.1004V111.85C62.2604 113.88 60.1254 115.28 57.3254 115.28C53.7904 115.28 51.6904 113.285 51.6904 109.855C51.6904 105.865 54.5954 104.745 58.9004 104.745H62.8554V103.975C62.8554 101.49 61.6654 100.72 59.3204 100.72C56.1004 100.72 54.2454 101.98 53.0554 103.835ZM58.6204 111.605C61.3854 111.605 62.6804 110.03 62.8554 108.84V107.405H59.3904C56.9754 107.405 55.8204 107.86 55.8204 109.435C55.8204 110.765 56.8004 111.605 58.6204 111.605ZM83.6785 115V107.93H75.7685V115H71.6735V97.5H75.7685V104.325H83.6785V97.5H87.7735V115H83.6785ZM92.7282 115V97.5H96.8232V104.325H99.6582L104.558 97.5H109.108L102.983 105.76L110.088 115H105.118L99.6232 107.755H96.8232V115H92.7282ZM120.186 115.385C114.726 115.385 111.191 112.305 111.191 106.18C111.191 100.125 114.866 97.115 120.326 97.115C125.751 97.15 129.286 100.23 129.286 106.32C129.286 112.375 125.611 115.35 120.186 115.385ZM115.356 106.18V106.285C115.356 110.135 117.176 111.815 120.256 111.815C123.371 111.815 125.121 110.03 125.121 106.32V106.215C125.121 102.365 123.266 100.685 120.186 100.685C117.071 100.72 115.356 102.505 115.356 106.18ZM133.06 115V97.5H141.88C146.045 97.5 147.69 98.935 147.69 101.56C147.69 103.66 146.57 105.095 144.68 105.55C146.92 105.83 148.565 106.845 148.565 109.82C148.565 113.18 146.36 115 141.775 115H133.06ZM137.155 111.605H141.39C143.56 111.605 144.505 110.94 144.505 109.54C144.505 108 143.525 107.51 141.635 107.51H137.155V111.605ZM137.155 104.57H140.9C142.51 104.57 143.595 104.045 143.595 102.575C143.595 101.28 142.685 100.895 140.935 100.895L137.155 100.93V104.57ZM166.233 113.25C165.463 114.23 163.258 115.385 160.423 115.385C154.823 115.385 151.113 112.305 151.113 106.18C151.113 100.16 154.893 97.15 160.458 97.115C162.803 97.15 164.903 97.85 166.058 98.725V103.835C164.868 101.98 163.013 100.72 160.458 100.685C157.098 100.685 155.278 102.47 155.278 106.005V106.53C155.278 110.135 157.238 111.815 160.528 111.815C163.433 111.815 165.358 110.59 166.233 109.05V113.25ZM169.974 115V97.5H174.069V104.325H176.904L181.804 97.5H186.354L180.229 105.76L187.334 115H182.364L176.869 107.755H174.069V115H169.974ZM197.433 115.385C191.973 115.385 188.438 112.305 188.438 106.18C188.438 100.125 192.113 97.115 197.573 97.115C202.998 97.15 206.533 100.23 206.533 106.32C206.533 112.375 202.858 115.35 197.433 115.385ZM192.603 106.18V106.285C192.603 110.135 194.423 111.815 197.503 111.815C200.618 111.815 202.368 110.03 202.368 106.32V106.215C202.368 102.365 200.513 100.685 197.433 100.685C194.318 100.72 192.603 102.505 192.603 106.18ZM225.811 115V103.24L220.771 110.66H219.476L214.401 103.205V115H210.306V97.5L214.541 97.5L220.246 105.69L225.776 97.5H229.906V115H225.811ZM257.903 113.25C257.133 114.23 254.928 115.385 252.093 115.385C246.493 115.385 242.783 112.305 242.783 106.18C242.783 100.16 246.563 97.15 252.128 97.115C254.473 97.15 256.573 97.85 257.728 98.725V103.835C256.538 101.98 254.683 100.72 252.128 100.685C248.768 100.685 246.948 102.47 246.948 106.005V106.53C246.948 110.135 248.908 111.815 252.198 111.815C255.103 111.815 257.028 110.59 257.903 109.05V113.25ZM269.005 115.385C263.545 115.385 260.01 112.305 260.01 106.18C260.01 100.125 263.685 97.115 269.145 97.115C274.57 97.15 278.105 100.23 278.105 106.32C278.105 112.375 274.43 115.35 269.005 115.385ZM264.175 106.18V106.285C264.175 110.135 265.995 111.815 269.075 111.815C272.19 111.815 273.94 110.03 273.94 106.32V106.215C273.94 102.365 272.085 100.685 269.005 100.685C265.89 100.72 264.175 102.505 264.175 106.18ZM293.604 115V101.105H285.974V115H281.879V97.5L297.699 97.5V115H293.604ZM302.66 121.755V97.5H306.51V101.14C307.14 99.18 308.995 97.15 312.705 97.15C317.15 97.15 320.265 99.74 320.265 105.865C320.265 112.76 317.15 115.385 312.355 115.385C309.555 115.385 307.63 113.985 306.755 112.34V121.755H302.66ZM306.755 105.515V106.845C306.755 109.995 308.575 111.78 311.445 111.78C314.735 111.78 316.17 110.17 316.17 106.04C316.17 102.19 314.315 100.79 311.515 100.79C308.295 100.79 306.825 102.575 306.755 105.515ZM331.793 115.385C326.333 115.385 322.798 112.305 322.798 106.18C322.798 100.125 326.473 97.115 331.933 97.115C337.358 97.15 340.893 100.23 340.893 106.32C340.893 112.375 337.218 115.35 331.793 115.385ZM326.963 106.18V106.285C326.963 110.135 328.783 111.815 331.863 111.815C334.978 111.815 336.728 110.03 336.728 106.32V106.215C336.728 102.365 334.873 100.685 331.793 100.685C328.678 100.72 326.963 102.505 326.963 106.18ZM344.667 115V97.5H353.487C357.652 97.5 359.297 98.935 359.297 101.56C359.297 103.66 358.177 105.095 356.287 105.55C358.527 105.83 360.172 106.845 360.172 109.82C360.172 113.18 357.967 115 353.382 115H344.667ZM348.762 111.605H352.997C355.167 111.605 356.112 110.94 356.112 109.54C356.112 108 355.132 107.51 353.242 107.51H348.762V111.605ZM348.762 104.57H352.507C354.117 104.57 355.202 104.045 355.202 102.575C355.202 101.28 354.292 100.895 352.542 100.895L348.762 100.93V104.57ZM371.715 115.385C366.255 115.385 362.72 112.305 362.72 106.18C362.72 100.125 366.395 97.115 371.855 97.115C377.28 97.15 380.815 100.23 380.815 106.32C380.815 112.375 377.14 115.35 371.715 115.385ZM366.885 106.18V106.285C366.885 110.135 368.705 111.815 371.785 111.815C374.9 111.815 376.65 110.03 376.65 106.32V106.215C376.65 102.365 374.795 100.685 371.715 100.685C368.6 100.72 366.885 102.505 366.885 106.18ZM393.037 115V107.755H390.657L386.667 115H382.082L387.262 105.935L382.572 97.5H387.122L390.622 104.325H393.037V97.5H397.097V104.325H399.442L403.152 97.5H407.492L402.872 105.795L408.052 115H403.397L399.512 107.755H397.097V115H393.037ZM409.938 111.29H411.968C412.948 108.77 413.543 105.305 413.543 99.495V97.5H426.983V111.29H429.643V119.55H425.933V115H413.648V119.55H409.938V111.29ZM417.358 101.525C417.253 105.55 416.903 108.56 415.923 111.29H422.888V101.105H417.358V101.525ZM447.271 113.25C446.431 114.23 444.016 115.385 440.831 115.35C435.056 115.385 431.626 112.2 431.626 106.18C431.626 100.37 435.266 97.115 440.551 97.115C445.626 97.15 448.671 100.265 448.671 105.76V107.44L435.686 107.44C436.001 110.345 437.786 111.815 440.971 111.815C444.191 111.815 446.326 110.59 447.271 109.05V113.25ZM440.446 100.685C437.821 100.685 436.176 102.015 435.756 104.535L444.576 104.535C444.471 102.155 442.931 100.685 440.446 100.685ZM464.44 115V107.93H456.53V115H452.435V97.5H456.53V104.325H464.44V97.5H468.535V115H464.44ZM473.525 115V97.5H477.585V109.365L485.985 97.5H489.87V115H485.81V102.995L477.41 115H473.525ZM494.887 115V97.5H498.947V109.365L507.347 97.5H511.232V115H507.172V102.995L498.772 115H494.887Z" fill="url(#paint0_linear_271_10789)"/>
<defs>
<linearGradient id="paint0_linear_271_10789" x1="10.0171" y1="114.954" x2="489.615" y2="114.954" gradientUnits="userSpaceOnUse">
<stop stop-color="#DB32E1"/>
<stop offset="0.510417" stop-color="#7A4FDC"/>
<stop offset="1" stop-color="#3D51C2"/>
</linearGradient>
</defs>
</svg>
