<svg width="644" height="109" viewBox="0 0 644 109" fill="none" xmlns="http://www.w3.org/2000/svg">
<path d="M2.73 26L2.73 5L17.64 5V8.45H6.48V12.2H10.59C16.35 12.2 19.29 14.36 19.29 18.98C19.29 23.6 15.87 26 10.5 26H2.73ZM10.47 15.65H6.48L6.48 22.55H10.47C13.47 22.55 15.39 21.68 15.39 18.89C15.39 16.37 13.71 15.65 10.47 15.65ZM29.5036 26.33C24.8236 26.33 21.7936 23.69 21.7936 18.44C21.7936 13.25 24.9436 10.67 29.6236 10.67C34.2736 10.7 37.3036 13.34 37.3036 18.56C37.3036 23.75 34.1536 26.3 29.5036 26.33ZM25.3636 18.44V18.53C25.3636 21.83 26.9236 23.27 29.5636 23.27C32.2336 23.27 33.7336 21.74 33.7336 18.56V18.47C33.7336 15.17 32.1436 13.73 29.5036 13.73C26.8336 13.76 25.3636 15.29 25.3636 18.44ZM50.1703 26L50.1703 14.09H45.3103L45.2203 15.98C44.8303 25.34 42.5503 26.18 40.2103 26.18C39.6403 26.18 39.0403 26.12 38.7403 26.03V22.4C39.0103 22.49 39.2803 22.52 39.5203 22.52C40.8103 22.52 41.8603 22.1 42.0703 14.27L42.1903 11L53.6503 11L53.6503 26H50.1703ZM70.7205 20.54C70.6905 24.35 68.6505 26 63.9705 26L57.9405 26L57.9405 11H61.4505V15.44H64.3605C68.4405 15.44 70.7205 16.61 70.7205 20.54ZM67.2105 20.51C67.1505 18.95 66.3705 18.53 64.0905 18.53H61.4505L61.4505 22.91H63.8805C66.2805 22.91 67.2105 22.31 67.2105 20.51ZM73.9073 26V11H77.4173V22.82H82.0373V11H85.5173V22.82H90.1373V11L93.6473 11V26L73.9073 26ZM110.291 24.5C109.571 25.34 107.501 26.33 104.771 26.3C99.8215 26.33 96.8815 23.6 96.8815 18.44C96.8815 13.46 100.001 10.67 104.531 10.67C108.881 10.7 111.491 13.37 111.491 18.08V19.52L100.361 19.52C100.631 22.01 102.161 23.27 104.891 23.27C107.651 23.27 109.481 22.22 110.291 20.9V24.5ZM104.441 13.73C102.191 13.73 100.781 14.87 100.421 17.03H107.981C107.891 14.99 106.571 13.73 104.441 13.73ZM127.011 26.06L120.681 11H124.611L128.721 21.29L132.081 11H135.801L129.801 27.59C128.481 31.19 127.131 32 125.151 32C124.221 32 123.201 31.73 122.751 31.34V28.07C123.201 28.52 123.891 28.82 124.551 28.82C125.631 28.82 126.441 28.1 127.011 26.06ZM149.861 24.5C149.201 25.34 147.311 26.33 144.881 26.33C140.081 26.33 136.901 23.69 136.901 18.44C136.901 13.28 140.141 10.7 144.911 10.67C146.921 10.7 148.721 11.3 149.711 12.05V16.43C148.691 14.84 147.101 13.76 144.911 13.73C142.031 13.73 140.471 15.26 140.471 18.29V18.74C140.471 21.83 142.151 23.27 144.971 23.27C147.461 23.27 149.111 22.22 149.861 20.9V24.5ZM156.81 26V14.09L152.01 14.09V11L165.15 11V14.09L160.29 14.09V26L156.81 26ZM168.038 31.79V11H171.338V14.12C171.878 12.44 173.468 10.7 176.648 10.7C180.458 10.7 183.128 12.92 183.128 18.17C183.128 24.08 180.458 26.33 176.348 26.33C173.948 26.33 172.298 25.13 171.548 23.72V31.79H168.038ZM171.548 17.87V19.01C171.548 21.71 173.108 23.24 175.568 23.24C178.388 23.24 179.618 21.86 179.618 18.32C179.618 15.02 178.028 13.82 175.628 13.82C172.868 13.82 171.608 15.35 171.548 17.87ZM193.009 26.33C188.329 26.33 185.299 23.69 185.299 18.44C185.299 13.25 188.449 10.67 193.129 10.67C197.779 10.7 200.809 13.34 200.809 18.56C200.809 23.75 197.659 26.3 193.009 26.33ZM188.869 18.44V18.53C188.869 21.83 190.429 23.27 193.069 23.27C195.739 23.27 197.239 21.74 197.239 18.56V18.47C197.239 15.17 195.649 13.73 193.009 13.73C190.339 13.76 188.869 15.29 188.869 18.44ZM204.074 26V11H207.554V21.17L214.754 11H218.084V26H214.604V15.71L207.404 26H204.074ZM213.074 3.53L216.314 3.53C216.314 6.92 213.794 8.18 211.214 8.18C208.244 8.18 205.814 6.92 205.814 3.53L209.054 3.53C209.054 4.79 209.684 5.57 211.154 5.57C212.354 5.57 213.074 5.03 213.074 3.53ZM234.295 24.5C233.635 25.34 231.745 26.33 229.315 26.33C224.515 26.33 221.335 23.69 221.335 18.44C221.335 13.28 224.575 10.7 229.345 10.67C231.355 10.7 233.155 11.3 234.145 12.05V16.43C233.125 14.84 231.535 13.76 229.345 13.73C226.465 13.73 224.905 15.26 224.905 18.29V18.74C224.905 21.83 226.585 23.27 229.405 23.27C231.895 23.27 233.545 22.22 234.295 20.9V24.5ZM241.243 26V14.09L236.443 14.09V11L249.583 11V14.09H244.723V26H241.243ZM252.472 26V11H260.032C263.602 11 265.012 12.23 265.012 14.48C265.012 16.28 264.052 17.51 262.432 17.9C264.352 18.14 265.762 19.01 265.762 21.56C265.762 24.44 263.872 26 259.942 26L252.472 26ZM255.982 23.09L259.612 23.09C261.472 23.09 262.282 22.52 262.282 21.32C262.282 20 261.442 19.58 259.822 19.58L255.982 19.58V23.09ZM255.982 17.06L259.192 17.06C260.572 17.06 261.502 16.61 261.502 15.35C261.502 14.24 260.722 13.91 259.222 13.91L255.982 13.94V17.06ZM275.079 22.82H276.819C277.659 20.66 278.169 17.69 278.169 12.71V11L289.689 11V22.82H291.969V29.9H288.789V26L278.259 26V29.9H275.079V22.82ZM281.439 14.45C281.349 17.9 281.049 20.48 280.209 22.82L286.179 22.82V14.09H281.439V14.45ZM305.2 26V14.09H300.34L300.25 15.98C299.86 25.34 297.58 26.18 295.24 26.18C294.67 26.18 294.07 26.12 293.77 26.03V22.4C294.04 22.49 294.31 22.52 294.55 22.52C295.84 22.52 296.89 22.1 297.1 14.27L297.22 11L308.68 11V26L305.2 26ZM322.09 26V21.05H318.61L315.58 26H311.71L315.19 20.57C313.42 19.85 312.46 18.38 312.46 16.43C312.46 12.68 314.56 11 319.21 11L325.6 11V26H322.09ZM319.3 14.09C316.96 14.09 315.97 14.69 315.97 16.43C316 17.66 316.81 18.35 318.64 18.35H322.09V14.09H319.3ZM344.357 26.33C339.677 26.33 336.647 23.69 336.647 18.44C336.647 13.25 339.797 10.67 344.477 10.67C349.127 10.7 352.157 13.34 352.157 18.56C352.157 23.75 349.007 26.3 344.357 26.33ZM340.217 18.44V18.53C340.217 21.83 341.777 23.27 344.417 23.27C347.087 23.27 348.587 21.74 348.587 18.56V18.47C348.587 15.17 346.997 13.73 344.357 13.73C341.687 13.76 340.217 15.29 340.217 18.44ZM365.442 26V14.09L358.902 14.09V26H355.392V11L368.952 11V26H365.442ZM385.594 24.5C384.874 25.34 382.804 26.33 380.074 26.3C375.124 26.33 372.184 23.6 372.184 18.44C372.184 13.46 375.304 10.67 379.834 10.67C384.184 10.7 386.794 13.37 386.794 18.08V19.52L375.664 19.52C375.934 22.01 377.464 23.27 380.194 23.27C382.954 23.27 384.784 22.22 385.594 20.9V24.5ZM379.744 13.73C377.494 13.73 376.084 14.87 375.724 17.03L383.284 17.03C383.194 14.99 381.874 13.73 379.744 13.73ZM390.021 31.79V11H393.321V14.12C393.861 12.44 395.451 10.7 398.631 10.7C402.441 10.7 405.111 12.92 405.111 18.17C405.111 24.08 402.441 26.33 398.331 26.33C395.931 26.33 394.281 25.13 393.531 23.72V31.79H390.021ZM393.531 17.87V19.01C393.531 21.71 395.091 23.24 397.551 23.24C400.371 23.24 401.601 21.86 401.601 18.32C401.601 15.02 400.011 13.82 397.611 13.82C394.851 13.82 393.591 15.35 393.531 17.87ZM408.662 16.43V12.05C409.652 11.3 411.452 10.7 414.032 10.7C418.412 10.7 420.572 12.2 420.572 16.1V26H417.272V23.3C416.552 25.04 414.722 26.24 412.322 26.24C409.292 26.24 407.492 24.53 407.492 21.59C407.492 18.17 409.982 17.21 413.672 17.21H417.062V16.55C417.062 14.42 416.042 13.76 414.032 13.76C411.272 13.76 409.682 14.84 408.662 16.43ZM413.432 23.09C415.802 23.09 416.912 21.74 417.062 20.72V19.49H414.092C412.022 19.49 411.032 19.88 411.032 21.23C411.032 22.37 411.872 23.09 413.432 23.09ZM424.62 26V11H428.13V22.82H434.49V11H438V22.82H440.25V29.9H437.07V26L424.62 26ZM443.019 26V11L446.499 11V21.17L453.699 11H457.029V26H453.549V15.71L446.349 26H443.019ZM461.33 26V11H464.81V21.17L472.01 11H475.34V26H471.86V15.71L464.66 26H461.33ZM470.33 3.53L473.57 3.53C473.57 6.92 471.05 8.18 468.47 8.18C465.5 8.18 463.07 6.92 463.07 3.53L466.31 3.53C466.31 4.79 466.94 5.57 468.41 5.57C469.61 5.57 470.33 5.03 470.33 3.53Z" fill="white"/>
<path d="M12.992 64L12.992 51.296H6.016L6.016 64H2.272L2.272 48H16.736V64H12.992ZM28.408 64.352C23.416 64.352 20.184 61.536 20.184 55.936C20.184 50.4 23.544 47.648 28.536 47.648C33.496 47.68 36.728 50.496 36.728 56.064C36.728 61.6 33.368 64.32 28.408 64.352ZM23.992 55.936V56.032C23.992 59.552 25.656 61.088 28.472 61.088C31.32 61.088 32.92 59.456 32.92 56.064V55.968C32.92 52.448 31.224 50.912 28.408 50.912C25.56 50.944 23.992 52.576 23.992 55.936ZM62.6028 39.2V43.04C61.9628 43.392 60.1388 43.68 57.5148 43.904C52.3948 44.384 51.2428 46.4 50.8268 50.976C52.0748 49.184 54.0268 48 56.9068 48C60.8428 48 64.1068 49.984 64.1068 55.776C64.1068 61.44 61.0988 64.32 56.0428 64.32C50.6028 64.32 47.5628 61.088 47.5628 53.696C47.5628 44.864 49.9948 41.312 55.4988 40.416C57.9628 40 61.2908 39.872 62.6028 39.2ZM51.4028 55.808C51.4028 58.784 52.8748 60.928 55.7868 60.928C58.3148 60.928 60.2028 59.584 60.2028 56.096C60.2028 52.768 58.6348 51.328 55.9468 51.328C53.1308 51.328 51.4028 52.832 51.4028 55.808ZM67.554 64V48L71.266 48V58.848L78.946 48H82.498V64H78.786V53.024L71.106 64H67.554ZM86.2533 62.368V58.528C87.1813 59.936 89.2933 61.056 92.3013 61.056C94.4133 61.056 95.7573 60.416 95.7573 59.072C95.7573 57.824 94.8293 57.312 92.6533 57.312H89.9013V54.592H92.1733C93.9013 54.592 95.0533 54.048 95.0533 52.704C95.0533 51.616 94.3493 50.976 92.3973 50.944C89.7093 50.944 87.7893 52.096 86.5413 53.792V49.12C87.7573 48.32 89.9333 47.68 92.3973 47.68H92.5253C96.9733 47.68 98.8613 49.312 98.8613 51.84C98.8613 53.856 97.8053 54.88 96.2053 55.552C98.3493 55.968 99.5333 57.056 99.5333 59.2C99.5333 62.56 96.6213 64.32 92.3013 64.32C89.4852 64.32 87.0533 63.264 86.2533 62.368ZM113.967 64V57.536H106.735V64H102.991V48H106.735V54.24H113.967V48H117.711V64H113.967ZM135.457 62.4C134.689 63.296 132.481 64.352 129.569 64.32C124.289 64.352 121.153 61.44 121.153 55.936C121.153 50.624 124.481 47.648 129.313 47.648C133.953 47.68 136.737 50.528 136.737 55.552V57.088L124.865 57.088C125.153 59.744 126.785 61.088 129.697 61.088C132.641 61.088 134.593 59.968 135.457 58.56V62.4ZM129.217 50.912C126.817 50.912 125.313 52.128 124.929 54.432H132.993C132.897 52.256 131.489 50.912 129.217 50.912ZM152.914 62.4C152.21 63.296 150.194 64.352 147.602 64.352C142.482 64.352 139.09 61.536 139.09 55.936C139.09 50.432 142.546 47.68 147.634 47.648C149.778 47.68 151.698 48.32 152.754 49.12V53.792C151.666 52.096 149.97 50.944 147.634 50.912C144.562 50.912 142.898 52.544 142.898 55.776V56.256C142.898 59.552 144.69 61.088 147.698 61.088C150.354 61.088 152.114 59.968 152.914 58.56V62.4ZM156.591 56.288V52.832H165.167V56.288L156.591 56.288ZM169.991 64V48H173.735V54.24H176.327L180.807 48H184.967L179.367 55.552L185.863 64H181.319L176.295 57.376H173.735V64H169.991ZM188.844 53.792V49.12C189.9 48.32 191.82 47.68 194.572 47.68C199.244 47.68 201.548 49.28 201.548 53.44V64H198.028V61.12C197.26 62.976 195.308 64.256 192.748 64.256C189.516 64.256 187.596 62.432 187.596 59.296C187.596 55.648 190.252 54.624 194.188 54.624H197.804V53.92C197.804 51.648 196.716 50.944 194.572 50.944C191.628 50.944 189.932 52.096 188.844 53.792ZM193.932 60.896C196.46 60.896 197.644 59.456 197.804 58.368V57.056H194.635C192.428 57.056 191.372 57.472 191.372 58.912C191.372 60.128 192.268 60.896 193.932 60.896ZM205.866 70.176V48H209.386V51.328C209.962 49.536 211.658 47.68 215.05 47.68C219.114 47.68 221.962 50.048 221.962 55.648C221.962 61.952 219.114 64.352 214.73 64.352C212.17 64.352 210.41 63.072 209.61 61.568V70.176H205.866ZM209.61 55.328V56.544C209.61 59.424 211.274 61.056 213.898 61.056C216.906 61.056 218.218 59.584 218.218 55.808C218.218 52.288 216.522 51.008 213.962 51.008C211.018 51.008 209.674 52.64 209.61 55.328ZM229.014 64V51.296L223.894 51.296V48L237.91 48V51.296H232.726V64H229.014ZM241.094 53.792V49.12C242.15 48.32 244.07 47.68 246.822 47.68C251.494 47.68 253.798 49.28 253.798 53.44V64H250.278V61.12C249.51 62.976 247.558 64.256 244.998 64.256C241.766 64.256 239.846 62.432 239.846 59.296C239.846 55.648 242.502 54.624 246.438 54.624H250.054V53.92C250.054 51.648 248.966 50.944 246.822 50.944C243.878 50.944 242.182 52.096 241.094 53.792ZM246.182 60.896C248.71 60.896 249.894 59.456 250.054 58.368V57.056H246.885C244.678 57.056 243.622 57.472 243.622 58.912C243.622 60.128 244.518 60.896 246.182 60.896ZM272.292 64V53.248L267.684 60.032H266.5L261.86 53.216V64L258.116 64V48H261.988L267.204 55.488L272.26 48H276.036V64H272.292ZM305.473 64V45.28H293.537V64H289.537V41.6H309.473V64H305.473ZM331.223 64V45.28L319.287 45.28V64H315.287V41.6L335.223 41.6V64L331.223 64ZM348.493 57.024H345.037V64H341.037V41.6H348.493C355.565 41.6 358.573 44.128 358.573 49.184C358.573 54.4 355.053 57.024 348.493 57.024ZM348.845 45.28H345.037V53.344H348.781C352.493 53.344 354.413 52.128 354.413 49.088C354.413 46.336 352.749 45.28 348.845 45.28ZM362.975 64V41.6L378.878 41.6V45.28H366.975V49.28H371.359C377.503 49.28 380.639 51.584 380.639 56.512C380.639 61.44 376.991 64 371.263 64H362.975ZM371.231 52.96H366.975V60.32H371.231C374.431 60.32 376.479 59.392 376.479 56.416C376.479 53.728 374.687 52.96 371.231 52.96Z" fill="url(#paint0_linear_4898_373)"/>
<defs>
<linearGradient id="paint0_linear_4898_373" x1="9.27674" y1="93.7553" x2="502.683" y2="93.7553" gradientUnits="userSpaceOnUse">
<stop stop-color="#DB32E1"/>
<stop offset="0.510417" stop-color="#7A4FDC"/>
<stop offset="1" stop-color="#3D51C2"/>
</linearGradient>
</defs>
</svg>
