<svg width="644" height="109" viewBox="0 0 644 109" fill="none" xmlns="http://www.w3.org/2000/svg">
<path d="M7.71 22.7C8.49 22.7 9.15 22.4 9.63 21.44L0.45 5L4.8 5L11.55 17.18L17.07 5H21L13.29 21.62C11.58 25.28 9.99 26.24 7.86 26.24C6.9 26.24 5.97 26 5.43 25.76L5.43 21.86C5.97 22.37 6.84 22.7 7.71 22.7ZM31.098 26V14.09L26.238 14.09L26.148 15.98C25.758 25.34 23.478 26.18 21.138 26.18C20.568 26.18 19.968 26.12 19.668 26.03V22.4C19.938 22.49 20.208 22.52 20.448 22.52C21.738 22.52 22.788 22.1 22.998 14.27L23.118 11L34.578 11L34.578 26H31.098ZM43.3683 26.06L37.0383 11H40.9683L45.0783 21.29L48.4383 11H52.1583L46.1583 27.59C44.8383 31.19 43.4883 32 41.5083 32C40.5783 32 39.5583 31.73 39.1083 31.34V28.07C39.5583 28.52 40.2483 28.82 40.9083 28.82C41.9883 28.82 42.7983 28.1 43.3683 26.06ZM63.9251 26V20.72C62.8751 21.32 61.4351 21.59 60.0551 21.59C56.4551 21.59 54.2951 19.97 54.2951 16.37V11L57.8051 11V15.83C57.8051 17.63 58.8251 18.47 60.6851 18.47C61.8851 18.47 63.0251 18.23 63.9251 17.78V11L67.4351 11V26H63.9251ZM71.6808 26V11H75.1908V22.82H79.8108V11H83.2908V22.82L87.9108 22.82V11H91.4208V26L71.6808 26ZM108.065 24.5C107.345 25.34 105.275 26.33 102.545 26.3C97.5949 26.33 94.6549 23.6 94.6549 18.44C94.6549 13.46 97.7749 10.67 102.305 10.67C106.655 10.7 109.265 13.37 109.265 18.08V19.52H98.1349C98.4049 22.01 99.9349 23.27 102.665 23.27C105.425 23.27 107.255 22.22 108.065 20.9V24.5ZM102.215 13.73C99.9649 13.73 98.5549 14.87 98.1949 17.03H105.755C105.665 14.99 104.345 13.73 102.215 13.73ZM122.781 26V19.94H116.001V26H112.491V11H116.001V16.85H122.781V11H126.291V26H122.781ZM130.568 26V11H134.048V21.17L141.248 11H144.578V26H141.098V15.71L133.898 26H130.568ZM161.239 24.5C160.519 25.34 158.449 26.33 155.719 26.3C150.769 26.33 147.829 23.6 147.829 18.44C147.829 13.46 150.949 10.67 155.479 10.67C159.829 10.7 162.439 13.37 162.439 18.08V19.52L151.309 19.52C151.579 22.01 153.109 23.27 155.839 23.27C158.599 23.27 160.429 22.22 161.239 20.9V24.5ZM155.389 13.73C153.139 13.73 151.729 14.87 151.369 17.03L158.929 17.03C158.839 14.99 157.519 13.73 155.389 13.73ZM173.458 26V11H176.968V16.85H179.398L183.598 11H187.498L182.248 18.08L188.338 26H184.078L179.368 19.79H176.968V26H173.458ZM201.049 26V14.09H196.189L196.099 15.98C195.709 25.34 193.429 26.18 191.089 26.18C190.519 26.18 189.919 26.12 189.619 26.03V22.4C189.889 22.49 190.159 22.52 190.399 22.52C191.689 22.52 192.739 22.1 192.949 14.27L193.069 11L204.529 11V26H201.049ZM208.849 26V11H212.329V21.17L219.529 11H222.859V26H219.379V15.71L212.179 26H208.849ZM239.52 24.5C238.8 25.34 236.73 26.33 234 26.3C229.05 26.33 226.11 23.6 226.11 18.44C226.11 13.46 229.23 10.67 233.76 10.67C238.11 10.7 240.72 13.37 240.72 18.08V19.52L229.59 19.52C229.86 22.01 231.39 23.27 234.12 23.27C236.88 23.27 238.71 22.22 239.52 20.9V24.5ZM233.67 13.73C231.42 13.73 230.01 14.87 229.65 17.03L237.21 17.03C237.12 14.99 235.8 13.73 233.67 13.73ZM254.236 26V19.94H247.456V26H243.946V11H247.456V16.85H254.236V11H257.746V26L254.236 26ZM265.413 26V14.09L260.613 14.09V11L273.753 11V14.09H268.893V26H265.413ZM288.582 24.5C287.922 25.34 286.032 26.33 283.602 26.33C278.802 26.33 275.622 23.69 275.622 18.44C275.622 13.28 278.862 10.7 283.632 10.67C285.642 10.7 287.442 11.3 288.432 12.05V16.43C287.412 14.84 285.822 13.76 283.632 13.73C280.752 13.73 279.192 15.26 279.192 18.29V18.74C279.192 21.83 280.872 23.27 283.692 23.27C286.182 23.27 287.832 22.22 288.582 20.9V24.5ZM291.788 26V11H295.298V16.85H297.728L301.928 11H305.828L300.578 18.08L306.668 26L302.408 26L297.698 19.79H295.298V26H291.788ZM315.324 26.33C310.644 26.33 307.614 23.69 307.614 18.44C307.614 13.25 310.764 10.67 315.444 10.67C320.094 10.7 323.124 13.34 323.124 18.56C323.124 23.75 319.974 26.3 315.324 26.33ZM311.184 18.44V18.53C311.184 21.83 312.744 23.27 315.384 23.27C318.054 23.27 319.554 21.74 319.554 18.56V18.47C319.554 15.17 317.964 13.73 315.324 13.73C312.654 13.76 311.184 15.29 311.184 18.44ZM326.359 26V11L337.129 11V14.09L329.869 14.09V26L326.359 26ZM347.023 26.33C342.343 26.33 339.313 23.69 339.313 18.44C339.313 13.25 342.463 10.67 347.143 10.67C351.793 10.7 354.823 13.34 354.823 18.56C354.823 23.75 351.673 26.3 347.023 26.33ZM342.883 18.44V18.53C342.883 21.83 344.443 23.27 347.083 23.27C349.753 23.27 351.253 21.74 351.253 18.56V18.47C351.253 15.17 349.663 13.73 347.023 13.73C344.353 13.76 342.883 15.29 342.883 18.44ZM372.541 26.33C367.861 26.33 364.831 23.69 364.831 18.44C364.831 13.25 367.981 10.67 372.661 10.67C377.311 10.7 380.341 13.34 380.341 18.56C380.341 23.75 377.191 26.3 372.541 26.33ZM368.401 18.44V18.53C368.401 21.83 369.961 23.27 372.601 23.27C375.271 23.27 376.771 21.74 376.771 18.56V18.47C376.771 15.17 375.181 13.73 372.541 13.73C369.871 13.76 368.401 15.29 368.401 18.44ZM393.625 26V14.09H387.085V26H383.575V11L397.135 11V26H393.625ZM401.388 26V11H404.898V15.44H407.478C411.558 15.44 413.808 16.61 413.808 20.54C413.778 24.35 411.738 26 407.088 26L401.388 26ZM415.518 26V11H419.028V26H415.518ZM406.968 22.91C409.338 22.91 410.268 22.31 410.298 20.54C410.268 18.95 409.518 18.53 407.208 18.53H404.898V22.91H406.968ZM426.722 26V14.09H421.922V11L435.062 11V14.09L430.202 14.09V26L426.722 26ZM438.047 16.43V12.05C439.037 11.3 440.837 10.7 443.417 10.7C447.797 10.7 449.957 12.2 449.957 16.1V26H446.657V23.3C445.937 25.04 444.107 26.24 441.707 26.24C438.677 26.24 436.877 24.53 436.877 21.59C436.877 18.17 439.367 17.21 443.057 17.21H446.447V16.55C446.447 14.42 445.427 13.76 443.417 13.76C440.657 13.76 439.067 14.84 438.047 16.43ZM442.817 23.09C445.187 23.09 446.297 21.74 446.447 20.72V19.49H443.477C441.407 19.49 440.417 19.88 440.417 21.23C440.417 22.37 441.257 23.09 442.817 23.09Z" fill="white"/>
<path d="M12.992 64L12.992 51.296H6.016L6.016 64H2.272L2.272 48H16.736V64H12.992ZM28.408 64.352C23.416 64.352 20.184 61.536 20.184 55.936C20.184 50.4 23.544 47.648 28.536 47.648C33.496 47.68 36.728 50.496 36.728 56.064C36.728 61.6 33.368 64.32 28.408 64.352ZM23.992 55.936V56.032C23.992 59.552 25.656 61.088 28.472 61.088C31.32 61.088 32.92 59.456 32.92 56.064V55.968C32.92 52.448 31.224 50.912 28.408 50.912C25.56 50.944 23.992 52.576 23.992 55.936ZM62.6028 39.2V43.04C61.9628 43.392 60.1388 43.68 57.5148 43.904C52.3948 44.384 51.2428 46.4 50.8268 50.976C52.0748 49.184 54.0268 48 56.9068 48C60.8428 48 64.1068 49.984 64.1068 55.776C64.1068 61.44 61.0988 64.32 56.0428 64.32C50.6028 64.32 47.5628 61.088 47.5628 53.696C47.5628 44.864 49.9948 41.312 55.4988 40.416C57.9628 40 61.2908 39.872 62.6028 39.2ZM51.4028 55.808C51.4028 58.784 52.8748 60.928 55.7868 60.928C58.3148 60.928 60.2028 59.584 60.2028 56.096C60.2028 52.768 58.6348 51.328 55.9468 51.328C53.1308 51.328 51.4028 52.832 51.4028 55.808ZM67.554 64V48L71.266 48V58.848L78.946 48H82.498V64H78.786V53.024L71.106 64H67.554ZM86.2533 62.368V58.528C87.1813 59.936 89.2933 61.056 92.3013 61.056C94.4133 61.056 95.7573 60.416 95.7573 59.072C95.7573 57.824 94.8293 57.312 92.6533 57.312H89.9013V54.592H92.1733C93.9013 54.592 95.0533 54.048 95.0533 52.704C95.0533 51.616 94.3493 50.976 92.3973 50.944C89.7093 50.944 87.7893 52.096 86.5413 53.792V49.12C87.7573 48.32 89.9333 47.68 92.3973 47.68H92.5253C96.9733 47.68 98.8613 49.312 98.8613 51.84C98.8613 53.856 97.8053 54.88 96.2053 55.552C98.3493 55.968 99.5333 57.056 99.5333 59.2C99.5333 62.56 96.6213 64.32 92.3013 64.32C89.4852 64.32 87.0533 63.264 86.2533 62.368ZM113.967 64V57.536H106.735V64H102.991V48H106.735V54.24H113.967V48H117.711V64H113.967ZM135.457 62.4C134.689 63.296 132.481 64.352 129.569 64.32C124.289 64.352 121.153 61.44 121.153 55.936C121.153 50.624 124.481 47.648 129.313 47.648C133.953 47.68 136.737 50.528 136.737 55.552V57.088L124.865 57.088C125.153 59.744 126.785 61.088 129.697 61.088C132.641 61.088 134.593 59.968 135.457 58.56V62.4ZM129.217 50.912C126.817 50.912 125.313 52.128 124.929 54.432H132.993C132.897 52.256 131.489 50.912 129.217 50.912ZM152.914 62.4C152.21 63.296 150.194 64.352 147.602 64.352C142.482 64.352 139.09 61.536 139.09 55.936C139.09 50.432 142.546 47.68 147.634 47.648C149.778 47.68 151.698 48.32 152.754 49.12V53.792C151.666 52.096 149.97 50.944 147.634 50.912C144.562 50.912 142.898 52.544 142.898 55.776V56.256C142.898 59.552 144.69 61.088 147.698 61.088C150.354 61.088 152.114 59.968 152.914 58.56V62.4ZM156.591 56.288V52.832H165.167V56.288L156.591 56.288ZM169.991 64V48H173.735V54.24H176.327L180.807 48H184.967L179.367 55.552L185.863 64H181.319L176.295 57.376H173.735V64H169.991ZM188.844 53.792V49.12C189.9 48.32 191.82 47.68 194.572 47.68C199.244 47.68 201.548 49.28 201.548 53.44V64H198.028V61.12C197.26 62.976 195.308 64.256 192.748 64.256C189.516 64.256 187.596 62.432 187.596 59.296C187.596 55.648 190.252 54.624 194.188 54.624H197.804V53.92C197.804 51.648 196.716 50.944 194.572 50.944C191.628 50.944 189.932 52.096 188.844 53.792ZM193.932 60.896C196.46 60.896 197.644 59.456 197.804 58.368V57.056H194.635C192.428 57.056 191.372 57.472 191.372 58.912C191.372 60.128 192.268 60.896 193.932 60.896ZM205.866 70.176V48H209.386V51.328C209.962 49.536 211.658 47.68 215.05 47.68C219.114 47.68 221.962 50.048 221.962 55.648C221.962 61.952 219.114 64.352 214.73 64.352C212.17 64.352 210.41 63.072 209.61 61.568V70.176H205.866ZM209.61 55.328V56.544C209.61 59.424 211.274 61.056 213.898 61.056C216.906 61.056 218.218 59.584 218.218 55.808C218.218 52.288 216.522 51.008 213.962 51.008C211.018 51.008 209.674 52.64 209.61 55.328ZM229.014 64V51.296L223.894 51.296V48L237.91 48V51.296H232.726V64H229.014ZM241.094 53.792V49.12C242.15 48.32 244.07 47.68 246.822 47.68C251.494 47.68 253.798 49.28 253.798 53.44V64H250.278V61.12C249.51 62.976 247.558 64.256 244.998 64.256C241.766 64.256 239.846 62.432 239.846 59.296C239.846 55.648 242.502 54.624 246.438 54.624H250.054V53.92C250.054 51.648 248.966 50.944 246.822 50.944C243.878 50.944 242.182 52.096 241.094 53.792ZM246.182 60.896C248.71 60.896 249.894 59.456 250.054 58.368V57.056H246.885C244.678 57.056 243.622 57.472 243.622 58.912C243.622 60.128 244.518 60.896 246.182 60.896ZM272.292 64V53.248L267.684 60.032H266.5L261.86 53.216V64L258.116 64V48H261.988L267.204 55.488L272.26 48H276.036V64H272.292Z" fill="url(#paint0_linear_4898_361)"/>
<defs>
<linearGradient id="paint0_linear_4898_361" x1="9.27674" y1="93.7553" x2="502.683" y2="93.7553" gradientUnits="userSpaceOnUse">
<stop stop-color="#DB32E1"/>
<stop offset="0.510417" stop-color="#7A4FDC"/>
<stop offset="1" stop-color="#3D51C2"/>
</linearGradient>
</defs>
</svg>
