<svg width="522" height="126" viewBox="0 0 522 126" fill="none" xmlns="http://www.w3.org/2000/svg">
<path d="M8.208 21.486L8.208 33H3.458L3.458 6.4H8.208L8.208 17.572H12.198L20.748 6.4L26.524 6.4L16.378 19.054L28.158 33L22.078 33L12.426 21.486L8.208 21.486ZM44.4006 33L44.4006 17.914H38.2446L38.1306 20.308C37.6366 32.164 34.7486 33.228 31.7846 33.228C31.0626 33.228 30.3026 33.152 29.9226 33.038L29.9226 28.44C30.2646 28.554 30.6066 28.592 30.9106 28.592C32.5446 28.592 33.8746 28.06 34.1406 18.142L34.2926 14L48.8086 14L48.8086 33H44.4006ZM54.2809 33L54.2809 14L58.6889 14L58.6889 26.882L67.8089 14H72.0269V33H67.6189V19.966L58.4989 33H54.2809ZM93.1303 31.1C92.2183 32.164 89.5963 33.418 86.1383 33.38C79.8683 33.418 76.1443 29.96 76.1443 23.424C76.1443 17.116 80.0963 13.582 85.8343 13.582C91.3443 13.62 94.6503 17.002 94.6503 22.968V24.792L80.5523 24.792C80.8943 27.946 82.8323 29.542 86.2903 29.542C89.7863 29.542 92.1043 28.212 93.1303 26.54V31.1ZM85.7203 17.458C82.8703 17.458 81.0843 18.902 80.6283 21.638L90.2043 21.638C90.0903 19.054 88.4183 17.458 85.7203 17.458ZM111.771 33V25.324L103.183 25.324V33H98.7371V14H103.183V21.41L111.771 21.41V14L116.217 14V33H111.771ZM125.928 33V17.914H119.848V14L136.492 14V17.914L130.336 17.914V33H125.928ZM140.151 33V14L144.597 14V19.624H147.865C153.033 19.624 155.883 21.106 155.883 26.084C155.845 30.91 153.261 33 147.371 33H140.151ZM158.049 33V14H162.495V33H158.049ZM147.219 29.086C150.221 29.086 151.399 28.326 151.437 26.084C151.399 24.07 150.449 23.538 147.523 23.538H144.597V29.086H147.219ZM176.83 31.062V26.502C177.932 28.174 180.44 29.504 184.012 29.504C186.52 29.504 188.116 28.744 188.116 27.148C188.116 25.666 187.014 25.058 184.43 25.058L181.162 25.058V21.828L183.86 21.828C185.912 21.828 187.28 21.182 187.28 19.586C187.28 18.294 186.444 17.534 184.126 17.496C180.934 17.496 178.654 18.864 177.172 20.878V15.33C178.616 14.38 181.2 13.62 184.126 13.62H184.278C189.56 13.62 191.802 15.558 191.802 18.56C191.802 20.954 190.548 22.17 188.648 22.968C191.194 23.462 192.6 24.754 192.6 27.3C192.6 31.29 189.142 33.38 184.012 33.38C180.668 33.38 177.78 32.126 176.83 31.062ZM197.162 20.878V15.33C198.416 14.38 200.696 13.62 203.964 13.62C209.512 13.62 212.248 15.52 212.248 20.46V33H208.068V29.58C207.156 31.784 204.838 33.304 201.798 33.304C197.96 33.304 195.68 31.138 195.68 27.414C195.68 23.082 198.834 21.866 203.508 21.866L207.802 21.866V21.03C207.802 18.332 206.51 17.496 203.964 17.496C200.468 17.496 198.454 18.864 197.162 20.878ZM203.204 29.314C206.206 29.314 207.612 27.604 207.802 26.312V24.754L204.04 24.754C201.418 24.754 200.164 25.248 200.164 26.958C200.164 28.402 201.228 29.314 203.204 29.314ZM217.376 40.334V14H221.556V17.952C222.24 15.824 224.254 13.62 228.282 13.62C233.108 13.62 236.49 16.432 236.49 23.082C236.49 30.568 233.108 33.418 227.902 33.418C224.862 33.418 222.772 31.898 221.822 30.112V40.334L217.376 40.334ZM221.822 22.702V24.146C221.822 27.566 223.798 29.504 226.914 29.504C230.486 29.504 232.044 27.756 232.044 23.272C232.044 19.092 230.03 17.572 226.99 17.572C223.494 17.572 221.898 19.51 221.822 22.702ZM240.988 20.878V15.33C242.242 14.38 244.522 13.62 247.79 13.62C253.338 13.62 256.074 15.52 256.074 20.46V33H251.894V29.58C250.982 31.784 248.664 33.304 245.624 33.304C241.786 33.304 239.506 31.138 239.506 27.414C239.506 23.082 242.66 21.866 247.334 21.866H251.628V21.03C251.628 18.332 250.336 17.496 247.79 17.496C244.294 17.496 242.28 18.864 240.988 20.878ZM247.03 29.314C250.032 29.314 251.438 27.604 251.628 26.312V24.754H247.866C245.244 24.754 243.99 25.248 243.99 26.958C243.99 28.402 245.054 29.314 247.03 29.314ZM277.96 3.55V8.11C277.2 8.528 275.034 8.87 271.918 9.136C265.838 9.706 264.47 12.1 263.976 17.534C265.458 15.406 267.776 14 271.196 14C275.87 14 279.746 16.356 279.746 23.234C279.746 29.96 276.174 33.38 270.17 33.38C263.71 33.38 260.1 29.542 260.1 20.764C260.1 10.276 262.988 6.058 269.524 4.994C272.45 4.5 276.402 4.348 277.96 3.55ZM264.66 23.272C264.66 26.806 266.408 29.352 269.866 29.352C272.868 29.352 275.11 27.756 275.11 23.614C275.11 19.662 273.248 17.952 270.056 17.952C266.712 17.952 264.66 19.738 264.66 23.272ZM292.276 33.418C286.348 33.418 282.51 30.074 282.51 23.424C282.51 16.85 286.5 13.582 292.428 13.582C298.318 13.62 302.156 16.964 302.156 23.576C302.156 30.15 298.166 33.38 292.276 33.418ZM287.032 23.424V23.538C287.032 27.718 289.008 29.542 292.352 29.542C295.734 29.542 297.634 27.604 297.634 23.576V23.462C297.634 19.282 295.62 17.458 292.276 17.458C288.894 17.496 287.032 19.434 287.032 23.424ZM310.585 33V17.914L304.505 17.914V14L321.149 14V17.914H314.993V33H310.585ZM324.929 20.878V15.33C326.183 14.38 328.463 13.62 331.731 13.62C337.279 13.62 340.015 15.52 340.015 20.46V33H335.835V29.58C334.923 31.784 332.605 33.304 329.565 33.304C325.727 33.304 323.447 31.138 323.447 27.414C323.447 23.082 326.601 21.866 331.275 21.866H335.569V21.03C335.569 18.332 334.277 17.496 331.731 17.496C328.235 17.496 326.221 18.864 324.929 20.878ZM330.971 29.314C333.973 29.314 335.379 27.604 335.569 26.312V24.754H331.807C329.185 24.754 327.931 25.248 327.931 26.958C327.931 28.402 328.995 29.314 330.971 29.314ZM357.455 33V17.914L351.299 17.914L351.185 20.308C350.691 32.164 347.803 33.228 344.839 33.228C344.117 33.228 343.357 33.152 342.977 33.038V28.44C343.319 28.554 343.661 28.592 343.965 28.592C345.599 28.592 346.929 28.06 347.195 18.142L347.347 14L361.863 14V33H357.455ZM367.336 33V14H371.744V26.882L380.864 14L385.082 14V33H380.674V19.966L371.554 33H367.336ZM7.714 75L7.714 53.682L2.014 57.216L2.014 52.542L8.854 48.134H12.16L12.16 75H7.714ZM18.4155 78.876C21.0375 78.382 22.7095 76.862 22.9755 75.38H22.8995C20.6195 75.38 19.9355 74.05 19.9355 72.454C19.9355 70.82 20.6195 69.528 22.8995 69.528C23.6975 69.528 24.3055 69.68 24.7615 69.984C25.6355 70.516 26.2815 71.77 26.2815 73.708C26.2815 78.268 22.7095 80.776 20.3915 81.232L18.4155 78.876ZM30.1993 53.302L30.1993 48.4H47.8313V51.782L38.5973 75H33.7713L42.5873 53.302H30.1993ZM78.4988 75V62.232L73.0268 70.288H71.6208L66.1108 62.194V75H61.6648L61.6648 56H66.2628L72.4568 64.892L78.4608 56H82.9448V75H78.4988ZM100.658 75V59.914H94.5024L94.3884 62.308C93.8944 74.164 91.0064 75.228 88.0424 75.228C87.3204 75.228 86.5604 75.152 86.1804 75.038V70.44C86.5224 70.554 86.8644 70.592 87.1684 70.592C88.8024 70.592 90.1324 70.06 90.3984 60.142L90.5504 56H105.066V75H100.658ZM110.501 82.334V56H114.681V59.952C115.365 57.824 117.379 55.62 121.407 55.62C126.233 55.62 129.615 58.432 129.615 65.082C129.615 72.568 126.233 75.418 121.027 75.418C117.987 75.418 115.897 73.898 114.947 72.112V82.334H110.501ZM114.947 64.702V66.146C114.947 69.566 116.923 71.504 120.039 71.504C123.611 71.504 125.169 69.756 125.169 65.272C125.169 61.092 123.155 59.572 120.115 59.572C116.619 59.572 115.023 61.51 114.947 64.702ZM131.158 70.972H133.362C134.426 68.236 135.072 64.474 135.072 58.166V56H149.664V70.972H152.552L152.552 79.94H148.524L148.524 75L135.186 75L135.186 79.94H131.158L131.158 70.972ZM139.214 60.37C139.1 64.74 138.72 68.008 137.656 70.972H145.218V59.914H139.214V60.37ZM165.868 82.334L165.868 56H170.048V59.952C170.732 57.824 172.746 55.62 176.774 55.62C181.6 55.62 184.982 58.432 184.982 65.082C184.982 72.568 181.6 75.418 176.394 75.418C173.354 75.418 171.264 73.898 170.314 72.112L170.314 82.334H165.868ZM170.314 64.702V66.146C170.314 69.566 172.29 71.504 175.406 71.504C178.978 71.504 180.536 69.756 180.536 65.272C180.536 61.092 178.522 59.572 175.482 59.572C171.986 59.572 170.39 61.51 170.314 64.702ZM194.168 75.076L186.15 56H191.128L196.334 69.034L200.59 56H205.302L197.702 77.014C196.03 81.574 194.32 82.6 191.812 82.6C190.634 82.6 189.342 82.258 188.772 81.764L188.772 77.622C189.342 78.192 190.216 78.572 191.052 78.572C192.42 78.572 193.446 77.66 194.168 75.076ZM224.968 45.55V50.11C224.208 50.528 222.042 50.87 218.926 51.136C212.846 51.706 211.478 54.1 210.984 59.534C212.466 57.406 214.784 56 218.204 56C222.878 56 226.754 58.356 226.754 65.234C226.754 71.96 223.182 75.38 217.178 75.38C210.718 75.38 207.108 71.542 207.108 62.764C207.108 52.276 209.996 48.058 216.532 46.994C219.458 46.5 223.41 46.348 224.968 45.55ZM211.668 65.272C211.668 68.806 213.416 71.352 216.874 71.352C219.876 71.352 222.118 69.756 222.118 65.614C222.118 61.662 220.256 59.952 217.064 59.952C213.72 59.952 211.668 61.738 211.668 65.272ZM243.01 75V59.914H236.854L236.74 62.308C236.246 74.164 233.358 75.228 230.394 75.228C229.672 75.228 228.912 75.152 228.532 75.038V70.44C228.874 70.554 229.216 70.592 229.52 70.592C231.154 70.592 232.484 70.06 232.75 60.142L232.902 56H247.418V75L243.01 75ZM268.546 73.1C267.634 74.164 265.012 75.418 261.554 75.38C255.284 75.418 251.56 71.96 251.56 65.424C251.56 59.116 255.512 55.582 261.25 55.582C266.76 55.62 270.066 59.002 270.066 64.968V66.792H255.968C256.31 69.946 258.248 71.542 261.706 71.542C265.202 71.542 267.52 70.212 268.546 68.54V73.1ZM261.136 59.458C258.286 59.458 256.5 60.902 256.044 63.638H265.62C265.506 61.054 263.834 59.458 261.136 59.458ZM274.191 75V56H278.599V68.882L287.719 56H291.937V75H287.529V61.966L278.409 75H274.191ZM285.591 46.538H289.695C289.695 50.832 286.503 52.428 283.235 52.428C279.473 52.428 276.395 50.832 276.395 46.538H280.499C280.499 48.134 281.297 49.122 283.159 49.122C284.679 49.122 285.591 48.438 285.591 46.538Z" fill="white"/>
<path d="M18.822 115.101C17.986 116.165 15.592 117.419 12.514 117.419C6.434 117.419 2.406 114.075 2.406 107.425C2.406 100.889 6.51 97.621 12.552 97.583C15.098 97.621 17.378 98.381 18.632 99.331V104.879C17.34 102.865 15.326 101.497 12.552 101.459C8.904 101.459 6.928 103.397 6.928 107.235V107.805C6.928 111.719 9.056 113.543 12.628 113.543C15.782 113.543 17.872 112.213 18.822 110.541L18.822 115.101ZM47.3466 111.643V116.583L38.9106 107.501L47.3466 98.419V103.397L43.6986 107.501L47.3466 111.643ZM39.8606 111.643V116.583L31.4246 107.501L39.8606 98.419V103.397L36.1746 107.501L39.8606 111.643ZM52.7002 117.001L52.7002 90.401L71.5862 90.401V94.771H57.4502V99.521H62.6562C69.9522 99.521 73.6762 102.257 73.6762 108.109C73.6762 113.961 69.3442 117.001 62.5422 117.001H52.7002ZM62.5042 103.891H57.4502L57.4502 112.631H62.5042C66.3042 112.631 68.7362 111.529 68.7362 107.995C68.7362 104.803 66.6082 103.891 62.5042 103.891ZM78.1774 117.001V98.001H82.5854V110.883L91.7054 98.001H95.9234V117.001H91.5154V103.967L82.3954 117.001H78.1774ZM100.383 115.063V110.503C101.485 112.175 103.993 113.505 107.565 113.505C110.073 113.505 111.669 112.745 111.669 111.149C111.669 109.667 110.567 109.059 107.983 109.059H104.715V105.829H107.413C109.465 105.829 110.833 105.183 110.833 103.587C110.833 102.295 109.997 101.535 107.679 101.497C104.487 101.497 102.207 102.865 100.725 104.879V99.331C102.169 98.381 104.753 97.621 107.679 97.621H107.831C113.113 97.621 115.355 99.559 115.355 102.561C115.355 104.955 114.101 106.171 112.201 106.969C114.747 107.463 116.153 108.755 116.153 111.301C116.153 115.291 112.695 117.381 107.565 117.381C104.221 117.381 101.333 116.127 100.383 115.063ZM133.293 117.001V109.325H124.705V117.001H120.259V98.001H124.705V105.411H133.293V98.001H137.739V117.001H133.293ZM158.812 115.101C157.9 116.165 155.278 117.419 151.82 117.381C145.55 117.419 141.826 113.961 141.826 107.425C141.826 101.117 145.778 97.583 151.516 97.583C157.026 97.621 160.332 101.003 160.332 106.969V108.793H146.234C146.576 111.947 148.514 113.543 151.972 113.543C155.468 113.543 157.786 112.213 158.812 110.541V115.101ZM151.402 101.459C148.552 101.459 146.766 102.903 146.31 105.639H155.886C155.772 103.055 154.1 101.459 151.402 101.459ZM179.543 115.101C178.707 116.165 176.313 117.419 173.235 117.419C167.155 117.419 163.127 114.075 163.127 107.425C163.127 100.889 167.231 97.621 173.273 97.583C175.819 97.621 178.099 98.381 179.353 99.331V104.879C178.061 102.865 176.047 101.497 173.273 101.459C169.625 101.459 167.649 103.397 167.649 107.235V107.805C167.649 111.719 169.777 113.543 173.349 113.543C176.503 113.543 178.593 112.213 179.543 110.541V115.101ZM183.908 107.843V103.739H194.092V107.843H183.908ZM199.821 117.001V98.001H204.267V105.411H207.345L212.665 98.001H217.605L210.955 106.969L218.669 117.001H213.273L207.307 109.135H204.267V117.001H199.821ZM236.853 115.101C235.941 116.165 233.319 117.419 229.861 117.381C223.591 117.419 219.867 113.961 219.867 107.425C219.867 101.117 223.819 97.583 229.557 97.583C235.067 97.621 238.373 101.003 238.373 106.969V108.793H224.275C224.617 111.947 226.555 113.543 230.013 113.543C233.509 113.543 235.827 112.213 236.853 110.541V115.101ZM229.443 101.459C226.593 101.459 224.807 102.903 224.351 105.639H233.927C233.813 103.055 232.141 101.459 229.443 101.459ZM242.46 117.001V98.001H246.906V112.973H252.758V98.001L257.166 98.001V112.973L263.018 112.973V98.001H267.464V117.001H242.46ZM289.61 87.551V92.111C288.85 92.529 286.684 92.871 283.568 93.137C277.488 93.707 276.12 96.101 275.626 101.535C277.108 99.407 279.426 98.001 282.846 98.001C287.52 98.001 291.396 100.357 291.396 107.235C291.396 113.961 287.824 117.381 281.82 117.381C275.36 117.381 271.75 113.543 271.75 104.765C271.75 94.277 274.638 90.059 281.174 88.995C284.1 88.501 288.052 88.349 289.61 87.551ZM276.31 107.273C276.31 110.807 278.058 113.353 281.516 113.353C284.518 113.353 286.76 111.757 286.76 107.615C286.76 103.663 284.898 101.953 281.706 101.953C278.362 101.953 276.31 103.739 276.31 107.273ZM294.283 104.841V99.293C295.613 98.343 298.083 97.583 300.971 97.583C307.165 97.583 311.041 100.927 311.041 107.463C311.041 114.075 306.975 117.419 301.047 117.381C297.741 117.419 295.119 116.165 294.207 115.101V110.541C295.233 112.213 297.513 113.543 300.933 113.543C304.239 113.505 306.177 111.985 306.557 109.097H298.463V105.677H306.519C306.063 102.827 304.087 101.459 300.819 101.459C297.817 101.459 295.689 102.865 294.283 104.841ZM315.157 117.001V98.001H319.603V105.411H322.681L328.001 98.001H332.941L326.291 106.969L334.005 117.001H328.609L322.643 109.135H319.603V117.001H315.157ZM344.969 117.419C339.041 117.419 335.203 114.075 335.203 107.425C335.203 100.851 339.193 97.583 345.121 97.583C351.011 97.621 354.849 100.965 354.849 107.577C354.849 114.151 350.859 117.381 344.969 117.419ZM339.725 107.425V107.539C339.725 111.719 341.701 113.543 345.045 113.543C348.427 113.543 350.327 111.605 350.327 107.577V107.463C350.327 103.283 348.313 101.459 344.969 101.459C341.587 101.497 339.725 103.435 339.725 107.425ZM375.78 117.001V104.233L370.308 112.289H368.902L363.392 104.195V117.001H358.946V98.001H363.544L369.738 106.893L375.742 98.001H380.226V117.001H375.78ZM384.83 103.359V98.419L393.266 107.501L384.83 116.583V111.605L388.516 107.501L384.83 103.359ZM392.354 103.359V98.419L400.79 107.501L392.354 116.583V111.605L396.002 107.501L392.354 103.359Z" fill="url(#paint0_linear_271_10767)"/>
<defs>
<linearGradient id="paint0_linear_271_10767" x1="10.0171" y1="117.32" x2="489.615" y2="117.32" gradientUnits="userSpaceOnUse">
<stop stop-color="#DB32E1"/>
<stop offset="0.510417" stop-color="#7A4FDC"/>
<stop offset="1" stop-color="#3D51C2"/>
</linearGradient>
</defs>
</svg>
