<svg width="523" height="66" viewBox="0 0 523 66" fill="none" xmlns="http://www.w3.org/2000/svg">
<path d="M6.48 5L6.48 20.69L17.94 5L22.02 5L22.02 26H18.27V10.07L6.75 26H2.73L2.73 5L6.48 5ZM34.6788 26L34.6788 11H42.2388C45.8088 11 47.2188 12.23 47.2188 14.48C47.2188 16.28 46.2588 17.51 44.6388 17.9C46.5588 18.14 47.9688 19.01 47.9688 21.56C47.9688 24.44 46.0788 26 42.1488 26L34.6788 26ZM38.1888 23.09H41.8188C43.6788 23.09 44.4888 22.52 44.4888 21.32C44.4888 20 43.6488 19.58 42.0288 19.58H38.1888L38.1888 23.09ZM38.1888 17.06H41.3988C42.7788 17.06 43.7088 16.61 43.7088 15.35C43.7088 14.24 42.9288 13.91 41.4288 13.91L38.1888 13.94V17.06ZM51.533 16.43V12.05C52.523 11.3 54.323 10.7 56.903 10.7C61.283 10.7 63.443 12.2 63.443 16.1L63.443 26L60.143 26V23.3C59.423 25.04 57.593 26.24 55.193 26.24C52.163 26.24 50.363 24.53 50.363 21.59C50.363 18.17 52.853 17.21 56.543 17.21H59.933V16.55C59.933 14.42 58.913 13.76 56.903 13.76C54.143 13.76 52.553 14.84 51.533 16.43ZM56.303 23.09C58.673 23.09 59.783 21.74 59.933 20.72L59.933 19.49H56.963C54.893 19.49 53.903 19.88 53.903 21.23C53.903 22.37 54.743 23.09 56.303 23.09ZM79.4313 24.5C78.7713 25.34 76.8813 26.33 74.4513 26.33C69.6513 26.33 66.4713 23.69 66.4713 18.44C66.4713 13.28 69.7113 10.7 74.4813 10.67C76.4913 10.7 78.2913 11.3 79.2813 12.05V16.43C78.2613 14.84 76.6713 13.76 74.4813 13.73C71.6013 13.73 70.0413 15.26 70.0413 18.29V18.74C70.0413 21.83 71.7213 23.27 74.5413 23.27C77.0313 23.27 78.6813 22.22 79.4313 20.9V24.5ZM100.721 26V19.94H93.9408V26H90.4308V11L93.9408 11V16.85H100.721V11L104.231 11V26H100.721ZM108.838 16.43V12.05C109.828 11.3 111.628 10.7 114.208 10.7C118.588 10.7 120.748 12.2 120.748 16.1V26H117.448V23.3C116.728 25.04 114.898 26.24 112.498 26.24C109.468 26.24 107.668 24.53 107.668 21.59C107.668 18.17 110.158 17.21 113.848 17.21H117.238V16.55C117.238 14.42 116.218 13.76 114.208 13.76C111.448 13.76 109.858 14.84 108.838 16.43ZM113.608 23.09C115.978 23.09 117.088 21.74 117.238 20.72V19.49H114.268C112.198 19.49 111.208 19.88 111.208 21.23C111.208 22.37 112.048 23.09 113.608 23.09ZM129.12 26.06L122.79 11H126.72L130.83 21.29L134.19 11H137.91L131.91 27.59C130.59 31.19 129.24 32 127.26 32C126.33 32 125.31 31.73 124.86 31.34V28.07C125.31 28.52 126 28.82 126.66 28.82C127.74 28.82 128.55 28.1 129.12 26.06ZM149.677 26V20.72C148.627 21.32 147.187 21.59 145.807 21.59C142.207 21.59 140.047 19.97 140.047 16.37V11L143.557 11V15.83C143.557 17.63 144.577 18.47 146.437 18.47C147.637 18.47 148.777 18.23 149.677 17.78V11L153.187 11V26H149.677ZM157.463 26V11H160.943V21.17L168.143 11H171.473V26H167.993V15.71L160.793 26L157.463 26ZM189.033 26V15.92L184.713 22.28H183.603L179.253 15.89V26H175.743V11L179.373 11L184.263 18.02L189.003 11L192.543 11V26H189.033ZM196.238 29.06C198.308 28.67 199.628 27.47 199.838 26.3H199.778C197.978 26.3 197.438 25.25 197.438 23.99C197.438 22.7 197.978 21.68 199.778 21.68C200.408 21.68 200.888 21.8 201.248 22.04C201.938 22.46 202.448 23.45 202.448 24.98C202.448 28.58 199.628 30.56 197.798 30.92L196.238 29.06ZM215.002 26V11H218.482V21.17L225.682 11L229.012 11V26H225.532V15.71L218.332 26H215.002ZM241.075 26V11H248.635C252.205 11 253.615 12.23 253.615 14.48C253.615 16.28 252.655 17.51 251.035 17.9C252.955 18.14 254.365 19.01 254.365 21.56C254.365 24.44 252.475 26 248.545 26H241.075ZM244.585 23.09H248.215C250.075 23.09 250.885 22.52 250.885 21.32C250.885 20 250.045 19.58 248.425 19.58H244.585V23.09ZM244.585 17.06H247.795C249.175 17.06 250.105 16.61 250.105 15.35C250.105 14.24 249.325 13.91 247.825 13.91L244.585 13.94V17.06ZM257.929 16.43V12.05C258.919 11.3 260.719 10.7 263.299 10.7C267.679 10.7 269.839 12.2 269.839 16.1V26H266.539V23.3C265.819 25.04 263.989 26.24 261.589 26.24C258.559 26.24 256.759 24.53 256.759 21.59C256.759 18.17 259.249 17.21 262.939 17.21H266.329V16.55C266.329 14.42 265.309 13.76 263.299 13.76C260.539 13.76 258.949 14.84 257.929 16.43ZM262.699 23.09C265.069 23.09 266.179 21.74 266.329 20.72V19.49H263.359C261.289 19.49 260.299 19.88 260.299 21.23C260.299 22.37 261.139 23.09 262.699 23.09ZM287.178 26V15.92L282.858 22.28H281.748L277.398 15.89V26H273.888V11L277.518 11L282.408 18.02L287.148 11H290.688V26H287.178ZM312.795 26V14.09L306.255 14.09V26L302.745 26V11L316.305 11V26H312.795ZM327.248 26.33C322.568 26.33 319.538 23.69 319.538 18.44C319.538 13.25 322.688 10.67 327.368 10.67C332.018 10.7 335.048 13.34 335.048 18.56C335.048 23.75 331.898 26.3 327.248 26.33ZM323.108 18.44V18.53C323.108 21.83 324.668 23.27 327.308 23.27C329.978 23.27 331.478 21.74 331.478 18.56V18.47C331.478 15.17 329.888 13.73 327.248 13.73C324.578 13.76 323.108 15.29 323.108 18.44ZM336.309 22.82H338.049C338.889 20.66 339.399 17.69 339.399 12.71V11L350.919 11V22.82H353.199V29.9H350.019V26H339.489V29.9H336.309V22.82ZM342.669 14.45C342.579 17.9 342.279 20.48 341.439 22.82H347.409V14.09H342.669V14.45ZM356.367 16.43V12.05C357.357 11.3 359.157 10.7 361.737 10.7C366.117 10.7 368.277 12.2 368.277 16.1V26H364.977V23.3C364.257 25.04 362.427 26.24 360.027 26.24C356.997 26.24 355.197 24.53 355.197 21.59C355.197 18.17 357.687 17.21 361.377 17.21H364.767V16.55C364.767 14.42 363.747 13.76 361.737 13.76C358.977 13.76 357.387 14.84 356.367 16.43ZM361.137 23.09C363.507 23.09 364.617 21.74 364.767 20.72V19.49H361.797C359.727 19.49 358.737 19.88 358.737 21.23C358.737 22.37 359.577 23.09 361.137 23.09ZM372.325 31.79V11L375.625 11V14.12C376.165 12.44 377.755 10.7 380.935 10.7C384.745 10.7 387.415 12.92 387.415 18.17C387.415 24.08 384.745 26.33 380.635 26.33C378.235 26.33 376.585 25.13 375.835 23.72V31.79H372.325ZM375.835 17.87V19.01C375.835 21.71 377.395 23.24 379.855 23.24C382.675 23.24 383.905 21.86 383.905 18.32C383.905 15.02 382.315 13.82 379.915 13.82C377.155 13.82 375.895 15.35 375.835 17.87ZM390.637 26V11H394.117V21.17L401.317 11H404.647V26L401.167 26V15.71L393.967 26H390.637ZM422.207 26V15.92L417.887 22.28H416.777L412.427 15.89V26H408.917V11L412.547 11L417.437 18.02L422.177 11H425.717V26H422.207Z" fill="white"/>
<path d="M14.56 53.488V57.648L7.456 50L14.56 42.352V46.544L11.488 50L14.56 53.488ZM8.256 53.488V57.648L1.152 50L8.256 42.352V46.544L5.152 50L8.256 53.488ZM22.0763 58V45.296H16.9563L16.9563 42L30.9723 42L30.9723 45.296H25.7883V58H22.0763ZM34.156 47.792V43.12C35.212 42.32 37.132 41.68 39.884 41.68C44.556 41.68 46.86 43.28 46.86 47.44L46.86 58H43.34V55.12C42.572 56.976 40.62 58.256 38.06 58.256C34.828 58.256 32.908 56.432 32.908 53.296C32.908 49.648 35.564 48.624 39.5 48.624H43.116V47.92C43.116 45.648 42.028 44.944 39.884 44.944C36.94 44.944 35.244 46.096 34.156 47.792ZM39.244 54.896C41.772 54.896 42.956 53.456 43.116 52.368V51.056H39.948C37.74 51.056 36.684 51.472 36.684 52.912C36.684 54.128 37.58 54.896 39.244 54.896ZM61.8983 58L61.8983 45.296L54.9223 45.296L54.9223 58H51.1783L51.1783 42L65.6423 42V58H61.8983ZM77.3142 58.352C72.3223 58.352 69.0903 55.536 69.0903 49.936C69.0903 44.4 72.4503 41.648 77.4423 41.648C82.4023 41.68 85.6343 44.496 85.6343 50.064C85.6343 55.6 82.2743 58.32 77.3142 58.352ZM72.8983 49.936V50.032C72.8983 53.552 74.5623 55.088 77.3783 55.088C80.2263 55.088 81.8263 53.456 81.8263 50.064V49.968C81.8263 46.448 80.1303 44.912 77.3142 44.912C74.4663 44.944 72.8983 46.576 72.8983 49.936ZM98.7805 58V52.368C97.6605 53.008 96.1245 53.296 94.6525 53.296C90.8125 53.296 88.5085 51.568 88.5085 47.728V42H92.2525V47.152C92.2525 49.072 93.3405 49.968 95.3245 49.968C96.6045 49.968 97.8205 49.712 98.7805 49.232V42H102.525V58H98.7805ZM107.053 58V42L110.797 42V48.24L113.389 48.24L117.869 42H122.029L116.429 49.552L122.925 58H118.381L113.357 51.376L110.797 51.376V58H107.053ZM125.679 58V42H129.391V52.848L137.071 42L140.623 42V58H136.911V47.024L129.231 58H125.679ZM153.491 58V42H157.235V48.24H159.827L164.307 42H168.467L162.867 49.552L169.363 58H164.819L159.795 51.376H157.235V58H153.491ZM182.921 58V45.296H177.737L177.641 47.312C177.225 57.296 174.793 58.192 172.297 58.192C171.689 58.192 171.049 58.128 170.729 58.032V54.16C171.017 54.256 171.305 54.288 171.561 54.288C172.937 54.288 174.057 53.84 174.281 45.488L174.409 42H186.633V58H182.921ZM191.242 58V42H194.954V52.848L202.634 42H206.186V58H202.474V47.024L194.794 58L191.242 58ZM223.957 56.4C223.189 57.296 220.981 58.352 218.069 58.32C212.789 58.352 209.653 55.44 209.653 49.936C209.653 44.624 212.981 41.648 217.813 41.648C222.453 41.68 225.237 44.528 225.237 49.552V51.088L213.365 51.088C213.653 53.744 215.285 55.088 218.197 55.088C221.141 55.088 223.093 53.968 223.957 52.56V56.4ZM217.717 44.912C215.317 44.912 213.813 46.128 213.429 48.432L221.493 48.432C221.397 46.256 219.989 44.912 217.717 44.912ZM239.654 58V51.536H232.422V58H228.678V42H232.422V48.24H239.654V42H243.398V58H239.654ZM251.576 58V45.296H246.456V42H260.472V45.296H255.288V58H251.576ZM263.656 47.792V43.12C264.712 42.32 266.632 41.68 269.384 41.68C274.056 41.68 276.36 43.28 276.36 47.44V58L272.84 58V55.12C272.072 56.976 270.12 58.256 267.56 58.256C264.328 58.256 262.408 56.432 262.408 53.296C262.408 49.648 265.064 48.624 269 48.624H272.616V47.92C272.616 45.648 271.528 44.944 269.384 44.944C266.44 44.944 264.744 46.096 263.656 47.792ZM268.744 54.896C271.272 54.896 272.456 53.456 272.616 52.368V51.056H269.448C267.24 51.056 266.184 51.472 266.184 52.912C266.184 54.128 267.08 54.896 268.744 54.896ZM280.006 46.512V42.352L287.11 50L280.006 57.648V53.456L283.11 50L280.006 46.512ZM286.342 46.512V42.352L293.446 50L286.342 57.648V53.456L289.414 50L286.342 46.512ZM302.947 35.6V50.64H298.947V35.6H302.947ZM298.435 55.856C298.435 54.48 299.011 53.392 300.931 53.392C302.883 53.392 303.459 54.48 303.459 55.856C303.459 57.2 302.883 58.32 300.931 58.32C299.011 58.32 298.435 57.2 298.435 55.856Z" fill="url(#paint0_linear_433_702)"/>
<defs>
<linearGradient id="paint0_linear_433_702" x1="7.0787" y1="58.5894" x2="383.577" y2="58.5894" gradientUnits="userSpaceOnUse">
<stop stop-color="#DB32E1"/>
<stop offset="0.510417" stop-color="#7A4FDC"/>
<stop offset="1" stop-color="#3D51C2"/>
</linearGradient>
</defs>
</svg>
