<svg width="655" height="75" viewBox="0 0 655 75" fill="none" xmlns="http://www.w3.org/2000/svg">
<path d="M12.096 27H2.912L2.912 4.6L12.64 4.6C17.632 4.6 20.192 6.456 20.192 10.168C20.192 12.728 19.168 14.424 16.864 15.32C19.616 15.8 20.864 17.56 20.864 20.472C20.864 25.112 17.536 27 12.096 27ZM6.912 23.32L12.352 23.32C15.424 23.32 16.832 22.328 16.832 20.184C16.832 18.04 15.232 17.208 12.416 17.208L6.912 17.208L6.912 23.32ZM6.912 14.072H12.064C14.592 14.072 16.192 12.952 16.192 11.032C16.192 9.24 15.008 8.28 12.16 8.28H6.912L6.912 14.072ZM37.508 25.4C36.804 26.296 34.788 27.352 32.196 27.352C27.076 27.352 23.684 24.536 23.684 18.936C23.684 13.432 27.14 10.68 32.228 10.648C34.372 10.68 36.292 11.32 37.348 12.12V16.792C36.26 15.096 34.564 13.944 32.228 13.912C29.156 13.912 27.492 15.544 27.492 18.776V19.256C27.492 22.552 29.284 24.088 32.292 24.088C34.948 24.088 36.708 22.968 37.508 21.56V25.4ZM53.738 25.4C52.97 26.296 50.762 27.352 47.85 27.32C42.57 27.352 39.434 24.44 39.434 18.936C39.434 13.624 42.762 10.648 47.594 10.648C52.234 10.68 55.018 13.528 55.018 18.552L55.018 20.088H43.146C43.434 22.744 45.066 24.088 47.978 24.088C50.922 24.088 52.874 22.968 53.738 21.56V25.4ZM47.498 13.912C45.098 13.912 43.594 15.128 43.21 17.432H51.274C51.178 15.256 49.77 13.912 47.498 13.912ZM66.772 27V11L74.836 11C78.644 11 80.148 12.312 80.148 14.712C80.148 16.632 79.124 17.944 77.396 18.36C79.444 18.616 80.948 19.544 80.948 22.264C80.948 25.336 78.932 27 74.74 27H66.772ZM70.516 23.896H74.388C76.372 23.896 77.236 23.288 77.236 22.008C77.236 20.6 76.34 20.152 74.612 20.152H70.516V23.896ZM70.516 17.464H73.94C75.412 17.464 76.404 16.984 76.404 15.64C76.404 14.456 75.572 14.104 73.972 14.104L70.516 14.136V17.464ZM84.7498 16.792V12.12C85.8058 11.32 87.7258 10.68 90.4778 10.68C95.1498 10.68 97.4538 12.28 97.4538 16.44V27H93.9338V24.12C93.1658 25.976 91.2138 27.256 88.6538 27.256C85.4218 27.256 83.5018 25.432 83.5018 22.296C83.5018 18.648 86.1578 17.624 90.0938 17.624H93.7098V16.92C93.7098 14.648 92.6218 13.944 90.4778 13.944C87.5338 13.944 85.8378 15.096 84.7498 16.792ZM89.8378 23.896C92.3658 23.896 93.5498 22.456 93.7098 21.368V20.056H90.5417C88.3338 20.056 87.2778 20.472 87.2778 21.912C87.2778 23.128 88.1738 23.896 89.8378 23.896ZM110.028 27V20.376L107.852 20.376L104.204 27H100.012L104.748 18.712L100.46 11L104.62 11L107.82 17.24L110.028 17.24V11H113.74V17.24H115.884L119.276 11H123.244L119.02 18.584L123.756 27H119.5L115.948 20.376H113.74V27H110.028ZM137.529 27V20.536L130.297 20.536V27H126.553V11L130.297 11V17.24L137.529 17.24V11L141.273 11V27H137.529ZM152.939 27.352C147.947 27.352 144.715 24.536 144.715 18.936C144.715 13.4 148.075 10.648 153.067 10.648C158.027 10.68 161.259 13.496 161.259 19.064C161.259 24.6 157.899 27.32 152.939 27.352ZM148.523 18.936V19.032C148.523 22.552 150.187 24.088 153.003 24.088C155.851 24.088 157.451 22.456 157.451 19.064V18.968C157.451 15.448 155.755 13.912 152.939 13.912C150.091 13.944 148.523 15.576 148.523 18.936ZM177.926 25.4C177.158 26.296 174.95 27.352 172.038 27.32C166.758 27.352 163.622 24.44 163.622 18.936C163.622 13.624 166.95 10.648 171.782 10.648C176.422 10.68 179.206 13.528 179.206 18.552V20.088H167.334C167.622 22.744 169.254 24.088 172.166 24.088C175.11 24.088 177.062 22.968 177.926 21.56V25.4ZM171.686 13.912C169.286 13.912 167.782 15.128 167.398 17.432H175.462C175.366 15.256 173.958 13.912 171.686 13.912ZM198.095 27.352C193.104 27.352 189.872 24.536 189.872 18.936C189.872 13.4 193.232 10.648 198.224 10.648C203.184 10.68 206.416 13.496 206.416 19.064C206.416 24.6 203.056 27.32 198.095 27.352ZM193.68 18.936V19.032C193.68 22.552 195.344 24.088 198.16 24.088C201.008 24.088 202.608 22.456 202.608 19.064V18.968C202.608 15.448 200.912 13.912 198.095 13.912C195.248 13.944 193.68 15.576 193.68 18.936ZM230.466 22.488V26.648L223.362 19L230.466 11.352V15.544L227.394 19L230.466 22.488ZM224.162 22.488V26.648L217.058 19L224.162 11.352V15.544L221.058 19L224.162 22.488ZM234.335 27V11H238.079V17.24H240.671L245.151 11H249.311L243.711 18.552L250.207 27H245.663L240.639 20.376H238.079V27H234.335ZM257.635 27.064L250.883 11H255.075L259.459 21.976L263.043 11H267.01L260.611 28.696C259.203 32.536 257.763 33.4 255.651 33.4C254.659 33.4 253.571 33.112 253.091 32.696V29.208C253.571 29.688 254.307 30.008 255.011 30.008C256.163 30.008 257.027 29.24 257.635 27.064ZM267.508 27L272.948 18.808L267.892 11H272.276L275.7 16.408L279.124 11H283.347L278.228 18.584L283.732 27L279.348 27L275.54 20.952L271.732 27H267.508ZM297.342 27V20.536H290.11V27H286.366V11L290.11 11V17.24H297.342V11L301.086 11V27H297.342ZM318.832 25.4C318.064 26.296 315.856 27.352 312.944 27.32C307.664 27.352 304.528 24.44 304.528 18.936C304.528 13.624 307.856 10.648 312.688 10.648C317.328 10.68 320.112 13.528 320.112 18.552V20.088H308.24C308.528 22.744 310.16 24.088 313.072 24.088C316.016 24.088 317.968 22.968 318.832 21.56V25.4ZM312.592 13.912C310.192 13.912 308.688 15.128 308.304 17.432H316.368C316.272 15.256 314.864 13.912 312.592 13.912ZM322.881 15.512V11.352L329.985 19L322.881 26.648V22.456L325.985 19L322.881 15.512ZM329.217 15.512V11.352L336.321 19L329.217 26.648V22.456L332.289 19L329.217 15.512ZM348.022 27V11L351.766 11V23.608L356.694 23.608V11L360.406 11V23.608H365.334V11H369.078V27L348.022 27ZM377.264 27V14.296L372.144 14.296V11L386.16 11V14.296L380.976 14.296V27L377.264 27ZM389.344 16.792V12.12C390.4 11.32 392.32 10.68 395.072 10.68C399.744 10.68 402.048 12.28 402.048 16.44V27H398.528V24.12C397.76 25.976 395.808 27.256 393.248 27.256C390.016 27.256 388.096 25.432 388.096 22.296C388.096 18.648 390.752 17.624 394.688 17.624H398.304V16.92C398.304 14.648 397.216 13.944 395.072 13.944C392.128 13.944 390.432 15.096 389.344 16.792ZM394.432 23.896C396.96 23.896 398.144 22.456 398.304 21.368V20.056H395.135C392.928 20.056 391.872 20.472 391.872 21.912C391.872 23.128 392.768 23.896 394.432 23.896ZM420.478 2.2V6.04C419.838 6.392 418.014 6.68 415.39 6.904C410.27 7.384 409.118 9.4 408.702 13.976C409.95 12.184 411.902 11 414.782 11C418.718 11 421.982 12.984 421.982 18.776C421.982 24.44 418.974 27.32 413.918 27.32C408.478 27.32 405.438 24.088 405.438 16.696C405.438 7.864 407.87 4.312 413.374 3.416C415.838 3 419.166 2.872 420.478 2.2ZM409.278 18.808C409.278 21.784 410.75 23.928 413.662 23.928C416.19 23.928 418.078 22.584 418.078 19.096C418.078 15.768 416.51 14.328 413.822 14.328C411.006 14.328 409.278 15.832 409.278 18.808ZM425.781 16.792V12.12C426.837 11.32 428.757 10.68 431.509 10.68C436.181 10.68 438.485 12.28 438.485 16.44V27H434.965V24.12C434.197 25.976 432.245 27.256 429.685 27.256C426.453 27.256 424.533 25.432 424.533 22.296C424.533 18.648 427.189 17.624 431.125 17.624H434.741V16.92C434.741 14.648 433.653 13.944 431.509 13.944C428.565 13.944 426.869 15.096 425.781 16.792ZM430.869 23.896C433.397 23.896 434.581 22.456 434.741 21.368V20.056H431.573C429.365 20.056 428.309 20.472 428.309 21.912C428.309 23.128 429.205 23.896 430.869 23.896ZM452.396 19.32V15.928L467.916 15.928V19.32H452.396Z" fill="white"/>
<path d="M14.248 64L14.248 57.536H7.016L7.016 64H3.272L3.272 48H7.016L7.016 54.24H14.248L14.248 48H17.992V64H14.248ZM22.906 53.792V49.12C23.962 48.32 25.882 47.68 28.634 47.68C33.306 47.68 35.61 49.28 35.61 53.44L35.61 64H32.09V61.12C31.322 62.976 29.37 64.256 26.81 64.256C23.578 64.256 21.658 62.432 21.658 59.296C21.658 55.648 24.314 54.624 28.25 54.624H31.866V53.92C31.866 51.648 30.778 50.944 28.634 50.944C25.69 50.944 23.994 52.096 22.906 53.792ZM27.994 60.896C30.522 60.896 31.706 59.456 31.866 58.368V57.056H28.698C26.49 57.056 25.434 57.472 25.434 58.912C25.434 60.128 26.33 60.896 27.994 60.896ZM67.3768 56.608V61.536C66.2568 62.88 63.3128 64.352 59.4408 64.352C52.1448 64.32 47.2808 60 47.2808 52.768C47.2808 46.016 52.0808 41.248 59.5048 41.248C63.0248 41.248 65.6168 42.336 66.9288 43.264V48.832C65.5848 46.848 62.8647 44.928 59.5048 44.928C54.6088 44.928 51.6008 48.096 51.6008 52.8C51.6008 57.152 54.2568 60.576 59.4088 60.672C63.3128 60.672 66.0648 58.88 67.3768 56.608ZM77.658 64.352C72.666 64.352 69.434 61.536 69.434 55.936C69.434 50.4 72.794 47.648 77.786 47.648C82.746 47.68 85.978 50.496 85.978 56.064C85.978 61.6 82.618 64.32 77.658 64.352ZM73.242 55.936V56.032C73.242 59.552 74.906 61.088 77.722 61.088C80.57 61.088 82.17 59.456 82.17 56.064V55.968C82.17 52.448 80.474 50.912 77.658 50.912C74.81 50.944 73.242 52.576 73.242 55.936ZM100.5 64V54.304C100.5 52.032 99.5723 51.008 97.3643 50.976H97.2683C94.4843 50.976 93.1723 52.32 93.1723 55.104V64H89.4283V47.968H92.9483V51.232C93.6203 49.28 95.7003 47.68 98.7403 47.68C102.196 47.712 104.244 49.568 104.244 53.312V64H100.5ZM107.113 48H109.513V46.048C109.545 41.6 112.041 39.84 115.369 39.84C116.873 39.84 117.961 40.288 118.633 40.672V44.704C118.057 43.808 117.097 43.232 115.753 43.232C114.377 43.232 113.257 43.904 113.257 46.048V48H118.089V51.296H113.257V64H109.513V51.296H107.113V48ZM128.137 60.512V63.744C127.625 64.032 126.217 64.32 124.873 64.32C121.993 64.32 120.201 63.136 120.201 60.16V40H123.945V58.976C123.945 60.544 124.457 60.928 125.801 60.928C126.761 60.928 127.625 60.704 128.137 60.512ZM134.417 48V57.664C134.417 59.968 135.345 60.992 137.553 61.024C140.273 61.024 141.585 59.648 141.553 56.896V48H145.297V64H141.777V60.736C141.137 62.688 139.121 64.288 136.145 64.288H136.081C132.689 64.224 130.705 62.432 130.705 58.688V48L134.417 48ZM163.051 62.4C162.283 63.296 160.075 64.352 157.163 64.32C151.883 64.352 148.747 61.44 148.747 55.936C148.747 50.624 152.075 47.648 156.907 47.648C161.547 47.68 164.331 50.528 164.331 55.552V57.088L152.459 57.088C152.747 59.744 154.379 61.088 157.291 61.088C160.235 61.088 162.187 59.968 163.051 58.56V62.4ZM156.811 50.912C154.411 50.912 152.907 52.128 152.523 54.432H160.587C160.491 52.256 159.083 50.912 156.811 50.912ZM178.844 64V54.304C178.844 52.032 177.916 51.008 175.708 50.976H175.612C172.828 50.976 171.516 52.32 171.516 55.104V64H167.772V47.968L171.292 47.968V51.232C171.964 49.28 174.044 47.68 177.084 47.68C180.54 47.712 182.588 49.568 182.588 53.312V64H178.844ZM199.633 62.4C198.929 63.296 196.913 64.352 194.321 64.352C189.201 64.352 185.809 61.536 185.809 55.936C185.809 50.432 189.265 47.68 194.353 47.648C196.497 47.68 198.417 48.32 199.473 49.12V53.792C198.385 52.096 196.689 50.944 194.353 50.912C191.281 50.912 189.617 52.544 189.617 55.776V56.256C189.617 59.552 191.409 61.088 194.417 61.088C197.073 61.088 198.833 59.968 199.633 58.56V62.4ZM215.863 62.4C215.095 63.296 212.887 64.352 209.975 64.32C204.695 64.352 201.559 61.44 201.559 55.936C201.559 50.624 204.887 47.648 209.719 47.648C214.359 47.68 217.143 50.528 217.143 55.552V57.088H205.271C205.559 59.744 207.191 61.088 210.103 61.088C213.047 61.088 214.999 59.968 215.863 58.56V62.4ZM209.623 50.912C207.223 50.912 205.719 52.128 205.335 54.432H213.399C213.303 52.256 211.895 50.912 209.623 50.912ZM226.697 41.6V56.64H222.697V41.6L226.697 41.6ZM222.185 61.856C222.185 60.48 222.761 59.392 224.681 59.392C226.633 59.392 227.209 60.48 227.209 61.856C227.209 63.2 226.633 64.32 224.681 64.32C222.761 64.32 222.185 63.2 222.185 61.856Z" fill="url(#paint0_linear_4895_5899)"/>
<defs>
<linearGradient id="paint0_linear_4895_5899" x1="10.796" y1="66.9542" x2="531.818" y2="66.9542" gradientUnits="userSpaceOnUse">
<stop stop-color="#DB32E1"/>
<stop offset="0.510417" stop-color="#7A4FDC"/>
<stop offset="1" stop-color="#3D51C2"/>
</linearGradient>
</defs>
</svg>
