<svg width="656" height="72" viewBox="0 0 656 72" fill="none" xmlns="http://www.w3.org/2000/svg">
<path d="M11.34 26H2.73L2.73 5L11.85 5C16.53 5 18.93 6.74 18.93 10.22C18.93 12.62 17.97 14.21 15.81 15.05C18.39 15.5 19.56 17.15 19.56 19.88C19.56 24.23 16.44 26 11.34 26ZM6.48 22.55H11.58C14.46 22.55 15.78 21.62 15.78 19.61C15.78 17.6 14.28 16.82 11.64 16.82H6.48L6.48 22.55ZM6.48 13.88H11.31C13.68 13.88 15.18 12.83 15.18 11.03C15.18 9.35 14.07 8.45 11.4 8.45H6.48L6.48 13.88ZM23.2238 26V11H26.7338V15.44H29.3138C33.3938 15.44 35.6438 16.61 35.6438 20.54C35.6138 24.35 33.5738 26 28.9238 26H23.2238ZM37.3538 26L37.3538 11H40.8638L40.8638 26H37.3538ZM28.8037 22.91C31.1738 22.91 32.1038 22.31 32.1338 20.54C32.1038 18.95 31.3538 18.53 29.0438 18.53H26.7338V22.91H28.8037ZM58.3678 2.75V6.35C57.7678 6.68 56.0578 6.95 53.5978 7.16C48.7978 7.61 47.7178 9.5 47.3278 13.79C48.4978 12.11 50.3278 11 53.0278 11C56.7178 11 59.7778 12.86 59.7778 18.29C59.7778 23.6 56.9578 26.3 52.2178 26.3C47.1178 26.3 44.2678 23.27 44.2678 16.34C44.2678 8.06 46.5478 4.73 51.7078 3.89C54.0178 3.5 57.1378 3.38 58.3678 2.75ZM47.8678 18.32C47.8678 21.11 49.2478 23.12 51.9778 23.12C54.3478 23.12 56.1178 21.86 56.1178 18.59C56.1178 15.47 54.6478 14.12 52.1278 14.12C49.4878 14.12 47.8678 15.53 47.8678 18.32ZM69.6696 26.33C64.9896 26.33 61.9596 23.69 61.9596 18.44C61.9596 13.25 65.1096 10.67 69.7896 10.67C74.4396 10.7 77.4696 13.34 77.4696 18.56C77.4696 23.75 74.3196 26.3 69.6696 26.33ZM65.5296 18.44V18.53C65.5296 21.83 67.0896 23.27 69.7296 23.27C72.3996 23.27 73.8996 21.74 73.8996 18.56V18.47C73.8996 15.17 72.3096 13.73 69.6696 13.73C66.9996 13.76 65.5296 15.29 65.5296 18.44ZM80.7042 31.79V11H84.0042V14.12C84.5442 12.44 86.1342 10.7 89.3142 10.7C93.1242 10.7 95.7942 12.92 95.7942 18.17C95.7942 24.08 93.1242 26.33 89.0142 26.33C86.6142 26.33 84.9642 25.13 84.2142 23.72V31.79H80.7042ZM84.2142 17.87V19.01C84.2142 21.71 85.7742 23.24 88.2342 23.24C91.0542 23.24 92.2842 21.86 92.2842 18.32C92.2842 15.02 90.6942 13.82 88.2942 13.82C85.5342 13.82 84.2742 15.35 84.2142 17.87ZM98.9855 26V11H102.495V15.44L105.075 15.44C109.155 15.44 111.405 16.61 111.405 20.54C111.375 24.35 109.335 26 104.685 26H98.9855ZM113.115 26V11L116.625 11V26H113.115ZM104.565 22.91C106.935 22.91 107.865 22.31 107.895 20.54C107.865 18.95 107.115 18.53 104.805 18.53H102.495V22.91H104.565Z" fill="white"/>
<path d="M141.305 27V14.296L134.329 14.296V27L130.585 27V11L145.049 11V27H141.305ZM156.72 27.352C151.729 27.352 148.497 24.536 148.497 18.936C148.497 13.4 151.857 10.648 156.849 10.648C161.809 10.68 165.041 13.496 165.041 19.064C165.041 24.6 161.681 27.32 156.72 27.352ZM152.305 18.936V19.032C152.305 22.552 153.969 24.088 156.785 24.088C159.633 24.088 161.233 22.456 161.233 19.064V18.968C161.233 15.448 159.537 13.912 156.72 13.912C153.873 13.944 152.305 15.576 152.305 18.936ZM166.386 23.608H168.242C169.138 21.304 169.682 18.136 169.682 12.824V11L181.97 11V23.608H184.402V31.16L181.01 31.16V27H169.778V31.16H166.386V23.608ZM173.17 14.68C173.074 18.36 172.754 21.112 171.858 23.608H178.226V14.296L173.17 14.296V14.68ZM195.616 27V11H199.36V17.24H201.952L206.432 11H210.592L204.992 18.552L211.488 27H206.944L201.92 20.376H199.36V27H195.616ZM220.72 27.352C215.729 27.352 212.497 24.536 212.497 18.936C212.497 13.4 215.857 10.648 220.849 10.648C225.809 10.68 229.041 13.496 229.041 19.064C229.041 24.6 225.681 27.32 220.72 27.352ZM216.305 18.936V19.032C216.305 22.552 217.969 24.088 220.785 24.088C223.633 24.088 225.233 22.456 225.233 19.064V18.968C225.233 15.448 223.537 13.912 220.72 13.912C217.873 13.944 216.305 15.576 216.305 18.936ZM243.467 27V20.536H236.235V27H232.491V11H236.235V17.24H243.467V11H247.211V27H243.467ZM255.389 27V14.296H250.269V11L264.285 11V14.296L259.101 14.296V27L255.389 27ZM267.366 33.176V11H270.886V14.328C271.462 12.536 273.158 10.68 276.55 10.68C280.614 10.68 283.462 13.048 283.462 18.648C283.462 24.952 280.614 27.352 276.23 27.352C273.67 27.352 271.91 26.072 271.11 24.568V33.176H267.366ZM271.11 18.328V19.544C271.11 22.424 272.774 24.056 275.398 24.056C278.406 24.056 279.718 22.584 279.718 18.808C279.718 15.288 278.022 14.008 275.462 14.008C272.518 14.008 271.174 15.64 271.11 18.328ZM294.002 27.352C289.01 27.352 285.778 24.536 285.778 18.936C285.778 13.4 289.138 10.648 294.13 10.648C299.09 10.68 302.322 13.496 302.322 19.064C302.322 24.6 298.962 27.32 294.002 27.352ZM289.586 18.936V19.032C289.586 22.552 291.25 24.088 294.066 24.088C296.914 24.088 298.514 22.456 298.514 19.064V18.968C298.514 15.448 296.818 13.912 294.002 13.912C291.154 13.944 289.586 15.576 289.586 18.936ZM316.046 27V14.296L310.862 14.296L310.766 16.312C310.35 26.296 307.918 27.192 305.422 27.192C304.814 27.192 304.174 27.128 303.854 27.032V23.16C304.142 23.256 304.43 23.288 304.686 23.288C306.062 23.288 307.182 22.84 307.406 14.488L307.534 11L319.758 11V27H316.046ZM337.551 25.4C336.783 26.296 334.575 27.352 331.663 27.32C326.383 27.352 323.247 24.44 323.247 18.936C323.247 13.624 326.575 10.648 331.407 10.648C336.047 10.68 338.831 13.528 338.831 18.552V20.088L326.959 20.088C327.247 22.744 328.879 24.088 331.791 24.088C334.735 24.088 336.687 22.968 337.551 21.56V25.4ZM331.311 13.912C328.911 13.912 327.407 15.128 327.023 17.432L335.087 17.432C334.991 15.256 333.583 13.912 331.311 13.912ZM356.448 27V16.248L351.84 23.032H350.656L346.016 16.216V27H342.272V11H346.144L351.36 18.488L356.416 11H360.192V27H356.448Z" fill="url(#paint0_linear_433_670)"/>
<defs>
<linearGradient id="paint0_linear_433_670" x1="129.277" y1="56.7553" x2="622.683" y2="56.7553" gradientUnits="userSpaceOnUse">
<stop stop-color="#DB32E1"/>
<stop offset="0.510417" stop-color="#7A4FDC"/>
<stop offset="1" stop-color="#3D51C2"/>
</linearGradient>
</defs>
</svg>
