<svg width="523" height="68" viewBox="0 0 523 68" fill="none" xmlns="http://www.w3.org/2000/svg">
<path d="M2.73 26L2.73 5L17.64 5V8.45H6.48V12.2H10.59C16.35 12.2 19.29 14.36 19.29 18.98C19.29 23.6 15.87 26 10.5 26H2.73ZM10.47 15.65H6.48L6.48 22.55H10.47C13.47 22.55 15.39 21.68 15.39 18.89C15.39 16.37 13.71 15.65 10.47 15.65ZM23.1736 16.43V12.05C24.1636 11.3 25.9636 10.7 28.5436 10.7C32.9236 10.7 35.0836 12.2 35.0836 16.1L35.0836 26H31.7836V23.3C31.0636 25.04 29.2336 26.24 26.8336 26.24C23.8036 26.24 22.0036 24.53 22.0036 21.59C22.0036 18.17 24.4936 17.21 28.1836 17.21H31.5736V16.55C31.5736 14.42 30.5536 13.76 28.5436 13.76C25.7836 13.76 24.1936 14.84 23.1736 16.43ZM27.9436 23.09C30.3136 23.09 31.4236 21.74 31.5736 20.72V19.49H28.6036C26.5336 19.49 25.5436 19.88 25.5436 21.23C25.5436 22.37 26.3836 23.09 27.9436 23.09ZM38.382 24.47V20.87C39.252 22.19 41.232 23.24 44.052 23.24C46.032 23.24 47.292 22.64 47.292 21.38C47.292 20.21 46.422 19.73 44.382 19.73H41.802V17.18H43.932C45.552 17.18 46.632 16.67 46.632 15.41C46.632 14.39 45.972 13.79 44.142 13.76C41.622 13.76 39.822 14.84 38.652 16.43V12.05C39.792 11.3 41.832 10.7 44.142 10.7H44.262C48.432 10.7 50.202 12.23 50.202 14.6C50.202 16.49 49.212 17.45 47.712 18.08C49.722 18.47 50.832 19.49 50.832 21.5C50.832 24.65 48.102 26.3 44.052 26.3C41.412 26.3 39.132 25.31 38.382 24.47ZM60.7634 26.33C56.0834 26.33 53.0534 23.69 53.0534 18.44C53.0534 13.25 56.2034 10.67 60.8834 10.67C65.5334 10.7 68.5634 13.34 68.5634 18.56C68.5634 23.75 65.4134 26.3 60.7634 26.33ZM56.6234 18.44V18.53C56.6234 21.83 58.1834 23.27 60.8234 23.27C63.4934 23.27 64.9934 21.74 64.9934 18.56V18.47C64.9934 15.17 63.4034 13.73 60.7634 13.73C58.0934 13.76 56.6234 15.29 56.6234 18.44ZM71.798 26V11H79.358C82.928 11 84.338 12.23 84.338 14.48C84.338 16.28 83.378 17.51 81.758 17.9C83.678 18.14 85.088 19.01 85.088 21.56C85.088 24.44 83.198 26 79.268 26H71.798ZM75.308 23.09H78.938C80.798 23.09 81.608 22.52 81.608 21.32C81.608 20 80.768 19.58 79.148 19.58H75.308V23.09ZM75.308 17.06H78.518C79.898 17.06 80.828 16.61 80.828 15.35C80.828 14.24 80.048 13.91 78.548 13.91L75.308 13.94V17.06ZM88.2921 26V11L91.8021 11V15.44H94.3821C98.4621 15.44 100.712 16.61 100.712 20.54C100.682 24.35 98.6421 26 93.9921 26H88.2921ZM102.422 26V11L105.932 11V26H102.422ZM93.8721 22.91C96.2421 22.91 97.1721 22.31 97.2021 20.54C97.1721 18.95 96.4221 18.53 94.1121 18.53H91.8021V22.91H93.8721ZM110.236 26V11H113.716V21.17L120.916 11H124.246V26H120.766V15.71L113.566 26H110.236ZM119.236 3.53L122.476 3.53C122.476 6.92 119.956 8.18 117.376 8.18C114.406 8.18 111.976 6.92 111.976 3.53L115.216 3.53C115.216 4.79 115.846 5.57 117.316 5.57C118.516 5.57 119.236 5.03 119.236 3.53ZM143.27 3.5L146.78 3.5V11H147.35C151.64 11 154.76 13.04 154.76 18.5C154.76 23.63 151.7 26 147.44 26H146.78V31.79H143.27V26H142.7C138.41 26 135.29 23.96 135.29 18.5C135.29 13.37 138.35 11 142.61 11H143.27V3.5ZM138.77 18.35C138.77 21.92 140.36 22.91 142.73 22.91H143.27V14.09H142.76C140.3 14.09 138.77 15.29 138.77 18.35ZM147.32 14.09H146.78V22.91H147.26C149.72 22.91 151.25 21.71 151.25 18.65C151.25 15.08 149.66 14.09 147.32 14.09ZM162.05 26.06L155.72 11H159.65L163.76 21.29L167.12 11H170.84L164.84 27.59C163.52 31.19 162.17 32 160.19 32C159.26 32 158.24 31.73 157.79 31.34V28.07C158.24 28.52 158.93 28.82 159.59 28.82C160.67 28.82 161.48 28.1 162.05 26.06ZM183.426 26V19.94L176.646 19.94V26H173.136V11H176.646V16.85L183.426 16.85V11H186.936V26H183.426ZM191.183 26V11H194.693V16.85H197.123L201.323 11L205.223 11L199.973 18.08L206.063 26H201.803L197.093 19.79H194.693V26H191.183ZM208.614 26V11H212.124V22.82H218.484V11H221.994V22.82H224.244V29.9H221.064V26H208.614ZM227.014 26V11H230.494V21.17L237.694 11L241.024 11V26H237.544V15.71L230.344 26H227.014ZM251.984 26.33C247.304 26.33 244.274 23.69 244.274 18.44C244.274 13.25 247.424 10.67 252.104 10.67C256.754 10.7 259.784 13.34 259.784 18.56C259.784 23.75 256.634 26.3 251.984 26.33ZM247.844 18.44V18.53C247.844 21.83 249.404 23.27 252.044 23.27C254.714 23.27 256.214 21.74 256.214 18.56V18.47C256.214 15.17 254.624 13.73 251.984 13.73C249.314 13.76 247.844 15.29 247.844 18.44ZM273.309 26V19.94H266.529V26H263.019V11H266.529V16.85H273.309V11L276.819 11V26H273.309ZM281.426 16.43V12.05C282.416 11.3 284.216 10.7 286.796 10.7C291.176 10.7 293.336 12.2 293.336 16.1V26H290.036V23.3C289.316 25.04 287.486 26.24 285.086 26.24C282.056 26.24 280.256 24.53 280.256 21.59C280.256 18.17 282.746 17.21 286.436 17.21H289.826V16.55C289.826 14.42 288.806 13.76 286.796 13.76C284.036 13.76 282.446 14.84 281.426 16.43ZM286.196 23.09C288.566 23.09 289.676 21.74 289.826 20.72V19.49H286.856C284.786 19.49 283.796 19.88 283.796 21.23C283.796 22.37 284.636 23.09 286.196 23.09ZM307.104 26V14.09H302.244L302.154 15.98C301.764 25.34 299.484 26.18 297.144 26.18C296.574 26.18 295.974 26.12 295.674 26.03V22.4C295.944 22.49 296.214 22.52 296.454 22.52C297.744 22.52 298.794 22.1 299.004 14.27L299.124 11L310.584 11V26H307.104ZM335.897 2.75V6.35C335.297 6.68 333.587 6.95 331.127 7.16C326.327 7.61 325.247 9.5 324.857 13.79C326.027 12.11 327.857 11 330.557 11C334.247 11 337.307 12.86 337.307 18.29C337.307 23.6 334.487 26.3 329.747 26.3C324.647 26.3 321.797 23.27 321.797 16.34C321.797 8.06 324.077 4.73 329.237 3.89C331.547 3.5 334.667 3.38 335.897 2.75ZM325.397 18.32C325.397 21.11 326.777 23.12 329.507 23.12C331.877 23.12 333.647 21.86 333.647 18.59C333.647 15.47 332.177 14.12 329.657 14.12C327.017 14.12 325.397 15.53 325.397 18.32ZM340.869 16.43V12.05C341.859 11.3 343.659 10.7 346.239 10.7C350.619 10.7 352.779 12.2 352.779 16.1V26H349.479V23.3C348.759 25.04 346.929 26.24 344.529 26.24C341.499 26.24 339.699 24.53 339.699 21.59C339.699 18.17 342.189 17.21 345.879 17.21H349.269V16.55C349.269 14.42 348.249 13.76 346.239 13.76C343.479 13.76 341.889 14.84 340.869 16.43ZM345.639 23.09C348.009 23.09 349.119 21.74 349.269 20.72V19.49H346.299C344.229 19.49 343.239 19.88 343.239 21.23C343.239 22.37 344.079 23.09 345.639 23.09ZM367.117 26V19.94H360.337V26H356.827V11L360.337 11V16.85H367.117V11H370.627V26H367.117ZM374.874 26V11H378.384V16.85L380.814 16.85L385.014 11H388.914L383.664 18.08L389.754 26H385.494L380.784 19.79L378.384 19.79V26H374.874ZM398.41 26.33C393.73 26.33 390.7 23.69 390.7 18.44C390.7 13.25 393.85 10.67 398.53 10.67C403.18 10.7 406.21 13.34 406.21 18.56C406.21 23.75 403.06 26.3 398.41 26.33ZM394.27 18.44V18.53C394.27 21.83 395.83 23.27 398.47 23.27C401.14 23.27 402.64 21.74 402.64 18.56V18.47C402.64 15.17 401.05 13.73 398.41 13.73C395.74 13.76 394.27 15.29 394.27 18.44ZM409.444 26V11H417.004C420.574 11 421.984 12.23 421.984 14.48C421.984 16.28 421.024 17.51 419.404 17.9C421.324 18.14 422.734 19.01 422.734 21.56C422.734 24.44 420.844 26 416.914 26H409.444ZM412.954 23.09H416.584C418.444 23.09 419.254 22.52 419.254 21.32C419.254 20 418.414 19.58 416.794 19.58H412.954V23.09ZM412.954 17.06H416.164C417.544 17.06 418.474 16.61 418.474 15.35C418.474 14.24 417.694 13.91 416.194 13.91L412.954 13.94V17.06ZM437.879 24.5C437.219 25.34 435.329 26.33 432.899 26.33C428.099 26.33 424.919 23.69 424.919 18.44C424.919 13.28 428.159 10.7 432.929 10.67C434.939 10.7 436.739 11.3 437.729 12.05V16.43C436.709 14.84 435.119 13.76 432.929 13.73C430.049 13.73 428.489 15.26 428.489 18.29V18.74C428.489 21.83 430.169 23.27 432.989 23.27C435.479 23.27 437.129 22.22 437.879 20.9V24.5ZM441.085 26V11H444.595V16.85H447.025L451.225 11H455.125L449.875 18.08L455.965 26L451.705 26L446.995 19.79H444.595V26H441.085ZM464.621 26.33C459.941 26.33 456.911 23.69 456.911 18.44C456.911 13.25 460.061 10.67 464.741 10.67C469.391 10.7 472.421 13.34 472.421 18.56C472.421 23.75 469.271 26.3 464.621 26.33ZM460.481 18.44V18.53C460.481 21.83 462.041 23.27 464.681 23.27C467.351 23.27 468.851 21.74 468.851 18.56V18.47C468.851 15.17 467.261 13.73 464.621 13.73C461.951 13.76 460.481 15.29 460.481 18.44ZM475.655 26V11L486.425 11V14.09L479.165 14.09V26L475.655 26ZM496.32 26.33C491.64 26.33 488.61 23.69 488.61 18.44C488.61 13.25 491.76 10.67 496.44 10.67C501.09 10.7 504.12 13.34 504.12 18.56C504.12 23.75 500.97 26.3 496.32 26.33ZM492.18 18.44V18.53C492.18 21.83 493.74 23.27 496.38 23.27C499.05 23.27 500.55 21.74 500.55 18.56V18.47C500.55 15.17 498.96 13.73 496.32 13.73C493.65 13.76 492.18 15.29 492.18 18.44ZM8.82 59.33C4.14 59.33 1.11 56.69 1.11 51.44C1.11 46.25 4.26 43.67 8.94 43.67C13.59 43.7 16.62 46.34 16.62 51.56C16.62 56.75 13.47 59.3 8.82 59.33ZM4.68 51.44V51.53C4.68 54.83 6.24 56.27 8.88 56.27C11.55 56.27 13.05 54.74 13.05 51.56V51.47C13.05 48.17 11.46 46.73 8.82 46.73C6.15 46.76 4.68 48.29 4.68 51.44ZM19.8546 64.79L19.8546 44H23.1546V47.12C23.6946 45.44 25.2846 43.7 28.4646 43.7C32.2746 43.7 34.9446 45.92 34.9446 51.17C34.9446 57.08 32.2746 59.33 28.1646 59.33C25.7646 59.33 24.1146 58.13 23.3646 56.72V64.79H19.8546ZM23.3646 50.87V52.01C23.3646 54.71 24.9246 56.24 27.3846 56.24C30.2046 56.24 31.4346 54.86 31.4346 51.32C31.4346 48.02 29.8446 46.82 27.4446 46.82C24.6846 46.82 23.4246 48.35 23.3646 50.87ZM36.1629 55.82H37.9029C38.7429 53.66 39.2529 50.69 39.2529 45.71V44H50.7729V55.82H53.0529L53.0529 62.9H49.8729L49.8729 59H39.3429L39.3429 62.9H36.1629L36.1629 55.82ZM42.5229 47.45C42.4329 50.9 42.1329 53.48 41.2929 55.82H47.2629V47.09H42.5229V47.45ZM68.1626 57.5C67.4426 58.34 65.3726 59.33 62.6426 59.3C57.6926 59.33 54.7526 56.6 54.7526 51.44C54.7526 46.46 57.8726 43.67 62.4026 43.67C66.7526 43.7 69.3626 46.37 69.3626 51.08V52.52H58.2326C58.5026 55.01 60.0326 56.27 62.7626 56.27C65.5226 56.27 67.3526 55.22 68.1626 53.9V57.5ZM62.3126 46.73C60.0626 46.73 58.6526 47.87 58.2926 50.03H65.8526C65.7626 47.99 64.4426 46.73 62.3126 46.73ZM72.589 64.79V44L75.889 44V47.12C76.429 45.44 78.019 43.7 81.199 43.7C85.009 43.7 87.679 45.92 87.679 51.17C87.679 57.08 85.009 59.33 80.899 59.33C78.499 59.33 76.849 58.13 76.099 56.72V64.79H72.589ZM76.099 50.87V52.01C76.099 54.71 77.659 56.24 80.119 56.24C82.939 56.24 84.169 54.86 84.169 51.32C84.169 48.02 82.579 46.82 80.179 46.82C77.419 46.82 76.159 48.35 76.099 50.87ZM91.2302 49.43V45.05C92.2202 44.3 94.0202 43.7 96.6002 43.7C100.98 43.7 103.14 45.2 103.14 49.1V59H99.8402V56.3C99.1202 58.04 97.2902 59.24 94.8902 59.24C91.8602 59.24 90.0602 57.53 90.0602 54.59C90.0602 51.17 92.5502 50.21 96.2402 50.21H99.6302V49.55C99.6302 47.42 98.6102 46.76 96.6002 46.76C93.8402 46.76 92.2502 47.84 91.2302 49.43ZM96.0002 56.09C98.3702 56.09 99.4802 54.74 99.6302 53.72V52.49H96.6602C94.5902 52.49 93.6002 52.88 93.6002 54.23C93.6002 55.37 94.4402 56.09 96.0002 56.09Z" fill="white"/>
<path d="M126.248 60V53.536H119.016V60H115.272V44H119.016V50.24H126.248V44H129.992V60H126.248ZM134.906 49.792V45.12C135.962 44.32 137.882 43.68 140.634 43.68C145.306 43.68 147.61 45.28 147.61 49.44V60H144.09V57.12C143.322 58.976 141.37 60.256 138.81 60.256C135.578 60.256 133.658 58.432 133.658 55.296C133.658 51.648 136.314 50.624 140.25 50.624L143.866 50.624V49.92C143.866 47.648 142.778 46.944 140.634 46.944C137.69 46.944 135.994 48.096 134.906 49.792ZM139.994 56.896C142.522 56.896 143.706 55.456 143.866 54.368V53.056L140.698 53.056C138.49 53.056 137.434 53.472 137.434 54.912C137.434 56.128 138.33 56.896 139.994 56.896ZM160.241 60V44H163.985V56.608L170.769 56.608V44H174.513V56.608H176.913V64.16H173.521V60L160.241 60ZM193.051 58.4C192.283 59.296 190.075 60.352 187.163 60.32C181.883 60.352 178.747 57.44 178.747 51.936C178.747 46.624 182.075 43.648 186.907 43.648C191.547 43.68 194.331 46.528 194.331 51.552V53.088H182.459C182.747 55.744 184.379 57.088 187.291 57.088C190.235 57.088 192.187 55.968 193.051 54.56V58.4ZM186.811 46.912C184.411 46.912 182.907 48.128 182.523 50.432H190.587C190.491 48.256 189.083 46.912 186.811 46.912ZM207.828 60V47.296H202.644L202.548 49.312C202.132 59.296 199.7 60.192 197.204 60.192C196.596 60.192 195.956 60.128 195.636 60.032V56.16C195.924 56.256 196.212 56.288 196.468 56.288C197.844 56.288 198.964 55.84 199.188 47.488L199.316 44H211.54V60H207.828ZM229.332 58.4C228.564 59.296 226.356 60.352 223.444 60.32C218.164 60.352 215.028 57.44 215.028 51.936C215.028 46.624 218.356 43.648 223.188 43.648C227.828 43.68 230.612 46.528 230.612 51.552V53.088L218.74 53.088C219.028 55.744 220.66 57.088 223.572 57.088C226.516 57.088 228.468 55.968 229.332 54.56V58.4ZM223.092 46.912C220.692 46.912 219.188 48.128 218.804 50.432L226.868 50.432C226.772 48.256 225.364 46.912 223.092 46.912ZM241.477 36H245.221V44H245.829C250.405 44 253.733 46.176 253.733 52C253.733 57.472 250.469 60 245.925 60H245.221V66.176H241.477V60H240.869C236.293 60 232.965 57.824 232.965 52C232.965 46.528 236.229 44 240.773 44H241.477V36ZM236.677 51.84C236.677 55.648 238.373 56.704 240.901 56.704H241.477V47.296H240.933C238.309 47.296 236.677 48.576 236.677 51.84ZM245.797 47.296H245.221V56.704H245.733C248.357 56.704 249.989 55.424 249.989 52.16C249.989 48.352 248.293 47.296 245.797 47.296ZM264.314 60.352C259.322 60.352 256.09 57.536 256.09 51.936C256.09 46.4 259.45 43.648 264.442 43.648C269.402 43.68 272.634 46.496 272.634 52.064C272.634 57.6 269.274 60.32 264.314 60.352ZM259.898 51.936V52.032C259.898 55.552 261.562 57.088 264.378 57.088C267.226 57.088 268.826 55.456 268.826 52.064V51.968C268.826 48.448 267.13 46.912 264.314 46.912C261.466 46.944 259.898 48.576 259.898 51.936ZM276.117 60V44H279.829V54.848L287.509 44H291.061V60H287.349V49.024L279.669 60H276.117ZM285.717 36.032H289.173C289.173 39.648 286.485 40.992 283.733 40.992C280.565 40.992 277.973 39.648 277.973 36.032H281.429C281.429 37.376 282.101 38.208 283.669 38.208C284.949 38.208 285.717 37.632 285.717 36.032ZM314.648 60V47.296H307.672V60L303.928 60V44H318.392V60H314.648ZM333.296 60V47.296L328.112 47.296L328.016 49.312C327.6 59.296 325.168 60.192 322.672 60.192C322.064 60.192 321.424 60.128 321.104 60.032V56.16C321.392 56.256 321.68 56.288 321.936 56.288C323.312 56.288 324.432 55.84 324.656 47.488L324.784 44L337.008 44V60H333.296ZM341.969 49.792V45.12C343.025 44.32 344.945 43.68 347.697 43.68C352.369 43.68 354.673 45.28 354.673 49.44V60H351.153V57.12C350.385 58.976 348.433 60.256 345.873 60.256C342.641 60.256 340.721 58.432 340.721 55.296C340.721 51.648 343.377 50.624 347.312 50.624H350.929V49.92C350.929 47.648 349.841 46.944 347.697 46.944C344.753 46.944 343.057 48.096 341.969 49.792ZM347.057 56.896C349.585 56.896 350.769 55.456 350.929 54.368V53.056H347.76C345.553 53.056 344.497 53.472 344.497 54.912C344.497 56.128 345.393 56.896 347.057 56.896ZM362.639 60V47.296H357.519V44H371.535V47.296H366.351V60H362.639ZM382.04 36H385.784V44H386.392C390.968 44 394.296 46.176 394.296 52C394.296 57.472 391.032 60 386.488 60H385.784V66.176H382.04V60H381.432C376.856 60 373.528 57.824 373.528 52C373.528 46.528 376.792 44 381.336 44H382.04V36ZM377.24 51.84C377.24 55.648 378.936 56.704 381.464 56.704H382.04V47.296H381.496C378.872 47.296 377.24 48.576 377.24 51.84ZM386.36 47.296H385.784V56.704H386.296C388.92 56.704 390.552 55.424 390.552 52.16C390.552 48.352 388.856 47.296 386.36 47.296ZM404.877 60.352C399.885 60.352 396.653 57.536 396.653 51.936C396.653 46.4 400.013 43.648 405.005 43.648C409.965 43.68 413.197 46.496 413.197 52.064C413.197 57.6 409.837 60.32 404.877 60.352ZM400.461 51.936V52.032C400.461 55.552 402.125 57.088 404.941 57.088C407.789 57.088 409.389 55.456 409.389 52.064V51.968C409.389 48.448 407.693 46.912 404.877 46.912C402.029 46.944 400.461 48.576 400.461 51.936ZM416.647 66.176V44H420.167V47.328C420.743 45.536 422.439 43.68 425.831 43.68C429.895 43.68 432.743 46.048 432.743 51.648C432.743 57.952 429.895 60.352 425.511 60.352C422.951 60.352 421.191 59.072 420.391 57.568V66.176H416.647ZM420.391 51.328V52.544C420.391 55.424 422.055 57.056 424.679 57.056C427.687 57.056 428.999 55.584 428.999 51.808C428.999 48.288 427.303 47.008 424.743 47.008C421.799 47.008 420.455 48.64 420.391 51.328ZM450.323 60V49.248L445.715 56.032H444.531L439.891 49.216V60H436.147V44H440.019L445.235 51.488L450.291 44H454.067V60H450.323ZM471.832 58.4C471.064 59.296 468.856 60.352 465.944 60.32C460.664 60.352 457.528 57.44 457.528 51.936C457.528 46.624 460.856 43.648 465.688 43.648C470.328 43.68 473.112 46.528 473.112 51.552V53.088L461.24 53.088C461.528 55.744 463.16 57.088 466.072 57.088C469.016 57.088 470.968 55.968 471.832 54.56V58.4ZM465.592 46.912C463.192 46.912 461.688 48.128 461.304 50.432H469.368C469.272 48.256 467.864 46.912 465.592 46.912Z" fill="url(#paint0_linear_4895_5942)"/>
<defs>
<linearGradient id="paint0_linear_4895_5942" x1="120.079" y1="60.5894" x2="496.577" y2="60.5894" gradientUnits="userSpaceOnUse">
<stop stop-color="#DB32E1"/>
<stop offset="0.510417" stop-color="#7A4FDC"/>
<stop offset="1" stop-color="#3D51C2"/>
</linearGradient>
</defs>
</svg>
