<svg width="522" height="84" viewBox="0 0 522 84" fill="none" xmlns="http://www.w3.org/2000/svg">
<path d="M3.458 6.4L12.616 6.4C22.458 6.4 27.246 10.998 27.246 19.168C27.246 28.896 21.166 33 12.502 33H3.458L3.458 6.4ZM8.208 28.63L12.502 28.63C19.076 28.63 22.268 25.4 22.268 19.624C22.268 13.696 19.266 10.77 12.54 10.77H8.208L8.208 28.63ZM49.2409 17.116L49.2409 21.486H37.0049V28.63H51.0649V33H32.2549L32.2549 6.4L50.6469 6.4V10.77L37.0049 10.77V17.116H49.2409ZM81.144 33V13.012L72.594 27.148H70.2L61.46 13.202L61.46 33H56.71L56.71 6.4L62.714 6.4L71.53 20.878L80.27 6.4L85.894 6.4V33H81.144ZM90.9174 19.662C90.9174 11.644 96.5034 5.982 105.167 5.982C113.717 6.02 119.417 11.15 119.417 19.738C119.417 27.756 113.831 33.418 105.167 33.418C96.6174 33.418 90.9174 28.288 90.9174 19.662ZM95.9334 19.7C95.9334 24.906 99.1254 29.01 105.205 29.048C110.867 29.048 114.401 25.286 114.401 19.7C114.401 14.494 111.209 10.39 105.129 10.352C99.4294 10.39 95.9334 14.152 95.9334 19.7ZM134.269 6.4L143.427 6.4C153.269 6.4 158.057 10.998 158.057 19.168C158.057 28.896 151.977 33 143.313 33H134.269V6.4ZM139.019 28.63H143.313C149.887 28.63 153.079 25.4 153.079 19.624C153.079 13.696 150.077 10.77 143.351 10.77L139.019 10.77V28.63ZM175.468 6.4L186.412 33H181.358L178.812 26.692H166.614L164.106 33H159.28L170.072 6.4L175.468 6.4ZM168.324 22.322H177.064L172.694 11.416L168.324 22.322ZM208.625 6.4L198.479 23.196V33H193.729V22.93L183.659 6.4L189.207 6.4L196.351 18.37L203.229 6.4L208.625 6.4Z" fill="white"/>
<path d="M9.208 63.486L9.208 75H4.458L4.458 48.4H9.208L9.208 59.572H13.198L21.748 48.4H27.524L17.378 61.054L29.158 75H23.078L13.426 63.486H9.208ZM45.4006 75L45.4006 59.914H39.2446L39.1306 62.308C38.6366 74.164 35.7486 75.228 32.7846 75.228C32.0626 75.228 31.3026 75.152 30.9226 75.038L30.9226 70.44C31.2646 70.554 31.6066 70.592 31.9106 70.592C33.5446 70.592 34.8746 70.06 35.1406 60.142L35.2926 56H49.8086L49.8086 75H45.4006ZM55.2809 75L55.2809 56H59.6889L59.6889 68.882L68.8089 56L73.0269 56V75H68.6189V61.966L59.4989 75H55.2809ZM94.1303 73.1C93.2183 74.164 90.5963 75.418 87.1383 75.38C80.8683 75.418 77.1443 71.96 77.1443 65.424C77.1443 59.116 81.0963 55.582 86.8343 55.582C92.3443 55.62 95.6503 59.002 95.6503 64.968V66.792H81.5523C81.8943 69.946 83.8323 71.542 87.2903 71.542C90.7863 71.542 93.1043 70.212 94.1303 68.54V73.1ZM86.7203 59.458C83.8703 59.458 82.0843 60.902 81.6283 63.638H91.2043C91.0903 61.054 89.4183 59.458 86.7203 59.458ZM112.771 75V67.324H104.183V75H99.7371V56H104.183V63.41H112.771V56H117.217V75H112.771ZM126.928 75V59.914H120.848V56L137.492 56V59.914L131.336 59.914V75H126.928ZM156.275 73.1C155.439 74.164 153.045 75.418 149.967 75.418C143.887 75.418 139.859 72.074 139.859 65.424C139.859 58.888 143.963 55.62 150.005 55.582C152.551 55.62 154.831 56.38 156.085 57.33V62.878C154.793 60.864 152.779 59.496 150.005 59.458C146.357 59.458 144.381 61.396 144.381 65.234V65.804C144.381 69.718 146.509 71.542 150.081 71.542C153.235 71.542 155.325 70.212 156.275 68.54V73.1ZM160.337 75V56H164.783V63.41H167.861L173.181 56H178.121L171.471 64.968L179.185 75H173.789L167.823 67.134H164.783V75H160.337ZM182.455 75V56H186.863V68.882L195.983 56H200.201V75H195.793V61.966L186.673 75H182.455ZM203.292 75L209.752 65.272L203.748 56H208.954L213.02 62.422L217.086 56H222.102L216.022 65.006L222.558 75H217.352L212.83 67.818L208.308 75H203.292ZM235.595 75V56H240.003V68.882L249.123 56H253.341V75H248.933V61.966L239.813 75H235.595ZM273.875 73.1C273.039 74.164 270.645 75.418 267.567 75.418C261.487 75.418 257.459 72.074 257.459 65.424C257.459 58.888 261.563 55.62 267.605 55.582C270.151 55.62 272.431 56.38 273.685 57.33V62.878C272.393 60.864 270.379 59.496 267.605 59.458C263.957 59.458 261.981 61.396 261.981 65.234V65.804C261.981 69.718 264.109 71.542 267.681 71.542C270.835 71.542 272.925 70.212 273.875 68.54V73.1ZM292.578 73.1C291.742 74.164 289.348 75.418 286.27 75.418C280.19 75.418 276.162 72.074 276.162 65.424C276.162 58.888 280.266 55.62 286.308 55.582C288.854 55.62 291.134 56.38 292.388 57.33V62.878C291.096 60.864 289.082 59.496 286.308 59.458C282.66 59.458 280.684 61.396 280.684 65.234V65.804C280.684 69.718 282.812 71.542 286.384 71.542C289.538 71.542 291.628 70.212 292.578 68.54V73.1ZM309.36 75V59.914H303.204L303.09 62.308C302.596 74.164 299.708 75.228 296.744 75.228C296.022 75.228 295.262 75.152 294.882 75.038V70.44C295.224 70.554 295.566 70.592 295.87 70.592C297.504 70.592 298.834 70.06 299.1 60.142L299.252 56H313.768V75H309.36ZM334.896 73.1C333.984 74.164 331.362 75.418 327.904 75.38C321.634 75.418 317.91 71.96 317.91 65.424C317.91 59.116 321.862 55.582 327.6 55.582C333.11 55.62 336.416 59.002 336.416 64.968V66.792L322.318 66.792C322.66 69.946 324.598 71.542 328.056 71.542C331.552 71.542 333.87 70.212 334.896 68.54V73.1ZM327.486 59.458C324.636 59.458 322.85 60.902 322.394 63.638H331.97C331.856 61.054 330.184 59.458 327.486 59.458ZM338.004 70.972H340.208C341.272 68.236 341.918 64.474 341.918 58.166V56H356.51V70.972H359.398V79.94H355.37V75H342.032V79.94H338.004V70.972ZM346.06 60.37C345.946 64.74 345.566 68.008 344.502 70.972H352.064V59.914H346.06V60.37ZM371.317 75.418C365.389 75.418 361.551 72.074 361.551 65.424C361.551 58.85 365.541 55.582 371.469 55.582C377.359 55.62 381.197 58.964 381.197 65.576C381.197 72.15 377.207 75.38 371.317 75.418ZM366.073 65.424V65.538C366.073 69.718 368.049 71.542 371.393 71.542C374.775 71.542 376.675 69.604 376.675 65.576V65.462C376.675 61.282 374.661 59.458 371.317 59.458C367.935 59.496 366.073 61.434 366.073 65.424ZM385.294 75V56H394.87C399.392 56 401.178 57.558 401.178 60.408C401.178 62.688 399.962 64.246 397.91 64.74C400.342 65.044 402.128 66.146 402.128 69.376C402.128 73.024 399.734 75 394.756 75H385.294ZM389.74 71.314H394.338C396.694 71.314 397.72 70.592 397.72 69.072C397.72 67.4 396.656 66.868 394.604 66.868H389.74V71.314ZM389.74 63.676H393.806C395.554 63.676 396.732 63.106 396.732 61.51C396.732 60.104 395.744 59.686 393.844 59.686L389.74 59.724V63.676ZM406.642 62.878V57.33C407.896 56.38 410.176 55.62 413.444 55.62C418.992 55.62 421.728 57.52 421.728 62.46V75H417.548V71.58C416.636 73.784 414.318 75.304 411.278 75.304C407.44 75.304 405.16 73.138 405.16 69.414C405.16 65.082 408.314 63.866 412.988 63.866H417.282V63.03C417.282 60.332 415.99 59.496 413.444 59.496C409.948 59.496 407.934 60.864 406.642 62.878ZM412.684 71.314C415.686 71.314 417.092 69.604 417.282 68.312V66.754H413.52C410.898 66.754 409.644 67.248 409.644 68.958C409.644 70.402 410.708 71.314 412.684 71.314ZM439.89 75V67.324H431.302V75H426.856V56L431.302 56V63.41L439.89 63.41V56H444.336V75H439.89ZM449.754 75V56H454.162V68.882L463.282 56L467.5 56V75H463.092V61.966L453.972 75H449.754ZM472.947 75V56H477.355V68.882L486.475 56H490.693V75H486.285V61.966L477.165 75H472.947ZM484.347 46.538H488.451C488.451 50.832 485.259 52.428 481.991 52.428C478.229 52.428 475.151 50.832 475.151 46.538H479.255C479.255 48.134 480.053 49.122 481.915 49.122C483.435 49.122 484.347 48.438 484.347 46.538Z" fill="url(#paint0_linear_271_10708)"/>
<defs>
<linearGradient id="paint0_linear_271_10708" x1="10.0171" y1="75.319" x2="489.615" y2="75.319" gradientUnits="userSpaceOnUse">
<stop stop-color="#DB32E1"/>
<stop offset="0.510417" stop-color="#7A4FDC"/>
<stop offset="1" stop-color="#3D51C2"/>
</linearGradient>
</defs>
</svg>
