<svg width="644" height="109" viewBox="0 0 644 109" fill="none" xmlns="http://www.w3.org/2000/svg">
<path d="M20.07 19.07V23.69C19.02 24.95 16.26 26.33 12.63 26.33C5.79 26.3 1.23 22.25 1.23 15.47C1.23 9.14 5.73 4.67 12.69 4.67C15.99 4.67 18.42 5.69 19.65 6.56L19.65 11.78C18.39 9.92 15.84 8.12 12.69 8.12C8.1 8.12 5.28 11.09 5.28 15.5C5.28 19.58 7.77 22.79 12.6 22.88C16.26 22.88 18.84 21.2 20.07 19.07ZM35.8971 2.75V6.35C35.2971 6.68 33.5871 6.95 31.1271 7.16C26.3271 7.61 25.2471 9.5 24.8571 13.79C26.0271 12.11 27.8571 11 30.5571 11C34.2471 11 37.3071 12.86 37.3071 18.29C37.3071 23.6 34.4871 26.3 29.7471 26.3C24.6471 26.3 21.7971 23.27 21.7971 16.34C21.7971 8.06 24.0771 4.73 29.2371 3.89C31.5471 3.5 34.6671 3.38 35.8971 2.75ZM25.3971 18.32C25.3971 21.11 26.7771 23.12 29.5071 23.12C31.8771 23.12 33.6471 21.86 33.6471 18.59C33.6471 15.47 32.1771 14.12 29.6571 14.12C27.0171 14.12 25.3971 15.53 25.3971 18.32ZM52.8989 24.5C52.1789 25.34 50.1089 26.33 47.3789 26.3C42.4289 26.33 39.4889 23.6 39.4889 18.44C39.4889 13.46 42.6089 10.67 47.1389 10.67C51.4889 10.7 54.0989 13.37 54.0989 18.08V19.52H42.9689C43.2389 22.01 44.7689 23.27 47.4989 23.27C50.2589 23.27 52.0889 22.22 52.8989 20.9V24.5ZM47.0489 13.73C44.7989 13.73 43.3889 14.87 43.0289 17.03H50.5889C50.4989 14.99 49.1789 13.73 47.0489 13.73ZM57.3253 31.79L57.3253 11H60.6253V14.12C61.1653 12.44 62.7553 10.7 65.9353 10.7C69.7453 10.7 72.4153 12.92 72.4153 18.17C72.4153 24.08 69.7453 26.33 65.6353 26.33C63.2353 26.33 61.5853 25.13 60.8353 23.72V31.79H57.3253ZM60.8353 17.87V19.01C60.8353 21.71 62.3953 23.24 64.8553 23.24C67.6753 23.24 68.9053 21.86 68.9053 18.32C68.9053 15.02 67.3153 13.82 64.9153 13.82C62.1553 13.82 60.8953 15.35 60.8353 17.87ZM83.3995 26V11H90.9595C94.5295 11 95.9395 12.23 95.9395 14.48C95.9395 16.28 94.9795 17.51 93.3595 17.9C95.2795 18.14 96.6895 19.01 96.6895 21.56C96.6895 24.44 94.7995 26 90.8695 26L83.3995 26ZM86.9095 23.09H90.5395C92.3995 23.09 93.2095 22.52 93.2095 21.32C93.2095 20 92.3695 19.58 90.7495 19.58H86.9095V23.09ZM86.9095 17.06H90.1195C91.4995 17.06 92.4295 16.61 92.4295 15.35C92.4295 14.24 91.6495 13.91 90.1495 13.91L86.9095 13.94V17.06ZM99.8937 26V11H103.404V15.44L105.984 15.44C110.064 15.44 112.314 16.61 112.314 20.54C112.284 24.35 110.244 26 105.594 26H99.8937ZM114.024 26V11L117.534 11V26H114.024ZM105.474 22.91C107.844 22.91 108.774 22.31 108.804 20.54C108.774 18.95 108.024 18.53 105.714 18.53H103.404V22.91H105.474ZM120.128 22.82H121.868C122.708 20.66 123.218 17.69 123.218 12.71V11L134.738 11V22.82H137.018V29.9L133.838 29.9V26H123.308V29.9H120.128V22.82ZM126.488 14.45C126.398 17.9 126.098 20.48 125.258 22.82H131.228V14.09L126.488 14.09V14.45ZM140.185 16.43V12.05C141.175 11.3 142.975 10.7 145.555 10.7C149.935 10.7 152.095 12.2 152.095 16.1V26H148.795V23.3C148.075 25.04 146.245 26.24 143.845 26.24C140.815 26.24 139.015 24.53 139.015 21.59C139.015 18.17 141.505 17.21 145.195 17.21H148.585V16.55C148.585 14.42 147.565 13.76 145.555 13.76C142.795 13.76 141.205 14.84 140.185 16.43ZM144.955 23.09C147.325 23.09 148.435 21.74 148.585 20.72V19.49H145.615C143.545 19.49 142.555 19.88 142.555 21.23C142.555 22.37 143.395 23.09 144.955 23.09ZM165.864 26V14.09L161.004 14.09L160.914 15.98C160.524 25.34 158.244 26.18 155.904 26.18C155.334 26.18 154.734 26.12 154.434 26.03V22.4C154.704 22.49 154.974 22.52 155.214 22.52C156.504 22.52 157.554 22.1 157.764 14.27L157.884 11L169.344 11V26H165.864ZM191.477 26V14.09L184.937 14.09V26L181.427 26V11L194.987 11V26H191.477ZM211.629 24.5C210.909 25.34 208.839 26.33 206.109 26.3C201.159 26.33 198.219 23.6 198.219 18.44C198.219 13.46 201.339 10.67 205.869 10.67C210.219 10.7 212.829 13.37 212.829 18.08V19.52L201.699 19.52C201.969 22.01 203.499 23.27 206.229 23.27C208.989 23.27 210.819 22.22 211.629 20.9V24.5ZM205.779 13.73C203.529 13.73 202.119 14.87 201.759 17.03L209.319 17.03C209.229 14.99 207.909 13.73 205.779 13.73ZM216.056 31.79V11H219.356V14.12C219.896 12.44 221.486 10.7 224.666 10.7C228.476 10.7 231.146 12.92 231.146 18.17C231.146 24.08 228.476 26.33 224.366 26.33C221.966 26.33 220.316 25.13 219.566 23.72V31.79H216.056ZM219.566 17.87V19.01C219.566 21.71 221.126 23.24 223.586 23.24C226.406 23.24 227.636 21.86 227.636 18.32C227.636 15.02 226.046 13.82 223.646 13.82C220.886 13.82 219.626 15.35 219.566 17.87ZM234.337 26V11L241.897 11C245.467 11 246.877 12.23 246.877 14.48C246.877 16.28 245.917 17.51 244.297 17.9C246.217 18.14 247.627 19.01 247.627 21.56C247.627 24.44 245.737 26 241.807 26H234.337ZM237.847 23.09H241.477C243.337 23.09 244.147 22.52 244.147 21.32C244.147 20 243.307 19.58 241.687 19.58H237.847V23.09ZM237.847 17.06H241.057C242.437 17.06 243.367 16.61 243.367 15.35C243.367 14.24 242.587 13.91 241.087 13.91L237.847 13.94V17.06ZM250.831 26V11H254.341V15.44H256.921C261.001 15.44 263.251 16.61 263.251 20.54C263.221 24.35 261.181 26 256.531 26L250.831 26ZM264.961 26V11H268.471V26H264.961ZM256.411 22.91C258.781 22.91 259.711 22.31 259.741 20.54C259.711 18.95 258.961 18.53 256.651 18.53L254.341 18.53V22.91H256.411ZM272.775 26V11L276.255 11V21.17L283.455 11H286.785V26H283.305V15.71L276.105 26H272.775ZM281.775 3.53L285.015 3.53C285.015 6.92 282.495 8.18 279.915 8.18C276.945 8.18 274.515 6.92 274.515 3.53L277.755 3.53C277.755 4.79 278.385 5.57 279.855 5.57C281.055 5.57 281.775 5.03 281.775 3.53ZM298.849 26V11L306.409 11C309.979 11 311.389 12.23 311.389 14.48C311.389 16.28 310.429 17.51 308.809 17.9C310.729 18.14 312.139 19.01 312.139 21.56C312.139 24.44 310.249 26 306.319 26L298.849 26ZM302.359 23.09L305.989 23.09C307.849 23.09 308.659 22.52 308.659 21.32C308.659 20 307.819 19.58 306.199 19.58L302.359 19.58V23.09ZM302.359 17.06L305.569 17.06C306.949 17.06 307.879 16.61 307.879 15.35C307.879 14.24 307.099 13.91 305.599 13.91L302.359 13.94V17.06ZM330.726 19.46L327.486 19.46V26H323.736V5L330.726 5C337.356 5 340.176 7.37 340.176 12.11C340.176 17 336.876 19.46 330.726 19.46ZM331.056 8.45H327.486V16.01L330.996 16.01C334.476 16.01 336.276 14.87 336.276 12.02C336.276 9.44 334.716 8.45 331.056 8.45ZM349.953 26.33C345.273 26.33 342.243 23.69 342.243 18.44C342.243 13.25 345.393 10.67 350.073 10.67C354.723 10.7 357.753 13.34 357.753 18.56C357.753 23.75 354.603 26.3 349.953 26.33ZM345.813 18.44V18.53C345.813 21.83 347.373 23.27 350.013 23.27C352.683 23.27 354.183 21.74 354.183 18.56V18.47C354.183 15.17 352.593 13.73 349.953 13.73C347.283 13.76 345.813 15.29 345.813 18.44ZM372.927 24.5C372.267 25.34 370.377 26.33 367.947 26.33C363.147 26.33 359.967 23.69 359.967 18.44C359.967 13.28 363.207 10.7 367.977 10.67C369.987 10.7 371.787 11.3 372.777 12.05V16.43C371.757 14.84 370.167 13.76 367.977 13.73C365.097 13.73 363.537 15.26 363.537 18.29V18.74C363.537 21.83 365.217 23.27 368.037 23.27C370.527 23.27 372.177 22.22 372.927 20.9V24.5ZM387.693 24.5C387.033 25.34 385.143 26.33 382.713 26.33C377.913 26.33 374.733 23.69 374.733 18.44C374.733 13.28 377.973 10.7 382.743 10.67C384.753 10.7 386.553 11.3 387.543 12.05V16.43C386.523 14.84 384.933 13.76 382.743 13.73C379.863 13.73 378.303 15.26 378.303 18.29V18.74C378.303 21.83 379.983 23.27 382.803 23.27C385.293 23.27 386.943 22.22 387.693 20.9V24.5ZM390.93 26V11H394.41V21.17L401.61 11H404.94V26L401.46 26V15.71L394.26 26H390.93ZM409.24 26V11H412.72V21.17L419.92 11L423.25 11V26H419.77V15.71L412.57 26H409.24ZM435.314 26V11H438.824V16.85H441.254L445.454 11L449.354 11L444.104 18.08L450.194 26H445.934L441.224 19.79H438.824V26H435.314ZM452.745 31.79V11H456.045V14.12C456.585 12.44 458.175 10.7 461.355 10.7C465.165 10.7 467.835 12.92 467.835 18.17C467.835 24.08 465.165 26.33 461.055 26.33C458.655 26.33 457.005 25.13 456.255 23.72V31.79H452.745ZM456.255 17.87V19.01C456.255 21.71 457.815 23.24 460.275 23.24C463.095 23.24 464.325 21.86 464.325 18.32C464.325 15.02 462.735 13.82 460.335 13.82C457.575 13.82 456.315 15.35 456.255 17.87ZM483.416 24.5C482.696 25.34 480.626 26.33 477.896 26.3C472.946 26.33 470.006 23.6 470.006 18.44C470.006 13.46 473.126 10.67 477.656 10.67C482.006 10.7 484.616 13.37 484.616 18.08V19.52L473.486 19.52C473.756 22.01 475.286 23.27 478.016 23.27C480.776 23.27 482.606 22.22 483.416 20.9V24.5ZM477.566 13.73C475.316 13.73 473.906 14.87 473.546 17.03L481.106 17.03C481.016 14.99 479.696 13.73 477.566 13.73ZM485.87 22.82H487.61C488.45 20.66 488.96 17.69 488.96 12.71V11L500.48 11V22.82L502.76 22.82V29.9L499.58 29.9V26H489.05V29.9H485.87V22.82ZM492.23 14.45C492.14 17.9 491.84 20.48 491 22.82H496.97V14.09L492.23 14.09V14.45ZM505.51 26V11L508.99 11V21.17L516.19 11L519.52 11V26H516.04V15.71L508.84 26H505.51ZM527.21 26V14.09H522.41V11L535.55 11V14.09L530.69 14.09V26H527.21Z" fill="white"/>
<path d="M11.968 64L11.968 58.368C10.848 59.008 9.312 59.296 7.84 59.296C4 59.296 1.696 57.568 1.696 53.728L1.696 48H5.44L5.44 53.152C5.44 55.072 6.528 55.968 8.512 55.968C9.792 55.968 11.008 55.712 11.968 55.232L11.968 48H15.712L15.712 64H11.968ZM33.4568 62.4C32.6888 63.296 30.4808 64.352 27.5688 64.32C22.2888 64.352 19.1528 61.44 19.1528 55.936C19.1528 50.624 22.4808 47.648 27.3128 47.648C31.9528 47.68 34.7368 50.528 34.7368 55.552L34.7368 57.088H22.8648C23.1528 59.744 24.7848 61.088 27.6968 61.088C30.6408 61.088 32.5928 59.968 33.4568 58.56V62.4ZM27.2168 50.912C24.8168 50.912 23.3128 52.128 22.9288 54.432H30.9928C30.8968 52.256 29.4888 50.912 27.2168 50.912ZM38.1783 70.176L38.1783 48H41.6983V51.328C42.2743 49.536 43.9703 47.68 47.3623 47.68C51.4263 47.68 54.2743 50.048 54.2743 55.648C54.2743 61.952 51.4263 64.352 47.0423 64.352C44.4823 64.352 42.7223 63.072 41.9223 61.568V70.176H38.1783ZM41.9223 55.328V56.544C41.9223 59.424 43.5863 61.056 46.2103 61.056C49.2183 61.056 50.5303 59.584 50.5303 55.808C50.5303 52.288 48.8343 51.008 46.2743 51.008C43.3303 51.008 41.9863 52.64 41.9223 55.328ZM70.8943 62.4C70.1263 63.296 67.9183 64.352 65.0063 64.32C59.7263 64.352 56.5903 61.44 56.5903 55.936C56.5903 50.624 59.9183 47.648 64.7503 47.648C69.3903 47.68 72.1743 50.528 72.1743 55.552V57.088L60.3023 57.088C60.5903 59.744 62.2223 61.088 65.1343 61.088C68.0783 61.088 70.0303 59.968 70.8943 58.56V62.4ZM64.6543 50.912C62.2543 50.912 60.7503 52.128 60.3663 54.432L68.4303 54.432C68.3343 52.256 66.9263 50.912 64.6543 50.912ZM74.597 62.368V58.528C75.525 59.936 77.637 61.056 80.645 61.056C82.757 61.056 84.101 60.416 84.101 59.072C84.101 57.824 83.173 57.312 80.997 57.312H78.245V54.592H80.517C82.245 54.592 83.397 54.048 83.397 52.704C83.397 51.616 82.693 50.976 80.741 50.944C78.053 50.944 76.133 52.096 74.885 53.792V49.12C76.101 48.32 78.277 47.68 80.741 47.68H80.869C85.317 47.68 87.205 49.312 87.205 51.84C87.205 53.856 86.149 54.88 84.549 55.552C86.693 55.968 87.877 57.056 87.877 59.2C87.877 62.56 84.965 64.32 80.645 64.32C77.829 64.32 75.397 63.264 74.597 62.368ZM100.287 64V41.6H104.287V60.32H115.839V41.6H119.839V60.32H122.431V68.16H118.687V64H100.287ZM139.767 40.96V42.656H140.599C147.447 42.656 151.255 46.368 151.255 52.544C151.255 59.104 147.191 62.496 140.311 62.496H139.767V64.64L135.767 64.64V62.496H134.935C128.087 62.496 124.279 58.784 124.279 52.608C124.279 46.048 128.343 42.656 135.223 42.656H135.767V40.96H139.767ZM128.503 52.48C128.503 57.184 131.383 59.008 135.095 59.008H135.767V46.144H135.159C130.679 46.144 128.503 48.192 128.503 52.48ZM140.439 46.144H139.767V59.008H140.375C144.855 59.008 147.031 56.96 147.031 52.672C147.031 47.968 144.151 46.144 140.439 46.144ZM165.512 41.6L174.728 64H170.472L168.328 58.688L158.056 58.688L155.944 64H151.88L160.968 41.6H165.512ZM159.496 55.008L166.856 55.008L163.176 45.824L159.496 55.008ZM198.289 62.4C197.585 63.296 195.569 64.352 192.977 64.352C187.857 64.352 184.465 61.536 184.465 55.936C184.465 50.432 187.921 47.68 193.009 47.648C195.153 47.68 197.073 48.32 198.129 49.12V53.792C197.041 52.096 195.345 50.944 193.009 50.912C189.937 50.912 188.273 52.544 188.273 55.776V56.256C188.273 59.552 190.065 61.088 193.073 61.088C195.729 61.088 197.489 59.968 198.289 58.56V62.4ZM209.222 62.368V58.528C210.15 59.936 212.262 61.056 215.27 61.056C217.382 61.056 218.726 60.416 218.726 59.072C218.726 57.824 217.798 57.312 215.622 57.312H212.87V54.592H215.142C216.87 54.592 218.022 54.048 218.022 52.704C218.022 51.616 217.318 50.976 215.366 50.944C212.678 50.944 210.758 52.096 209.51 53.792V49.12C210.726 48.32 212.902 47.68 215.366 47.68H215.494C219.942 47.68 221.83 49.312 221.83 51.84C221.83 53.856 220.774 54.88 219.174 55.552C221.318 55.968 222.502 57.056 222.502 59.2C222.502 62.56 219.59 64.32 215.27 64.32C212.454 64.32 210.022 63.264 209.222 62.368ZM226.344 53.792V49.12C227.4 48.32 229.32 47.68 232.072 47.68C236.744 47.68 239.048 49.28 239.048 53.44V64H235.528V61.12C234.76 62.976 232.808 64.256 230.248 64.256C227.016 64.256 225.096 62.432 225.096 59.296C225.096 55.648 227.752 54.624 231.688 54.624L235.304 54.624V53.92C235.304 51.648 234.216 50.944 232.072 50.944C229.128 50.944 227.432 52.096 226.344 53.792ZM231.432 60.896C233.96 60.896 235.144 59.456 235.304 58.368V57.056L232.135 57.056C229.928 57.056 228.872 57.472 228.872 58.912C228.872 60.128 229.768 60.896 231.432 60.896ZM253.734 64V51.296H248.55L248.454 53.312C248.038 63.296 245.606 64.192 243.11 64.192C242.502 64.192 241.862 64.128 241.542 64.032V60.16C241.83 60.256 242.118 60.288 242.374 60.288C243.75 60.288 244.87 59.84 245.094 51.488L245.222 48H257.446V64H253.734ZM269.158 64.352C264.166 64.352 260.934 61.536 260.934 55.936C260.934 50.4 264.294 47.648 269.286 47.648C274.246 47.68 277.478 50.496 277.478 56.064C277.478 61.6 274.118 64.32 269.158 64.352ZM264.742 55.936V56.032C264.742 59.552 266.406 61.088 269.222 61.088C272.07 61.088 273.67 59.456 273.67 56.064V55.968C273.67 52.448 271.974 50.912 269.158 50.912C266.31 50.944 264.742 52.576 264.742 55.936ZM280.928 64V48H292.416V51.296H284.672V64H280.928ZM302.97 64.352C297.979 64.352 294.747 61.536 294.747 55.936C294.747 50.4 298.107 47.648 303.099 47.648C308.059 47.68 311.291 50.496 311.291 56.064C311.291 61.6 307.931 64.32 302.97 64.352ZM298.555 55.936V56.032C298.555 59.552 300.219 61.088 303.035 61.088C305.883 61.088 307.483 59.456 307.483 56.064V55.968C307.483 52.448 305.787 50.912 302.97 50.912C300.123 50.944 298.555 52.576 298.555 55.936ZM328.917 64V53.248L324.309 60.032H323.125L318.485 53.216V64H314.741V48H318.613L323.829 55.488L328.885 48H332.661V64H328.917ZM345.522 64V48H353.586C357.394 48 358.898 49.312 358.898 51.712C358.898 53.632 357.874 54.944 356.146 55.36C358.194 55.616 359.698 56.544 359.698 59.264C359.698 62.336 357.682 64 353.49 64H345.522ZM349.266 60.896H353.138C355.122 60.896 355.986 60.288 355.986 59.008C355.986 57.6 355.09 57.152 353.362 57.152H349.266V60.896ZM349.266 54.464H352.69C354.162 54.464 355.154 53.984 355.154 52.64C355.154 51.456 354.322 51.104 352.722 51.104L349.266 51.136V54.464ZM371.428 64V48H379.492C383.3 48 384.804 49.312 384.804 51.712C384.804 53.632 383.78 54.944 382.052 55.36C384.1 55.616 385.604 56.544 385.604 59.264C385.604 62.336 383.588 64 379.396 64H371.428ZM375.172 60.896H379.044C381.028 60.896 381.892 60.288 381.892 59.008C381.892 57.6 380.996 57.152 379.268 57.152H375.172V60.896ZM375.172 54.464H378.596C380.068 54.464 381.06 53.984 381.06 52.64C381.06 51.456 380.228 51.104 378.628 51.104L375.172 51.136V54.464ZM389.054 64V48H392.766V58.848L400.446 48H403.998V64H400.286V53.024L392.606 64H389.054ZM406.761 60.608H408.617C409.513 58.304 410.057 55.136 410.057 49.824V48H422.345V60.608H424.777V68.16H421.385V64H410.153V68.16H406.761V60.608ZM413.545 51.68C413.449 55.36 413.129 58.112 412.233 60.608H418.601V51.296H413.545V51.68ZM440.894 62.4C440.126 63.296 437.918 64.352 435.006 64.32C429.726 64.352 426.59 61.44 426.59 55.936C426.59 50.624 429.918 47.648 434.75 47.648C439.39 47.68 442.174 50.528 442.174 55.552V57.088L430.302 57.088C430.59 59.744 432.222 61.088 435.134 61.088C438.078 61.088 440.03 59.968 440.894 58.56V62.4ZM434.654 50.912C432.254 50.912 430.75 52.128 430.366 54.432L438.43 54.432C438.334 52.256 436.926 50.912 434.654 50.912ZM2.272 105.176L2.272 83H5.792L5.792 86.328C6.368 84.536 8.064 82.68 11.456 82.68C15.52 82.68 18.368 85.048 18.368 90.648C18.368 96.952 15.52 99.352 11.136 99.352C8.576 99.352 6.816 98.072 6.016 96.568L6.016 105.176H2.272ZM6.016 90.328V91.544C6.016 94.424 7.68 96.056 10.304 96.056C13.312 96.056 14.624 94.584 14.624 90.808C14.624 87.288 12.928 86.008 10.368 86.008C7.424 86.008 6.08 87.64 6.016 90.328ZM34.988 97.4C34.22 98.296 32.012 99.352 29.1 99.32C23.82 99.352 20.684 96.44 20.684 90.936C20.684 85.624 24.012 82.648 28.844 82.648C33.484 82.68 36.268 85.528 36.268 90.552V92.088H24.396C24.684 94.744 26.316 96.088 29.228 96.088C32.172 96.088 34.124 94.968 34.988 93.56L34.988 97.4ZM28.748 85.912C26.348 85.912 24.844 87.128 24.46 89.432H32.524C32.428 87.256 31.02 85.912 28.748 85.912ZM39.9998 88.792V84.12C41.0558 83.32 42.9758 82.68 45.7278 82.68C50.3998 82.68 52.7038 84.28 52.7038 88.44L52.7038 99H49.1838L49.1838 96.12C48.4158 97.976 46.4638 99.256 43.9038 99.256C40.6718 99.256 38.7518 97.432 38.7518 94.296C38.7518 90.648 41.4078 89.624 45.3437 89.624H48.9598V88.92C48.9598 86.648 47.8718 85.944 45.7278 85.944C42.7838 85.944 41.0878 87.096 39.9998 88.792ZM45.0878 95.896C47.6158 95.896 48.7998 94.456 48.9598 93.368V92.056H45.7917C43.5838 92.056 42.5278 92.472 42.5278 93.912C42.5278 95.128 43.4238 95.896 45.0878 95.896ZM67.39 99V86.296H62.206L62.11 88.312C61.694 98.296 59.262 99.192 56.766 99.192C56.158 99.192 55.518 99.128 55.198 99.032L55.198 95.16C55.486 95.256 55.774 95.288 56.03 95.288C57.406 95.288 58.526 94.84 58.75 86.488L58.878 83H71.102V99H67.39ZM89.3103 93.176C89.2783 97.24 87.1023 99 82.1103 99H75.6783V83H79.4223V87.736H82.5263C86.8783 87.736 89.3103 88.984 89.3103 93.176ZM85.5663 93.144C85.5023 91.48 84.6703 91.032 82.2383 91.032H79.4223V95.704H82.0143C84.5743 95.704 85.5663 95.064 85.5663 93.144ZM103.686 99V92.536H96.4535V99H92.7095V83H96.4535V89.24H103.686V83H107.43V99H103.686ZM119.095 99.352C114.104 99.352 110.872 96.536 110.872 90.936C110.872 85.4 114.232 82.648 119.224 82.648C124.184 82.68 127.416 85.496 127.416 91.064C127.416 96.6 124.056 99.32 119.095 99.352ZM114.68 90.936V91.032C114.68 94.552 116.344 96.088 119.16 96.088C122.008 96.088 123.608 94.456 123.608 91.064V90.968C123.608 87.448 121.912 85.912 119.095 85.912C116.248 85.944 114.68 87.576 114.68 90.936ZM130.866 99V83H142.354V86.296H134.61V99H130.866ZM152.908 99.352C147.916 99.352 144.684 96.536 144.684 90.936C144.684 85.4 148.044 82.648 153.036 82.648C157.996 82.68 161.228 85.496 161.228 91.064C161.228 96.6 157.868 99.32 152.908 99.352ZM148.492 90.936V91.032C148.492 94.552 150.156 96.088 152.972 96.088C155.82 96.088 157.42 94.456 157.42 91.064V90.968C157.42 87.448 155.724 85.912 152.908 85.912C150.06 85.944 148.492 87.576 148.492 90.936ZM173.375 88.792V84.12C174.431 83.32 176.351 82.68 179.103 82.68C183.775 82.68 186.079 84.28 186.079 88.44V99H182.559V96.12C181.791 97.976 179.839 99.256 177.279 99.256C174.047 99.256 172.127 97.432 172.127 94.296C172.127 90.648 174.783 89.624 178.719 89.624H182.335V88.92C182.335 86.648 181.247 85.944 179.103 85.944C176.159 85.944 174.463 87.096 173.375 88.792ZM178.463 95.896C180.991 95.896 182.175 94.456 182.335 93.368V92.056H179.167C176.959 92.056 175.903 92.472 175.903 93.912C175.903 95.128 176.799 95.896 178.463 95.896ZM190.397 99V83H194.141V89.24H196.733L201.213 83H205.373L199.773 90.552L206.269 99H201.725L196.701 92.376H194.141V99H190.397ZM212.733 99V86.296H207.613V83H221.629V86.296H216.445V99H212.733ZM224.742 99V83H228.454V93.848L236.134 83H239.686V99H235.974V88.024L228.294 99H224.742ZM244.241 99V83H252.305C256.113 83 257.617 84.312 257.617 86.712C257.617 88.632 256.593 89.944 254.865 90.36C256.913 90.616 258.417 91.544 258.417 94.264C258.417 97.336 256.401 99 252.209 99H244.241ZM247.985 95.896H251.857C253.841 95.896 254.705 95.288 254.705 94.008C254.705 92.6 253.809 92.152 252.081 92.152H247.985V95.896ZM247.985 89.464H251.409C252.881 89.464 253.873 88.984 253.873 87.64C253.873 86.456 253.041 86.104 251.441 86.104L247.985 86.136V89.464ZM262.219 88.792V84.12C263.275 83.32 265.195 82.68 267.947 82.68C272.619 82.68 274.923 84.28 274.923 88.44V99L271.403 99V96.12C270.635 97.976 268.683 99.256 266.123 99.256C262.891 99.256 260.971 97.432 260.971 94.296C260.971 90.648 263.627 89.624 267.562 89.624H271.179V88.92C271.179 86.648 270.091 85.944 267.947 85.944C265.003 85.944 263.307 87.096 262.219 88.792ZM267.307 95.896C269.835 95.896 271.019 94.456 271.179 93.368V92.056H268.01C265.803 92.056 264.747 92.472 264.747 93.912C264.747 95.128 265.643 95.896 267.307 95.896Z" fill="url(#paint0_linear_4384_880)"/>
<defs>
<linearGradient id="paint0_linear_4384_880" x1="9.27674" y1="93.7553" x2="502.683" y2="93.7553" gradientUnits="userSpaceOnUse">
<stop stop-color="#DB32E1"/>
<stop offset="0.510417" stop-color="#7A4FDC"/>
<stop offset="1" stop-color="#3D51C2"/>
</linearGradient>
</defs>
</svg>
