<svg width="522" height="72" viewBox="0 0 522 72" fill="none" xmlns="http://www.w3.org/2000/svg">
<path d="M18.21 5V8.45H11.13L11.13 26H7.38L7.38 8.45L0.42 8.45L0.42 5L18.21 5ZM19.4529 16.43V12.05C20.4429 11.3 22.2429 10.7 24.8229 10.7C29.2029 10.7 31.3629 12.2 31.3629 16.1V26H28.0629V23.3C27.3429 25.04 25.5129 26.24 23.1129 26.24C20.0829 26.24 18.2829 24.53 18.2829 21.59C18.2829 18.17 20.7729 17.21 24.4629 17.21H27.8529V16.55C27.8529 14.42 26.8329 13.76 24.8229 13.76C22.0629 13.76 20.4729 14.84 19.4529 16.43ZM24.2229 23.09C26.5929 23.09 27.7029 21.74 27.8529 20.72V19.49H24.8829C22.8129 19.49 21.8229 19.88 21.8229 21.23C21.8229 22.37 22.6629 23.09 24.2229 23.09ZM35.4113 26L35.4113 11H38.9213V16.85H41.3513L45.5513 11H49.4513L44.2013 18.08L50.2913 26H46.0313L41.3213 19.79H38.9213L38.9213 26L35.4113 26ZM58.947 26.33C54.267 26.33 51.237 23.69 51.237 18.44C51.237 13.25 54.387 10.67 59.067 10.67C63.717 10.7 66.747 13.34 66.747 18.56C66.747 23.75 63.597 26.3 58.947 26.33ZM54.807 18.44V18.53C54.807 21.83 56.367 23.27 59.007 23.27C61.677 23.27 63.177 21.74 63.177 18.56V18.47C63.177 15.17 61.587 13.73 58.947 13.73C56.277 13.76 54.807 15.29 54.807 18.44ZM69.9816 26V11L80.7516 11V14.09L73.4916 14.09V26H69.9816ZM90.6462 26.33C85.9662 26.33 82.9362 23.69 82.9362 18.44C82.9362 13.25 86.0862 10.67 90.7662 10.67C95.4162 10.7 98.4462 13.34 98.4462 18.56C98.4462 23.75 95.2962 26.3 90.6462 26.33ZM86.5062 18.44V18.53C86.5062 21.83 88.0662 23.27 90.7062 23.27C93.3762 23.27 94.8762 21.74 94.8762 18.56V18.47C94.8762 15.17 93.2862 13.73 90.6462 13.73C87.9762 13.76 86.5062 15.29 86.5062 18.44ZM121.414 24.5C120.754 25.34 118.864 26.33 116.434 26.33C111.634 26.33 108.454 23.69 108.454 18.44C108.454 13.28 111.694 10.7 116.464 10.67C118.474 10.7 120.274 11.3 121.264 12.05V16.43C120.244 14.84 118.654 13.76 116.464 13.73C113.584 13.73 112.024 15.26 112.024 18.29V18.74C112.024 21.83 113.704 23.27 116.524 23.27C119.014 23.27 120.664 22.22 121.414 20.9V24.5ZM136.629 24.5C135.909 25.34 133.839 26.33 131.109 26.3C126.159 26.33 123.219 23.6 123.219 18.44C123.219 13.46 126.339 10.67 130.869 10.67C135.219 10.7 137.829 13.37 137.829 18.08V19.52L126.699 19.52C126.969 22.01 128.499 23.27 131.229 23.27C133.989 23.27 135.819 22.22 136.629 20.9V24.5ZM130.779 13.73C128.529 13.73 127.119 14.87 126.759 17.03H134.319C134.229 14.99 132.909 13.73 130.779 13.73ZM141.056 31.79V11H144.356V14.12C144.896 12.44 146.486 10.7 149.666 10.7C153.476 10.7 156.146 12.92 156.146 18.17C156.146 24.08 153.476 26.33 149.366 26.33C146.966 26.33 145.316 25.13 144.566 23.72V31.79H141.056ZM144.566 17.87V19.01C144.566 21.71 146.126 23.24 148.586 23.24C151.406 23.24 152.636 21.86 152.636 18.32C152.636 15.02 151.046 13.82 148.646 13.82C145.886 13.82 144.626 15.35 144.566 17.87ZM159.337 26V11L166.897 11C170.467 11 171.877 12.23 171.877 14.48C171.877 16.28 170.917 17.51 169.297 17.9C171.217 18.14 172.627 19.01 172.627 21.56C172.627 24.44 170.737 26 166.807 26H159.337ZM162.847 23.09H166.477C168.337 23.09 169.147 22.52 169.147 21.32C169.147 20 168.307 19.58 166.687 19.58H162.847V23.09ZM162.847 17.06H166.057C167.437 17.06 168.367 16.61 168.367 15.35C168.367 14.24 167.587 13.91 166.087 13.91L162.847 13.94V17.06ZM175.861 26V11L179.341 11V21.17L186.541 11L189.871 11V26H186.391V15.71L179.191 26H175.861ZM206.082 24.5C205.422 25.34 203.532 26.33 201.102 26.33C196.302 26.33 193.122 23.69 193.122 18.44C193.122 13.28 196.362 10.7 201.132 10.67C203.142 10.7 204.942 11.3 205.932 12.05V16.43C204.912 14.84 203.322 13.76 201.132 13.73C198.252 13.73 196.692 15.26 196.692 18.29V18.74C196.692 21.83 198.372 23.27 201.192 23.27C203.682 23.27 205.332 22.22 206.082 20.9V24.5ZM209.648 16.43V12.05C210.638 11.3 212.438 10.7 215.018 10.7C219.398 10.7 221.558 12.2 221.558 16.1V26H218.258V23.3C217.538 25.04 215.708 26.24 213.308 26.24C210.278 26.24 208.478 24.53 208.478 21.59C208.478 18.17 210.968 17.21 214.658 17.21H218.048V16.55C218.048 14.42 217.028 13.76 215.018 13.76C212.258 13.76 210.668 14.84 209.648 16.43ZM214.418 23.09C216.788 23.09 217.898 21.74 218.048 20.72V19.49H215.078C213.008 19.49 212.018 19.88 212.018 21.23C212.018 22.37 212.858 23.09 214.418 23.09Z" fill="white"/>
<path d="M3.272 64L3.272 48H11.336C15.144 48 16.648 49.312 16.648 51.712C16.648 53.632 15.624 54.944 13.896 55.36C15.944 55.616 17.448 56.544 17.448 59.264C17.448 62.336 15.432 64 11.24 64H3.272ZM7.016 60.896H10.888C12.872 60.896 13.736 60.288 13.736 59.008C13.736 57.6 12.84 57.152 11.112 57.152H7.016L7.016 60.896ZM7.016 54.464H10.44C11.912 54.464 12.904 53.984 12.904 52.64C12.904 51.456 12.072 51.104 10.472 51.104L7.016 51.136L7.016 54.464ZM20.8658 64L20.8658 48H24.6098L24.6098 52.736L27.3618 52.736C31.7138 52.736 34.1138 53.984 34.1138 58.176C34.0818 62.24 31.9058 64 26.9458 64H20.8658ZM35.9378 64L35.9378 48H39.6818L39.6818 64H35.9378ZM26.8177 60.704C29.3458 60.704 30.3378 60.064 30.3698 58.176C30.3378 56.48 29.5378 56.032 27.0738 56.032H24.6098V60.704H26.8177ZM65.7693 62.4C65.0013 63.296 62.7933 64.352 59.8813 64.32C54.6013 64.352 51.4653 61.44 51.4653 55.936C51.4653 50.624 54.7933 47.648 59.6253 47.648C64.2653 47.68 67.0493 50.528 67.0493 55.552V57.088H55.1773C55.4653 59.744 57.0973 61.088 60.0093 61.088C62.9533 61.088 64.9053 59.968 65.7693 58.56V62.4ZM59.5293 50.912C57.1293 50.912 55.6253 52.128 55.2413 54.432H63.3053C63.2093 52.256 61.8013 50.912 59.5293 50.912ZM70.4908 64V48H74.2348V60.608H79.1628V48H82.8748V60.608H87.8028V48H91.5468V60.608H93.8828V68.16H90.5228V64H70.4908ZM110.019 62.4C109.251 63.296 107.043 64.352 104.131 64.32C98.8513 64.352 95.7153 61.44 95.7153 55.936C95.7153 50.624 99.0433 47.648 103.875 47.648C108.515 47.68 111.299 50.528 111.299 55.552V57.088H99.4273C99.7153 59.744 101.347 61.088 104.259 61.088C107.203 61.088 109.155 59.968 110.019 58.56V62.4ZM103.779 50.912C101.379 50.912 99.8753 52.128 99.4913 54.432H107.555C107.459 52.256 106.051 50.912 103.779 50.912ZM105.187 41.92C105.187 40.704 106.051 39.872 107.395 39.872C108.739 39.872 109.603 40.704 109.603 41.92C109.603 43.2 108.739 44.064 107.395 44.064C106.051 44.064 105.187 43.2 105.187 41.92ZM98.2433 41.92C98.2433 40.704 99.1073 39.872 100.451 39.872C101.795 39.872 102.659 40.704 102.659 41.92C102.659 43.2 101.795 44.064 100.451 44.064C99.1073 44.064 98.2433 43.2 98.2433 41.92ZM134.029 64V57.536L126.797 57.536V64H123.053V48H126.797V54.24L134.029 54.24V48H137.773V64H134.029ZM155.519 62.4C154.751 63.296 152.543 64.352 149.631 64.32C144.351 64.352 141.215 61.44 141.215 55.936C141.215 50.624 144.543 47.648 149.375 47.648C154.015 47.68 156.799 50.528 156.799 55.552V57.088H144.927C145.215 59.744 146.847 61.088 149.759 61.088C152.703 61.088 154.655 59.968 155.519 58.56V62.4ZM149.279 50.912C146.879 50.912 145.375 52.128 144.991 54.432H153.055C152.959 52.256 151.551 50.912 149.279 50.912ZM168.553 64V48H176.617C180.425 48 181.929 49.312 181.929 51.712C181.929 53.632 180.905 54.944 179.177 55.36C181.225 55.616 182.729 56.544 182.729 59.264C182.729 62.336 180.713 64 176.521 64H168.553ZM172.297 60.896H176.169C178.153 60.896 179.017 60.288 179.017 59.008C179.017 57.6 178.121 57.152 176.393 57.152H172.297V60.896ZM172.297 54.464H175.721C177.193 54.464 178.185 53.984 178.185 52.64C178.185 51.456 177.353 51.104 175.753 51.104L172.297 51.136V54.464ZM186.179 64V48H189.891V58.848L197.571 48H201.123V64H197.411V53.024L189.731 64H186.179ZM203.886 60.608H205.742C206.638 58.304 207.182 55.136 207.182 49.824V48H219.47V60.608H221.902V68.16H218.51V64L207.278 64V68.16H203.886V60.608ZM210.67 51.68C210.574 55.36 210.254 58.112 209.358 60.608L215.726 60.608V51.296H210.67V51.68ZM238.019 62.4C237.251 63.296 235.043 64.352 232.131 64.32C226.851 64.352 223.715 61.44 223.715 55.936C223.715 50.624 227.043 47.648 231.875 47.648C236.515 47.68 239.299 50.528 239.299 55.552V57.088H227.427C227.715 59.744 229.347 61.088 232.259 61.088C235.203 61.088 237.155 59.968 238.019 58.56V62.4ZM231.779 50.912C229.379 50.912 227.875 52.128 227.491 54.432H235.555C235.459 52.256 234.051 50.912 231.779 50.912ZM252.796 64V51.296H247.612L247.516 53.312C247.1 63.296 244.668 64.192 242.172 64.192C241.564 64.192 240.924 64.128 240.604 64.032V60.16C240.892 60.256 241.18 60.288 241.436 60.288C242.812 60.288 243.932 59.84 244.156 51.488L244.284 48H256.508V64H252.796ZM261.117 64V48H264.829V58.848L272.509 48H276.061V64H272.349V53.024L264.669 64H261.117Z" fill="url(#paint0_linear_4384_595)"/>
<defs>
<linearGradient id="paint0_linear_4384_595" x1="10.0171" y1="64.5894" x2="489.615" y2="64.5894" gradientUnits="userSpaceOnUse">
<stop stop-color="#DB32E1"/>
<stop offset="0.510417" stop-color="#7A4FDC"/>
<stop offset="1" stop-color="#3D51C2"/>
</linearGradient>
</defs>
</svg>
