<svg width="655" height="75" viewBox="0 0 655 75" fill="none" xmlns="http://www.w3.org/2000/svg">
<path d="M10.368 20.024H6.912L6.912 27H2.912L2.912 4.6L10.368 4.6C17.44 4.6 20.448 7.128 20.448 12.184C20.448 17.4 16.928 20.024 10.368 20.024ZM10.72 8.28H6.912L6.912 16.344H10.656C14.368 16.344 16.288 15.128 16.288 12.088C16.288 9.336 14.624 8.28 10.72 8.28ZM24.156 16.792V12.12C25.212 11.32 27.132 10.68 29.884 10.68C34.556 10.68 36.86 12.28 36.86 16.44L36.86 27L33.34 27V24.12C32.572 25.976 30.62 27.256 28.06 27.256C24.828 27.256 22.908 25.432 22.908 22.296C22.908 18.648 25.564 17.624 29.5 17.624H33.116V16.92C33.116 14.648 32.028 13.944 29.884 13.944C26.94 13.944 25.244 15.096 24.156 16.792ZM29.244 23.896C31.772 23.896 32.956 22.456 33.116 21.368V20.056H29.948C27.74 20.056 26.684 20.472 26.684 21.912C26.684 23.128 27.58 23.896 29.244 23.896ZM53.9143 25.4C53.2103 26.296 51.1943 27.352 48.6023 27.352C43.4823 27.352 40.0903 24.536 40.0903 18.936C40.0903 13.432 43.5463 10.68 48.6343 10.648C50.7783 10.68 52.6983 11.32 53.7543 12.12V16.792C52.6663 15.096 50.9703 13.944 48.6343 13.912C45.5623 13.912 43.8983 15.544 43.8983 18.776V19.256C43.8983 22.552 45.6903 24.088 48.6983 24.088C51.3543 24.088 53.1143 22.968 53.9143 21.56V25.4ZM68.0545 27V14.296L61.0785 14.296L61.0785 27L57.3345 27L57.3345 11L71.7985 11V27H68.0545ZM83.4705 27.352C78.4785 27.352 75.2465 24.536 75.2465 18.936C75.2465 13.4 78.6065 10.648 83.5985 10.648C88.5585 10.68 91.7905 13.496 91.7905 19.064C91.7905 24.6 88.4305 27.32 83.4705 27.352ZM79.0545 18.936V19.032C79.0545 22.552 80.7185 24.088 83.5345 24.088C86.3825 24.088 87.9825 22.456 87.9825 19.064V18.968C87.9825 15.448 86.2865 13.912 83.4705 13.912C80.6225 13.944 79.0545 15.576 79.0545 18.936ZM94.1283 25.368V21.528C95.0563 22.936 97.1683 24.056 100.176 24.056C102.288 24.056 103.632 23.416 103.632 22.072C103.632 20.824 102.704 20.312 100.528 20.312H97.7763V17.592H100.048C101.776 17.592 102.928 17.048 102.928 15.704C102.928 14.616 102.224 13.976 100.272 13.944C97.5843 13.944 95.6643 15.096 94.4163 16.792V12.12C95.6323 11.32 97.8083 10.68 100.272 10.68H100.4C104.848 10.68 106.736 12.312 106.736 14.84C106.736 16.856 105.68 17.88 104.08 18.552C106.224 18.968 107.408 20.056 107.408 22.2C107.408 25.56 104.496 27.32 100.176 27.32C97.3602 27.32 94.9283 26.264 94.1283 25.368ZM121.842 27V20.536H114.61V27H110.866V11H114.61V17.24H121.842V11H125.586V27H121.842ZM130.5 16.792V12.12C131.556 11.32 133.476 10.68 136.228 10.68C140.9 10.68 143.204 12.28 143.204 16.44V27H139.684V24.12C138.916 25.976 136.964 27.256 134.404 27.256C131.172 27.256 129.252 25.432 129.252 22.296C129.252 18.648 131.908 17.624 135.844 17.624H139.46V16.92C139.46 14.648 138.372 13.944 136.228 13.944C133.284 13.944 131.588 15.096 130.5 16.792ZM135.588 23.896C138.116 23.896 139.3 22.456 139.46 21.368V20.056H136.292C134.084 20.056 133.028 20.472 133.028 21.912C133.028 23.128 133.924 23.896 135.588 23.896ZM147.522 27V11L155.586 11C159.394 11 160.898 12.312 160.898 14.712C160.898 16.632 159.874 17.944 158.146 18.36C160.194 18.616 161.698 19.544 161.698 22.264C161.698 25.336 159.682 27 155.49 27H147.522ZM151.266 23.896H155.138C157.122 23.896 157.986 23.288 157.986 22.008C157.986 20.6 157.09 20.152 155.362 20.152H151.266V23.896ZM151.266 17.464H154.69C156.162 17.464 157.154 16.984 157.154 15.64C157.154 14.456 156.322 14.104 154.722 14.104L151.266 14.136V17.464ZM165.5 16.792V12.12C166.556 11.32 168.476 10.68 171.228 10.68C175.9 10.68 178.204 12.28 178.204 16.44V27H174.684V24.12C173.916 25.976 171.964 27.256 169.404 27.256C166.172 27.256 164.252 25.432 164.252 22.296C164.252 18.648 166.908 17.624 170.844 17.624H174.46V16.92C174.46 14.648 173.372 13.944 171.228 13.944C168.284 13.944 166.588 15.096 165.5 16.792ZM170.588 23.896C173.116 23.896 174.3 22.456 174.46 21.368V20.056H171.292C169.084 20.056 168.028 20.472 168.028 21.912C168.028 23.128 168.924 23.896 170.588 23.896ZM193.498 27V20.536H186.266V27L182.522 27V11H186.266V17.24H193.498V11H197.242V27H193.498ZM201.804 27V11H205.516V21.848L213.196 11L216.748 11V27H213.036V16.024L205.356 27H201.804ZM234.519 25.4C233.751 26.296 231.543 27.352 228.631 27.32C223.351 27.352 220.215 24.44 220.215 18.936C220.215 13.624 223.543 10.648 228.375 10.648C233.015 10.68 235.799 13.528 235.799 18.552V20.088L223.927 20.088C224.215 22.744 225.847 24.088 228.759 24.088C231.703 24.088 233.655 22.968 234.519 21.56V25.4ZM228.279 13.912C225.879 13.912 224.375 15.128 223.991 17.432L232.055 17.432C231.959 15.256 230.551 13.912 228.279 13.912ZM247.553 27V11L251.297 11V17.24H253.889L258.369 11H262.529L256.929 18.552L263.425 27H258.881L253.857 20.376H251.297V27H247.553ZM266.406 16.792V12.12C267.462 11.32 269.382 10.68 272.134 10.68C276.806 10.68 279.11 12.28 279.11 16.44V27H275.59V24.12C274.822 25.976 272.87 27.256 270.31 27.256C267.078 27.256 265.158 25.432 265.158 22.296C265.158 18.648 267.814 17.624 271.75 17.624H275.366V16.92C275.366 14.648 274.278 13.944 272.134 13.944C269.19 13.944 267.494 15.096 266.406 16.792ZM271.494 23.896C274.022 23.896 275.206 22.456 275.366 21.368V20.056H272.198C269.99 20.056 268.934 20.472 268.934 21.912C268.934 23.128 269.83 23.896 271.494 23.896ZM283.428 33.176V11H286.948V14.328C287.524 12.536 289.22 10.68 292.612 10.68C296.676 10.68 299.524 13.048 299.524 18.648C299.524 24.952 296.676 27.352 292.292 27.352C289.732 27.352 287.972 26.072 287.172 24.568V33.176H283.428ZM287.172 18.328V19.544C287.172 22.424 288.836 24.056 291.46 24.056C294.468 24.056 295.78 22.584 295.78 18.808C295.78 15.288 294.084 14.008 291.524 14.008C288.58 14.008 287.236 15.64 287.172 18.328ZM306.576 27V14.296H301.456V11L315.472 11V14.296L310.288 14.296V27H306.576ZM325.689 27.352C320.697 27.352 317.465 24.536 317.465 18.936C317.465 13.4 320.825 10.648 325.817 10.648C330.777 10.68 334.009 13.496 334.009 19.064C334.009 24.6 330.649 27.32 325.689 27.352ZM321.273 18.936V19.032C321.273 22.552 322.937 24.088 325.753 24.088C328.601 24.088 330.201 22.456 330.201 19.064V18.968C330.201 15.448 328.505 13.912 325.689 13.912C322.841 13.944 321.273 15.576 321.273 18.936ZM347.156 27V21.368C346.036 22.008 344.5 22.296 343.028 22.296C339.188 22.296 336.884 20.568 336.884 16.728V11H340.628V16.152C340.628 18.072 341.716 18.968 343.7 18.968C344.98 18.968 346.196 18.712 347.156 18.232V11L350.9 11V27H347.156ZM355.428 27V11H359.172V17.24H361.764L366.244 11H370.404L364.804 18.552L371.3 27H366.756L361.732 20.376H359.172V27H355.428ZM374.054 27V11H377.766V21.848L385.446 11H388.998V27H385.286V16.024L377.606 27H374.054Z" fill="white"/>
<path d="M10.408 64.352C5.416 64.352 2.184 61.536 2.184 55.936C2.184 50.4 5.544 47.648 10.536 47.648C15.496 47.68 18.728 50.496 18.728 56.064C18.728 61.6 15.368 64.32 10.408 64.352ZM5.992 55.936V56.032C5.992 59.552 7.656 61.088 10.472 61.088C13.32 61.088 14.92 59.456 14.92 56.064V55.968C14.92 52.448 13.224 50.912 10.408 50.912C7.56 50.944 5.992 52.576 5.992 55.936ZM36.2903 39.2V43.04C35.6503 43.392 33.8263 43.68 31.2023 43.904C26.0823 44.384 24.9303 46.4 24.5143 50.976C25.7623 49.184 27.7143 48 30.5943 48C34.5303 48 37.7943 49.984 37.7943 55.776C37.7943 61.44 34.7863 64.32 29.7303 64.32C24.2903 64.32 21.2503 61.088 21.2503 53.696C21.2503 44.864 23.6823 41.312 29.1863 40.416C31.6503 40 34.9783 39.872 36.2903 39.2ZM25.0903 55.808C25.0903 58.784 26.5623 60.928 29.4743 60.928C32.0023 60.928 33.8903 59.584 33.8903 56.096C33.8903 52.768 32.3223 51.328 29.6343 51.328C26.8183 51.328 25.0903 52.832 25.0903 55.808ZM41.2095 70.176L41.2095 48H44.7295V51.328C45.3055 49.536 47.0015 47.68 50.3935 47.68C54.4575 47.68 57.3055 50.048 57.3055 55.648C57.3055 61.952 54.4575 64.352 50.0735 64.352C47.5135 64.352 45.7535 63.072 44.9535 61.568V70.176H41.2095ZM44.9535 55.328V56.544C44.9535 59.424 46.6175 61.056 49.2415 61.056C52.2495 61.056 53.5615 59.584 53.5615 55.808C53.5615 52.288 51.8655 51.008 49.3055 51.008C46.3615 51.008 45.0175 52.64 44.9535 55.328ZM61.0935 53.792V49.12C62.1495 48.32 64.0695 47.68 66.8215 47.68C71.4935 47.68 73.7975 49.28 73.7975 53.44V64H70.2775V61.12C69.5095 62.976 67.5575 64.256 64.9975 64.256C61.7655 64.256 59.8455 62.432 59.8455 59.296C59.8455 55.648 62.5015 54.624 66.4375 54.624H70.0535V53.92C70.0535 51.648 68.9655 50.944 66.8215 50.944C63.8775 50.944 62.1815 52.096 61.0935 53.792ZM66.1815 60.896C68.7095 60.896 69.8935 59.456 70.0535 58.368V57.056H66.8855C64.6775 57.056 63.6215 57.472 63.6215 58.912C63.6215 60.128 64.5175 60.896 66.1815 60.896ZM77.3158 62.368V58.528C78.2438 59.936 80.3558 61.056 83.3638 61.056C85.4758 61.056 86.8198 60.416 86.8198 59.072C86.8198 57.824 85.8918 57.312 83.7158 57.312H80.9638V54.592H83.2358C84.9638 54.592 86.1158 54.048 86.1158 52.704C86.1158 51.616 85.4118 50.976 83.4598 50.944C80.7718 50.944 78.8518 52.096 77.6038 53.792V49.12C78.8198 48.32 80.9958 47.68 83.4598 47.68H83.5878C88.0358 47.68 89.9238 49.312 89.9238 51.84C89.9238 53.856 88.8678 54.88 87.2678 55.552C89.4118 55.968 90.5958 57.056 90.5958 59.2C90.5958 62.56 87.6838 64.32 83.3638 64.32C80.5477 64.32 78.1158 63.264 77.3158 62.368ZM94.0533 64V48H97.7973V60.608H104.581V48H108.325V60.608H110.725V68.16H107.333V64H94.0533ZM120.783 64.352C115.791 64.352 112.559 61.536 112.559 55.936C112.559 50.4 115.919 47.648 120.911 47.648C125.871 47.68 129.103 50.496 129.103 56.064C129.103 61.6 125.743 64.32 120.783 64.352ZM116.367 55.936V56.032C116.367 59.552 118.031 61.088 120.847 61.088C123.695 61.088 125.295 59.456 125.295 56.064V55.968C125.295 52.448 123.599 50.912 120.783 50.912C117.935 50.944 116.367 52.576 116.367 55.936ZM132.553 64V48H140.617C144.425 48 145.929 49.312 145.929 51.712C145.929 53.632 144.905 54.944 143.177 55.36C145.225 55.616 146.729 56.544 146.729 59.264C146.729 62.336 144.713 64 140.521 64L132.553 64ZM136.297 60.896L140.169 60.896C142.153 60.896 143.017 60.288 143.017 59.008C143.017 57.6 142.121 57.152 140.393 57.152L136.297 57.152V60.896ZM136.297 54.464L139.721 54.464C141.193 54.464 142.185 53.984 142.185 52.64C142.185 51.456 141.353 51.104 139.753 51.104L136.297 51.136V54.464ZM169.18 64V51.296L162.204 51.296V64H158.46V48L172.924 48V64H169.18ZM184.595 64.352C179.604 64.352 176.372 61.536 176.372 55.936C176.372 50.4 179.732 47.648 184.724 47.648C189.684 47.68 192.916 50.496 192.916 56.064C192.916 61.6 189.556 64.32 184.595 64.352ZM180.18 55.936V56.032C180.18 59.552 181.844 61.088 184.66 61.088C187.508 61.088 189.108 59.456 189.108 56.064V55.968C189.108 52.448 187.412 50.912 184.595 50.912C181.748 50.944 180.18 52.576 180.18 55.936ZM194.261 60.608H196.117C197.013 58.304 197.557 55.136 197.557 49.824V48H209.845V60.608H212.277V68.16H208.885V64H197.653V68.16H194.261V60.608ZM201.045 51.68C200.949 55.36 200.629 58.112 199.733 60.608H206.101V51.296H201.045V51.68ZM225.898 64V51.296H218.922V64H215.178V48L229.642 48V64H225.898ZM234.21 64V48H237.922V58.848L245.602 48H249.154V64H245.442V53.024L237.762 64H234.21ZM266.446 62.4C265.742 63.296 263.726 64.352 261.134 64.352C256.014 64.352 252.622 61.536 252.622 55.936C252.622 50.432 256.078 47.68 261.166 47.648C263.31 47.68 265.23 48.32 266.286 49.12V53.792C265.198 52.096 263.502 50.944 261.166 50.912C258.094 50.912 256.43 52.544 256.43 55.776V56.256C256.43 59.552 258.222 61.088 261.23 61.088C263.886 61.088 265.646 59.968 266.446 58.56V62.4ZM282.676 62.4C281.908 63.296 279.7 64.352 276.788 64.32C271.508 64.352 268.372 61.44 268.372 55.936C268.372 50.624 271.7 47.648 276.532 47.648C281.172 47.68 283.956 50.528 283.956 55.552V57.088H272.084C272.372 59.744 274.004 61.088 276.916 61.088C279.86 61.088 281.812 59.968 282.676 58.56V62.4ZM276.436 50.912C274.036 50.912 272.532 52.128 272.148 54.432H280.212C280.116 52.256 278.708 50.912 276.436 50.912ZM287.429 64V48H291.141V58.848L298.821 48H302.373V64H298.661V53.024L290.981 64H287.429ZM297.029 40.032H300.485C300.485 43.648 297.797 44.992 295.045 44.992C291.877 44.992 289.285 43.648 289.285 40.032H292.741C292.741 41.376 293.413 42.208 294.981 42.208C296.261 42.208 297.029 41.632 297.029 40.032ZM325.961 64V51.296H318.985V64H315.241V48L329.705 48V64H325.961ZM334.241 70.176V48H337.761V51.328C338.337 49.536 340.033 47.68 343.425 47.68C347.489 47.68 350.337 50.048 350.337 55.648C350.337 61.952 347.489 64.352 343.105 64.352C340.545 64.352 338.785 63.072 337.985 61.568V70.176H334.241ZM337.985 55.328V56.544C337.985 59.424 339.649 61.056 342.273 61.056C345.281 61.056 346.593 59.584 346.593 55.808C346.593 52.288 344.897 51.008 342.337 51.008C339.393 51.008 338.049 52.64 337.985 55.328ZM353.773 64V48H357.485V58.848L365.165 48L368.717 48V64H365.005V53.024L357.325 64H353.773ZM380.785 62.368V58.528C381.713 59.936 383.825 61.056 386.833 61.056C388.945 61.056 390.289 60.416 390.289 59.072C390.289 57.824 389.361 57.312 387.185 57.312H384.433V54.592H386.705C388.433 54.592 389.585 54.048 389.585 52.704C389.585 51.616 388.881 50.976 386.929 50.944C384.241 50.944 382.321 52.096 381.073 53.792V49.12C382.289 48.32 384.465 47.68 386.929 47.68H387.057C391.505 47.68 393.393 49.312 393.393 51.84C393.393 53.856 392.337 54.88 390.737 55.552C392.881 55.968 394.065 57.056 394.065 59.2C394.065 62.56 391.153 64.32 386.833 64.32C384.016 64.32 381.585 63.264 380.785 62.368ZM397.906 53.792V49.12C398.962 48.32 400.882 47.68 403.634 47.68C408.306 47.68 410.61 49.28 410.61 53.44V64H407.09V61.12C406.322 62.976 404.37 64.256 401.81 64.256C398.578 64.256 396.658 62.432 396.658 59.296C396.658 55.648 399.314 54.624 403.25 54.624H406.866V53.92C406.866 51.648 405.778 50.944 403.634 50.944C400.69 50.944 398.994 52.096 397.906 53.792ZM402.994 60.896C405.522 60.896 406.706 59.456 406.866 58.368V57.056H403.698C401.49 57.056 400.434 57.472 400.434 58.912C400.434 60.128 401.33 60.896 402.994 60.896ZM414.928 64V48H426.416V51.296H418.672V64H414.928ZM430.053 70.176V48H433.573V51.328C434.149 49.536 435.845 47.68 439.237 47.68C443.301 47.68 446.149 50.048 446.149 55.648C446.149 61.952 443.301 64.352 438.917 64.352C436.357 64.352 434.597 63.072 433.797 61.568V70.176H430.053ZM433.797 55.328V56.544C433.797 59.424 435.461 61.056 438.085 61.056C441.093 61.056 442.405 59.584 442.405 55.808C442.405 52.288 440.709 51.008 438.149 51.008C435.205 51.008 433.861 52.64 433.797 55.328ZM453.885 64.064L447.133 48H451.325L455.709 58.976L459.293 48H463.26L456.861 65.696C455.453 69.536 454.013 70.4 451.901 70.4C450.909 70.4 449.821 70.112 449.341 69.696V66.208C449.821 66.688 450.557 67.008 451.261 67.008C452.413 67.008 453.277 66.24 453.885 64.064ZM465.128 62.368V58.528C466.056 59.936 468.168 61.056 471.176 61.056C473.288 61.056 474.632 60.416 474.632 59.072C474.632 57.824 473.704 57.312 471.528 57.312H468.776V54.592H471.048C472.776 54.592 473.928 54.048 473.928 52.704C473.928 51.616 473.224 50.976 471.272 50.944C468.584 50.944 466.664 52.096 465.416 53.792V49.12C466.632 48.32 468.808 47.68 471.272 47.68H471.4C475.848 47.68 477.736 49.312 477.736 51.84C477.736 53.856 476.68 54.88 475.08 55.552C477.224 55.968 478.408 57.056 478.408 59.2C478.408 62.56 475.496 64.32 471.176 64.32C468.36 64.32 465.928 63.264 465.128 62.368ZM481.866 64V48H485.61V54.24H488.202L492.682 48H496.842L491.242 55.552L497.738 64H493.194L488.17 57.376H485.61V64H481.866ZM513.051 62.4C512.283 63.296 510.075 64.352 507.163 64.32C501.883 64.352 498.747 61.44 498.747 55.936C498.747 50.624 502.075 47.648 506.907 47.648C511.547 47.68 514.331 50.528 514.331 55.552V57.088H502.459C502.747 59.744 504.379 61.088 507.291 61.088C510.235 61.088 512.187 59.968 513.051 58.56V62.4ZM506.811 50.912C504.411 50.912 502.907 52.128 502.523 54.432H510.587C510.491 52.256 509.083 50.912 506.811 50.912Z" fill="url(#paint0_linear_4384_514)"/>
<defs>
<linearGradient id="paint0_linear_4384_514" x1="10.796" y1="66.9542" x2="531.818" y2="66.9542" gradientUnits="userSpaceOnUse">
<stop stop-color="#DB32E1"/>
<stop offset="0.510417" stop-color="#7A4FDC"/>
<stop offset="1" stop-color="#3D51C2"/>
</linearGradient>
</defs>
</svg>
