<svg width="670" height="73" viewBox="0 0 670 73" fill="none" xmlns="http://www.w3.org/2000/svg">
<path d="M17.97 26V16.91L6.48 16.91L6.48 26H2.73L2.73 5L6.48 5L6.48 13.46H17.97L17.97 5L21.72 5L21.72 26H17.97ZM33.2829 26.33C28.6029 26.33 25.5729 23.69 25.5729 18.44C25.5729 13.25 28.7229 10.67 33.4029 10.67C38.0529 10.7 41.0829 13.34 41.0829 18.56C41.0829 23.75 37.9329 26.3 33.2829 26.33ZM29.1429 18.44V18.53C29.1429 21.83 30.7029 23.27 33.3429 23.27C36.0129 23.27 37.5129 21.74 37.5129 18.56V18.47C37.5129 15.17 35.9229 13.73 33.2829 13.73C30.6129 13.76 29.1429 15.29 29.1429 18.44ZM44.3175 26L44.3175 11H51.8775C55.4475 11 56.8575 12.23 56.8575 14.48C56.8575 16.28 55.8975 17.51 54.2775 17.9C56.1975 18.14 57.6075 19.01 57.6075 21.56C57.6075 24.44 55.7175 26 51.7875 26H44.3175ZM47.8275 23.09H51.4575C53.3175 23.09 54.1275 22.52 54.1275 21.32C54.1275 20 53.2875 19.58 51.6675 19.58H47.8275L47.8275 23.09ZM47.8275 17.06H51.0375C52.4175 17.06 53.3475 16.61 53.3475 15.35C53.3475 14.24 52.5675 13.91 51.0675 13.91L47.8275 13.94V17.06ZM67.5016 26.33C62.8216 26.33 59.7916 23.69 59.7916 18.44C59.7916 13.25 62.9416 10.67 67.6216 10.67C72.2716 10.7 75.3016 13.34 75.3016 18.56C75.3016 23.75 72.1516 26.3 67.5016 26.33ZM63.3616 18.44V18.53C63.3616 21.83 64.9216 23.27 67.5616 23.27C70.2316 23.27 71.7316 21.74 71.7316 18.56V18.47C71.7316 15.17 70.1416 13.73 67.5016 13.73C64.8316 13.76 63.3616 15.29 63.3616 18.44ZM90.4763 24.5C89.8163 25.34 87.9263 26.33 85.4963 26.33C80.6963 26.33 77.5163 23.69 77.5163 18.44C77.5163 13.28 80.7563 10.7 85.5263 10.67C87.5363 10.7 89.3363 11.3 90.3263 12.05V16.43C89.3063 14.84 87.7163 13.76 85.5263 13.73C82.6463 13.73 81.0863 15.26 81.0863 18.29V18.74C81.0863 21.83 82.7663 23.27 85.5863 23.27C88.0763 23.27 89.7263 22.22 90.4763 20.9V24.5ZM97.425 26V14.09H92.625V11L105.765 11V14.09L100.905 14.09V26H97.425ZM108.683 26V11H112.163V21.17L119.363 11H122.693V26H119.213V15.71L112.013 26L108.683 26Z" fill="white"/>
<path d="M154.07 19.07V23.69C153.02 24.95 150.26 26.33 146.63 26.33C139.79 26.3 135.23 22.25 135.23 15.47C135.23 9.14 139.73 4.67 146.69 4.67C149.99 4.67 152.42 5.69 153.65 6.56V11.78C152.39 9.92 149.84 8.12 146.69 8.12C142.1 8.12 139.28 11.09 139.28 15.5C139.28 19.58 141.77 22.79 146.6 22.88C150.26 22.88 152.84 21.2 154.07 19.07ZM169.897 2.75V6.35C169.297 6.68 167.587 6.95 165.127 7.16C160.327 7.61 159.247 9.5 158.857 13.79C160.027 12.11 161.857 11 164.557 11C168.247 11 171.307 12.86 171.307 18.29C171.307 23.6 168.487 26.3 163.747 26.3C158.647 26.3 155.797 23.27 155.797 16.34C155.797 8.06 158.077 4.73 163.237 3.89C165.547 3.5 168.667 3.38 169.897 2.75ZM159.397 18.32C159.397 21.11 160.777 23.12 163.507 23.12C165.877 23.12 167.647 21.86 167.647 18.59C167.647 15.47 166.177 14.12 163.657 14.12C161.017 14.12 159.397 15.53 159.397 18.32ZM186.899 24.5C186.179 25.34 184.109 26.33 181.379 26.3C176.429 26.33 173.489 23.6 173.489 18.44C173.489 13.46 176.609 10.67 181.139 10.67C185.489 10.7 188.099 13.37 188.099 18.08V19.52H176.969C177.239 22.01 178.769 23.27 181.499 23.27C184.259 23.27 186.089 22.22 186.899 20.9V24.5ZM181.049 13.73C178.799 13.73 177.389 14.87 177.029 17.03H184.589C184.499 14.99 183.179 13.73 181.049 13.73ZM191.325 31.79V11H194.625V14.12C195.165 12.44 196.755 10.7 199.935 10.7C203.745 10.7 206.415 12.92 206.415 18.17C206.415 24.08 203.745 26.33 199.635 26.33C197.235 26.33 195.585 25.13 194.835 23.72V31.79H191.325ZM194.835 17.87V19.01C194.835 21.71 196.395 23.24 198.855 23.24C201.675 23.24 202.905 21.86 202.905 18.32C202.905 15.02 201.315 13.82 198.915 13.82C196.155 13.82 194.895 15.35 194.835 17.87ZM213.957 16.91V26H210.207V5L213.957 5V13.82L217.107 13.82L223.857 5L228.417 5L220.407 14.99L229.707 26H224.907L217.287 16.91L213.957 16.91ZM232.349 16.43V12.05C233.339 11.3 235.139 10.7 237.719 10.7C242.099 10.7 244.259 12.2 244.259 16.1V26H240.959V23.3C240.239 25.04 238.409 26.24 236.009 26.24C232.979 26.24 231.179 24.53 231.179 21.59C231.179 18.17 233.669 17.21 237.359 17.21H240.749V16.55C240.749 14.42 239.729 13.76 237.719 13.76C234.959 13.76 233.369 14.84 232.349 16.43ZM237.119 23.09C239.489 23.09 240.599 21.74 240.749 20.72V19.49H237.779C235.709 19.49 234.719 19.88 234.719 21.23C234.719 22.37 235.559 23.09 237.119 23.09ZM247.558 24.47V20.87C248.428 22.19 250.408 23.24 253.228 23.24C255.208 23.24 256.468 22.64 256.468 21.38C256.468 20.21 255.598 19.73 253.558 19.73H250.978V17.18H253.108C254.728 17.18 255.808 16.67 255.808 15.41C255.808 14.39 255.148 13.79 253.318 13.76C250.798 13.76 248.998 14.84 247.828 16.43V12.05C248.968 11.3 251.008 10.7 253.318 10.7H253.438C257.608 10.7 259.378 12.23 259.378 14.6C259.378 16.49 258.388 17.45 256.888 18.08C258.898 18.47 260.008 19.49 260.008 21.5C260.008 24.65 257.278 26.3 253.228 26.3C250.588 26.3 248.308 25.31 247.558 24.47ZM273.539 26V19.94L266.759 19.94V26H263.249V11L266.759 11V16.85H273.539V11L277.049 11V26H273.539ZM281.656 16.43V12.05C282.646 11.3 284.446 10.7 287.026 10.7C291.406 10.7 293.566 12.2 293.566 16.1V26H290.266V23.3C289.546 25.04 287.716 26.24 285.316 26.24C282.286 26.24 280.486 24.53 280.486 21.59C280.486 18.17 282.976 17.21 286.666 17.21H290.056V16.55C290.056 14.42 289.036 13.76 287.026 13.76C284.266 13.76 282.676 14.84 281.656 16.43ZM286.426 23.09C288.796 23.09 289.906 21.74 290.056 20.72V19.49H287.086C285.016 19.49 284.026 19.88 284.026 21.23C284.026 22.37 284.866 23.09 286.426 23.09ZM306.704 26V20.72C305.654 21.32 304.214 21.59 302.834 21.59C299.234 21.59 297.074 19.97 297.074 16.37V11H300.584V15.83C300.584 17.63 301.604 18.47 303.464 18.47C304.664 18.47 305.804 18.23 306.704 17.78V11H310.214V26H306.704ZM326.85 24.5C326.13 25.34 324.06 26.33 321.33 26.3C316.38 26.33 313.44 23.6 313.44 18.44C313.44 13.46 316.56 10.67 321.09 10.67C325.44 10.7 328.05 13.37 328.05 18.08V19.52L316.92 19.52C317.19 22.01 318.72 23.27 321.45 23.27C324.21 23.27 326.04 22.22 326.85 20.9V24.5ZM321 13.73C318.75 13.73 317.34 14.87 316.98 17.03L324.54 17.03C324.45 14.99 323.13 13.73 321 13.73ZM331.306 26V11H334.786V21.17L341.986 11H345.316V26L341.836 26V15.71L334.636 26H331.306ZM340.306 3.53L343.546 3.53C343.546 6.92 341.026 8.18 338.446 8.18C335.476 8.18 333.046 6.92 333.046 3.53L336.286 3.53C336.286 4.79 336.916 5.57 338.386 5.57C339.586 5.57 340.306 5.03 340.306 3.53ZM361.527 24.5C360.867 25.34 358.977 26.33 356.547 26.33C351.747 26.33 348.567 23.69 348.567 18.44C348.567 13.28 351.807 10.7 356.577 10.67C358.587 10.7 360.387 11.3 361.377 12.05V16.43C360.357 14.84 358.767 13.76 356.577 13.73C353.697 13.73 352.137 15.26 352.137 18.29V18.74C352.137 21.83 353.817 23.27 356.637 23.27C359.127 23.27 360.777 22.22 361.527 20.9V24.5ZM368.476 26V14.09H363.676V11L376.816 11V14.09L371.956 14.09V26L368.476 26ZM379.704 26V11H387.264C390.834 11 392.244 12.23 392.244 14.48C392.244 16.28 391.284 17.51 389.664 17.9C391.584 18.14 392.994 19.01 392.994 21.56C392.994 24.44 391.104 26 387.174 26H379.704ZM383.214 23.09H386.844C388.704 23.09 389.514 22.52 389.514 21.32C389.514 20 388.674 19.58 387.054 19.58H383.214V23.09ZM383.214 17.06H386.424C387.804 17.06 388.734 16.61 388.734 15.35C388.734 14.24 387.954 13.91 386.454 13.91L383.214 13.94V17.06ZM396.558 16.43V12.05C397.548 11.3 399.348 10.7 401.928 10.7C406.308 10.7 408.468 12.2 408.468 16.1V26H405.168V23.3C404.448 25.04 402.618 26.24 400.218 26.24C397.188 26.24 395.388 24.53 395.388 21.59C395.388 18.17 397.878 17.21 401.568 17.21H404.958V16.55C404.958 14.42 403.938 13.76 401.928 13.76C399.168 13.76 397.578 14.84 396.558 16.43ZM401.328 23.09C403.698 23.09 404.808 21.74 404.958 20.72V19.49H401.988C399.918 19.49 398.928 19.88 398.928 21.23C398.928 22.37 399.768 23.09 401.328 23.09Z" fill="url(#paint0_linear_5645_1199)"/>
<defs>
<linearGradient id="paint0_linear_5645_1199" x1="143.277" y1="57.7553" x2="636.683" y2="57.7553" gradientUnits="userSpaceOnUse">
<stop stop-color="#DB32E1"/>
<stop offset="0.510417" stop-color="#7A4FDC"/>
<stop offset="1" stop-color="#3D51C2"/>
</linearGradient>
</defs>
</svg>
