<svg width="570" height="73" viewBox="0 0 570 73" fill="none" xmlns="http://www.w3.org/2000/svg">
<path d="M12.096 27H2.912L2.912 4.6L12.64 4.6C17.632 4.6 20.192 6.456 20.192 10.168C20.192 12.728 19.168 14.424 16.864 15.32C19.616 15.8 20.864 17.56 20.864 20.472C20.864 25.112 17.536 27 12.096 27ZM6.912 23.32L12.352 23.32C15.424 23.32 16.832 22.328 16.832 20.184C16.832 18.04 15.232 17.208 12.416 17.208L6.912 17.208L6.912 23.32ZM6.912 14.072H12.064C14.592 14.072 16.192 12.952 16.192 11.032C16.192 9.24 15.008 8.28 12.16 8.28H6.912L6.912 14.072ZM37.508 25.4C36.804 26.296 34.788 27.352 32.196 27.352C27.076 27.352 23.684 24.536 23.684 18.936C23.684 13.432 27.14 10.68 32.228 10.648C34.372 10.68 36.292 11.32 37.348 12.12V16.792C36.26 15.096 34.564 13.944 32.228 13.912C29.156 13.912 27.492 15.544 27.492 18.776V19.256C27.492 22.552 29.284 24.088 32.292 24.088C34.948 24.088 36.708 22.968 37.508 21.56V25.4ZM53.738 25.4C52.97 26.296 50.762 27.352 47.85 27.32C42.57 27.352 39.434 24.44 39.434 18.936C39.434 13.624 42.762 10.648 47.594 10.648C52.234 10.68 55.018 13.528 55.018 18.552L55.018 20.088H43.146C43.434 22.744 45.066 24.088 47.978 24.088C50.922 24.088 52.874 22.968 53.738 21.56V25.4ZM47.498 13.912C45.098 13.912 43.594 15.128 43.21 17.432H51.274C51.178 15.256 49.77 13.912 47.498 13.912ZM70.42 27V14.296L65.3 14.296V11L79.316 11V14.296H74.132V27H70.42ZM82.429 27V11H86.141V21.848L93.821 11H97.373V27H93.661V16.024L85.981 27L82.429 27ZM112.648 27V14.296H105.672V27H101.928V11L116.392 11V27H112.648ZM120.928 27V11H124.672V15.736H127.424C131.776 15.736 134.176 16.984 134.176 21.176C134.144 25.24 131.968 27 127.008 27H120.928ZM136 27V11H139.744V27H136ZM126.88 23.704C129.408 23.704 130.4 23.064 130.432 21.176C130.4 19.48 129.6 19.032 127.136 19.032H124.672V23.704H126.88ZM159.752 27.352C154.76 27.352 151.528 24.536 151.528 18.936C151.528 13.4 154.888 10.648 159.88 10.648C164.84 10.68 168.072 13.496 168.072 19.064C168.072 24.6 164.712 27.32 159.752 27.352ZM155.336 18.936V19.032C155.336 22.552 157 24.088 159.816 24.088C162.664 24.088 164.264 22.456 164.264 19.064V18.968C164.264 15.448 162.568 13.912 159.752 13.912C156.904 13.944 155.336 15.576 155.336 18.936ZM182.242 27V14.296L175.266 14.296V27H171.522V11L185.986 11V27L182.242 27ZM203.738 25.4C202.97 26.296 200.762 27.352 197.85 27.32C192.57 27.352 189.434 24.44 189.434 18.936C189.434 13.624 192.762 10.648 197.594 10.648C202.234 10.68 205.018 13.528 205.018 18.552V20.088H193.146C193.434 22.744 195.066 24.088 197.978 24.088C200.922 24.088 202.874 22.968 203.738 21.56V25.4ZM197.498 13.912C195.098 13.912 193.594 15.128 193.21 17.432H201.274C201.178 15.256 199.77 13.912 197.498 13.912ZM208.46 33.176V11H211.98V14.328C212.556 12.536 214.252 10.68 217.644 10.68C221.708 10.68 224.556 13.048 224.556 18.648C224.556 24.952 221.708 27.352 217.324 27.352C214.764 27.352 213.004 26.072 212.204 24.568V33.176H208.46ZM212.204 18.328V19.544C212.204 22.424 213.868 24.056 216.492 24.056C219.5 24.056 220.812 22.584 220.812 18.808C220.812 15.288 219.116 14.008 216.556 14.008C213.612 14.008 212.268 15.64 212.204 18.328ZM228.344 16.792V12.12C229.4 11.32 231.32 10.68 234.072 10.68C238.744 10.68 241.048 12.28 241.048 16.44V27H237.528V24.12C236.76 25.976 234.808 27.256 232.248 27.256C229.016 27.256 227.096 25.432 227.096 22.296C227.096 18.648 229.752 17.624 233.688 17.624H237.304V16.92C237.304 14.648 236.216 13.944 234.072 13.944C231.128 13.944 229.432 15.096 228.344 16.792ZM233.432 23.896C235.96 23.896 237.144 22.456 237.304 21.368V20.056H234.135C231.928 20.056 230.872 20.472 230.872 21.912C230.872 23.128 231.768 23.896 233.432 23.896ZM245.366 27V11H249.11V23.608H255.894V11H259.638V23.608H262.038V31.16H258.646V27L245.366 27ZM264.992 27V11H268.704V21.848L276.384 11H279.936V27H276.224V16.024L268.544 27H264.992ZM284.523 27V11L288.235 11V21.848L295.915 11L299.467 11V27H295.755V16.024L288.075 27H284.523ZM294.123 3.032L297.579 3.032C297.579 6.648 294.891 7.992 292.139 7.992C288.971 7.992 286.379 6.648 286.379 3.032L289.835 3.032C289.835 4.376 290.507 5.208 292.075 5.208C293.355 5.208 294.123 4.632 294.123 3.032ZM12.992 62L12.992 49.296H6.016L6.016 62H2.272L2.272 46H16.736L16.736 62H12.992ZM28.408 62.352C23.416 62.352 20.184 59.536 20.184 53.936C20.184 48.4 23.544 45.648 28.536 45.648C33.496 45.68 36.728 48.496 36.728 54.064C36.728 59.6 33.368 62.32 28.408 62.352ZM23.992 53.936V54.032C23.992 57.552 25.656 59.088 28.472 59.088C31.32 59.088 32.92 57.456 32.92 54.064V53.968C32.92 50.448 31.224 48.912 28.408 48.912C25.56 48.944 23.992 50.576 23.992 53.936ZM62.6028 37.2V41.04C61.9628 41.392 60.1388 41.68 57.5148 41.904C52.3948 42.384 51.2428 44.4 50.8268 48.976C52.0748 47.184 54.0268 46 56.9068 46C60.8428 46 64.1068 47.984 64.1068 53.776C64.1068 59.44 61.0988 62.32 56.0428 62.32C50.6028 62.32 47.5628 59.088 47.5628 51.696C47.5628 42.864 49.9948 39.312 55.4988 38.416C57.9628 38 61.2908 37.872 62.6028 37.2ZM51.4028 53.808C51.4028 56.784 52.8748 58.928 55.7868 58.928C58.3148 58.928 60.2028 57.584 60.2028 54.096C60.2028 50.768 58.6348 49.328 55.9468 49.328C53.1308 49.328 51.4028 50.832 51.4028 53.808ZM67.554 62V46H71.266V56.848L78.946 46H82.498V62H78.786V51.024L71.106 62H67.554ZM86.2533 60.368V56.528C87.1813 57.936 89.2933 59.056 92.3013 59.056C94.4133 59.056 95.7573 58.416 95.7573 57.072C95.7573 55.824 94.8293 55.312 92.6533 55.312H89.9013V52.592H92.1733C93.9013 52.592 95.0533 52.048 95.0533 50.704C95.0533 49.616 94.3493 48.976 92.3973 48.944C89.7093 48.944 87.7893 50.096 86.5413 51.792V47.12C87.7573 46.32 89.9333 45.68 92.3973 45.68H92.5253C96.9733 45.68 98.8613 47.312 98.8613 49.84C98.8613 51.856 97.8053 52.88 96.2053 53.552C98.3493 53.968 99.5333 55.056 99.5333 57.2C99.5333 60.56 96.6213 62.32 92.3013 62.32C89.4852 62.32 87.0533 61.264 86.2533 60.368ZM113.967 62V55.536H106.735V62H102.991V46H106.735V52.24H113.967V46H117.711V62H113.967ZM135.457 60.4C134.689 61.296 132.481 62.352 129.569 62.32C124.289 62.352 121.153 59.44 121.153 53.936C121.153 48.624 124.481 45.648 129.313 45.648C133.953 45.68 136.737 48.528 136.737 53.552V55.088H124.865C125.153 57.744 126.785 59.088 129.697 59.088C132.641 59.088 134.593 57.968 135.457 56.56V60.4ZM129.217 48.912C126.817 48.912 125.313 50.128 124.929 52.432H132.993C132.897 50.256 131.489 48.912 129.217 48.912ZM152.914 60.4C152.21 61.296 150.194 62.352 147.602 62.352C142.482 62.352 139.09 59.536 139.09 53.936C139.09 48.432 142.546 45.68 147.634 45.648C149.778 45.68 151.698 46.32 152.754 47.12V51.792C151.666 50.096 149.97 48.944 147.634 48.912C144.562 48.912 142.898 50.544 142.898 53.776V54.256C142.898 57.552 144.69 59.088 147.698 59.088C150.354 59.088 152.114 57.968 152.914 56.56V60.4ZM156.591 54.288V50.832H165.167V54.288H156.591ZM169.991 62V46L173.735 46V52.24H176.327L180.807 46H184.967L179.367 53.552L185.863 62H181.319L176.295 55.376H173.735V62L169.991 62ZM188.844 51.792V47.12C189.9 46.32 191.82 45.68 194.572 45.68C199.244 45.68 201.548 47.28 201.548 51.44V62H198.028V59.12C197.26 60.976 195.308 62.256 192.748 62.256C189.516 62.256 187.596 60.432 187.596 57.296C187.596 53.648 190.252 52.624 194.188 52.624H197.804V51.92C197.804 49.648 196.716 48.944 194.572 48.944C191.628 48.944 189.932 50.096 188.844 51.792ZM193.932 58.896C196.46 58.896 197.644 57.456 197.804 56.368V55.056H194.635C192.428 55.056 191.372 55.472 191.372 56.912C191.372 58.128 192.268 58.896 193.932 58.896ZM205.866 68.176V46H209.386V49.328C209.962 47.536 211.658 45.68 215.05 45.68C219.114 45.68 221.962 48.048 221.962 53.648C221.962 59.952 219.114 62.352 214.73 62.352C212.17 62.352 210.41 61.072 209.61 59.568V68.176H205.866ZM209.61 53.328V54.544C209.61 57.424 211.274 59.056 213.898 59.056C216.906 59.056 218.218 57.584 218.218 53.808C218.218 50.288 216.522 49.008 213.962 49.008C211.018 49.008 209.674 50.64 209.61 53.328ZM229.014 62V49.296H223.894V46H237.91V49.296H232.726V62H229.014ZM241.094 51.792V47.12C242.15 46.32 244.07 45.68 246.822 45.68C251.494 45.68 253.798 47.28 253.798 51.44V62H250.278V59.12C249.51 60.976 247.558 62.256 244.998 62.256C241.766 62.256 239.846 60.432 239.846 57.296C239.846 53.648 242.502 52.624 246.438 52.624H250.054V51.92C250.054 49.648 248.966 48.944 246.822 48.944C243.878 48.944 242.182 50.096 241.094 51.792ZM246.182 58.896C248.71 58.896 249.894 57.456 250.054 56.368V55.056H246.885C244.678 55.056 243.622 55.472 243.622 56.912C243.622 58.128 244.518 58.896 246.182 58.896ZM272.292 62V51.248L267.684 58.032H266.5L261.86 51.216V62H258.116V46H261.988L267.204 53.488L272.26 46H276.036V62H272.292Z" fill="white"/>
<path d="M302.248 62V55.536H295.016V62H291.272V46H295.016V52.24H302.248V46L305.992 46V62H302.248ZM310.906 51.792V47.12C311.962 46.32 313.882 45.68 316.634 45.68C321.306 45.68 323.61 47.28 323.61 51.44V62H320.09V59.12C319.322 60.976 317.37 62.256 314.81 62.256C311.578 62.256 309.658 60.432 309.658 57.296C309.658 53.648 312.314 52.624 316.25 52.624L319.866 52.624V51.92C319.866 49.648 318.778 48.944 316.634 48.944C313.69 48.944 311.994 50.096 310.906 51.792ZM315.994 58.896C318.522 58.896 319.706 57.456 319.866 56.368V55.056L316.698 55.056C314.49 55.056 313.434 55.472 313.434 56.912C313.434 58.128 314.33 58.896 315.994 58.896ZM352.817 62V43.28H340.881V62H336.881V39.6L356.817 39.6V62L352.817 62ZM378.567 62V43.28L366.631 43.28V62H362.631V39.6L382.567 39.6V62H378.567ZM395.837 55.024H392.381V62H388.381V39.6H395.837C402.909 39.6 405.917 42.128 405.917 47.184C405.917 52.4 402.397 55.024 395.837 55.024ZM396.189 43.28H392.381V51.344H396.125C399.837 51.344 401.757 50.128 401.757 47.088C401.757 44.336 400.093 43.28 396.189 43.28ZM410.318 62V39.6L426.222 39.6V43.28L414.318 43.28V47.28H418.702C424.846 47.28 427.982 49.584 427.982 54.512C427.982 59.44 424.334 62 418.606 62L410.318 62ZM418.574 50.96H414.318V58.32L418.574 58.32C421.774 58.32 423.822 57.392 423.822 54.416C423.822 51.728 422.03 50.96 418.574 50.96Z" fill="url(#paint0_linear_5529_1474)"/>
<defs>
<linearGradient id="paint0_linear_5529_1474" x1="293.861" y1="64.9542" x2="552.383" y2="64.9542" gradientUnits="userSpaceOnUse">
<stop stop-color="#DB32E1"/>
<stop offset="0.510417" stop-color="#7A4FDC"/>
<stop offset="1" stop-color="#3D51C2"/>
</linearGradient>
</defs>
</svg>
