<svg width="567" height="84" viewBox="0 0 567 84" fill="none" xmlns="http://www.w3.org/2000/svg">
<path d="M1.558 19.662C1.558 11.644 7.144 5.982 15.808 5.982C24.358 6.02 30.058 11.15 30.058 19.738C30.058 27.756 24.472 33.418 15.808 33.418C7.258 33.418 1.558 28.288 1.558 19.662ZM6.574 19.7C6.574 24.906 9.766 29.01 15.846 29.048C21.508 29.048 25.042 25.286 25.042 19.7C25.042 14.494 21.85 10.39 15.77 10.352C10.07 10.39 6.574 14.152 6.574 19.7ZM38.7214 33L38.7214 17.914L32.6414 17.914V14L49.2854 14V17.914H43.1294L43.1294 33H38.7214ZM52.9441 33L52.9441 14L57.3901 14L57.3901 21.41H60.4681L65.7881 14L70.7281 14L64.0781 22.968L71.7921 33H66.3961L60.4301 25.134H57.3901V33H52.9441ZM75.0242 40.334L75.0242 14H79.2042V17.952C79.8882 15.824 81.9022 13.62 85.9302 13.62C90.7562 13.62 94.1382 16.432 94.1382 23.082C94.1382 30.568 90.7562 33.418 85.5502 33.418C82.5102 33.418 80.4202 31.898 79.4702 30.112L79.4702 40.334H75.0242ZM79.4702 22.702V24.146C79.4702 27.566 81.4462 29.504 84.5622 29.504C88.1342 29.504 89.6922 27.756 89.6922 23.272C89.6922 19.092 87.6782 17.572 84.6382 17.572C81.1422 17.572 79.5462 19.51 79.4702 22.702ZM98.1804 33V14H102.626V19.624H105.894C111.062 19.624 113.912 21.106 113.912 26.084C113.874 30.91 111.29 33 105.4 33H98.1804ZM116.078 33V14H120.524V33H116.078ZM105.248 29.086C108.25 29.086 109.428 28.326 109.466 26.084C109.428 24.07 108.478 23.538 105.552 23.538H102.626V29.086H105.248ZM125.938 33V14L135.514 14C140.036 14 141.822 15.558 141.822 18.408C141.822 20.688 140.606 22.246 138.554 22.74C140.986 23.044 142.772 24.146 142.772 27.376C142.772 31.024 140.378 33 135.4 33H125.938ZM130.384 29.314L134.982 29.314C137.338 29.314 138.364 28.592 138.364 27.072C138.364 25.4 137.3 24.868 135.248 24.868L130.384 24.868V29.314ZM130.384 21.676L134.45 21.676C136.198 21.676 137.376 21.106 137.376 19.51C137.376 18.104 136.388 17.686 134.488 17.686L130.384 17.724V21.676ZM147.287 20.878V15.33C148.541 14.38 150.821 13.62 154.089 13.62C159.637 13.62 162.373 15.52 162.373 20.46V33H158.193V29.58C157.281 31.784 154.963 33.304 151.923 33.304C148.085 33.304 145.805 31.138 145.805 27.414C145.805 23.082 148.959 21.866 153.633 21.866H157.927V21.03C157.927 18.332 156.635 17.496 154.089 17.496C150.593 17.496 148.579 18.864 147.287 20.878ZM153.329 29.314C156.331 29.314 157.737 27.604 157.927 26.312V24.754H154.165C151.543 24.754 150.289 25.248 150.289 26.958C150.289 28.402 151.353 29.314 153.329 29.314ZM183.195 31.1C182.283 32.164 179.661 33.418 176.203 33.38C169.933 33.418 166.209 29.96 166.209 23.424C166.209 17.116 170.161 13.582 175.899 13.582C181.409 13.62 184.715 17.002 184.715 22.968V24.792L170.617 24.792C170.959 27.946 172.897 29.542 176.355 29.542C179.851 29.542 182.169 28.212 183.195 26.54V31.1ZM175.785 17.458C172.935 17.458 171.149 18.902 170.693 21.638H180.269C180.155 19.054 178.483 17.458 175.785 17.458ZM205.636 33V20.232L200.164 28.288H198.758L193.248 20.194V33H188.802V14L193.4 14L199.594 22.892L205.598 14H210.082V33H205.636ZM240.478 31.1C239.642 32.164 237.248 33.418 234.17 33.418C228.09 33.418 224.062 30.074 224.062 23.424C224.062 16.888 228.166 13.62 234.208 13.582C236.754 13.62 239.034 14.38 240.288 15.33V20.878C238.996 18.864 236.982 17.496 234.208 17.458C230.56 17.458 228.584 19.396 228.584 23.234V23.804C228.584 27.718 230.712 29.542 234.284 29.542C237.438 29.542 239.528 28.212 240.478 26.54V31.1ZM256.054 33V26.312C254.724 27.072 252.9 27.414 251.152 27.414C246.592 27.414 243.856 25.362 243.856 20.802V14H248.302V20.118C248.302 22.398 249.594 23.462 251.95 23.462C253.47 23.462 254.914 23.158 256.054 22.588V14H260.5V33H256.054ZM281.572 31.1C280.66 32.164 278.038 33.418 274.58 33.38C268.31 33.418 264.586 29.96 264.586 23.424C264.586 17.116 268.538 13.582 274.276 13.582C279.786 13.62 283.092 17.002 283.092 22.968V24.792L268.994 24.792C269.336 27.946 271.274 29.542 274.732 29.542C278.228 29.542 280.546 28.212 281.572 26.54V31.1ZM274.162 17.458C271.312 17.458 269.526 18.902 269.07 21.638H278.646C278.532 19.054 276.86 17.458 274.162 17.458ZM275.834 6.78C275.834 5.336 276.86 4.348 278.456 4.348C280.052 4.348 281.078 5.336 281.078 6.78C281.078 8.3 280.052 9.326 278.456 9.326C276.86 9.326 275.834 8.3 275.834 6.78ZM267.588 6.78C267.588 5.336 268.614 4.348 270.21 4.348C271.806 4.348 272.832 5.336 272.832 6.78C272.832 8.3 271.806 9.326 270.21 9.326C268.614 9.326 267.588 8.3 267.588 6.78ZM291.51 33V17.914H285.43V14L302.074 14V17.914H295.918V33H291.51ZM321.114 6.4V26.274L335.63 6.4L340.798 6.4V33H336.048V12.822L321.456 33L316.364 33V6.4L321.114 6.4ZM366.646 33V10.77L352.472 10.77V33H347.722V6.4L371.396 6.4V33H366.646Z" fill="white"/>
<path d="M2.61 71.215L2.61 67.015C3.625 68.555 5.935 69.78 9.225 69.78C11.535 69.78 13.005 69.08 13.005 67.61C13.005 66.245 11.99 65.685 9.61 65.685H6.6L6.6 62.71H9.085C10.975 62.71 12.235 62.115 12.235 60.645C12.235 59.455 11.465 58.755 9.33 58.72C6.39 58.72 4.29 59.98 2.925 61.835L2.925 56.725C4.255 55.85 6.635 55.15 9.33 55.15H9.47C14.335 55.15 16.4 56.935 16.4 59.7C16.4 61.905 15.245 63.025 13.495 63.76C15.84 64.215 17.135 65.405 17.135 67.75C17.135 71.425 13.95 73.35 9.225 73.35C6.145 73.35 3.485 72.195 2.61 71.215ZM21.3366 61.835V56.725C22.4916 55.85 24.5916 55.15 27.6016 55.15C32.7116 55.15 35.2316 56.9 35.2316 61.45L35.2316 73H31.3816L31.3816 69.85C30.5416 71.88 28.4066 73.28 25.6066 73.28C22.0716 73.28 19.9716 71.285 19.9716 67.855C19.9716 63.865 22.8766 62.745 27.1816 62.745H31.1366V61.975C31.1366 59.49 29.9466 58.72 27.6016 58.72C24.3816 58.72 22.5266 59.98 21.3366 61.835ZM26.9016 69.605C29.6666 69.605 30.9616 68.03 31.1366 66.84V65.405H27.6716C25.2566 65.405 24.1016 65.86 24.1016 67.435C24.1016 68.765 25.0816 69.605 26.9016 69.605ZM49.0815 50.635C50.2715 49.445 52.9315 48.185 56.6065 48.185C61.6815 48.22 64.4115 50.565 64.4115 54.415C64.4115 57.32 62.7665 59.315 60.2465 60.225C63.5015 60.82 65.3215 62.745 65.3215 66.07C65.3215 70.13 62.3465 73.21 56.3615 73.28C52.6165 73.28 49.9215 71.845 48.9065 70.795V66.14C50.4465 67.925 53.0715 69.15 56.2915 69.115C59.5465 69.08 61.2615 67.75 61.2615 65.615C61.2615 63.305 59.8265 62.15 56.0465 62.15H53.2815V59H55.3115C58.5315 59 60.3165 57.95 60.3165 55.605C60.3165 53.365 58.8815 52.35 56.0115 52.35C53.0015 52.42 50.6915 53.435 49.0815 55.29V50.635ZM94.1511 73V61.24L89.1111 68.66H87.8161L82.7411 61.205V73H78.6461V55.5H82.8811L88.5861 63.69L94.1161 55.5H98.2461V73H94.1511ZM103.256 73V55.5H107.316V67.365L115.716 55.5H119.601V73H115.541V60.995L107.141 73H103.256ZM136.589 73V65.93H128.679V73H124.584V55.5H128.679V62.325H136.589V55.5H140.684V73L136.589 73ZM150.888 73.07L143.503 55.5H148.088L152.883 67.505L156.803 55.5H161.143L154.143 74.855C152.603 79.055 151.028 80 148.718 80C147.633 80 146.443 79.685 145.918 79.23V75.415C146.443 75.94 147.248 76.29 148.018 76.29C149.278 76.29 150.223 75.45 150.888 73.07ZM169.008 73V59.105H163.408V55.5L178.738 55.5V59.105H173.068V73H169.008ZM182.108 73V55.5H186.203V60.68H189.213C193.973 60.68 196.598 62.045 196.598 66.63C196.563 71.075 194.183 73 188.758 73H182.108ZM198.593 73V55.5H202.688V73H198.593ZM188.618 69.395C191.383 69.395 192.468 68.695 192.503 66.63C192.468 64.775 191.593 64.285 188.898 64.285H186.203V69.395H188.618ZM232.201 45.875V50.075C231.501 50.46 229.506 50.775 226.636 51.02C221.036 51.545 219.776 53.75 219.321 58.755C220.686 56.795 222.821 55.5 225.971 55.5C230.276 55.5 233.846 57.67 233.846 64.005C233.846 70.2 230.556 73.35 225.026 73.35C219.076 73.35 215.751 69.815 215.751 61.73C215.751 52.07 218.411 48.185 224.431 47.205C227.126 46.75 230.766 46.61 232.201 45.875ZM219.951 64.04C219.951 67.295 221.561 69.64 224.746 69.64C227.511 69.64 229.576 68.17 229.576 64.355C229.576 60.715 227.861 59.14 224.921 59.14C221.841 59.14 219.951 60.785 219.951 64.04ZM252.037 71.25C251.197 72.23 248.782 73.385 245.597 73.35C239.822 73.385 236.392 70.2 236.392 64.18C236.392 58.37 240.032 55.115 245.317 55.115C250.392 55.15 253.437 58.265 253.437 63.76V65.44H240.452C240.767 68.345 242.552 69.815 245.737 69.815C248.957 69.815 251.092 68.59 252.037 67.05V71.25ZM245.212 58.685C242.587 58.685 240.942 60.015 240.522 62.535H249.342C249.237 60.155 247.697 58.685 245.212 58.685ZM256.087 71.215V67.015C257.102 68.555 259.412 69.78 262.702 69.78C265.012 69.78 266.482 69.08 266.482 67.61C266.482 66.245 265.467 65.685 263.087 65.685L260.077 65.685V62.71L262.562 62.71C264.452 62.71 265.712 62.115 265.712 60.645C265.712 59.455 264.942 58.755 262.807 58.72C259.867 58.72 257.767 59.98 256.402 61.835V56.725C257.732 55.85 260.112 55.15 262.807 55.15H262.947C267.812 55.15 269.877 56.935 269.877 59.7C269.877 61.905 268.722 63.025 266.972 63.76C269.317 64.215 270.612 65.405 270.612 67.75C270.612 71.425 267.427 73.35 262.702 73.35C259.622 73.35 256.962 72.195 256.087 71.215ZM283.485 73V55.5H292.305C296.47 55.5 298.115 56.935 298.115 59.56C298.115 61.66 296.995 63.095 295.105 63.55C297.345 63.83 298.99 64.845 298.99 67.82C298.99 71.18 296.785 73 292.2 73H283.485ZM287.58 69.605H291.815C293.985 69.605 294.93 68.94 294.93 67.54C294.93 66 293.95 65.51 292.06 65.51H287.58V69.605ZM287.58 62.57H291.325C292.935 62.57 294.02 62.045 294.02 60.575C294.02 59.28 293.11 58.895 291.36 58.895L287.58 58.93V62.57ZM302.763 73V55.5H306.823V67.365L315.223 55.5H319.108V73H315.048V60.995L306.648 73H302.763ZM323.215 71.215V67.015C324.23 68.555 326.54 69.78 329.83 69.78C332.14 69.78 333.61 69.08 333.61 67.61C333.61 66.245 332.595 65.685 330.215 65.685H327.205V62.71H329.69C331.58 62.71 332.84 62.115 332.84 60.645C332.84 59.455 332.07 58.755 329.935 58.72C326.995 58.72 324.895 59.98 323.53 61.835V56.725C324.86 55.85 327.24 55.15 329.935 55.15H330.075C334.94 55.15 337.005 56.935 337.005 59.7C337.005 61.905 335.85 63.025 334.1 63.76C336.445 64.215 337.74 65.405 337.74 67.75C337.74 71.425 334.555 73.35 329.83 73.35C326.75 73.35 324.09 72.195 323.215 71.215ZM341.557 73V55.5H345.617V67.365L354.017 55.5H357.902V73H353.842V60.995L345.442 73H341.557ZM366.874 73V59.105H361.274V55.5L376.604 55.5V59.105H370.934V73H366.874ZM380.087 61.835V56.725C381.242 55.85 383.342 55.15 386.352 55.15C391.462 55.15 393.982 56.9 393.982 61.45V73H390.132V69.85C389.292 71.88 387.157 73.28 384.357 73.28C380.822 73.28 378.722 71.285 378.722 67.855C378.722 63.865 381.627 62.745 385.932 62.745H389.887V61.975C389.887 59.49 388.697 58.72 386.352 58.72C383.132 58.72 381.277 59.98 380.087 61.835ZM385.652 69.605C388.417 69.605 389.712 68.03 389.887 66.84V65.405H386.422C384.007 65.405 382.852 65.86 382.852 67.435C382.852 68.765 383.832 69.605 385.652 69.605ZM407.797 73V55.5H416.617C420.782 55.5 422.427 56.935 422.427 59.56C422.427 61.66 421.307 63.095 419.417 63.55C421.657 63.83 423.302 64.845 423.302 67.82C423.302 71.18 421.097 73 416.512 73H407.797ZM411.892 69.605H416.127C418.297 69.605 419.242 68.94 419.242 67.54C419.242 66 418.262 65.51 416.372 65.51H411.892V69.605ZM411.892 62.57H415.637C417.247 62.57 418.332 62.045 418.332 60.575C418.332 59.28 417.422 58.895 415.672 58.895L411.892 58.93V62.57ZM451.566 45.875V50.075C450.866 50.46 448.871 50.775 446.001 51.02C440.401 51.545 439.141 53.75 438.686 58.755C440.051 56.795 442.186 55.5 445.336 55.5C449.641 55.5 453.211 57.67 453.211 64.005C453.211 70.2 449.921 73.35 444.391 73.35C438.441 73.35 435.116 69.815 435.116 61.73C435.116 52.07 437.776 48.185 443.796 47.205C446.491 46.75 450.131 46.61 451.566 45.875ZM439.316 64.04C439.316 67.295 440.926 69.64 444.111 69.64C446.876 69.64 448.941 68.17 448.941 64.355C448.941 60.715 447.226 59.14 444.286 59.14C441.206 59.14 439.316 60.785 439.316 64.04ZM457.367 61.835V56.725C458.522 55.85 460.622 55.15 463.632 55.15C468.742 55.15 471.262 56.9 471.262 61.45V73H467.412V69.85C466.572 71.88 464.437 73.28 461.637 73.28C458.102 73.28 456.002 71.285 456.002 67.855C456.002 63.865 458.907 62.745 463.212 62.745H467.167V61.975C467.167 59.49 465.977 58.72 463.632 58.72C460.412 58.72 458.557 59.98 457.367 61.835ZM462.932 69.605C465.697 69.605 466.992 68.03 467.167 66.84V65.405H463.702C461.287 65.405 460.132 65.86 460.132 67.435C460.132 68.765 461.112 69.605 462.932 69.605ZM487.99 73V65.93H480.08V73H475.985V55.5H480.08V62.325H487.99V55.5H492.085V73H487.99ZM497.04 73V55.5H501.135V62.325H503.97L508.87 55.5H513.42L507.295 63.76L514.4 73H509.43L503.935 65.755H501.135V73H497.04Z" fill="url(#paint0_linear_271_10724)"/>
<defs>
<linearGradient id="paint0_linear_271_10724" x1="10.796" y1="75.319" x2="531.818" y2="75.319" gradientUnits="userSpaceOnUse">
<stop stop-color="#DB32E1"/>
<stop offset="0.510417" stop-color="#7A4FDC"/>
<stop offset="1" stop-color="#3D51C2"/>
</linearGradient>
</defs>
</svg>
