<svg width="524" height="84" viewBox="0 0 524 84" fill="none" xmlns="http://www.w3.org/2000/svg">
<path d="M8.208 6.4L8.208 26.274L22.724 6.4L27.892 6.4L27.892 33L23.142 33L23.142 12.822L8.55 33H3.458L3.458 6.4H8.208ZM47.0894 33V25.324H38.5014V33H34.0554L34.0554 14H38.5014L38.5014 21.41H47.0894L47.0894 14H51.5354L51.5354 33H47.0894ZM56.9148 33L56.9148 14H61.3608L61.3608 21.41H64.4388L69.7588 14H74.6988L68.0488 22.968L75.7628 33L70.3668 33L64.4008 25.134H61.3608V33H56.9148ZM79.3024 20.878V15.33C80.5564 14.38 82.8364 13.62 86.1044 13.62C91.6524 13.62 94.3884 15.52 94.3884 20.46V33H90.2084V29.58C89.2964 31.784 86.9784 33.304 83.9384 33.304C80.1004 33.304 77.8204 31.138 77.8204 27.414C77.8204 23.082 80.9744 21.866 85.6484 21.866H89.9424V21.03C89.9424 18.332 88.6504 17.496 86.1044 17.496C82.6084 17.496 80.5944 18.864 79.3024 20.878ZM85.3444 29.314C88.3464 29.314 89.7524 27.604 89.9424 26.312V24.754H86.1804C83.5584 24.754 82.3044 25.248 82.3044 26.958C82.3044 28.402 83.3684 29.314 85.3444 29.314ZM114.64 31.1C113.804 32.164 111.41 33.418 108.332 33.418C102.252 33.418 98.2244 30.074 98.2244 23.424C98.2244 16.888 102.328 13.62 108.37 13.582C110.916 13.62 113.196 14.38 114.45 15.33V20.878C113.158 18.864 111.144 17.496 108.37 17.458C104.722 17.458 102.746 19.396 102.746 23.234V23.804C102.746 27.718 104.874 29.542 108.446 29.542C111.6 29.542 113.69 28.212 114.64 26.54V31.1ZM133.343 31.1C132.507 32.164 130.113 33.418 127.035 33.418C120.955 33.418 116.927 30.074 116.927 23.424C116.927 16.888 121.031 13.62 127.073 13.582C129.619 13.62 131.899 14.38 133.153 15.33V20.878C131.861 18.864 129.847 17.496 127.073 17.458C123.425 17.458 121.449 19.396 121.449 23.234V23.804C121.449 27.718 123.577 29.542 127.149 29.542C130.303 29.542 132.393 28.212 133.343 26.54V31.1ZM137.861 20.878V15.33C139.115 14.38 141.395 13.62 144.663 13.62C150.211 13.62 152.947 15.52 152.947 20.46V33H148.767V29.58C147.855 31.784 145.537 33.304 142.497 33.304C138.659 33.304 136.379 31.138 136.379 27.414C136.379 23.082 139.533 21.866 144.207 21.866H148.501V21.03C148.501 18.332 147.209 17.496 144.663 17.496C141.167 17.496 139.153 18.864 137.861 20.878ZM143.903 29.314C146.905 29.314 148.311 27.604 148.501 26.312V24.754H144.739C142.117 24.754 140.863 25.248 140.863 26.958C140.863 28.402 141.927 29.314 143.903 29.314ZM158.075 33V14H162.521V28.972H170.577V14H175.023V28.972H177.873V37.94H173.845V33L158.075 33ZM181.381 33V14H185.789V26.882L194.909 14H199.127V33H194.719V19.966L185.599 33H181.381ZM216.088 33V26.73H211.68L207.842 33H202.94L207.348 26.122C205.106 25.21 203.89 23.348 203.89 20.878C203.89 16.128 206.55 14 212.44 14L220.534 14V33L216.088 33ZM212.554 17.914C209.59 17.914 208.336 18.674 208.336 20.878C208.374 22.436 209.4 23.31 211.718 23.31H216.088V17.914H212.554Z" fill="white"/>
<path d="M3.698 75L3.698 56H13.274C17.796 56 19.582 57.558 19.582 60.408C19.582 62.688 18.366 64.246 16.314 64.74C18.746 65.044 20.532 66.146 20.532 69.376C20.532 73.024 18.138 75 13.16 75H3.698ZM8.144 71.314H12.742C15.098 71.314 16.124 70.592 16.124 69.072C16.124 67.4 15.06 66.868 13.008 66.868H8.144L8.144 71.314ZM8.144 63.676H12.21C13.958 63.676 15.136 63.106 15.136 61.51C15.136 60.104 14.148 59.686 12.248 59.686L8.144 59.724V63.676ZM34.4617 75L34.4617 56H38.9077L38.9077 63.41H41.9857L47.3057 56H52.2457L45.5957 64.968L53.3097 75H47.9137L41.9477 67.134H38.9077V75H34.4617ZM56.8493 62.878L56.8493 57.33C58.1033 56.38 60.3833 55.62 63.6513 55.62C69.1993 55.62 71.9353 57.52 71.9353 62.46V75H67.7553V71.58C66.8433 73.784 64.5253 75.304 61.4853 75.304C57.6473 75.304 55.3673 73.138 55.3673 69.414C55.3673 65.082 58.5213 63.866 63.1953 63.866H67.4893V63.03C67.4893 60.332 66.1973 59.496 63.6513 59.496C60.1553 59.496 58.1413 60.864 56.8493 62.878ZM62.8913 71.314C65.8933 71.314 67.2993 69.604 67.4893 68.312V66.754H63.7273C61.1053 66.754 59.8513 67.248 59.8513 68.958C59.8513 70.402 60.9153 71.314 62.8913 71.314ZM90.0972 75V67.324H81.5092V75H77.0632V56H81.5092V63.41H90.0972V56H94.5432V75H90.0972ZM100.379 62.878V57.33C101.633 56.38 103.913 55.62 107.181 55.62C112.729 55.62 115.465 57.52 115.465 62.46V75H111.285V71.58C110.373 73.784 108.055 75.304 105.015 75.304C101.177 75.304 98.8966 73.138 98.8966 69.414C98.8966 65.082 102.051 63.866 106.725 63.866H111.019V63.03C111.019 60.332 109.727 59.496 107.181 59.496C103.685 59.496 101.671 60.864 100.379 62.878ZM106.421 71.314C109.423 71.314 110.829 69.604 111.019 68.312V66.754H107.257C104.635 66.754 103.381 67.248 103.381 68.958C103.381 70.402 104.445 71.314 106.421 71.314ZM132.905 75V59.914H126.749L126.635 62.308C126.141 74.164 123.253 75.228 120.289 75.228C119.567 75.228 118.807 75.152 118.427 75.038V70.44C118.769 70.554 119.111 70.592 119.415 70.592C121.049 70.592 122.379 70.06 122.645 60.142L122.797 56L137.313 56V75H132.905ZM158.441 73.1C157.529 74.164 154.907 75.418 151.449 75.38C145.179 75.418 141.455 71.96 141.455 65.424C141.455 59.116 145.407 55.582 151.145 55.582C156.655 55.62 159.961 59.002 159.961 64.968V66.792H145.863C146.205 69.946 148.143 71.542 151.601 71.542C155.097 71.542 157.415 70.212 158.441 68.54V73.1ZM151.031 59.458C148.181 59.458 146.395 60.902 145.939 63.638H155.515C155.401 61.054 153.729 59.458 151.031 59.458ZM183.533 66.716H179.429V75H174.679V48.4H183.533C191.931 48.4 195.503 51.402 195.503 57.406C195.503 63.6 191.323 66.716 183.533 66.716ZM183.951 52.77H179.429V62.346H183.875C188.283 62.346 190.563 60.902 190.563 57.292C190.563 54.024 188.587 52.77 183.951 52.77ZM225.163 75V55.012L216.613 69.148H214.219L205.479 55.202V75H200.729V48.4H206.733L215.549 62.878L224.289 48.4L229.913 48.4V75H225.163ZM244.808 61.662C244.808 53.644 250.394 47.982 259.058 47.982C267.608 48.02 273.308 53.15 273.308 61.738C273.308 69.756 267.722 75.418 259.058 75.418C250.508 75.418 244.808 70.288 244.808 61.662ZM249.824 61.7C249.824 66.906 253.016 71.01 259.096 71.048C264.758 71.048 268.292 67.286 268.292 61.7C268.292 56.494 265.1 52.39 259.02 52.352C253.32 52.39 249.824 56.152 249.824 61.7ZM278.288 75V48.4H283.038V70.63H296.756V48.4H301.506V70.63H304.584V79.94H300.138V75H278.288Z" fill="url(#paint0_linear_271_10746)"/>
<defs>
<linearGradient id="paint0_linear_271_10746" x1="10.0517" y1="75.319" x2="491.491" y2="75.319" gradientUnits="userSpaceOnUse">
<stop stop-color="#DB32E1"/>
<stop offset="0.510417" stop-color="#7A4FDC"/>
<stop offset="1" stop-color="#3D51C2"/>
</linearGradient>
</defs>
</svg>
