<svg width="76" height="76" viewBox="0 0 76 76" fill="none" xmlns="http://www.w3.org/2000/svg">
<g filter="url(#filter0_b_122_658)">
<rect x="-0.000488281" width="76" height="76" rx="38" fill="#EFEFEF" fill-opacity="0.2"/>
</g>
<path d="M39.5824 23.4271C39.5824 21.5344 38.048 20 36.1553 20H23.4261C21.5334 20 19.999 21.5344 19.999 23.4271V32.2396C19.999 34.1323 21.5334 35.6666 23.4261 35.6666H36.1553C38.048 35.6666 39.5824 34.1323 39.5824 32.2396V23.4271ZM31.7247 42.9748C31.7247 41.082 30.1903 39.5477 28.2976 39.5477H23.4261C21.5334 39.5477 19.999 41.082 19.999 42.9748V51.8155C19.999 53.7082 21.5334 55.2425 23.4261 55.2425H28.2976C30.1903 55.2425 31.7247 53.7082 31.7247 51.8155V42.9748ZM36.6449 23.4271V32.2396C36.6449 32.51 36.4257 32.7292 36.1553 32.7292H23.4261C23.1557 32.7292 22.9365 32.51 22.9365 32.2396V23.4271C22.9365 23.1567 23.1557 22.9375 23.4261 22.9375H36.1553C36.4257 22.9375 36.6449 23.1567 36.6449 23.4271ZM28.7872 42.9748V51.8155C28.7872 52.0859 28.568 52.305 28.2976 52.305H23.4261C23.1557 52.305 22.9365 52.0859 22.9365 51.8155V42.9748C22.9365 42.7043 23.1557 42.4852 23.4261 42.4852H28.2976C28.568 42.4852 28.7872 42.7043 28.7872 42.9748ZM55.2524 43.003C55.2524 41.1102 53.718 39.5759 51.8253 39.5759H39.0961C37.298 39.5759 35.8233 40.9606 35.6804 42.7219L35.669 43.003V51.8155C35.669 53.7082 37.2034 55.2425 39.0961 55.2425H51.8253C53.718 55.2425 55.2524 53.7082 55.2524 51.8155V43.003ZM52.3149 43.003V51.8155C52.3149 52.0859 52.0957 52.305 51.8253 52.305H39.0961C38.8257 52.305 38.6065 52.0859 38.6065 51.8155V43.003L38.6194 42.8907C38.6702 42.6745 38.8642 42.5134 39.0961 42.5134H51.8253C52.0957 42.5134 52.3149 42.7325 52.3149 43.003ZM55.2524 23.4271C55.2524 21.5344 53.718 20 51.8253 20H46.9294C45.0367 20 43.5024 21.5344 43.5024 23.4271V32.2396C43.5024 34.1323 45.0367 35.6666 46.9294 35.6666H51.8253C53.718 35.6666 55.2524 34.1323 55.2524 32.2396V23.4271ZM52.3149 32.2396C52.3149 32.51 52.0957 32.7292 51.8253 32.7292H46.9294C46.659 32.7292 46.4399 32.51 46.4399 32.2396V23.4271C46.4399 23.1567 46.659 22.9375 46.9294 22.9375H51.8253C52.0957 22.9375 52.3149 23.1567 52.3149 23.4271V32.2396Z" fill="url(#paint0_linear_122_658)"/>
<defs>
<filter id="filter0_b_122_658" x="-50.0005" y="-50" width="176" height="176" filterUnits="userSpaceOnUse" color-interpolation-filters="sRGB">
<feFlood flood-opacity="0" result="BackgroundImageFix"/>
<feGaussianBlur in="BackgroundImageFix" stdDeviation="25"/>
<feComposite in2="SourceAlpha" operator="in" result="effect1_backgroundBlur_122_658"/>
<feBlend mode="normal" in="SourceGraphic" in2="effect1_backgroundBlur_122_658" result="shape"/>
</filter>
<linearGradient id="paint0_linear_122_658" x1="20.3316" y1="18.5512" x2="50.9259" y2="49.5889" gradientUnits="userSpaceOnUse">
<stop stop-color="#DF70F2"/>
<stop offset="0.541667" stop-color="#9A5CE1"/>
<stop offset="0.989583" stop-color="#373CBF"/>
</linearGradient>
</defs>
</svg>
