<svg width="843" height="298" viewBox="0 0 843 298" fill="none" xmlns="http://www.w3.org/2000/svg">
<path d="M0.268 149.42L8.04 112.972H17.286C25.728 101.314 34.84 76.39 40.468 52.404L43.818 38.2L108.674 38.2L92.728 112.972H104.52L96.748 149.42L77.452 149.42L81.204 132H23.316L19.564 149.42H0.268ZM70.752 112.972L82.544 57.228L60.032 57.228L58.692 62.99C54.404 81.214 46.9 100.51 39.396 112.972L70.752 112.972ZM167.16 132L167.294 120.61C162.872 127.31 156.306 133.876 143.04 133.876C126.424 133.876 116.24 123.692 116.24 105.736C116.24 81.75 127.094 57.764 154.698 57.764C169.706 57.764 174.932 64.598 177.478 71.298L182.57 59.64L201.33 59.64L185.92 132H167.16ZM138.216 101.582C138.216 112.168 144.782 115.92 153.358 115.92C163.542 115.92 169.036 110.962 171.582 98.5L172.386 94.614C172.922 92.202 173.056 90.058 173.056 88.584C173.056 79.07 167.964 75.72 159.254 75.72C143.978 75.72 138.216 87.78 138.216 101.582ZM210.901 106.406L220.951 59.64H242.391L233.547 101.18C233.011 103.458 232.743 105.468 232.743 107.21C232.743 113.106 236.093 115.518 243.731 115.518C253.379 115.518 258.739 110.962 261.017 100.242L269.727 59.64L291.167 59.64L275.757 132L256.997 132L256.461 121.414C249.761 129.856 241.587 133.474 230.063 133.474C216.395 133.474 209.695 128.248 209.695 116.322C209.695 113.374 210.097 110.158 210.901 106.406ZM258.069 49.59C247.081 49.59 238.103 44.9 238.103 32.974C238.103 31.098 238.237 29.088 238.773 26.81H254.049C253.781 28.418 253.647 29.758 253.647 30.964C253.647 36.056 256.193 38.334 260.481 38.334C265.841 38.334 270.397 34.85 272.005 26.81L287.013 26.81C283.529 43.292 270.799 49.59 258.069 49.59ZM334.037 133.876C310.855 133.876 298.661 121.816 298.661 103.19C298.661 77.328 313.401 59.104 336.985 59.104C351.993 59.104 360.837 66.474 363.517 74.782C363.919 72.504 364.053 70.494 364.053 68.886C364.053 52.94 351.859 45.034 327.471 45.034L330.955 29.892C365.259 29.892 382.009 41.55 382.009 65.402C382.009 76.122 380.535 85.77 377.051 98.232C370.217 122.486 356.549 133.876 334.037 133.876ZM334.975 115.92C351.055 115.92 356.415 98.902 356.415 90.46C356.415 81.08 349.715 77.06 341.005 77.06C325.863 77.06 320.637 89.12 320.637 101.984C320.637 109.622 325.193 115.92 334.975 115.92ZM378.508 132L408.792 90.996L395.66 59.64H418.44L428.356 86.172H434.386L440.148 59.64H461.588L455.826 86.172H461.99L482.492 59.64H506.478L477.936 96.758L492.408 132H468.154L458.372 104.128H452.074L446.178 132L424.738 132L430.634 104.128H424.604L403.968 132H378.508ZM537.616 133.876C514.434 133.876 503.312 122.218 503.312 106.272C503.312 77.194 519.928 57.764 549.408 57.764C571.116 57.764 578.486 65.938 578.486 77.06C578.486 87.646 572.322 101.18 536.812 101.18H524.752C524.618 102.118 524.484 103.458 524.484 104.798C524.484 113.508 530.246 117.528 542.44 117.528C552.892 117.528 564.416 113.508 570.848 108.148L567.096 125.836C562.272 129.588 550.614 133.876 537.616 133.876ZM539.358 88.852C553.294 88.852 556.51 84.832 556.51 80.276C556.51 76.658 554.768 74.112 547.264 74.112C535.204 74.112 529.71 78.802 527.164 88.852H539.358ZM647.409 109.22L643.255 127.31C638.699 130.258 631.195 133.876 619.001 133.876C600.107 133.876 585.501 125.702 585.501 105.066C585.501 73.978 603.591 57.764 632.401 57.764C644.059 57.764 651.697 60.578 655.717 63.124L651.161 82.152C647.007 78.668 640.039 75.72 631.597 75.72C616.321 75.72 607.477 84.296 607.477 101.448C607.477 110.828 614.579 115.92 626.773 115.92C635.215 115.92 641.781 112.972 647.409 109.22ZM659.243 132L674.653 59.64L693.413 59.64L693.145 70.628C699.175 61.65 707.885 57.764 718.203 57.764C729.459 57.764 735.489 62.856 735.891 71.834C741.921 61.784 751.167 57.764 762.825 57.764C775.555 57.764 781.317 63.258 781.317 73.844C781.317 76.39 781.049 79.204 780.379 82.286L769.793 132H748.353L757.733 88.182C758.135 86.306 758.403 84.564 758.403 83.224C758.403 77.864 755.589 75.72 748.755 75.72C740.983 75.72 736.293 79.606 734.283 89.12L725.171 132H703.731L713.111 87.914C713.513 86.038 713.781 84.43 713.781 83.09C713.781 77.596 710.565 75.72 704.401 75.72C696.227 75.72 691.805 79.74 689.795 88.986L680.683 132H659.243Z" fill="url(#paint0_linear_2538_21016)"/>
<path d="M347.79 253V199.802H326.35V186H385.042V199.802H363.334V253H347.79ZM397.944 278.862V186H412.684V199.936C415.096 192.432 422.198 184.66 436.402 184.66C453.42 184.66 465.346 194.576 465.346 218.026C465.346 244.424 453.42 254.474 435.062 254.474C424.342 254.474 416.972 249.114 413.622 242.816V278.862H397.944ZM413.622 216.686V221.778C413.622 233.838 420.59 240.672 431.578 240.672C444.174 240.672 449.668 234.508 449.668 218.696C449.668 203.956 442.566 198.596 431.846 198.596C419.518 198.596 413.89 205.43 413.622 216.686ZM481.208 210.254V190.69C485.63 187.34 493.67 184.66 505.194 184.66C524.758 184.66 534.406 191.36 534.406 208.78V253H519.666V240.94C516.45 248.712 508.276 254.072 497.556 254.072C484.022 254.072 475.982 246.434 475.982 233.302C475.982 218.026 487.104 213.738 503.586 213.738H518.728V210.79C518.728 201.276 514.172 198.328 505.194 198.328C492.866 198.328 485.764 203.152 481.208 210.254ZM502.514 240.002C513.1 240.002 518.058 233.972 518.728 229.416V223.922H505.462C496.216 223.922 491.794 225.664 491.794 231.694C491.794 236.786 495.546 240.002 502.514 240.002ZM552.623 253V186L568.167 186V231.426L600.327 186H615.201V253H599.657V207.038L567.497 253H552.623ZM592.823 152.634H607.295C607.295 167.776 596.039 173.404 584.515 173.404C571.249 173.404 560.395 167.776 560.395 152.634H574.867C574.867 158.262 577.681 161.746 584.247 161.746C589.607 161.746 592.823 159.334 592.823 152.634ZM693.37 149.15V165.23C690.69 166.704 683.052 167.91 672.064 168.848C650.624 170.858 645.8 179.3 644.058 198.462C649.284 190.958 657.458 186 669.518 186C686 186 699.668 194.308 699.668 218.562C699.668 242.28 687.072 254.34 665.9 254.34C643.12 254.34 630.39 240.806 630.39 209.852C630.39 172.868 640.574 157.994 663.622 154.242C673.94 152.5 687.876 151.964 693.37 149.15ZM646.47 218.696C646.47 231.158 652.634 240.136 664.828 240.136C675.414 240.136 683.32 234.508 683.32 219.902C683.32 205.966 676.754 199.936 665.498 199.936C653.706 199.936 646.47 206.234 646.47 218.696ZM715.577 210.254V190.69C719.999 187.34 728.039 184.66 739.563 184.66C759.127 184.66 768.775 191.36 768.775 208.78V253H754.035V240.94C750.819 248.712 742.645 254.072 731.925 254.072C718.391 254.072 710.351 246.434 710.351 233.302C710.351 218.026 721.473 213.738 737.955 213.738H753.097V210.79C753.097 201.276 748.541 198.328 739.563 198.328C727.235 198.328 720.133 203.152 715.577 210.254ZM736.883 240.002C747.469 240.002 752.427 233.972 753.097 229.416V223.922H739.831C730.585 223.922 726.163 225.664 726.163 231.694C726.163 236.786 729.915 240.002 736.883 240.002Z" fill="#F8F8F8"/>
<defs>
<linearGradient id="paint0_linear_2538_21016" x1="50.7962" y1="53.5" x2="843" y2="53.5" gradientUnits="userSpaceOnUse">
<stop offset="0.144718" stop-color="#D75AFF"/>
<stop offset="0.510417" stop-color="white"/>
<stop offset="1" stop-color="#7B71FF"/>
</linearGradient>
</defs>
</svg>
