<svg width="76" height="76" viewBox="0 0 76 76" fill="none" xmlns="http://www.w3.org/2000/svg">
<g filter="url(#filter0_b_122_649)">
<rect x="-0.000488281" width="76" height="76" rx="38" fill="#EFEFEF" fill-opacity="0.2"/>
</g>
<path d="M34.4037 22.2434C36.8995 20.6435 40.0986 20.6435 42.5943 22.2434L58.3855 32.3659C58.8048 32.6348 59.0594 33.0979 59.0615 33.5961C59.0637 34.0943 58.8132 34.5596 58.3961 34.8321L52.2074 38.8754V49.7587C52.2074 50.0763 52.1043 50.3855 51.9136 50.6399L51.9115 50.6427L51.9091 50.646L51.903 50.6538L51.887 50.6748C51.8786 50.6856 51.8684 50.6983 51.8566 50.713C51.8507 50.7204 51.8443 50.7284 51.8374 50.7369C51.7969 50.787 51.7411 50.8544 51.6694 50.9362C51.5262 51.0997 51.32 51.322 51.0482 51.5831C50.5046 52.105 49.696 52.7839 48.6015 53.4574C46.4027 54.8106 43.079 56.1233 38.499 56.1233C33.919 56.1233 30.5953 54.8106 28.3966 53.4574C27.3021 52.7839 26.4935 52.105 25.9499 51.5831C25.678 51.322 25.4718 51.0997 25.3286 50.9362C25.2451 50.8406 25.163 50.7439 25.0865 50.6427C25.0836 50.6387 25.0844 50.6399 25.0844 50.6399C24.8938 50.3855 24.7907 50.0763 24.7907 49.7587V38.8754L20.874 36.3165V46.8212C20.874 47.6323 20.2164 48.2899 19.4053 48.2899C18.5941 48.2899 17.9365 47.6323 17.9365 46.8212V33.6024C17.9365 33.0727 18.2169 32.6085 18.6374 32.3501L34.4037 22.2434ZM42.6495 45.1198C40.1278 46.7673 36.8703 46.7673 34.3485 45.1198L27.7282 40.7944V49.2078C27.8003 49.2832 27.8855 49.3694 27.9842 49.4641C28.3968 49.8601 29.0417 50.4053 29.9361 50.9556C31.7152 52.0505 34.5113 53.1858 38.499 53.1858C42.4868 53.1858 45.2829 52.0505 47.062 50.9556C47.9564 50.4053 48.6013 49.8601 49.0139 49.4641C49.1126 49.3694 49.1978 49.2832 49.2699 49.2078V40.7944L42.6495 45.1198ZM41.009 24.7164C39.4794 23.7358 37.5187 23.7358 35.989 24.7164L22.1086 33.6142L35.9551 42.6605C37.5007 43.6704 39.4974 43.6704 41.0429 42.6605L54.8895 33.6142L41.009 24.7164Z" fill="url(#paint0_linear_122_649)"/>
<defs>
<filter id="filter0_b_122_649" x="-50.0005" y="-50" width="176" height="176" filterUnits="userSpaceOnUse" color-interpolation-filters="sRGB">
<feFlood flood-opacity="0" result="BackgroundImageFix"/>
<feGaussianBlur in="BackgroundImageFix" stdDeviation="25"/>
<feComposite in2="SourceAlpha" operator="in" result="effect1_backgroundBlur_122_649"/>
<feBlend mode="normal" in="SourceGraphic" in2="effect1_backgroundBlur_122_649" result="shape"/>
</filter>
<linearGradient id="paint0_linear_122_649" x1="21.0766" y1="20.6727" x2="50.6542" y2="49.8451" gradientUnits="userSpaceOnUse">
<stop stop-color="#F476F7"/>
<stop offset="0.515625" stop-color="#955ADF"/>
<stop offset="1" stop-color="#1E34B5"/>
</linearGradient>
</defs>
</svg>
