<?xml version="1.0" ?>
<svg width="1412.000000" height="195.000000" viewBox="0 0 1412 195" fill="none" xmlns="http://www.w3.org/2000/svg" xmlns:xlink="http://www.w3.org/1999/xlink">
    <path id="МЕЖМАЛ" d="M305.36 151.97L244.93 1.15L213.45 1.15L213.45 186L237.83 186L237.83 114.01L235.41 36.7L295.97 186L314.63 186L375.32 36.32L373.03 114.01L373.03 186L397.41 186L397.41 1.15L365.79 1.15L305.36 151.97ZM464.82 100.56L544.93 100.56L544.93 80.62L464.82 80.62L464.82 21.21L556.6 21.21L556.6 1.15L440.44 1.15L440.44 186L557.87 186L557.87 166.06L464.82 166.06L464.82 100.56ZM698.28 101.7L718.09 101.7L770.65 186L800.99 186L738.78 88.37L796.17 1.15L767.47 1.15L718.34 81.39L698.28 81.39L698.28 1.15L673.91 1.15L673.91 81.39L652.96 81.39L603.83 1.15L575.01 1.15L632.4 88.5L570.19 186L600.66 186L652.96 101.7L673.91 101.7L673.91 186L698.28 186L698.28 101.7ZM916.14 151.97L855.71 1.15L824.22 1.15L824.22 186L848.6 186L848.6 114.01L846.18 36.7L906.74 186L925.4 186L986.09 36.32L983.8 114.01L983.8 186L1008.18 186L1008.18 1.15L976.57 1.15L916.14 151.97ZM1060.74 186L1078.13 137.75L1155.56 137.75L1173.22 186L1198.23 186L1127.52 1.15L1106.18 1.15L1035.6 186L1060.74 186ZM1365.05 186L1365.05 1.15L1251.17 1.15L1247.36 90.78Q1245.96 121.63 1242.66 136.48Q1239.36 151.34 1233.02 158.13Q1232.48 158.7 1231.91 159.23Q1225.67 165 1214.86 165.81L1209.78 166.06L1209.78 186L1217.78 186Q1236.06 185.74 1246.98 177.05Q1257.9 168.35 1263.55 149.81Q1269.19 131.28 1271.1 94.46L1274.4 21.21L1340.67 21.21L1340.67 186L1365.05 186ZM1148.34 117.69L1085.5 117.69L1116.85 31.24L1148.34 117.69Z" fill="#F6F6F6" />
ъ</svg>
