<?xml version="1.0" ?>
<svg width="1412.000000" height="188.000000" viewBox="0 0 1412 188" fill="none" xmlns="http://www.w3.org/2000/svg" xmlns:xlink="http://www.w3.org/1999/xlink">
	<path d="M217.58 186.28Q218.91 187 220.62 187L233.32 187Q235.1 187 236.43 186.23Q237.05 185.87 237.57 185.35Q238.22 184.69 238.63 183.92Q239.29 182.64 239.29 181.03L239.29 53.12L283.02 137.86Q284.29 140.47 286.07 141.93Q287.91 143.32 291.34 143.32L299.4 143.32Q302.51 143.32 304.54 141.93Q304.95 141.64 305.32 141.31Q306.85 139.96 307.71 137.86L351.13 53.12L351.13 181.03Q351.13 182.74 351.85 184.07Q352.22 184.76 352.78 185.35Q353.37 185.91 354.06 186.28Q355.38 187 357.1 187L369.86 187Q372.21 187 373.75 185.87Q374.07 185.63 374.36 185.35Q375.01 184.69 375.42 183.92Q376.08 182.64 376.08 181.03L376.08 11.23Q376.08 8.99 375.02 7.49Q374.73 7.08 374.36 6.72Q374.01 6.35 373.6 6.06Q372.1 5.01 369.86 5.01L357.1 5.01Q354.05 5.01 352.59 6.53Q352.56 6.56 352.53 6.59Q351.13 8.12 350.62 9.13L295.21 114.19L240.36 9.13Q239.86 8.12 238.27 6.59L238.27 6.59Q236.74 5.01 233.57 5.01L220.62 5.01Q219.01 5.01 217.74 5.67Q216.96 6.07 216.31 6.72Q215.94 7.08 215.65 7.49Q214.59 8.99 214.59 11.23L214.59 181.03Q214.59 182.64 215.25 183.92Q215.66 184.69 216.31 185.35Q216.89 185.91 217.58 186.28ZM423.17 185.84Q424.67 187 427.06 187L536.5 187Q538.91 187 540.38 185.81Q540.64 185.6 540.88 185.35Q541.35 184.83 541.69 184.23Q542.46 182.85 542.46 181.03L542.46 170.87Q542.46 168.34 541.22 166.86Q541.06 166.67 540.88 166.49Q540.7 166.31 540.51 166.15Q539.03 164.91 536.5 164.91L446.04 164.91L446.04 105.87L528.69 105.87Q531.11 105.87 532.57 104.69Q532.83 104.48 533.07 104.22Q533.55 103.71 533.88 103.11Q534.66 101.73 534.66 99.91L534.66 90.26Q534.66 87.78 533.46 86.21Q533.28 85.97 533.07 85.75Q532.78 85.42 532.43 85.15Q531 84.04 528.69 84.04L446.04 84.04L446.04 27.1L534.4 27.1Q537.06 27.1 538.56 25.78Q538.67 25.68 538.78 25.57Q538.98 25.38 539.15 25.17Q540.37 23.64 540.37 21.13L540.37 11.23Q540.37 8.75 539.18 7.18Q538.99 6.94 538.78 6.72Q538.49 6.39 538.15 6.13Q536.71 5.01 534.4 5.01L427.06 5.01Q424.79 5.01 423.32 6.1Q422.94 6.37 422.62 6.72Q422.41 6.94 422.23 7.18Q421.03 8.75 421.03 11.23L421.03 181.03Q421.03 182.85 421.81 184.23Q422.14 184.83 422.62 185.35Q422.88 185.62 423.17 185.84ZM569.12 186.39Q570.34 187 571.86 187L586.65 187Q589.51 187 590.91 185.85Q591.94 185 592.78 183.99Q593.13 183.57 593.45 183.12L643.34 106.38L672.22 106.38L672.22 181.03Q672.22 182.74 672.94 184.07Q673.31 184.76 673.87 185.35Q674.46 185.91 675.15 186.28Q676.47 187 678.19 187L691.2 187Q693.62 187 695.08 185.81Q695.35 185.6 695.58 185.35Q696.36 184.51 696.75 183.51Q697.17 182.48 697.17 181.28L697.17 106.38L725.8 106.38L775.94 183.12L775.97 183.16Q777.04 184.66 778.54 185.85Q780.13 187 782.99 187L797.52 187Q799.11 187 800.34 186.34Q801.13 185.91 801.78 185.22Q802.52 184.41 802.95 183.47Q803.49 182.24 803.49 180.77Q803.49 178.93 802.98 177.92L747.89 93.11L798.03 13.58Q799.11 11.74 799.11 10.21Q799.11 9.02 798.68 8.01Q798.35 7.25 797.78 6.59Q797.53 6.29 797.24 6.04Q796.01 5.01 793.91 5.01L779.62 5.01Q776.45 5.01 774.23 6.09Q773.28 6.53 772.5 7.17Q771.49 7.99 770.74 9.13L724.46 83.27L697.17 83.27L697.17 10.97Q697.17 9.09 696.34 7.71Q696.02 7.18 695.58 6.72Q695.29 6.39 694.95 6.13Q693.51 5.01 691.2 5.01L678.19 5.01Q676.57 5.01 675.3 5.67Q674.52 6.07 673.87 6.72Q673.35 7.25 672.99 7.87Q672.22 9.2 672.22 10.97L672.22 83.27L644.67 83.27L598.4 9.13Q597.53 7.81 596.34 6.92Q595.7 6.44 594.97 6.09Q592.94 5.01 589.51 5.01L575.74 5.01Q573.17 5.01 571.83 6.29Q571.68 6.43 571.55 6.59Q571.06 7.18 570.76 7.84Q570.28 8.92 570.28 10.21Q570.28 11.74 571.61 13.58L621.5 93.11L566.66 177.92Q565.9 178.93 565.9 180.77Q565.9 182.34 566.49 183.62Q566.89 184.48 567.55 185.22Q568.26 185.95 569.12 186.39ZM839.24 186.28Q840.57 187 842.28 187L854.98 187Q856.76 187 858.09 186.23Q858.71 185.87 859.23 185.35Q859.88 184.69 860.29 183.92Q860.95 182.64 860.95 181.03L860.95 53.12L904.68 137.86Q905.95 140.47 907.73 141.93Q909.57 143.32 913 143.32L921.06 143.32Q924.17 143.32 926.2 141.93Q926.61 141.64 926.98 141.31Q928.51 139.96 929.37 137.86L972.79 53.12L972.79 181.03Q972.79 182.74 973.51 184.07Q973.88 184.76 974.44 185.35Q975.03 185.91 975.72 186.28Q977.04 187 978.76 187L991.52 187Q993.87 187 995.41 185.87Q995.73 185.63 996.02 185.35Q996.67 184.69 997.08 183.92Q997.74 182.64 997.74 181.03L997.74 11.23Q997.74 8.99 996.68 7.49Q996.39 7.08 996.02 6.72Q995.67 6.35 995.26 6.06Q993.76 5.01 991.52 5.01L978.76 5.01Q975.71 5.01 974.25 6.53Q974.22 6.56 974.19 6.59Q972.79 8.12 972.28 9.13L916.87 114.19L862.02 9.13Q861.52 8.12 859.93 6.59L859.93 6.59Q858.4 5.01 855.23 5.01L842.28 5.01Q840.67 5.01 839.4 5.67Q838.62 6.07 837.97 6.72Q837.6 7.08 837.31 7.49Q836.25 8.99 836.25 11.23L836.25 181.03Q836.25 182.64 836.91 183.92Q837.32 184.69 837.97 185.35Q838.55 185.91 839.24 186.28ZM1028.87 186.74Q1029.65 187 1030.51 187L1043.78 187Q1046.89 187 1048.41 185.47Q1050 183.89 1050.25 182.55L1064.53 145.67L1149.85 145.67L1164.13 182.55Q1164.64 183.89 1166.03 185.47Q1167.49 187 1170.67 187L1183.87 187Q1184.81 187 1185.65 186.68Q1186.65 186.31 1187.49 185.47Q1188.47 184.49 1188.84 183.32Q1189.06 182.59 1189.06 181.79Q1189.06 180.52 1188.56 178.93L1124.32 10.72Q1123.31 8.12 1121.47 6.59Q1119.68 5.01 1116.01 5.01L1098.37 5.01Q1094.75 5.01 1092.91 6.59Q1091.06 8.12 1090.05 10.72L1025.56 178.93Q1025.31 180.52 1025.31 181.79Q1025.31 182.65 1025.56 183.43Q1025.93 184.54 1026.82 185.47Q1027.76 186.37 1028.87 186.74ZM1332.43 186.28Q1333.76 187 1335.47 187L1348.99 187Q1351.41 187 1352.87 185.81Q1353.14 185.6 1353.37 185.35Q1353.85 184.83 1354.18 184.23Q1354.96 182.85 1354.96 181.03L1354.96 11.23Q1354.96 8.75 1353.77 7.18Q1353.58 6.94 1353.37 6.72Q1353.08 6.39 1352.74 6.13Q1351.3 5.01 1348.99 5.01L1246.03 5.01Q1244.42 5.01 1243.15 5.67Q1242.37 6.07 1241.72 6.72Q1241.18 7.25 1240.84 7.87Q1240.06 9.2 1240.06 10.97L1240.06 66.9Q1240.06 92.1 1237.72 109.93Q1235.37 127.71 1230.93 139.01Q1226.55 150.31 1220.14 156.08Q1216.07 159.74 1211.31 161.57Q1208.63 162.61 1205.73 163.06Q1202.81 163.47 1201.46 165.14Q1200.27 166.6 1200.27 169.03L1200.27 180.52Q1200.27 182.4 1201.06 183.83Q1201.48 184.59 1202.11 185.22Q1202.97 186.05 1204 186.44Q1205.17 186.88 1206.55 186.74Q1222.1 185.98 1233.15 179.38Q1244.18 172.71 1251.24 159.07Q1258.28 145.42 1261.65 123.46Q1265.01 101.43 1265.01 70.26L1265.01 28.37L1329.51 28.37L1329.51 181.03Q1329.51 182.74 1330.22 184.07Q1330.59 184.76 1331.16 185.35Q1331.74 185.91 1332.43 186.28ZM1107.18 30.97L1142.29 123.27L1072.09 123.27L1107.18 30.97Z" fill="#F6F6F6" />
</svg>
