<?xml version="1.0" encoding="UTF-8" standalone="no"?>
<!DOCTYPE svg PUBLIC "-//W3C//DTD SVG 1.1//EN" "http://www.w3.org/Graphics/SVG/1.1/DTD/svg11.dtd" >
<svg xmlns="http://www.w3.org/2000/svg">
<metadata>
Generated by SVGconv.
Copyright   : Copyright (c) 2018 ParaType Inc., ParaType Ltd. All rights reserved.
Designer    : ParaType Ltd
Foundry     : ParaType Ltd
Foundry URL : http://www.paratype.com
</metadata>
<defs>
<font id="SBSansText-Bold" horiz-adv-x="628" >
<font-face units-per-em="1000" ascent="982" descent="272" >
<font-face-src>
<font-face-name/>
</font-face-src>
</font-face>
<missing-glyph horiz-adv-x="500" />
<glyph unicode="&#13;" horiz-adv-x="250" />
<glyph unicode="&#32;" horiz-adv-x="260" />
<glyph unicode="&#33;" horiz-adv-x="398" d="M110 76q0 42 23.5 66q23.5 24 73.5 24q47 0 72.5 -25q25.5 -25 25.5 -65q0 -40 -24.5 -64.5q-24.5 -24.5 -73.5 -24.5q-47 0 -72 25q-25 25 -25 64zt0 0zM123 700h167l-12 -454l-142 0z" />
<glyph unicode="&#34;" horiz-adv-x="541" d="M104 700h116v-281h-116zM321 700h116v-281l-116 0z" />
<glyph unicode="&#35;" horiz-adv-x="687" d="M130 183h-106l22 104h103l27 128h-104l22 105h101l34 180h121l-35 -180h120l34 180h121l-35 -180h109l-22 -105h-106l-27 -128h106l-22 -104h-102l-35 -183h-120l35 183h-120l-35 -183h-121zM389 287l27 128h-120l-27 -128z" />
<glyph unicode="&#36;" horiz-adv-x="633" d="M405 194q0 30 -25.5 46.5q-25.5 16.5 -63.5 29q-38 12.5 -83 26.5q-45 14 -83 39q-38 25 -63.5 66.5q-25.5 41.5 -25.5 108.5q0 81 45.5 133q45.5 52 153.5 66l0 91h124v-89q51 -3 93 -11.5q42 -8.5 71 -20.5l0 -161q-38 26 -91 43.5q-53 17.5 -110 17.5q-36 0 -59 -5q-23 -5 -36.5 -14q-13.5 -9 -19 -21q-5.5 -12 -5.5 -26q0 -29 26.5 -45q26.5 -16 66 -28.5q39.5 -12.5 86 -26q46.5 -13.5 86 -39q39.5 -25.5 66 -66.5q26.5 -41 26.5 -108q0 -86 -47.5 -139q-47.5 -53 -152.5 -68l0 -113h-124v108q-59 3 -111 15.5q-52 12.5 -85 31.5l0 167q13 -12 34 -26q21 -14 49 -26q28 -12 63 -20.5q35 -8.5 77 -8.5q63 0 90.5 20t27.5 53z" />
<glyph unicode="&#37;" horiz-adv-x="957" d="M675 700h106l-496 -700h-107zM517 159q0 88 50 130.5q50 42.5 141 42.5q91 0 138 -42.5q47 -42.5 47 -130.5q0 -47 -13.5 -80q-13.5 -33 -38.5 -54q-25 -21 -60 -30.5q-35 -9.5 -78 -9.5q-88 0 -137 42.5q-49 42.5 -49 131.5zt0 0zM786 159q0 45 -20 64.5q-20 19.5 -61 19.5q-40 0 -60 -19.5q-20 -19.5 -20 -64.5q0 -45 21 -65q21 -20 60 -20q38 0 59 19.5q21 19.5 21 65.5zt0 0zM64 539q0 88 50 131q50 43 140 43q92 0 139 -43q47 -43 47 -131q0 -46 -13.5 -79q-13.5 -33 -38.5 -54q-25 -21 -60.5 -31q-35.5 -10 -78.5 -10q-88 0 -136.5 42.5q-48.5 42.5 -48.5 131.5zt0 0zM332 539q0 45 -19.5 64.5q-19.5 19.5 -60.5 19.5q-40 0 -60.5 -19.5q-20.5 -19.5 -20.5 -64.5q0 -45 21.5 -64.5q21.5 -19.5 59.5 -19.5q39 0 59.5 19t20.5 65z" />
<glyph unicode="&#38;" horiz-adv-x="883" d="M775 490q0 -89 -30 -177.5q-30 -88.5 -85 -160.5q35 -13 69 -18.5q34 -5.5 67 -2.5l0 -136q-60 -4 -122 15q-62 19 -113 54q-44 -37 -100.5 -58q-56.5 -21 -116.5 -21q-134 0 -202 57q-68 57 -68 162q0 72 39 124.5q39 52.5 113 87.5q-20 34 -31 69.5q-11 35.5 -11 68.5q0 80 50.5 119.5q50.5 39.5 140.5 39.5q56 0 93 -12q37 -12 58.5 -32q21.5 -20 30.5 -47q9 -27 9 -57q0 -38 -14.5 -67q-14.5 -29 -39 -51q-24.5 -22 -58.5 -39q-34 -17 -73 -32q35 -51 77.5 -93.5q42.5 -42.5 98.5 -78.5q40 52 60.5 125q20.5 73 21.5 161zM458 135q-56 42 -99.5 92q-43.5 50 -75.5 102q-36 -17 -51.5 -44q-15.5 -27 -15.5 -59q0 -61 34.5 -89.5q34.5 -28.5 104.5 -28.5q31 0 57 7.5q26 7.5 46 19.5zt0 0zM331 463q52 21 79 41q27 20 27 51q0 23 -14 36q-14 13 -50 13q-65 0 -65 -65q0 -17 5.5 -36.5t17.5 -39.5z" />
<glyph unicode="&#39;" horiz-adv-x="323" d="M104 700h116v-281l-116 0z" />
<glyph unicode="&#40;" horiz-adv-x="385" d="M290 -194q-40 26 -81.5 71q-41.5 45 -76 106.5q-34.5 61.5 -56.5 138.5q-22 77 -22 167q0 83 20.5 159q20.5 76 54 139q33.5 63 75.5 111q42 48 86 76l68 -65q-32 -33 -61 -76q-29 -43 -50.5 -95.5q-21.5 -52.5 -34.5 -114.5q-13 -62 -13 -133q0 -69 13.5 -131q13.5 -62 35.5 -115q22 -53 50.5 -96.5q28.5 -43.5 58.5 -75.5z" />
<glyph unicode="&#41;" horiz-adv-x="385" d="M96 774q40 -26 81.5 -71.5q41.5 -45.5 76 -107q34.5 -61.5 56.5 -138.5q22 -77 22 -167q0 -83 -20.5 -158.5q-20.5 -75.5 -54 -138.5q-33.5 -63 -76 -111q-42.5 -48 -85.5 -76l-68 65q32 33 61 76q29 43 50.5 95.5q21.5 52.5 34.5 114.5q13 62 13 133q0 69 -13.5 131q-13.5 62 -35.5 115q-22 53 -50.5 96.5q-28.5 43.5 -58.5 75.5z" />
<glyph unicode="&#42;" horiz-adv-x="570" d="M218 468l-148 29l34 115l141 -63l-19 151h119l-19 -150l140 62l33 -115l-147 -29l106 -113l-97 -66l-76 131l-76 -131l-97 66z" />
<glyph unicode="&#43;" horiz-adv-x="633" d="M82 392h174v174h121v-174h173v-120h-173v-174h-121v174l-174 0z" />
<glyph unicode="&#44;" horiz-adv-x="382" d="M47 -103q54 8 91 33q37 25 43 59q-52 0 -75.5 25q-23.5 25 -23.5 64q0 43 25.5 66.5q25.5 23.5 76.5 23.5q60 0 87 -31q27 -31 27 -95q0 -48 -13.5 -87q-13.5 -39 -37.5 -69q-24 -30 -56.5 -49.5q-32.5 -19.5 -70.5 -27.5l-73 88z" />
<glyph unicode="&#45;" horiz-adv-x="494" d="M87 346h320v-121l-320 0z" />
<glyph unicode="&#46;" horiz-adv-x="364" d="M84 84q0 47 22.5 71.5q22.5 24.5 74.5 24.5q52 0 76 -22.5q24 -22.5 24 -73.5q0 -45 -23 -71q-23 -26 -77 -26q-52 0 -74.5 26t-22.5 71z" />
<glyph unicode="&#47;" horiz-adv-x="412" d="M275 760h130l-268 -940l-130 0z" />
<glyph unicode="&#48;" horiz-adv-x="633" d="M47 349q0 96 16.5 165q16.5 69 50 113q33.5 44 84.5 64.5q51 20.5 121 20.5q73 0 124 -21.5q51 -21.5 82.5 -66q31.5 -44.5 45.5 -113q14 -68.5 14 -162.5q0 -98 -16.5 -167q-16.5 -69 -49.5 -112.5q-33 -43.5 -83.5 -63q-50.5 -19.5 -118.5 -19.5q-142 0 -206 88.5q-64 88.5 -64 273.5zt0 0zM211 347q0 -119 23 -172.5q23 -53.5 86 -53.5q30 0 50 12q20 12 31.5 38.5q11.5 26.5 16 69.5q4.5 43 4.5 105q0 63 -4 107q-4 44 -16 72q-12 28 -33 41q-21 13 -54 13q-33 0 -53 -13.5q-20 -13.5 -31.5 -42q-11.5 -28.5 -15.5 -72.5t-4 -104z" />
<glyph unicode="&#49;" horiz-adv-x="633" d="M82 135h208v389l-208 -117v145l257 150h112v-567h120v-135l-489 0z" />
<glyph unicode="&#50;" horiz-adv-x="633" d="M57 104q60 47 118.5 90q58.5 43 104.5 85q46 42 74 86q28 44 28 92q0 57 -27.5 82.5q-27.5 25.5 -91.5 25.5q-58 0 -106.5 -19q-48.5 -19 -87.5 -52l0 174q42 20 100 32q58 12 129 12q76 0 126 -16q50 -16 80 -44q30 -28 42 -66.5q12 -38.5 12 -83.5q0 -60 -20 -108q-20 -48 -55.5 -90q-35.5 -42 -84.5 -81q-49 -39 -107 -80l275 0v-143l-509 0z" />
<glyph unicode="&#51;" horiz-adv-x="633" d="M194 418h69q69 0 94 19.5q25 19.5 25 62.5q0 17 -5 30q-5 13 -17.5 21.5q-12.5 8.5 -35.5 13q-23 4.5 -59 4.5q-55 0 -107.5 -16.5q-52.5 -16.5 -92.5 -42.5l0 158q24 9 53.5 17q29.5 8 61 14q31.5 6 64 9.5q32.5 3.5 62.5 3.5q74 0 122 -12.5q48 -12.5 76 -36q28 -23.5 39 -57q11 -33.5 11 -75.5q0 -65 -33.5 -106.5q-33.5 -41.5 -105.5 -61.5q85 -11 123.5 -53.5q38.5 -42.5 38.5 -109.5q0 -49 -14.5 -88q-14.5 -39 -48 -66.5q-33.5 -27.5 -88.5 -42.5q-55 -15 -136 -15q-65 0 -127.5 12q-62.5 12 -107.5 32l0 165q40 -28 96.5 -46.5q56.5 -18.5 117.5 -18.5q42 0 68.5 5.5q26.5 5.5 41.5 16q15 10.5 20.5 25.5q5.5 15 5.5 35q0 18 -5.5 32.5q-5.5 14.5 -19.5 24q-14 9.5 -39.5 14.5q-25.5 5 -65.5 5l-81 0z" />
<glyph unicode="&#52;" horiz-adv-x="633" d="M33 244l284 456h207v-403h83v-143h-83v-154h-162v154h-329zM364 545l-151 -249l151 0z" />
<glyph unicode="&#53;" horiz-adv-x="633" d="M102 700h436v-135h-313l-10 -121q19 3 49.5 4.5q30.5 1.5 59.5 1.5q69 0 115.5 -15q46.5 -15 74.5 -42.5q28 -27.5 40 -68q12 -40.5 12 -91.5q0 -57 -14 -102q-14 -45 -47.5 -77q-33.5 -32 -90.5 -49q-57 -17 -142 -17q-45 0 -100.5 8q-55.5 8 -103.5 25l0 161q15 -9 37 -18q22 -9 48 -16.5q26 -7.5 54.5 -12q28.5 -4.5 57.5 -4.5q77 0 107 25q30 25 30 76q0 25 -6.5 43.5q-6.5 18.5 -23 30.5q-16.5 12 -45 18q-28.5 6 -73.5 6q-23 0 -48 -1.5q-25 -1.5 -49 -3.5q-24 -2 -45 -5q-21 -3 -35 -6z" />
<glyph unicode="&#54;" horiz-adv-x="633" d="M326 -12q-81 0 -136 22q-55 22 -89 65q-34 43 -48.5 106.5q-14.5 63.5 -14.5 146.5q0 191 82 287.5q82 96.5 259 96.5q48 0 91 -7.5q43 -7.5 78 -19.5l0 -159q-26 17 -66.5 31.5q-40.5 14.5 -106.5 14.5q-40 0 -75 -11.5q-35 -11.5 -61.5 -35q-26.5 -23.5 -42 -59q-15.5 -35.5 -15.5 -84.5q0 -8 0.5 -12.5q0.5 -4.5 0.5 -8.5q30 48 75.5 72q45.5 24 114.5 24q115 0 167.5 -58.5q52.5 -58.5 52.5 -160.5q0 -130 -69.5 -190q-69.5 -60 -196.5 -60zt0 0zM205 261q-2 -75 28 -109q30 -34 87 -34q48 0 77 25.5q29 25.5 29 85.5q0 61 -23.5 86.5q-23.5 25.5 -79.5 25.5q-56 0 -82 -24t-36 -56z" />
<glyph unicode="&#55;" horiz-adv-x="633" d="M404 555h-350v145h533v-96l-266 -604l-175 0z" />
<glyph unicode="&#56;" horiz-adv-x="633" d="M37 193q0 33 6.5 61q6.5 28 22 50.5q15.5 22.5 42 39.5q26.5 17 66.5 28q-66 19 -93 55.5q-27 36.5 -27 101.5q0 43 14.5 77q14.5 34 46.5 58q32 24 82 36.5q50 12.5 122 12.5q138 0 197.5 -45q59.5 -45 59.5 -131q0 -30 -5 -55.5q-5 -25.5 -18.5 -46q-13.5 -20.5 -36 -36.5q-22.5 -16 -57.5 -27q40 -9 66.5 -24q26.5 -15 42 -37q15.5 -22 22 -50q6.5 -28 6.5 -64q0 -47 -15 -85.5q-15 -38.5 -48.5 -66q-33.5 -27.5 -86 -42.5q-52.5 -15 -127.5 -15q-76 0 -129.5 13.5q-53.5 13.5 -87.5 39.5q-34 26 -49.5 64q-15.5 38 -15.5 88zt0 0zM204 218q0 -57 31 -80q31 -23 85 -23q54 0 82 24.5q28 24.5 28 78.5q0 95 -113 95q-57 0 -85 -25.5q-28 -25.5 -28 -69.5zt0 0zM213 500q0 -43 25 -65q25 -22 79 -22q55 0 77.5 23q22.5 23 22.5 65q0 46 -22.5 65.5q-22.5 19.5 -79.5 19.5q-56 0 -79 -21.5t-23 -64.5z" />
<glyph unicode="&#57;" horiz-adv-x="633" d="M304 712q81 0 136 -22q55 -22 89 -65q34 -43 48.5 -106.5q14.5 -63.5 14.5 -146.5q0 -191 -82 -287.5q-82 -96.5 -259 -96.5q-48 0 -91 7.5q-43 7.5 -78 19.5l0 159q26 -17 66.5 -31.5q40.5 -14.5 106.5 -14.5q40 0 75 11.5q35 11.5 61.5 35q26.5 23.5 42 59q15.5 35.5 15.5 84.5q0 8 -0.5 12.5q-0.5 4.5 -0.5 8.5q-30 -48 -75 -72q-45 -24 -114 -24q-114 0 -167.5 58.5q-53.5 58.5 -53.5 160.5q0 130 69 190q69 60 197 60zt0 0zM425 442q2 72 -28 106q-30 34 -87 34q-48 -1 -76.5 -26q-28.5 -25 -29.5 -85q-1 -58 24 -85q25 -27 80 -27q56 0 82 24t35 59z" />
<glyph unicode="&#58;" horiz-adv-x="364" d="M91 84q0 47 22.5 71.5q22.5 24.5 74.5 24.5q52 0 76 -22.5q24 -22.5 24 -73.5q0 -45 -23 -71q-23 -26 -77 -26q-52 0 -74.5 26q-22.5 26 -22.5 71zt0 0zM91 428q0 47 22.5 71.5q22.5 24.5 74.5 24.5q52 0 76 -22.5q24 -22.5 24 -73.5q0 -45 -23 -71q-23 -26 -77 -26q-52 0 -74.5 26t-22.5 71z" />
<glyph unicode="&#59;" horiz-adv-x="382" d="M93 427q0 47 22.5 71.5q22.5 24.5 74.5 24.5q52 0 76 -22.5q24 -22.5 24 -73.5q0 -45 -23 -71q-23 -26 -77 -26q-52 0 -74.5 26q-22.5 26 -22.5 71zt0 0zM54 -103q54 8 91 33q37 25 43 59q-52 0 -75.5 25q-23.5 25 -23.5 64q0 43 25.5 66.5q25.5 23.5 76.5 23.5q60 0 87 -31q27 -31 27 -95q0 -48 -13.5 -87q-13.5 -39 -37.5 -69q-24 -30 -56.5 -49.5q-32.5 -19.5 -70.5 -27.5l-73 88z" />
<glyph unicode="&#60;" horiz-adv-x="593" d="M56 377l465 170v-123l-311 -102v-2l311 -102v-123l-465 170z" />
<glyph unicode="&#61;" horiz-adv-x="596" d="M63 281h470v-118h-470zM63 495h470v-118l-470 0z" />
<glyph unicode="&#62;" horiz-adv-x="593" d="M73 218l310 102v2l-310 102v123l464 -170v-112l-464 -170z" />
<glyph unicode="&#63;" horiz-adv-x="576" d="M175 241q0 43 13 72q13 29 32 50q19 21 42 36q23 15 42 30q19 15 32 33q13 18 13 44q0 65 -96 65q-54 0 -99 -16q-45 -16 -77 -39l0 163q33 14 83.5 23.5q50.5 9.5 118.5 9.5q240 0 240 -179q0 -49 -15 -82q-15 -33 -37 -56q-22 -23 -48 -39.5q-26 -16.5 -48 -32.5q-22 -16 -37 -35q-15 -19 -15 -47zM150 76q0 42 23.5 66q23.5 24 73.5 24q47 0 72.5 -25q25.5 -25 25.5 -65q0 -40 -24.5 -64.5q-24.5 -24.5 -73.5 -24.5q-47 0 -72 25t-25 64z" />
<glyph unicode="&#64;" horiz-adv-x="986" d="M703 64q-59 0 -87 21.5q-28 21.5 -39 65.5q-13 -45 -46.5 -66q-33.5 -21 -81.5 -21q-80 0 -121 52q-41 52 -41 173q0 116 43.5 171.5q43.5 55.5 128.5 55.5q48 0 71.5 -20q23.5 -20 33.5 -42l10 52h107v-291q0 -35 10.5 -49q10.5 -14 32.5 -14q18 0 35 9q17 9 30.5 29q13.5 20 21.5 51.5q8 31.5 8 77.5q0 70 -19.5 126q-19.5 56 -58 95q-38.5 39 -96.5 60q-58 21 -136 21q-87 0 -149.5 -26q-62.5 -26 -103 -71.5q-40.5 -45.5 -60 -107q-19.5 -61.5 -19.5 -133.5q0 -62 17 -120.5q17 -58.5 56 -105q39 -46.5 103.5 -74.5q64.5 -28 159.5 -28q24 0 50 3q26 3 51 9q25 6 47.5 15q22.5 9 40.5 20l0 -100q-45 -16 -91 -24.5q-46 -8.5 -98 -8.5q-109 0 -190.5 32q-81.5 32 -135.5 87.5q-54 55.5 -80.5 131.5q-26.5 76 -26.5 163q0 87 27 164.5q27 77.5 81 135q54 57.5 135 91.5q81 34 188 34q91 0 165.5 -26q74.5 -26 126.5 -75.5q52 -49.5 80.5 -120.5q28.5 -71 28.5 -161q0 -123 -55 -192q-55 -69 -154 -69zt0 0zM415 292q0 -71 14.5 -102q14.5 -31 56.5 -31q35 0 51 27.5q16 27.5 16 78.5v54q0 57 -16.5 79.5q-16.5 22.5 -49.5 22.5q-39 0 -55.5 -29t-16.5 -100z" />
<glyph unicode="&#65;" horiz-adv-x="707" d="M478 147h-256l-48 -147h-163l246 700h194l245 -700h-168zM267 282h166l-83 249z" />
<glyph unicode="&#66;" horiz-adv-x="693" d="M91 699q77 3 139.5 4.5q62.5 1.5 116.5 1.5q81 0 133.5 -10q52.5 -10 83.5 -32q31 -22 43.5 -56.5q12.5 -34.5 12.5 -83.5q0 -128 -128 -157q79 -5 116 -45.5q37 -40.5 37 -114.5q0 -56 -14.5 -96.5q-14.5 -40.5 -51 -66.5q-36.5 -26 -98.5 -38q-62 -12 -156 -12q-43 0 -101 2q-58 2 -133 6zM255 132q23 -2 45 -2.5q22 -0.5 46 -0.5q40 0 65.5 4.5q25.5 4.5 40 15q14.5 10.5 20 26.5q5.5 16 5.5 40q0 24 -6 40q-6 16 -20 25.5q-14 9.5 -37.5 13.5q-23.5 4 -58.5 4h-100zM363 411q55 0 75.5 20q20.5 20 20.5 60q0 23 -4.5 38q-4.5 15 -16.5 24q-12 9 -32.5 13q-20.5 4 -53.5 4q-24 0 -46.5 -0.5q-22.5 -0.5 -50.5 -2.5l0 -156z" />
<glyph unicode="&#67;" horiz-adv-x="656" d="M595 515q-31 18 -74.5 34q-43.5 16 -111.5 16q-47 0 -82 -11q-35 -11 -58 -36q-23 -25 -34 -65.5q-11 -40.5 -11 -99.5q0 -62 12 -104q12 -42 36 -67.5q24 -25.5 60 -36q36 -10.5 85 -10.5q66 0 113 17q47 17 73 36l0 -163q-27 -13 -77.5 -25.5q-50.5 -12.5 -121.5 -12.5q-94 0 -161 21.5q-67 21.5 -110 65.5q-43 44 -63 111q-20 67 -20 159q0 94 20.5 163.5q20.5 69.5 63.5 115.5q43 46 110 68q67 22 161 22q71 0 118 -11.5q47 -11.5 72 -19.5z" />
<glyph unicode="&#68;" horiz-adv-x="753" d="M91 699q31 2 59 3.5q28 1.5 56 2q28 0.5 58.5 1q30.5 0.5 67.5 0.5q107 0 178.5 -22.5q71.5 -22.5 114 -65.5q42.5 -43 60.5 -106q18 -63 18 -145q0 -95 -22.5 -165.5q-22.5 -70.5 -70 -116.5q-47.5 -46 -121 -68.5q-73.5 -22.5 -174.5 -22.5q-33 0 -61 0.5q-28 0.5 -54 1.5q-26 1 -52.5 2.5q-26.5 1.5 -56.5 3.5zM255 139q18 -2 33.5 -3q15.5 -1 34.5 -1q56 0 96 12.5q40 12.5 65.5 39.5q25.5 27 37.5 69.5q12 42.5 12 101.5q0 55 -10.5 94.5q-10.5 39.5 -34 64.5q-23.5 25 -61.5 36.5q-38 11.5 -93 11.5q-23 0 -41.5 -1q-18.5 -1 -38.5 -3z" />
<glyph unicode="&#69;" horiz-adv-x="636" d="M91 700h488v-142h-324v-138h285v-132h-285v-146h324v-142l-488 0z" />
<glyph unicode="&#70;" horiz-adv-x="613" d="M91 700h468v-142h-304v-155h291v-142h-291v-261l-164 0z" />
<glyph unicode="&#71;" horiz-adv-x="717" d="M390 395h270v-355q-17 -9 -42 -18q-25 -9 -57.5 -17q-32.5 -8 -72 -13q-39.5 -5 -83.5 -5q-183 0 -269 85q-86 85 -86 272q0 94 20.5 163.5q20.5 69.5 65 115.5q44.5 46 115 68q70.5 22 170.5 22q74 0 121 -10q47 -10 71 -21l0 -157q-36 22 -81 34.5q-45 12.5 -100 12.5q-58 0 -98.5 -12.5q-40.5 -12.5 -66 -38.5q-25.5 -26 -37 -68q-11.5 -42 -11.5 -100q0 -122 48 -173.5q48 -51.5 151 -51.5q34 0 57.5 4q23.5 4 41.5 9l0 122l-127 0z" />
<glyph unicode="&#72;" horiz-adv-x="803" d="M91 700h164v-272h293v272h164v-700h-164v286h-293v-286l-164 0z" />
<glyph unicode="&#73;" horiz-adv-x="349" d="M93 700h163v-700l-163 0z" />
<glyph unicode="&#74;" horiz-adv-x="462" d="M207 700h164v-486q0 -60 -11.5 -102q-11.5 -42 -38 -68.5q-26.5 -26.5 -69 -39q-42.5 -12.5 -104.5 -12.5q-43 0 -71.5 4.5q-28.5 4.5 -51.5 11.5l0 157q14 -11 41.5 -20.5q27.5 -9.5 56.5 -9.5q45 0 64.5 20q19.5 20 19.5 80z" />
<glyph unicode="&#75;" horiz-adv-x="721" d="M91 700h164v-278h56l185 278h191l-240 -331l263 -369h-195l-201 290h-59v-290l-164 0z" />
<glyph unicode="&#76;" horiz-adv-x="585" d="M91 700h164v-550h308v-150l-472 0z" />
<glyph unicode="&#77;" horiz-adv-x="945" d="M91 700h233l154 -372l153 372h223v-700h-160v394q0 31 1.5 65q1.5 34 3.5 67q-14 -35 -27.5 -69q-13.5 -34 -24.5 -61l-106 -256h-135l-107 254q-11 28 -25 63q-14 35 -29 70q2 -34 3.5 -67.5q1.5 -33.5 1.5 -64.5v-395l-159 0z" />
<glyph unicode="&#78;" horiz-adv-x="800" d="M91 700h177l231 -366q16 -26 29 -52q13 -26 26 -50q-2 26 -3.5 55q-1.5 29 -1.5 58v355h160v-700h-171l-233 370q-16 24 -31 54q-15 30 -29 57q2 -26 3.5 -54.5q1.5 -28.5 1.5 -57.5v-369l-159 0z" />
<glyph unicode="&#79;" horiz-adv-x="793" d="M50 350q0 190 85.5 277q85.5 87 262.5 87q94 0 159.5 -21.5q65.5 -21.5 106.5 -66q41 -44.5 59.5 -113q18.5 -68.5 18.5 -163.5q0 -99 -22 -168q-22 -69 -65.5 -112.5q-43.5 -43.5 -108 -63.5q-64.5 -20 -148.5 -20q-170 0 -259 86.5q-89 86.5 -89 277.5zt0 0zM224 349q0 -65 12.5 -108q12.5 -43 35.5 -68q23 -25 55.5 -35q32.5 -10 73.5 -10q41 0 72.5 10.5q31.5 10.5 52.5 36q21 25.5 32 68q11 42.5 11 106.5q0 64 -11 107q-11 43 -33 69q-22 26 -55 36.5q-33 10.5 -76 10.5q-86 0 -128 -50.5t-42 -172.5z" />
<glyph unicode="&#80;" horiz-adv-x="677" d="M91 698q33 1 59.5 2.5q26.5 1.5 53.5 2.5q27 1 56.5 1.5q29.5 0.5 68.5 0.5q83 0 140.5 -13.5q57.5 -13.5 93.5 -42.5q36 -29 52.5 -75.5q16.5 -46.5 16.5 -113.5q0 -136 -73 -200q-73 -64 -232 -64q-20 0 -36 0.5q-16 0.5 -36 2.5l0 -199h-164zM255 334q20 -2 35.5 -2.5q15.5 -0.5 36.5 -0.5q76 0 106 30q30 30 30 91q0 30 -6 52q-6 22 -22 37q-16 15 -42.5 22q-26.5 7 -66.5 7q-20 0 -35.5 -0.5q-15.5 -0.5 -35.5 -2.5z" />
<glyph unicode="&#81;" horiz-adv-x="793" d="M50 350q0 190 85.5 277q85.5 87 262.5 87q94 0 159.5 -21.5q65.5 -21.5 106.5 -66q41 -44.5 59.5 -113q18.5 -68.5 18.5 -163.5q0 -146 -48 -228q-48 -82 -142 -114l139 -168h-196l-118 147q-160 4 -243.5 91q-83.5 87 -83.5 272zt0 0zM224 349q0 -65 12.5 -108q12.5 -43 35.5 -68q23 -25 55.5 -35q32.5 -10 73.5 -10q41 0 72.5 10.5q31.5 10.5 52.5 36q21 25.5 32 68q11 42.5 11 106.5q0 64 -11 107q-11 43 -33 69q-22 26 -55 36.5q-33 10.5 -76 10.5q-86 0 -128 -50.5t-42 -172.5z" />
<glyph unicode="&#82;" horiz-adv-x="701" d="M91 0v697q66 3 122 5.5q56 2.5 116 2.5q82 0 138 -14.5q56 -14.5 89.5 -43q33.5 -28.5 48 -72q14.5 -43.5 14.5 -101.5q0 -43 -5.5 -77.5q-5.5 -34.5 -19 -61.5q-13.5 -27 -35.5 -47q-22 -20 -55 -34l171 -254h-181l-152 236h-87v-236zM328 365q35 0 58.5 6q23.5 6 37.5 18q14 12 20 31q6 19 6 45q0 25 -5.5 43q-5.5 18 -19.5 29.5q-14 11.5 -38 17q-24 5.5 -61 5.5q-22 0 -38.5 -1q-16.5 -1 -36.5 -3l0 -191z" />
<glyph unicode="&#83;" horiz-adv-x="640" d="M409 194q0 30 -25.5 46.5q-25.5 16.5 -63.5 29q-38 12.5 -83 26.5q-45 14 -83 39q-38 25 -63.5 66.5q-25.5 41.5 -25.5 108.5q0 47 14.5 84.5q14.5 37.5 47 64q32.5 26.5 84.5 40.5q52 14 127 14q67 0 122.5 -9.5q55.5 -9.5 91.5 -24.5l0 -161q-38 26 -91 43.5q-53 17.5 -110 17.5q-36 0 -59 -5q-23 -5 -36.5 -14q-13.5 -9 -19 -21q-5.5 -12 -5.5 -26q0 -29 26.5 -45q26.5 -16 66 -28.5q39.5 -12.5 86 -26q46.5 -13.5 86 -39q39.5 -25.5 66 -66.5q26.5 -41 26.5 -108q0 -101 -68 -157q-68 -56 -220 -56q-68 0 -131 13q-63 13 -101 35l0 167q13 -12 34 -26q21 -14 49 -26q28 -12 63 -20.5q35 -8.5 77 -8.5q63 0 90.5 20t27.5 53z" />
<glyph unicode="&#84;" horiz-adv-x="623" d="M230 559h-202v141h567v-141h-202v-559l-163 0z" />
<glyph unicode="&#85;" horiz-adv-x="755" d="M86 700h164v-404q0 -51 7.5 -83.5q7.5 -32.5 23.5 -51q16 -18.5 41 -25.5q25 -7 60 -7q33 0 56.5 6.5q23.5 6.5 38 24.5q14.5 18 21.5 50q7 32 7 82v408h164v-419q0 -86 -19.5 -142.5q-19.5 -56.5 -57 -90q-37.5 -33.5 -91.5 -47.5q-54 -14 -123 -14q-72 0 -127 14.5q-55 14.5 -91.5 48q-36.5 33.5 -55 90q-18.5 56.5 -18.5 140.5z" />
<glyph unicode="&#86;" horiz-adv-x="687" d="M13 700h179l158 -522l156 522h168l-225 -700l-210 0z" />
<glyph unicode="&#87;" horiz-adv-x="1016" d="M26 700h176l76 -379q7 -32 11 -61q4 -29 9 -62q8 32 13 62q5 30 13 62l94 378h183l93 -373q8 -33 13.5 -63.5q5.5 -30.5 13.5 -64.5q5 34 9.5 64q4.5 30 11.5 63l75 374h173l-152 -700h-208l-122 486l-123 -486l-208 0z" />
<glyph unicode="&#88;" horiz-adv-x="709" d="M227 359l-189 341h190l127 -234l132 234h187l-201 -338l212 -362h-193l-144 249l-137 -249l-188 0z" />
<glyph unicode="&#89;" horiz-adv-x="666" d="M252 252l-242 448h187l139 -267l134 267h186l-240 -448v-252l-164 0z" />
<glyph unicode="&#90;" horiz-adv-x="650" d="M47 93l332 465h-320v142h539v-93l-332 -465h338v-142l-557 0z" />
<glyph unicode="&#91;" horiz-adv-x="422" d="M87 760h287v-102h-154v-736h154v-102l-287 0z" />
<glyph unicode="&#92;" horiz-adv-x="412" d="M7 760h135l263 -940l-135 0z" />
<glyph unicode="&#93;" horiz-adv-x="422" d="M47 -78h155v736h-155v102h288v-940l-288 0z" />
<glyph unicode="&#94;" horiz-adv-x="572" d="M219 700h133l185 -354h-125l-126 245l-125 -245l-125 0z" />
<glyph unicode="&#95;" horiz-adv-x="448" d="M0 -98h448v-96l-448 0z" />
<glyph unicode="&#96;" horiz-adv-x="485" d="M252 630l-170 160h190l100 -160z" />
<glyph unicode="&#97;" horiz-adv-x="619" d="M400 78q-8 -15 -23.5 -31.5q-15.5 -16.5 -38 -30q-22.5 -13.5 -52.5 -22q-30 -8.5 -68 -8.5q-48 0 -82 13q-34 13 -56 35.5q-22 22.5 -32 53.5q-10 31 -10 67q0 89 57.5 126q57.5 37 183.5 37h110v26q0 43 -25 61.5q-25 18.5 -90 18.5q-27 0 -54 -5q-27 -5 -51.5 -14q-24.5 -9 -45.5 -20q-21 -11 -36 -23l0 153q35 17 92 28q57 11 123 11q69 0 116.5 -10.5q47.5 -10.5 77 -34.5q29.5 -24 42 -62.5q12.5 -38.5 12.5 -95.5v-351h-144zM200 172q0 -27 16.5 -45.5q16.5 -18.5 61.5 -18.5q59 0 85 27.5q26 27.5 26 68.5v29h-88q-58 0 -79.5 -13.5t-21.5 -47.5z" />
<glyph unicode="&#98;" horiz-adv-x="696" d="M76 760h159v-295q20 37 63 63q43 26 121 26q58 0 101.5 -14.5q43.5 -14.5 72 -46.5q28.5 -32 42.5 -84q14 -52 14 -127q0 -154 -57.5 -225q-57.5 -71 -179.5 -71q-40 0 -69.5 7q-29.5 7 -51 18q-21.5 11 -36 26q-14.5 15 -24.5 31l-5 -68h-150zM234 250q0 -136 126 -136q64 0 93 38q29 38 29 126q0 45 -8 73.5q-8 28.5 -24 45q-16 16.5 -38.5 23q-22.5 6.5 -50.5 6.5q-67 0 -96.5 -34.5q-29.5 -34.5 -30.5 -98.5z" />
<glyph unicode="&#99;" horiz-adv-x="580" d="M519 373q-28 20 -65.5 33.5q-37.5 13.5 -92.5 13.5q-75 0 -112 -32q-37 -32 -37 -112q0 -81 37.5 -118q37.5 -37 127.5 -37q45 0 86.5 12.5q41.5 12.5 65.5 31.5l0 -141q-24 -13 -68.5 -25.5q-44.5 -12.5 -112.5 -12.5q-80 0 -136.5 16.5q-56.5 16.5 -93.5 51.5q-37 35 -54 90q-17 55 -17 133q0 140 71 208.5q71 68.5 225 68.5q70 0 110 -10q40 -10 66 -22z" />
<glyph unicode="&#100;" horiz-adv-x="697" d="M465 85q-12 -21 -27 -39q-15 -18 -36.5 -31.5q-21.5 -13.5 -51 -21q-29.5 -7.5 -70.5 -7.5q-120 0 -176.5 66.5q-56.5 66.5 -56.5 211.5q0 145 57.5 217.5q57.5 72.5 184.5 72.5q37 0 65 -5.5q28 -5.5 48.5 -15q20.5 -9.5 34.5 -22q14 -12.5 24 -27.5l0 276h159v-760h-150zM338 114q67 0 95.5 37.5q28.5 37.5 27.5 98.5l0 51q0 60 -27.5 92.5q-27.5 32.5 -95.5 32.5q-34 0 -58 -8q-24 -8 -39 -26.5q-15 -18.5 -21.5 -49q-6.5 -30.5 -6.5 -74.5q0 -44 8 -73.5q8 -29.5 24 -47.5q16 -18 39.5 -25.5t53.5 -7.5z" />
<glyph unicode="&#101;" horiz-adv-x="641" d="M208 231q2 -63 39.5 -91.5q37.5 -28.5 115.5 -28.5q29 0 58 4.5q29 4.5 55 13q26 8.5 47.5 19.5q21.5 11 36.5 23l0 -136q-20 -17 -78 -33q-58 -16 -142 -16q-80 0 -135.5 18q-55.5 18 -90.5 54q-35 36 -51 91q-16 55 -16 130q0 140 73.5 207.5q73.5 67.5 210.5 67.5q75 0 125.5 -18q50.5 -18 82 -52q31.5 -34 45 -81.5q13.5 -47.5 13.5 -106.5v-65zM328 435q-60 0 -89 -28q-29 -28 -32 -85l231 0q1 54 -23.5 83.5t-86.5 29.5z" />
<glyph unicode="&#102;" horiz-adv-x="457" d="M124 407h-91v133h92v48q0 48 10.5 82q10.5 34 34.5 55.5q24 21.5 62.5 31.5q38.5 10 94.5 10q41 0 65 -3q24 -3 45 -8l0 -133q-9 3 -27 6.5q-18 3.5 -51 3.5q-39 0 -57 -11q-18 -11 -18 -51v-31h147v-133h-147v-407l-160 0z" />
<glyph unicode="&#103;" horiz-adv-x="697" d="M100 -11q25 -16 78 -33q53 -17 134 -17q42 0 71 7.5q29 7.5 46 21.5q17 14 24.5 35.5q7.5 21.5 7.5 50.5v51q-23 -35 -66.5 -58q-43.5 -23 -112.5 -23q-119 0 -177 58q-58 58 -58 193q0 146 57 212.5q57 66.5 184 66.5q39 0 68 -7q29 -7 50 -19q21 -12 35.5 -27.5q14.5 -15.5 23.5 -33.5l5 73h151v-476q0 -73 -19 -122.5q-19 -49.5 -58 -79.5q-39 -30 -97.5 -43q-58.5 -13 -136.5 -13q-67 0 -123.5 11q-56.5 11 -86.5 22zM337 152q63 0 94 28.5q31 28.5 31 96.5v25q0 69 -31 96.5q-31 27.5 -95 27.5q-63 0 -93 -31q-30 -31 -30 -109q0 -74 32.5 -104t91.5 -30z" />
<glyph unicode="&#104;" horiz-adv-x="676" d="M76 760h159v-295q43 89 182 89q102 0 146 -47.5q44 -47.5 44 -152.5v-354h-159v318q0 57 -23 80.5q-23 23.5 -80 23.5q-60 0 -85 -28.5q-25 -28.5 -25 -89.5v-304l-159 0z" />
<glyph unicode="&#105;" horiz-adv-x="321" d="M80 540h160v-540h-160zM160 620q-46 0 -67 20q-21 20 -21 60q0 40 21 60q21 20 67 20q46 0 67 -20q21 -20 21 -60q0 -40 -21 -60t-67 -20z" />
<glyph unicode="&#106;" horiz-adv-x="327" d="M86 540h160v-546q0 -51 -11 -86q-11 -35 -32.5 -56q-21.5 -21 -53.5 -30q-32 -9 -75 -9q-40 0 -64 4.5q-24 4.5 -35 9.5l0 131q24 -11 57 -11q29 0 41.5 12.5q12.5 12.5 12.5 42.5zM166 620q-46 0 -67 20q-21 20 -21 60q0 40 21 60q21 20 67 20q46 0 67 -20q21 -20 21 -60q0 -40 -21 -60t-67 -20z" />
<glyph unicode="&#107;" horiz-adv-x="635" d="M235 760v-414h48l139 194h178l-189 -256l209 -284h-184l-153 211h-48v-211h-159l0 760z" />
<glyph unicode="&#108;" horiz-adv-x="374" d="M235 173q0 -32 12 -42.5q12 -10.5 40 -10.5q16 0 30.5 3q14.5 3 26.5 6l0 -128q-11 -5 -36 -10q-25 -5 -60 -5q-41 0 -73 7.5q-32 7.5 -54 25.5q-22 18 -33.5 49q-11.5 31 -11.5 78v614h159l0 -587z" />
<glyph unicode="&#109;" horiz-adv-x="972" d="M76 540h149l5 -82q23 51 67 73.5q44 22.5 103 22.5q63 0 101.5 -27q38.5 -27 52.5 -78q22 57 67.5 81q45.5 24 111.5 24q88 0 129 -46q41 -46 41 -137v-371h-158v327q0 51 -19 72q-19 21 -68 21q-45 0 -67 -23q-22 -23 -22 -77v-320h-159v330q0 52 -20 71q-20 19 -65 19q-46 0 -68.5 -23.5q-22.5 -23.5 -22.5 -75.5v-321l-158 0z" />
<glyph unicode="&#110;" horiz-adv-x="676" d="M76 540h154l5 -76q25 50 70.5 70q45.5 20 104.5 20q97 0 147 -45q50 -45 50 -150v-359h-159v305q0 33 -5 55.5q-5 22.5 -17 36q-12 13.5 -32 19.5q-20 6 -50 6q-59 0 -84 -29.5q-25 -29.5 -25 -87.5v-305l-159 0z" />
<glyph unicode="&#111;" horiz-adv-x="675" d="M47 271q0 144 74 213.5q74 69.5 219 69.5q150 0 219 -68.5q69 -68.5 69 -215.5q0 -147 -71.5 -215.5q-71.5 -68.5 -219.5 -68.5q-152 0 -221 70q-69 70 -69 215zt0 0zM211 267q0 -77 29 -115.5q29 -38.5 99 -38.5q67 0 96 36q29 36 29 117v5q0 82 -27.5 119q-27.5 37 -99.5 37q-71 0 -98.5 -37.5q-27.5 -37.5 -27.5 -118.5z" />
<glyph unicode="&#112;" horiz-adv-x="696" d="M75 540h151l5 -79q23 42 68 67.5q45 25.5 121 25.5q61 0 104 -15.5q43 -15.5 71 -48.5q28 -33 41 -85.5q13 -52.5 13 -125.5q0 -149 -56.5 -221q-56.5 -72 -184.5 -72q-38 0 -66 7.5q-28 7.5 -48.5 19.5q-20.5 12 -35 26.5q-14.5 14.5 -23.5 28.5l0 -248h-160zM235 251q0 -63 29 -100q29 -37 96 -37q69 0 95.5 39q26.5 39 26.5 125q0 80 -29 114q-29 34 -94 34q-66 0 -95 -34.5q-29 -34.5 -29 -97.5z" />
<glyph unicode="&#113;" horiz-adv-x="697" d="M461 79q-23 -41 -65 -67q-42 -26 -113 -26q-55 0 -99 13.5q-44 13.5 -74.5 45.5q-30.5 32 -46.5 84.5q-16 52.5 -16 130.5q0 79 15.5 135q15.5 56 46 91q30.5 35 76 51.5q45.5 16.5 106.5 16.5q38 0 66 -7q28 -7 48.5 -19q20.5 -12 35 -27q14.5 -15 24.5 -31l6 70h149v-720h-159zM341 114q66 0 93 39q27 39 27 102v44q0 66 -31 96.5q-31 30.5 -94 30.5q-66 0 -94.5 -37.5q-28.5 -37.5 -28.5 -121.5q0 -85 31 -119t97 -34z" />
<glyph unicode="&#114;" horiz-adv-x="476" d="M76 540h148l6 -80q21 51 59.5 72.5q38.5 21.5 89.5 21.5q17 0 31 -2q14 -2 28 -5l0 -160q-15 13 -37.5 20.5q-22.5 7.5 -55.5 7.5q-60 0 -85 -30.5q-25 -30.5 -25 -96.5v-288l-159 0z" />
<glyph unicode="&#115;" horiz-adv-x="555" d="M473 386q-33 20 -73 34.5q-40 14.5 -96 14.5q-48 0 -64.5 -10.5q-16.5 -10.5 -16.5 -33.5q0 -21 21 -31q21 -10 52.5 -17.5q31.5 -7.5 68.5 -16q37 -8.5 68.5 -26.5q31.5 -18 52.5 -49.5q21 -31.5 21 -83.5q0 -44 -12 -77.5q-12 -33.5 -40.5 -56.5q-28.5 -23 -76 -35q-47.5 -12 -117.5 -12q-45 0 -96.5 7.5q-51.5 7.5 -99.5 26.5l0 149q32 -26 82.5 -44.5q50.5 -18.5 110.5 -18.5q50 0 68 13.5q18 13.5 18 39.5q0 20 -21 30.5q-21 10.5 -52.5 19q-31.5 8.5 -68.5 17.5q-37 9 -68.5 27.5q-31.5 18.5 -52.5 49.5q-21 31 -21 82q0 43 12 75q12 32 40 53q28 21 73.5 31q45.5 10 113.5 10q44 0 90 -7q46 -7 84 -18z" />
<glyph unicode="&#116;" horiz-adv-x="508" d="M129 409h-101v131h101v92l160 53v-145h167v-131h-167v-204q0 -44 16.5 -62.5q16.5 -18.5 54.5 -18.5q30 0 56.5 7.5q26.5 7.5 46.5 19.5l0 -138q-17 -9 -55 -18q-38 -9 -89 -9q-51 0 -87 10.5q-36 10.5 -59 33q-23 22.5 -33.5 58.5q-10.5 36 -10.5 87z" />
<glyph unicode="&#117;" horiz-adv-x="676" d="M441 79q-28 -48 -71.5 -70.5q-43.5 -22.5 -110.5 -22.5q-97 0 -142.5 49.5q-45.5 49.5 -45.5 155.5v349h159v-311q0 -58 22 -83.5q22 -25.5 79 -25.5q57 0 83 28q26 28 26 88v304h159v-540l-153 0z" />
<glyph unicode="&#118;" horiz-adv-x="616" d="M18 540h180l114 -359l116 359h170l-207 -540l-168 0z" />
<glyph unicode="&#119;" horiz-adv-x="896" d="M25 540h168l73 -366l108 366h150l109 -366l73 366h164l-133 -540h-192l-98 336l-99 -336l-193 0z" />
<glyph unicode="&#120;" horiz-adv-x="609" d="M193 279l-165 261h180l100 -162l102 162h174l-169 -259l179 -281h-181l-112 176l-110 -176l-176 0z" />
<glyph unicode="&#121;" horiz-adv-x="602" d="M191 -60q22 0 35.5 12q13.5 12 23.5 46l-233 542h180l127 -349l100 349h164l-183 -526q-22 -63 -42.5 -103q-20.5 -40 -44 -63.5q-23.5 -23.5 -50 -32.5q-26.5 -9 -60.5 -9q-23 0 -47.5 3.5q-24.5 3.5 -38.5 9.5l1 139q13 -7 31 -12.5t37 -5.5z" />
<glyph unicode="&#122;" horiz-adv-x="579" d="M47 99l268 309h-256v132h471v-99l-269 -308h273v-133l-487 0z" />
<glyph unicode="&#123;" horiz-adv-x="459" d="M142 133q0 52 -26.5 78q-26.5 26 -67.5 29l0 100q41 3 67.5 30.5q26.5 27.5 26.5 78.5v132q0 32 5 64q5 32 22.5 57.5q17.5 25.5 51.5 41.5q34 16 91 16h99v-101h-61q-45 0 -60.5 -24.5q-15.5 -24.5 -15.5 -69.5v-127q0 -56 -23 -94q-23 -38 -82 -52q58 -12 81.5 -54.5q23.5 -42.5 23.5 -97.5v-124q0 -45 15.5 -70q15.5 -25 60.5 -25h61v-101h-99q-57 0 -91 16q-34 16 -51.5 41.5q-17.5 25.5 -22.5 57.5q-5 32 -5 64z" />
<glyph unicode="&#124;" horiz-adv-x="298" d="M81 760h136v-940l-136 0z" />
<glyph unicode="&#125;" horiz-adv-x="459" d="M317 447q0 -52 26.5 -78q26.5 -26 67.5 -29l0 -100q-41 -3 -67.5 -30.5q-26.5 -27.5 -26.5 -78.5v-132q0 -32 -5 -64q-5 -32 -22.5 -57.5q-17.5 -25.5 -51.5 -41.5q-34 -16 -91 -16h-99v101h61q45 0 60.5 24.5q15.5 24.5 15.5 69.5v127q0 56 23 94q23 38 82 52q-29 6 -49 20q-20 14 -32.5 34.5q-12.5 20.5 -18 45.5q-5.5 25 -5.5 52v124q0 45 -15.5 70q-15.5 25 -60.5 25h-61v101h99q57 0 91 -16q34 -16 51.5 -41.5q17.5 -25.5 22.5 -57.5q5 -32 5 -64z" />
<glyph unicode="&#126;" horiz-adv-x="633" d="M94 362q23 26 51.5 42q28.5 16 63.5 16q32 0 62.5 -11.5q30.5 -11.5 60 -26q29.5 -14.5 57.5 -26q28 -11.5 55 -11.5q56 0 98 49l0 -116q-17 -20 -44.5 -35.5q-27.5 -15.5 -65.5 -15.5q-32 0 -61 11.5q-29 11.5 -56 25.5q-27 14 -53.5 25.5q-26.5 11.5 -54.5 11.5q-16 0 -32.5 -4.5q-16.5 -4.5 -31.5 -11.5q-15 -7 -28 -17q-13 -10 -21 -20z" />
<glyph unicode="&#160;" horiz-adv-x="260" />
<glyph unicode="&#161;" horiz-adv-x="398" d="M110 464q0 39 25 64q25 25 72 25q49 0 73.5 -24q24.5 -24 24.5 -65q0 -39 -25.5 -64q-25.5 -25 -72.5 -25q-50 0 -73.5 24q-23.5 24 -23.5 65zt0 0zM278 294l12 -453h-167l13 453z" />
<glyph unicode="&#162;" horiz-adv-x="561" d="M274 -8q-57 7 -98 30.5q-41 23.5 -67 60.5q-26 37 -38 85q-12 48 -12 104q0 54 13 101q13 47 39 83q26 36 66.5 59q40.5 23 96.5 29l0 96h89v-93q48 -3 77 -10.5q29 -7.5 48 -15.5l0 -123q-26 10 -56 17.5q-30 7.5 -76 7.5q-69 0 -106 -37.5q-37 -37.5 -37 -109.5q0 -76 39 -119q39 -43 120 -43q40 0 71.5 8.5q31.5 8.5 51.5 19.5l0 -122q-19 -8 -50.5 -18q-31.5 -10 -81.5 -13l0 -109l-89 0z" />
<glyph unicode="&#163;" horiz-adv-x="599" d="M57 135h86v172h-86v111h86v59q0 46 13.5 89q13.5 43 44 75q30.5 32 78.5 51.5q48 19.5 117 19.5q78 0 153 -19l0 -133q-38 11 -65 14.5q-27 3.5 -57 3.5q-63 0 -91.5 -31q-28.5 -31 -28.5 -85v-44h158v-111h-158v-172h245v-135l-495 0z" />
<glyph unicode="&#164;" horiz-adv-x="570" d="M31 156l61 64q-17 26 -27 58.5q-10 32.5 -10 71.5q0 38 10.5 70.5q10.5 32.5 27.5 58.5l-62 65l63 64l63 -64q25 17 57.5 27.5q32.5 10.5 70.5 10.5q39 0 71.5 -10.5q32.5 -10.5 56.5 -27.5l64 65l64 -64l-63 -66q17 -25 27.5 -58q10.5 -33 10.5 -71q0 -38 -10.5 -71q-10.5 -33 -27.5 -59l63 -64l-64 -64l-63 63q-25 -17 -58 -28q-33 -11 -71 -11q-38 0 -71 11q-33 11 -58 28l-62 -63zM157 349q0 -29 10.5 -53q10.5 -24 28 -41q17.5 -17 40.5 -27.5q23 -10.5 49 -10.5q26 0 49.5 10.5q23.5 10.5 41.5 27.5q18 17 28.5 41q10.5 24 10.5 53q0 28 -10.5 52.5q-10.5 24.5 -28.5 42q-18 17.5 -41.5 27.5q-23.5 10 -49.5 10q-26 0 -49 -10q-23 -10 -40.5 -27.5q-17.5 -17.5 -28 -42t-10.5 -52.5z" />
<glyph unicode="&#165;" horiz-adv-x="641" d="M94 224h144v41l-10 20h-134v84h92l-166 331h188l114 -258l110 258h189l-166 -331h92v-84h-134l-10 -20v-41h144v-84h-144v-140h-165v140l-144 0z" />
<glyph unicode="&#166;" horiz-adv-x="306" d="M86 215h134v-395h-134zM86 760h134v-395l-134 0z" />
<glyph unicode="&#167;" horiz-adv-x="545" d="M462 573q-55 18 -87.5 23q-32.5 5 -60.5 5q-15 0 -30.5 -2.5q-15.5 -2.5 -29 -8.5q-13.5 -6 -22 -16.5q-8.5 -10.5 -8.5 -26.5q0 -12 5 -21q5 -9 16 -17q11 -8 28.5 -16.5q17.5 -8.5 42.5 -20.5q8 -4 22.5 -10.5q14.5 -6.5 22.5 -9.5q26 -12 52 -25.5q26 -13.5 46.5 -31.5q20.5 -18 33.5 -42.5q13 -24.5 13 -57.5q0 -44 -25.5 -77q-25.5 -33 -57.5 -56q25 -18 42 -44.5q17 -26.5 17 -66.5q0 -36 -14.5 -67q-14.5 -31 -44.5 -54q-30 -23 -75.5 -36.5q-45.5 -13.5 -106.5 -13.5q-45 0 -88.5 6.5q-43.5 6.5 -89.5 21.5l0 117q50 -21 86 -28q36 -7 73 -7q51 0 75.5 15.5q24.5 15.5 24.5 40.5q0 15 -7 26q-7 11 -20.5 20q-13.5 9 -33 18q-19.5 9 -45.5 20q-8 3 -23.5 10q-15.5 7 -23.5 11q-26 11 -49.5 25q-23.5 14 -41.5 33q-18 19 -28.5 42.5q-10.5 23.5 -10.5 54.5q0 41 23 74q23 33 65 56q-63 38 -63 113q0 32 13.5 61.5q13.5 29.5 41.5 52q28 22.5 72 36q44 13.5 104 13.5q54 0 96 -8.5q42 -8.5 71 -16.5zM180 327q0 -35 29 -57q29 -22 77 -42q1 -1 8 -4q7 -3 15 -6.5q8 -3.5 14.5 -6.5q6.5 -3 8.5 -3q13 12 23.5 29q10.5 17 10.5 37q0 32 -25 52q-25 20 -69 40q-2 1 -9.5 4.5q-7.5 3.5 -16 7.5q-8.5 4 -16.5 7.5q-8 3.5 -10 4.5q-23 -15 -31.5 -32t-8.5 -31z" />
<glyph unicode="&#168;" horiz-adv-x="485" d="M132 624q-45 0 -64.5 19q-19.5 19 -19.5 57q0 38 19.5 57q19.5 19 64.5 19q45 0 64.5 -19q19.5 -19 19.5 -57q0 -38 -19.5 -57q-19.5 -19 -64.5 -19zt0 0zM354 624q-45 0 -64.5 19q-19.5 19 -19.5 57q0 38 19.5 57q19.5 19 64.5 19q45 0 64.5 -19q19.5 -19 19.5 -57q0 -38 -19.5 -57t-64.5 -19z" />
<glyph unicode="&#169;" horiz-adv-x="856" d="M54 319q0 79 28.5 147.5q28.5 68.5 78.5 118.5q50 50 118.5 78.5q68.5 28.5 148.5 28.5q80 0 148.5 -28.5q68.5 -28.5 118.5 -78.5q50 -50 78.5 -118.5q28.5 -68.5 28.5 -147.5q0 -79 -28.5 -147q-28.5 -68 -78.5 -118.5q-50 -50.5 -118.5 -79q-68.5 -28.5 -148.5 -28.5q-80 0 -148.5 28.5q-68.5 28.5 -118.5 79q-50 50.5 -78.5 118.5q-28.5 68 -28.5 147zt0 0zM134 318q0 -63 22.5 -116.5q22.5 -53.5 62 -93q39.5 -39.5 93 -62q53.5 -22.5 115.5 -22.5q63 0 116.5 22.5q53.5 22.5 93.5 62q40 39.5 62.5 93q22.5 53.5 22.5 116.5q0 64 -22.5 118q-22.5 54 -62.5 93.5q-40 39.5 -93.5 62q-53.5 22.5 -116.5 22.5q-62 0 -115.5 -22.5q-53.5 -22.5 -93 -62q-39.5 -39.5 -62 -93.5q-22.5 -54 -22.5 -118zt0 0zM541 417q-17 7 -39 10.5q-22 3.5 -39 3.5q-54 0 -81.5 -24.5q-27.5 -24.5 -27.5 -81.5q0 -60 28.5 -83.5q28.5 -23.5 81.5 -23.5q19 0 39 4q20 4 39 13l0 -88q-16 -7 -40 -12q-24 -5 -57 -5q-102 0 -146.5 52q-44.5 52 -44.5 140q0 95 47.5 145q47.5 50 146.5 50q30 0 54.5 -4.5q24.5 -4.5 38.5 -9.5z" />
<glyph unicode="&#170;" horiz-adv-x="414" d="M264 407h-1q-11 -21 -36.5 -40q-25.5 -19 -71.5 -19q-60 0 -91.5 28q-31.5 28 -31.5 80q0 109 158 109q20 0 38.5 -1q18.5 -1 29.5 -3l0 15q0 21 -14 33.5q-14 12.5 -58 12.5q-33 0 -66 -8q-33 -8 -54 -18l0 91q22 8 59 16.5q37 8.5 81 8.5q87 0 126 -33q39 -33 39 -110v-214h-107zM147 468q0 -16 11.5 -26q11.5 -10 37.5 -10q32 0 47 16q15 16 15 39v14q-10 2 -22.5 3q-12.5 1 -27.5 1q-35 0 -48 -9t-13 -28z" />
<glyph unicode="&#171;" horiz-adv-x="629" d="M47 269l130 216h144l-122 -216l122 -214h-145zM301 269l130 216h144l-122 -216l122 -214l-145 0z" />
<glyph unicode="&#172;" horiz-adv-x="657" d="M42 410h554v-274h-114v164l-440 0z" />
<glyph unicode="&#173;" horiz-adv-x="494" d="M87 346h320v-121l-320 0z" />
<glyph unicode="&#174;" horiz-adv-x="605" d="M50 539q0 54 18.5 100q18.5 46 51.5 80q33 34 79.5 53.5q46.5 19.5 102.5 19.5q57 0 103.5 -19.5q46.5 -19.5 79.5 -53.5q33 -34 51.5 -80q18.5 -46 18.5 -100q0 -53 -18.5 -99q-18.5 -46 -51.5 -80q-33 -34 -79.5 -53q-46.5 -19 -103.5 -19q-56 0 -102.5 19q-46.5 19 -79.5 53q-33 34 -51.5 80q-18.5 46 -18.5 99zt0 0zM111 539q0 -41 14 -76q14 -35 39 -61q25 -26 60 -40q35 -14 78 -14q43 0 79 14q36 14 61 40q25 26 39 61q14 35 14 76q0 42 -14 77q-14 35 -39 61q-25 26 -61 40.5q-36 14.5 -79 14.5q-43 0 -78 -14.5q-35 -14.5 -60 -40.5q-25 -26 -39 -61q-14 -35 -14 -77zt0 0zM200 676h111q19 0 36.5 -4q17.5 -4 31.5 -14q14 -10 22.5 -27q8.5 -17 8.5 -43q0 -29 -13 -48.5q-13 -19.5 -33 -27.5l62 -100h-77l-51 88h-27v-88h-71zM302 556q14 0 24.5 6.5q10.5 6.5 10.5 23.5q0 19 -10 24.5q-10 5.5 -26 5.5h-32l0 -60z" />
<glyph unicode="&#175;" horiz-adv-x="485" d="M73 750h340v-100l-340 0z" />
<glyph unicode="&#176;" horiz-adv-x="400" d="M43 552q0 37 12 66.5q12 29.5 33.5 50.5q21.5 21 50 32.5q28.5 11.5 61.5 11.5q33 0 61.5 -11q28.5 -11 49.5 -32q21 -21 33.5 -51q12.5 -30 12.5 -67q0 -37 -12 -66.5q-12 -29.5 -33 -50.5q-21 -21 -49.5 -32q-28.5 -11 -60.5 -11q-34 0 -63 11q-29 11 -50.5 32q-21.5 21 -33.5 50.5q-12 29.5 -12 66.5zt0 0zM136 551q0 -34 18 -51.5q18 -17.5 47 -17.5q29 0 47 17q18 17 18 52q0 36 -18.5 53.5q-18.5 17.5 -46.5 17.5q-29 0 -47 -18t-18 -53z" />
<glyph unicode="&#177;" horiz-adv-x="597" d="M64 173h469v-119h-469zM64 497h176v146h118v-146h175v-119h-175v-146h-118v146l-176 0z" />
<glyph unicode="&#178;" horiz-adv-x="450" d="M47 481l133 80q53 33 73.5 55.5q20.5 22.5 20.5 45.5q0 20 -17 36q-17 16 -65 16q-32 0 -67.5 -6q-35.5 -6 -64.5 -20l0 99q38 13 73.5 18q35.5 5 76.5 5q49 0 84 -10q35 -10 56.5 -27.5q21.5 -17.5 31.5 -40.5q10 -23 10 -50q0 -49 -36 -91.5q-36 -42.5 -122 -85.5l-49 -27v-1h211v-96l-349 0z" />
<glyph unicode="&#179;" horiz-adv-x="450" d="M122 636h75q38 0 58.5 8.5q20.5 8.5 20.5 31.5q0 20 -19 30q-19 10 -67 10q-36 0 -69.5 -4q-33.5 -4 -59.5 -14l0 93q36 12 79.5 15.5q43.5 3.5 81.5 3.5q51 0 84.5 -9.5q33.5 -9.5 53.5 -25q20 -15.5 28 -35.5q8 -20 8 -40q0 -40 -26.5 -62.5q-26.5 -22.5 -76.5 -37.5l0 -1q66 -11 89.5 -38q23.5 -27 23.5 -61q0 -54 -49.5 -90.5q-49.5 -36.5 -153.5 -36.5q-28 0 -68.5 3.5q-40.5 3.5 -80.5 15.5l0 96q38 -14 72 -17q34 -3 63 -3q54 0 75.5 11.5q21.5 11.5 21.5 31.5q0 25 -18.5 35q-18.5 10 -60.5 10l-85 0z" />
<glyph unicode="&#180;" horiz-adv-x="485" d="M222 790h190l-170 -160l-120 0z" />
<glyph unicode="&#181;" horiz-adv-x="683" d="M446 79q-29 -48 -72.5 -69q-43.5 -21 -112.5 -21q-24 0 -43 6l0 -205h-147v753h161v-313q0 -58 22.5 -82q22.5 -24 80.5 -24q58 0 84 26.5q26 26.5 26 86.5v306h162v-543l-156 0z" />
<glyph unicode="&#182;" horiz-adv-x="579" d="M228 329q-42 0 -75 13q-33 13 -56.5 37q-23.5 24 -35.5 57.5q-12 33.5 -12 74.5q0 63 24 100.5q24 37.5 58.5 57q34.5 19.5 72 25.5q37.5 6 64.5 6h237v-910h-99v818h-78v-818l-100 0z" />
<glyph unicode="&#183;" horiz-adv-x="250" d="M35 358q0 42 23.5 65q23.5 23 66.5 23q42 0 66 -23.5q24 -23.5 24 -64.5q0 -42 -23 -65.5q-23 -23.5 -67 -23.5q-42 0 -66 24t-24 65z" />
<glyph unicode="&#184;" horiz-adv-x="485" d="M181 0h82l-11 -52q22 0 42 -5q20 -5 35 -16.5q15 -11.5 24 -29q9 -17.5 9 -43.5q0 -48 -36.5 -78q-36.5 -30 -96.5 -30q-29 0 -55 4q-26 4 -46 12l11 66q14 -5 28.5 -8.5q14.5 -3.5 31.5 -3.5q23 0 38.5 11q15.5 11 15.5 33q0 22 -18 29.5q-18 7.5 -40 7.5q-7 0 -16 0q-9 0 -16 -1z" />
<glyph unicode="&#185;" horiz-adv-x="450" d="M214 680l-109 -56l-45 81l175 95h95v-419l-116 0z" />
<glyph unicode="&#186;" horiz-adv-x="425" d="M24 530q0 91 50 136.5q50 45.5 138 45.5q91 0 140 -45q49 -45 49 -137q0 -91 -49 -136.5q-49 -45.5 -140 -45.5q-91 0 -139.5 44q-48.5 44 -48.5 138zt0 0zM139 530q0 -50 20 -71.5q20 -21.5 53 -21.5q36 0 55 21q19 21 19 72q0 51 -19 72q-19 21 -55 21q-35 0 -54 -21t-19 -72z" />
<glyph unicode="&#187;" horiz-adv-x="629" d="M454 55h-146l122 215l-122 215h145l129 -216zM200 55h-146l122 215l-122 215h145l129 -216z" />
<glyph unicode="&#188;" horiz-adv-x="950" d="M653 713h102l-481 -727h-103zM487 169l224 251h132v-247h58v-91h-58v-81h-112v81h-244zM732 327h-1l-139 -155h140zM186 580l-109 -56l-45 81l175 95h95v-419l-116 0z" />
<glyph unicode="&#189;" horiz-adv-x="950" d="M628 713h102l-481 -727h-103zM561 101l133 80q53 33 73.5 55.5q20.5 22.5 20.5 45.5q0 20 -17 36q-17 16 -65 16q-32 0 -67.5 -6q-35.5 -6 -64.5 -20l0 99q38 13 73.5 18q35.5 5 76.5 5q49 0 84 -10q35 -10 56.5 -27.5q21.5 -17.5 31.5 -40.5q10 -23 10 -50q0 -49 -36 -91.5q-36 -42.5 -122 -85.5l-49 -27v-1h211v-96h-349zM177 580l-109 -56l-45 81l175 95h95v-419l-116 0z" />
<glyph unicode="&#190;" horiz-adv-x="950" d="M675 713h102l-481 -727h-103zM506 169l224 251h132v-247h58v-91h-58v-81h-112v81h-244zM751 327h-1l-139 -155h140zM105 536h75q38 0 58.5 8.5q20.5 8.5 20.5 31.5q0 20 -19 30q-19 10 -67 10q-36 0 -69.5 -4q-33.5 -4 -59.5 -14l0 93q36 12 79.5 15.5q43.5 3.5 81.5 3.5q51 0 84.5 -9.5q33.5 -9.5 53.5 -25q20 -15.5 28 -35.5q8 -20 8 -40q0 -40 -26.5 -62.5q-26.5 -22.5 -76.5 -37.5l0 -1q66 -11 89.5 -38q23.5 -27 23.5 -61q0 -54 -49.5 -90.5q-49.5 -36.5 -153.5 -36.5q-28 0 -68.5 3.5q-40.5 3.5 -80.5 15.5l0 96q38 -14 72 -17q34 -3 63 -3q54 0 75.5 11.5q21.5 11.5 21.5 31.5q0 25 -18.5 35q-18.5 10 -60.5 10l-85 0z" />
<glyph unicode="&#191;" horiz-adv-x="576" d="M414 299q0 -43 -13 -72q-13 -29 -32 -50q-19 -21 -42 -36q-23 -15 -42 -30q-19 -15 -32 -33q-13 -18 -13 -44q0 -65 96 -65q54 0 99 16q45 16 77 39l0 -163q-33 -14 -83.5 -23.5q-50.5 -9.5 -118.5 -9.5q-240 0 -240 179q0 49 15 82q15 33 37 56q22 23 48 39.5q26 16.5 48 32.5q22 16 37 35q15 19 15 47zM439 463q0 -41 -23.5 -65q-23.5 -24 -73.5 -24q-47 0 -72 25q-25 25 -25 64q0 41 24.5 65q24.5 24 72.5 24q47 0 72 -24.5t25 -64.5z" />
<glyph unicode="&#192;" horiz-adv-x="707" d="M478 147h-256l-48 -147h-163l246 700h194l245 -700h-168zM267 282h166l-83 249zM414 760h-120l-160 160l192 0z" />
<glyph unicode="&#193;" horiz-adv-x="707" d="M478 147h-256l-48 -147h-163l246 700h194l245 -700h-168zM267 282h166l-83 249zM401 925h192l-178 -170l-122 0z" />
<glyph unicode="&#194;" horiz-adv-x="707" d="M478 147h-256l-48 -147h-163l246 700h194l245 -700h-168zM267 282h166l-83 249zM274 925h160l120 -170h-121l-78 97l-80 -97l-121 0z" />
<glyph unicode="&#195;" horiz-adv-x="707" d="M478 147h-256l-48 -147h-163l246 700h194l245 -700h-168zM267 282h166l-83 249zM159 780q1 32 10.5 57q9.5 25 25.5 41.5q16 16.5 36.5 25q20.5 8.5 43.5 8.5q22 0 41.5 -7.5q19.5 -7.5 44.5 -18.5q13 -6 22 -10q9 -4 16 -6.5q7 -2.5 12.5 -3.5q5.5 -1 12.5 -1q17 0 29 12q12 12 15 35l81 -13q-3 -61 -35.5 -96q-32.5 -35 -80.5 -35q-12 0 -22 1q-10 1 -19.5 4q-9.5 3 -20.5 7.5q-11 4.5 -25 11.5q-23 11 -35 17.5q-12 6.5 -26 6.5q-14 0 -27.5 -12.5q-13.5 -12.5 -17.5 -35.5z" />
<glyph unicode="&#196;" horiz-adv-x="707" d="M478 147h-256l-48 -147h-163l246 700h194l245 -700h-168zM267 282h166l-83 249zM239 762q-45 0 -65.5 19.5q-20.5 19.5 -20.5 58.5q0 39 20.5 58.5q20.5 19.5 65.5 19.5q45 0 65.5 -19.5q20.5 -19.5 20.5 -58.5q0 -39 -20.5 -58.5q-20.5 -19.5 -65.5 -19.5zt0 0zM467 762q-45 0 -65.5 19.5q-20.5 19.5 -20.5 58.5q0 39 20.5 58.5q20.5 19.5 65.5 19.5q45 0 65.5 -19.5q20.5 -19.5 20.5 -58.5q0 -39 -20.5 -58.5t-65.5 -19.5z" />
<glyph unicode="&#197;" horiz-adv-x="707" d="M478 147h-256l-48 -147h-163l246 700h194l245 -700h-168zM267 282h166l-83 249zM235 840q0 25 9 47q9 22 24.5 37.5q15.5 15.5 37 24.5q21.5 9 47.5 9q25 0 47 -9q22 -9 37.5 -24.5q15.5 -15.5 24.5 -37.5q9 -22 9 -47q0 -26 -9 -47.5q-9 -21.5 -24.5 -37q-15.5 -15.5 -37.5 -24.5q-22 -9 -47 -9q-26 0 -47.5 9q-21.5 9 -37 24.5q-15.5 15.5 -24.5 37q-9 21.5 -9 47.5zt0 0zM309 840q0 -21 12 -33q12 -12 32 -12q20 0 32 12q12 12 12 33q0 21 -12 33q-12 12 -32 12q-20 0 -32 -12t-12 -33z" />
<glyph unicode="&#198;" horiz-adv-x="1038" d="M507 147h-244l-85 -147h-167l412 700h555v-142h-307v-138h272v-132h-272v-146h311v-142h-475zM507 288v280l-163 -280z" />
<glyph unicode="&#199;" horiz-adv-x="656" d="M333 -9q-150 14 -216.5 100.5q-66.5 86.5 -66.5 252.5q0 94 20.5 163.5q20.5 69.5 63.5 115.5q43 46 110 68q67 22 161 22q71 0 118 -11.5q47 -11.5 72 -19.5l0 -167q-31 18 -74.5 34q-43.5 16 -111.5 16q-47 0 -82 -11q-35 -11 -58 -36q-23 -25 -34 -65.5q-11 -40.5 -11 -99.5q0 -62 12 -104q12 -42 36 -67.5q24 -25.5 60 -36q36 -10.5 85 -10.5q66 0 113 17q47 17 73 36l0 -163q-26 -12 -72.5 -24q-46.5 -12 -112.5 -14l-7 -41q22 0 43 -5q21 -5 37 -16.5q16 -11.5 26 -30q10 -18.5 10 -45.5q0 -26 -11 -46.5q-11 -20.5 -30.5 -35.5q-19.5 -15 -46 -23q-26.5 -8 -57.5 -8q-34 0 -58.5 4.5q-24.5 4.5 -44.5 12.5l12 69q31 -13 63 -13q24 0 41.5 10q17.5 10 17.5 32q0 23 -19.5 30.5q-19.5 7.5 -42.5 7.5q-8 0 -17 0q-9 0 -17 -2z" />
<glyph unicode="&#200;" horiz-adv-x="636" d="M91 700h488v-142h-324v-138h285v-132h-285v-146h324v-142h-488zM392 760h-120l-160 160l192 0z" />
<glyph unicode="&#201;" horiz-adv-x="636" d="M91 700h488v-142h-324v-138h285v-132h-285v-146h324v-142h-488zM379 925h192l-178 -170l-122 0z" />
<glyph unicode="&#202;" horiz-adv-x="636" d="M91 700h488v-142h-324v-138h285v-132h-285v-146h324v-142h-488zM255 925h160l120 -170h-121l-78 97l-80 -97l-121 0z" />
<glyph unicode="&#203;" horiz-adv-x="636" d="M91 700h488v-142h-324v-138h285v-132h-285v-146h324v-142h-488zM221 762q-45 0 -65.5 19.5q-20.5 19.5 -20.5 58.5q0 39 20.5 58.5q20.5 19.5 65.5 19.5q45 0 65.5 -19.5q20.5 -19.5 20.5 -58.5q0 -39 -20.5 -58.5q-20.5 -19.5 -65.5 -19.5zt0 0zM449 762q-45 0 -65.5 19.5q-20.5 19.5 -20.5 58.5q0 39 20.5 58.5q20.5 19.5 65.5 19.5q45 0 65.5 -19.5q20.5 -19.5 20.5 -58.5q0 -39 -20.5 -58.5t-65.5 -19.5z" />
<glyph unicode="&#204;" horiz-adv-x="349" d="M93 700h163v-700h-163zM235 760h-120l-160 160l192 0z" />
<glyph unicode="&#205;" horiz-adv-x="349" d="M93 700h163v-700h-163zM222 925h192l-178 -170l-122 0z" />
<glyph unicode="&#206;" horiz-adv-x="349" d="M93 700h163v-700h-163zM94 925h160l120 -170h-121l-78 97l-80 -97l-121 0z" />
<glyph unicode="&#207;" horiz-adv-x="349" d="M93 700h163v-700h-163zM60 762q-45 0 -65.5 19.5q-20.5 19.5 -20.5 58.5q0 39 20.5 58.5q20.5 19.5 65.5 19.5q45 0 65.5 -19.5q20.5 -19.5 20.5 -58.5q0 -39 -20.5 -58.5q-20.5 -19.5 -65.5 -19.5zt0 0zM288 762q-45 0 -65.5 19.5q-20.5 19.5 -20.5 58.5q0 39 20.5 58.5q20.5 19.5 65.5 19.5q45 0 65.5 -19.5q20.5 -19.5 20.5 -58.5q0 -39 -20.5 -58.5t-65.5 -19.5z" />
<glyph unicode="&#208;" horiz-adv-x="753" d="M22 415h69v284q31 2 59 3.5q28 1.5 56 2q28 0.5 58.5 1q30.5 0.5 67.5 0.5q107 0 178.5 -22.5q71.5 -22.5 114 -65.5q42.5 -43 60.5 -106q18 -63 18 -145q0 -95 -22.5 -165.5q-22.5 -70.5 -70 -116.5q-47.5 -46 -121 -68.5q-73.5 -22.5 -174.5 -22.5q-33 0 -61 0.5q-28 0.5 -54 1.5q-26 1 -52.5 2.5q-26.5 1.5 -56.5 3.5l0 292h-69zM255 139q18 -2 33.5 -3q15.5 -1 34.5 -1q56 0 96 12.5q40 12.5 65.5 39.5q25.5 27 37.5 69.5q12 42.5 12 101.5q0 55 -10.5 94.5q-10.5 39.5 -34 64.5q-23.5 25 -61.5 36.5q-38 11.5 -93 11.5q-23 0 -41.5 -1q-18.5 -1 -38.5 -3l0 -146h162v-121l-162 0z" />
<glyph unicode="&#209;" horiz-adv-x="800" d="M91 700h177l231 -366q16 -26 29 -52q13 -26 26 -50q-2 26 -3.5 55q-1.5 29 -1.5 58v355h160v-700h-171l-233 370q-16 24 -31 54q-15 30 -29 57q2 -26 3.5 -54.5q1.5 -28.5 1.5 -57.5v-369h-159zM205 780q1 32 10.5 57q9.5 25 25.5 41.5q16 16.5 36.5 25q20.5 8.5 43.5 8.5q22 0 41.5 -7.5q19.5 -7.5 44.5 -18.5q13 -6 22 -10q9 -4 16 -6.5q7 -2.5 12.5 -3.5q5.5 -1 12.5 -1q17 0 29 12q12 12 15 35l81 -13q-3 -61 -35.5 -96q-32.5 -35 -80.5 -35q-12 0 -22 1q-10 1 -19.5 4q-9.5 3 -20.5 7.5q-11 4.5 -25 11.5q-23 11 -35 17.5q-12 6.5 -26 6.5q-14 0 -27.5 -12.5q-13.5 -12.5 -17.5 -35.5z" />
<glyph unicode="&#210;" horiz-adv-x="793" d="M50 350q0 190 85.5 277q85.5 87 262.5 87q94 0 159.5 -21.5q65.5 -21.5 106.5 -66q41 -44.5 59.5 -113q18.5 -68.5 18.5 -163.5q0 -99 -22 -168q-22 -69 -65.5 -112.5q-43.5 -43.5 -108 -63.5q-64.5 -20 -148.5 -20q-170 0 -259 86.5q-89 86.5 -89 277.5zt0 0zM224 349q0 -65 12.5 -108q12.5 -43 35.5 -68q23 -25 55.5 -35q32.5 -10 73.5 -10q41 0 72.5 10.5q31.5 10.5 52.5 36q21 25.5 32 68q11 42.5 11 106.5q0 64 -11 107q-11 43 -33 69q-22 26 -55 36.5q-33 10.5 -76 10.5q-86 0 -128 -50.5q-42 -50.5 -42 -172.5zt0 0zM457 760h-120l-160 160l192 0z" />
<glyph unicode="&#211;" horiz-adv-x="793" d="M50 350q0 190 85.5 277q85.5 87 262.5 87q94 0 159.5 -21.5q65.5 -21.5 106.5 -66q41 -44.5 59.5 -113q18.5 -68.5 18.5 -163.5q0 -99 -22 -168q-22 -69 -65.5 -112.5q-43.5 -43.5 -108 -63.5q-64.5 -20 -148.5 -20q-170 0 -259 86.5q-89 86.5 -89 277.5zt0 0zM224 349q0 -65 12.5 -108q12.5 -43 35.5 -68q23 -25 55.5 -35q32.5 -10 73.5 -10q41 0 72.5 10.5q31.5 10.5 52.5 36q21 25.5 32 68q11 42.5 11 106.5q0 64 -11 107q-11 43 -33 69q-22 26 -55 36.5q-33 10.5 -76 10.5q-86 0 -128 -50.5q-42 -50.5 -42 -172.5zt0 0zM444 925h192l-178 -170l-122 0z" />
<glyph unicode="&#212;" horiz-adv-x="793" d="M50 350q0 190 85.5 277q85.5 87 262.5 87q94 0 159.5 -21.5q65.5 -21.5 106.5 -66q41 -44.5 59.5 -113q18.5 -68.5 18.5 -163.5q0 -99 -22 -168q-22 -69 -65.5 -112.5q-43.5 -43.5 -108 -63.5q-64.5 -20 -148.5 -20q-170 0 -259 86.5q-89 86.5 -89 277.5zt0 0zM224 349q0 -65 12.5 -108q12.5 -43 35.5 -68q23 -25 55.5 -35q32.5 -10 73.5 -10q41 0 72.5 10.5q31.5 10.5 52.5 36q21 25.5 32 68q11 42.5 11 106.5q0 64 -11 107q-11 43 -33 69q-22 26 -55 36.5q-33 10.5 -76 10.5q-86 0 -128 -50.5q-42 -50.5 -42 -172.5zt0 0zM317 925h160l120 -170h-121l-78 97l-80 -97l-121 0z" />
<glyph unicode="&#213;" horiz-adv-x="793" d="M50 350q0 190 85.5 277q85.5 87 262.5 87q94 0 159.5 -21.5q65.5 -21.5 106.5 -66q41 -44.5 59.5 -113q18.5 -68.5 18.5 -163.5q0 -99 -22 -168q-22 -69 -65.5 -112.5q-43.5 -43.5 -108 -63.5q-64.5 -20 -148.5 -20q-170 0 -259 86.5q-89 86.5 -89 277.5zt0 0zM224 349q0 -65 12.5 -108q12.5 -43 35.5 -68q23 -25 55.5 -35q32.5 -10 73.5 -10q41 0 72.5 10.5q31.5 10.5 52.5 36q21 25.5 32 68q11 42.5 11 106.5q0 64 -11 107q-11 43 -33 69q-22 26 -55 36.5q-33 10.5 -76 10.5q-86 0 -128 -50.5q-42 -50.5 -42 -172.5zt0 0zM202 780q1 32 10.5 57q9.5 25 25.5 41.5q16 16.5 36.5 25q20.5 8.5 43.5 8.5q22 0 41.5 -7.5q19.5 -7.5 44.5 -18.5q13 -6 22 -10q9 -4 16 -6.5q7 -2.5 12.5 -3.5q5.5 -1 12.5 -1q17 0 29 12q12 12 15 35l81 -13q-3 -61 -35.5 -96q-32.5 -35 -80.5 -35q-12 0 -22 1q-10 1 -19.5 4q-9.5 3 -20.5 7.5q-11 4.5 -25 11.5q-23 11 -35 17.5q-12 6.5 -26 6.5q-14 0 -27.5 -12.5q-13.5 -12.5 -17.5 -35.5z" />
<glyph unicode="&#214;" horiz-adv-x="793" d="M50 350q0 190 85.5 277q85.5 87 262.5 87q94 0 159.5 -21.5q65.5 -21.5 106.5 -66q41 -44.5 59.5 -113q18.5 -68.5 18.5 -163.5q0 -99 -22 -168q-22 -69 -65.5 -112.5q-43.5 -43.5 -108 -63.5q-64.5 -20 -148.5 -20q-170 0 -259 86.5q-89 86.5 -89 277.5zt0 0zM224 349q0 -65 12.5 -108q12.5 -43 35.5 -68q23 -25 55.5 -35q32.5 -10 73.5 -10q41 0 72.5 10.5q31.5 10.5 52.5 36q21 25.5 32 68q11 42.5 11 106.5q0 64 -11 107q-11 43 -33 69q-22 26 -55 36.5q-33 10.5 -76 10.5q-86 0 -128 -50.5q-42 -50.5 -42 -172.5zt0 0zM282 762q-45 0 -65.5 19.5q-20.5 19.5 -20.5 58.5q0 39 20.5 58.5q20.5 19.5 65.5 19.5q45 0 65.5 -19.5q20.5 -19.5 20.5 -58.5q0 -39 -20.5 -58.5q-20.5 -19.5 -65.5 -19.5zt0 0zM510 762q-45 0 -65.5 19.5q-20.5 19.5 -20.5 58.5q0 39 20.5 58.5q20.5 19.5 65.5 19.5q45 0 65.5 -19.5q20.5 -19.5 20.5 -58.5q0 -39 -20.5 -58.5t-65.5 -19.5z" />
<glyph unicode="&#215;" horiz-adv-x="569" d="M202 324l-134 139l83 83l133 -137l134 137l84 -83l-135 -139l135 -138l-84 -82l-134 137l-133 -137l-83 82z" />
<glyph unicode="&#216;" horiz-adv-x="793" d="M50 350q0 190 85.5 277q85.5 87 262.5 87q57 0 103 -8q46 -8 83 -24l49 66l72 -54l-46 -62q44 -45 63.5 -114.5q19.5 -69.5 19.5 -167.5q0 -99 -22 -168q-22 -69 -65.5 -112.5q-43.5 -43.5 -108 -63.5q-64.5 -20 -148.5 -20q-114 0 -193 38l-57 -76l-73 53l58 78q-83 89 -83 271zt0 0zM569 349q0 85 -20 136l-250 -335q21 -12 46.5 -17q25.5 -5 55.5 -5q41 0 72.5 10.5q31.5 10.5 52.5 36q21 25.5 32 68q11 42.5 11 106.5zt0 0zM224 349q0 -76 17 -125l247 330q-20 10 -43 14q-23 4 -51 4q-86 0 -128 -50.5t-42 -172.5z" />
<glyph unicode="&#217;" horiz-adv-x="755" d="M86 700h164v-404q0 -51 7.5 -83.5q7.5 -32.5 23.5 -51q16 -18.5 41 -25.5q25 -7 60 -7q33 0 56.5 6.5q23.5 6.5 38 24.5q14.5 18 21.5 50q7 32 7 82v408h164v-419q0 -86 -19.5 -142.5q-19.5 -56.5 -57 -90q-37.5 -33.5 -91.5 -47.5q-54 -14 -123 -14q-72 0 -127 14.5q-55 14.5 -91.5 48q-36.5 33.5 -55 90q-18.5 56.5 -18.5 140.5zM438 760h-120l-160 160l192 0z" />
<glyph unicode="&#218;" horiz-adv-x="755" d="M86 700h164v-404q0 -51 7.5 -83.5q7.5 -32.5 23.5 -51q16 -18.5 41 -25.5q25 -7 60 -7q33 0 56.5 6.5q23.5 6.5 38 24.5q14.5 18 21.5 50q7 32 7 82v408h164v-419q0 -86 -19.5 -142.5q-19.5 -56.5 -57 -90q-37.5 -33.5 -91.5 -47.5q-54 -14 -123 -14q-72 0 -127 14.5q-55 14.5 -91.5 48q-36.5 33.5 -55 90q-18.5 56.5 -18.5 140.5zM425 925h192l-178 -170l-122 0z" />
<glyph unicode="&#219;" horiz-adv-x="755" d="M86 700h164v-404q0 -51 7.5 -83.5q7.5 -32.5 23.5 -51q16 -18.5 41 -25.5q25 -7 60 -7q33 0 56.5 6.5q23.5 6.5 38 24.5q14.5 18 21.5 50q7 32 7 82v408h164v-419q0 -86 -19.5 -142.5q-19.5 -56.5 -57 -90q-37.5 -33.5 -91.5 -47.5q-54 -14 -123 -14q-72 0 -127 14.5q-55 14.5 -91.5 48q-36.5 33.5 -55 90q-18.5 56.5 -18.5 140.5zM298 925h160l120 -170h-121l-78 97l-80 -97l-121 0z" />
<glyph unicode="&#220;" horiz-adv-x="755" d="M86 700h164v-404q0 -51 7.5 -83.5q7.5 -32.5 23.5 -51q16 -18.5 41 -25.5q25 -7 60 -7q33 0 56.5 6.5q23.5 6.5 38 24.5q14.5 18 21.5 50q7 32 7 82v408h164v-419q0 -86 -19.5 -142.5q-19.5 -56.5 -57 -90q-37.5 -33.5 -91.5 -47.5q-54 -14 -123 -14q-72 0 -127 14.5q-55 14.5 -91.5 48q-36.5 33.5 -55 90q-18.5 56.5 -18.5 140.5zM263 762q-45 0 -65.5 19.5q-20.5 19.5 -20.5 58.5q0 39 20.5 58.5q20.5 19.5 65.5 19.5q45 0 65.5 -19.5q20.5 -19.5 20.5 -58.5q0 -39 -20.5 -58.5q-20.5 -19.5 -65.5 -19.5zt0 0zM491 762q-45 0 -65.5 19.5q-20.5 19.5 -20.5 58.5q0 39 20.5 58.5q20.5 19.5 65.5 19.5q45 0 65.5 -19.5q20.5 -19.5 20.5 -58.5q0 -39 -20.5 -58.5t-65.5 -19.5z" />
<glyph unicode="&#221;" horiz-adv-x="666" d="M252 252l-242 448h187l139 -267l134 267h186l-240 -448v-252h-164zM381 925h192l-178 -170l-122 0z" />
<glyph unicode="&#222;" horiz-adv-x="634" d="M70 707h164v-96h90q132 0 201.5 -55.5q69.5 -55.5 69.5 -175.5q0 -118 -69 -182q-69 -64 -216 -64h-76v-141h-164zM310 278q60 0 87.5 23.5q27.5 23.5 27.5 71.5q0 52 -27.5 73.5q-27.5 21.5 -89.5 21.5h-77l0 -190z" />
<glyph unicode="&#223;" horiz-adv-x="675" d="M63 518q0 67 16 119q16 52 50 88q34 36 87.5 54.5q53.5 18.5 128.5 18.5q63 0 110.5 -15q47.5 -15 79 -42q31.5 -27 47.5 -64.5q16 -37.5 16 -82.5q0 -37 -10 -66q-10 -29 -26.5 -50.5q-16.5 -21.5 -38.5 -35.5q-22 -14 -46 -22l0 -4q31 -5 59.5 -18.5q28.5 -13.5 49.5 -37q21 -23.5 33.5 -58.5q12.5 -35 12.5 -82q0 -45 -14.5 -87q-14.5 -42 -44 -73.5q-29.5 -31.5 -75 -50.5q-45.5 -19 -108.5 -19q-29 0 -51.5 2q-22.5 2 -45.5 9l0 122q14 -5 31 -7.5q17 -2.5 37 -2.5q48 0 76.5 27.5q28.5 27.5 28.5 90.5q0 36 -9 59q-9 23 -25 35.5q-16 12.5 -37 17.5q-21 5 -46 5h-44v120h36q42 0 67 25q25 25 25 82q0 51 -28.5 73q-28.5 22 -69.5 22q-33 0 -54 -11.5q-21 -11.5 -33.5 -32q-12.5 -20.5 -17.5 -48q-5 -27.5 -5 -58.5v-520l-162 0z" />
<glyph unicode="&#224;" horiz-adv-x="619" d="M400 78q-8 -15 -23.5 -31.5q-15.5 -16.5 -38 -30q-22.5 -13.5 -52.5 -22q-30 -8.5 -68 -8.5q-48 0 -82 13q-34 13 -56 35.5q-22 22.5 -32 53.5q-10 31 -10 67q0 89 57.5 126q57.5 37 183.5 37h110v26q0 43 -25 61.5q-25 18.5 -90 18.5q-27 0 -54 -5q-27 -5 -51.5 -14q-24.5 -9 -45.5 -20q-21 -11 -36 -23l0 153q35 17 92 28q57 11 123 11q69 0 116.5 -10.5q47.5 -10.5 77 -34.5q29.5 -24 42 -62.5q12.5 -38.5 12.5 -95.5v-351h-144zM200 172q0 -27 16.5 -45.5q16.5 -18.5 61.5 -18.5q59 0 85 27.5q26 27.5 26 68.5v29h-88q-58 0 -79.5 -13.5q-21.5 -13.5 -21.5 -47.5zt0 0zM266 630l-170 160h190l100 -160z" />
<glyph unicode="&#225;" horiz-adv-x="619" d="M400 78q-8 -15 -23.5 -31.5q-15.5 -16.5 -38 -30q-22.5 -13.5 -52.5 -22q-30 -8.5 -68 -8.5q-48 0 -82 13q-34 13 -56 35.5q-22 22.5 -32 53.5q-10 31 -10 67q0 89 57.5 126q57.5 37 183.5 37h110v26q0 43 -25 61.5q-25 18.5 -90 18.5q-27 0 -54 -5q-27 -5 -51.5 -14q-24.5 -9 -45.5 -20q-21 -11 -36 -23l0 153q35 17 92 28q57 11 123 11q69 0 116.5 -10.5q47.5 -10.5 77 -34.5q29.5 -24 42 -62.5q12.5 -38.5 12.5 -95.5v-351h-144zM200 172q0 -27 16.5 -45.5q16.5 -18.5 61.5 -18.5q59 0 85 27.5q26 27.5 26 68.5v29h-88q-58 0 -79.5 -13.5q-21.5 -13.5 -21.5 -47.5zt0 0zM341 790h190l-170 -160l-120 0z" />
<glyph unicode="&#226;" horiz-adv-x="619" d="M400 78q-8 -15 -23.5 -31.5q-15.5 -16.5 -38 -30q-22.5 -13.5 -52.5 -22q-30 -8.5 -68 -8.5q-48 0 -82 13q-34 13 -56 35.5q-22 22.5 -32 53.5q-10 31 -10 67q0 89 57.5 126q57.5 37 183.5 37h110v26q0 43 -25 61.5q-25 18.5 -90 18.5q-27 0 -54 -5q-27 -5 -51.5 -14q-24.5 -9 -45.5 -20q-21 -11 -36 -23l0 153q35 17 92 28q57 11 123 11q69 0 116.5 -10.5q47.5 -10.5 77 -34.5q29.5 -24 42 -62.5q12.5 -38.5 12.5 -95.5v-351h-144zM200 172q0 -27 16.5 -45.5q16.5 -18.5 61.5 -18.5q59 0 85 27.5q26 27.5 26 68.5v29h-88q-58 0 -79.5 -13.5q-21.5 -13.5 -21.5 -47.5zt0 0zM232 780h156l112 -160h-121l-68 87l-70 -87l-121 0z" />
<glyph unicode="&#227;" horiz-adv-x="619" d="M400 78q-8 -15 -23.5 -31.5q-15.5 -16.5 -38 -30q-22.5 -13.5 -52.5 -22q-30 -8.5 -68 -8.5q-48 0 -82 13q-34 13 -56 35.5q-22 22.5 -32 53.5q-10 31 -10 67q0 89 57.5 126q57.5 37 183.5 37h110v26q0 43 -25 61.5q-25 18.5 -90 18.5q-27 0 -54 -5q-27 -5 -51.5 -14q-24.5 -9 -45.5 -20q-21 -11 -36 -23l0 153q35 17 92 28q57 11 123 11q69 0 116.5 -10.5q47.5 -10.5 77 -34.5q29.5 -24 42 -62.5q12.5 -38.5 12.5 -95.5v-351h-144zM200 172q0 -27 16.5 -45.5q16.5 -18.5 61.5 -18.5q59 0 85 27.5q26 27.5 26 68.5v29h-88q-58 0 -79.5 -13.5q-21.5 -13.5 -21.5 -47.5zt0 0zM120 640q2 65 33 98.5q31 33.5 78 33.5q22 0 41.5 -7.5q19.5 -7.5 44.5 -18.5q13 -6 22 -10q9 -4 16 -6.5q7 -2.5 12.5 -3.5q5.5 -1 12.5 -1q33 0 39 47l81 -13q-3 -61 -33 -96q-30 -35 -78 -35q-12 0 -22 1q-10 1 -19.5 4q-9.5 3 -20.5 7.5q-11 4.5 -25 11.5q-23 11 -35 17.5q-12 6.5 -26 6.5q-14 0 -25 -12.5q-11 -12.5 -15 -35.5z" />
<glyph unicode="&#228;" horiz-adv-x="619" d="M400 78q-8 -15 -23.5 -31.5q-15.5 -16.5 -38 -30q-22.5 -13.5 -52.5 -22q-30 -8.5 -68 -8.5q-48 0 -82 13q-34 13 -56 35.5q-22 22.5 -32 53.5q-10 31 -10 67q0 89 57.5 126q57.5 37 183.5 37h110v26q0 43 -25 61.5q-25 18.5 -90 18.5q-27 0 -54 -5q-27 -5 -51.5 -14q-24.5 -9 -45.5 -20q-21 -11 -36 -23l0 153q35 17 92 28q57 11 123 11q69 0 116.5 -10.5q47.5 -10.5 77 -34.5q29.5 -24 42 -62.5q12.5 -38.5 12.5 -95.5v-351h-144zM200 172q0 -27 16.5 -45.5q16.5 -18.5 61.5 -18.5q59 0 85 27.5q26 27.5 26 68.5v29h-88q-58 0 -79.5 -13.5q-21.5 -13.5 -21.5 -47.5zt0 0zM199 624q-45 0 -64.5 19q-19.5 19 -19.5 57q0 38 19.5 57q19.5 19 64.5 19q45 0 64.5 -19q19.5 -19 19.5 -57q0 -38 -19.5 -57q-19.5 -19 -64.5 -19zt0 0zM421 624q-45 0 -64.5 19q-19.5 19 -19.5 57q0 38 19.5 57q19.5 19 64.5 19q45 0 64.5 -19q19.5 -19 19.5 -57q0 -38 -19.5 -57t-64.5 -19z" />
<glyph unicode="&#229;" horiz-adv-x="619" d="M400 78q-8 -15 -23.5 -31.5q-15.5 -16.5 -38 -30q-22.5 -13.5 -52.5 -22q-30 -8.5 -68 -8.5q-48 0 -82 13q-34 13 -56 35.5q-22 22.5 -32 53.5q-10 31 -10 67q0 89 57.5 126q57.5 37 183.5 37h110v26q0 43 -25 61.5q-25 18.5 -90 18.5q-27 0 -54 -5q-27 -5 -51.5 -14q-24.5 -9 -45.5 -20q-21 -11 -36 -23l0 153q35 17 92 28q57 11 123 11q69 0 116.5 -10.5q47.5 -10.5 77 -34.5q29.5 -24 42 -62.5q12.5 -38.5 12.5 -95.5v-351h-144zM200 172q0 -27 16.5 -45.5q16.5 -18.5 61.5 -18.5q59 0 85 27.5q26 27.5 26 68.5v29h-88q-58 0 -79.5 -13.5q-21.5 -13.5 -21.5 -47.5zt0 0zM194 700q0 52 32 84q32 32 84 32q52 0 84 -32q32 -32 32 -84q0 -52 -32 -84q-32 -32 -84 -32q-52 0 -84 32q-32 32 -32 84zt0 0zM266 700q0 -20 12 -32q12 -12 32 -12q20 0 32 12q12 12 12 32q0 20 -12 32q-12 12 -32 12q-20 0 -32 -12t-12 -32z" />
<glyph unicode="&#230;" horiz-adv-x="984" d="M555 230q2 -61 38 -90q36 -29 113 -29q30 0 59 4.5q29 4.5 55 13q26 8.5 47.5 19.5q21.5 11 36.5 23l0 -136q-20 -17 -78 -33q-58 -16 -142 -16q-153 0 -221 71q-12 -14 -29.5 -26.5q-17.5 -12.5 -42 -22.5q-24.5 -10 -58.5 -16q-34 -6 -79 -6q-57 0 -98 13q-41 13 -67.5 35.5q-26.5 22.5 -38.5 53.5q-12 31 -12 67q0 89 59.5 126.5q59.5 37.5 184.5 37.5h110v26q0 43 -25 61q-25 18 -90 18q-27 0 -54.5 -5q-27.5 -5 -52.5 -13.5q-25 -8.5 -46.5 -19.5q-21.5 -11 -36.5 -23l0 153q35 17 93.5 27.5q58.5 10.5 124.5 10.5q69 0 115.5 -10.5q46.5 -10.5 75.5 -36.5q66 47 178 47q75 0 126 -18q51 -18 82.5 -51.5q31.5 -33.5 45 -81q13.5 -47.5 13.5 -106.5v-67zM671 435q-59 0 -87 -28q-28 -28 -30 -87l228 0q1 55 -24 85q-25 30 -87 30zt0 0zM200 172q0 -27 18 -45.5q18 -18.5 63 -18.5q59 0 85 27q26 27 26 68v27h-88q-58 0 -81 -11.5t-23 -46.5z" />
<glyph unicode="&#231;" horiz-adv-x="580" d="M287 -11q-63 6 -108.5 25.5q-45.5 19.5 -75 54.5q-29.5 35 -43 86.5q-13.5 51.5 -13.5 121.5q0 140 71 208.5q71 68.5 225 68.5q70 0 110 -10q40 -10 66 -22l0 -149q-28 20 -65.5 33.5q-37.5 13.5 -92.5 13.5q-75 0 -112 -32q-37 -32 -37 -112q0 -81 37.5 -118q37.5 -37 127.5 -37q45 0 86.5 12.5q41.5 12.5 65.5 31.5l0 -141q-23 -12 -62 -23.5q-39 -11.5 -99 -13.5l-8 -39q22 0 42 -5q20 -5 35 -16.5q15 -11.5 24 -29q9 -17.5 9 -43.5q0 -48 -36.5 -78q-36.5 -30 -96.5 -30q-29 0 -55 4q-26 4 -46 12l11 66q14 -5 28.5 -8.5q14.5 -3.5 31.5 -3.5q23 0 38.5 11q15.5 11 15.5 33q0 22 -18 29.5q-18 7.5 -40 7.5q-7 0 -16 0q-9 0 -16 -1z" />
<glyph unicode="&#232;" horiz-adv-x="641" d="M208 231q2 -63 39.5 -91.5q37.5 -28.5 115.5 -28.5q29 0 58 4.5q29 4.5 55 13q26 8.5 47.5 19.5q21.5 11 36.5 23l0 -136q-20 -17 -78 -33q-58 -16 -142 -16q-80 0 -135.5 18q-55.5 18 -90.5 54q-35 36 -51 91q-16 55 -16 130q0 140 73.5 207.5q73.5 67.5 210.5 67.5q75 0 125.5 -18q50.5 -18 82 -52q31.5 -34 45 -81.5q13.5 -47.5 13.5 -106.5v-65zM328 435q-60 0 -89 -28q-29 -28 -32 -85l231 0q1 54 -23.5 83.5q-24.5 29.5 -86.5 29.5zt0 0zM287 630l-170 160h190l100 -160z" />
<glyph unicode="&#233;" horiz-adv-x="641" d="M208 231q2 -63 39.5 -91.5q37.5 -28.5 115.5 -28.5q29 0 58 4.5q29 4.5 55 13q26 8.5 47.5 19.5q21.5 11 36.5 23l0 -136q-20 -17 -78 -33q-58 -16 -142 -16q-80 0 -135.5 18q-55.5 18 -90.5 54q-35 36 -51 91q-16 55 -16 130q0 140 73.5 207.5q73.5 67.5 210.5 67.5q75 0 125.5 -18q50.5 -18 82 -52q31.5 -34 45 -81.5q13.5 -47.5 13.5 -106.5v-65zM328 435q-60 0 -89 -28q-29 -28 -32 -85l231 0q1 54 -23.5 83.5q-24.5 29.5 -86.5 29.5zt0 0zM363 790h190l-170 -160l-120 0z" />
<glyph unicode="&#234;" horiz-adv-x="641" d="M208 231q2 -63 39.5 -91.5q37.5 -28.5 115.5 -28.5q29 0 58 4.5q29 4.5 55 13q26 8.5 47.5 19.5q21.5 11 36.5 23l0 -136q-20 -17 -78 -33q-58 -16 -142 -16q-80 0 -135.5 18q-55.5 18 -90.5 54q-35 36 -51 91q-16 55 -16 130q0 140 73.5 207.5q73.5 67.5 210.5 67.5q75 0 125.5 -18q50.5 -18 82 -52q31.5 -34 45 -81.5q13.5 -47.5 13.5 -106.5v-65zM328 435q-60 0 -89 -28q-29 -28 -32 -85l231 0q1 54 -23.5 83.5q-24.5 29.5 -86.5 29.5zt0 0zM253 780h156l112 -160h-121l-68 87l-70 -87l-121 0z" />
<glyph unicode="&#235;" horiz-adv-x="641" d="M208 231q2 -63 39.5 -91.5q37.5 -28.5 115.5 -28.5q29 0 58 4.5q29 4.5 55 13q26 8.5 47.5 19.5q21.5 11 36.5 23l0 -136q-20 -17 -78 -33q-58 -16 -142 -16q-80 0 -135.5 18q-55.5 18 -90.5 54q-35 36 -51 91q-16 55 -16 130q0 140 73.5 207.5q73.5 67.5 210.5 67.5q75 0 125.5 -18q50.5 -18 82 -52q31.5 -34 45 -81.5q13.5 -47.5 13.5 -106.5v-65zM328 435q-60 0 -89 -28q-29 -28 -32 -85l231 0q1 54 -23.5 83.5q-24.5 29.5 -86.5 29.5zt0 0zM221 624q-45 0 -64.5 19q-19.5 19 -19.5 57q0 38 19.5 57q19.5 19 64.5 19q45 0 64.5 -19q19.5 -19 19.5 -57q0 -38 -19.5 -57q-19.5 -19 -64.5 -19zt0 0zM443 624q-45 0 -64.5 19q-19.5 19 -19.5 57q0 38 19.5 57q19.5 19 64.5 19q45 0 64.5 -19q19.5 -19 19.5 -57q0 -38 -19.5 -57t-64.5 -19z" />
<glyph unicode="&#236;" horiz-adv-x="321" d="M80 540h160v-540h-160zM118 630l-170 160h190l100 -160z" />
<glyph unicode="&#237;" horiz-adv-x="321" d="M80 540h160v-540h-160zM193 790h190l-170 -160l-120 0z" />
<glyph unicode="&#238;" horiz-adv-x="321" d="M80 540h160v-540h-160zM82 780h156l112 -160h-121l-68 87l-70 -87l-121 0z" />
<glyph unicode="&#239;" horiz-adv-x="321" d="M80 540h160v-540h-160zM49 624q-45 0 -64.5 19q-19.5 19 -19.5 57q0 38 19.5 57q19.5 19 64.5 19q45 0 64.5 -19q19.5 -19 19.5 -57q0 -38 -19.5 -57q-19.5 -19 -64.5 -19zt0 0zM271 624q-45 0 -64.5 19q-19.5 19 -19.5 57q0 38 19.5 57q19.5 19 64.5 19q45 0 64.5 -19q19.5 -19 19.5 -57q0 -38 -19.5 -57t-64.5 -19z" />
<glyph unicode="&#240;" horiz-adv-x="666" d="M158 617l81 41q-37 16 -69.5 25q-32.5 9 -58.5 13l57 102q49 -8 100.5 -26q51.5 -18 103.5 -46l137 67l34 -63l-101 -51q96 -86 136 -188q40 -102 40 -212q0 -88 -27.5 -144.5q-27.5 -56.5 -70.5 -89q-43 -32.5 -96 -45q-53 -12.5 -103 -12.5q-76 0 -128.5 20q-52.5 20 -85.5 56q-33 36 -48 86q-15 50 -15 110q0 128 65 195.5q65 67.5 185 67.5q32 0 67 -9.5q35 -9.5 70 -42.5l4 2q-13 36 -40 71.5q-27 35.5 -78 72.5l-126 -62zM208 262q0 -78 33.5 -112.5q33.5 -34.5 89.5 -34.5q61 0 92 34.5q31 34.5 31 112.5q0 70 -30 107q-30 37 -93 37q-60 0 -91.5 -33t-31.5 -111z" />
<glyph unicode="&#241;" horiz-adv-x="676" d="M76 540h154l5 -76q25 50 70.5 70q45.5 20 104.5 20q97 0 147 -45q50 -45 50 -150v-359h-159v305q0 33 -5 55.5q-5 22.5 -17 36q-12 13.5 -32 19.5q-20 6 -50 6q-59 0 -84 -29.5q-25 -29.5 -25 -87.5v-305h-159zM152 640q2 65 33 98.5q31 33.5 78 33.5q22 0 41.5 -7.5q19.5 -7.5 44.5 -18.5q13 -6 22 -10q9 -4 16 -6.5q7 -2.5 12.5 -3.5q5.5 -1 12.5 -1q33 0 39 47l81 -13q-3 -61 -33 -96q-30 -35 -78 -35q-12 0 -22 1q-10 1 -19.5 4q-9.5 3 -20.5 7.5q-11 4.5 -25 11.5q-23 11 -35 17.5q-12 6.5 -26 6.5q-14 0 -25 -12.5q-11 -12.5 -15 -35.5z" />
<glyph unicode="&#242;" horiz-adv-x="675" d="M47 271q0 144 74 213.5q74 69.5 219 69.5q150 0 219 -68.5q69 -68.5 69 -215.5q0 -147 -71.5 -215.5q-71.5 -68.5 -219.5 -68.5q-152 0 -221 70q-69 70 -69 215zt0 0zM211 267q0 -77 29 -115.5q29 -38.5 99 -38.5q67 0 96 36q29 36 29 117v5q0 82 -27.5 119q-27.5 37 -99.5 37q-71 0 -98.5 -37.5q-27.5 -37.5 -27.5 -118.5zM294 630l-170 160h190l100 -160z" />
<glyph unicode="&#243;" horiz-adv-x="675" d="M47 271q0 144 74 213.5q74 69.5 219 69.5q150 0 219 -68.5q69 -68.5 69 -215.5q0 -147 -71.5 -215.5q-71.5 -68.5 -219.5 -68.5q-152 0 -221 70q-69 70 -69 215zt0 0zM211 267q0 -77 29 -115.5q29 -38.5 99 -38.5q67 0 96 36q29 36 29 117v5q0 82 -27.5 119q-27.5 37 -99.5 37q-71 0 -98.5 -37.5q-27.5 -37.5 -27.5 -118.5zM369 790h190l-170 -160l-120 0z" />
<glyph unicode="&#244;" horiz-adv-x="675" d="M47 271q0 144 74 213.5q74 69.5 219 69.5q150 0 219 -68.5q69 -68.5 69 -215.5q0 -147 -71.5 -215.5q-71.5 -68.5 -219.5 -68.5q-152 0 -221 70q-69 70 -69 215zt0 0zM211 267q0 -77 29 -115.5q29 -38.5 99 -38.5q67 0 96 36q29 36 29 117v5q0 82 -27.5 119q-27.5 37 -99.5 37q-71 0 -98.5 -37.5q-27.5 -37.5 -27.5 -118.5zM260 780h156l112 -160h-121l-68 87l-70 -87l-121 0z" />
<glyph unicode="&#245;" horiz-adv-x="675" d="M47 271q0 144 74 213.5q74 69.5 219 69.5q150 0 219 -68.5q69 -68.5 69 -215.5q0 -147 -71.5 -215.5q-71.5 -68.5 -219.5 -68.5q-152 0 -221 70q-69 70 -69 215zt0 0zM211 267q0 -77 29 -115.5q29 -38.5 99 -38.5q67 0 96 36q29 36 29 117v5q0 82 -27.5 119q-27.5 37 -99.5 37q-71 0 -98.5 -37.5q-27.5 -37.5 -27.5 -118.5zM148 640q2 65 33 98.5q31 33.5 78 33.5q22 0 41.5 -7.5q19.5 -7.5 44.5 -18.5q13 -6 22 -10q9 -4 16 -6.5q7 -2.5 12.5 -3.5q5.5 -1 12.5 -1q33 0 39 47l81 -13q-3 -61 -33 -96q-30 -35 -78 -35q-12 0 -22 1q-10 1 -19.5 4q-9.5 3 -20.5 7.5q-11 4.5 -25 11.5q-23 11 -35 17.5q-12 6.5 -26 6.5q-14 0 -25 -12.5q-11 -12.5 -15 -35.5z" />
<glyph unicode="&#246;" horiz-adv-x="675" d="M47 271q0 144 74 213.5q74 69.5 219 69.5q150 0 219 -68.5q69 -68.5 69 -215.5q0 -147 -71.5 -215.5q-71.5 -68.5 -219.5 -68.5q-152 0 -221 70q-69 70 -69 215zt0 0zM211 267q0 -77 29 -115.5q29 -38.5 99 -38.5q67 0 96 36q29 36 29 117v5q0 82 -27.5 119q-27.5 37 -99.5 37q-71 0 -98.5 -37.5q-27.5 -37.5 -27.5 -118.5zM226 624q-45 0 -64.5 19q-19.5 19 -19.5 57q0 38 19.5 57q19.5 19 64.5 19q45 0 64.5 -19q19.5 -19 19.5 -57q0 -38 -19.5 -57q-19.5 -19 -64.5 -19zt0 0zM448 624q-45 0 -64.5 19q-19.5 19 -19.5 57q0 38 19.5 57q19.5 19 64.5 19q45 0 64.5 -19q19.5 -19 19.5 -57q0 -38 -19.5 -57t-64.5 -19z" />
<glyph unicode="&#247;" horiz-adv-x="585" d="M214 133q0 37 21 57.5q21 20.5 59 20.5q35 0 56.5 -21q21.5 -21 21.5 -57q0 -38 -20 -58q-20 -20 -58 -20q-37 0 -58.5 20.5q-21.5 20.5 -21.5 57.5zt0 0zM214 517q0 37 21 57.5q21 20.5 59 20.5q35 0 56.5 -21q21.5 -21 21.5 -57q0 -38 -20 -58q-20 -20 -58 -20q-37 0 -58.5 21q-21.5 21 -21.5 57zt0 0zM58 384h470v-118l-470 0z" />
<glyph unicode="&#248;" horiz-adv-x="675" d="M47 271q0 144 74 213.5q74 69.5 219 69.5q82 0 141 -21l52 68l63 -46l-46 -61q78 -68 78 -224q0 -147 -71.5 -215.5q-71.5 -68.5 -219.5 -68.5q-92 0 -152 25l-53 -70l-63 47l49 65q-37 35 -54 89.5q-17 54.5 -17 128.5zt0 0zM464 271q0 59 -13 92l-179 -237q26 -13 67 -13q67 0 96 36q29 36 29 117zM211 267q0 -48 10 -78l174 230q-26 8 -58 8q-71 0 -98.5 -37.5q-27.5 -37.5 -27.5 -118.5z" />
<glyph unicode="&#249;" horiz-adv-x="676" d="M441 79q-28 -48 -71.5 -70.5q-43.5 -22.5 -110.5 -22.5q-97 0 -142.5 49.5q-45.5 49.5 -45.5 155.5v349h159v-311q0 -58 22 -83.5q22 -25.5 79 -25.5q57 0 83 28q26 28 26 88v304h159v-540h-153zM294 630l-170 160h190l100 -160z" />
<glyph unicode="&#250;" horiz-adv-x="676" d="M441 79q-28 -48 -71.5 -70.5q-43.5 -22.5 -110.5 -22.5q-97 0 -142.5 49.5q-45.5 49.5 -45.5 155.5v349h159v-311q0 -58 22 -83.5q22 -25.5 79 -25.5q57 0 83 28q26 28 26 88v304h159v-540h-153zM370 790h190l-170 -160l-120 0z" />
<glyph unicode="&#251;" horiz-adv-x="676" d="M441 79q-28 -48 -71.5 -70.5q-43.5 -22.5 -110.5 -22.5q-97 0 -142.5 49.5q-45.5 49.5 -45.5 155.5v349h159v-311q0 -58 22 -83.5q22 -25.5 79 -25.5q57 0 83 28q26 28 26 88v304h159v-540h-153zM260 780h156l112 -160h-121l-68 87l-70 -87l-121 0z" />
<glyph unicode="&#252;" horiz-adv-x="676" d="M441 79q-28 -48 -71.5 -70.5q-43.5 -22.5 -110.5 -22.5q-97 0 -142.5 49.5q-45.5 49.5 -45.5 155.5v349h159v-311q0 -58 22 -83.5q22 -25.5 79 -25.5q57 0 83 28q26 28 26 88v304h159v-540h-153zM224 624q-45 0 -64.5 19q-19.5 19 -19.5 57q0 38 19.5 57q19.5 19 64.5 19q45 0 64.5 -19q19.5 -19 19.5 -57q0 -38 -19.5 -57q-19.5 -19 -64.5 -19zt0 0zM446 624q-45 0 -64.5 19q-19.5 19 -19.5 57q0 38 19.5 57q19.5 19 64.5 19q45 0 64.5 -19q19.5 -19 19.5 -57q0 -38 -19.5 -57t-64.5 -19z" />
<glyph unicode="&#253;" horiz-adv-x="602" d="M191 -60q22 0 35.5 12q13.5 12 23.5 46l-233 542h180l127 -349l100 349h164l-183 -526q-22 -63 -42.5 -103q-20.5 -40 -44 -63.5q-23.5 -23.5 -50 -32.5q-26.5 -9 -60.5 -9q-23 0 -47.5 3.5q-24.5 3.5 -38.5 9.5l1 139q13 -7 31 -12.5q18 -5.5 37 -5.5zt0 0zM333 790h190l-170 -160l-120 0z" />
<glyph unicode="&#254;" horiz-adv-x="696" d="M75 763h160v-302q23 42 66.5 67.5q43.5 25.5 118.5 25.5q61 0 104 -15.5q43 -15.5 71 -48.5q28 -33 41 -85.5q13 -52.5 13 -125.5q0 -149 -56.5 -219.5q-56.5 -70.5 -184.5 -70.5q-38 0 -66 7q-28 7 -48.5 18.5q-20.5 11.5 -35 25.5q-14.5 14 -23.5 28l0 -248h-160zM235 251q0 -63 29 -98.5q29 -35.5 96 -35.5q34 0 57.5 9q23.5 9 38 28.5q14.5 19.5 20.5 50q6 30.5 6 73.5q0 80 -29 114q-29 34 -94 34q-66 0 -95 -34.5q-29 -34.5 -29 -97.5z" />
<glyph unicode="&#255;" horiz-adv-x="602" d="M191 -60q22 0 35.5 12q13.5 12 23.5 46l-233 542h180l127 -349l100 349h164l-183 -526q-22 -63 -42.5 -103q-20.5 -40 -44 -63.5q-23.5 -23.5 -50 -32.5q-26.5 -9 -60.5 -9q-23 0 -47.5 3.5q-24.5 3.5 -38.5 9.5l1 139q13 -7 31 -12.5q18 -5.5 37 -5.5zt0 0zM191 624q-45 0 -64.5 19q-19.5 19 -19.5 57q0 38 19.5 57q19.5 19 64.5 19q45 0 64.5 -19q19.5 -19 19.5 -57q0 -38 -19.5 -57q-19.5 -19 -64.5 -19zt0 0zM413 624q-45 0 -64.5 19q-19.5 19 -19.5 57q0 38 19.5 57q19.5 19 64.5 19q45 0 64.5 -19q19.5 -19 19.5 -57q0 -38 -19.5 -57t-64.5 -19z" />
<glyph unicode="&#256;" horiz-adv-x="707" d="M478 147h-256l-48 -147h-163l246 700h194l245 -700h-168zM267 282h166l-83 249zM178 892h350v-104l-350 0z" />
<glyph unicode="&#257;" horiz-adv-x="619" d="M400 78q-8 -15 -23.5 -31.5q-15.5 -16.5 -38 -30q-22.5 -13.5 -52.5 -22q-30 -8.5 -68 -8.5q-48 0 -82 13q-34 13 -56 35.5q-22 22.5 -32 53.5q-10 31 -10 67q0 89 57.5 126q57.5 37 183.5 37h110v26q0 43 -25 61.5q-25 18.5 -90 18.5q-27 0 -54 -5q-27 -5 -51.5 -14q-24.5 -9 -45.5 -20q-21 -11 -36 -23l0 153q35 17 92 28q57 11 123 11q69 0 116.5 -10.5q47.5 -10.5 77 -34.5q29.5 -24 42 -62.5q12.5 -38.5 12.5 -95.5v-351h-144zM200 172q0 -27 16.5 -45.5q16.5 -18.5 61.5 -18.5q59 0 85 27.5q26 27.5 26 68.5v29h-88q-58 0 -79.5 -13.5q-21.5 -13.5 -21.5 -47.5zt0 0zM140 750h340v-100l-340 0z" />
<glyph unicode="&#258;" horiz-adv-x="707" d="M478 147h-256l-48 -147h-163l246 700h194l245 -700h-168zM267 282h166l-83 249zM353 755q-143 0 -180 145l94 25q11 -38 33.5 -54q22.5 -16 52.5 -16q30 0 52.5 16q22.5 16 33.5 54l94 -25q-37 -145 -180 -145z" />
<glyph unicode="&#259;" horiz-adv-x="619" d="M400 78q-8 -15 -23.5 -31.5q-15.5 -16.5 -38 -30q-22.5 -13.5 -52.5 -22q-30 -8.5 -68 -8.5q-48 0 -82 13q-34 13 -56 35.5q-22 22.5 -32 53.5q-10 31 -10 67q0 89 57.5 126q57.5 37 183.5 37h110v26q0 43 -25 61.5q-25 18.5 -90 18.5q-27 0 -54 -5q-27 -5 -51.5 -14q-24.5 -9 -45.5 -20q-21 -11 -36 -23l0 153q35 17 92 28q57 11 123 11q69 0 116.5 -10.5q47.5 -10.5 77 -34.5q29.5 -24 42 -62.5q12.5 -38.5 12.5 -95.5v-351h-144zM200 172q0 -27 16.5 -45.5q16.5 -18.5 61.5 -18.5q59 0 85 27.5q26 27.5 26 68.5v29h-88q-58 0 -79.5 -13.5q-21.5 -13.5 -21.5 -47.5zt0 0zM310 615q-143 0 -180 145l92 25q11 -38 34.5 -55q23.5 -17 53.5 -17q30 0 53.5 17q23.5 17 34.5 55l92 -25q-37 -145 -180 -145z" />
<glyph unicode="&#260;" horiz-adv-x="707" d="M478 147h-256l-48 -147h-163l246 700h194l245 -700h-42q-42 -27 -64 -58.5q-22 -31.5 -22 -71.5q0 -27 17 -40.5q17 -13.5 43 -13.5q34 0 62 16l0 -75q-17 -8 -41.5 -14.5q-24.5 -6.5 -57.5 -6.5q-39 0 -65 10q-26 10 -41.5 25.5q-15.5 15.5 -21.5 35q-6 19.5 -6 38.5q0 25 9 47.5q9 22.5 24.5 42q15.5 19.5 35.5 36q20 16.5 43 29.5l-41 0zM267 282h166l-83 249z" />
<glyph unicode="&#261;" horiz-adv-x="619" d="M400 78q-8 -15 -23.5 -31.5q-15.5 -16.5 -38 -30q-22.5 -13.5 -52.5 -22q-30 -8.5 -68 -8.5q-48 0 -82 13q-34 13 -56 35.5q-22 22.5 -32 53.5q-10 31 -10 67q0 89 57.5 126q57.5 37 183.5 37h110v26q0 43 -25 61.5q-25 18.5 -90 18.5q-27 0 -54 -5q-27 -5 -51.5 -14q-24.5 -9 -45.5 -20q-21 -11 -36 -23l0 153q35 17 92 28q57 11 123 11q69 0 116.5 -10.5q47.5 -10.5 77 -34.5q29.5 -24 42 -62.5q12.5 -38.5 12.5 -95.5v-351h-29q-38 -26 -59.5 -56q-21.5 -30 -21.5 -68q0 -26 16 -40.5q16 -14.5 41 -14.5q31 0 60 16l0 -71q-17 -8 -39.5 -14q-22.5 -6 -54.5 -6q-38 0 -63.5 10q-25.5 10 -40.5 25q-15 15 -21.5 34q-6.5 19 -6.5 37q0 48 31.5 86q31.5 38 74.5 62l-31 0zM200 172q0 -27 16.5 -45.5q16.5 -18.5 61.5 -18.5q59 0 85 27.5q26 27.5 26 68.5v29h-88q-58 0 -79.5 -13.5t-21.5 -47.5z" />
<glyph unicode="&#262;" horiz-adv-x="656" d="M595 515q-31 18 -74.5 34q-43.5 16 -111.5 16q-47 0 -82 -11q-35 -11 -58 -36q-23 -25 -34 -65.5q-11 -40.5 -11 -99.5q0 -62 12 -104q12 -42 36 -67.5q24 -25.5 60 -36q36 -10.5 85 -10.5q66 0 113 17q47 17 73 36l0 -163q-27 -13 -77.5 -25.5q-50.5 -12.5 -121.5 -12.5q-94 0 -161 21.5q-67 21.5 -110 65.5q-43 44 -63 111q-20 67 -20 159q0 94 20.5 163.5q20.5 69.5 63.5 115.5q43 46 110 68q67 22 161 22q71 0 118 -11.5q47 -11.5 72 -19.5zM426 925h192l-178 -170l-122 0z" />
<glyph unicode="&#263;" horiz-adv-x="580" d="M519 373q-28 20 -65.5 33.5q-37.5 13.5 -92.5 13.5q-75 0 -112 -32q-37 -32 -37 -112q0 -81 37.5 -118q37.5 -37 127.5 -37q45 0 86.5 12.5q41.5 12.5 65.5 31.5l0 -141q-24 -13 -68.5 -25.5q-44.5 -12.5 -112.5 -12.5q-80 0 -136.5 16.5q-56.5 16.5 -93.5 51.5q-37 35 -54 90q-17 55 -17 133q0 140 71 208.5q71 68.5 225 68.5q70 0 110 -10q40 -10 66 -22zM370 790h190l-170 -160l-120 0z" />
<glyph unicode="&#264;" horiz-adv-x="656" d="M595 515q-31 18 -74.5 34q-43.5 16 -111.5 16q-47 0 -82 -11q-35 -11 -58 -36q-23 -25 -34 -65.5q-11 -40.5 -11 -99.5q0 -62 12 -104q12 -42 36 -67.5q24 -25.5 60 -36q36 -10.5 85 -10.5q66 0 113 17q47 17 73 36l0 -163q-27 -13 -77.5 -25.5q-50.5 -12.5 -121.5 -12.5q-94 0 -161 21.5q-67 21.5 -110 65.5q-43 44 -63 111q-20 67 -20 159q0 94 20.5 163.5q20.5 69.5 63.5 115.5q43 46 110 68q67 22 161 22q71 0 118 -11.5q47 -11.5 72 -19.5zM299 925h160l120 -170h-121l-78 97l-80 -97l-121 0z" />
<glyph unicode="&#265;" horiz-adv-x="580" d="M519 373q-28 20 -65.5 33.5q-37.5 13.5 -92.5 13.5q-75 0 -112 -32q-37 -32 -37 -112q0 -81 37.5 -118q37.5 -37 127.5 -37q45 0 86.5 12.5q41.5 12.5 65.5 31.5l0 -141q-24 -13 -68.5 -25.5q-44.5 -12.5 -112.5 -12.5q-80 0 -136.5 16.5q-56.5 16.5 -93.5 51.5q-37 35 -54 90q-17 55 -17 133q0 140 71 208.5q71 68.5 225 68.5q70 0 110 -10q40 -10 66 -22zM260 780h156l112 -160h-121l-68 87l-70 -87l-121 0z" />
<glyph unicode="&#266;" horiz-adv-x="656" d="M595 515q-31 18 -74.5 34q-43.5 16 -111.5 16q-47 0 -82 -11q-35 -11 -58 -36q-23 -25 -34 -65.5q-11 -40.5 -11 -99.5q0 -62 12 -104q12 -42 36 -67.5q24 -25.5 60 -36q36 -10.5 85 -10.5q66 0 113 17q47 17 73 36l0 -163q-27 -13 -77.5 -25.5q-50.5 -12.5 -121.5 -12.5q-94 0 -161 21.5q-67 21.5 -110 65.5q-43 44 -63 111q-20 67 -20 159q0 94 20.5 163.5q20.5 69.5 63.5 115.5q43 46 110 68q67 22 161 22q71 0 118 -11.5q47 -11.5 72 -19.5zM379 758q-47 0 -68.5 20.5q-21.5 20.5 -21.5 61.5q0 41 21.5 61.5q21.5 20.5 68.5 20.5q47 0 68.5 -20.5q21.5 -20.5 21.5 -61.5q0 -41 -21.5 -61.5t-68.5 -20.5z" />
<glyph unicode="&#267;" horiz-adv-x="580" d="M519 373q-28 20 -65.5 33.5q-37.5 13.5 -92.5 13.5q-75 0 -112 -32q-37 -32 -37 -112q0 -81 37.5 -118q37.5 -37 127.5 -37q45 0 86.5 12.5q41.5 12.5 65.5 31.5l0 -141q-24 -13 -68.5 -25.5q-44.5 -12.5 -112.5 -12.5q-80 0 -136.5 16.5q-56.5 16.5 -93.5 51.5q-37 35 -54 90q-17 55 -17 133q0 140 71 208.5q71 68.5 225 68.5q70 0 110 -10q40 -10 66 -22zM338 620q-46 0 -67 20q-21 20 -21 60q0 40 21 60q21 20 67 20q46 0 67 -20q21 -20 21 -60q0 -40 -21 -60t-67 -20z" />
<glyph unicode="&#268;" horiz-adv-x="656" d="M595 515q-31 18 -74.5 34q-43.5 16 -111.5 16q-47 0 -82 -11q-35 -11 -58 -36q-23 -25 -34 -65.5q-11 -40.5 -11 -99.5q0 -62 12 -104q12 -42 36 -67.5q24 -25.5 60 -36q36 -10.5 85 -10.5q66 0 113 17q47 17 73 36l0 -163q-27 -13 -77.5 -25.5q-50.5 -12.5 -121.5 -12.5q-94 0 -161 21.5q-67 21.5 -110 65.5q-43 44 -63 111q-20 67 -20 159q0 94 20.5 163.5q20.5 69.5 63.5 115.5q43 46 110 68q67 22 161 22q71 0 118 -11.5q47 -11.5 72 -19.5zM179 935h121l79 -97l79 97h121l-120 -170l-160 0z" />
<glyph unicode="&#269;" horiz-adv-x="580" d="M519 373q-28 20 -65.5 33.5q-37.5 13.5 -92.5 13.5q-75 0 -112 -32q-37 -32 -37 -112q0 -81 37.5 -118q37.5 -37 127.5 -37q45 0 86.5 12.5q41.5 12.5 65.5 31.5l0 -141q-24 -13 -68.5 -25.5q-44.5 -12.5 -112.5 -12.5q-80 0 -136.5 16.5q-56.5 16.5 -93.5 51.5q-37 35 -54 90q-17 55 -17 133q0 140 71 208.5q71 68.5 225 68.5q70 0 110 -10q40 -10 66 -22zM148 790h121l69 -87l69 87h121l-112 -160l-156 0z" />
<glyph unicode="&#270;" horiz-adv-x="753" d="M91 699q31 2 59 3.5q28 1.5 56 2q28 0.5 58.5 1q30.5 0.5 67.5 0.5q107 0 178.5 -22.5q71.5 -22.5 114 -65.5q42.5 -43 60.5 -106q18 -63 18 -145q0 -95 -22.5 -165.5q-22.5 -70.5 -70 -116.5q-47.5 -46 -121 -68.5q-73.5 -22.5 -174.5 -22.5q-33 0 -61 0.5q-28 0.5 -54 1.5q-26 1 -52.5 2.5q-26.5 1.5 -56.5 3.5zM255 139q18 -2 33.5 -3q15.5 -1 34.5 -1q56 0 96 12.5q40 12.5 65.5 39.5q25.5 27 37.5 69.5q12 42.5 12 101.5q0 55 -10.5 94.5q-10.5 39.5 -34 64.5q-23.5 25 -61.5 36.5q-38 11.5 -93 11.5q-23 0 -41.5 -1q-18.5 -1 -38.5 -3zM177 935h121l79 -97l79 97h121l-120 -170l-160 0z" />
<glyph unicode="&#271;" horiz-adv-x="808" d="M465 85q-12 -21 -27 -39q-15 -18 -36.5 -31.5q-21.5 -13.5 -51 -21q-29.5 -7.5 -70.5 -7.5q-120 0 -176.5 66.5q-56.5 66.5 -56.5 211.5q0 145 57.5 217.5q57.5 72.5 184.5 72.5q37 0 65 -5.5q28 -5.5 48.5 -15q20.5 -9.5 34.5 -22q14 -12.5 24 -27.5l0 276h159v-760h-150zM338 114q67 0 95.5 37.5q28.5 37.5 27.5 98.5l0 51q0 60 -27.5 92.5q-27.5 32.5 -95.5 32.5q-34 0 -58 -8q-24 -8 -39 -26.5q-15 -18.5 -21.5 -49q-6.5 -30.5 -6.5 -74.5q0 -44 8 -73.5q8 -29.5 24 -47.5q16 -18 39.5 -25.5q23.5 -7.5 53.5 -7.5zt0 0zM726 760h144l-86 -200l-104 0z" />
<glyph unicode="&#272;" horiz-adv-x="761" d="M22 415h69v284q31 2 59 3.5q28 1.5 56 2q28 0.5 58.5 1q30.5 0.5 67.5 0.5q107 0 178.5 -22.5q71.5 -22.5 114 -65.5q42.5 -43 60.5 -106q18 -63 18 -145q0 -95 -22.5 -165.5q-22.5 -70.5 -70 -116.5q-47.5 -46 -121 -68.5q-73.5 -22.5 -174.5 -22.5q-33 0 -61 0.5q-28 0.5 -54 1.5q-26 1 -52.5 2.5q-26.5 1.5 -56.5 3.5l0 292h-69zM255 139q18 -2 33.5 -3q15.5 -1 34.5 -1q56 0 96 12.5q40 12.5 65.5 39.5q25.5 27 37.5 69.5q12 42.5 12 101.5q0 55 -10.5 94.5q-10.5 39.5 -34 64.5q-23.5 25 -61.5 36.5q-38 11.5 -93 11.5q-23 0 -41.5 -1q-18.5 -1 -38.5 -3l0 -146h162v-121l-162 0z" />
<glyph unicode="&#273;" horiz-adv-x="704" d="M465 85q-12 -21 -27 -39q-15 -18 -36.5 -31.5q-21.5 -13.5 -51 -21q-29.5 -7.5 -70.5 -7.5q-120 0 -176.5 66.5q-56.5 66.5 -56.5 211.5q0 145 57.5 217.5q57.5 72.5 184.5 72.5q37 0 65 -5.5q28 -5.5 48.5 -15q20.5 -9.5 34.5 -22q14 -12.5 24 -27.5l0 120h-237v91h237v65h159v-65h73v-91h-73v-604h-150zM338 114q67 0 95 37.5q28 37.5 28 98.5v51q0 60 -27.5 92.5q-27.5 32.5 -95.5 32.5q-34 0 -58 -8q-24 -8 -39 -26.5q-15 -18.5 -21.5 -49q-6.5 -30.5 -6.5 -74.5q0 -44 8 -73.5q8 -29.5 24 -47.5q16 -18 39.5 -25.5t53.5 -7.5z" />
<glyph unicode="&#274;" horiz-adv-x="636" d="M91 700h488v-142h-324v-138h285v-132h-285v-146h324v-142h-488zM160 892h350v-104l-350 0z" />
<glyph unicode="&#275;" horiz-adv-x="641" d="M208 231q2 -63 39.5 -91.5q37.5 -28.5 115.5 -28.5q29 0 58 4.5q29 4.5 55 13q26 8.5 47.5 19.5q21.5 11 36.5 23l0 -136q-20 -17 -78 -33q-58 -16 -142 -16q-80 0 -135.5 18q-55.5 18 -90.5 54q-35 36 -51 91q-16 55 -16 130q0 140 73.5 207.5q73.5 67.5 210.5 67.5q75 0 125.5 -18q50.5 -18 82 -52q31.5 -34 45 -81.5q13.5 -47.5 13.5 -106.5v-65zM328 435q-60 0 -89 -28q-29 -28 -32 -85l231 0q1 54 -23.5 83.5q-24.5 29.5 -86.5 29.5zt0 0zM161 750h340v-100l-340 0z" />
<glyph unicode="&#278;" horiz-adv-x="636" d="M91 700h488v-142h-324v-138h285v-132h-285v-146h324v-142h-488zM335 758q-47 0 -68.5 20.5q-21.5 20.5 -21.5 61.5q0 41 21.5 61.5q21.5 20.5 68.5 20.5q47 0 68.5 -20.5q21.5 -20.5 21.5 -61.5q0 -41 -21.5 -61.5t-68.5 -20.5z" />
<glyph unicode="&#279;" horiz-adv-x="641" d="M208 231q2 -63 39.5 -91.5q37.5 -28.5 115.5 -28.5q29 0 58 4.5q29 4.5 55 13q26 8.5 47.5 19.5q21.5 11 36.5 23l0 -136q-20 -17 -78 -33q-58 -16 -142 -16q-80 0 -135.5 18q-55.5 18 -90.5 54q-35 36 -51 91q-16 55 -16 130q0 140 73.5 207.5q73.5 67.5 210.5 67.5q75 0 125.5 -18q50.5 -18 82 -52q31.5 -34 45 -81.5q13.5 -47.5 13.5 -106.5v-65zM328 435q-60 0 -89 -28q-29 -28 -32 -85l231 0q1 54 -23.5 83.5q-24.5 29.5 -86.5 29.5zt0 0zM331 620q-46 0 -67 20q-21 20 -21 60q0 40 21 60q21 20 67 20q46 0 67 -20q21 -20 21 -60q0 -40 -21 -60t-67 -20z" />
<glyph unicode="&#280;" horiz-adv-x="636" d="M91 700h488v-142h-324v-138h285v-132h-285v-146h324v-142h-33q-42 -27 -64 -58.5q-22 -31.5 -22 -71.5q0 -27 17 -40.5q17 -13.5 43 -13.5q34 0 62 16l0 -75q-17 -8 -41.5 -14.5q-24.5 -6.5 -57.5 -6.5q-39 0 -65 10q-26 10 -41.5 25.5q-15.5 15.5 -21.5 35q-6 19.5 -6 38.5q0 25 9 47.5q9 22.5 24.5 42q15.5 19.5 35.5 36q20 16.5 43 29.5l-370 0z" />
<glyph unicode="&#281;" horiz-adv-x="641" d="M485 -234q-17 -8 -39.5 -14q-22.5 -6 -54.5 -6q-38 0 -63.5 10q-25.5 10 -40.5 25q-15 15 -21.5 34q-6.5 19 -6.5 37q0 42 24.5 76q24.5 34 59.5 58l-3 0q-80 0 -135.5 18q-55.5 18 -90.5 54q-35 36 -51 91q-16 55 -16 130q0 140 73.5 207.5q73.5 67.5 210.5 67.5q75 0 125.5 -18q50.5 -18 82 -52q31.5 -34 45 -81.5q13.5 -47.5 13.5 -106.5v-65h-389q2 -63 39.5 -91.5q37.5 -28.5 115.5 -28.5q29 0 58 4.5q29 4.5 55 13q26 8.5 47.5 19.5q21.5 11 36.5 23l0 -136q-14 -11 -44.5 -22.5q-30.5 -11.5 -75.5 -18.5q-35 -25 -53.5 -53.5q-18.5 -28.5 -18.5 -64.5q0 -26 16 -40.5q16 -14.5 41 -14.5q31 0 60 16zM328 435q-60 0 -89 -28q-29 -28 -32 -85l231 0q1 54 -23.5 83.5t-86.5 29.5z" />
<glyph unicode="&#282;" horiz-adv-x="636" d="M91 700h488v-142h-324v-138h285v-132h-285v-146h324v-142h-488zM132 935h121l79 -97l79 97h121l-120 -170l-160 0z" />
<glyph unicode="&#283;" horiz-adv-x="641" d="M208 231q2 -63 39.5 -91.5q37.5 -28.5 115.5 -28.5q29 0 58 4.5q29 4.5 55 13q26 8.5 47.5 19.5q21.5 11 36.5 23l0 -136q-20 -17 -78 -33q-58 -16 -142 -16q-80 0 -135.5 18q-55.5 18 -90.5 54q-35 36 -51 91q-16 55 -16 130q0 140 73.5 207.5q73.5 67.5 210.5 67.5q75 0 125.5 -18q50.5 -18 82 -52q31.5 -34 45 -81.5q13.5 -47.5 13.5 -106.5v-65zM328 435q-60 0 -89 -28q-29 -28 -32 -85l231 0q1 54 -23.5 83.5q-24.5 29.5 -86.5 29.5zt0 0zM141 790h121l69 -87l69 87h121l-112 -160l-156 0z" />
<glyph unicode="&#284;" horiz-adv-x="717" d="M390 395h270v-355q-17 -9 -42 -18q-25 -9 -57.5 -17q-32.5 -8 -72 -13q-39.5 -5 -83.5 -5q-183 0 -269 85q-86 85 -86 272q0 94 20.5 163.5q20.5 69.5 65 115.5q44.5 46 115 68q70.5 22 170.5 22q74 0 121 -10q47 -10 71 -21l0 -157q-36 22 -81 34.5q-45 12.5 -100 12.5q-58 0 -98.5 -12.5q-40.5 -12.5 -66 -38.5q-25.5 -26 -37 -68q-11.5 -42 -11.5 -100q0 -122 48 -173.5q48 -51.5 151 -51.5q34 0 57.5 4q23.5 4 41.5 9l0 122h-127zM296 925h160l120 -170h-121l-78 97l-80 -97l-121 0z" />
<glyph unicode="&#285;" horiz-adv-x="697" d="M100 -11q25 -16 78 -33q53 -17 134 -17q42 0 71 7.5q29 7.5 46 21.5q17 14 24.5 35.5q7.5 21.5 7.5 50.5v51q-23 -35 -66.5 -58q-43.5 -23 -112.5 -23q-119 0 -177 58q-58 58 -58 193q0 146 57 212.5q57 66.5 184 66.5q39 0 68 -7q29 -7 50 -19q21 -12 35.5 -27.5q14.5 -15.5 23.5 -33.5l5 73h151v-476q0 -73 -19 -122.5q-19 -49.5 -58 -79.5q-39 -30 -97.5 -43q-58.5 -13 -136.5 -13q-67 0 -123.5 11q-56.5 11 -86.5 22zM337 152q63 0 94 28.5q31 28.5 31 96.5v25q0 69 -31 96.5q-31 27.5 -95 27.5q-63 0 -93 -31q-30 -31 -30 -109q0 -74 32.5 -104q32.5 -30 91.5 -30zt0 0zM271 780h156l112 -160h-121l-68 87l-70 -87l-121 0z" />
<glyph unicode="&#286;" horiz-adv-x="717" d="M390 395h270v-355q-17 -9 -42 -18q-25 -9 -57.5 -17q-32.5 -8 -72 -13q-39.5 -5 -83.5 -5q-183 0 -269 85q-86 85 -86 272q0 94 20.5 163.5q20.5 69.5 65 115.5q44.5 46 115 68q70.5 22 170.5 22q74 0 121 -10q47 -10 71 -21l0 -157q-36 22 -81 34.5q-45 12.5 -100 12.5q-58 0 -98.5 -12.5q-40.5 -12.5 -66 -38.5q-25.5 -26 -37 -68q-11.5 -42 -11.5 -100q0 -122 48 -173.5q48 -51.5 151 -51.5q34 0 57.5 4q23.5 4 41.5 9l0 122h-127zM390 755q-143 0 -180 145l94 25q11 -38 33.5 -54q22.5 -16 52.5 -16q30 0 52.5 16q22.5 16 33.5 54l94 -25q-37 -145 -180 -145z" />
<glyph unicode="&#287;" horiz-adv-x="697" d="M100 -11q25 -16 78 -33q53 -17 134 -17q42 0 71 7.5q29 7.5 46 21.5q17 14 24.5 35.5q7.5 21.5 7.5 50.5v51q-23 -35 -66.5 -58q-43.5 -23 -112.5 -23q-119 0 -177 58q-58 58 -58 193q0 146 57 212.5q57 66.5 184 66.5q39 0 68 -7q29 -7 50 -19q21 -12 35.5 -27.5q14.5 -15.5 23.5 -33.5l5 73h151v-476q0 -73 -19 -122.5q-19 -49.5 -58 -79.5q-39 -30 -97.5 -43q-58.5 -13 -136.5 -13q-67 0 -123.5 11q-56.5 11 -86.5 22zM337 152q63 0 94 28.5q31 28.5 31 96.5v25q0 69 -31 96.5q-31 27.5 -95 27.5q-63 0 -93 -31q-30 -31 -30 -109q0 -74 32.5 -104q32.5 -30 91.5 -30zt0 0zM334 615q-143 0 -180 145l92 25q11 -38 34.5 -55q23.5 -17 53.5 -17q30 0 53.5 17q23.5 17 34.5 55l92 -25q-37 -145 -180 -145z" />
<glyph unicode="&#288;" horiz-adv-x="717" d="M390 395h270v-355q-17 -9 -42 -18q-25 -9 -57.5 -17q-32.5 -8 -72 -13q-39.5 -5 -83.5 -5q-183 0 -269 85q-86 85 -86 272q0 94 20.5 163.5q20.5 69.5 65 115.5q44.5 46 115 68q70.5 22 170.5 22q74 0 121 -10q47 -10 71 -21l0 -157q-36 22 -81 34.5q-45 12.5 -100 12.5q-58 0 -98.5 -12.5q-40.5 -12.5 -66 -38.5q-25.5 -26 -37 -68q-11.5 -42 -11.5 -100q0 -122 48 -173.5q48 -51.5 151 -51.5q34 0 57.5 4q23.5 4 41.5 9l0 122h-127zM376 758q-47 0 -68.5 20.5q-21.5 20.5 -21.5 61.5q0 41 21.5 61.5q21.5 20.5 68.5 20.5q47 0 68.5 -20.5q21.5 -20.5 21.5 -61.5q0 -41 -21.5 -61.5t-68.5 -20.5z" />
<glyph unicode="&#289;" horiz-adv-x="697" d="M100 -11q25 -16 78 -33q53 -17 134 -17q42 0 71 7.5q29 7.5 46 21.5q17 14 24.5 35.5q7.5 21.5 7.5 50.5v51q-23 -35 -66.5 -58q-43.5 -23 -112.5 -23q-119 0 -177 58q-58 58 -58 193q0 146 57 212.5q57 66.5 184 66.5q39 0 68 -7q29 -7 50 -19q21 -12 35.5 -27.5q14.5 -15.5 23.5 -33.5l5 73h151v-476q0 -73 -19 -122.5q-19 -49.5 -58 -79.5q-39 -30 -97.5 -43q-58.5 -13 -136.5 -13q-67 0 -123.5 11q-56.5 11 -86.5 22zM337 152q63 0 94 28.5q31 28.5 31 96.5v25q0 69 -31 96.5q-31 27.5 -95 27.5q-63 0 -93 -31q-30 -31 -30 -109q0 -74 32.5 -104q32.5 -30 91.5 -30zt0 0zM349 620q-46 0 -67 20q-21 20 -21 60q0 40 21 60q21 20 67 20q46 0 67 -20q21 -20 21 -60q0 -40 -21 -60t-67 -20z" />
<glyph unicode="&#290;" horiz-adv-x="717" d="M390 395h270v-355q-17 -9 -42 -18q-25 -9 -57.5 -17q-32.5 -8 -72 -13q-39.5 -5 -83.5 -5q-183 0 -269 85q-86 85 -86 272q0 94 20.5 163.5q20.5 69.5 65 115.5q44.5 46 115 68q70.5 22 170.5 22q74 0 121 -10q47 -10 71 -21l0 -157q-36 22 -81 34.5q-45 12.5 -100 12.5q-58 0 -98.5 -12.5q-40.5 -12.5 -66 -38.5q-25.5 -26 -37 -68q-11.5 -42 -11.5 -100q0 -122 48 -173.5q48 -51.5 151 -51.5q34 0 57.5 4q23.5 4 41.5 9l0 122h-127zM305 -204q34 0 58 8.5q24 8.5 28 32.5q-5 -1 -10 -1q-5 0 -10 0q-42 0 -64 14q-22 14 -22 40q0 26 26 41.5q26 15.5 68 15.5q43 0 70 -21q27 -21 27 -66q0 -52 -41 -86.5q-41 -34.5 -111 -34.5q-5 0 -9 0q-4 0 -10 1l0 56z" />
<glyph unicode="&#291;" horiz-adv-x="697" d="M100 -11q25 -16 78 -33q53 -17 134 -17q42 0 71 7.5q29 7.5 46 21.5q17 14 24.5 35.5q7.5 21.5 7.5 50.5v51q-23 -35 -66.5 -58q-43.5 -23 -112.5 -23q-119 0 -177 58q-58 58 -58 193q0 146 57 212.5q57 66.5 184 66.5q39 0 68 -7q29 -7 50 -19q21 -12 35.5 -27.5q14.5 -15.5 23.5 -33.5l5 73h151v-476q0 -73 -19 -122.5q-19 -49.5 -58 -79.5q-39 -30 -97.5 -43q-58.5 -13 -136.5 -13q-67 0 -123.5 11q-56.5 11 -86.5 22zM337 152q63 0 94 28.5q31 28.5 31 96.5v25q0 69 -31 96.5q-31 27.5 -95 27.5q-63 0 -93 -31q-30 -31 -30 -109q0 -74 32.5 -104q32.5 -30 91.5 -30zt0 0zM400 763q-32 0 -54 -8.5q-22 -8.5 -25 -31.5q5 1 9.5 1q4.5 0 9.5 0q37 0 58 -13q21 -13 21 -38q0 -25 -24 -39.5q-24 -14.5 -63 -14.5q-40 0 -65.5 20q-25.5 20 -25.5 62q0 50 38.5 83q38.5 33 104.5 33q4 0 8 0q4 0 8 -1l0 -53z" />
<glyph unicode="&#292;" horiz-adv-x="803" d="M91 700h164v-272h293v272h164v-700h-164v286h-293v-286h-164zM321 925h160l120 -170h-121l-78 97l-80 -97l-121 0z" />
<glyph unicode="&#293;" horiz-adv-x="676" d="M76 760h159v-295q43 89 182 89q102 0 146 -47.5q44 -47.5 44 -152.5v-354h-159v318q0 57 -23 80.5q-23 23.5 -80 23.5q-60 0 -85 -28.5q-25 -28.5 -25 -89.5v-304h-159zM77 960h156l112 -160h-121l-68 87l-70 -87l-121 0z" />
<glyph unicode="&#294;" horiz-adv-x="803" d="M91 505h-64v103h64v92h164v-92h293v92h164v-92h64v-103h-64v-505h-164v286h-293v-286h-164zM548 428v77h-293l0 -77z" />
<glyph unicode="&#295;" horiz-adv-x="676" d="M76 605h-73v91h73v64h159v-64h237v-91h-237v-167q21 44 66.5 67q45.5 23 115.5 23q102 0 146 -48q44 -48 44 -153v-327h-159v291q0 57 -23 80.5q-23 23.5 -80 23.5q-60 0 -85 -28.5q-25 -28.5 -25 -89.5v-277l-159 0z" />
<glyph unicode="&#298;" horiz-adv-x="349" d="M93 700h163v-700h-163zM-1 892h350v-104l-350 0z" />
<glyph unicode="&#299;" horiz-adv-x="321" d="M80 540h160v-540h-160zM-10 750h340v-100l-340 0z" />
<glyph unicode="&#302;" horiz-adv-x="349" d="M93 700h163v-700h-43q-42 -27 -64 -58.5q-22 -31.5 -22 -71.5q0 -27 17 -40.5q17 -13.5 43 -13.5q34 0 62 16l0 -75q-17 -8 -41.5 -14.5q-24.5 -6.5 -57.5 -6.5q-39 0 -65 10q-26 10 -41.5 25.5q-15.5 15.5 -21.5 35q-6 19.5 -6 38.5q0 25 9 47.5q9 22.5 24.5 42q15.5 19.5 35.5 36q20 16.5 43 29.5l-35 0z" />
<glyph unicode="&#303;" horiz-adv-x="321" d="M80 540h160v-540h-44q-38 -26 -59.5 -56q-21.5 -30 -21.5 -68q0 -26 16 -40.5q16 -14.5 41 -14.5q31 0 60 16l0 -71q-17 -8 -39.5 -14q-22.5 -6 -54.5 -6q-38 0 -63.5 10q-25.5 10 -40.5 25q-15 15 -21.5 34q-6.5 19 -6.5 37q0 48 31.5 86q31.5 38 74.5 62l-32 0zM160 620q-46 0 -67 20q-21 20 -21 60q0 40 21 60q21 20 67 20q46 0 67 -20q21 -20 21 -60q0 -40 -21 -60t-67 -20z" />
<glyph unicode="&#304;" horiz-adv-x="349" d="M93 700h163v-700h-163zM174 758q-47 0 -68.5 20.5q-21.5 20.5 -21.5 61.5q0 41 21.5 61.5q21.5 20.5 68.5 20.5q47 0 68.5 -20.5q21.5 -20.5 21.5 -61.5q0 -41 -21.5 -61.5t-68.5 -20.5z" />
<glyph unicode="&#305;" horiz-adv-x="321" d="M80 540h160v-540l-160 0z" />
<glyph unicode="&#308;" horiz-adv-x="462" d="M207 700h164v-486q0 -60 -11.5 -102q-11.5 -42 -38 -68.5q-26.5 -26.5 -69 -39q-42.5 -12.5 -104.5 -12.5q-43 0 -71.5 4.5q-28.5 4.5 -51.5 11.5l0 157q14 -11 41.5 -20.5q27.5 -9.5 56.5 -9.5q45 0 64.5 20q19.5 20 19.5 80zM209 925h160l120 -170h-121l-78 97l-80 -97l-121 0z" />
<glyph unicode="&#309;" horiz-adv-x="327" d="M86 540h160v-546q0 -51 -11 -86q-11 -35 -32.5 -56q-21.5 -21 -53.5 -30q-32 -9 -75 -9q-40 0 -64 4.5q-24 4.5 -35 9.5l0 131q24 -11 57 -11q29 0 41.5 12.5q12.5 12.5 12.5 42.5zM86 780h156l112 -160h-121l-68 87l-70 -87l-121 0z" />
<glyph unicode="&#310;" horiz-adv-x="721" d="M91 700h164v-278h56l185 278h191l-240 -331l263 -369h-195l-201 290h-59v-290h-164zM286 -204q34 0 58 8.5q24 8.5 28 32.5q-5 -1 -10 -1q-5 0 -10 0q-42 0 -64 14q-22 14 -22 40q0 26 26 41.5q26 15.5 68 15.5q43 0 70 -21q27 -21 27 -66q0 -52 -41 -86.5q-41 -34.5 -111 -34.5q-5 0 -9 0q-4 0 -10 1l0 56z" />
<glyph unicode="&#311;" horiz-adv-x="635" d="M235 760v-414h48l139 194h178l-189 -256l209 -284h-184l-153 211h-48v-211h-159v760zM250 -197q32 0 54 8.5q22 8.5 25 31.5q-5 -1 -9.5 -1q-4.5 0 -9.5 0q-37 0 -58 13q-21 13 -21 38q0 25 24 39.5q24 14.5 63 14.5q40 0 65.5 -20q25.5 -20 25.5 -62q0 -50 -38.5 -83q-38.5 -33 -104.5 -33q-4 0 -8 0q-4 0 -8 1l0 53z" />
<glyph unicode="&#313;" horiz-adv-x="585" d="M91 700h164v-550h308v-150h-472zM214 925h192l-178 -170l-122 0z" />
<glyph unicode="&#314;" horiz-adv-x="374" d="M235 173q0 -32 12 -42.5q12 -10.5 40 -10.5q16 0 30.5 3q14.5 3 26.5 6l0 -128q-11 -5 -36 -10q-25 -5 -60 -5q-41 0 -73 7.5q-32 7.5 -54 25.5q-22 18 -33.5 49q-11.5 31 -11.5 78v614h159v-587zM189 977h190l-170 -160l-120 0z" />
<glyph unicode="&#315;" horiz-adv-x="585" d="M91 700h164v-550h308v-150h-472zM252 -204q34 0 58 8.5q24 8.5 28 32.5q-5 -1 -10 -1q-5 0 -10 0q-42 0 -64 14q-22 14 -22 40q0 26 26 41.5q26 15.5 68 15.5q43 0 70 -21q27 -21 27 -66q0 -52 -41 -86.5q-41 -34.5 -111 -34.5q-5 0 -9 0q-4 0 -10 1l0 56z" />
<glyph unicode="&#316;" horiz-adv-x="374" d="M235 173q0 -32 12 -42.5q12 -10.5 40 -10.5q16 0 30.5 3q14.5 3 26.5 6l0 -128q-11 -5 -36 -10q-25 -5 -60 -5q-41 0 -73 7.5q-32 7.5 -54 25.5q-22 18 -33.5 49q-11.5 31 -11.5 78v614h159v-587zM156 -197q32 0 54 8.5q22 8.5 25 31.5q-5 -1 -9.5 -1q-4.5 0 -9.5 0q-37 0 -58 13q-21 13 -21 38q0 25 24 39.5q24 14.5 63 14.5q40 0 65.5 -20q25.5 -20 25.5 -62q0 -50 -38.5 -83q-38.5 -33 -104.5 -33q-4 0 -8 0q-4 0 -8 1l0 53z" />
<glyph unicode="&#317;" horiz-adv-x="585" d="M91 700h164v-550h308v-150h-472zM391 700h144l-86 -200l-104 0z" />
<glyph unicode="&#318;" horiz-adv-x="407" d="M235 173q0 -32 12 -42.5q12 -10.5 40 -10.5q16 0 30.5 3q14.5 3 26.5 6l0 -128q-11 -5 -36 -10q-25 -5 -60 -5q-41 0 -73 7.5q-32 7.5 -54 25.5q-22 18 -33.5 49q-11.5 31 -11.5 78v614h159v-587zM341 760h144l-86 -200l-104 0z" />
<glyph unicode="&#319;" horiz-adv-x="585" d="M91 700h164v-550h308v-150h-472zM370 368q0 42 23.5 65q23.5 23 66.5 23q42 0 66 -23.5q24 -23.5 24 -64.5q0 -42 -23 -65.5q-23 -23.5 -67 -23.5q-42 0 -66 24t-24 65z" />
<glyph unicode="&#320;" horiz-adv-x="476" d="M235 173q0 -32 12 -42.5q12 -10.5 40 -10.5q16 0 30.5 3q14.5 3 26.5 6l0 -128q-11 -5 -36 -10q-25 -5 -60 -5q-41 0 -73 7.5q-32 7.5 -54 25.5q-22 18 -33.5 49q-11.5 31 -11.5 78v614h159v-587zM300 377q0 44 25 68.5q25 24.5 71 24.5q45 0 70.5 -25q25.5 -25 25.5 -68q0 -44 -24.5 -69q-24.5 -25 -71.5 -25q-45 0 -70.5 25.5t-25.5 68.5z" />
<glyph unicode="&#321;" horiz-adv-x="605" d="M111 238l-91 -56v109l91 56v353h164v-252l161 100v-108l-161 -100v-190h309v-150l-473 0z" />
<glyph unicode="&#322;" horiz-adv-x="413" d="M262 177q0 -32 11.5 -42.5q11.5 -10.5 39.5 -10.5q16 0 31 3q15 3 27 6l0 -128q-12 -5 -37 -10q-25 -5 -60 -5q-41 0 -73 7.5q-32 7.5 -54 25.5q-22 18 -33.5 49q-11.5 31 -11.5 78v81l-79 -49v109l79 49v423h160v-325l109 68v-109l-109 -68l0 -152z" />
<glyph unicode="&#323;" horiz-adv-x="800" d="M91 700h177l231 -366q16 -26 29 -52q13 -26 26 -50q-2 26 -3.5 55q-1.5 29 -1.5 58v355h160v-700h-171l-233 370q-16 24 -31 54q-15 30 -29 57q2 -26 3.5 -54.5q1.5 -28.5 1.5 -57.5v-369h-159zM447 925h192l-178 -170l-122 0z" />
<glyph unicode="&#324;" horiz-adv-x="676" d="M76 540h154l5 -76q25 50 70.5 70q45.5 20 104.5 20q97 0 147 -45q50 -45 50 -150v-359h-159v305q0 33 -5 55.5q-5 22.5 -17 36q-12 13.5 -32 19.5q-20 6 -50 6q-59 0 -84 -29.5q-25 -29.5 -25 -87.5v-305h-159zM377 790h190l-170 -160l-120 0z" />
<glyph unicode="&#325;" horiz-adv-x="800" d="M91 700h177l231 -366q16 -26 29 -52q13 -26 26 -50q-2 26 -3.5 55q-1.5 29 -1.5 58v355h160v-700h-171l-233 370q-16 24 -31 54q-15 30 -29 57q2 -26 3.5 -54.5q1.5 -28.5 1.5 -57.5v-369h-159zM326 -204q34 0 58 8.5q24 8.5 28 32.5q-5 -1 -10 -1q-5 0 -10 0q-42 0 -64 14q-22 14 -22 40q0 26 26 41.5q26 15.5 68 15.5q43 0 70 -21q27 -21 27 -66q0 -52 -41 -86.5q-41 -34.5 -111 -34.5q-5 0 -9 0q-4 0 -10 1l0 56z" />
<glyph unicode="&#326;" horiz-adv-x="676" d="M76 540h154l5 -76q25 50 70.5 70q45.5 20 104.5 20q97 0 147 -45q50 -45 50 -150v-359h-159v305q0 33 -5 55.5q-5 22.5 -17 36q-12 13.5 -32 19.5q-20 6 -50 6q-59 0 -84 -29.5q-25 -29.5 -25 -87.5v-305h-159zM270 -197q32 0 54 8.5q22 8.5 25 31.5q-5 -1 -9.5 -1q-4.5 0 -9.5 0q-37 0 -58 13q-21 13 -21 38q0 25 24 39.5q24 14.5 63 14.5q40 0 65.5 -20q25.5 -20 25.5 -62q0 -50 -38.5 -83q-38.5 -33 -104.5 -33q-4 0 -8 0q-4 0 -8 1l0 53z" />
<glyph unicode="&#327;" horiz-adv-x="800" d="M91 700h177l231 -366q16 -26 29 -52q13 -26 26 -50q-2 26 -3.5 55q-1.5 29 -1.5 58v355h160v-700h-171l-233 370q-16 24 -31 54q-15 30 -29 57q2 -26 3.5 -54.5q1.5 -28.5 1.5 -57.5v-369h-159zM200 935h121l79 -97l79 97h121l-120 -170l-160 0z" />
<glyph unicode="&#328;" horiz-adv-x="676" d="M76 540h154l5 -76q25 50 70.5 70q45.5 20 104.5 20q97 0 147 -45q50 -45 50 -150v-359h-159v305q0 33 -5 55.5q-5 22.5 -17 36q-12 13.5 -32 19.5q-20 6 -50 6q-59 0 -84 -29.5q-25 -29.5 -25 -87.5v-305h-159zM151 790h121l69 -87l69 87h121l-112 -160l-156 0z" />
<glyph unicode="&#332;" horiz-adv-x="793" d="M50 350q0 190 85.5 277q85.5 87 262.5 87q94 0 159.5 -21.5q65.5 -21.5 106.5 -66q41 -44.5 59.5 -113q18.5 -68.5 18.5 -163.5q0 -99 -22 -168q-22 -69 -65.5 -112.5q-43.5 -43.5 -108 -63.5q-64.5 -20 -148.5 -20q-170 0 -259 86.5q-89 86.5 -89 277.5zt0 0zM224 349q0 -65 12.5 -108q12.5 -43 35.5 -68q23 -25 55.5 -35q32.5 -10 73.5 -10q41 0 72.5 10.5q31.5 10.5 52.5 36q21 25.5 32 68q11 42.5 11 106.5q0 64 -11 107q-11 43 -33 69q-22 26 -55 36.5q-33 10.5 -76 10.5q-86 0 -128 -50.5q-42 -50.5 -42 -172.5zt0 0zM221 892h350v-104l-350 0z" />
<glyph unicode="&#333;" horiz-adv-x="675" d="M47 271q0 144 74 213.5q74 69.5 219 69.5q150 0 219 -68.5q69 -68.5 69 -215.5q0 -147 -71.5 -215.5q-71.5 -68.5 -219.5 -68.5q-152 0 -221 70q-69 70 -69 215zt0 0zM211 267q0 -77 29 -115.5q29 -38.5 99 -38.5q67 0 96 36q29 36 29 117v5q0 82 -27.5 119q-27.5 37 -99.5 37q-71 0 -98.5 -37.5q-27.5 -37.5 -27.5 -118.5zM167 750h340v-100l-340 0z" />
<glyph unicode="&#336;" horiz-adv-x="793" d="M50 350q0 190 85.5 277q85.5 87 262.5 87q94 0 159.5 -21.5q65.5 -21.5 106.5 -66q41 -44.5 59.5 -113q18.5 -68.5 18.5 -163.5q0 -99 -22 -168q-22 -69 -65.5 -112.5q-43.5 -43.5 -108 -63.5q-64.5 -20 -148.5 -20q-170 0 -259 86.5q-89 86.5 -89 277.5zt0 0zM224 349q0 -65 12.5 -108q12.5 -43 35.5 -68q23 -25 55.5 -35q32.5 -10 73.5 -10q41 0 72.5 10.5q31.5 10.5 52.5 36q21 25.5 32 68q11 42.5 11 106.5q0 64 -11 107q-11 43 -33 69q-22 26 -55 36.5q-33 10.5 -76 10.5q-86 0 -128 -50.5q-42 -50.5 -42 -172.5zt0 0zM266 925h172l-100 -170h-122zM524 925h192l-160 -170l-132 0z" />
<glyph unicode="&#337;" horiz-adv-x="675" d="M47 271q0 144 74 213.5q74 69.5 219 69.5q150 0 219 -68.5q69 -68.5 69 -215.5q0 -147 -71.5 -215.5q-71.5 -68.5 -219.5 -68.5q-152 0 -221 70q-69 70 -69 215zt0 0zM211 267q0 -77 29 -115.5q29 -38.5 99 -38.5q67 0 96 36q29 36 29 117v5q0 82 -27.5 119q-27.5 37 -99.5 37q-71 0 -98.5 -37.5q-27.5 -37.5 -27.5 -118.5zM217 780h170l-100 -160h-120zM457 780h190l-160 -160l-130 0z" />
<glyph unicode="&#338;" horiz-adv-x="981" d="M392 714q30 0 58 -4q28 -4 54 -10l429 0v-142h-307v-138h272v-132h-272v-146h310v-142h-430q-26 -6 -55 -10q-29 -4 -60 -4q-169 0 -258 86.5q-89 86.5 -89 277.5q0 190 85 277q85 87 263 87zt0 0zM394 128q19 0 36 2.5q17 2.5 32 6.5l0 425q-16 5 -35 7.5q-19 2.5 -39 2.5q-44 0 -76 -12q-32 -12 -53 -38.5q-21 -26.5 -31.5 -69q-10.5 -42.5 -10.5 -103.5q0 -65 12.5 -108q12.5 -43 35.5 -68q23 -25 55.5 -35t73.5 -10z" />
<glyph unicode="&#339;" horiz-adv-x="1062" d="M47 271q0 144 74 213.5q74 69.5 219 69.5q70 0 122.5 -15.5q52.5 -15.5 87.5 -50.5q69 66 202 66q75 0 125.5 -18q50.5 -18 82 -51.5q31.5 -33.5 45 -81q13.5 -47.5 13.5 -106.5v-65h-389q2 -63 39.5 -92q37.5 -29 114.5 -29q30 0 59 4.5q29 4.5 55 13q26 8.5 47.5 19.5q21.5 11 36.5 23l0 -136q-20 -17 -78 -33q-58 -16 -142 -16q-147 0 -214 66q-36 -34 -89 -50q-53 -16 -121 -16q-152 0 -221 70q-69 70 -69 215zt0 0zM749 435q-117 0 -121 -112l231 0q1 54 -23.5 83q-24.5 29 -86.5 29zt0 0zM211 267q0 -77 29 -115.5q29 -38.5 99 -38.5q67 0 96 36q29 36 29 117v5q0 82 -27.5 119q-27.5 37 -99.5 37q-71 0 -98.5 -37.5q-27.5 -37.5 -27.5 -118.5z" />
<glyph unicode="&#340;" horiz-adv-x="701" d="M91 0v697q66 3 122 5.5q56 2.5 116 2.5q82 0 138 -14.5q56 -14.5 89.5 -43q33.5 -28.5 48 -72q14.5 -43.5 14.5 -101.5q0 -43 -5.5 -77.5q-5.5 -34.5 -19 -61.5q-13.5 -27 -35.5 -47q-22 -20 -55 -34l171 -254h-181l-152 236h-87v-236zM328 365q35 0 58.5 6q23.5 6 37.5 18q14 12 20 31q6 19 6 45q0 25 -5.5 43q-5.5 18 -19.5 29.5q-14 11.5 -38 17q-24 5.5 -61 5.5q-22 0 -38.5 -1q-16.5 -1 -36.5 -3l0 -191zM398 925h192l-178 -170l-122 0z" />
<glyph unicode="&#341;" horiz-adv-x="476" d="M76 540h148l6 -80q21 51 59.5 72.5q38.5 21.5 89.5 21.5q17 0 31 -2q14 -2 28 -5l0 -160q-15 13 -37.5 20.5q-22.5 7.5 -55.5 7.5q-60 0 -85 -30.5q-25 -30.5 -25 -96.5v-288h-159zM277 790h190l-170 -160l-120 0z" />
<glyph unicode="&#342;" horiz-adv-x="701" d="M91 0v697q66 3 122 5.5q56 2.5 116 2.5q82 0 138 -14.5q56 -14.5 89.5 -43q33.5 -28.5 48 -72q14.5 -43.5 14.5 -101.5q0 -43 -5.5 -77.5q-5.5 -34.5 -19 -61.5q-13.5 -27 -35.5 -47q-22 -20 -55 -34l171 -254h-181l-152 236h-87v-236zM328 365q35 0 58.5 6q23.5 6 37.5 18q14 12 20 31q6 19 6 45q0 25 -5.5 43q-5.5 18 -19.5 29.5q-14 11.5 -38 17q-24 5.5 -61 5.5q-22 0 -38.5 -1q-16.5 -1 -36.5 -3l0 -191zM277 -204q34 0 58 8.5q24 8.5 28 32.5q-5 -1 -10 -1q-5 0 -10 0q-42 0 -64 14q-22 14 -22 40q0 26 26 41.5q26 15.5 68 15.5q43 0 70 -21q27 -21 27 -66q0 -52 -41 -86.5q-41 -34.5 -111 -34.5q-5 0 -9 0q-4 0 -10 1l0 56z" />
<glyph unicode="&#343;" horiz-adv-x="476" d="M76 540h148l6 -80q21 51 59.5 72.5q38.5 21.5 89.5 21.5q17 0 31 -2q14 -2 28 -5l0 -160q-15 13 -37.5 20.5q-22.5 7.5 -55.5 7.5q-60 0 -85 -30.5q-25 -30.5 -25 -96.5v-288h-159zM85 -197q32 0 54 8.5q22 8.5 25 31.5q-5 -1 -9.5 -1q-4.5 0 -9.5 0q-37 0 -58 13q-21 13 -21 38q0 25 24 39.5q24 14.5 63 14.5q40 0 65.5 -20q25.5 -20 25.5 -62q0 -50 -38.5 -83q-38.5 -33 -104.5 -33q-4 0 -8 0q-4 0 -8 1l0 53z" />
<glyph unicode="&#344;" horiz-adv-x="701" d="M91 0v697q66 3 122 5.5q56 2.5 116 2.5q82 0 138 -14.5q56 -14.5 89.5 -43q33.5 -28.5 48 -72q14.5 -43.5 14.5 -101.5q0 -43 -5.5 -77.5q-5.5 -34.5 -19 -61.5q-13.5 -27 -35.5 -47q-22 -20 -55 -34l171 -254h-181l-152 236h-87v-236zM328 365q35 0 58.5 6q23.5 6 37.5 18q14 12 20 31q6 19 6 45q0 25 -5.5 43q-5.5 18 -19.5 29.5q-14 11.5 -38 17q-24 5.5 -61 5.5q-22 0 -38.5 -1q-16.5 -1 -36.5 -3l0 -191zM151 935h121l79 -97l79 97h121l-120 -170l-160 0z" />
<glyph unicode="&#345;" horiz-adv-x="476" d="M76 540h148l6 -80q21 51 59.5 72.5q38.5 21.5 89.5 21.5q17 0 31 -2q14 -2 28 -5l0 -160q-15 13 -37.5 20.5q-22.5 7.5 -55.5 7.5q-60 0 -85 -30.5q-25 -30.5 -25 -96.5v-288h-159zM56 790h121l69 -87l69 87h121l-112 -160l-156 0z" />
<glyph unicode="&#346;" horiz-adv-x="640" d="M409 194q0 30 -25.5 46.5q-25.5 16.5 -63.5 29q-38 12.5 -83 26.5q-45 14 -83 39q-38 25 -63.5 66.5q-25.5 41.5 -25.5 108.5q0 47 14.5 84.5q14.5 37.5 47 64q32.5 26.5 84.5 40.5q52 14 127 14q67 0 122.5 -9.5q55.5 -9.5 91.5 -24.5l0 -161q-38 26 -91 43.5q-53 17.5 -110 17.5q-36 0 -59 -5q-23 -5 -36.5 -14q-13.5 -9 -19 -21q-5.5 -12 -5.5 -26q0 -29 26.5 -45q26.5 -16 66 -28.5q39.5 -12.5 86 -26q46.5 -13.5 86 -39q39.5 -25.5 66 -66.5q26.5 -41 26.5 -108q0 -101 -68 -157q-68 -56 -220 -56q-68 0 -131 13q-63 13 -101 35l0 167q13 -12 34 -26q21 -14 49 -26q28 -12 63 -20.5q35 -8.5 77 -8.5q63 0 90.5 20q27.5 20 27.5 53zt0 0zM374 925h192l-178 -170l-122 0z" />
</font>
</defs>
</svg>
