<?xml version="1.0" encoding="UTF-8" standalone="no"?>
<!DOCTYPE svg PUBLIC "-//W3C//DTD SVG 1.1//EN" "http://www.w3.org/Graphics/SVG/1.1/DTD/svg11.dtd" >
<svg xmlns="http://www.w3.org/2000/svg">
<metadata>
Generated by SVGconv.
Copyright   : Copyright (c) 2018 ParaType Inc., ParaType Ltd. All rights reserved.
Designer    : ParaType Ltd
Foundry     : ParaType Ltd
Foundry URL : http://www.paratype.com
</metadata>
<defs>
<font id="SBSansText-Heavy" horiz-adv-x="640" >
<font-face units-per-em="1000" ascent="982" descent="272" >
<font-face-src>
<font-face-name/>
</font-face-src>
</font-face>
<missing-glyph horiz-adv-x="500" />
<glyph unicode="&#13;" horiz-adv-x="240" />
<glyph unicode="&#32;" horiz-adv-x="240" />
<glyph unicode="&#33;" horiz-adv-x="407" d="M90 88q0 48 28.5 75q28.5 27 84.5 27q51 0 82.5 -28q31.5 -28 31.5 -74q0 -48 -30 -75q-30 -27 -84 -27q-51 0 -82 28q-31 28 -31 74zt0 0zM99 700h207l-19 -445l-169 0z" />
<glyph unicode="&#34;" horiz-adv-x="513" d="M80 700h132v-286h-132zM301 700h132v-286l-132 0z" />
<glyph unicode="&#35;" horiz-adv-x="650" d="M113 180h-98l20 120h95l14 100h-89l20 120h86l25 180h141l-25 -180h94l25 180h141l-25 -180h98l-20 -120h-95l-14 -100h89l-20 -120h-85l-25 -180h-141l25 180h-94l-25 -180h-142zM365 300l14 100h-94l-14 -100z" />
<glyph unicode="&#36;" horiz-adv-x="650" d="M390 198q0 22 -25 33.5q-25 11.5 -63 22.5q-38 11 -82 25.5q-44 14.5 -82 41.5q-38 27 -63 71.5q-25 44.5 -25 114.5q0 40 11 74q11 34 35.5 60.5q24.5 26.5 63.5 43.5q39 17 95 25l0 90h154v-87q51 -4 93 -12q42 -8 71 -19l0 -189q-42 25 -97.5 42.5q-55.5 17.5 -115.5 17.5q-32 0 -52.5 -4.5q-20.5 -4.5 -32.5 -11.5q-12 -7 -16.5 -15.5q-4.5 -8.5 -4.5 -17.5q0 -21 26.5 -32.5q26.5 -11.5 66.5 -22.5q40 -11 86.5 -25.5q46.5 -14.5 86.5 -41q40 -26.5 66.5 -69q26.5 -42.5 26.5 -109.5q0 -86 -48.5 -140.5q-48.5 -54.5 -155.5 -71.5l0 -112h-154v106q-60 4 -111 14.5q-51 10.5 -85 26.5l0 192q12 -8 32.5 -20q20.5 -12 49.5 -23.5q29 -11.5 66.5 -20q37.5 -8.5 82.5 -8.5q54 0 77 15.5t23 35.5z" />
<glyph unicode="&#37;" horiz-adv-x="970" d="M673 700h116l-493 -700h-116zM526 165q0 93 51.5 136q51.5 43 145.5 43q101 0 149 -44q48 -44 48 -135q0 -50 -14 -84q-14 -34 -40 -55q-26 -21 -62.5 -30.5q-36.5 -9.5 -80.5 -9.5q-94 0 -145.5 42.5q-51.5 42.5 -51.5 136.5zt0 0zM794 165q0 46 -18 63q-18 17 -53 17q-35 0 -53 -17q-18 -17 -18 -63q0 -47 18.5 -63.5q18.5 -16.5 52.5 -16.5q35 0 53 17.5q18 17.5 18 62.5zt0 0zM50 535q0 93 51.5 136q51.5 43 145.5 43q101 0 149 -44q48 -44 48 -135q0 -50 -14 -84q-14 -34 -40 -55q-26 -21 -62.5 -30.5q-36.5 -9.5 -80.5 -9.5q-94 0 -145.5 42.5q-51.5 42.5 -51.5 136.5zt0 0zM318 535q0 46 -18 63q-18 17 -53 17q-35 0 -53 -17q-18 -17 -18 -63q0 -47 18.5 -63.5q18.5 -16.5 52.5 -16.5q35 0 53 17.5t18 62.5z" />
<glyph unicode="&#38;" horiz-adv-x="877" d="M785 475q0 -90 -31.5 -170q-31.5 -80 -84.5 -145q34 -9 68.5 -11q34.5 -2 69.5 5l0 -154q-34 -5 -69 -3q-35 2 -69 10q-34 8 -65 21q-31 13 -57 31q-44 -35 -100.5 -54q-56.5 -19 -110.5 -19q-135 0 -205.5 58.5q-70.5 58.5 -70.5 155.5q0 37 11.5 68q11.5 31 31 56.5q19.5 25.5 46 45.5q26.5 20 56.5 36q-22 34 -34.5 71.5q-12.5 37.5 -12.5 73.5q0 41 15 71.5q15 30.5 42 51q27 20.5 65 30.5q38 10 83 10q68 0 110.5 -14q42.5 -14 66 -36.5q23.5 -22.5 31.5 -51.5q8 -29 8 -58q0 -40 -17 -69q-17 -29 -45 -51.5q-28 -22.5 -62.5 -39.5q-34.5 -17 -69.5 -33q34 -46 71 -80.5q37 -34.5 89 -64.5q36 45 56.5 109.5q20.5 64.5 21.5 149.5zM425 142q-50 34 -86.5 77q-36.5 43 -63.5 87q-23 -13 -34 -35.5q-11 -22.5 -11 -43.5q0 -50 31 -75q31 -25 88 -25q25 0 43.5 5q18.5 5 32.5 10zt0 0zM326 464q45 20 72.5 39q27.5 19 27.5 46q0 16 -13 28.5q-13 12.5 -46 12.5q-32 0 -48 -15.5q-16 -15.5 -16 -43.5q0 -14 5.5 -32t17.5 -35z" />
<glyph unicode="&#39;" horiz-adv-x="292" d="M80 700h132v-286l-132 0z" />
<glyph unicode="&#40;" horiz-adv-x="401" d="M299 -196q-53 35 -100.5 86q-47.5 51 -82.5 114q-35 63 -55.5 136.5q-20.5 73.5 -20.5 154.5q0 77 19.5 150q19.5 73 54 136.5q34.5 63.5 82 116q47.5 52.5 104.5 88.5l81 -81q-85 -87 -125 -189.5q-40 -102.5 -40 -220.5q0 -115 42 -219.5q42 -104.5 123 -189.5z" />
<glyph unicode="&#41;" horiz-adv-x="401" d="M20 -114q81 85 123 189.5q42 104.5 42 219.5q0 118 -40 220.5q-40 102.5 -125 189.5l81 81q57 -36 104.5 -88.5q47.5 -52.5 82 -116q34.5 -63.5 54 -136.5q19.5 -73 19.5 -150q0 -81 -20.5 -154.5q-20.5 -73.5 -56 -136.5q-35.5 -63 -82.5 -114q-47 -51 -100 -86l-82 82z" />
<glyph unicode="&#42;" horiz-adv-x="562" d="M206 458l-146 26l37 131l140 -64l-22 149h134l-22 -148l139 63l36 -131l-146 -26l109 -109l-110 -74l-74 130l-74 -130l-109 74z" />
<glyph unicode="&#43;" horiz-adv-x="650" d="M78 395h177v177h140v-177h176v-139h-176v-177h-140v177l-177 0z" />
<glyph unicode="&#44;" horiz-adv-x="391" d="M40 -103q27 4 51.5 12.5q24.5 8.5 43.5 20.5q19 12 31.5 26.5q12.5 14.5 15.5 31.5q-62 0 -88.5 30.5q-26.5 30.5 -26.5 72.5q0 103 121 103q71 0 102 -35q31 -35 31 -108q0 -101 -51.5 -169q-51.5 -68 -144.5 -88l-85 103z" />
<glyph unicode="&#45;" horiz-adv-x="508" d="M80 350h348v-140l-348 0z" />
<glyph unicode="&#46;" horiz-adv-x="371" d="M70 99q0 57 27.5 85q27.5 28 86.5 28q60 0 88.5 -25q28.5 -25 28.5 -88q0 -54 -27.5 -83.5q-27.5 -29.5 -89.5 -29.5q-59 0 -86.5 29t-27.5 84z" />
<glyph unicode="&#47;" horiz-adv-x="454" d="M288 770h156l-278 -950l-156 0z" />
<glyph unicode="&#48;" horiz-adv-x="650" d="M41 349q0 189 68 277q68 88 214 88q80 0 134.5 -22q54.5 -22 88.5 -67q34 -45 48.5 -114q14.5 -69 14.5 -162q0 -189 -68 -276q-68 -87 -215 -87q-151 0 -218 88q-67 88 -67 275zt0 0zM243 346q0 -50 3 -86.5q3 -36.5 12 -61.5q9 -25 26 -37q17 -12 45 -12q25 0 40.5 12q15.5 12 23.5 36q8 24 11 61q3 37 3 88q0 50 -2.5 88q-2.5 38 -11 64q-8.5 26 -25.5 39.5q-17 13.5 -45 13.5q-27 0 -43 -14q-16 -14 -24.5 -40q-8.5 -26 -10.5 -64t-2 -87z" />
<glyph unicode="&#49;" horiz-adv-x="650" d="M73 163h208v321l-208 -114v174l271 156h139v-537h116v-163l-526 0z" />
<glyph unicode="&#50;" horiz-adv-x="650" d="M56 129q24 15 56 35.5q32 20.5 65.5 44q33.5 23.5 66 51q32.5 27.5 58.5 57q26 29.5 41.5 60.5q15.5 31 15.5 63q0 49 -21.5 72q-21.5 23 -75.5 23q-57 0 -106 -19.5q-49 -19.5 -87 -55.5l0 211q44 19 104.5 31q60.5 12 132.5 12q83 0 136.5 -17q53.5 -17 84 -46.5q30.5 -29.5 42.5 -68q12 -38.5 12 -81.5q0 -61 -23 -109.5q-23 -48.5 -58 -88q-35 -39.5 -78 -71q-43 -31.5 -82 -57.5l244 0v-175l-528 0z" />
<glyph unicode="&#51;" horiz-adv-x="650" d="M199 431h76q29 0 47 3q18 3 28 10q10 7 13.5 18q3.5 11 3.5 26q0 12 -4 22q-4 10 -15 16.5q-11 6.5 -31 10q-20 3.5 -53 3.5q-51 0 -104.5 -15q-53.5 -15 -96.5 -42l0 191q28 9 62 16.5q34 7.5 68 13q34 5.5 66.5 8q32.5 2.5 58.5 2.5q84 0 136.5 -14.5q52.5 -14.5 81 -39.5q28.5 -25 38.5 -59.5q10 -34.5 10 -73.5q0 -127 -137 -166q43 -7 72.5 -22q29.5 -15 47.5 -36q18 -21 26 -47.5q8 -26.5 8 -57.5q0 -48 -14.5 -87q-14.5 -39 -49.5 -66.5q-35 -27.5 -95 -43q-60 -15.5 -151 -15.5q-27 0 -58.5 2.5q-31.5 2.5 -63 8q-31.5 5.5 -62.5 13q-31 7.5 -57 17.5l0 194q45 -29 102 -45q57 -16 111 -16q40 0 64 4.5q24 4.5 36.5 12q12.5 7.5 16.5 18.5q4 11 4 25q0 14 -3 24.5q-3 10.5 -13 17.5q-10 7 -28 10.5q-18 3.5 -48 3.5l-93 0z" />
<glyph unicode="&#52;" horiz-adv-x="650" d="M29 241l268 459h258v-390h72v-176h-72v-134h-203v134h-323zM355 516l-112 -208l112 0z" />
<glyph unicode="&#53;" horiz-adv-x="650" d="M89 700h463v-164h-313l-5 -89q23 5 54 7q31 2 57 2q68 0 114.5 -15q46.5 -15 74.5 -43.5q28 -28.5 40 -69q12 -40.5 12 -92.5q0 -57 -13.5 -103q-13.5 -46 -48.5 -78.5q-35 -32.5 -96 -50.5q-61 -18 -155 -18q-43 0 -100.5 8.5q-57.5 8.5 -111.5 25.5l0 193q15 -9 36 -18.5q21 -9.5 48 -17.5q27 -8 58 -13q31 -5 65 -5q65 0 89.5 18.5q24.5 18.5 24.5 60.5q0 18 -5.5 32.5q-5.5 14.5 -19 24q-13.5 9.5 -38 14.5q-24.5 5 -61.5 5q-24 0 -51 -2q-27 -2 -53 -5q-26 -3 -48.5 -6.5q-22.5 -3.5 -37.5 -6.5z" />
<glyph unicode="&#54;" horiz-adv-x="650" d="M333 -14q-87 0 -145 22q-58 22 -93 64.5q-35 42.5 -50 106.5q-15 64 -15 148q0 89 18.5 160.5q18.5 71.5 60 122q41.5 50.5 109 77.5q67.5 27 166.5 27q55 0 102 -8.5q47 -8.5 88 -21.5l0 -191q-28 20 -73 36.5q-45 16.5 -116 16.5q-35 0 -67.5 -9.5q-32.5 -9.5 -57.5 -28.5q-25 -19 -39.5 -47q-14.5 -28 -14.5 -64v-16q32 41 76 59.5q44 18.5 104 18.5q121 0 175 -56.5q54 -56.5 54 -168.5q0 -128 -68.5 -188q-68.5 -60 -213.5 -60zt0 0zM232 264q-2 -35 3.5 -59q5.5 -24 17 -39q11.5 -15 29 -21.5q17.5 -6.5 39.5 -6.5q40 0 63.5 20.5q23.5 20.5 23.5 71.5q0 56 -19 75.5q-19 19.5 -63 19.5q-45 0 -65 -17t-29 -44z" />
<glyph unicode="&#55;" horiz-adv-x="650" d="M386 527h-338v173h561v-116l-255 -584l-215 0z" />
<glyph unicode="&#56;" horiz-adv-x="650" d="M26 190q0 73 31.5 116.5q31.5 43.5 108.5 64.5q-67 20 -95 57.5q-28 37.5 -28 102.5q0 43 15.5 77q15.5 34 50 57.5q34.5 23.5 88.5 36q54 12.5 132 12.5q148 0 213 -44q65 -44 65 -139q0 -58 -26.5 -97.5q-26.5 -39.5 -94.5 -62.5q41 -9 68 -24.5q27 -15.5 42.5 -37.5q15.5 -22 21.5 -51.5q6 -29.5 6 -65.5q0 -47 -16 -85q-16 -38 -51 -65q-35 -27 -91 -41.5q-56 -14.5 -137 -14.5q-85 0 -143 13q-58 13 -93.5 38.5q-35.5 25.5 -51 64q-15.5 38.5 -15.5 88.5zt0 0zM233 220q0 -48 25.5 -67q25.5 -19 70.5 -19q38 0 63 20q25 20 25 68q0 42 -21 61q-21 19 -71 19q-47 0 -69.5 -22q-22.5 -22 -22.5 -60zt0 0zM242 493q0 -41 20.5 -57.5q20.5 -16.5 63.5 -16.5q47 0 64.5 19q17.5 19 17.5 56q0 39 -18.5 55.5q-18.5 16.5 -65.5 16.5q-46 0 -64 -18.5t-18 -54.5z" />
<glyph unicode="&#57;" horiz-adv-x="650" d="M312 714q87 0 145 -22q58 -22 93 -64.5q35 -42.5 50 -106.5q15 -64 15 -148q0 -89 -18.5 -160.5q-18.5 -71.5 -60 -122q-41.5 -50.5 -109 -77.5q-67.5 -27 -166.5 -27q-55 0 -102 8.5q-47 8.5 -88 21.5l0 191q28 -20 73 -36.5q45 -16.5 116 -16.5q35 0 67.5 9.5q32.5 9.5 57 28.5q24.5 19 39.5 47q15 28 15 64v16q-32 -41 -76 -59.5q-44 -18.5 -104 -18.5q-121 0 -175 56.5q-54 56.5 -54 168.5q0 127 68.5 187.5q68.5 60.5 213.5 60.5zt0 0zM413 436q4 70 -20.5 98q-24.5 28 -68.5 28q-40 0 -63.5 -20.5q-23.5 -20.5 -23.5 -71.5q0 -51 19 -73q19 -22 63 -22q45 0 65 17t29 44z" />
<glyph unicode="&#58;" horiz-adv-x="371" d="M80 99q0 57 27.5 85q27.5 28 86.5 28q60 0 88.5 -25q28.5 -25 28.5 -88q0 -54 -27.5 -83.5q-27.5 -29.5 -89.5 -29.5q-59 0 -86.5 29q-27.5 29 -27.5 84zt0 0zM80 428q0 57 27.5 85q27.5 28 86.5 28q60 0 88.5 -25q28.5 -25 28.5 -88q0 -54 -27.5 -83.5q-27.5 -29.5 -89.5 -29.5q-59 0 -86.5 29t-27.5 84z" />
<glyph unicode="&#59;" horiz-adv-x="391" d="M82 428q0 57 27.5 85q27.5 28 86.5 28q60 0 88.5 -25q28.5 -25 28.5 -88q0 -54 -27.5 -83.5q-27.5 -29.5 -89.5 -29.5q-59 0 -86.5 29q-27.5 29 -27.5 84zt0 0zM50 -103q27 4 51.5 12.5q24.5 8.5 43.5 20.5q19 12 31.5 26.5q12.5 14.5 15.5 31.5q-62 0 -88.5 30.5q-26.5 30.5 -26.5 72.5q0 103 121 103q71 0 102 -35q31 -35 31 -108q0 -101 -51.5 -169q-51.5 -68 -144.5 -88l-85 103z" />
<glyph unicode="&#60;" horiz-adv-x="590" d="M50 385l490 168v-142l-308 -92v-2l308 -91v-142l-490 168z" />
<glyph unicode="&#61;" horiz-adv-x="593" d="M50 291h493v-139h-493zM50 505h493v-139l-493 0z" />
<glyph unicode="&#62;" horiz-adv-x="590" d="M50 226l308 91v2l-308 92v142l490 -168v-133l-490 -168z" />
<glyph unicode="&#63;" horiz-adv-x="565" d="M164 247q0 44 11 74q11 30 27 51q16 21 35.5 36q19.5 15 35.5 28.5q16 13.5 27 28q11 14.5 11 34.5q0 24 -16 33.5q-16 9.5 -48 9.5q-54 0 -104 -19.5q-50 -19.5 -83 -44.5l0 199q36 16 91 26.5q55 10.5 131 10.5q127 0 185 -45q58 -45 58 -130q0 -50 -13.5 -83.5q-13.5 -33.5 -34 -56q-20.5 -22.5 -44.5 -38.5q-24 -16 -44.5 -32q-20.5 -16 -34 -34.5q-13.5 -18.5 -13.5 -47.5zM139 88q0 48 28.5 75q28.5 27 84.5 27q51 0 82.5 -28q31.5 -28 31.5 -74q0 -48 -30 -75q-30 -27 -84 -27q-51 0 -82 28t-31 74z" />
<glyph unicode="&#64;" horiz-adv-x="951" d="M684 64q-62 0 -91 20.5q-29 20.5 -42 62.5q-13 -45 -46 -64q-33 -19 -77 -19q-78 0 -118 52q-40 52 -40 170q0 119 39.5 174.5q39.5 55.5 124.5 55.5q23 0 39.5 -5.5q16.5 -5.5 28.5 -13.5q12 -8 19.5 -18q7.5 -10 12.5 -20l10 47h131v-283q0 -33 9 -47q9 -14 28 -14q16 0 31 8q15 8 26.5 26q11.5 18 18 47.5q6.5 29.5 6.5 73.5q0 68 -18 123q-18 55 -55 93.5q-37 38.5 -93 59q-56 20.5 -131 20.5q-89 0 -151 -28q-62 -28 -100.5 -74.5q-38.5 -46.5 -56 -107q-17.5 -60.5 -17.5 -124.5q0 -53 14.5 -108.5q14.5 -55.5 51.5 -101.5q37 -46 101 -75.5q64 -29.5 163 -29.5q21 0 46 2.5q25 2.5 51 7.5q26 5 50.5 13q24.5 8 44.5 20l0 -111q-55 -17 -100 -24q-45 -7 -93 -7q-114 0 -197 33q-83 33 -137 89.5q-54 56.5 -80.5 132q-26.5 75.5 -26.5 159.5q0 84 27 162.5q27 78.5 81.5 138.5q54.5 60 137 96q82.5 36 192.5 36q91 0 165.5 -26.5q74.5 -26.5 127.5 -76q53 -49.5 81.5 -121q28.5 -71.5 28.5 -162.5q0 -128 -55.5 -195q-55.5 -67 -161.5 -67zt0 0zM422 290q0 -30 1.5 -52q1.5 -22 7 -37q5.5 -15 16 -22q10.5 -7 27.5 -7q29 0 39 23q10 23 10 66v55q0 48 -10 70q-10 22 -39 22q-32 0 -42 -26.5t-10 -91.5z" />
<glyph unicode="&#65;" horiz-adv-x="722" d="M475 126h-233l-39 -126h-199l235 700h247l232 -700h-204zM292 290h132l-66 212z" />
<glyph unicode="&#66;" horiz-adv-x="710" d="M80 700q50 1 90 2q40 1 73.5 2q33.5 1 63.5 1q30 0 59 0q85 0 140.5 -10.5q55.5 -10.5 87.5 -32.5q32 -22 44.5 -57.5q12.5 -35.5 12.5 -84.5q0 -66 -35 -104q-35 -38 -102 -51q81 -2 118.5 -42q37.5 -40 37.5 -116q0 -57 -14.5 -97.5q-14.5 -40.5 -52.5 -66q-38 -25.5 -105 -37.5q-67 -12 -172 -12q-32 0 -90 1q-58 1 -156 5zM356 159q34 0 55.5 3q21.5 3 32.5 10q11 7 15 19q4 12 4 30q0 19 -3.5 32q-3.5 13 -15 20q-11.5 7 -31.5 10q-20 3 -53 3h-78v-127zM381 421q42 0 57 15q15 15 15 47q0 32 -16 45q-16 13 -65 13q-23 0 -42 -0.5q-19 -0.5 -48 -2.5l0 -117z" />
<glyph unicode="&#67;" horiz-adv-x="655" d="M604 483q-17 9 -34.5 17.5q-17.5 8.5 -39 16q-21.5 7.5 -48.5 12q-27 4.5 -63 4.5q-43 0 -74 -9.5q-31 -9.5 -51 -31q-20 -21.5 -29.5 -56.5q-9.5 -35 -9.5 -86q0 -52 9.5 -87q9.5 -35 30.5 -56.5q21 -21.5 53.5 -30.5q32.5 -9 78.5 -9q63 0 106.5 15.5q43.5 15.5 71.5 36.5l0 -199q-28 -13 -77 -24.5q-49 -11.5 -120 -11.5q-100 0 -170 22q-70 22 -114 66.5q-44 44.5 -64 111.5q-20 67 -20 157q0 94 20 164.5q20 70.5 64.5 117.5q44.5 47 115.5 70q71 23 172 23q72 0 120 -11.5q48 -11.5 72 -19.5z" />
<glyph unicode="&#68;" horiz-adv-x="758" d="M80 700q40 2 72.5 3q32.5 1 62.5 1.5q30 0.5 60 0.5q30 0 65 0q110 0 183 -23.5q73 -23.5 116.5 -67.5q43.5 -44 61 -107.5q17.5 -63.5 17.5 -143.5q0 -90 -22 -159q-22 -69 -69.5 -115.5q-47.5 -46.5 -122 -70q-74.5 -23.5 -179.5 -23.5q-32 0 -60 0q-28 0 -56.5 0.5q-28.5 0.5 -59.5 1.5q-31 1 -69 3zM282 170q17 -2 29 -2q12 0 29 0q91 0 131 45.5q40 45.5 40 142.5q0 91 -38.5 133.5q-38.5 42.5 -125.5 42.5q-19 0 -32.5 0q-13.5 0 -32.5 -2z" />
<glyph unicode="&#69;" horiz-adv-x="650" d="M80 700h520v-174h-318v-93h274v-159h-274v-100h318v-174l-520 0z" />
<glyph unicode="&#70;" horiz-adv-x="626" d="M80 700h496v-174h-294v-105h282v-174h-282v-247l-202 0z" />
<glyph unicode="&#71;" horiz-adv-x="721" d="M385 418h286v-373q-19 -11 -47 -21.5q-28 -10.5 -64 -19.5q-36 -9 -78.5 -14.5q-42.5 -5.5 -89.5 -5.5q-92 0 -158 21q-66 21 -109.5 65q-43.5 44 -64 111.5q-20.5 67.5 -20.5 159.5q0 95 19 165.5q19 70.5 63.5 117q44.5 46.5 116.5 69.5q72 23 179 23q82 0 133 -11q51 -11 75 -21l0 -188q-78 47 -188 47q-55 0 -91.5 -11q-36.5 -11 -58.5 -34.5q-22 -23.5 -31.5 -60q-9.5 -36.5 -9.5 -87.5q0 -101 38 -147q38 -46 125 -46q34 0 53.5 4q19.5 4 33.5 8l0 90l-112 0z" />
<glyph unicode="&#72;" horiz-adv-x="809" d="M80 700h202v-258h245v258h202v-700h-202v269h-245v-269l-202 0z" />
<glyph unicode="&#73;" horiz-adv-x="362" d="M80 700h202v-700l-202 0z" />
<glyph unicode="&#74;" horiz-adv-x="497" d="M215 700h202v-453q0 -70 -12.5 -119q-12.5 -49 -42 -79.5q-29.5 -30.5 -77.5 -44.5q-48 -14 -118 -14q-53 0 -83.5 5q-30.5 5 -53.5 11l0 192q17 -13 44.5 -22.5q27.5 -9.5 55.5 -9.5q22 0 38 4.5q16 4.5 26.5 17q10.5 12.5 15.5 34q5 21.5 5 55.5z" />
<glyph unicode="&#75;" horiz-adv-x="736" d="M80 700h202v-263h54l146 263h230l-205 -327l221 -373h-237l-154 273h-55v-273l-202 0z" />
<glyph unicode="&#76;" horiz-adv-x="591" d="M80 700h202v-514h289v-186l-491 0z" />
<glyph unicode="&#77;" horiz-adv-x="965" d="M80 700h297l111 -324l111 324h286v-700h-195v381q0 29 1 60q1 31 3 60q-11 -29 -20.5 -58.5q-9.5 -29.5 -20.5 -58.5l-88 -244h-165l-88 242q-11 28 -20.5 58q-9.5 30 -20.5 58q2 -29 3 -58.5q1 -29.5 1 -58.5v-381l-195 0z" />
<glyph unicode="&#78;" horiz-adv-x="805" d="M80 700h220l185 -318q14 -23 25.5 -50.5q11.5 -27.5 23.5 -51.5q-2 26 -3 54q-1 28 -1 54v312h195v-700h-210l-198 337q-13 22 -24 47.5q-11 25.5 -22 47.5q2 -23 3 -49q1 -26 1 -49v-334l-195 0z" />
<glyph unicode="&#79;" horiz-adv-x="795" d="M40 350q0 97 21.5 166q21.5 69 65.5 113.5q44 44.5 110.5 65.5q66.5 21 157.5 21q101 0 170 -21q69 -21 111 -65.5q42 -44.5 60.5 -114q18.5 -69.5 18.5 -165.5q0 -99 -22 -169q-22 -70 -66.5 -113.5q-44.5 -43.5 -111 -63.5q-66.5 -20 -155.5 -20q-185 0 -272.5 89q-87.5 89 -87.5 277zt0 0zM255 350q0 -59 9.5 -96.5q9.5 -37.5 28.5 -59q19 -21.5 46.5 -29.5q27.5 -8 62.5 -8q35 0 61 8.5q26 8.5 43.5 30.5q17.5 22 26 59.5q8.5 37.5 8.5 94.5q0 57 -8.5 94q-8.5 37 -26.5 59q-18 22 -45.5 31q-27.5 9 -65.5 9q-36 0 -62 -9q-26 -9 -43.5 -31q-17.5 -22 -26 -59.5t-8.5 -93.5z" />
<glyph unicode="&#80;" horiz-adv-x="696" d="M80 700q41 1 71 2q30 1 58.5 1.5q28.5 0.5 60.5 1q32 0.5 78 0.5q84 0 143 -13q59 -13 95.5 -43q36.5 -30 53 -78.5q16.5 -48.5 16.5 -119.5q0 -139 -75 -203.5q-75 -64.5 -236 -64.5q-19 0 -31.5 0.5q-12.5 0.5 -31.5 1.5l0 -185h-202zM282 350q20 -2 31.5 -2.5q11.5 -0.5 31.5 -0.5q59 0 81.5 26.5q22.5 26.5 22.5 69.5q0 22 -4 40.5q-4 18.5 -16 31q-12 12.5 -33 19.5q-21 7 -54 7q-19 0 -30 -0.5q-11 -0.5 -30 -2.5z" />
<glyph unicode="&#81;" horiz-adv-x="795" d="M40 350q0 97 21.5 166q21.5 69 65.5 113.5q44 44.5 110.5 65.5q66.5 21 157.5 21q101 0 170 -21q69 -21 111 -65.5q42 -44.5 60.5 -114q18.5 -69.5 18.5 -165.5q0 -143 -45.5 -225q-45.5 -82 -137.5 -116l139 -169h-244l-113 146q-161 11 -237.5 99q-76.5 88 -76.5 265zt0 0zM255 350q0 -59 9.5 -96.5q9.5 -37.5 28.5 -59q19 -21.5 46.5 -29.5q27.5 -8 62.5 -8q35 0 61 8.5q26 8.5 43.5 30.5q17.5 22 26 59.5q8.5 37.5 8.5 94.5q0 57 -8.5 94q-8.5 37 -26.5 59q-18 22 -45.5 31q-27.5 9 -65.5 9q-36 0 -62 -9q-26 -9 -43.5 -31q-17.5 -22 -26 -59.5t-8.5 -93.5z" />
<glyph unicode="&#82;" horiz-adv-x="721" d="M80 0v700q41 1 74.5 1.5q33.5 0.5 64 1.5q30.5 1 60.5 1.5q30 0.5 65 0.5q91 0 151 -16q60 -16 95 -46.5q35 -30.5 49 -76.5q14 -46 14 -106q0 -91 -23 -144.5q-23 -53.5 -80 -82.5l141 -233h-217l-119 213h-73v-213zM349 372q58 0 77.5 18q19.5 18 19.5 60q0 40 -21 58q-21 18 -82 18q-20 0 -33 -0.5q-13 -0.5 -33 -2.5l0 -151z" />
<glyph unicode="&#83;" horiz-adv-x="668" d="M400 198q0 22 -25 33.5q-25 11.5 -63 22.5q-38 11 -82 25.5q-44 14.5 -82 41.5q-38 27 -63 71.5q-25 44.5 -25 114.5q0 48 15.5 86.5q15.5 38.5 50 65.5q34.5 27 89.5 42q55 15 135 15q74 0 134.5 -10q60.5 -10 98.5 -24l0 -189q-42 25 -97.5 42.5q-55.5 17.5 -115.5 17.5q-32 0 -52.5 -4.5q-20.5 -4.5 -32.5 -11.5q-12 -7 -16.5 -15.5q-4.5 -8.5 -4.5 -17.5q0 -21 26.5 -32.5q26.5 -11.5 66.5 -22.5q40 -11 86.5 -25.5q46.5 -14.5 86.5 -41q40 -26.5 66.5 -69q26.5 -42.5 26.5 -109.5q0 -52 -17.5 -93q-17.5 -41 -55 -69q-37.5 -28 -96 -43q-58.5 -15 -140.5 -15q-73 0 -138 12q-65 12 -107 31l0 192q12 -8 32.5 -20q20.5 -12 49.5 -23.5q29 -11.5 66.5 -20q37.5 -8.5 82.5 -8.5q54 0 77 15.5t23 35.5z" />
<glyph unicode="&#84;" horiz-adv-x="644" d="M221 527h-191v173h584v-173h-191v-527l-202 0z" />
<glyph unicode="&#85;" horiz-adv-x="757" d="M75 700h203v-393q0 -44 4 -72.5q4 -28.5 15.5 -45q11.5 -16.5 31 -23.5q19.5 -7 50.5 -7q33 0 52.5 7q19.5 7 30.5 24q11 17 14.5 45.5q3.5 28.5 3.5 71.5v393h202v-411q0 -87 -19 -145q-19 -58 -57 -93.5q-38 -35.5 -95 -50q-57 -14.5 -132 -14.5q-74 0 -130.5 13.5q-56.5 13.5 -95 48q-38.5 34.5 -58.5 93.5q-20 59 -20 150z" />
<glyph unicode="&#86;" horiz-adv-x="705" d="M10 700h220l128 -489l131 489h206l-207 -700l-271 0z" />
<glyph unicode="&#87;" horiz-adv-x="1055" d="M15 700h218l70 -350q6 -29 10 -59.5q4 -30.5 10 -59.5q6 29 10 60.5q4 31.5 10 60.5l67 348h233l67 -342q6 -31 10.5 -63q4.5 -32 10.5 -63q7 31 11.5 62.5q4.5 31.5 10.5 62.5l70 343h217l-158 -700h-269l-87 441l-87 -441l-269 0z" />
<glyph unicode="&#88;" horiz-adv-x="736" d="M209 360l-174 340h234l101 -210l103 210h230l-184 -338l197 -362h-239l-116 223l-109 -223l-232 0z" />
<glyph unicode="&#89;" horiz-adv-x="689" d="M244 244l-239 456h232l109 -226l106 226h232l-238 -456v-244l-202 0z" />
<glyph unicode="&#90;" horiz-adv-x="673" d="M50 116l298 410h-286v174h555v-115l-297 -411h303v-174l-573 0z" />
<glyph unicode="&#91;" horiz-adv-x="409" d="M80 770h309v-113h-149v-724h149v-113l-309 0z" />
<glyph unicode="&#92;" horiz-adv-x="454" d="M10 770h164l270 -950l-164 0z" />
<glyph unicode="&#93;" horiz-adv-x="409" d="M20 -67h149v724h-149v113h309v-950l-309 0z" />
<glyph unicode="&#94;" horiz-adv-x="557" d="M214 700h130l184 -356h-142l-107 209l-107 -209l-142 0z" />
<glyph unicode="&#95;" horiz-adv-x="514" d="M0 -110h514v-101l-514 0z" />
<glyph unicode="&#96;" horiz-adv-x="400" d="M227 625l-200 170h230l110 -170z" />
<glyph unicode="&#97;" horiz-adv-x="648" d="M404 79q-7 -14 -22 -29.5q-15 -15.5 -38.5 -29q-23.5 -13.5 -56.5 -22.5q-33 -9 -76 -9q-52 0 -87.5 13.5q-35.5 13.5 -57 37q-21.5 23.5 -31 55q-9.5 31.5 -9.5 66.5q0 89 63 126.5q63 37.5 194 35.5l106 -1v18q0 16 -5 28q-5 12 -17 20.5q-12 8.5 -33 13q-21 4.5 -53 4.5q-30 0 -59 -5.5q-29 -5.5 -55.5 -14.5q-26.5 -9 -48.5 -20.5q-22 -11.5 -37 -23.5l0 183q35 15 96.5 27.5q61.5 12.5 141.5 12.5q78 0 130 -11.5q52 -11.5 83.5 -37q31.5 -25.5 44.5 -67q13 -41.5 13 -100.5v-349h-179zM228 180q0 -20 13 -33.5q13 -13.5 52 -13.5q52 0 74 19.5q22 19.5 22 51.5v21h-74q-48 0 -67.5 -9.5t-19.5 -35.5z" />
<glyph unicode="&#98;" horiz-adv-x="732" d="M65 770h199v-295q20 36 65.5 61.5q45.5 25.5 124.5 25.5q61 0 106 -15q45 -15 74 -48q29 -33 43.5 -85.5q14.5 -52.5 14.5 -128.5q0 -153 -58.5 -224.5q-58.5 -71.5 -186.5 -71.5q-43 0 -74 6.5q-31 6.5 -53 17.5q-22 11 -36.5 25.5q-14.5 14.5 -23.5 29.5l-5 -68h-190zM264 261q0 -59 26 -87.5q26 -28.5 86 -28.5q54 0 80 31q26 31 26 105q0 38 -8 62.5q-8 24.5 -22 38.5q-14 14 -33.5 19q-19.5 5 -42.5 5q-60 0 -86 -30.5q-26 -30.5 -26 -90.5z" />
<glyph unicode="&#99;" horiz-adv-x="609" d="M553 352q-30 21 -67.5 35.5q-37.5 14.5 -96.5 14.5q-77 0 -110 -27.5q-33 -27.5 -33 -93.5q0 -32 7 -57q7 -25 25 -41.5q18 -16.5 48 -25q30 -8.5 76 -8.5q48 0 91 13q43 13 66 30l0 -167q-25 -11 -72 -25q-47 -14 -123 -14q-90 0 -151.5 17q-61.5 17 -100 53q-38.5 36 -55.5 91.5q-17 55.5 -17 132.5q0 71 18 124.5q18 53.5 56.5 89q38.5 35.5 98.5 53.5q60 18 143 18q80 0 125.5 -12q45.5 -12 71.5 -23z" />
<glyph unicode="&#100;" horiz-adv-x="733" d="M473 81q-12 -20 -27.5 -37q-15.5 -17 -38 -29q-22.5 -12 -53.5 -19q-31 -7 -74 -7q-125 0 -182.5 67.5q-57.5 67.5 -57.5 209.5q0 71 14 126.5q14 55.5 44 93q30 37.5 78 57q48 19.5 116 19.5q76 0 116 -20.5q40 -20.5 60 -51.5l0 280h199v-770h-189zM359 145q61 0 85 30q24 30 24 83v33q0 56 -24 85.5q-24 29.5 -83 29.5q-62 0 -87 -30.5q-25 -30.5 -25 -105.5q0 -39 8 -63.5q8 -24.5 22.5 -38q14.5 -13.5 34.5 -18.5t45 -5z" />
<glyph unicode="&#101;" horiz-adv-x="671" d="M241 232q4 -51 37.5 -73q33.5 -22 105.5 -22q31 0 63 4.5q32 4.5 61 13q29 8.5 53 19.5q24 11 39 24l0 -162q-11 -9 -33 -18q-22 -9 -54.5 -16q-32.5 -7 -73 -11.5q-40.5 -4.5 -88.5 -4.5q-88 0 -147.5 19q-59.5 19 -96 57q-36.5 38 -52 93.5q-15.5 55.5 -15.5 129.5q0 145 80.5 212.5q80.5 67.5 226.5 67.5q82 0 137 -18.5q55 -18.5 89 -52.5q34 -34 48.5 -82.5q14.5 -48.5 14.5 -108.5v-71zM343 422q-52 0 -75.5 -22.5q-23.5 -22.5 -27.5 -66.5l198 0q1 40 -19 64.5t-76 24.5z" />
<glyph unicode="&#102;" horiz-adv-x="483" d="M125 389h-95v161h95v42q0 48 10.5 83q10.5 35 35 58.5q24.5 23.5 65.5 34.5q41 11 102 11q23 0 40.5 -1q17.5 -1 31.5 -2.5q14 -1.5 26.5 -3.5q12.5 -2 26.5 -4l0 -158q-7 2 -24.5 4.5q-17.5 2.5 -50.5 2.5q-30 0 -47 -8q-17 -8 -17 -37v-22h131v-161h-131v-389l-199 0z" />
<glyph unicode="&#103;" horiz-adv-x="733" d="M101 19q26 -14 81.5 -29q55.5 -15 148.5 -15q42 0 68.5 7q26.5 7 42 20.5q15.5 13.5 21 32.5q5.5 19 5.5 43v30q-25 -31 -69.5 -50q-44.5 -19 -114.5 -19q-62 0 -107.5 13.5q-45.5 13.5 -76 42.5q-30.5 29 -45.5 76q-15 47 -15 115q0 143 57 209.5q57 66.5 188 66.5q44 0 75.5 -7q31.5 -7 53.5 -19q22 -12 36 -28q14 -16 23 -33l5 75h189v-460q0 -81 -20 -134.5q-20 -53.5 -62 -85.5q-42 -32 -107 -45q-65 -13 -155 -13q-33 0 -66 2.5q-33 2.5 -62.5 7q-29.5 4.5 -53.5 10q-24 5.5 -40 10.5zM358 194q57 0 83.5 22q26.5 22 26.5 81v9q0 56 -25.5 78q-25.5 22 -86.5 22q-58 0 -82.5 -23q-24.5 -23 -24.5 -83q0 -60 27 -83t82 -23z" />
<glyph unicode="&#104;" horiz-adv-x="704" d="M65 770h199v-296q22 43 68.5 65.5q46.5 22.5 117.5 22.5q106 0 151 -51q45 -51 45 -159v-352h-199v303q0 53 -19.5 74.5q-19.5 21.5 -69.5 21.5q-28 0 -46 -6.5q-18 -6.5 -28.5 -19q-10.5 -12.5 -15 -32q-4.5 -19.5 -4.5 -45.5v-296l-199 0z" />
<glyph unicode="&#105;" horiz-adv-x="331" d="M65 550h200v-550h-200zM55 710q0 45 25 67.5q25 22.5 85 22.5q60 0 85 -22.5q25 -22.5 25 -67.5q0 -45 -25 -67.5q-25 -22.5 -85 -22.5q-60 0 -85 22.5t-25 67.5z" />
<glyph unicode="&#106;" horiz-adv-x="341" d="M75 550h200v-570q0 -54 -12.5 -88q-12.5 -34 -35.5 -53.5q-23 -19.5 -56.5 -27q-33.5 -7.5 -76.5 -7.5q-46 0 -71.5 4.5q-25.5 4.5 -36.5 9.5l0 154q18 -5 45 -5q24 0 34 7q10 7 10 24zM65 710q0 45 25 67.5q25 22.5 85 22.5q60 0 85 -22.5q25 -22.5 25 -67.5q0 -45 -25 -67.5q-25 -22.5 -85 -22.5q-60 0 -85 22.5t-25 67.5z" />
<glyph unicode="&#107;" horiz-adv-x="670" d="M264 770v-398h48l111 178h222l-175 -259l188 -291h-224l-121 201h-49v-201h-199l0 770z" />
<glyph unicode="&#108;" horiz-adv-x="387" d="M264 191q0 -23 9.5 -30.5q9.5 -7.5 29.5 -7.5q13 0 25.5 2.5q12.5 2.5 24.5 4.5l0 -156q-11 -5 -35.5 -9.5q-24.5 -4.5 -64.5 -4.5q-45 0 -80 7.5q-35 7.5 -59 27q-24 19.5 -36.5 53.5q-12.5 34 -12.5 88v604h199l0 -579z" />
<glyph unicode="&#109;" horiz-adv-x="1005" d="M65 550h187l5 -83q26 55 72.5 75q46.5 20 102.5 20q61 0 101.5 -26.5q40.5 -26.5 57.5 -82.5q24 63 70.5 86q46.5 23 112.5 23q88 0 130.5 -48q42.5 -48 42.5 -142v-372h-198v322q0 40 -15 58.5q-15 18.5 -57 18.5q-38 0 -55 -16.5q-17 -16.5 -17 -64.5v-318h-198v320q0 44 -15 61.5q-15 17.5 -56 17.5q-39 0 -56 -18.5q-17 -18.5 -17 -65.5v-315l-198 0z" />
<glyph unicode="&#110;" horiz-adv-x="704" d="M65 550h194l5 -76q25 51 72 69.5q47 18.5 104 18.5q99 0 152.5 -46q53.5 -46 53.5 -146v-370h-199v297q0 58 -20 80q-20 22 -72 22q-53 0 -72 -24q-19 -24 -19 -78v-297l-199 0z" />
<glyph unicode="&#111;" horiz-adv-x="706" d="M40 275q0 146 75.5 218q75.5 72 236.5 72q86 0 145.5 -17.5q59.5 -17.5 97 -53.5q37.5 -36 54.5 -90.5q17 -54.5 17 -128.5q0 -72 -17 -126.5q-17 -54.5 -54.5 -90.5q-37.5 -36 -97.5 -54q-60 -18 -145 -18q-85 0 -144 16.5q-59 16.5 -96.5 52q-37.5 35.5 -54.5 90q-17 54.5 -17 130.5zt0 0zM246 270q0 -68 22 -99q22 -31 84 -31q63 0 85.5 30q22.5 30 22.5 99v6q0 36 -4 62q-4 26 -15.5 42q-11.5 16 -33 23.5q-21.5 7.5 -55.5 7.5q-33 0 -53.5 -7.5q-20.5 -7.5 -32.5 -24q-12 -16.5 -16 -42q-4 -25.5 -4 -61.5z" />
<glyph unicode="&#112;" horiz-adv-x="732" d="M65 550h189l6 -77q12 19 29 35q17 16 40 28q23 12 53 19q30 7 69 7q65 0 111 -16q46 -16 75 -50q29 -34 42 -87.5q13 -53.5 13 -128.5q0 -72 -13.5 -126.5q-13.5 -54.5 -43.5 -91q-30 -36.5 -78.5 -55q-48.5 -18.5 -117.5 -18.5q-39 0 -67.5 7.5q-28.5 7.5 -49.5 18.5q-21 11 -35 25q-14 14 -23 26l0 -246h-199zM264 270q0 -60 24 -92.5q24 -32.5 87 -32.5q62 0 84.5 32.5q22.5 32.5 22.5 103.5q0 66 -24.5 95.5q-24.5 29.5 -84.5 29.5q-60 0 -84.5 -31q-24.5 -31 -24.5 -94z" />
<glyph unicode="&#113;" horiz-adv-x="733" d="M468 77q-24 -41 -67 -64.5q-43 -23.5 -119 -23.5q-56 0 -100.5 12.5q-44.5 12.5 -76 44q-31.5 31.5 -48.5 84.5q-17 53 -17 134q0 81 16 137.5q16 56.5 47.5 92q31.5 35.5 78 52q46.5 16.5 108.5 16.5q43 0 73 -8q30 -8 51 -20.5q21 -12.5 35 -28q14 -15.5 24 -30.5l5 75h189v-730h-199zM361 145q61 0 84 34q23 34 23 97v14q0 63 -27 89.5q-27 26.5 -84 26.5q-60 0 -84 -33q-24 -33 -24 -101q0 -71 27 -99t85 -28z" />
<glyph unicode="&#114;" horiz-adv-x="515" d="M65 550h187l6 -89q23 57 60.5 79q37.5 22 91.5 22q17 0 33 -2.5q16 -2.5 33 -5.5l0 -195q-17 14 -41.5 22.5q-24.5 8.5 -63.5 8.5q-59 0 -83 -27.5q-24 -27.5 -24 -92.5v-270l-199 0z" />
<glyph unicode="&#115;" horiz-adv-x="580" d="M501 376q-35 18 -78.5 32q-43.5 14 -102.5 14q-42 0 -54 -8q-12 -8 -12 -22q0 -16 21 -23q21 -7 53 -13q32 -6 69 -15q37 -9 69 -28q32 -19 53 -52q21 -33 21 -87q0 -44 -12 -79q-12 -35 -42.5 -59q-30.5 -24 -83 -37q-52.5 -13 -134.5 -13q-17 0 -40.5 1.5q-23.5 1.5 -50.5 4.5q-27 3 -56 9q-29 6 -56 15l0 172q32 -22 83 -40.5q51 -18.5 115 -18.5q24 0 38 2q14 2 22 6.5q8 4.5 10.5 10.5q2.5 6 2.5 15q0 16 -21 23.5q-21 7.5 -53 15q-32 7.5 -69 17q-37 9.5 -69 29q-32 19.5 -53 52.5q-21 33 -21 86q0 47 13.5 81q13.5 34 44 55.5q30.5 21.5 81 32q50.5 10.5 125.5 10.5q19 0 42 -1.5q23 -1.5 47.5 -4q24.5 -2.5 49.5 -7q25 -4.5 48 -10.5z" />
<glyph unicode="&#116;" horiz-adv-x="529" d="M125 389h-95v161h95v79l199 64v-143h155v-161h-155v-159q0 -35 13.5 -52q13.5 -17 48.5 -17q22 0 48 6.5q26 6.5 45 17.5l0 -169q-17 -8 -56.5 -17q-39.5 -9 -96.5 -9q-56 0 -94.5 11q-38.5 11 -62 34.5q-23.5 23.5 -34 61q-10.5 37.5 -10.5 90.5z" />
<glyph unicode="&#117;" horiz-adv-x="706" d="M441 77q-29 -48 -73 -68q-44 -20 -113 -20q-103 0 -149 50.5q-46 50.5 -46 160.5v350h199v-305q0 -51 19.5 -71.5q19.5 -20.5 70.5 -20.5q47 0 69.5 22q22.5 22 22.5 72v303h199v-550l-194 0z" />
<glyph unicode="&#118;" horiz-adv-x="655" d="M12 550h225l95 -330l98 330h213l-209 -550l-216 0z" />
<glyph unicode="&#119;" horiz-adv-x="944" d="M20 550h209l62 -344l89 344h184l90 -347l63 347h207l-134 -550h-246l-74 290l-73 -290l-247 0z" />
<glyph unicode="&#120;" horiz-adv-x="651" d="M184 284l-160 266h219l86 -148l90 148h214l-166 -266l174 -284h-221l-99 158l-95 -158l-216 0z" />
<glyph unicode="&#121;" horiz-adv-x="638" d="M210 -27q18 0 29 5.5q11 5.5 13 19.5l-242 552h224l108 -315l83 315h203l-183 -538q-20 -57 -39.5 -95.5q-19.5 -38.5 -43.5 -62.5q-24 -24 -55 -34q-31 -10 -72 -10q-26 0 -57 4q-31 4 -49 12l2 168q14 -8 35 -14.5t44 -6.5z" />
<glyph unicode="&#122;" horiz-adv-x="618" d="M50 126l250 261h-240v163h507v-126l-250 -261h255v-163l-522 0z" />
<glyph unicode="&#123;" horiz-adv-x="428" d="M126 133q0 96 -86 105l0 114q43 5 64.5 30q21.5 25 21.5 75v124q0 27 3 60q3 33 19.5 61.5q16.5 28.5 52 48q35.5 19.5 100.5 19.5h107v-112h-50q-23 0 -37 -7q-14 -7 -22 -20q-8 -13 -10.5 -31.5q-2.5 -18.5 -2.5 -40.5v-119q0 -52 -23 -92.5q-23 -40.5 -80 -50.5q28 -5 48 -19q20 -14 32 -33.5q12 -19.5 17.5 -44q5.5 -24.5 5.5 -50.5v-118q0 -23 2.5 -41q2.5 -18 10.5 -31.5q8 -13.5 22 -20.5q14 -7 37 -7h50v-112h-107q-65 0 -100.5 19.5q-35.5 19.5 -52 48q-16.5 28.5 -19.5 61.5q-3 33 -3 60z" />
<glyph unicode="&#124;" horiz-adv-x="282" d="M61 770h160v-950l-160 0z" />
<glyph unicode="&#125;" horiz-adv-x="428" d="M302 9q0 -27 -3 -60q-3 -33 -19.5 -61.5q-16.5 -28.5 -52 -48q-35.5 -19.5 -100.5 -19.5h-107v112h50q23 0 37 7q14 7 22 20.5q8 13.5 10.5 31.5q2.5 18 2.5 41v118q0 26 5.5 50.5q5.5 24.5 17.5 44q12 19.5 31.5 33.5q19.5 14 48.5 19q-57 10 -80 50.5q-23 40.5 -23 92.5v119q0 22 -2.5 40.5q-2.5 18.5 -10.5 31.5q-8 13 -22 20q-14 7 -37 7h-50v112h107q65 0 100.5 -19.5q35.5 -19.5 52 -48q16.5 -28.5 19.5 -61.5q3 -33 3 -60v-124q0 -50 21.5 -75q21.5 -25 64.5 -30l0 -114q-86 -9 -86 -105l0 -124z" />
<glyph unicode="&#126;" horiz-adv-x="650" d="M96 358q23 29 51 47.5q28 18.5 66 18.5q32 0 63.5 -10.5q31.5 -10.5 62 -23.5q30.5 -13 59.5 -23.5q29 -10.5 56 -10.5q31 0 55.5 11.5q24.5 11.5 49.5 37.5l0 -129q-17 -20 -44.5 -39q-27.5 -19 -72.5 -19q-31 0 -59 10.5q-28 10.5 -55.5 23.5q-27.5 13 -55.5 23.5q-28 10.5 -59 10.5q-16 0 -34 -5.5q-18 -5.5 -34.5 -13.5q-16.5 -8 -29.5 -18.5q-13 -10.5 -19 -20.5z" />
<glyph unicode="&#160;" horiz-adv-x="240" />
<glyph unicode="&#161;" horiz-adv-x="407" d="M90 458q0 46 31 74q31 28 82 28q54 0 84 -27q30 -27 30 -75q0 -46 -31.5 -74q-31.5 -28 -82.5 -28q-56 0 -84.5 27q-28.5 27 -28.5 75zt0 0zM287 291l19 -445h-207l19 445z" />
<glyph unicode="&#162;" horiz-adv-x="561" d="M270 -9q-62 8 -104.5 33.5q-42.5 25.5 -69.5 64q-27 38.5 -39 87.5q-12 49 -12 103q0 52 13 99.5q13 47.5 40.5 85q27.5 37.5 70 62.5q42.5 25 101.5 33l0 91h105v-88q52 -4 84 -13q32 -9 52 -18l0 -147q-31 12 -62.5 20q-31.5 8 -81.5 8q-64 0 -99 -35.5q-35 -35.5 -35 -96.5q0 -30 8.5 -55.5q8.5 -25.5 27.5 -45q19 -19.5 47.5 -30.5q28.5 -11 69.5 -11q42 0 74.5 9q32.5 9 55.5 22l0 -146q-20 -9 -53.5 -20q-33.5 -11 -87.5 -15l0 -108l-105 0z" />
<glyph unicode="&#163;" horiz-adv-x="624" d="M53 161h86v128h-86v138h86v48q0 109 69.5 174q69.5 65 201.5 65q41 0 83 -5q42 -5 91 -16l0 -159q-42 12 -70.5 15.5q-28.5 3.5 -56.5 3.5q-56 0 -86 -25q-30 -25 -30 -77v-24h158v-138h-158v-128h245v-161l-533 0z" />
<glyph unicode="&#164;" horiz-adv-x="581" d="M23 154l62 63q-18 28 -28.5 61.5q-10.5 33.5 -10.5 71.5q0 37 10.5 71q10.5 34 29.5 62l-63 63l72 72l64 -63q28 18 61 28.5q33 10.5 70 10.5q38 0 71.5 -10.5q33.5 -10.5 61.5 -28.5l64 63l72 -72l-63 -63q18 -28 28.5 -62q10.5 -34 10.5 -71q0 -38 -10.5 -71.5q-10.5 -33.5 -28.5 -61.5l63 -63l-71 -72l-64 63q-29 -19 -62.5 -29.5q-33.5 -10.5 -71.5 -10.5q-38 0 -71.5 10.5q-33.5 10.5 -61.5 28.5l-63 -62zM168 349q0 -25 10 -47.5q10 -22.5 26.5 -39.5q16.5 -17 39 -27q22.5 -10 47.5 -10q25 0 47.5 10q22.5 10 39.5 27q17 17 27 39.5q10 22.5 10 47.5q0 25 -10 48q-10 23 -27 40q-17 17 -39.5 27q-22.5 10 -47.5 10q-25 0 -47.5 -10q-22.5 -10 -39 -27q-16.5 -17 -26.5 -40t-10 -48z" />
<glyph unicode="&#165;" horiz-adv-x="666" d="M81 219h151v32l-12 23h-139v97h91l-164 329h231l96 -231l92 231h232l-164 -329h91v-97h-140l-11 -23v-32h151v-97h-151v-122h-203v122l-151 0z" />
<glyph unicode="&#166;" horiz-adv-x="282" d="M61 220h160v-400h-160zM61 770h160v-400l-160 0z" />
<glyph unicode="&#167;" horiz-adv-x="584" d="M500 560q-31 9 -53.5 14.5q-22.5 5.5 -40.5 8.5q-18 3 -32.5 4q-14.5 1 -28.5 1q-11 0 -26 -1.5q-15 -1.5 -28 -6.5q-13 -5 -22 -13.5q-9 -8.5 -9 -23.5q0 -11 5.5 -19q5.5 -8 16.5 -14.5q11 -6.5 27.5 -13.5q16.5 -7 39.5 -17q9 -4 21.5 -9q12.5 -5 22.5 -9q28 -12 56 -25.5q28 -13.5 50.5 -32.5q22.5 -19 36 -45q13.5 -26 13.5 -62q0 -25 -8.5 -45q-8.5 -20 -21 -36.5q-12.5 -16.5 -28 -28.5q-15.5 -12 -29.5 -21q23 -17 41 -44q18 -27 18 -68q0 -30 -12.5 -61q-12.5 -31 -43 -56.5q-30.5 -25.5 -81 -41.5q-50.5 -16 -126.5 -16q-53 0 -96.5 7q-43.5 7 -94.5 21l0 131q27 -10 49 -16.5q22 -6.5 41 -10q19 -3.5 37 -5q18 -1.5 38 -1.5q42 0 68 10q26 10 26 35q0 13 -7.5 23q-7.5 10 -21 18q-13.5 8 -33.5 15.5q-20 7.5 -45 17.5q-9 4 -22 9q-13 5 -22 9q-27 11 -52.5 25q-25.5 14 -45 33.5q-19.5 19.5 -31 45q-11.5 25.5 -11.5 59.5q0 42 25 77q25 35 70 55q-34 19 -49 47.5q-15 28.5 -15 64.5q0 29 13.5 58.5q13.5 29.5 43 53.5q29.5 24 76.5 39q47 15 114 15q63 0 109 -9q46 -9 78 -18zM202 327q0 -18 9 -32q9 -14 25 -25.5q16 -11.5 36.5 -20.5q20.5 -9 43.5 -17q1 -1 6.5 -3q5.5 -2 12 -4.5q6.5 -2.5 12 -5q5.5 -2.5 6.5 -2.5q12 11 21 26q9 15 9 31q0 32 -28.5 51.5q-28.5 19.5 -70.5 37.5q-2 1 -8.5 3.5q-6.5 2.5 -14 5.5q-7.5 3 -14 6q-6.5 3 -8.5 4q-23 -15 -30 -29.5t-7 -25.5z" />
<glyph unicode="&#168;" horiz-adv-x="400" d="M-35 710q0 46 25.5 70q25.5 24 80.5 24q55 0 80.5 -24q25.5 -24 25.5 -70q0 -46 -25.5 -70q-25.5 -24 -80.5 -24q-55 0 -80.5 24q-25.5 24 -25.5 70zt0 0zM223 710q0 46 25.5 70q25.5 24 80.5 24q55 0 80.5 -24q25.5 -24 25.5 -70q0 -46 -25.5 -70q-25.5 -24 -80.5 -24q-55 0 -80.5 24t-25.5 70z" />
<glyph unicode="&#169;" horiz-adv-x="807" d="M40 349q0 75 28.5 141.5q28.5 66.5 78 116q49.5 49.5 115.5 78.5q66 29 141 29q75 0 141.5 -29q66.5 -29 116 -78.5q49.5 -49.5 78 -116q28.5 -66.5 28.5 -141.5q0 -75 -28.5 -141q-28.5 -66 -78 -115.5q-49.5 -49.5 -116 -78q-66.5 -28.5 -141.5 -28.5q-75 0 -141 28.5q-66 28.5 -115.5 78q-49.5 49.5 -78 115.5q-28.5 66 -28.5 141zt0 0zM120 348q0 -58 22.5 -109q22.5 -51 60.5 -89.5q38 -38.5 89.5 -60.5q51.5 -22 109.5 -22q59 0 111 22q52 22 90.5 60.5q38.5 38.5 61 89.5q22.5 51 22.5 109q0 60 -22.5 112q-22.5 52 -61 90.5q-38.5 38.5 -90.5 60.5q-52 22 -111 22q-58 0 -109.5 -22q-51.5 -22 -89.5 -60.5q-38 -38.5 -60.5 -90.5q-22.5 -52 -22.5 -112zt0 0zM529 428q-18 8 -40.5 12q-22.5 4 -42.5 4q-48 0 -73.5 -20q-25.5 -20 -25.5 -70q0 -50 25.5 -70.5q25.5 -20.5 74.5 -20.5q22 0 42.5 5q20.5 5 40.5 14l0 -101q-17 -8 -43 -13.5q-26 -5.5 -64 -5.5q-52 0 -88.5 13.5q-36.5 13.5 -60 38.5q-23.5 25 -34 60q-10.5 35 -10.5 77q0 91 47 142q47 51 152 51q33 0 59.5 -5.5q26.5 -5.5 40.5 -10.5z" />
<glyph unicode="&#170;" horiz-adv-x="442" d="M272 397h-1q-5 -10 -14 -20.5q-9 -10.5 -22.5 -19.5q-13.5 -9 -32.5 -14.5q-19 -5.5 -44 -5.5q-63 0 -96 29.5q-33 29.5 -33 82.5q0 59 41 85.5q41 26.5 125 26.5q20 0 40 -1.5q20 -1.5 31 -3.5l0 11q0 17 -14.5 28.5q-14.5 11.5 -56.5 11.5q-38 0 -73.5 -9.5q-35.5 -9.5 -56.5 -19.5l0 107q22 9 63 19q41 10 93 10q90 0 135 -33.5q45 -33.5 45 -117.5v-218h-129zM165 465q0 -14 10 -22.5q10 -8.5 35 -8.5q29 0 42.5 13q13.5 13 13.5 33v10q-23 5 -49 5q-29 0 -40.5 -7.5t-11.5 -22.5z" />
<glyph unicode="&#171;" horiz-adv-x="654" d="M40 269l124 213h173l-112 -213l112 -212h-173zM317 269l124 213h173l-112 -213l112 -212l-173 0z" />
<glyph unicode="&#172;" horiz-adv-x="686" d="M45 415h577v-295h-133v167l-444 0z" />
<glyph unicode="&#173;" horiz-adv-x="508" d="M80 350h348v-140l-348 0z" />
<glyph unicode="&#174;" horiz-adv-x="609" d="M50 549q0 53 18.5 99.5q18.5 46.5 52 81.5q33.5 35 80.5 55q47 20 103 20q57 0 103.5 -20q46.5 -20 80.5 -55q34 -35 52.5 -81.5q18.5 -46.5 18.5 -99.5q0 -52 -18.5 -98.5q-18.5 -46.5 -52.5 -81q-34 -34.5 -80.5 -54.5q-46.5 -20 -103.5 -20q-56 0 -103 20q-47 20 -80.5 54.5q-33.5 34.5 -52 81q-18.5 46.5 -18.5 98.5zt0 0zM116 549q0 -39 13.5 -73q13.5 -34 38 -59.5q24.5 -25.5 59.5 -40q35 -14.5 77 -14.5q43 0 78 14.5q35 14.5 59.5 40q24.5 25.5 38 59.5q13.5 34 13.5 73q0 40 -13.5 74.5q-13.5 34.5 -38 60q-24.5 25.5 -59.5 40q-35 14.5 -78 14.5q-42 0 -77 -14.5q-35 -14.5 -59.5 -40q-24.5 -25.5 -38 -60q-13.5 -34.5 -13.5 -74.5zt0 0zM199 682h110q45 0 76 -20.5q31 -20.5 31 -69.5q0 -28 -11.5 -47q-11.5 -19 -31.5 -29l57 -93h-83l-45 78h-24v-78h-79zM300 561q15 0 25 6q10 6 10 22q0 17 -9.5 22.5q-9.5 5.5 -26.5 5.5h-24l0 -56z" />
<glyph unicode="&#175;" horiz-adv-x="400" d="M20 767h360v-114l-360 0z" />
<glyph unicode="&#176;" horiz-adv-x="392" d="M37 554q0 34 12.5 63.5q12.5 29.5 34.5 51q22 21.5 51 33.5q29 12 62 12q33 0 62 -12q29 -12 50.5 -33.5q21.5 -21.5 34 -51q12.5 -29.5 12.5 -63.5q0 -33 -12.5 -61.5q-12.5 -28.5 -34 -49.5q-21.5 -21 -50.5 -33.5q-29 -12.5 -62 -12.5q-33 0 -62 12.5q-29 12.5 -51 33.5q-22 21 -34.5 49.5q-12.5 28.5 -12.5 61.5zt0 0zM140 553q0 -23 15.5 -39.5q15.5 -16.5 41.5 -16.5q28 0 43 16.5q15 16.5 15 39.5q0 29 -16.5 45q-16.5 16 -41.5 16q-26 0 -41.5 -17.5t-15.5 -43.5z" />
<glyph unicode="&#177;" horiz-adv-x="593" d="M50 177h493v-140h-493zM50 513h177v142h140v-142h176v-140h-176v-141h-140v141l-177 0z" />
<glyph unicode="&#178;" horiz-adv-x="450" d="M44 493l140 78q47 26 63.5 46q16.5 20 16.5 37q0 7 -2.5 15q-2.5 8 -10.5 15q-8 7 -23 11.5q-15 4.5 -39 4.5q-32 0 -67.5 -5.5q-35.5 -5.5 -66.5 -19.5l0 113q41 12 77.5 17.5q36.5 5.5 78.5 5.5q57 0 93.5 -12q36.5 -12 58 -31.5q21.5 -19.5 29.5 -43.5q8 -24 8 -47q0 -48 -35.5 -90q-35.5 -42 -121.5 -79l-39 -17v-1h198v-109l-358 0z" />
<glyph unicode="&#179;" horiz-adv-x="450" d="M114 639h73q34 0 54 7.5q20 7.5 20 24.5q0 16 -18 24q-18 8 -63 8q-36 0 -68.5 -3.5q-32.5 -3.5 -58.5 -13.5l0 106q40 11 83.5 15q43.5 4 80.5 4q57 0 93 -11q36 -11 56 -27.5q20 -16.5 27 -36q7 -19.5 7 -37.5q0 -38 -26.5 -61q-26.5 -23 -77.5 -39l0 -1q65 -11 89.5 -37q24.5 -26 24.5 -61q0 -23 -10 -45.5q-10 -22.5 -35 -40.5q-25 -18 -66 -29.5q-41 -11.5 -102 -11.5q-25 0 -66 3.5q-41 3.5 -85 15.5l0 109q44 -16 76.5 -18q32.5 -2 57.5 -2q53 0 72 9.5q19 9.5 19 25.5q0 17 -16 25q-16 8 -56 8l-85 0z" />
<glyph unicode="&#180;" horiz-adv-x="400" d="M160 795h230l-200 -170l-140 0z" />
<glyph unicode="&#181;" horiz-adv-x="706" d="M441 77q-29 -48 -73 -68q-44 -20 -113 -20h-14v-199h-181v760h199v-305q0 -51 19.5 -71.5q19.5 -20.5 70.5 -20.5q47 0 69.5 22q22.5 22 22.5 72v303h199v-550l-194 0z" />
<glyph unicode="&#182;" horiz-adv-x="594" d="M229 314q-44 0 -79 14q-35 14 -60 39q-25 25 -38 60q-13 35 -13 77q0 62 24.5 100.5q24.5 38.5 60 59.5q35.5 21 74.5 28.5q39 7.5 69 7.5h268v-910h-116v802h-73v-802l-117 0z" />
<glyph unicode="&#183;" horiz-adv-x="250" d="M20 367q0 48 27.5 75q27.5 27 77.5 27q49 0 77.5 -27.5q28.5 -27.5 28.5 -74.5q0 -48 -27 -76q-27 -28 -79 -28q-49 0 -77 28t-28 76z" />
<glyph unicode="&#184;" horiz-adv-x="400" d="M129 0h98l-14 -51q22 0 43.5 -5q21.5 -5 38 -16.5q16.5 -11.5 26.5 -29.5q10 -18 10 -45q0 -50 -40 -79.5q-40 -29.5 -106 -29.5q-29 0 -60.5 4.5q-31.5 4.5 -54.5 12.5l14 74q14 -5 29.5 -8.5q15.5 -3.5 30.5 -3.5q26 0 42 9q16 9 16 29q0 22 -19.5 28.5q-19.5 6.5 -43.5 6.5q-8 0 -15.5 0q-7.5 0 -15.5 -1z" />
<glyph unicode="&#185;" horiz-adv-x="450" d="M211 665l-103 -55l-52 90l177 100h110v-419l-132 0z" />
<glyph unicode="&#186;" horiz-adv-x="442" d="M15 526q0 94 56 141q56 47 150 47q97 0 151.5 -46q54.5 -46 54.5 -142q0 -94 -53 -141.5q-53 -47.5 -153 -47.5q-97 0 -151.5 45q-54.5 45 -54.5 144zt0 0zM153 526q0 -44 18.5 -64q18.5 -20 49.5 -20q34 0 51.5 19.5q17.5 19.5 17.5 64.5q0 45 -17.5 64.5q-17.5 19.5 -51.5 19.5q-33 0 -50.5 -19.5t-17.5 -64.5z" />
<glyph unicode="&#187;" horiz-adv-x="654" d="M490 57h-173l112 212l-112 213h173l124 -213zM213 57h-173l112 212l-112 213h173l124 -213z" />
<glyph unicode="&#188;" horiz-adv-x="950" d="M612 720h109l-434 -742h-108zM484 178l212 242h151v-238h60v-103h-60v-78h-131v78h-232zM718 320h-1l-123 -140h124zM173 565l-103 -55l-52 90l177 100h110v-419l-132 0z" />
<glyph unicode="&#189;" horiz-adv-x="950" d="M600 720h109l-434 -742h-108zM558 113l140 78q47 26 63.5 46q16.5 20 16.5 37q0 7 -2.5 15q-2.5 8 -10.5 15q-8 7 -23 11.5q-15 4.5 -39 4.5q-32 0 -67.5 -5.5q-35.5 -5.5 -66.5 -19.5l0 113q41 12 77.5 17.5q36.5 5.5 78.5 5.5q57 0 93.5 -12q36.5 -12 58 -31.5q21.5 -19.5 29.5 -43.5q8 -24 8 -47q0 -48 -35.5 -90q-35.5 -42 -121.5 -79l-39 -17v-1h198v-109h-358zM164 565l-103 -55l-52 90l177 100h110v-419l-132 0z" />
<glyph unicode="&#190;" horiz-adv-x="950" d="M637 720h109l-434 -742h-108zM506 178l212 242h151v-238h60v-103h-60v-78h-131v78h-232zM740 320h-1l-123 -140h124zM90 539h73q34 0 54 7.5q20 7.5 20 24.5q0 16 -18 24q-18 8 -63 8q-36 0 -68.5 -3.5q-32.5 -3.5 -58.5 -13.5l0 106q40 11 83.5 15q43.5 4 80.5 4q57 0 93 -11q36 -11 56 -27.5q20 -16.5 27 -36q7 -19.5 7 -37.5q0 -38 -26.5 -61q-26.5 -23 -77.5 -39l0 -1q65 -11 89.5 -37q24.5 -26 24.5 -61q0 -23 -10 -45.5q-10 -22.5 -35 -40.5q-25 -18 -66 -29.5q-41 -11.5 -102 -11.5q-25 0 -66 3.5q-41 3.5 -85 15.5l0 109q44 -16 76.5 -18q32.5 -2 57.5 -2q53 0 72 9.5q19 9.5 19 25.5q0 17 -16 25q-16 8 -56 8l-85 0z" />
<glyph unicode="&#191;" horiz-adv-x="565" d="M411 299q0 -43 -11 -73.5q-11 -30.5 -27 -51.5q-16 -21 -35.5 -36q-19.5 -15 -35.5 -28.5q-16 -13.5 -27 -28q-11 -14.5 -11 -34.5q0 -24 16 -33.5q16 -9.5 48 -9.5q54 0 104 19.5q50 19.5 83 44.5l0 -199q-36 -16 -91 -26.5q-55 -10.5 -131 -10.5q-127 0 -185 45q-58 45 -58 130q0 50 13.5 83.5q13.5 33.5 34 56q20.5 22.5 44.5 38.5q24 16 44.5 32q20.5 16 34 34.5q13.5 18.5 13.5 47.5zM436 458q0 -48 -28.5 -75q-28.5 -27 -84.5 -27q-51 0 -82.5 28q-31.5 28 -31.5 74q0 48 30 75q30 27 84 27q51 0 82 -28t31 -74z" />
<glyph unicode="&#192;" horiz-adv-x="722" d="M475 126h-233l-39 -126h-199l235 700h247l232 -700h-204zM292 290h132l-66 212zM310 935l118 -190h-142l-208 190z" />
<glyph unicode="&#193;" horiz-adv-x="722" d="M475 126h-233l-39 -126h-199l235 700h247l232 -700h-204zM292 290h132l-66 212zM398 935h232l-208 -190l-142 0z" />
<glyph unicode="&#194;" horiz-adv-x="722" d="M475 126h-233l-39 -126h-199l235 700h247l232 -700h-204zM292 290h132l-66 212zM266 930h192l133 -180h-143l-86 97l-87 -97l-144 0z" />
<glyph unicode="&#195;" horiz-adv-x="722" d="M475 126h-233l-39 -126h-199l235 700h247l232 -700h-204zM292 290h132l-66 212zM141 771q3 75 38 112.5q35 37.5 88 37.5q26 0 50 -8q24 -8 52 -19q16 -6 27 -10.5q11 -4.5 19 -6.5q8 -2 14 -3q6 -1 13 -1q20 0 31 14q11 14 14 34l94 -12q-3 -68 -36 -109q-33 -41 -90 -41q-29 0 -50.5 8q-21.5 8 -50.5 19q-25 10 -40.5 16.5q-15.5 6.5 -33.5 6.5q-15 0 -28 -14q-13 -14 -16 -36z" />
<glyph unicode="&#196;" horiz-adv-x="722" d="M475 126h-233l-39 -126h-199l235 700h247l232 -700h-204zM292 290h132l-66 212zM121 840q0 46 25.5 70q25.5 24 80.5 24q55 0 80.5 -24q25.5 -24 25.5 -70q0 -46 -25.5 -70q-25.5 -24 -80.5 -24q-55 0 -80.5 24q-25.5 24 -25.5 70zt0 0zM389 840q0 46 25.5 70q25.5 24 80.5 24q55 0 80.5 -24q25.5 -24 25.5 -70q0 -46 -25.5 -70q-25.5 -24 -80.5 -24q-55 0 -80.5 24t-25.5 70z" />
<glyph unicode="&#197;" horiz-adv-x="722" d="M475 126h-233l-39 -126h-199l235 700h247l232 -700h-204zM292 290h132l-66 212zM223 850q0 28 10.5 52q10.5 24 28.5 42q18 18 43.5 28q25.5 10 55.5 10q30 0 55 -10q25 -10 43.5 -28q18.5 -18 29 -42q10.5 -24 10.5 -52q0 -29 -10.5 -53q-10.5 -24 -29 -41.5q-18.5 -17.5 -43.5 -27.5q-25 -10 -55 -10q-30 0 -55.5 10q-25.5 10 -43.5 27.5q-18 17.5 -28.5 41.5q-10.5 24 -10.5 53zt0 0zM313 850q0 -19 12.5 -30.5q12.5 -11.5 35.5 -11.5q23 0 35.5 11.5q12.5 11.5 12.5 30.5q0 19 -12.5 30.5q-12.5 11.5 -35.5 11.5q-23 0 -35.5 -11.5t-12.5 -30.5z" />
<glyph unicode="&#198;" horiz-adv-x="1080" d="M531 126h-249l-74 -126h-205l425 700h602v-174h-297v-93h253v-159h-253v-100h297v-174h-499zM531 299v247l-146 -247z" />
<glyph unicode="&#199;" horiz-adv-x="655" d="M325 -11q-77 9 -131 35q-54 26 -88.5 70q-34.5 44 -50 105.5q-15.5 61.5 -15.5 141.5q0 94 20 164.5q20 70.5 64.5 117.5q44.5 47 115.5 70q71 23 172 23q72 0 120 -11.5q48 -11.5 72 -19.5l0 -202q-17 9 -34.5 17.5q-17.5 8.5 -39 16q-21.5 7.5 -48.5 12q-27 4.5 -63 4.5q-43 0 -74 -9.5q-31 -9.5 -51 -31q-20 -21.5 -29.5 -56.5q-9.5 -35 -9.5 -86q0 -52 9.5 -87q9.5 -35 30.5 -56.5q21 -21.5 53.5 -30.5q32.5 -9 78.5 -9q63 0 106.5 15.5q43.5 15.5 71.5 36.5l0 -199q-26 -12 -71 -23q-45 -11 -110 -13l-8 -36q22 0 44 -5.5q22 -5.5 39 -17.5q17 -12 28 -31q11 -19 11 -46q0 -27 -12 -48q-12 -21 -33 -36q-21 -15 -50 -22.5q-29 -7.5 -63 -7.5q-70 0 -114 17l13 77q14 -6 30.5 -9q16.5 -3 32.5 -3q27 0 45 8q18 8 18 28q0 11 -5.5 18q-5.5 7 -15 10.5q-9.5 3.5 -21.5 4.5q-12 1 -25 1q-8 0 -16 0q-8 0 -16 -1z" />
<glyph unicode="&#200;" horiz-adv-x="650" d="M80 700h520v-174h-318v-93h274v-159h-274v-100h318v-174h-520zM284 935l118 -190h-142l-208 190z" />
<glyph unicode="&#201;" horiz-adv-x="650" d="M80 700h520v-174h-318v-93h274v-159h-274v-100h318v-174h-520zM377 935h232l-208 -190l-142 0z" />
<glyph unicode="&#202;" horiz-adv-x="650" d="M80 700h520v-174h-318v-93h274v-159h-274v-100h318v-174h-520zM245 930h192l133 -180h-143l-86 97l-87 -97l-144 0z" />
<glyph unicode="&#203;" horiz-adv-x="650" d="M80 700h520v-174h-318v-93h274v-159h-274v-100h318v-174h-520zM100 840q0 46 25.5 70q25.5 24 80.5 24q55 0 80.5 -24q25.5 -24 25.5 -70q0 -46 -25.5 -70q-25.5 -24 -80.5 -24q-55 0 -80.5 24q-25.5 24 -25.5 70zt0 0zM368 840q0 46 25.5 70q25.5 24 80.5 24q55 0 80.5 -24q25.5 -24 25.5 -70q0 -46 -25.5 -70q-25.5 -24 -80.5 -24q-55 0 -80.5 24t-25.5 70z" />
<glyph unicode="&#204;" horiz-adv-x="362" d="M80 700h202v-700h-202zM130 935l118 -190h-142l-208 190z" />
<glyph unicode="&#205;" horiz-adv-x="362" d="M80 700h202v-700h-202zM227 935h232l-208 -190l-142 0z" />
<glyph unicode="&#206;" horiz-adv-x="362" d="M80 700h202v-700h-202zM86 930h192l133 -180h-143l-86 97l-87 -97l-144 0z" />
<glyph unicode="&#207;" horiz-adv-x="362" d="M80 700h202v-700h-202zM-59 840q0 46 25.5 70q25.5 24 80.5 24q55 0 80.5 -24q25.5 -24 25.5 -70q0 -46 -25.5 -70q-25.5 -24 -80.5 -24q-55 0 -80.5 24q-25.5 24 -25.5 70zt0 0zM209 840q0 46 25.5 70q25.5 24 80.5 24q55 0 80.5 -24q25.5 -24 25.5 -70q0 -46 -25.5 -70q-25.5 -24 -80.5 -24q-55 0 -80.5 24t-25.5 70z" />
<glyph unicode="&#208;" horiz-adv-x="758" d="M16 431h64v269q40 2 72.5 3q32.5 1 62.5 1.5q30 0.5 60 0.5q30 0 65 0q110 0 183 -23.5q73 -23.5 116.5 -67.5q43.5 -44 61 -107.5q17.5 -63.5 17.5 -143.5q0 -90 -22 -159q-22 -69 -69.5 -115.5q-47.5 -46.5 -122 -70q-74.5 -23.5 -179.5 -23.5q-32 0 -60 0q-28 0 -56.5 0.5q-28.5 0.5 -59.5 1.5q-31 1 -69 3l0 280h-64zM282 170q17 -2 29 -2q12 0 29 0q91 0 131 45.5q40 45.5 40 142.5q0 91 -38.5 133.5q-38.5 42.5 -125.5 42.5q-19 0 -32.5 0q-13.5 0 -32.5 -2l0 -99h143v-151l-143 0z" />
<glyph unicode="&#209;" horiz-adv-x="805" d="M80 700h220l185 -318q14 -23 25.5 -50.5q11.5 -27.5 23.5 -51.5q-2 26 -3 54q-1 28 -1 54v312h195v-700h-210l-198 337q-13 22 -24 47.5q-11 25.5 -22 47.5q2 -23 3 -49q1 -26 1 -49v-334h-195zM182 771q3 75 38 112.5q35 37.5 88 37.5q26 0 50 -8q24 -8 52 -19q16 -6 27 -10.5q11 -4.5 19 -6.5q8 -2 14 -3q6 -1 13 -1q20 0 31 14q11 14 14 34l94 -12q-3 -68 -36 -109q-33 -41 -90 -41q-29 0 -50.5 8q-21.5 8 -50.5 19q-25 10 -40.5 16.5q-15.5 6.5 -33.5 6.5q-15 0 -28 -14q-13 -14 -16 -36z" />
<glyph unicode="&#210;" horiz-adv-x="795" d="M40 350q0 97 21.5 166q21.5 69 65.5 113.5q44 44.5 110.5 65.5q66.5 21 157.5 21q101 0 170 -21q69 -21 111 -65.5q42 -44.5 60.5 -114q18.5 -69.5 18.5 -165.5q0 -99 -22 -169q-22 -70 -66.5 -113.5q-44.5 -43.5 -111 -63.5q-66.5 -20 -155.5 -20q-185 0 -272.5 89q-87.5 89 -87.5 277zt0 0zM255 350q0 -59 9.5 -96.5q9.5 -37.5 28.5 -59q19 -21.5 46.5 -29.5q27.5 -8 62.5 -8q35 0 61 8.5q26 8.5 43.5 30.5q17.5 22 26 59.5q8.5 37.5 8.5 94.5q0 57 -8.5 94q-8.5 37 -26.5 59q-18 22 -45.5 31q-27.5 9 -65.5 9q-36 0 -62 -9q-26 -9 -43.5 -31q-17.5 -22 -26 -59.5q-8.5 -37.5 -8.5 -93.5zt0 0zM347 935l118 -190h-142l-208 190z" />
<glyph unicode="&#211;" horiz-adv-x="795" d="M40 350q0 97 21.5 166q21.5 69 65.5 113.5q44 44.5 110.5 65.5q66.5 21 157.5 21q101 0 170 -21q69 -21 111 -65.5q42 -44.5 60.5 -114q18.5 -69.5 18.5 -165.5q0 -99 -22 -169q-22 -70 -66.5 -113.5q-44.5 -43.5 -111 -63.5q-66.5 -20 -155.5 -20q-185 0 -272.5 89q-87.5 89 -87.5 277zt0 0zM255 350q0 -59 9.5 -96.5q9.5 -37.5 28.5 -59q19 -21.5 46.5 -29.5q27.5 -8 62.5 -8q35 0 61 8.5q26 8.5 43.5 30.5q17.5 22 26 59.5q8.5 37.5 8.5 94.5q0 57 -8.5 94q-8.5 37 -26.5 59q-18 22 -45.5 31q-27.5 9 -65.5 9q-36 0 -62 -9q-26 -9 -43.5 -31q-17.5 -22 -26 -59.5q-8.5 -37.5 -8.5 -93.5zt0 0zM434 935h232l-208 -190l-142 0z" />
<glyph unicode="&#212;" horiz-adv-x="795" d="M40 350q0 97 21.5 166q21.5 69 65.5 113.5q44 44.5 110.5 65.5q66.5 21 157.5 21q101 0 170 -21q69 -21 111 -65.5q42 -44.5 60.5 -114q18.5 -69.5 18.5 -165.5q0 -99 -22 -169q-22 -70 -66.5 -113.5q-44.5 -43.5 -111 -63.5q-66.5 -20 -155.5 -20q-185 0 -272.5 89q-87.5 89 -87.5 277zt0 0zM255 350q0 -59 9.5 -96.5q9.5 -37.5 28.5 -59q19 -21.5 46.5 -29.5q27.5 -8 62.5 -8q35 0 61 8.5q26 8.5 43.5 30.5q17.5 22 26 59.5q8.5 37.5 8.5 94.5q0 57 -8.5 94q-8.5 37 -26.5 59q-18 22 -45.5 31q-27.5 9 -65.5 9q-36 0 -62 -9q-26 -9 -43.5 -31q-17.5 -22 -26 -59.5q-8.5 -37.5 -8.5 -93.5zt0 0zM303 930h192l133 -180h-143l-86 97l-87 -97l-144 0z" />
<glyph unicode="&#213;" horiz-adv-x="795" d="M40 350q0 97 21.5 166q21.5 69 65.5 113.5q44 44.5 110.5 65.5q66.5 21 157.5 21q101 0 170 -21q69 -21 111 -65.5q42 -44.5 60.5 -114q18.5 -69.5 18.5 -165.5q0 -99 -22 -169q-22 -70 -66.5 -113.5q-44.5 -43.5 -111 -63.5q-66.5 -20 -155.5 -20q-185 0 -272.5 89q-87.5 89 -87.5 277zt0 0zM255 350q0 -59 9.5 -96.5q9.5 -37.5 28.5 -59q19 -21.5 46.5 -29.5q27.5 -8 62.5 -8q35 0 61 8.5q26 8.5 43.5 30.5q17.5 22 26 59.5q8.5 37.5 8.5 94.5q0 57 -8.5 94q-8.5 37 -26.5 59q-18 22 -45.5 31q-27.5 9 -65.5 9q-36 0 -62 -9q-26 -9 -43.5 -31q-17.5 -22 -26 -59.5q-8.5 -37.5 -8.5 -93.5zt0 0zM178 771q3 75 38 112.5q35 37.5 88 37.5q26 0 50 -8q24 -8 52 -19q16 -6 27 -10.5q11 -4.5 19 -6.5q8 -2 14 -3q6 -1 13 -1q20 0 31 14q11 14 14 34l94 -12q-3 -68 -36 -109q-33 -41 -90 -41q-29 0 -50.5 8q-21.5 8 -50.5 19q-25 10 -40.5 16.5q-15.5 6.5 -33.5 6.5q-15 0 -28 -14q-13 -14 -16 -36z" />
<glyph unicode="&#214;" horiz-adv-x="795" d="M40 350q0 97 21.5 166q21.5 69 65.5 113.5q44 44.5 110.5 65.5q66.5 21 157.5 21q101 0 170 -21q69 -21 111 -65.5q42 -44.5 60.5 -114q18.5 -69.5 18.5 -165.5q0 -99 -22 -169q-22 -70 -66.5 -113.5q-44.5 -43.5 -111 -63.5q-66.5 -20 -155.5 -20q-185 0 -272.5 89q-87.5 89 -87.5 277zt0 0zM255 350q0 -59 9.5 -96.5q9.5 -37.5 28.5 -59q19 -21.5 46.5 -29.5q27.5 -8 62.5 -8q35 0 61 8.5q26 8.5 43.5 30.5q17.5 22 26 59.5q8.5 37.5 8.5 94.5q0 57 -8.5 94q-8.5 37 -26.5 59q-18 22 -45.5 31q-27.5 9 -65.5 9q-36 0 -62 -9q-26 -9 -43.5 -31q-17.5 -22 -26 -59.5q-8.5 -37.5 -8.5 -93.5zt0 0zM157 840q0 46 25.5 70q25.5 24 80.5 24q55 0 80.5 -24q25.5 -24 25.5 -70q0 -46 -25.5 -70q-25.5 -24 -80.5 -24q-55 0 -80.5 24q-25.5 24 -25.5 70zt0 0zM425 840q0 46 25.5 70q25.5 24 80.5 24q55 0 80.5 -24q25.5 -24 25.5 -70q0 -46 -25.5 -70q-25.5 -24 -80.5 -24q-55 0 -80.5 24t-25.5 70z" />
<glyph unicode="&#215;" horiz-adv-x="568" d="M186 325l-133 134l98 98l133 -133l134 133l98 -98l-133 -134l133 -133l-98 -98l-134 133l-133 -133l-98 98z" />
<glyph unicode="&#216;" horiz-adv-x="795" d="M40 350q0 97 21.5 166q21.5 69 65.5 113.5q44 44.5 110.5 65.5q66.5 21 157.5 21q113 0 187 -27l53 69l79 -62l-45 -60q46 -45 66 -115.5q20 -70.5 20 -170.5q0 -99 -22 -169q-22 -70 -66.5 -113.5q-44.5 -43.5 -111 -63.5q-66.5 -20 -155.5 -20q-119 0 -198 36l-59 -78l-80 60l58 77q-81 88 -81 271zt0 0zM541 350q0 61 -11 103l-211 -279q17 -10 37.5 -13.5q20.5 -3.5 45.5 -3.5q35 0 61 8.5q26 8.5 43.5 30.5q17.5 22 26 59.5q8.5 37.5 8.5 94.5zt0 0zM255 350q0 -26 2 -46.5q2 -20.5 5 -38.5l202 267q-26 11 -69 11q-36 0 -62 -9q-26 -9 -43.5 -31q-17.5 -22 -26 -59.5t-8.5 -93.5z" />
<glyph unicode="&#217;" horiz-adv-x="757" d="M75 700h203v-393q0 -44 4 -72.5q4 -28.5 15.5 -45q11.5 -16.5 31 -23.5q19.5 -7 50.5 -7q33 0 52.5 7q19.5 7 30.5 24q11 17 14.5 45.5q3.5 28.5 3.5 71.5v393h202v-411q0 -87 -19 -145q-19 -58 -57 -93.5q-38 -35.5 -95 -50q-57 -14.5 -132 -14.5q-74 0 -130.5 13.5q-56.5 13.5 -95 48q-38.5 34.5 -58.5 93.5q-20 59 -20 150zM328 935l118 -190h-142l-208 190z" />
<glyph unicode="&#218;" horiz-adv-x="757" d="M75 700h203v-393q0 -44 4 -72.5q4 -28.5 15.5 -45q11.5 -16.5 31 -23.5q19.5 -7 50.5 -7q33 0 52.5 7q19.5 7 30.5 24q11 17 14.5 45.5q3.5 28.5 3.5 71.5v393h202v-411q0 -87 -19 -145q-19 -58 -57 -93.5q-38 -35.5 -95 -50q-57 -14.5 -132 -14.5q-74 0 -130.5 13.5q-56.5 13.5 -95 48q-38.5 34.5 -58.5 93.5q-20 59 -20 150zM415 935h232l-208 -190l-142 0z" />
<glyph unicode="&#219;" horiz-adv-x="757" d="M75 700h203v-393q0 -44 4 -72.5q4 -28.5 15.5 -45q11.5 -16.5 31 -23.5q19.5 -7 50.5 -7q33 0 52.5 7q19.5 7 30.5 24q11 17 14.5 45.5q3.5 28.5 3.5 71.5v393h202v-411q0 -87 -19 -145q-19 -58 -57 -93.5q-38 -35.5 -95 -50q-57 -14.5 -132 -14.5q-74 0 -130.5 13.5q-56.5 13.5 -95 48q-38.5 34.5 -58.5 93.5q-20 59 -20 150zM284 930h192l133 -180h-143l-86 97l-87 -97l-144 0z" />
<glyph unicode="&#220;" horiz-adv-x="757" d="M75 700h203v-393q0 -44 4 -72.5q4 -28.5 15.5 -45q11.5 -16.5 31 -23.5q19.5 -7 50.5 -7q33 0 52.5 7q19.5 7 30.5 24q11 17 14.5 45.5q3.5 28.5 3.5 71.5v393h202v-411q0 -87 -19 -145q-19 -58 -57 -93.5q-38 -35.5 -95 -50q-57 -14.5 -132 -14.5q-74 0 -130.5 13.5q-56.5 13.5 -95 48q-38.5 34.5 -58.5 93.5q-20 59 -20 150zM138 840q0 46 25.5 70q25.5 24 80.5 24q55 0 80.5 -24q25.5 -24 25.5 -70q0 -46 -25.5 -70q-25.5 -24 -80.5 -24q-55 0 -80.5 24q-25.5 24 -25.5 70zt0 0zM406 840q0 46 25.5 70q25.5 24 80.5 24q55 0 80.5 -24q25.5 -24 25.5 -70q0 -46 -25.5 -70q-25.5 -24 -80.5 -24q-55 0 -80.5 24t-25.5 70z" />
<glyph unicode="&#221;" horiz-adv-x="689" d="M244 244l-239 456h232l109 -226l106 226h232l-238 -456v-244h-202zM381 935h232l-208 -190l-142 0z" />
<glyph unicode="&#222;" horiz-adv-x="647" d="M49 711h202v-93h79q143 0 219 -58q76 -58 76 -184q0 -126 -75 -193.5q-75 -67.5 -236 -67.5h-63v-126h-202zM314 289q52 0 78 18q26 18 26 60q0 45 -26.5 61q-26.5 16 -80.5 16h-65l0 -155z" />
<glyph unicode="&#223;" horiz-adv-x="704" d="M47 536q0 134 74.5 208.5q74.5 74.5 236.5 74.5q77 0 131.5 -18q54.5 -18 89 -48q34.5 -30 50.5 -68.5q16 -38.5 16 -80.5q0 -41 -12 -71.5q-12 -30.5 -31 -52.5q-19 -22 -42.5 -36q-23.5 -14 -47.5 -21l0 -4q30 -5 59.5 -17.5q29.5 -12.5 53 -35.5q23.5 -23 38.5 -58.5q15 -35.5 15 -87.5q0 -44 -15.5 -85.5q-15.5 -41.5 -47.5 -73.5q-32 -32 -82.5 -52q-50.5 -20 -119.5 -20q-30 0 -54 2.5q-24 2.5 -48 9.5l0 144q14 -4 29.5 -6.5q15.5 -2.5 33.5 -2.5q46 0 72 24.5q26 24.5 26 78.5q0 31 -9 50.5q-9 19.5 -24 30.5q-15 11 -35 15q-20 4 -42 4h-42v143h34q42 0 63.5 24.5q21.5 24.5 21.5 70.5q0 25 -8 42q-8 17 -21 27q-13 10 -29.5 14q-16.5 4 -33.5 4q-30 0 -49.5 -10q-19.5 -10 -31 -28q-11.5 -18 -16 -42q-4.5 -24 -4.5 -52v-532l-199 0z" />
<glyph unicode="&#224;" horiz-adv-x="648" d="M404 79q-7 -14 -22 -29.5q-15 -15.5 -38.5 -29q-23.5 -13.5 -56.5 -22.5q-33 -9 -76 -9q-52 0 -87.5 13.5q-35.5 13.5 -57 37q-21.5 23.5 -31 55q-9.5 31.5 -9.5 66.5q0 89 63 126.5q63 37.5 194 35.5l106 -1v18q0 16 -5 28q-5 12 -17 20.5q-12 8.5 -33 13q-21 4.5 -53 4.5q-30 0 -59 -5.5q-29 -5.5 -55.5 -14.5q-26.5 -9 -48.5 -20.5q-22 -11.5 -37 -23.5l0 183q35 15 96.5 27.5q61.5 12.5 141.5 12.5q78 0 130 -11.5q52 -11.5 83.5 -37q31.5 -25.5 44.5 -67q13 -41.5 13 -100.5v-349h-179zM228 180q0 -20 13 -33.5q13 -13.5 52 -13.5q52 0 74 19.5q22 19.5 22 51.5v21h-74q-48 0 -67.5 -9.5q-19.5 -9.5 -19.5 -35.5zt0 0zM271 625l-200 170h230l110 -170z" />
<glyph unicode="&#225;" horiz-adv-x="648" d="M404 79q-7 -14 -22 -29.5q-15 -15.5 -38.5 -29q-23.5 -13.5 -56.5 -22.5q-33 -9 -76 -9q-52 0 -87.5 13.5q-35.5 13.5 -57 37q-21.5 23.5 -31 55q-9.5 31.5 -9.5 66.5q0 89 63 126.5q63 37.5 194 35.5l106 -1v18q0 16 -5 28q-5 12 -17 20.5q-12 8.5 -33 13q-21 4.5 -53 4.5q-30 0 -59 -5.5q-29 -5.5 -55.5 -14.5q-26.5 -9 -48.5 -20.5q-22 -11.5 -37 -23.5l0 183q35 15 96.5 27.5q61.5 12.5 141.5 12.5q78 0 130 -11.5q52 -11.5 83.5 -37q31.5 -25.5 44.5 -67q13 -41.5 13 -100.5v-349h-179zM228 180q0 -20 13 -33.5q13 -13.5 52 -13.5q52 0 74 19.5q22 19.5 22 51.5v21h-74q-48 0 -67.5 -9.5q-19.5 -9.5 -19.5 -35.5zt0 0zM354 795h230l-200 -170l-140 0z" />
<glyph unicode="&#226;" horiz-adv-x="648" d="M404 79q-7 -14 -22 -29.5q-15 -15.5 -38.5 -29q-23.5 -13.5 -56.5 -22.5q-33 -9 -76 -9q-52 0 -87.5 13.5q-35.5 13.5 -57 37q-21.5 23.5 -31 55q-9.5 31.5 -9.5 66.5q0 89 63 126.5q63 37.5 194 35.5l106 -1v18q0 16 -5 28q-5 12 -17 20.5q-12 8.5 -33 13q-21 4.5 -53 4.5q-30 0 -59 -5.5q-29 -5.5 -55.5 -14.5q-26.5 -9 -48.5 -20.5q-22 -11.5 -37 -23.5l0 183q35 15 96.5 27.5q61.5 12.5 141.5 12.5q78 0 130 -11.5q52 -11.5 83.5 -37q31.5 -25.5 44.5 -67q13 -41.5 13 -100.5v-349h-179zM228 180q0 -20 13 -33.5q13 -13.5 52 -13.5q52 0 74 19.5q22 19.5 22 51.5v21h-74q-48 0 -67.5 -9.5q-19.5 -9.5 -19.5 -35.5zt0 0zM230 795h188l126 -170h-142l-77 85l-78 -85l-143 0z" />
<glyph unicode="&#227;" horiz-adv-x="648" d="M404 79q-7 -14 -22 -29.5q-15 -15.5 -38.5 -29q-23.5 -13.5 -56.5 -22.5q-33 -9 -76 -9q-52 0 -87.5 13.5q-35.5 13.5 -57 37q-21.5 23.5 -31 55q-9.5 31.5 -9.5 66.5q0 89 63 126.5q63 37.5 194 35.5l106 -1v18q0 16 -5 28q-5 12 -17 20.5q-12 8.5 -33 13q-21 4.5 -53 4.5q-30 0 -59 -5.5q-29 -5.5 -55.5 -14.5q-26.5 -9 -48.5 -20.5q-22 -11.5 -37 -23.5l0 183q35 15 96.5 27.5q61.5 12.5 141.5 12.5q78 0 130 -11.5q52 -11.5 83.5 -37q31.5 -25.5 44.5 -67q13 -41.5 13 -100.5v-349h-179zM228 180q0 -20 13 -33.5q13 -13.5 52 -13.5q52 0 74 19.5q22 19.5 22 51.5v21h-74q-48 0 -67.5 -9.5q-19.5 -9.5 -19.5 -35.5zt0 0zM114 640q3 77 35.5 114.5q32.5 37.5 83.5 37.5q22 0 46.5 -8q24.5 -8 50.5 -19q31 -13 45 -18.5q14 -5.5 28 -5.5q19 0 29.5 15q10.5 15 12.5 36l89 -12q-3 -70 -33.5 -111q-30.5 -41 -84.5 -41q-27 0 -51 8q-24 8 -50 19q-24 10 -38 17q-14 7 -32 7q-15 0 -27 -14q-12 -14 -14 -36z" />
<glyph unicode="&#228;" horiz-adv-x="648" d="M404 79q-7 -14 -22 -29.5q-15 -15.5 -38.5 -29q-23.5 -13.5 -56.5 -22.5q-33 -9 -76 -9q-52 0 -87.5 13.5q-35.5 13.5 -57 37q-21.5 23.5 -31 55q-9.5 31.5 -9.5 66.5q0 89 63 126.5q63 37.5 194 35.5l106 -1v18q0 16 -5 28q-5 12 -17 20.5q-12 8.5 -33 13q-21 4.5 -53 4.5q-30 0 -59 -5.5q-29 -5.5 -55.5 -14.5q-26.5 -9 -48.5 -20.5q-22 -11.5 -37 -23.5l0 183q35 15 96.5 27.5q61.5 12.5 141.5 12.5q78 0 130 -11.5q52 -11.5 83.5 -37q31.5 -25.5 44.5 -67q13 -41.5 13 -100.5v-349h-179zM228 180q0 -20 13 -33.5q13 -13.5 52 -13.5q52 0 74 19.5q22 19.5 22 51.5v21h-74q-48 0 -67.5 -9.5q-19.5 -9.5 -19.5 -35.5zt0 0zM89 710q0 46 25.5 70q25.5 24 80.5 24q55 0 80.5 -24q25.5 -24 25.5 -70q0 -46 -25.5 -70q-25.5 -24 -80.5 -24q-55 0 -80.5 24q-25.5 24 -25.5 70zt0 0zM347 710q0 46 25.5 70q25.5 24 80.5 24q55 0 80.5 -24q25.5 -24 25.5 -70q0 -46 -25.5 -70q-25.5 -24 -80.5 -24q-55 0 -80.5 24t-25.5 70z" />
<glyph unicode="&#229;" horiz-adv-x="648" d="M404 79q-7 -14 -22 -29.5q-15 -15.5 -38.5 -29q-23.5 -13.5 -56.5 -22.5q-33 -9 -76 -9q-52 0 -87.5 13.5q-35.5 13.5 -57 37q-21.5 23.5 -31 55q-9.5 31.5 -9.5 66.5q0 89 63 126.5q63 37.5 194 35.5l106 -1v18q0 16 -5 28q-5 12 -17 20.5q-12 8.5 -33 13q-21 4.5 -53 4.5q-30 0 -59 -5.5q-29 -5.5 -55.5 -14.5q-26.5 -9 -48.5 -20.5q-22 -11.5 -37 -23.5l0 183q35 15 96.5 27.5q61.5 12.5 141.5 12.5q78 0 130 -11.5q52 -11.5 83.5 -37q31.5 -25.5 44.5 -67q13 -41.5 13 -100.5v-349h-179zM228 180q0 -20 13 -33.5q13 -13.5 52 -13.5q52 0 74 19.5q22 19.5 22 51.5v21h-74q-48 0 -67.5 -9.5q-19.5 -9.5 -19.5 -35.5zt0 0zM188 720q0 57 36.5 93.5q36.5 36.5 99.5 36.5q63 0 99.5 -36.5q36.5 -36.5 36.5 -93.5q0 -58 -36.5 -94q-36.5 -36 -99.5 -36q-63 0 -99.5 36q-36.5 36 -36.5 94zt0 0zM276 720q0 -42 48 -42q48 0 48 42q0 42 -48 42q-48 0 -48 -42z" />
<glyph unicode="&#230;" horiz-adv-x="1022" d="M592 228q4 -49 37.5 -70q33.5 -21 105.5 -21q31 0 63 4.5q32 4.5 61 13q29 8.5 53 19.5q24 11 39 24l0 -162q-11 -9 -33 -18q-22 -9 -54.5 -16q-32.5 -7 -73 -11.5q-40.5 -4.5 -88.5 -4.5q-79 0 -134.5 15.5q-55.5 15.5 -92.5 45.5q-27 -24 -76.5 -41q-49.5 -17 -137.5 -17q-66 0 -111 13.5q-45 13.5 -72.5 37q-27.5 23.5 -39.5 55q-12 31.5 -12 66.5q0 90 63 128q63 38 194 36l106 -1v16q0 16 -5 28q-5 12 -17 20.5q-12 8.5 -33 13q-21 4.5 -53 4.5q-30 0 -59 -5.5q-29 -5.5 -55.5 -14.5q-26.5 -9 -48.5 -20.5q-22 -11.5 -37 -23.5l0 183q35 15 96.5 27.5q61.5 12.5 141.5 12.5q69 0 117 -8.5q48 -8.5 80 -28.5q73 37 182 37q82 0 137 -18.5q55 -18.5 89 -52.5q34 -34 48.5 -82.5q14.5 -48.5 14.5 -108.5v-75zM694 422q-52 0 -75.5 -24q-23.5 -24 -27.5 -72l198 0q1 43 -19 69.5q-20 26.5 -76 26.5zt0 0zM228 180q0 -20 13 -33.5q13 -13.5 52 -13.5q52 0 74 19.5q22 19.5 22 51.5v23h-74q-48 0 -67.5 -9.5t-19.5 -37.5z" />
<glyph unicode="&#231;" horiz-adv-x="609" d="M301 -12q-72 6 -121.5 26q-49.5 20 -80.5 56q-31 36 -45 88q-14 52 -14 122q0 71 18 124.5q18 53.5 56.5 89q38.5 35.5 98.5 53.5q60 18 143 18q80 0 125.5 -12q45.5 -12 71.5 -23l0 -178q-30 21 -67.5 35.5q-37.5 14.5 -96.5 14.5q-77 0 -110 -27.5q-33 -27.5 -33 -93.5q0 -32 7 -57q7 -25 25 -41.5q18 -16.5 48 -25q30 -8.5 76 -8.5q48 0 91 13q43 13 66 30l0 -167q-22 -10 -61 -22q-39 -12 -100 -16l-10 -38q22 0 43.5 -5q21.5 -5 38 -16.5q16.5 -11.5 26.5 -29.5q10 -18 10 -45q0 -50 -40 -79.5q-40 -29.5 -106 -29.5q-29 0 -60.5 4.5q-31.5 4.5 -54.5 12.5l14 74q14 -5 29.5 -8.5q15.5 -3.5 30.5 -3.5q26 0 42 9q16 9 16 29q0 22 -19.5 28.5q-19.5 6.5 -43.5 6.5q-8 0 -15.5 0q-7.5 0 -15.5 -1z" />
<glyph unicode="&#232;" horiz-adv-x="671" d="M241 232q4 -51 37.5 -73q33.5 -22 105.5 -22q31 0 63 4.5q32 4.5 61 13q29 8.5 53 19.5q24 11 39 24l0 -162q-11 -9 -33 -18q-22 -9 -54.5 -16q-32.5 -7 -73 -11.5q-40.5 -4.5 -88.5 -4.5q-88 0 -147.5 19q-59.5 19 -96 57q-36.5 38 -52 93.5q-15.5 55.5 -15.5 129.5q0 145 80.5 212.5q80.5 67.5 226.5 67.5q82 0 137 -18.5q55 -18.5 89 -52.5q34 -34 48.5 -82.5q14.5 -48.5 14.5 -108.5v-71zM343 422q-52 0 -75.5 -22.5q-23.5 -22.5 -27.5 -66.5l198 0q1 40 -19 64.5q-20 24.5 -76 24.5zt0 0zM293 625l-200 170h230l110 -170z" />
<glyph unicode="&#233;" horiz-adv-x="671" d="M241 232q4 -51 37.5 -73q33.5 -22 105.5 -22q31 0 63 4.5q32 4.5 61 13q29 8.5 53 19.5q24 11 39 24l0 -162q-11 -9 -33 -18q-22 -9 -54.5 -16q-32.5 -7 -73 -11.5q-40.5 -4.5 -88.5 -4.5q-88 0 -147.5 19q-59.5 19 -96 57q-36.5 38 -52 93.5q-15.5 55.5 -15.5 129.5q0 145 80.5 212.5q80.5 67.5 226.5 67.5q82 0 137 -18.5q55 -18.5 89 -52.5q34 -34 48.5 -82.5q14.5 -48.5 14.5 -108.5v-71zM343 422q-52 0 -75.5 -22.5q-23.5 -22.5 -27.5 -66.5l198 0q1 40 -19 64.5q-20 24.5 -76 24.5zt0 0zM378 795h230l-200 -170l-140 0z" />
<glyph unicode="&#234;" horiz-adv-x="671" d="M241 232q4 -51 37.5 -73q33.5 -22 105.5 -22q31 0 63 4.5q32 4.5 61 13q29 8.5 53 19.5q24 11 39 24l0 -162q-11 -9 -33 -18q-22 -9 -54.5 -16q-32.5 -7 -73 -11.5q-40.5 -4.5 -88.5 -4.5q-88 0 -147.5 19q-59.5 19 -96 57q-36.5 38 -52 93.5q-15.5 55.5 -15.5 129.5q0 145 80.5 212.5q80.5 67.5 226.5 67.5q82 0 137 -18.5q55 -18.5 89 -52.5q34 -34 48.5 -82.5q14.5 -48.5 14.5 -108.5v-71zM343 422q-52 0 -75.5 -22.5q-23.5 -22.5 -27.5 -66.5l198 0q1 40 -19 64.5q-20 24.5 -76 24.5zt0 0zM252 795h188l126 -170h-142l-77 85l-78 -85l-143 0z" />
<glyph unicode="&#235;" horiz-adv-x="671" d="M241 232q4 -51 37.5 -73q33.5 -22 105.5 -22q31 0 63 4.5q32 4.5 61 13q29 8.5 53 19.5q24 11 39 24l0 -162q-11 -9 -33 -18q-22 -9 -54.5 -16q-32.5 -7 -73 -11.5q-40.5 -4.5 -88.5 -4.5q-88 0 -147.5 19q-59.5 19 -96 57q-36.5 38 -52 93.5q-15.5 55.5 -15.5 129.5q0 145 80.5 212.5q80.5 67.5 226.5 67.5q82 0 137 -18.5q55 -18.5 89 -52.5q34 -34 48.5 -82.5q14.5 -48.5 14.5 -108.5v-71zM343 422q-52 0 -75.5 -22.5q-23.5 -22.5 -27.5 -66.5l198 0q1 40 -19 64.5q-20 24.5 -76 24.5zt0 0zM113 710q0 46 25.5 70q25.5 24 80.5 24q55 0 80.5 -24q25.5 -24 25.5 -70q0 -46 -25.5 -70q-25.5 -24 -80.5 -24q-55 0 -80.5 24q-25.5 24 -25.5 70zt0 0zM371 710q0 46 25.5 70q25.5 24 80.5 24q55 0 80.5 -24q25.5 -24 25.5 -70q0 -46 -25.5 -70q-25.5 -24 -80.5 -24q-55 0 -80.5 24t-25.5 70z" />
<glyph unicode="&#236;" horiz-adv-x="331" d="M65 550h200v-550h-200zM113 625l-200 170h230l110 -170z" />
<glyph unicode="&#237;" horiz-adv-x="331" d="M65 550h200v-550h-200zM205 795h230l-200 -170l-140 0z" />
<glyph unicode="&#238;" horiz-adv-x="331" d="M65 550h200v-550h-200zM71 795h188l126 -170h-142l-77 85l-78 -85l-143 0z" />
<glyph unicode="&#239;" horiz-adv-x="331" d="M65 550h200v-550h-200zM-70 710q0 46 25.5 70q25.5 24 80.5 24q55 0 80.5 -24q25.5 -24 25.5 -70q0 -46 -25.5 -70q-25.5 -24 -80.5 -24q-55 0 -80.5 24q-25.5 24 -25.5 70zt0 0zM188 710q0 46 25.5 70q25.5 24 80.5 24q55 0 80.5 -24q25.5 -24 25.5 -70q0 -46 -25.5 -70q-25.5 -24 -80.5 -24q-55 0 -80.5 24t-25.5 70z" />
<glyph unicode="&#240;" horiz-adv-x="690" d="M150 627l79 39q-38 14 -73 22.5q-35 8.5 -59 11.5l68 119q52 -9 109.5 -27.5q57.5 -18.5 113.5 -46.5l146 71l37 -71l-102 -51q104 -87 149 -188q45 -101 45 -213q0 -67 -16 -116q-16 -49 -42.5 -83q-26.5 -34 -60.5 -55q-34 -21 -71 -33q-37 -12 -74 -16q-37 -4 -69 -4q-86 0 -144 21.5q-58 21.5 -93.5 59q-35.5 37.5 -51 88.5q-15.5 51 -15.5 109q0 127 70 196q70 69 201 69q32 0 70 -9.5q38 -9.5 76 -44.5l4 2q-12 36 -41.5 71.5q-29.5 35.5 -84.5 73.5l-135 -66zM232 267q0 -65 30.5 -96q30.5 -31 81.5 -31q56 0 84.5 30.5q28.5 30.5 28.5 96.5q0 54 -28 89.5q-28 35.5 -85 35.5q-54 0 -83 -29.5t-29 -95.5z" />
<glyph unicode="&#241;" horiz-adv-x="704" d="M65 550h194l5 -76q25 51 72 69.5q47 18.5 104 18.5q99 0 152.5 -46q53.5 -46 53.5 -146v-370h-199v297q0 58 -20 80q-20 22 -72 22q-53 0 -72 -24q-19 -24 -19 -78v-297h-199zM145 640q3 77 35.5 114.5q32.5 37.5 83.5 37.5q22 0 46.5 -8q24.5 -8 50.5 -19q31 -13 45 -18.5q14 -5.5 28 -5.5q19 0 29.5 15q10.5 15 12.5 36l89 -12q-3 -70 -33.5 -111q-30.5 -41 -84.5 -41q-27 0 -51 8q-24 8 -50 19q-24 10 -38 17q-14 7 -32 7q-15 0 -27 -14q-12 -14 -14 -36z" />
<glyph unicode="&#242;" horiz-adv-x="706" d="M40 275q0 146 75.5 218q75.5 72 236.5 72q86 0 145.5 -17.5q59.5 -17.5 97 -53.5q37.5 -36 54.5 -90.5q17 -54.5 17 -128.5q0 -72 -17 -126.5q-17 -54.5 -54.5 -90.5q-37.5 -36 -97.5 -54q-60 -18 -145 -18q-85 0 -144 16.5q-59 16.5 -96.5 52q-37.5 35.5 -54.5 90q-17 54.5 -17 130.5zt0 0zM246 270q0 -68 22 -99q22 -31 84 -31q63 0 85.5 30q22.5 30 22.5 99v6q0 36 -4 62q-4 26 -15.5 42q-11.5 16 -33 23.5q-21.5 7.5 -55.5 7.5q-33 0 -53.5 -7.5q-20.5 -7.5 -32.5 -24q-12 -16.5 -16 -42q-4 -25.5 -4 -61.5zM300 625l-200 170h230l110 -170z" />
<glyph unicode="&#243;" horiz-adv-x="706" d="M40 275q0 146 75.5 218q75.5 72 236.5 72q86 0 145.5 -17.5q59.5 -17.5 97 -53.5q37.5 -36 54.5 -90.5q17 -54.5 17 -128.5q0 -72 -17 -126.5q-17 -54.5 -54.5 -90.5q-37.5 -36 -97.5 -54q-60 -18 -145 -18q-85 0 -144 16.5q-59 16.5 -96.5 52q-37.5 35.5 -54.5 90q-17 54.5 -17 130.5zt0 0zM246 270q0 -68 22 -99q22 -31 84 -31q63 0 85.5 30q22.5 30 22.5 99v6q0 36 -4 62q-4 26 -15.5 42q-11.5 16 -33 23.5q-21.5 7.5 -55.5 7.5q-33 0 -53.5 -7.5q-20.5 -7.5 -32.5 -24q-12 -16.5 -16 -42q-4 -25.5 -4 -61.5zM383 795h230l-200 -170l-140 0z" />
<glyph unicode="&#244;" horiz-adv-x="706" d="M40 275q0 146 75.5 218q75.5 72 236.5 72q86 0 145.5 -17.5q59.5 -17.5 97 -53.5q37.5 -36 54.5 -90.5q17 -54.5 17 -128.5q0 -72 -17 -126.5q-17 -54.5 -54.5 -90.5q-37.5 -36 -97.5 -54q-60 -18 -145 -18q-85 0 -144 16.5q-59 16.5 -96.5 52q-37.5 35.5 -54.5 90q-17 54.5 -17 130.5zt0 0zM246 270q0 -68 22 -99q22 -31 84 -31q63 0 85.5 30q22.5 30 22.5 99v6q0 36 -4 62q-4 26 -15.5 42q-11.5 16 -33 23.5q-21.5 7.5 -55.5 7.5q-33 0 -53.5 -7.5q-20.5 -7.5 -32.5 -24q-12 -16.5 -16 -42q-4 -25.5 -4 -61.5zM259 795h188l126 -170h-142l-77 85l-78 -85l-143 0z" />
<glyph unicode="&#245;" horiz-adv-x="706" d="M40 275q0 146 75.5 218q75.5 72 236.5 72q86 0 145.5 -17.5q59.5 -17.5 97 -53.5q37.5 -36 54.5 -90.5q17 -54.5 17 -128.5q0 -72 -17 -126.5q-17 -54.5 -54.5 -90.5q-37.5 -36 -97.5 -54q-60 -18 -145 -18q-85 0 -144 16.5q-59 16.5 -96.5 52q-37.5 35.5 -54.5 90q-17 54.5 -17 130.5zt0 0zM246 270q0 -68 22 -99q22 -31 84 -31q63 0 85.5 30q22.5 30 22.5 99v6q0 36 -4 62q-4 26 -15.5 42q-11.5 16 -33 23.5q-21.5 7.5 -55.5 7.5q-33 0 -53.5 -7.5q-20.5 -7.5 -32.5 -24q-12 -16.5 -16 -42q-4 -25.5 -4 -61.5zM143 640q3 77 35.5 114.5q32.5 37.5 83.5 37.5q22 0 46.5 -8q24.5 -8 50.5 -19q31 -13 45 -18.5q14 -5.5 28 -5.5q19 0 29.5 15q10.5 15 12.5 36l89 -12q-3 -70 -33.5 -111q-30.5 -41 -84.5 -41q-27 0 -51 8q-24 8 -50 19q-24 10 -38 17q-14 7 -32 7q-15 0 -27 -14q-12 -14 -14 -36z" />
<glyph unicode="&#246;" horiz-adv-x="706" d="M40 275q0 146 75.5 218q75.5 72 236.5 72q86 0 145.5 -17.5q59.5 -17.5 97 -53.5q37.5 -36 54.5 -90.5q17 -54.5 17 -128.5q0 -72 -17 -126.5q-17 -54.5 -54.5 -90.5q-37.5 -36 -97.5 -54q-60 -18 -145 -18q-85 0 -144 16.5q-59 16.5 -96.5 52q-37.5 35.5 -54.5 90q-17 54.5 -17 130.5zt0 0zM246 270q0 -68 22 -99q22 -31 84 -31q63 0 85.5 30q22.5 30 22.5 99v6q0 36 -4 62q-4 26 -15.5 42q-11.5 16 -33 23.5q-21.5 7.5 -55.5 7.5q-33 0 -53.5 -7.5q-20.5 -7.5 -32.5 -24q-12 -16.5 -16 -42q-4 -25.5 -4 -61.5zM118 710q0 46 25.5 70q25.5 24 80.5 24q55 0 80.5 -24q25.5 -24 25.5 -70q0 -46 -25.5 -70q-25.5 -24 -80.5 -24q-55 0 -80.5 24q-25.5 24 -25.5 70zt0 0zM376 710q0 46 25.5 70q25.5 24 80.5 24q55 0 80.5 -24q25.5 -24 25.5 -70q0 -46 -25.5 -70q-25.5 -24 -80.5 -24q-55 0 -80.5 24t-25.5 70z" />
<glyph unicode="&#247;" horiz-adv-x="593" d="M210 124q0 39 23 61.5q23 22.5 65 22.5q38 0 62 -23q24 -23 24 -61q0 -41 -22 -63q-22 -22 -64 -22q-41 0 -64.5 22.5q-23.5 22.5 -23.5 62.5zt0 0zM210 527q0 40 23 62.5q23 22.5 65 22.5q38 0 62 -23q24 -23 24 -62q0 -40 -22 -62q-22 -22 -64 -22q-41 0 -64.5 23q-23.5 23 -23.5 61zt0 0zM50 395h493v-139l-493 0z" />
<glyph unicode="&#248;" horiz-adv-x="706" d="M40 275q0 146 75.5 218q75.5 72 236.5 72q88 0 148 -19l61 79l69 -52l-51 -66q46 -35 66.5 -93q20.5 -58 20.5 -139q0 -72 -17 -126.5q-17 -54.5 -54.5 -90.5q-37.5 -36 -97.5 -54q-60 -18 -145 -18q-97 0 -161 21l-64 -82l-68 52l57 73q-40 35 -58 90.5q-18 55.5 -18 134.5zt0 0zM460 275q0 42 -6 71l-154 -198q19 -8 52 -8q63 0 85.5 30q22.5 30 22.5 99zM246 270q0 -27 3 -48l143 185q-18 3 -40 3q-33 0 -53.5 -7.5q-20.5 -7.5 -32.5 -24q-12 -16.5 -16 -42q-4 -25.5 -4 -61.5z" />
<glyph unicode="&#249;" horiz-adv-x="706" d="M441 77q-29 -48 -73 -68q-44 -20 -113 -20q-103 0 -149 50.5q-46 50.5 -46 160.5v350h199v-305q0 -51 19.5 -71.5q19.5 -20.5 70.5 -20.5q47 0 69.5 22q22.5 22 22.5 72v303h199v-550h-194zM300 625l-200 170h230l110 -170z" />
<glyph unicode="&#250;" horiz-adv-x="706" d="M441 77q-29 -48 -73 -68q-44 -20 -113 -20q-103 0 -149 50.5q-46 50.5 -46 160.5v350h199v-305q0 -51 19.5 -71.5q19.5 -20.5 70.5 -20.5q47 0 69.5 22q22.5 22 22.5 72v303h199v-550h-194zM380 795h230l-200 -170l-140 0z" />
<glyph unicode="&#251;" horiz-adv-x="706" d="M441 77q-29 -48 -73 -68q-44 -20 -113 -20q-103 0 -149 50.5q-46 50.5 -46 160.5v350h199v-305q0 -51 19.5 -71.5q19.5 -20.5 70.5 -20.5q47 0 69.5 22q22.5 22 22.5 72v303h199v-550h-194zM259 795h188l126 -170h-142l-77 85l-78 -85l-143 0z" />
<glyph unicode="&#252;" horiz-adv-x="706" d="M441 77q-29 -48 -73 -68q-44 -20 -113 -20q-103 0 -149 50.5q-46 50.5 -46 160.5v350h199v-305q0 -51 19.5 -71.5q19.5 -20.5 70.5 -20.5q47 0 69.5 22q22.5 22 22.5 72v303h199v-550h-194zM115 710q0 46 25.5 70q25.5 24 80.5 24q55 0 80.5 -24q25.5 -24 25.5 -70q0 -46 -25.5 -70q-25.5 -24 -80.5 -24q-55 0 -80.5 24q-25.5 24 -25.5 70zt0 0zM373 710q0 46 25.5 70q25.5 24 80.5 24q55 0 80.5 -24q25.5 -24 25.5 -70q0 -46 -25.5 -70q-25.5 -24 -80.5 -24q-55 0 -80.5 24t-25.5 70z" />
<glyph unicode="&#253;" horiz-adv-x="638" d="M210 -27q18 0 29 5.5q11 5.5 13 19.5l-242 552h224l108 -315l83 315h203l-183 -538q-20 -57 -39.5 -95.5q-19.5 -38.5 -43.5 -62.5q-24 -24 -55 -34q-31 -10 -72 -10q-26 0 -57 4q-31 4 -49 12l2 168q14 -8 35 -14.5q21 -6.5 44 -6.5zt0 0zM349 795h230l-200 -170l-140 0z" />
<glyph unicode="&#254;" horiz-adv-x="732" d="M65 770h199v-297q24 38 67.5 63.5q43.5 25.5 119.5 25.5q65 0 111 -16q46 -16 75 -50q29 -34 42 -87.5q13 -53.5 13 -128.5q0 -72 -13.5 -126.5q-13.5 -54.5 -43.5 -91q-30 -36.5 -78.5 -55q-48.5 -18.5 -117.5 -18.5q-39 0 -67.5 7.5q-28.5 7.5 -49.5 18.5q-21 11 -35 25q-14 14 -23 26l0 -246h-199zM264 270q0 -60 24 -92.5q24 -32.5 87 -32.5q62 0 84.5 32.5q22.5 32.5 22.5 103.5q0 66 -24.5 95.5q-24.5 29.5 -84.5 29.5q-60 0 -84.5 -31q-24.5 -31 -24.5 -94z" />
<glyph unicode="&#255;" horiz-adv-x="638" d="M210 -27q18 0 29 5.5q11 5.5 13 19.5l-242 552h224l108 -315l83 315h203l-183 -538q-20 -57 -39.5 -95.5q-19.5 -38.5 -43.5 -62.5q-24 -24 -55 -34q-31 -10 -72 -10q-26 0 -57 4q-31 4 -49 12l2 168q14 -8 35 -14.5q21 -6.5 44 -6.5zt0 0zM84 710q0 46 25.5 70q25.5 24 80.5 24q55 0 80.5 -24q25.5 -24 25.5 -70q0 -46 -25.5 -70q-25.5 -24 -80.5 -24q-55 0 -80.5 24q-25.5 24 -25.5 70zt0 0zM342 710q0 46 25.5 70q25.5 24 80.5 24q55 0 80.5 -24q25.5 -24 25.5 -70q0 -46 -25.5 -70q-25.5 -24 -80.5 -24q-55 0 -80.5 24t-25.5 70z" />
<glyph unicode="&#256;" horiz-adv-x="722" d="M475 126h-233l-39 -126h-199l235 700h247l232 -700h-204zM292 290h132l-66 212zM176 898h370v-116l-370 0z" />
<glyph unicode="&#257;" horiz-adv-x="648" d="M404 79q-7 -14 -22 -29.5q-15 -15.5 -38.5 -29q-23.5 -13.5 -56.5 -22.5q-33 -9 -76 -9q-52 0 -87.5 13.5q-35.5 13.5 -57 37q-21.5 23.5 -31 55q-9.5 31.5 -9.5 66.5q0 89 63 126.5q63 37.5 194 35.5l106 -1v18q0 16 -5 28q-5 12 -17 20.5q-12 8.5 -33 13q-21 4.5 -53 4.5q-30 0 -59 -5.5q-29 -5.5 -55.5 -14.5q-26.5 -9 -48.5 -20.5q-22 -11.5 -37 -23.5l0 183q35 15 96.5 27.5q61.5 12.5 141.5 12.5q78 0 130 -11.5q52 -11.5 83.5 -37q31.5 -25.5 44.5 -67q13 -41.5 13 -100.5v-349h-179zM228 180q0 -20 13 -33.5q13 -13.5 52 -13.5q52 0 74 19.5q22 19.5 22 51.5v21h-74q-48 0 -67.5 -9.5q-19.5 -9.5 -19.5 -35.5zt0 0zM144 767h360v-114l-360 0z" />
<glyph unicode="&#258;" horiz-adv-x="722" d="M475 126h-233l-39 -126h-199l235 700h247l232 -700h-204zM292 290h132l-66 212zM279 930q11 -38 33.5 -53q22.5 -15 48.5 -15q26 0 48.5 15q22.5 15 33.5 53l108 -28q-15 -83 -65 -117.5q-50 -34.5 -125 -34.5q-75 0 -125 34.5q-50 34.5 -65 117.5z" />
<glyph unicode="&#259;" horiz-adv-x="648" d="M404 79q-7 -14 -22 -29.5q-15 -15.5 -38.5 -29q-23.5 -13.5 -56.5 -22.5q-33 -9 -76 -9q-52 0 -87.5 13.5q-35.5 13.5 -57 37q-21.5 23.5 -31 55q-9.5 31.5 -9.5 66.5q0 89 63 126.5q63 37.5 194 35.5l106 -1v18q0 16 -5 28q-5 12 -17 20.5q-12 8.5 -33 13q-21 4.5 -53 4.5q-30 0 -59 -5.5q-29 -5.5 -55.5 -14.5q-26.5 -9 -48.5 -20.5q-22 -11.5 -37 -23.5l0 183q35 15 96.5 27.5q61.5 12.5 141.5 12.5q78 0 130 -11.5q52 -11.5 83.5 -37q31.5 -25.5 44.5 -67q13 -41.5 13 -100.5v-349h-179zM228 180q0 -20 13 -33.5q13 -13.5 52 -13.5q52 0 74 19.5q22 19.5 22 51.5v21h-74q-48 0 -67.5 -9.5q-19.5 -9.5 -19.5 -35.5zt0 0zM240 800q11 -38 34.5 -54q23.5 -16 49.5 -16q26 0 49.5 16q23.5 16 34.5 54l106 -28q-15 -83 -65 -117.5q-50 -34.5 -125 -34.5q-75 0 -125 34.5q-50 34.5 -65 117.5z" />
<glyph unicode="&#260;" horiz-adv-x="722" d="M475 126h-233l-39 -126h-199l235 700h247l232 -700h-47q-48 -29 -69.5 -57q-21.5 -28 -21.5 -66q0 -31 18.5 -43.5q18.5 -12.5 44.5 -12.5q20 0 35 5q15 5 29 13l0 -83q-17 -8 -43.5 -15q-26.5 -7 -62.5 -7q-47 0 -76 11q-29 11 -45.5 27.5q-16.5 16.5 -22.5 36q-6 19.5 -6 37.5q0 25 9.5 47.5q9.5 22.5 26 42q16.5 19.5 38.5 35.5q22 16 47 29l-58 0zM292 290h132l-66 212z" />
<glyph unicode="&#261;" horiz-adv-x="648" d="M404 79q-7 -14 -22 -29.5q-15 -15.5 -38.5 -29q-23.5 -13.5 -56.5 -22.5q-33 -9 -76 -9q-52 0 -87.5 13.5q-35.5 13.5 -57 37q-21.5 23.5 -31 55q-9.5 31.5 -9.5 66.5q0 89 63 126.5q63 37.5 194 35.5l106 -1v18q0 16 -5 28q-5 12 -17 20.5q-12 8.5 -33 13q-21 4.5 -53 4.5q-30 0 -59 -5.5q-29 -5.5 -55.5 -14.5q-26.5 -9 -48.5 -20.5q-22 -11.5 -37 -23.5l0 183q35 15 96.5 27.5q61.5 12.5 141.5 12.5q78 0 130 -11.5q52 -11.5 83.5 -37q31.5 -25.5 44.5 -67q13 -41.5 13 -100.5v-349h-36q-45 -27 -66 -54q-21 -27 -21 -64q0 -29 18 -41.5q18 -12.5 43 -12.5q19 0 34.5 4.5q15.5 4.5 28.5 12.5l0 -79q-17 -8 -42.5 -15q-25.5 -7 -60.5 -7q-45 0 -73.5 10.5q-28.5 10.5 -45 27q-16.5 16.5 -22.5 35.5q-6 19 -6 36q0 24 9 46q9 22 24.5 40.5q15.5 18.5 36.5 33.5q21 15 44 27l-44 0zM228 180q0 -20 13 -33.5q13 -13.5 52 -13.5q52 0 74 19.5q22 19.5 22 51.5v21h-74q-48 0 -67.5 -9.5t-19.5 -35.5z" />
<glyph unicode="&#262;" horiz-adv-x="655" d="M604 483q-17 9 -34.5 17.5q-17.5 8.5 -39 16q-21.5 7.5 -48.5 12q-27 4.5 -63 4.5q-43 0 -74 -9.5q-31 -9.5 -51 -31q-20 -21.5 -29.5 -56.5q-9.5 -35 -9.5 -86q0 -52 9.5 -87q9.5 -35 30.5 -56.5q21 -21.5 53.5 -30.5q32.5 -9 78.5 -9q63 0 106.5 15.5q43.5 15.5 71.5 36.5l0 -199q-28 -13 -77 -24.5q-49 -11.5 -120 -11.5q-100 0 -170 22q-70 22 -114 66.5q-44 44.5 -64 111.5q-20 67 -20 157q0 94 20 164.5q20 70.5 64.5 117.5q44.5 47 115.5 70q71 23 172 23q72 0 120 -11.5q48 -11.5 72 -19.5zM419 935h232l-208 -190l-142 0z" />
<glyph unicode="&#263;" horiz-adv-x="609" d="M553 352q-30 21 -67.5 35.5q-37.5 14.5 -96.5 14.5q-77 0 -110 -27.5q-33 -27.5 -33 -93.5q0 -32 7 -57q7 -25 25 -41.5q18 -16.5 48 -25q30 -8.5 76 -8.5q48 0 91 13q43 13 66 30l0 -167q-25 -11 -72 -25q-47 -14 -123 -14q-90 0 -151.5 17q-61.5 17 -100 53q-38.5 36 -55.5 91.5q-17 55.5 -17 132.5q0 71 18 124.5q18 53.5 56.5 89q38.5 35.5 98.5 53.5q60 18 143 18q80 0 125.5 -12q45.5 -12 71.5 -23zM385 795h230l-200 -170l-140 0z" />
<glyph unicode="&#264;" horiz-adv-x="655" d="M604 483q-17 9 -34.5 17.5q-17.5 8.5 -39 16q-21.5 7.5 -48.5 12q-27 4.5 -63 4.5q-43 0 -74 -9.5q-31 -9.5 -51 -31q-20 -21.5 -29.5 -56.5q-9.5 -35 -9.5 -86q0 -52 9.5 -87q9.5 -35 30.5 -56.5q21 -21.5 53.5 -30.5q32.5 -9 78.5 -9q63 0 106.5 15.5q43.5 15.5 71.5 36.5l0 -199q-28 -13 -77 -24.5q-49 -11.5 -120 -11.5q-100 0 -170 22q-70 22 -114 66.5q-44 44.5 -64 111.5q-20 67 -20 157q0 94 20 164.5q20 70.5 64.5 117.5q44.5 47 115.5 70q71 23 172 23q72 0 120 -11.5q48 -11.5 72 -19.5zM283 930h192l133 -180h-143l-86 97l-87 -97l-144 0z" />
<glyph unicode="&#265;" horiz-adv-x="609" d="M553 352q-30 21 -67.5 35.5q-37.5 14.5 -96.5 14.5q-77 0 -110 -27.5q-33 -27.5 -33 -93.5q0 -32 7 -57q7 -25 25 -41.5q18 -16.5 48 -25q30 -8.5 76 -8.5q48 0 91 13q43 13 66 30l0 -167q-25 -11 -72 -25q-47 -14 -123 -14q-90 0 -151.5 17q-61.5 17 -100 53q-38.5 36 -55.5 91.5q-17 55.5 -17 132.5q0 71 18 124.5q18 53.5 56.5 89q38.5 35.5 98.5 53.5q60 18 143 18q80 0 125.5 -12q45.5 -12 71.5 -23zM261 795h188l126 -170h-142l-77 85l-78 -85l-143 0z" />
<glyph unicode="&#266;" horiz-adv-x="655" d="M604 483q-17 9 -34.5 17.5q-17.5 8.5 -39 16q-21.5 7.5 -48.5 12q-27 4.5 -63 4.5q-43 0 -74 -9.5q-31 -9.5 -51 -31q-20 -21.5 -29.5 -56.5q-9.5 -35 -9.5 -86q0 -52 9.5 -87q9.5 -35 30.5 -56.5q21 -21.5 53.5 -30.5q32.5 -9 78.5 -9q63 0 106.5 15.5q43.5 15.5 71.5 36.5l0 -199q-28 -13 -77 -24.5q-49 -11.5 -120 -11.5q-100 0 -170 22q-70 22 -114 66.5q-44 44.5 -64 111.5q-20 67 -20 157q0 94 20 164.5q20 70.5 64.5 117.5q44.5 47 115.5 70q71 23 172 23q72 0 120 -11.5q48 -11.5 72 -19.5zM270 840q0 48 27.5 74q27.5 26 84.5 26q57 0 84.5 -26q27.5 -26 27.5 -74q0 -48 -27.5 -74q-27.5 -26 -84.5 -26q-57 0 -84.5 26t-27.5 74z" />
<glyph unicode="&#267;" horiz-adv-x="609" d="M553 352q-30 21 -67.5 35.5q-37.5 14.5 -96.5 14.5q-77 0 -110 -27.5q-33 -27.5 -33 -93.5q0 -32 7 -57q7 -25 25 -41.5q18 -16.5 48 -25q30 -8.5 76 -8.5q48 0 91 13q43 13 66 30l0 -167q-25 -11 -72 -25q-47 -14 -123 -14q-90 0 -151.5 17q-61.5 17 -100 53q-38.5 36 -55.5 91.5q-17 55.5 -17 132.5q0 71 18 124.5q18 53.5 56.5 89q38.5 35.5 98.5 53.5q60 18 143 18q80 0 125.5 -12q45.5 -12 71.5 -23zM245 710q0 48 26.5 73q26.5 25 83.5 25q57 0 83.5 -25q26.5 -25 26.5 -73q0 -48 -26.5 -73q-26.5 -25 -83.5 -25q-57 0 -83.5 25t-26.5 73z" />
<glyph unicode="&#268;" horiz-adv-x="655" d="M604 483q-17 9 -34.5 17.5q-17.5 8.5 -39 16q-21.5 7.5 -48.5 12q-27 4.5 -63 4.5q-43 0 -74 -9.5q-31 -9.5 -51 -31q-20 -21.5 -29.5 -56.5q-9.5 -35 -9.5 -86q0 -52 9.5 -87q9.5 -35 30.5 -56.5q21 -21.5 53.5 -30.5q32.5 -9 78.5 -9q63 0 106.5 15.5q43.5 15.5 71.5 36.5l0 -199q-28 -13 -77 -24.5q-49 -11.5 -120 -11.5q-100 0 -170 22q-70 22 -114 66.5q-44 44.5 -64 111.5q-20 67 -20 157q0 94 20 164.5q20 70.5 64.5 117.5q44.5 47 115.5 70q71 23 172 23q72 0 120 -11.5q48 -11.5 72 -19.5zM152 930h144l87 -96l86 96h143l-133 -180l-192 0z" />
<glyph unicode="&#269;" horiz-adv-x="609" d="M553 352q-30 21 -67.5 35.5q-37.5 14.5 -96.5 14.5q-77 0 -110 -27.5q-33 -27.5 -33 -93.5q0 -32 7 -57q7 -25 25 -41.5q18 -16.5 48 -25q30 -8.5 76 -8.5q48 0 91 13q43 13 66 30l0 -167q-25 -11 -72 -25q-47 -14 -123 -14q-90 0 -151.5 17q-61.5 17 -100 53q-38.5 36 -55.5 91.5q-17 55.5 -17 132.5q0 71 18 124.5q18 53.5 56.5 89q38.5 35.5 98.5 53.5q60 18 143 18q80 0 125.5 -12q45.5 -12 71.5 -23zM135 795h143l77 -85l78 85h142l-125 -170l-188 0z" />
<glyph unicode="&#270;" horiz-adv-x="758" d="M80 700q40 2 72.5 3q32.5 1 62.5 1.5q30 0.5 60 0.5q30 0 65 0q110 0 183 -23.5q73 -23.5 116.5 -67.5q43.5 -44 61 -107.5q17.5 -63.5 17.5 -143.5q0 -90 -22 -159q-22 -69 -69.5 -115.5q-47.5 -46.5 -122 -70q-74.5 -23.5 -179.5 -23.5q-32 0 -60 0q-28 0 -56.5 0.5q-28.5 0.5 -59.5 1.5q-31 1 -69 3zM282 170q17 -2 29 -2q12 0 29 0q91 0 131 45.5q40 45.5 40 142.5q0 91 -38.5 133.5q-38.5 42.5 -125.5 42.5q-19 0 -32.5 0q-13.5 0 -32.5 -2zM149 930h144l87 -96l86 96h143l-133 -180l-192 0z" />
<glyph unicode="&#271;" horiz-adv-x="902" d="M473 81q-12 -20 -27.5 -37q-15.5 -17 -38 -29q-22.5 -12 -53.5 -19q-31 -7 -74 -7q-125 0 -182.5 67.5q-57.5 67.5 -57.5 209.5q0 71 14 126.5q14 55.5 44 93q30 37.5 78 57q48 19.5 116 19.5q76 0 116 -20.5q40 -20.5 60 -51.5l0 280h199v-770h-189zM359 145q61 0 85 30q24 30 24 83v33q0 56 -24 85.5q-24 29.5 -83 29.5q-62 0 -87 -30.5q-25 -30.5 -25 -105.5q0 -39 8 -63.5q8 -24.5 22.5 -38q14.5 -13.5 34.5 -18.5q20 -5 45 -5zt0 0zM763 770h174l-96 -210l-124 0z" />
<glyph unicode="&#272;" horiz-adv-x="771" d="M16 431h64v269q40 2 72.5 3q32.5 1 62.5 1.5q30 0.5 60 0.5q30 0 65 0q110 0 183 -23.5q73 -23.5 116.5 -67.5q43.5 -44 61 -107.5q17.5 -63.5 17.5 -143.5q0 -90 -22 -159q-22 -69 -69.5 -115.5q-47.5 -46.5 -122 -70q-74.5 -23.5 -179.5 -23.5q-32 0 -60 0q-28 0 -56.5 0.5q-28.5 0.5 -59.5 1.5q-31 1 -69 3l0 280h-64zM282 170q17 -2 29 -2q12 0 29 0q91 0 131 45.5q40 45.5 40 142.5q0 91 -38.5 133.5q-38.5 42.5 -125.5 42.5q-19 0 -32.5 0q-13.5 0 -32.5 -2l0 -99h143v-151l-143 0z" />
<glyph unicode="&#273;" horiz-adv-x="745" d="M473 81q-12 -20 -27.5 -37q-15.5 -17 -38 -29q-22.5 -12 -53.5 -19q-31 -7 -74 -7q-125 0 -182.5 67.5q-57.5 67.5 -57.5 209.5q0 71 14 126.5q14 55.5 44 93q30 37.5 78 57q48 19.5 116 19.5q76 0 116 -20.5q40 -20.5 60 -51.5l0 125h-244v105h244v50h199v-50h78v-105h-78v-615h-189zM359 145q61 0 85 30q24 30 24 83v33q0 56 -24 85.5q-24 29.5 -83 29.5q-62 0 -87 -30.5q-25 -30.5 -25 -105.5q0 -39 8 -63.5q8 -24.5 22.5 -38q14.5 -13.5 34.5 -18.5t45 -5z" />
<glyph unicode="&#274;" horiz-adv-x="650" d="M80 700h520v-174h-318v-93h274v-159h-274v-100h318v-174h-520zM155 898h370v-116l-370 0z" />
<glyph unicode="&#275;" horiz-adv-x="671" d="M241 232q4 -51 37.5 -73q33.5 -22 105.5 -22q31 0 63 4.5q32 4.5 61 13q29 8.5 53 19.5q24 11 39 24l0 -162q-11 -9 -33 -18q-22 -9 -54.5 -16q-32.5 -7 -73 -11.5q-40.5 -4.5 -88.5 -4.5q-88 0 -147.5 19q-59.5 19 -96 57q-36.5 38 -52 93.5q-15.5 55.5 -15.5 129.5q0 145 80.5 212.5q80.5 67.5 226.5 67.5q82 0 137 -18.5q55 -18.5 89 -52.5q34 -34 48.5 -82.5q14.5 -48.5 14.5 -108.5v-71zM343 422q-52 0 -75.5 -22.5q-23.5 -22.5 -27.5 -66.5l198 0q1 40 -19 64.5q-20 24.5 -76 24.5zt0 0zM166 767h360v-114l-360 0z" />
<glyph unicode="&#278;" horiz-adv-x="650" d="M80 700h520v-174h-318v-93h274v-159h-274v-100h318v-174h-520zM228 840q0 48 27.5 74q27.5 26 84.5 26q57 0 84.5 -26q27.5 -26 27.5 -74q0 -48 -27.5 -74q-27.5 -26 -84.5 -26q-57 0 -84.5 26t-27.5 74z" />
<glyph unicode="&#279;" horiz-adv-x="671" d="M241 232q4 -51 37.5 -73q33.5 -22 105.5 -22q31 0 63 4.5q32 4.5 61 13q29 8.5 53 19.5q24 11 39 24l0 -162q-11 -9 -33 -18q-22 -9 -54.5 -16q-32.5 -7 -73 -11.5q-40.5 -4.5 -88.5 -4.5q-88 0 -147.5 19q-59.5 19 -96 57q-36.5 38 -52 93.5q-15.5 55.5 -15.5 129.5q0 145 80.5 212.5q80.5 67.5 226.5 67.5q82 0 137 -18.5q55 -18.5 89 -52.5q34 -34 48.5 -82.5q14.5 -48.5 14.5 -108.5v-71zM343 422q-52 0 -75.5 -22.5q-23.5 -22.5 -27.5 -66.5l198 0q1 40 -19 64.5q-20 24.5 -76 24.5zt0 0zM238 710q0 48 26.5 73q26.5 25 83.5 25q57 0 83.5 -25q26.5 -25 26.5 -73q0 -48 -26.5 -73q-26.5 -25 -83.5 -25q-57 0 -83.5 25t-26.5 73z" />
<glyph unicode="&#280;" horiz-adv-x="650" d="M80 700h520v-174h-318v-93h274v-159h-274v-100h318v-174h-45q-48 -29 -69.5 -57q-21.5 -28 -21.5 -66q0 -31 18.5 -43.5q18.5 -12.5 44.5 -12.5q20 0 35 5q15 5 29 13l0 -83q-17 -8 -43.5 -15q-26.5 -7 -62.5 -7q-47 0 -76 11q-29 11 -45.5 27.5q-16.5 16.5 -22.5 36q-6 19.5 -6 37.5q0 25 9.5 47.5q9.5 22.5 26 42q16.5 19.5 38.5 35.5q22 16 47 29l-376 0z" />
<glyph unicode="&#281;" horiz-adv-x="671" d="M513 -234q-17 -8 -42.5 -15q-25.5 -7 -60.5 -7q-45 0 -73.5 10.5q-28.5 10.5 -45 27q-16.5 16.5 -22.5 35.5q-6 19 -6 36q0 42 26 76q26 34 64 57l-2 0q-88 0 -147.5 19q-59.5 19 -96 57q-36.5 38 -52 93.5q-15.5 55.5 -15.5 129.5q0 145 80.5 212.5q80.5 67.5 226.5 67.5q82 0 137 -18.5q55 -18.5 89 -52.5q34 -34 48.5 -82.5q14.5 -48.5 14.5 -108.5v-71h-395q4 -51 37.5 -73q33.5 -22 105.5 -22q31 0 63 4.5q32 4.5 61 13q29 8.5 53 19.5q24 11 39 24l0 -162q-14 -12 -48.5 -23.5q-34.5 -11.5 -85.5 -18.5q-40 -25 -58.5 -51q-18.5 -26 -18.5 -61q0 -29 18 -41.5q18 -12.5 43 -12.5q19 0 34.5 4.5q15.5 4.5 28.5 12.5zM343 422q-52 0 -75.5 -22.5q-23.5 -22.5 -27.5 -66.5l198 0q1 40 -19 64.5t-76 24.5z" />
<glyph unicode="&#282;" horiz-adv-x="650" d="M80 700h520v-174h-318v-93h274v-159h-274v-100h318v-174h-520zM105 930h144l87 -96l86 96h143l-133 -180l-192 0z" />
<glyph unicode="&#283;" horiz-adv-x="671" d="M241 232q4 -51 37.5 -73q33.5 -22 105.5 -22q31 0 63 4.5q32 4.5 61 13q29 8.5 53 19.5q24 11 39 24l0 -162q-11 -9 -33 -18q-22 -9 -54.5 -16q-32.5 -7 -73 -11.5q-40.5 -4.5 -88.5 -4.5q-88 0 -147.5 19q-59.5 19 -96 57q-36.5 38 -52 93.5q-15.5 55.5 -15.5 129.5q0 145 80.5 212.5q80.5 67.5 226.5 67.5q82 0 137 -18.5q55 -18.5 89 -52.5q34 -34 48.5 -82.5q14.5 -48.5 14.5 -108.5v-71zM343 422q-52 0 -75.5 -22.5q-23.5 -22.5 -27.5 -66.5l198 0q1 40 -19 64.5q-20 24.5 -76 24.5zt0 0zM126 795h143l77 -85l78 85h142l-125 -170l-188 0z" />
<glyph unicode="&#284;" horiz-adv-x="721" d="M385 418h286v-373q-19 -11 -47 -21.5q-28 -10.5 -64 -19.5q-36 -9 -78.5 -14.5q-42.5 -5.5 -89.5 -5.5q-92 0 -158 21q-66 21 -109.5 65q-43.5 44 -64 111.5q-20.5 67.5 -20.5 159.5q0 95 19 165.5q19 70.5 63.5 117q44.5 46.5 116.5 69.5q72 23 179 23q82 0 133 -11q51 -11 75 -21l0 -188q-78 47 -188 47q-55 0 -91.5 -11q-36.5 -11 -58.5 -34.5q-22 -23.5 -31.5 -60q-9.5 -36.5 -9.5 -87.5q0 -101 38 -147q38 -46 125 -46q34 0 53.5 4q19.5 4 33.5 8l0 90h-112zM266 930h192l133 -180h-143l-86 97l-87 -97l-144 0z" />
<glyph unicode="&#285;" horiz-adv-x="733" d="M101 19q26 -14 81.5 -29q55.5 -15 148.5 -15q42 0 68.5 7q26.5 7 42 20.5q15.5 13.5 21 32.5q5.5 19 5.5 43v30q-25 -31 -69.5 -50q-44.5 -19 -114.5 -19q-62 0 -107.5 13.5q-45.5 13.5 -76 42.5q-30.5 29 -45.5 76q-15 47 -15 115q0 143 57 209.5q57 66.5 188 66.5q44 0 75.5 -7q31.5 -7 53.5 -19q22 -12 36 -28q14 -16 23 -33l5 75h189v-460q0 -81 -20 -134.5q-20 -53.5 -62 -85.5q-42 -32 -107 -45q-65 -13 -155 -13q-33 0 -66 2.5q-33 2.5 -62.5 7q-29.5 4.5 -53.5 10q-24 5.5 -40 10.5zM358 194q57 0 83.5 22q26.5 22 26.5 81v9q0 56 -25.5 78q-25.5 22 -86.5 22q-58 0 -82.5 -23q-24.5 -23 -24.5 -83q0 -60 27 -83q27 -23 82 -23zt0 0zM273 795h188l126 -170h-142l-77 85l-78 -85l-143 0z" />
<glyph unicode="&#286;" horiz-adv-x="721" d="M385 418h286v-373q-19 -11 -47 -21.5q-28 -10.5 -64 -19.5q-36 -9 -78.5 -14.5q-42.5 -5.5 -89.5 -5.5q-92 0 -158 21q-66 21 -109.5 65q-43.5 44 -64 111.5q-20.5 67.5 -20.5 159.5q0 95 19 165.5q19 70.5 63.5 117q44.5 46.5 116.5 69.5q72 23 179 23q82 0 133 -11q51 -11 75 -21l0 -188q-78 47 -188 47q-55 0 -91.5 -11q-36.5 -11 -58.5 -34.5q-22 -23.5 -31.5 -60q-9.5 -36.5 -9.5 -87.5q0 -101 38 -147q38 -46 125 -46q34 0 53.5 4q19.5 4 33.5 8l0 90h-112zM303 930q11 -38 33.5 -53q22.5 -15 48.5 -15q26 0 48.5 15q22.5 15 33.5 53l108 -28q-15 -83 -65 -117.5q-50 -34.5 -125 -34.5q-75 0 -125 34.5q-50 34.5 -65 117.5z" />
<glyph unicode="&#287;" horiz-adv-x="733" d="M101 19q26 -14 81.5 -29q55.5 -15 148.5 -15q42 0 68.5 7q26.5 7 42 20.5q15.5 13.5 21 32.5q5.5 19 5.5 43v30q-25 -31 -69.5 -50q-44.5 -19 -114.5 -19q-62 0 -107.5 13.5q-45.5 13.5 -76 42.5q-30.5 29 -45.5 76q-15 47 -15 115q0 143 57 209.5q57 66.5 188 66.5q44 0 75.5 -7q31.5 -7 53.5 -19q22 -12 36 -28q14 -16 23 -33l5 75h189v-460q0 -81 -20 -134.5q-20 -53.5 -62 -85.5q-42 -32 -107 -45q-65 -13 -155 -13q-33 0 -66 2.5q-33 2.5 -62.5 7q-29.5 4.5 -53.5 10q-24 5.5 -40 10.5zM358 194q57 0 83.5 22q26.5 22 26.5 81v9q0 56 -25.5 78q-25.5 22 -86.5 22q-58 0 -82.5 -23q-24.5 -23 -24.5 -83q0 -60 27 -83q27 -23 82 -23zt0 0zM269 800q11 -38 34.5 -54q23.5 -16 49.5 -16q26 0 49.5 16q23.5 16 34.5 54l106 -28q-15 -83 -65 -117.5q-50 -34.5 -125 -34.5q-75 0 -125 34.5q-50 34.5 -65 117.5z" />
<glyph unicode="&#288;" horiz-adv-x="721" d="M385 418h286v-373q-19 -11 -47 -21.5q-28 -10.5 -64 -19.5q-36 -9 -78.5 -14.5q-42.5 -5.5 -89.5 -5.5q-92 0 -158 21q-66 21 -109.5 65q-43.5 44 -64 111.5q-20.5 67.5 -20.5 159.5q0 95 19 165.5q19 70.5 63.5 117q44.5 46.5 116.5 69.5q72 23 179 23q82 0 133 -11q51 -11 75 -21l0 -188q-78 47 -188 47q-55 0 -91.5 -11q-36.5 -11 -58.5 -34.5q-22 -23.5 -31.5 -60q-9.5 -36.5 -9.5 -87.5q0 -101 38 -147q38 -46 125 -46q34 0 53.5 4q19.5 4 33.5 8l0 90h-112zM249 840q0 48 27.5 74q27.5 26 84.5 26q57 0 84.5 -26q27.5 -26 27.5 -74q0 -48 -27.5 -74q-27.5 -26 -84.5 -26q-57 0 -84.5 26t-27.5 74z" />
<glyph unicode="&#289;" horiz-adv-x="733" d="M101 19q26 -14 81.5 -29q55.5 -15 148.5 -15q42 0 68.5 7q26.5 7 42 20.5q15.5 13.5 21 32.5q5.5 19 5.5 43v30q-25 -31 -69.5 -50q-44.5 -19 -114.5 -19q-62 0 -107.5 13.5q-45.5 13.5 -76 42.5q-30.5 29 -45.5 76q-15 47 -15 115q0 143 57 209.5q57 66.5 188 66.5q44 0 75.5 -7q31.5 -7 53.5 -19q22 -12 36 -28q14 -16 23 -33l5 75h189v-460q0 -81 -20 -134.5q-20 -53.5 -62 -85.5q-42 -32 -107 -45q-65 -13 -155 -13q-33 0 -66 2.5q-33 2.5 -62.5 7q-29.5 4.5 -53.5 10q-24 5.5 -40 10.5zM358 194q57 0 83.5 22q26.5 22 26.5 81v9q0 56 -25.5 78q-25.5 22 -86.5 22q-58 0 -82.5 -23q-24.5 -23 -24.5 -83q0 -60 27 -83q27 -23 82 -23zt0 0zM257 710q0 48 26.5 73q26.5 25 83.5 25q57 0 83.5 -25q26.5 -25 26.5 -73q0 -48 -26.5 -73q-26.5 -25 -83.5 -25q-57 0 -83.5 25t-26.5 73z" />
<glyph unicode="&#290;" horiz-adv-x="721" d="M385 418h286v-373q-19 -11 -47 -21.5q-28 -10.5 -64 -19.5q-36 -9 -78.5 -14.5q-42.5 -5.5 -89.5 -5.5q-92 0 -158 21q-66 21 -109.5 65q-43.5 44 -64 111.5q-20.5 67.5 -20.5 159.5q0 95 19 165.5q19 70.5 63.5 117q44.5 46.5 116.5 69.5q72 23 179 23q82 0 133 -11q51 -11 75 -21l0 -188q-78 47 -188 47q-55 0 -91.5 -11q-36.5 -11 -58.5 -34.5q-22 -23.5 -31.5 -60q-9.5 -36.5 -9.5 -87.5q0 -101 38 -147q38 -46 125 -46q34 0 53.5 4q19.5 4 33.5 8l0 90h-112zM277 -201q8 -1 15 -1q7 0 14 0q29 0 47.5 8.5q18.5 8.5 23.5 27.5q-122 0 -122 59q0 30 29.5 46.5q29.5 16.5 75.5 16.5q51 0 83.5 -24q32.5 -24 32.5 -73q0 -29 -12 -52q-12 -23 -33.5 -39q-21.5 -16 -51.5 -25q-30 -9 -65 -9q-9 0 -18 0q-9 0 -19 2l0 63z" />
<glyph unicode="&#291;" horiz-adv-x="733" d="M101 19q26 -14 81.5 -29q55.5 -15 148.5 -15q42 0 68.5 7q26.5 7 42 20.5q15.5 13.5 21 32.5q5.5 19 5.5 43v30q-25 -31 -69.5 -50q-44.5 -19 -114.5 -19q-62 0 -107.5 13.5q-45.5 13.5 -76 42.5q-30.5 29 -45.5 76q-15 47 -15 115q0 143 57 209.5q57 66.5 188 66.5q44 0 75.5 -7q31.5 -7 53.5 -19q22 -12 36 -28q14 -16 23 -33l5 75h189v-460q0 -81 -20 -134.5q-20 -53.5 -62 -85.5q-42 -32 -107 -45q-65 -13 -155 -13q-33 0 -66 2.5q-33 2.5 -62.5 7q-29.5 4.5 -53.5 10q-24 5.5 -40 10.5zM358 194q57 0 83.5 22q26.5 22 26.5 81v9q0 56 -25.5 78q-25.5 22 -86.5 22q-58 0 -82.5 -23q-24.5 -23 -24.5 -83q0 -60 27 -83q27 -23 82 -23zt0 0zM420 754q-8 1 -14.5 1q-6.5 0 -12.5 0q-26 0 -42.5 -10.5q-16.5 -10.5 -21.5 -27.5q111 0 111 -56q0 -28 -27 -43.5q-27 -15.5 -69 -15.5q-46 0 -75.5 23q-29.5 23 -29.5 68q0 27 11 49q11 22 30.5 38q19.5 16 46.5 25q27 9 59 9q8 0 17.5 -0.5q9.5 -0.5 16.5 -1.5l0 -58z" />
<glyph unicode="&#292;" horiz-adv-x="809" d="M80 700h202v-258h245v258h202v-700h-202v269h-245v-269h-202zM309 930h192l133 -180h-143l-86 97l-87 -97l-144 0z" />
<glyph unicode="&#293;" horiz-adv-x="704" d="M65 770h199v-296q22 43 68.5 65.5q46.5 22.5 117.5 22.5q106 0 151 -51q45 -51 45 -159v-352h-199v303q0 53 -19.5 74.5q-19.5 21.5 -69.5 21.5q-28 0 -46 -6.5q-18 -6.5 -28.5 -19q-10.5 -12.5 -15 -32q-4.5 -19.5 -4.5 -45.5v-296h-199zM69 975h188l126 -170h-142l-77 85l-78 -85l-143 0z" />
<glyph unicode="&#294;" horiz-adv-x="809" d="M80 501h-59v122h59v77h202v-77h245v77h202v-77h59v-122h-59v-501h-202v269h-245v-269h-202zM527 442v59h-245l0 -59z" />
<glyph unicode="&#295;" horiz-adv-x="704" d="M65 615h-78v105h78v50h199v-50h244v-105h-244v-161q22 43 68.5 65.5q46.5 22.5 117.5 22.5q106 0 151 -51q45 -51 45 -159v-332h-199v283q0 53 -19.5 74.5q-19.5 21.5 -69.5 21.5q-28 0 -46 -6.5q-18 -6.5 -28.5 -19q-10.5 -12.5 -15 -32q-4.5 -19.5 -4.5 -45.5v-276l-199 0z" />
<glyph unicode="&#298;" horiz-adv-x="362" d="M80 700h202v-700h-202zM-4 898h370v-116l-370 0z" />
<glyph unicode="&#299;" horiz-adv-x="331" d="M65 550h200v-550h-200zM-15 767h360v-114l-360 0z" />
<glyph unicode="&#302;" horiz-adv-x="362" d="M80 700h202v-700h-61q-48 -29 -69.5 -57q-21.5 -28 -21.5 -66q0 -31 18.5 -43.5q18.5 -12.5 44.5 -12.5q20 0 35 5q15 5 29 13l0 -83q-17 -8 -43.5 -15q-26.5 -7 -62.5 -7q-47 0 -76 11q-29 11 -45.5 27.5q-16.5 16.5 -22.5 36q-6 19.5 -6 37.5q0 25 9.5 47.5q9.5 22.5 26 42q16.5 19.5 38.5 35.5q22 16 47 29l-42 0z" />
<glyph unicode="&#303;" horiz-adv-x="331" d="M65 550h200v-550h-59q-45 -27 -66 -54q-21 -27 -21 -64q0 -29 18 -41.5q18 -12.5 43 -12.5q19 0 34.5 4.5q15.5 4.5 28.5 12.5l0 -79q-17 -8 -42.5 -15q-25.5 -7 -60.5 -7q-45 0 -73.5 10.5q-28.5 10.5 -45 27q-16.5 16.5 -22.5 35.5q-6 19 -6 36q0 24 9 46q9 22 24.5 40.5q15.5 18.5 36.5 33.5q21 15 44 27l-42 0zM55 710q0 45 25 67.5q25 22.5 85 22.5q60 0 85 -22.5q25 -22.5 25 -67.5q0 -45 -25 -67.5q-25 -22.5 -85 -22.5q-60 0 -85 22.5t-25 67.5z" />
<glyph unicode="&#304;" horiz-adv-x="362" d="M80 700h202v-700h-202zM69 840q0 48 27.5 74q27.5 26 84.5 26q57 0 84.5 -26q27.5 -26 27.5 -74q0 -48 -27.5 -74q-27.5 -26 -84.5 -26q-57 0 -84.5 26t-27.5 74z" />
<glyph unicode="&#305;" horiz-adv-x="331" d="M65 550h200v-550l-200 0z" />
<glyph unicode="&#308;" horiz-adv-x="497" d="M215 700h202v-453q0 -70 -12.5 -119q-12.5 -49 -42 -79.5q-29.5 -30.5 -77.5 -44.5q-48 -14 -118 -14q-53 0 -83.5 5q-30.5 5 -53.5 11l0 192q17 -13 44.5 -22.5q27.5 -9.5 55.5 -9.5q22 0 38 4.5q16 4.5 26.5 17q10.5 12.5 15.5 34q5 21.5 5 55.5zM221 930h192l133 -180h-143l-86 97l-87 -97l-144 0z" />
<glyph unicode="&#309;" horiz-adv-x="341" d="M75 550h200v-562q0 -54 -12.5 -88q-12.5 -34 -35.5 -53.5q-23 -19.5 -56.5 -27q-33.5 -7.5 -76.5 -7.5q-46 0 -71.5 4.5q-25.5 4.5 -36.5 9.5l0 154q18 -5 45 -5q24 0 34 7q10 7 10 24zM77 795h188l126 -170h-142l-77 85l-78 -85l-143 0z" />
<glyph unicode="&#310;" horiz-adv-x="736" d="M80 700h202v-263h54l146 263h230l-205 -327l221 -373h-237l-154 273h-55v-273h-202zM284 -201q8 -1 15 -1q7 0 14 0q29 0 47.5 8.5q18.5 8.5 23.5 27.5q-122 0 -122 59q0 30 29.5 46.5q29.5 16.5 75.5 16.5q51 0 83.5 -24q32.5 -24 32.5 -73q0 -29 -12 -52q-12 -23 -33.5 -39q-21.5 -16 -51.5 -25q-30 -9 -65 -9q-9 0 -18 0q-9 0 -19 2l0 63z" />
<glyph unicode="&#311;" horiz-adv-x="670" d="M264 770v-398h48l111 178h222l-175 -259l188 -291h-224l-121 201h-49v-201h-199v770zM258 -196q8 -1 14.5 -1q6.5 0 12.5 0q26 0 42.5 10.5q16.5 10.5 21.5 27.5q-111 0 -111 56q0 28 27 43.5q27 15.5 69 15.5q46 0 75.5 -23q29.5 -23 29.5 -68q0 -27 -11 -49q-11 -22 -30.5 -38q-19.5 -16 -46.5 -25q-27 -9 -59 -9q-8 0 -17.5 0.5q-9.5 0.5 -16.5 1.5l0 58z" />
<glyph unicode="&#313;" horiz-adv-x="591" d="M80 700h202v-514h289v-186h-491zM228 935h232l-208 -190l-142 0z" />
<glyph unicode="&#314;" horiz-adv-x="387" d="M264 191q0 -23 9.5 -30.5q9.5 -7.5 29.5 -7.5q13 0 25.5 2.5q12.5 2.5 24.5 4.5l0 -156q-11 -5 -35.5 -9.5q-24.5 -4.5 -64.5 -4.5q-45 0 -80 7.5q-35 7.5 -59 27q-24 19.5 -36.5 53.5q-12.5 34 -12.5 88v604h199v-579zM204 980h230l-200 -170l-140 0z" />
<glyph unicode="&#315;" horiz-adv-x="591" d="M80 700h202v-514h289v-186h-491zM242 -201q8 -1 15 -1q7 0 14 0q29 0 47.5 8.5q18.5 8.5 23.5 27.5q-122 0 -122 59q0 30 29.5 46.5q29.5 16.5 75.5 16.5q51 0 83.5 -24q32.5 -24 32.5 -73q0 -29 -12 -52q-12 -23 -33.5 -39q-21.5 -16 -51.5 -25q-30 -9 -65 -9q-9 0 -18 0q-9 0 -19 2l0 63z" />
<glyph unicode="&#316;" horiz-adv-x="387" d="M264 191q0 -23 9.5 -30.5q9.5 -7.5 29.5 -7.5q13 0 25.5 2.5q12.5 2.5 24.5 4.5l0 -156q-11 -5 -35.5 -9.5q-24.5 -4.5 -64.5 -4.5q-45 0 -80 7.5q-35 7.5 -59 27q-24 19.5 -36.5 53.5q-12.5 34 -12.5 88v604h199v-579zM147 -196q8 -1 14.5 -1q6.5 0 12.5 0q26 0 42.5 10.5q16.5 10.5 21.5 27.5q-111 0 -111 56q0 28 27 43.5q27 15.5 69 15.5q46 0 75.5 -23q29.5 -23 29.5 -68q0 -27 -11 -49q-11 -22 -30.5 -38q-19.5 -16 -46.5 -25q-27 -9 -59 -9q-8 0 -17.5 0.5q-9.5 0.5 -16.5 1.5l0 58z" />
<glyph unicode="&#317;" horiz-adv-x="591" d="M80 700h202v-514h289v-186h-491zM398 700h174l-96 -210l-124 0z" />
<glyph unicode="&#318;" horiz-adv-x="437" d="M264 191q0 -23 9.5 -30.5q9.5 -7.5 29.5 -7.5q13 0 25.5 2.5q12.5 2.5 24.5 4.5l0 -156q-11 -5 -35.5 -9.5q-24.5 -4.5 -64.5 -4.5q-45 0 -80 7.5q-35 7.5 -59 27q-24 19.5 -36.5 53.5q-12.5 34 -12.5 88v604h199v-579zM360 770h174l-96 -210l-124 0z" />
<glyph unicode="&#319;" horiz-adv-x="591" d="M80 700h202v-514h289v-186h-491zM363 382q0 48 27.5 75q27.5 27 77.5 27q49 0 77.5 -27.5q28.5 -27.5 28.5 -74.5q0 -48 -27 -76q-27 -28 -79 -28q-49 0 -77 28t-28 76z" />
<glyph unicode="&#320;" horiz-adv-x="542" d="M264 191q0 -23 9.5 -30.5q9.5 -7.5 29.5 -7.5q13 0 25.5 2.5q12.5 2.5 24.5 4.5l0 -156q-11 -5 -35.5 -9.5q-24.5 -4.5 -64.5 -4.5q-45 0 -80 7.5q-35 7.5 -59 27q-24 19.5 -36.5 53.5q-12.5 34 -12.5 88v604h199v-579zM324 396q0 52 30 81.5q30 29.5 85 29.5q54 0 85.5 -30q31.5 -30 31.5 -81q0 -51 -29.5 -81.5q-29.5 -30.5 -87.5 -30.5q-53 0 -84 30.5t-31 81.5z" />
<glyph unicode="&#321;" horiz-adv-x="622" d="M111 234l-101 -61v122l101 61v344h202v-221l153 93v-121l-153 -94v-171h289v-186l-491 0z" />
<glyph unicode="&#322;" horiz-adv-x="447" d="M304 191q0 -23 9.5 -30.5q9.5 -7.5 29.5 -7.5q13 0 25.5 2.5q12.5 2.5 24.5 4.5l0 -156q-11 -5 -35.5 -9.5q-24.5 -4.5 -64.5 -4.5q-45 0 -80 7.5q-35 7.5 -59 27q-24 19.5 -36.5 53.5q-12.5 34 -12.5 88v59l-85 -52v122l85 51v424h199v-303l106 65v-121l-106 -65l0 -155z" />
<glyph unicode="&#323;" horiz-adv-x="805" d="M80 700h220l185 -318q14 -23 25.5 -50.5q11.5 -27.5 23.5 -51.5q-2 26 -3 54q-1 28 -1 54v312h195v-700h-210l-198 337q-13 22 -24 47.5q-11 25.5 -22 47.5q2 -23 3 -49q1 -26 1 -49v-334h-195zM439 935h232l-208 -190l-142 0z" />
<glyph unicode="&#324;" horiz-adv-x="704" d="M65 550h194l5 -76q25 51 72 69.5q47 18.5 104 18.5q99 0 152.5 -46q53.5 -46 53.5 -146v-370h-199v297q0 58 -20 80q-20 22 -72 22q-53 0 -72 -24q-19 -24 -19 -78v-297h-199zM385 795h230l-200 -170l-140 0z" />
<glyph unicode="&#325;" horiz-adv-x="805" d="M80 700h220l185 -318q14 -23 25.5 -50.5q11.5 -27.5 23.5 -51.5q-2 26 -3 54q-1 28 -1 54v312h195v-700h-210l-198 337q-13 22 -24 47.5q-11 25.5 -22 47.5q2 -23 3 -49q1 -26 1 -49v-334h-195zM319 -201q8 -1 15 -1q7 0 14 0q29 0 47.5 8.5q18.5 8.5 23.5 27.5q-122 0 -122 59q0 30 29.5 46.5q29.5 16.5 75.5 16.5q51 0 83.5 -24q32.5 -24 32.5 -73q0 -29 -12 -52q-12 -23 -33.5 -39q-21.5 -16 -51.5 -25q-30 -9 -65 -9q-9 0 -18 0q-9 0 -19 2l0 63z" />
<glyph unicode="&#326;" horiz-adv-x="704" d="M65 550h194l5 -76q25 51 72 69.5q47 18.5 104 18.5q99 0 152.5 -46q53.5 -46 53.5 -146v-370h-199v297q0 58 -20 80q-20 22 -72 22q-53 0 -72 -24q-19 -24 -19 -78v-297h-199zM275 -196q8 -1 14.5 -1q6.5 0 12.5 0q26 0 42.5 10.5q16.5 10.5 21.5 27.5q-111 0 -111 56q0 28 27 43.5q27 15.5 69 15.5q46 0 75.5 -23q29.5 -23 29.5 -68q0 -27 -11 -49q-11 -22 -30.5 -38q-19.5 -16 -46.5 -25q-27 -9 -59 -9q-8 0 -17.5 0.5q-9.5 0.5 -16.5 1.5l0 58z" />
<glyph unicode="&#327;" horiz-adv-x="805" d="M80 700h220l185 -318q14 -23 25.5 -50.5q11.5 -27.5 23.5 -51.5q-2 26 -3 54q-1 28 -1 54v312h195v-700h-210l-198 337q-13 22 -24 47.5q-11 25.5 -22 47.5q2 -23 3 -49q1 -26 1 -49v-334h-195zM172 930h144l87 -96l86 96h143l-133 -180l-192 0z" />
<glyph unicode="&#328;" horiz-adv-x="704" d="M65 550h194l5 -76q25 51 72 69.5q47 18.5 104 18.5q99 0 152.5 -46q53.5 -46 53.5 -146v-370h-199v297q0 58 -20 80q-20 22 -72 22q-53 0 -72 -24q-19 -24 -19 -78v-297h-199zM135 795h143l77 -85l78 85h142l-125 -170l-188 0z" />
<glyph unicode="&#332;" horiz-adv-x="795" d="M40 350q0 97 21.5 166q21.5 69 65.5 113.5q44 44.5 110.5 65.5q66.5 21 157.5 21q101 0 170 -21q69 -21 111 -65.5q42 -44.5 60.5 -114q18.5 -69.5 18.5 -165.5q0 -99 -22 -169q-22 -70 -66.5 -113.5q-44.5 -43.5 -111 -63.5q-66.5 -20 -155.5 -20q-185 0 -272.5 89q-87.5 89 -87.5 277zt0 0zM255 350q0 -59 9.5 -96.5q9.5 -37.5 28.5 -59q19 -21.5 46.5 -29.5q27.5 -8 62.5 -8q35 0 61 8.5q26 8.5 43.5 30.5q17.5 22 26 59.5q8.5 37.5 8.5 94.5q0 57 -8.5 94q-8.5 37 -26.5 59q-18 22 -45.5 31q-27.5 9 -65.5 9q-36 0 -62 -9q-26 -9 -43.5 -31q-17.5 -22 -26 -59.5q-8.5 -37.5 -8.5 -93.5zt0 0zM212 898h370v-116l-370 0z" />
<glyph unicode="&#333;" horiz-adv-x="706" d="M40 275q0 146 75.5 218q75.5 72 236.5 72q86 0 145.5 -17.5q59.5 -17.5 97 -53.5q37.5 -36 54.5 -90.5q17 -54.5 17 -128.5q0 -72 -17 -126.5q-17 -54.5 -54.5 -90.5q-37.5 -36 -97.5 -54q-60 -18 -145 -18q-85 0 -144 16.5q-59 16.5 -96.5 52q-37.5 35.5 -54.5 90q-17 54.5 -17 130.5zt0 0zM246 270q0 -68 22 -99q22 -31 84 -31q63 0 85.5 30q22.5 30 22.5 99v6q0 36 -4 62q-4 26 -15.5 42q-11.5 16 -33 23.5q-21.5 7.5 -55.5 7.5q-33 0 -53.5 -7.5q-20.5 -7.5 -32.5 -24q-12 -16.5 -16 -42q-4 -25.5 -4 -61.5zM173 767h360v-114l-360 0z" />
<glyph unicode="&#336;" horiz-adv-x="795" d="M40 350q0 97 21.5 166q21.5 69 65.5 113.5q44 44.5 110.5 65.5q66.5 21 157.5 21q101 0 170 -21q69 -21 111 -65.5q42 -44.5 60.5 -114q18.5 -69.5 18.5 -165.5q0 -99 -22 -169q-22 -70 -66.5 -113.5q-44.5 -43.5 -111 -63.5q-66.5 -20 -155.5 -20q-185 0 -272.5 89q-87.5 89 -87.5 277zt0 0zM255 350q0 -59 9.5 -96.5q9.5 -37.5 28.5 -59q19 -21.5 46.5 -29.5q27.5 -8 62.5 -8q35 0 61 8.5q26 8.5 43.5 30.5q17.5 22 26 59.5q8.5 37.5 8.5 94.5q0 57 -8.5 94q-8.5 37 -26.5 59q-18 22 -45.5 31q-27.5 9 -65.5 9q-36 0 -62 -9q-26 -9 -43.5 -31q-17.5 -22 -26 -59.5q-8.5 -37.5 -8.5 -93.5zt0 0zM257 930h182l-100 -180h-122zM515 930h222l-180 -180l-142 0z" />
</font>
</defs>
</svg>
