<?xml version="1.0" encoding="UTF-8" standalone="no"?>
<!DOCTYPE svg PUBLIC "-//W3C//DTD SVG 1.1//EN" "http://www.w3.org/Graphics/SVG/1.1/DTD/svg11.dtd" >
<svg xmlns="http://www.w3.org/2000/svg">
<metadata>
Generated by SVGconv.
Copyright   : Copyright (c) 2019 ParaType Inc., ParaType Ltd. All rights reserved.
Designer    : ParaType Ltd
Foundry     : ParaType Ltd
Foundry URL : http://www.paratype.com
</metadata>
<defs>
<font id="SBSansDisplay-Light" horiz-adv-x="562" >
<font-face units-per-em="1000" ascent="950" descent="333" >
<font-face-src>
<font-face-name/>
</font-face-src>
</font-face>
<missing-glyph horiz-adv-x="500" />
<glyph unicode="&#13;" horiz-adv-x="260" />
<glyph unicode="&#32;" horiz-adv-x="260" />
<glyph unicode="&#33;" horiz-adv-x="300" d="M174 230h-48v470h48zM108 35q0 17 9.5 29q9.5 12 32.5 12q23 0 32.5 -12q9.5 -12 9.5 -29q0 -17 -9.5 -29q-9.5 -12 -32.5 -12q-23 0 -32.5 12t-9.5 29z" />
<glyph unicode="&#34;" horiz-adv-x="468" d="M300 700h46v-270h-46zM118 700h46v-270l-46 0z" />
<glyph unicode="&#35;" horiz-adv-x="671" d="M145 251l76 215h-136l15 42h136l68 192h46l-68 -192h203l68 192h46l-68 -192h120l-15 -42h-120l-76 -215h146l-15 -42h-146l-74 -209h-46l74 209h-203l-74 -209h-46l74 209h-110l15 42zM191 251h203l76 215l-203 0z" />
<glyph unicode="&#36;" horiz-adv-x="584" d="M493 562q-31 48 -83.5 74.5q-52.5 26.5 -115.5 25.5q-86 -2 -127 -32q-41 -30 -41 -89q0 -51 28.5 -79q28.5 -28 71 -46.5q42.5 -18.5 92.5 -33.5q50 -15 92.5 -38q42.5 -23 71 -60q28.5 -37 28.5 -101q0 -82 -46 -131.5q-46 -49.5 -151 -57.5l0 -122h-43v120q-73 2 -120.5 24.5q-47.5 22.5 -71.5 46.5l0 75q31 -48 83.5 -74q52.5 -26 115.5 -25q100 1 141.5 39q41.5 38 41.5 101q0 40 -16.5 66.5q-16.5 26.5 -43.5 45q-27 18.5 -61.5 31q-34.5 12.5 -70 25q-35.5 12.5 -70 26.5q-34.5 14 -61.5 35q-27 21 -43.5 51.5q-16.5 30.5 -16.5 75.5q0 75 45.5 120q45.5 45 145.5 53l0 116h44v-115q34 -2 62.5 -9q28.5 -7 51 -17q22.5 -10 39.5 -22q17 -12 28 -24l0 -75z" />
<glyph unicode="&#37;" horiz-adv-x="823" d="M64 548q0 36 12 65.5q12 29.5 34.5 50.5q22.5 21 53 32q30.5 11 68.5 11q72 0 115.5 -42q43.5 -42 43.5 -117q0 -75 -45.5 -118.5q-45.5 -43.5 -120.5 -43.5q-36 0 -65.5 12q-29.5 12 -51 33q-21.5 21 -33 51q-11.5 30 -11.5 66zt0 0zM105 548q0 -54 34.5 -87.5q34.5 -33.5 90.5 -33.5q55 0 88 33q33 33 33 88q0 56 -33 87q-33 31 -90 31q-56 0 -89.5 -31q-33.5 -31 -33.5 -87zt0 0zM432 150q0 36 12 65.5q12 29.5 34.5 50.5q22.5 21 53 32q30.5 11 68.5 11q72 0 115.5 -42q43.5 -42 43.5 -117q0 -75 -45.5 -118.5q-45.5 -43.5 -120.5 -43.5q-36 0 -65.5 12q-29.5 12 -51 33q-21.5 21 -33 51q-11.5 30 -11.5 66zt0 0zM473 150q0 -54 34.5 -87.5q34.5 -33.5 90.5 -33.5q55 0 88 33q33 33 33 88q0 56 -33 87q-33 31 -90 31q-56 0 -89.5 -31q-33.5 -31 -33.5 -87zt0 0zM190 0h-53l507 700l50 0z" />
<glyph unicode="&#38;" horiz-adv-x="832" d="M550 126q33 37 57 83.5q24 46.5 39.5 98.5q15.5 52 23.5 106q8 54 8 106l46 0q0 -54 -8.5 -111q-8.5 -57 -25.5 -112q-17 -55 -42.5 -105.5q-25.5 -50.5 -60.5 -90.5q71 -45 139 -61l0 -52q-44 11 -87 31q-43 20 -85 48q-42 -38 -96 -60.5q-54 -22.5 -120 -22.5q-62 0 -110 17q-48 17 -81 47.5q-33 30.5 -50 72q-17 41.5 -17 90.5q0 46 14 81q14 35 37 61q23 26 53 46q30 20 62 36q-32 75 -32 139q0 67 39.5 102q39.5 35 105.5 35q58 0 92.5 -30.5q34.5 -30.5 34.5 -79.5q0 -38 -16 -65q-16 -27 -42.5 -48q-26.5 -21 -60 -37.5q-33.5 -16.5 -67.5 -32.5q19 -40 46 -80q27 -40 59 -77.5q32 -37.5 69 -72q37 -34.5 76 -62.5zt0 0zM262 399q-27 -14 -51.5 -31q-24.5 -17 -43 -38.5q-18.5 -21.5 -29.5 -49.5q-11 -28 -11 -64q0 -39 14.5 -72.5q14.5 -33.5 42 -58q27.5 -24.5 68.5 -39q41 -14.5 95 -14.5q51 0 93 16.5q42 16.5 77 45.5q-81 62 -148 142.5q-67 80.5 -107 162.5zt0 0zM440 593q0 32 -21.5 53q-21.5 21 -60.5 21q-48 0 -73.5 -24.5q-25.5 -24.5 -25.5 -69.5q0 -55 26 -119q30 14 58 28q28 14 49.5 29.5q21.5 15.5 34.5 35.5t13 46z" />
<glyph unicode="&#39;" horiz-adv-x="282" d="M118 700h46v-270l-46 0z" />
<glyph unicode="&#40;" horiz-adv-x="305" d="M60 286q0 95 21.5 172q21.5 77 52.5 136q31 59 65.5 99.5q34.5 40.5 60.5 61.5l25 -23q-23 -19 -53.5 -56q-30.5 -37 -58.5 -92.5q-28 -55.5 -47.5 -130q-19.5 -74.5 -19.5 -167.5q0 -94 19.5 -168.5q19.5 -74.5 47.5 -130q28 -55.5 58.5 -92.5q30.5 -37 53.5 -56l-25 -23q-26 21 -60.5 61.5q-34.5 40.5 -65.5 99.5q-31 59 -52.5 136.5t-21.5 172.5z" />
<glyph unicode="&#41;" horiz-adv-x="305" d="M20 -160q22 19 53 56q31 37 58.5 92.5q27.5 55.5 47.5 129.5q20 74 20 167q0 94 -19.5 168.5q-19.5 74.5 -47.5 130q-28 55.5 -59 92.5q-31 37 -53 56l25 23q27 -21 61 -61.5q34 -40.5 65 -99q31 -58.5 52.5 -135.5q21.5 -77 21.5 -172q0 -95 -21.5 -172.5q-21.5 -77.5 -52 -136.5q-30.5 -59 -65 -99.5q-34.5 -40.5 -61.5 -61.5l-25 23z" />
<glyph unicode="&#42;" horiz-adv-x="488" d="M256 520l165 77l22 -67l-178 -33l124 -134l-57 -41l-88 158l-88 -158l-57 41l124 133l-178 35l22 66l163 -78l-21 181l70 0z" />
<glyph unicode="&#43;" horiz-adv-x="584" d="M270 323h-188v44h188v188h44v-188h188v-44h-188v-188l-44 0z" />
<glyph unicode="&#44;" horiz-adv-x="324" d="M61 -131q26 7 45 22.5q19 15.5 30.5 34q11.5 18.5 14.5 38.5q3 20 -3 36q-6 -6 -20 -6q-18 0 -27 12q-9 12 -9 29q0 17 11.5 29q11.5 12 34.5 12q16 0 27.5 -8.5q11.5 -8.5 18.5 -21.5q7 -13 10 -29q3 -16 3 -31q0 -30 -11 -55q-11 -25 -28.5 -43.5q-17.5 -18.5 -37.5 -31q-20 -12.5 -38 -17.5l-21 30z" />
<glyph unicode="&#45;" horiz-adv-x="410" d="M77 318h256v-46l-256 0z" />
<glyph unicode="&#46;" horiz-adv-x="240" d="M78 35q0 17 9.5 29q9.5 12 32.5 12q23 0 32.5 -12q9.5 -12 9.5 -29q0 -17 -9.5 -29q-9.5 -12 -32.5 -12q-23 0 -32.5 12t-9.5 29z" />
<glyph unicode="&#47;" horiz-adv-x="254" d="M228 750h46l-248 -930l-46 0z" />
<glyph unicode="&#48;" horiz-adv-x="620" d="M72 349q0 100 19 168.5q19 68.5 51.5 110.5q32.5 42 75.5 61q43 19 90 19q114 0 177 -88q63 -88 63 -271q0 -101 -19.5 -169.5q-19.5 -68.5 -52 -110.5q-32.5 -42 -75.5 -60.5q-43 -18.5 -90 -18.5q-114 1 -176.5 88.5q-62.5 87.5 -62.5 270.5zt0 0zM119 349q0 -84 13.5 -143q13.5 -59 38.5 -96.5q25 -37.5 60.5 -55.5q35.5 -18 79.5 -18q37 0 71.5 14.5q34.5 14.5 61 50q26.5 35.5 42 96q15.5 60.5 15.5 152.5q0 83 -13.5 142q-13.5 59 -39 97q-25.5 38 -61 55.5q-35.5 17.5 -78.5 18.5q-38 0 -72 -14.5q-34 -14.5 -60.5 -50q-26.5 -35.5 -42 -96t-15.5 -152.5z" />
<glyph unicode="&#49;" horiz-adv-x="420" d="M242 648l-195 -125v51l206 133h34v-707l-45 0z" />
<glyph unicode="&#50;" horiz-adv-x="560" d="M49 0v32q111 93 184.5 161q73.5 68 117.5 121.5q44 53.5 62.5 98q18.5 44.5 18.5 90.5q0 76 -44.5 117.5q-44.5 41.5 -123.5 41.5q-65 1 -112.5 -24.5q-47.5 -25.5 -79.5 -69.5l0 65q25 28 76.5 52q51.5 24 130.5 23q45 -1 82 -14.5q37 -13.5 63 -39q26 -25.5 40.5 -62q14.5 -36.5 14.5 -83.5q0 -47 -14 -90.5q-14 -43.5 -47.5 -90.5q-33.5 -47 -88.5 -101.5q-55 -54.5 -137 -122.5l-72 -60h381l0 -44z" />
<glyph unicode="&#51;" horiz-adv-x="560" d="M66 633q26 28 77 51.5q51 23.5 130 23.5q97 -2 148 -48.5q51 -46.5 51 -121.5q0 -68 -32.5 -114q-32.5 -46 -98.5 -63q75 -10 118.5 -54q43.5 -44 43.5 -118q0 -42 -15 -78q-15 -36 -45 -62q-30 -26 -75.5 -41.5q-45.5 -15.5 -105.5 -15.5q-78 1 -127.5 24q-49.5 23 -73.5 49l0 75q31 -48 83.5 -75.5q52.5 -27.5 115.5 -26.5q97 1 147 42.5q50 41.5 50 107.5q0 67 -47 106.5q-47 39.5 -141 39.5h-90v42h69q88 0 132.5 41q44.5 41 44.5 108q0 68 -45.5 102.5q-45.5 34.5 -121.5 34.5q-65 1 -112.5 -24.5q-47.5 -25.5 -79.5 -69.5l0 65z" />
<glyph unicode="&#52;" horiz-adv-x="620" d="M403 700h58v-457h122v-44h-122v-199h-45v199h-374v35zM416 243v402l-315 -402z" />
<glyph unicode="&#53;" horiz-adv-x="560" d="M67 140q16 -24 38.5 -43q22.5 -19 49.5 -32q27 -13 56.5 -20q29.5 -7 58.5 -7q90 1 138 47.5q48 46.5 48 129.5q0 40 -15 71q-15 31 -42 51q-27 20 -64 30.5q-37 10.5 -81 10.5q-46 0 -86.5 -6.5q-40.5 -6.5 -66.5 -14.5l24 343h346v-44h-306l-18 -247q8 2 22 4.5q14 2.5 30.5 4q16.5 1.5 33 2.5q16.5 1 30.5 1q55 0 99.5 -14q44.5 -14 75.5 -40q31 -26 48 -64q17 -38 17 -87q0 -108 -62.5 -166q-62.5 -58 -171.5 -58q-37 0 -68.5 6.5q-31.5 6.5 -57 17q-25.5 10.5 -44.5 23.5q-19 13 -32 26l0 75z" />
<glyph unicode="&#54;" horiz-adv-x="620" d="M518 560q-29 48 -77 75.5q-48 27.5 -105 25.5q-50 -1 -90.5 -20.5q-40.5 -19.5 -69 -58q-28.5 -38.5 -43.5 -97q-15 -58.5 -15 -138.5q0 -48 6 -91q6 38 24.5 70.5q18.5 32.5 47 56q28.5 23.5 66 36.5q37.5 13 83.5 13q50 0 90 -15.5q40 -15.5 68.5 -43q28.5 -27.5 44 -65.5q15.5 -38 15.5 -82q0 -59 -19 -103q-19 -44 -51.5 -73q-32.5 -29 -75 -43.5q-42.5 -14.5 -89.5 -14.5q-62 0 -109.5 23.5q-47.5 23.5 -80 68q-32.5 44.5 -49 108.5q-16.5 64 -16.5 145q0 97 18.5 166.5q18.5 69.5 53 114.5q34.5 45 82.5 67q48 22 107 23q35 0 64 -6.5q29 -6.5 52 -17q23 -10.5 40 -23.5q17 -13 28 -26zM338 388q-46 0 -82 -14q-36 -14 -62 -39q-26 -25 -40.5 -59.5q-14.5 -34.5 -17.5 -76.5q21 -71 68 -115.5q47 -44.5 127 -44.5q40 0 73.5 12q33.5 12 58.5 35.5q25 23.5 39 57q14 33.5 14 76.5q0 81 -48.5 124.5t-129.5 43.5z" />
<glyph unicode="&#55;" horiz-adv-x="530" d="M31 700h457v-42l-291 -658h-51l290 651l-405 0z" />
<glyph unicode="&#56;" horiz-adv-x="620" d="M311 -9q-56 0 -102 13q-46 13 -80 37.5q-34 24.5 -52.5 61.5q-18.5 37 -18.5 85q0 68 39 117q39 49 119 66q-58 11 -96 51q-38 40 -38 113q0 39 15 71q15 32 43.5 55.5q28.5 23.5 71 36.5q42.5 13 98.5 13q109 0 164.5 -48q55.5 -48 55.5 -123q0 -69 -38.5 -111.5q-38.5 -42.5 -96.5 -57.5q79 -11 123 -56.5q44 -45.5 44 -120.5q0 -47 -17.5 -84.5q-17.5 -37.5 -50.5 -64q-33 -26.5 -79.5 -40.5q-46.5 -14 -103.5 -14zt0 0zM312 37q102 0 152.5 44.5q50.5 44.5 50.5 114.5q0 69 -51 110.5q-51 41.5 -155 41.5q-51 0 -89 -11.5q-38 -11.5 -63.5 -32q-25.5 -20.5 -38 -47.5q-12.5 -27 -12.5 -58q0 -79 55 -120.5q55 -41.5 151 -41.5zt0 0zM309 387q81 0 128 40q47 40 47 104q0 64 -43 99q-43 35 -132 35q-89 0 -135 -37.5q-46 -37.5 -46 -97.5q0 -33 13.5 -59.5q13.5 -26.5 37.5 -45q24 -18.5 57 -28.5t73 -10z" />
<glyph unicode="&#57;" horiz-adv-x="620" d="M100 140q29 -48 77 -75.5q48 -27.5 106 -25.5q50 1 90 20.5q40 19.5 68.5 58q28.5 38.5 43.5 97q15 58.5 15 138.5q0 50 -7 91q-6 -38 -24 -70.5q-18 -32.5 -46.5 -56q-28.5 -23.5 -66 -36.5q-37.5 -13 -83.5 -13q-50 0 -90 15.5q-40 15.5 -68.5 43q-28.5 27.5 -43.5 65.5q-15 38 -15 82q0 59 19 103q19 44 51 73q32 29 74.5 43.5q42.5 14.5 89.5 14.5q62 0 109.5 -23.5q47.5 -23.5 80 -68q32.5 -44.5 49 -108.5q16.5 -64 16.5 -145q0 -97 -18.5 -166.5q-18.5 -69.5 -53 -114.5q-34.5 -45 -82.5 -67q-48 -22 -107 -23q-35 0 -64 6.5q-29 6.5 -52 17q-23 10.5 -40 23.5q-17 13 -28 26zM280 312q45 0 81.5 13.5q36.5 13.5 62 38.5q25.5 25 40.5 59.5q15 34.5 18 75.5q-20 72 -67 117q-47 45 -127 45q-40 0 -74 -12.5q-34 -12.5 -59 -35.5q-25 -23 -39 -56.5q-14 -33.5 -14 -76.5q0 -81 49 -124.5t129 -43.5z" />
<glyph unicode="&#58;" horiz-adv-x="264" d="M90 35q0 17 9.5 29q9.5 12 32.5 12q23 0 32.5 -12q9.5 -12 9.5 -29q0 -17 -9.5 -29q-9.5 -12 -32.5 -12q-23 0 -32.5 12q-9.5 12 -9.5 29zt0 0zM90 458q0 17 9.5 29q9.5 12 32.5 12q23 0 32.5 -12q9.5 -12 9.5 -29q0 -17 -9.5 -29q-9.5 -12 -32.5 -12q-23 0 -32.5 12t-9.5 29z" />
<glyph unicode="&#59;" horiz-adv-x="274" d="M88 458q0 17 9.5 29q9.5 12 32.5 12q23 0 32.5 -12q9.5 -12 9.5 -29q0 -17 -9.5 -29q-9.5 -12 -32.5 -12q-23 0 -32.5 12q-9.5 12 -9.5 29zt0 0zM61 -131q26 7 45 22.5q19 15.5 30.5 34q11.5 18.5 14.5 38.5q3 20 -3 36q-6 -6 -16 -6q-21 0 -30.5 12q-9.5 12 -9.5 29q0 17 9.5 29q9.5 12 32.5 12q18 0 30 -8.5q12 -8.5 19.5 -21.5q7.5 -13 10.5 -29q3 -16 3 -31q0 -30 -10 -55.5q-10 -25.5 -26 -44.5q-16 -19 -35 -32q-19 -13 -37 -18z" />
<glyph unicode="&#60;" horiz-adv-x="584" d="M485 598v-52l-341 -199l341 -199v-52l-422 251z" />
<glyph unicode="&#61;" horiz-adv-x="584" d="M502 285v-44h-420v44zM502 459v-44h-420l0 44z" />
<glyph unicode="&#62;" horiz-adv-x="584" d="M99 96v52l341 199l-341 199v52l422 -251z" />
<glyph unicode="&#63;" horiz-adv-x="511" d="M60 633q13 14 32 28q19 14 45 24.5q26 10.5 58.5 16.5q32.5 6 71.5 5q84 -5 134 -47.5q50 -42.5 50 -127.5q0 -46 -15 -78.5q-15 -32.5 -38 -56.5q-23 -24 -49 -42.5q-26 -18.5 -49 -36.5q-23 -18 -38 -39q-15 -21 -15 -49l-44 0q0 36 15 61.5q15 25.5 37.5 45.5q22.5 20 48.5 37.5q26 17.5 48.5 38.5q22.5 21 37.5 49q15 28 15 68q0 63 -39.5 98q-39.5 35 -113.5 35q-65 0 -112.5 -25.5q-47.5 -25.5 -79.5 -69.5zM184 35q0 17 9.5 29q9.5 12 31.5 12q23 0 32.5 -12q9.5 -12 9.5 -29q0 -17 -9.5 -29q-9.5 -12 -32.5 -12q-23 0 -32 12t-9 29z" />
<glyph unicode="&#64;" horiz-adv-x="960" d="M624 501h37v-332q1 -38 15.5 -53.5q14.5 -15.5 50.5 -15.5q55 0 91.5 44.5q36.5 44.5 37.5 138.5q0 84 -26.5 153.5q-26.5 69.5 -76 119q-49.5 49.5 -119 76.5q-69.5 27 -154.5 27q-86 0 -155.5 -27q-69.5 -27 -118.5 -76q-49 -49 -75.5 -117.5q-26.5 -68.5 -26.5 -151.5q0 -83 26 -152q26 -69 74 -118.5q48 -49.5 116 -77q68 -27.5 152 -28.5q62 -1 114 20.5q52 21.5 84 61.5l0 -73q-31 -20 -84 -35.5q-53 -15.5 -114 -14.5q-95 1 -171 32.5q-76 31.5 -129.5 86.5q-53.5 55 -82.5 131q-29 76 -29 166q1 91 30.5 167q29.5 76 84 131q54.5 55 132 85.5q77.5 30.5 173.5 30.5q96 0 174 -31q78 -31 132.5 -86q54.5 -55 84 -132q29.5 -77 29.5 -168q-1 -106 -48.5 -163q-47.5 -57 -126.5 -57q-48 0 -73 23q-25 23 -28 85q-7 -20 -19.5 -39.5q-12.5 -19.5 -33 -35q-20.5 -15.5 -49 -25q-28.5 -9.5 -67.5 -9.5q-42 0 -76.5 12.5q-34.5 12.5 -59 38.5q-24.5 26 -38.5 66q-14 40 -14 95q0 63 14 107q14 44 39.5 71.5q25.5 27.5 61 40q35.5 12.5 78.5 12.5q63 0 105.5 -29q42.5 -29 58.5 -74l0 24zM623 306q0 77 -43 120.5q-43 43.5 -115 43.5q-35 0 -64.5 -10q-29.5 -10 -50.5 -33q-21 -23 -32.5 -59.5q-11.5 -36.5 -11.5 -89.5q0 -48 11.5 -82q11.5 -34 32.5 -56q21 -22 50 -32q29 -10 65 -10q79 0 118.5 44.5q39.5 44.5 39.5 119.5z" />
<glyph unicode="&#65;" horiz-adv-x="699" d="M374 700l313 -700h-52l-92 205h-391l-90 -205h-51l312 700zM172 249h352l-177 396z" />
<glyph unicode="&#66;" horiz-adv-x="690" d="M100 0v700h291q103 0 159.5 -40q56.5 -40 56.5 -130q0 -64 -30.5 -105.5q-30.5 -41.5 -88.5 -59.5q69 -11 104.5 -51.5q35.5 -40.5 35.5 -109.5q0 -54 -17.5 -93q-17.5 -39 -50.5 -63.5q-33 -24.5 -80.5 -36q-47.5 -11.5 -106.5 -11.5zM378 44q98 0 150 39q52 39 52 120q0 136 -185 136h-247v-295zM389 380q41 0 73 11q32 11 53.5 30.5q21.5 19.5 32.5 45q11 25.5 11 55.5q0 70 -43.5 102q-43.5 32 -134.5 32h-233l0 -276z" />
<glyph unicode="&#67;" horiz-adv-x="698" d="M658 81q-13 -16 -37 -32q-24 -16 -56.5 -29q-32.5 -13 -73 -21.5q-40.5 -8.5 -86.5 -8.5q-83 1 -149 27q-66 26 -112 72.5q-46 46.5 -70 112.5q-24 66 -24 149q0 78 25.5 143.5q25.5 65.5 72 113.5q46.5 48 112.5 75q66 27 147 27q43 0 80.5 -7.5q37.5 -7.5 68 -19q30.5 -11.5 53 -26q22.5 -14.5 36.5 -28.5l0 -83q-15 27 -39.5 49q-24.5 22 -55.5 37.5q-31 15.5 -67.5 24.5q-36.5 9 -75.5 9q-68 0 -124 -22.5q-56 -22.5 -97 -63.5q-41 -41 -63.5 -99.5q-22.5 -58.5 -22.5 -130.5q0 -68 20 -125q20 -57 58.5 -98.5q38.5 -41.5 94.5 -65.5q56 -24 128 -27q48 0 88.5 10q40.5 10 73 27q32.5 17 56.5 39.5q24 22.5 39 47.5z" />
<glyph unicode="&#68;" horiz-adv-x="745" d="M328 700q177 0 272 -87q95 -87 95 -249q0 -99 -30 -168q-30 -69 -82 -112.5q-52 -43.5 -121.5 -63.5q-69.5 -20 -147.5 -20h-214v700zM309 44q79 0 141 20q62 20 105.5 59.5q43.5 39.5 66.5 98.5q23 59 23 137q0 147 -83.5 222q-83.5 75 -242.5 75h-171l0 -612z" />
<glyph unicode="&#69;" horiz-adv-x="629" d="M529 338h-381v-294h430v-44h-478v700h467v-44h-419v-274l381 0z" />
<glyph unicode="&#70;" horiz-adv-x="604" d="M548 308h-400v-308h-48v700h468v-44h-420v-304l400 0z" />
<glyph unicode="&#71;" horiz-adv-x="739" d="M407 -10q-84 1 -150 26.5q-66 25.5 -112 72q-46 46.5 -70.5 113q-24.5 66.5 -24.5 149.5q0 77 25 142.5q25 65.5 71.5 113.5q46.5 48 112 75.5q65.5 27.5 146.5 27.5q43 0 80.5 -7.5q37.5 -7.5 68 -19q30.5 -11.5 53 -26q22.5 -14.5 36.5 -28.5l0 -83q-15 27 -39.5 49q-24.5 22 -55.5 37.5q-31 15.5 -67.5 24.5q-36.5 9 -75.5 9q-67 0 -123 -23q-56 -23 -96.5 -64q-40.5 -41 -63 -99q-22.5 -58 -22.5 -130q0 -70 21 -128q21 -58 61.5 -99.5q40.5 -41.5 99 -65q58.5 -23.5 133.5 -23.5q75 1 129.5 23q54.5 22 80.5 50l0 201h-225v44h270v-263q-14 -18 -40 -36q-26 -18 -61 -32q-35 -14 -76.5 -22.5t-85.5 -8.5z" />
<glyph unicode="&#72;" horiz-adv-x="788" d="M640 338h-492v-338h-48v700h48v-318h492v318h48v-700l-48 0z" />
<glyph unicode="&#73;" horiz-adv-x="248" d="M148 0h-48v700l48 0z" />
<glyph unicode="&#74;" horiz-adv-x="410" d="M310 162q0 -84 -44 -125.5q-44 -41.5 -118 -41.5q-40 0 -72.5 11.5q-32.5 11.5 -49.5 26.5l0 66q20 -29 52 -44.5q32 -15.5 65 -15.5q57 0 88 31q31 31 31 95v535l48 0z" />
<glyph unicode="&#75;" horiz-adv-x="713" d="M148 0h-48v700h48v-323h149l300 323h62l-319 -341l357 -359h-64l-334 335l-151 0z" />
<glyph unicode="&#76;" horiz-adv-x="604" d="M148 44h430v-44h-478v700l48 0z" />
<glyph unicode="&#77;" horiz-adv-x="905" d="M757 632l-291 -466h-21l-297 459v-625h-48v700h59l298 -467l291 467h57v-700l-48 0z" />
<glyph unicode="&#78;" horiz-adv-x="798" d="M148 625v-625h-48v700h51l499 -625v625h48v-700l-51 0z" />
<glyph unicode="&#79;" horiz-adv-x="814" d="M407 710q84 -1 150 -26.5q66 -25.5 112 -72.5q46 -47 70.5 -113.5q24.5 -66.5 24.5 -148.5q0 -77 -25 -142.5q-25 -65.5 -71.5 -113.5q-46.5 -48 -111.5 -75q-65 -27 -145 -28q-85 1 -152 26q-67 25 -113.5 72q-46.5 47 -71 113.5q-24.5 66.5 -24.5 149.5q0 76 25 141.5q25 65.5 71 113q46 47.5 111.5 75q65.5 27.5 146.5 29.5zM100 350q0 -70 21 -128q21 -58 61.5 -99.5q40.5 -41.5 99 -65q58.5 -23.5 133.5 -23.5q66 1 121 24q55 23 94.5 64q39.5 41 61.5 99q22 58 22 129q0 70 -21 128q-21 58 -61.5 100q-40.5 42 -99 65q-58.5 23 -133.5 23q-66 0 -121 -23q-55 -23 -94.5 -64.5q-39.5 -41.5 -61.5 -99.5t-22 -129z" />
<glyph unicode="&#80;" horiz-adv-x="655" d="M148 246v-246h-48v700h222q134 0 205.5 -53q71.5 -53 71.5 -171q0 -116 -76 -173q-76 -57 -220 -57zM148 656v-366h152q123 0 186 44.5q63 44.5 63 144.5q0 97 -59 137q-59 40 -173 40z" />
<glyph unicode="&#81;" horiz-adv-x="814" d="M572 -180l-143 171q-5 -1 -11 -1q-6 0 -11 0q-84 1 -150 26.5q-66 25.5 -112 72q-46 46.5 -70.5 113q-24.5 66.5 -24.5 149.5q0 76 25 142q25 66 71 114q46 48 112 75.5q66 27.5 149 27.5q84 0 150 -25q66 -25 112 -72.5q46 -47.5 70.5 -114.5q24.5 -67 24.5 -149q0 -68 -19.5 -127.5q-19.5 -59.5 -56.5 -105.5q-37 -46 -89 -76.5q-52 -30.5 -116 -42.5l149 -177zM406 666q-66 0 -122 -23q-56 -23 -97 -64.5q-41 -41.5 -64 -99.5q-23 -58 -23 -129q0 -70 21 -128q21 -58 61.5 -99.5q40.5 -41.5 99 -65q58.5 -23.5 133.5 -23.5q66 1 121 24q55 23 94.5 64q39.5 41 61.5 99q22 58 22 129q0 70 -21.5 128q-21.5 58 -61 100q-39.5 42 -96.5 65t-129 23z" />
<glyph unicode="&#82;" horiz-adv-x="681" d="M396 253q-41 -7 -96 -7h-152v-246h-48v700h219q134 0 205.5 -53q71.5 -53 71.5 -171q0 -82 -38.5 -134q-38.5 -52 -111.5 -76l193 -266h-59zM148 656v-366h149q123 0 186 44.5q63 44.5 63 144.5q0 97 -59 137q-59 40 -173 40z" />
<glyph unicode="&#83;" horiz-adv-x="631" d="M548 547q-15 27 -39.5 49q-24.5 22 -55 37.5q-30.5 15.5 -66.5 24.5q-36 9 -74 9q-91 -2 -141 -35.5q-50 -33.5 -50 -94.5q0 -39 19 -64q19 -25 50.5 -42q31.5 -17 71.5 -29q40 -12 82 -23.5q42 -11.5 82 -25.5q40 -14 71.5 -36q31.5 -22 50.5 -55q19 -33 19 -82q0 -43 -17 -78q-17 -35 -48.5 -60q-31.5 -25 -77 -38.5q-45.5 -13.5 -102.5 -13.5q-47 0 -88.5 8.5q-41.5 8.5 -75.5 21.5q-34 13 -58.5 29q-24.5 16 -38.5 32l0 77q15 -25 40 -47.5q25 -22.5 59 -39.5q34 -17 76 -27q42 -10 91 -10q40 0 75 8.5q35 8.5 60.5 26.5q25.5 18 40 45.5q14.5 27.5 14.5 64.5q0 39 -19 65q-19 26 -50.5 43.5q-31.5 17.5 -71.5 29q-40 11.5 -81.5 23q-41.5 11.5 -81.5 25.5q-40 14 -71.5 36q-31.5 22 -50.5 54q-19 32 -19 80q0 43 18 76q18 33 50.5 55q32.5 22 76.5 33.5q44 11.5 95 11.5q42 0 79 -7.5q37 -7.5 67 -19q30 -11.5 52.5 -26q22.5 -14.5 36.5 -28.5l0 -83z" />
<glyph unicode="&#84;" horiz-adv-x="614" d="M604 656h-273v-656h-48v656h-273v44l594 0z" />
<glyph unicode="&#85;" horiz-adv-x="750" d="M143 287q0 -69 16.5 -117.5q16.5 -48.5 47 -78.5q30.5 -30 75 -43.5q44.5 -13.5 100.5 -13.5q50 0 91.5 13q41.5 13 71 41.5q29.5 28.5 46 74.5q16.5 46 16.5 112v425h48v-422q0 -78 -20 -133q-20 -55 -57 -89.5q-37 -34.5 -88 -50q-51 -15.5 -113 -15.5q-282 0 -282 289v421l48 0z" />
<glyph unicode="&#86;" horiz-adv-x="689" d="M324 0l-313 700h52l283 -634l281 634h51l-312 -700z" />
<glyph unicode="&#87;" horiz-adv-x="928" d="M74 700l166 -616l209 616h43l204 -616l160 616h48l-180 -700h-46l-209 622l-214 -622h-47l-184 700z" />
<glyph unicode="&#88;" horiz-adv-x="652" d="M290 359l-253 341h57l229 -308l243 308h56l-267 -338l278 -362h-57l-254 328l-247 -328l-56 0z" />
<glyph unicode="&#89;" horiz-adv-x="626" d="M338 280v-280h-48v280l-282 420h56l252 -373l247 373l55 0z" />
<glyph unicode="&#90;" horiz-adv-x="612" d="M46 700h537v-30l-486 -626h475v-44h-542v30l487 626l-471 0z" />
<glyph unicode="&#91;" horiz-adv-x="328" d="M80 750h212v-44h-168v-842h170v-44l-214 0z" />
<glyph unicode="&#92;" horiz-adv-x="278" d="M298 -180h-46l-248 930l46 0z" />
<glyph unicode="&#93;" horiz-adv-x="329" d="M249 -180h-212v44h168v842h-171v44l215 0z" />
<glyph unicode="&#94;" horiz-adv-x="584" d="M73 351l182 349h74l182 -349h-51l-168 326l-168 -326z" />
<glyph unicode="&#95;" horiz-adv-x="260" d="M0 -136h260v-44l-260 0z" />
<glyph unicode="&#96;" horiz-adv-x="264" d="M72 750h74l100 -160l-34 0z" />
<glyph unicode="&#97;" horiz-adv-x="517" d="M247 238q-77 0 -117 -21.5q-40 -21.5 -40 -75.5q0 -50 35 -78q35 -28 95 -28q42 0 74.5 14.5q32.5 14.5 54.5 37q22 22.5 33.5 49q11.5 26.5 12.5 51.5l0 51zM79 460q25 20 68.5 35q43.5 15 101.5 15q45 0 80.5 -9q35.5 -9 60 -30q24.5 -21 37.5 -56q13 -35 13 -87v-328h-43v114q-20 -56 -70 -89q-50 -33 -118 -33q-75 0 -120 38q-45 38 -45 108q0 39 14 65.5q14 26.5 40.5 42.5q26.5 16 64 23q37.5 7 84.5 7h148v51q0 75 -35.5 108.5q-35.5 33.5 -110.5 33.5q-59 0 -101.5 -21q-42.5 -21 -68.5 -61z" />
<glyph unicode="&#98;" horiz-adv-x="592" d="M128 750v-367q7 23 22 46q15 23 38.5 41q23.5 18 57 29q33.5 11 79.5 11q49 0 89.5 -14.5q40.5 -14.5 70 -45q29.5 -30.5 45.5 -77.5q16 -47 16 -112q0 -74 -16.5 -125.5q-16.5 -51.5 -46.5 -84q-30 -32.5 -72 -47.5q-42 -15 -92 -15q-76 0 -125.5 34.5q-49.5 34.5 -67.5 88.5l0 -112h-43v750zM313 31q42 0 76 12q34 12 59 38.5q25 26.5 38.5 69.5q13.5 43 13.5 105q0 57 -13.5 97q-13.5 40 -38 65.5q-24.5 25.5 -59 37.5q-34.5 12 -76.5 12q-86 0 -132.5 -45.5q-46.5 -45.5 -52.5 -122.5l0 -103q8 -78 57.5 -122t127.5 -44z" />
<glyph unicode="&#99;" horiz-adv-x="498" d="M450 51q-17 -23 -58 -42q-41 -19 -105 -19q-112 0 -176.5 65q-64.5 65 -64.5 197q0 64 18.5 112q18.5 48 50.5 80.5q32 32.5 75.5 49q43.5 16.5 94.5 16.5q51 0 93 -15q42 -15 67 -35l0 -73q-26 40 -67.5 61q-41.5 21 -92.5 21q-88 0 -140.5 -54q-52.5 -54 -52.5 -163v-3q0 -112 53 -165q53 -53 142 -53q63 0 103.5 24q40.5 24 59.5 58l0 -62z" />
<glyph unicode="&#100;" horiz-adv-x="593" d="M509 750v-750h-42v125q-7 -24 -21 -48.5q-14 -24.5 -37.5 -44q-23.5 -19.5 -58.5 -31.5q-35 -12 -83 -12q-49 0 -89.5 14.5q-40.5 14.5 -69.5 45q-29 30.5 -45 77.5q-16 47 -16 112q0 74 16.5 125.5q16.5 51.5 46.5 84q30 32.5 71.5 47.5q41.5 15 92.5 15q74 0 123 -33.5q49 -33.5 68 -86.5l0 360zM465 276q0 90 -50.5 141q-50.5 51 -135.5 51q-41 0 -75.5 -12q-34.5 -12 -59.5 -38.5q-25 -26.5 -38.5 -69.5q-13.5 -43 -13.5 -105q0 -57 13.5 -97q13.5 -40 38.5 -65.5q25 -25.5 59 -37.5q34 -12 76 -12q90 0 137 50.5q47 50.5 49 133.5z" />
<glyph unicode="&#101;" horiz-adv-x="546" d="M285 510q102 0 159 -62q57 -62 57 -174v-37h-409q3 -106 55.5 -156q52.5 -50 139.5 -50q72 0 118 24q46 24 66 58l0 -62q-19 -23 -64.5 -42q-45.5 -19 -119.5 -19q-112 0 -176.5 65q-64.5 65 -64.5 197q0 64 18.5 112q18.5 48 50.5 80.5q32 32.5 75.5 49q43.5 16.5 94.5 16.5zt0 0zM285 469q-83 0 -134.5 -48q-51.5 -48 -57.5 -144l363 0v3q0 94 -47.5 141.5t-123.5 47.5z" />
<glyph unicode="&#102;" horiz-adv-x="335" d="M114 500v74q0 49 12.5 83.5q12.5 34.5 34 56.5q21.5 22 50 31.5q28.5 9.5 61.5 9.5q38 0 60.5 -10q22.5 -10 32.5 -18l0 -62q-14 21 -39.5 33.5q-25.5 12.5 -56.5 12.5q-22 0 -42 -6q-20 -6 -35 -22q-15 -16 -24 -42.5q-9 -26.5 -9 -66.5v-74h167v-42h-167v-458h-45v458h-90l0 42z" />
<glyph unicode="&#103;" horiz-adv-x="593" d="M465 119q-8 -24 -22 -47.5q-14 -23.5 -37.5 -41.5q-23.5 -18 -57.5 -29.5q-34 -11.5 -81 -11.5q-49 0 -89.5 14.5q-40.5 14.5 -69.5 45q-29 30.5 -45 77.5q-16 47 -16 112q0 74 16.5 125.5q16.5 51.5 46.5 84q30 32.5 71.5 47.5q41.5 15 92.5 15q75 0 125 -35q50 -35 68 -89l0 19v95h43v-476q0 -111 -58 -161q-58 -50 -173 -50q-32 0 -62 6q-30 6 -54.5 15q-24.5 9 -43.5 20.5q-19 11.5 -29 22.5l0 68q10 -17 27.5 -33q17.5 -16 41 -29q23.5 -13 54 -20.5q30.5 -7.5 67.5 -7.5q91 0 138 39q47 39 47 129zM465 276q0 90 -50.5 141q-50.5 51 -135.5 51q-41 0 -75.5 -12q-34.5 -12 -59.5 -38.5q-25 -26.5 -38.5 -69.5q-13.5 -43 -13.5 -105q0 -57 13.5 -97q13.5 -40 38.5 -65.5q25 -25.5 59 -37.5q34 -12 76 -12q90 0 137 50.5q47 50.5 49 133.5z" />
<glyph unicode="&#104;" horiz-adv-x="579" d="M457 315q0 84 -39.5 118.5q-39.5 34.5 -114.5 34.5q-89 0 -132 -47q-43 -47 -43 -128v-293h-45v750h45v-356q15 50 61.5 82.5q46.5 32.5 127.5 32.5h2q87 -1 135 -44.5q48 -43.5 48 -135.5v-329l-45 0z" />
<glyph unicode="&#105;" horiz-adv-x="240" d="M86 726q0 14 9.5 23q9.5 9 24.5 9q16 0 25 -9q9 -9 9 -23q0 -14 -9 -23q-9 -9 -25 -9q-15 0 -24.5 9q-9.5 9 -9.5 23zt0 0zM98 500h45v-500l-45 0z" />
<glyph unicode="&#106;" horiz-adv-x="237" d="M97 500h45v-534q0 -74 -27 -113q-27 -39 -95 -39q-23 0 -43 6q-20 6 -31 13l0 59q29 -34 75 -34q18 0 32.5 5q14.5 5 24 17q9.5 12 14.5 32.5q5 20.5 5 51.5zM85 726q0 14 9.5 23q9.5 9 25.5 9q16 0 25 -9q9 -9 9 -23q0 -14 -9.5 -23q-9.5 -9 -24.5 -9q-16 0 -25.5 9t-9.5 23z" />
<glyph unicode="&#107;" horiz-adv-x="525" d="M128 750v-473h112l177 223h53l-192 -239l224 -261h-58l-204 237h-112v-237h-45l0 750z" />
<glyph unicode="&#108;" horiz-adv-x="296" d="M278 6q-12 -7 -33.5 -11.5q-21.5 -4.5 -43.5 -4.5q-59 0 -88.5 30q-29.5 30 -29.5 95v635h45v-623q0 -51 18.5 -72q18.5 -21 61.5 -21q18 0 38 4q20 4 32 10z" />
<glyph unicode="&#109;" horiz-adv-x="847" d="M404 325q0 67 -30 105q-30 38 -101 38q-36 0 -63 -12.5q-27 -12.5 -45 -34.5q-18 -22 -27.5 -52q-9.5 -30 -9.5 -65v-304h-45v500h44v-104q12 50 53.5 82q41.5 32 103.5 32q68 0 108 -32.5q40 -32.5 52 -86.5q14 54 56 86.5q42 32.5 105 32.5q80 0 122.5 -44q42.5 -44 42.5 -134v-332h-45v320q0 74 -30.5 111q-30.5 37 -99.5 37q-37 0 -64.5 -12q-27.5 -12 -45.5 -34q-18 -22 -27 -51.5q-9 -29.5 -9 -64.5v-306l-45 0z" />
<glyph unicode="&#110;" horiz-adv-x="579" d="M457 315q0 84 -39.5 118.5q-39.5 34.5 -114.5 34.5q-89 0 -132 -47q-43 -47 -43 -128v-293h-45v500h44v-106q16 50 62.5 82.5q46.5 32.5 127.5 32.5q88 0 136.5 -43.5q48.5 -43.5 48.5 -136.5v-329l-45 0z" />
<glyph unicode="&#111;" horiz-adv-x="572" d="M46 252q0 64 18.5 112q18.5 48 50.5 80.5q32 32.5 75.5 49q43.5 16.5 94.5 16.5q111 -1 175.5 -66.5q64.5 -65.5 64.5 -195.5q0 -64 -18.5 -112q-18.5 -48 -50.5 -80.5q-32 -32.5 -75.5 -49q-43.5 -16.5 -94.5 -16.5q-112 1 -176 65.5q-64 64.5 -64 196.5zt0 0zM92 249q0 -112 52.5 -165q52.5 -53 141.5 -53q88 0 140.5 54q52.5 54 52.5 163v3q0 112 -53 165q-53 53 -142 53q-88 -1 -140 -55q-52 -54 -52 -162z" />
<glyph unicode="&#112;" horiz-adv-x="592" d="M83 500h43v-111v-12q7 24 21.5 48q14.5 24 38 42.5q23.5 18.5 58 30.5q34.5 12 82.5 12q49 0 89.5 -14.5q40.5 -14.5 69.5 -45q29 -30.5 45 -77.5q16 -47 16 -112q0 -74 -16.5 -125.5q-16.5 -51.5 -46.5 -84q-30 -32.5 -71.5 -47.5q-41.5 -15 -92.5 -15q-75 0 -123.5 33q-48.5 33 -67.5 87l0 -289h-45zM128 223q0 -90 50.5 -141q50.5 -51 135.5 -51q41 0 75.5 12q34.5 12 59 38.5q24.5 26.5 38.5 69.5q14 43 14 105q0 57 -13.5 97q-13.5 40 -38.5 65.5q-25 25.5 -59 37.5q-34 12 -76 12q-90 0 -137 -51q-47 -51 -49 -134z" />
<glyph unicode="&#113;" horiz-adv-x="593" d="M466 500h44v-680h-45v299q-8 -24 -22 -47.5q-14 -23.5 -38 -41.5q-24 -18 -58 -29.5q-34 -11.5 -80 -11.5q-49 0 -89.5 14.5q-40.5 14.5 -70 45q-29.5 30.5 -45.5 77.5q-16 47 -16 112q0 74 16.5 125.5q16.5 51.5 46.5 84q30 32.5 72 47.5q42 15 92 15q75 0 124.5 -34.5q49.5 -34.5 68.5 -88.5zM279 468q-42 0 -76 -12q-34 -12 -59 -38.5q-25 -26.5 -38.5 -69.5q-13.5 -43 -13.5 -105q0 -57 13.5 -97q13.5 -40 38 -65.5q24.5 -25.5 59 -37.5q34.5 -12 76.5 -12q92 0 139 53q47 53 47 140v61q-3 86 -53.5 134.5t-132.5 48.5z" />
<glyph unicode="&#114;" horiz-adv-x="358" d="M258 468q-67 0 -99 -47q-32 -47 -31 -128l0 -293h-45v500h44v-106q11 49 45 81.5q34 32.5 94 33.5q18 0 36 -5q18 -5 26 -12l0 -53q-24 27 -70 29z" />
<glyph unicode="&#115;" horiz-adv-x="478" d="M408 387q-26 40 -67.5 61q-41.5 21 -92.5 21h-2q-63 0 -101 -23.5q-38 -23.5 -38 -69.5q0 -35 23.5 -54q23.5 -19 59 -31q35.5 -12 76.5 -21q41 -9 76.5 -24q35.5 -15 59 -41q23.5 -26 23.5 -71q0 -69 -48 -106q-48 -37 -141 -38q-66 0 -112 19q-46 19 -66 42l0 62q22 -34 68 -58q46 -24 110 -24q69 0 106.5 25.5q37.5 25.5 37.5 73.5q0 36 -23.5 55q-23.5 19 -59 31.5q-35.5 12.5 -76.5 21.5q-41 9 -76.5 24q-35.5 15 -59 40.5q-23.5 25.5 -23.5 69.5q0 60 46 99q46 39 140 39q51 0 93 -15q42 -15 67 -35l0 -73z" />
<glyph unicode="&#116;" horiz-adv-x="409" d="M122 500v109l46 19v-128h198v-42h-198v-312q0 -65 24 -89.5q24 -24.5 80 -24.5q35 0 62.5 7.5q27.5 7.5 49.5 18.5l0 -41q-17 -10 -48 -18.5q-31 -8.5 -66 -8.5q-75 0 -111.5 33q-36.5 33 -36.5 112v323h-96l0 42z" />
<glyph unicode="&#117;" horiz-adv-x="573" d="M122 185q0 -83 38 -117.5q38 -34.5 110 -35.5l3 0q88 0 130 47q42 47 42 128v293h45v-500h-44v106q-16 -50 -60.5 -82q-44.5 -32 -123.5 -33l-2 0h-2q-86 2 -133.5 45q-47.5 43 -47.5 135v329l45 0z" />
<glyph unicode="&#118;" horiz-adv-x="489" d="M16 500h50l183 -435l176 435h48l-207 -500l-38 0z" />
<glyph unicode="&#119;" horiz-adv-x="743" d="M30 500h47l117 -433l157 433h44l160 -430l113 430h45l-135 -500h-46l-159 440l-162 -440l-46 0z" />
<glyph unicode="&#120;" horiz-adv-x="482" d="M210 257l-179 243h57l151 -207l156 207h54l-183 -239l197 -261h-56l-169 225l-165 -225l-54 0z" />
<glyph unicode="&#121;" horiz-adv-x="502" d="M26 500h52l195 -443l166 443h49l-213 -553q-29 -74 -60.5 -104q-31.5 -30 -71.5 -30q-20 0 -38.5 5.5q-18.5 5.5 -28.5 13.5l0 54q10 -11 27.5 -20q17.5 -9 37.5 -9q13 0 26 5.5q13 5.5 26.5 20.5q13.5 15 27.5 42.5q14 27.5 28 72.5z" />
<glyph unicode="&#122;" horiz-adv-x="462" d="M32 0v35l334 423h-317v42h377v-35l-337 -423h338l0 -42z" />
<glyph unicode="&#123;" horiz-adv-x="388" d="M34 307q59 0 84.5 31.5q25.5 31.5 25.5 88.5v189q0 73 31.5 103.5q31.5 30.5 101.5 30.5h77v-44h-76q-49 0 -69.5 -20.5q-20.5 -20.5 -20.5 -70.5v-189q0 -59 -21 -94q-21 -35 -80 -47q59 -12 80 -47.5q21 -35.5 21 -93.5v-189q0 -50 20.5 -70.5q20.5 -20.5 69.5 -20.5h76v-44h-77q-70 0 -101.5 30.5q-31.5 30.5 -31.5 103.5v189q0 57 -25.5 88.5q-25.5 31.5 -84.5 31.5z" />
<glyph unicode="&#124;" horiz-adv-x="244" d="M100 750h44v-930l-44 0z" />
<glyph unicode="&#125;" horiz-adv-x="388" d="M354 263q-59 0 -84.5 -31.5q-25.5 -31.5 -25.5 -88.5v-189q0 -73 -31.5 -103.5q-31.5 -30.5 -101.5 -30.5h-77v44h76q49 0 69.5 20.5q20.5 20.5 20.5 70.5v189q0 58 21 93.5q21 35.5 80 47.5q-59 12 -80 47q-21 35 -21 94v189q0 50 -20.5 70.5q-20.5 20.5 -69.5 20.5h-76v44h77q70 0 101.5 -30.5q31.5 -30.5 31.5 -103.5v-189q0 -57 25.5 -88.5q25.5 -31.5 84.5 -31.5z" />
<glyph unicode="&#126;" horiz-adv-x="584" d="M82 347q23 22 52 34q29 12 59 12q30 0 57.5 -13.5q27.5 -13.5 53.5 -29.5q26 -16 52 -29.5q26 -13.5 54 -13.5q26 0 51 11.5q25 11.5 41 33.5l0 -51q-20 -19 -45.5 -28.5q-25.5 -9.5 -50.5 -9.5q-34 0 -62 13.5q-28 13.5 -53.5 29.5q-25.5 16 -50.5 29.5q-25 13.5 -52 13.5q-31 0 -56.5 -13q-25.5 -13 -49.5 -36z" />
<glyph unicode="&#160;" horiz-adv-x="260" />
<glyph unicode="&#161;" horiz-adv-x="299" d="M125 270h48v-470h-48zM191 465q0 -17 -9.5 -29q-9.5 -12 -32.5 -12q-23 0 -32.5 12q-9.5 12 -9.5 29q0 17 9.5 29q9.5 12 32.5 12q23 0 32.5 -12t9.5 -29z" />
<glyph unicode="&#162;" horiz-adv-x="518" d="M460 51q-17 -23 -54.5 -41q-37.5 -18 -95.5 -20l0 -118h-44v120q-99 8 -154 72.5q-55 64.5 -55 187.5q0 59 15.5 104.5q15.5 45.5 43.5 78q28 32.5 66.5 50.5q38.5 18 83.5 23l0 120h44v-119q46 -2 84 -16q38 -14 61 -33l0 -73q-26 40 -67.5 61q-41.5 21 -92.5 21q-88 0 -140.5 -54q-52.5 -54 -52.5 -163v-3q0 -112 53 -165q53 -53 142 -53q63 0 103.5 24q40.5 24 59.5 58l0 -62z" />
<glyph unicode="&#163;" horiz-adv-x="620" d="M164 367v118q0 103 52 164q52 61 155 61q51 0 93 -15q42 -15 67 -35l0 -73q-26 40 -67.5 61q-41.5 21 -92.5 21q-79 0 -120.5 -47q-41.5 -47 -41.5 -130v-125h291v-44h-291v-279h331v-44h-461v44h85v279h-84l0 44z" />
<glyph unicode="&#164;" horiz-adv-x="620" d="M146 368q0 59 31 99l-91 92l31 31l92 -93q44 30 106 30q55 0 96 -27l90 90l31 -31l-90 -90q31 -40 31 -101q0 -61 -31 -101l92 -92l-31 -31l-93 92q-20 -14 -46 -22q-26 -8 -57 -8q-57 0 -97 28l-92 -92l-31 31l92 92q-33 42 -33 103zt0 0zM187 368q0 -54 34.5 -87.5q34.5 -33.5 90.5 -33.5q56 0 88.5 33q32.5 33 32.5 88q0 56 -33 87q-33 31 -90 31q-56 0 -89.5 -31t-33.5 -87z" />
<glyph unicode="&#165;" horiz-adv-x="620" d="M257 327l-239 373h53l242 -373l238 373h52l-239 -373h156v-44h-185v-117h185v-44h-185v-122h-48v122h-187v44h187v117h-187l0 44z" />
<glyph unicode="&#166;" horiz-adv-x="283" d="M113 200h45v-380h-45zM113 750h45v-380l-45 0z" />
<glyph unicode="&#167;" horiz-adv-x="519" d="M420 586q-26 40 -67.5 61q-41.5 21 -92.5 21q-58 -1 -85.5 -23.5q-27.5 -22.5 -27.5 -53.5q0 -30 22 -48.5q22 -18.5 54.5 -32.5q32.5 -14 70.5 -26q38 -12 70.5 -30q32.5 -18 54.5 -45.5q22 -27.5 22 -70.5q0 -51 -27 -86.5q-27 -35.5 -80 -51.5q38 -17 63.5 -42.5q25.5 -25.5 25.5 -70.5q0 -53 -40.5 -88.5q-40.5 -35.5 -126.5 -36.5q-51 0 -93 15q-42 15 -67 35l0 73q26 -40 67.5 -61q41.5 -21 92.5 -21q56 0 89 22q33 22 33 60q0 31 -22 49.5q-22 18.5 -55.5 32q-33.5 13.5 -72.5 24.5q-39 11 -72.5 28.5q-33.5 17.5 -55.5 44.5q-22 27 -22 71q0 54 29 89q29 35 86 49q-38 17 -64.5 43q-26.5 26 -26.5 72q0 49 37 84q37 35 121 37q51 0 93 -15q42 -15 67 -35zM123 343q0 -29 14 -48.5q14 -19.5 36.5 -33q22.5 -13.5 51.5 -23q29 -9.5 58 -19.5q22 5 42.5 14q20.5 9 36 22.5q15.5 13.5 25 32.5q9.5 19 9.5 45q0 27 -13 45q-13 18 -34 31.5q-21 13.5 -47.5 23.5q-26.5 10 -54.5 20q-62 -8 -93 -36.5t-31 -73.5z" />
<glyph unicode="&#168;" horiz-adv-x="356" d="M248 726q0 14 9.5 23q9.5 9 24.5 9q16 0 25 -9q9 -9 9 -23q0 -14 -9 -23q-9 -9 -25 -9q-15 0 -24.5 9q-9.5 9 -9.5 23zt0 0zM40 726q0 14 9.5 23q9.5 9 24.5 9q16 0 25 -9q9 -9 9 -23q0 -14 -9 -23q-9 -9 -25 -9q-15 0 -24.5 9t-9.5 23z" />
<glyph unicode="&#169;" horiz-adv-x="959" d="M60 287q1 90 30.5 166q29.5 76 84 130.5q54.5 54.5 131.5 85.5q77 31 173 31q96 0 174 -31q78 -31 132.5 -86q54.5 -55 84 -132q29.5 -77 29.5 -168q-1 -90 -31 -166q-30 -76 -84 -130.5q-54 -54.5 -131 -85.5q-77 -31 -173 -31q-96 0 -174 30.5q-78 30.5 -132.5 86q-54.5 55.5 -84 131.5q-29.5 76 -29.5 168zM479 659q-86 0 -155 -27q-69 -27 -118 -76q-49 -49 -75.5 -117.5q-26.5 -68.5 -26.5 -151.5q0 -84 26.5 -153.5q26.5 -69.5 75.5 -118.5q49 -49 118 -76.5q69 -27.5 155 -27.5q86 0 155 27q69 27 118 75.5q49 48.5 75.5 117q26.5 68.5 27.5 152.5q0 84 -26.5 153.5q-26.5 69.5 -76 119q-49.5 49.5 -119 76.5q-69.5 27 -154.5 27zt0 0zM635 115q-16 -20 -53 -36q-37 -16 -95 -16q-102 0 -160 56q-58 56 -58 169q0 55 16.5 96.5q16.5 41.5 45.5 69.5q29 28 68.5 42q39.5 14 85.5 14q46 0 84.5 -13q38.5 -13 60.5 -30l0 -63q-23 35 -60.5 53q-37.5 18 -84.5 18q-80 0 -127.5 -46.5q-47.5 -46.5 -47.5 -140.5v-2q0 -96 48.5 -142q48.5 -46 128.5 -46q57 0 94 21q37 21 54 50z" />
<glyph unicode="&#170;" horiz-adv-x="417" d="M83 632q17 9 50 20.5q33 11.5 87 11.5q27 -1 49.5 -6q22.5 -5 38.5 -16.5q16 -11.5 24.5 -30.5q8.5 -19 8.5 -49v-212h-37v66q-16 -30 -49 -50.5q-33 -20.5 -80 -20.5q-52 0 -81.5 25q-29.5 25 -29.5 69q0 26 10 43q10 17 28.5 27.5q18.5 10.5 45 14.5q26.5 4 58.5 4h97v29q0 36 -23.5 51.5q-23.5 15.5 -63.5 17.5q-42 0 -77 -14.5q-35 -14.5 -56 -38.5zM303 499h-96q-51 0 -76 -13.5q-25 -13.5 -25 -44.5q0 -26 19.5 -42q19.5 -16 57.5 -16q28 0 49 8.5q21 8.5 36 20.5q15 12 24 25.5q9 13.5 11 24.5z" />
<glyph unicode="&#171;" horiz-adv-x="471" d="M415 32l-195 218l195 218v-58l-144 -160l144 -161zM235 32l-195 218l195 218v-58l-144 -160l144 -161z" />
<glyph unicode="&#172;" horiz-adv-x="584" d="M457 323h-375v44h420v-206l-45 0z" />
<glyph unicode="&#173;" horiz-adv-x="410" d="M77 318h256v-46l-256 0z" />
<glyph unicode="&#174;" horiz-adv-x="623" d="M311 708q58 0 104.5 -18.5q46.5 -18.5 79.5 -51.5q33 -33 50.5 -79q17.5 -46 17.5 -101q-1 -54 -18.5 -99.5q-17.5 -45.5 -50 -78.5q-32.5 -33 -79 -51.5q-46.5 -18.5 -103.5 -18.5q-58 0 -104.5 18.5q-46.5 18.5 -79.5 52q-33 33.5 -50.5 79.5q-17.5 46 -17.5 101q0 54 18 99q18 45 50.5 78q32.5 33 79 51.5q46.5 18.5 103.5 18.5zt0 0zM537 458q0 51 -16 92.5q-16 41.5 -45.5 71q-29.5 29.5 -71.5 46q-42 16.5 -93 16.5q-52 0 -93.5 -16.5q-41.5 -16.5 -70.5 -46q-29 -29.5 -45 -71q-16 -41.5 -16 -90.5q0 -51 16 -92.5q16 -41.5 45.5 -71q29.5 -29.5 71.5 -45.5q42 -16 93 -16q51 0 92.5 16q41.5 16 70.5 45.5q29 29.5 45 70.5q16 41 17 91zt0 0zM214 593h91q63 0 91.5 -21q28.5 -21 28.5 -68q0 -29 -18.5 -48.5q-18.5 -19.5 -49.5 -26.5l87 -101h-31l-84 98h-89v-98h-26zM399 504q0 38 -23.5 52.5q-23.5 14.5 -71.5 14.5h-64v-125h82q35 0 55.5 15.5t21.5 42.5z" />
<glyph unicode="&#175;" horiz-adv-x="380" d="M40 682h300v-41l-300 0z" />
<glyph unicode="&#176;" horiz-adv-x="479" d="M76 548q0 36 12 65.5q12 29.5 34.5 50.5q22.5 21 53 32q30.5 11 68.5 11q72 0 115.5 -42q43.5 -42 43.5 -117q0 -75 -45.5 -118.5q-45.5 -43.5 -120.5 -43.5q-36 0 -65.5 12q-29.5 12 -51 33q-21.5 21 -33 51q-11.5 30 -11.5 66zt0 0zM117 548q0 -54 34.5 -87.5q34.5 -33.5 90.5 -33.5q55 0 88 33q33 33 33 88q0 56 -33 87q-33 31 -90 31q-56 0 -89.5 -31t-33.5 -87z" />
<glyph unicode="&#177;" horiz-adv-x="584" d="M266 373h-184v44h184v181h44v-181h192v-44h-192v-111h-44zM502 192v-44h-420l0 44z" />
<glyph unicode="&#178;" horiz-adv-x="412" d="M347 450h-293v24q67 38 111.5 66.5q44.5 28.5 71.5 52q27 23.5 38 45q11 21.5 11 47.5q0 35 -23 57q-23 22 -68 24q-38 2 -73 -13.5q-35 -15.5 -56 -39.5l0 59q17 9 49.5 21q32.5 12 83.5 11q60 -1 93.5 -30q33.5 -29 33.5 -81q0 -23 -6 -44q-6 -21 -22.5 -43q-16.5 -22 -45 -45.5q-28.5 -23.5 -73.5 -50.5l-39 -24l207 0z" />
<glyph unicode="&#179;" horiz-adv-x="399" d="M63 772q17 9 49.5 20.5q32.5 11.5 83.5 11.5q63 0 94 -25.5q31 -25.5 31 -66.5q0 -29 -17.5 -49.5q-17.5 -20.5 -47.5 -30.5q45 -7 66 -27.5q21 -20.5 21 -54.5q0 -48 -39 -76q-39 -28 -114 -28q-53 1 -84.5 14q-31.5 13 -45.5 24l0 59q17 -25 51.5 -42q34.5 -17 81.5 -17q51 0 80.5 17q29.5 17 29.5 52q0 28 -24 42.5q-24 14.5 -77 14.5h-72v36h52q52 0 76 16q24 16 24 44q0 27 -22 42.5q-22 15.5 -68 17.5q-38 1 -73 -14q-35 -15 -56 -39l0 59z" />
<glyph unicode="&#180;" horiz-adv-x="254" d="M40 590l100 160h74l-140 -160z" />
<glyph unicode="&#181;" horiz-adv-x="620" d="M149 185q0 -83 38 -117.5q38 -34.5 111 -35.5l3 0q87 0 129 47q42 47 42 128v293h45v-500h-43v106q-16 -50 -61.5 -82.5q-45.5 -32.5 -125.5 -32.5q-45 1 -80 12.5q-35 11.5 -58 35.5l0 -219h-45v680l45 0z" />
<glyph unicode="&#182;" horiz-adv-x="672" d="M528 708h-180v-888h-44v423h-12q-56 0 -101 13.5q-45 13.5 -77 44q-32 30.5 -49.5 78.5q-17.5 48 -17.5 117q0 65 17.5 113q17.5 48 49.5 79.5q32 31.5 77 46.5q45 15 101 15h280v-930h-44zM92 500q0 -61 14 -102q14 -41 40.5 -66.5q26.5 -25.5 63.5 -36.5q37 -11 84 -11h10v424h-7q-96 0 -150.5 -49.5t-54.5 -158.5z" />
<glyph unicode="&#183;" horiz-adv-x="304" d="M110 335q0 17 9.5 29q9.5 12 32.5 12q23 0 32.5 -12q9.5 -12 9.5 -29q0 -17 -9.5 -29q-9.5 -12 -32.5 -12q-23 0 -32.5 12t-9.5 29z" />
<glyph unicode="&#184;" horiz-adv-x="269" d="M114 -65q56 -5 85.5 -23.5q29.5 -18.5 29.5 -53.5q0 -29 -18.5 -49.5q-18.5 -20.5 -46.5 -33.5q-28 -13 -61 -19q-33 -6 -63 -6l0 26q25 0 50 5q25 5 45 14.5q20 9.5 33 24q13 14.5 13 34.5q0 29 -31 41q-31 12 -80 13l31 92l35 0z" />
<glyph unicode="&#185;" horiz-adv-x="273" d="M153 755l-115 -61v40l128 70h27v-354l-40 0z" />
<glyph unicode="&#186;" horiz-adv-x="447" d="M60 508q0 36 12 65.5q12 29.5 34.5 50.5q22.5 21 53 32q30.5 11 68.5 11q72 0 115.5 -42q43.5 -42 43.5 -117q0 -75 -45.5 -118.5q-45.5 -43.5 -120.5 -43.5q-36 0 -65.5 12q-29.5 12 -51 33q-21.5 21 -33 51q-11.5 30 -11.5 66zt0 0zM101 508q0 -54 34.5 -87.5q34.5 -33.5 90.5 -33.5q55 0 88 33q33 33 33 88q0 56 -33 87q-33 31 -90 31q-56 0 -89.5 -31t-33.5 -87z" />
<glyph unicode="&#187;" horiz-adv-x="471" d="M56 468l195 -218l-195 -218v58l144 160l-144 161zM236 468l195 -218l-195 -218v58l144 160l-144 161z" />
<glyph unicode="&#188;" horiz-adv-x="774" d="M137 0h-52l507 700h49zM175 655l-115 -61v40l128 70h27v-354h-40zM606 350h40v-227h68v-36h-68v-87h-40v87h-220v31zM606 123v173l-165 -173z" />
<glyph unicode="&#189;" horiz-adv-x="791" d="M125 0h-52l507 700h49zM175 655l-115 -61v40l128 70h27v-354h-40zM731 0h-293v24q67 38 111.5 66.5q44.5 28.5 71.5 52q27 23.5 38 45q11 21.5 11 47.5q0 35 -23 57q-23 22 -68 24q-38 2 -73 -13.5q-35 -15.5 -56 -39.5l0 59q17 9 49.5 21q32.5 12 83.5 11q60 -1 93.5 -30q33.5 -29 33.5 -81q0 -23 -6 -44q-6 -21 -22.5 -43q-16.5 -22 -45 -45.5q-28.5 -23.5 -73.5 -50.5l-39 -24l207 0z" />
<glyph unicode="&#190;" horiz-adv-x="840" d="M203 0h-52l507 700h49zM63 672q17 9 49.5 20.5q32.5 11.5 83.5 11.5q63 0 94 -25.5q31 -25.5 31 -66.5q0 -29 -17.5 -49.5q-17.5 -20.5 -47.5 -30.5q45 -7 66 -27.5q21 -20.5 21 -54.5q0 -48 -39 -76q-39 -28 -114 -28q-53 1 -84.5 14q-31.5 13 -45.5 24l0 59q17 -25 51.5 -42q34.5 -17 81.5 -17q51 0 80.5 17q29.5 17 29.5 52q0 28 -24 42.5q-24 14.5 -77 14.5h-72v36h52q52 0 76 16q24 16 24 44q0 27 -22 42.5q-22 15.5 -68 17.5q-38 1 -73 -14q-35 -15 -56 -39l0 59zM672 350h40v-227h68v-36h-68v-87h-40v87h-220v31zM672 123v173l-165 -173z" />
<glyph unicode="&#191;" horiz-adv-x="511" d="M451 -133q-13 -14 -32 -28q-19 -14 -45 -24.5q-26 -10.5 -58.5 -16.5q-32.5 -6 -71.5 -5q-84 5 -134 47.5q-50 42.5 -50 127.5q0 46 15 78.5q15 32.5 38 56.5q23 24 49 42.5q26 18.5 49 36.5q23 18 38 39q15 21 15 49l44 0q0 -36 -15 -61.5q-15 -25.5 -37.5 -45.5q-22.5 -20 -48.5 -37.5q-26 -17.5 -48.5 -38.5q-22.5 -21 -37.5 -49q-15 -28 -15 -68q0 -63 39.5 -98q39.5 -35 113.5 -35q65 0 112.5 25.5q47.5 25.5 79.5 69.5zM327 465q0 -17 -9.5 -29q-9.5 -12 -31.5 -12q-23 0 -32.5 12q-9.5 12 -9.5 29q0 17 9.5 29q9.5 12 32.5 12q23 0 32 -12t9 -29z" />
<glyph unicode="&#192;" horiz-adv-x="699" d="M374 700l313 -700h-52l-92 205h-391l-90 -205h-51l312 700zM172 249h352l-177 396zM147 860h88l135 -120l-45 0z" />
<glyph unicode="&#193;" horiz-adv-x="699" d="M374 700l313 -700h-52l-92 205h-391l-90 -205h-51l312 700zM172 249h352l-177 396zM330 740l135 120h88l-178 -120z" />
<glyph unicode="&#194;" horiz-adv-x="699" d="M374 700l313 -700h-52l-92 205h-391l-90 -205h-51l312 700zM172 249h352l-177 396zM529 746h-39l-140 72l-140 -72h-39l155 114l48 0z" />
<glyph unicode="&#195;" horiz-adv-x="699" d="M374 700l313 -700h-52l-92 205h-391l-90 -205h-51l312 700zM172 249h352l-177 396zM530 848q-9 -31 -21 -50.5q-12 -19.5 -25.5 -31q-13.5 -11.5 -28 -16q-14.5 -4.5 -30.5 -4.5q-23 0 -43 9.5q-20 9.5 -38 21.5q-18 12 -36 21.5q-18 9.5 -36 9.5q-14 0 -25 -6q-11 -6 -19.5 -15q-8.5 -9 -15 -20q-6.5 -11 -10.5 -21l-32 0q11 33 25 54q14 21 29 32.5q15 11.5 29.5 16q14.5 4.5 27.5 4.5q21 0 40 -9.5q19 -9.5 37.5 -21.5q18.5 -12 36 -21.5q17.5 -9.5 34.5 -9.5q25 0 43 17q18 17 28 40l30 0z" />
<glyph unicode="&#196;" horiz-adv-x="699" d="M374 700l313 -700h-52l-92 205h-391l-90 -205h-51l312 700zM172 249h352l-177 396zM420 823q0 14 9.5 23q9.5 9 24.5 9q16 0 25 -9q9 -9 9 -23q0 -14 -9 -23q-9 -9 -25 -9q-15 0 -24.5 9q-9.5 9 -9.5 23zt0 0zM212 823q0 14 9.5 23q9.5 9 24.5 9q16 0 25 -9q9 -9 9 -23q0 -14 -9 -23q-9 -9 -25 -9q-15 0 -24.5 9t-9.5 23z" />
<glyph unicode="&#197;" horiz-adv-x="699" d="M232 780q0 39 31.5 59.5q31.5 20.5 87.5 20.5q54 0 86 -21q32 -21 32 -59q0 -34 -25 -54q-25 -20 -70 -25l313 -701h-52l-92 205h-391l-90 -205h-51l312 702q-43 5 -67 25q-24 20 -24 53zt0 0zM270 780q0 -50 81 -50q80 0 80 50q0 50 -80 50q-81 0 -81 -50zt0 0zM172 249h352l-177 396z" />
<glyph unicode="&#198;" horiz-adv-x="991" d="M888 338h-366v-294h418v-44h-466v217h-278l-134 -217h-51l435 700h483v-44h-407v-274h366zM223 261h251v395l-6 0z" />
<glyph unicode="&#199;" horiz-adv-x="698" d="M658 81q-13 -15 -35 -30.5q-22 -15.5 -52.5 -28q-30.5 -12.5 -68 -21.5q-37.5 -9 -80.5 -10l-19 -56q56 -5 85.5 -23.5q29.5 -18.5 29.5 -53.5q0 -29 -18.5 -49.5q-18.5 -20.5 -46.5 -33.5q-28 -13 -61 -19q-33 -6 -63 -6l0 26q25 0 50 5q25 5 45 14.5q20 9.5 33 24q13 14.5 13 34.5q0 29 -31 41q-31 12 -80 13l28 83q-79 4 -141.5 30.5q-62.5 26.5 -106 73q-43.5 46.5 -66.5 111.5q-23 65 -23 145q0 78 25.5 143.5q25.5 65.5 72 113.5q46.5 48 112.5 75q66 27 147 27q43 0 80.5 -7.5q37.5 -7.5 68 -19q30.5 -11.5 53 -26q22.5 -14.5 36.5 -28.5l0 -83q-15 27 -39.5 49q-24.5 22 -55.5 37.5q-31 15.5 -67.5 24.5q-36.5 9 -75.5 9q-68 0 -124 -22.5q-56 -22.5 -97 -63.5q-41 -41 -63.5 -99.5q-22.5 -58.5 -22.5 -130.5q0 -68 20 -125q20 -57 58.5 -98.5q38.5 -41.5 94.5 -65.5q56 -24 128 -27q48 0 88.5 10q40.5 10 73 27q32.5 17 56.5 39.5q24 22.5 39 47.5z" />
<glyph unicode="&#200;" horiz-adv-x="629" d="M529 338h-381v-294h430v-44h-478v700h467v-44h-419v-274h381zM142 860h88l135 -120l-45 0z" />
<glyph unicode="&#201;" horiz-adv-x="629" d="M529 338h-381v-294h430v-44h-478v700h467v-44h-419v-274h381zM325 740l135 120h88l-178 -120z" />
<glyph unicode="&#202;" horiz-adv-x="629" d="M529 338h-381v-294h430v-44h-478v700h467v-44h-419v-274h381zM524 746h-39l-140 72l-140 -72h-39l155 114l48 0z" />
<glyph unicode="&#203;" horiz-adv-x="629" d="M529 338h-381v-294h430v-44h-478v700h467v-44h-419v-274h381zM415 823q0 14 9.5 23q9.5 9 24.5 9q16 0 25 -9q9 -9 9 -23q0 -14 -9 -23q-9 -9 -25 -9q-15 0 -24.5 9q-9.5 9 -9.5 23zt0 0zM207 823q0 14 9.5 23q9.5 9 24.5 9q16 0 25 -9q9 -9 9 -23q0 -14 -9 -23q-9 -9 -25 -9q-15 0 -24.5 9t-9.5 23z" />
<glyph unicode="&#204;" horiz-adv-x="248" d="M148 0h-48v700h48zM-79 860h88l135 -120l-45 0z" />
<glyph unicode="&#205;" horiz-adv-x="248" d="M148 0h-48v700h48zM104 740l135 120h88l-178 -120z" />
<glyph unicode="&#206;" horiz-adv-x="248" d="M148 0h-48v700h48zM303 746h-39l-140 72l-140 -72h-39l155 114l48 0z" />
<glyph unicode="&#207;" horiz-adv-x="248" d="M148 0h-48v700h48zM194 823q0 14 9.5 23q9.5 9 24.5 9q16 0 25 -9q9 -9 9 -23q0 -14 -9 -23q-9 -9 -25 -9q-15 0 -24.5 9q-9.5 9 -9.5 23zt0 0zM-14 823q0 14 9.5 23q9.5 9 24.5 9q16 0 25 -9q9 -9 9 -23q0 -14 -9 -23q-9 -9 -25 -9q-15 0 -24.5 9t-9.5 23z" />
<glyph unicode="&#208;" horiz-adv-x="770" d="M354 700q177 0 272 -87q95 -87 95 -249q0 -99 -30 -168q-30 -69 -82 -112.5q-52 -43.5 -121.5 -63.5q-69.5 -20 -147.5 -20h-214v338h-119v44h119v318zM366 338h-192v-294h161q79 0 141 20q62 20 105.5 59.5q43.5 39.5 66.5 98.5q23 59 23 137q0 147 -83.5 222q-83.5 75 -242.5 75h-171v-274l192 0z" />
<glyph unicode="&#209;" horiz-adv-x="798" d="M148 625v-625h-48v700h51l499 -625v625h48v-700h-51zM579 848q-9 -31 -21 -50.5q-12 -19.5 -25.5 -31q-13.5 -11.5 -28 -16q-14.5 -4.5 -30.5 -4.5q-23 0 -43 9.5q-20 9.5 -38 21.5q-18 12 -36 21.5q-18 9.5 -36 9.5q-14 0 -25 -6q-11 -6 -19.5 -15q-8.5 -9 -15 -20q-6.5 -11 -10.5 -21l-32 0q11 33 25 54q14 21 29 32.5q15 11.5 29.5 16q14.5 4.5 27.5 4.5q21 0 40 -9.5q19 -9.5 37.5 -21.5q18.5 -12 36 -21.5q17.5 -9.5 34.5 -9.5q25 0 43 17q18 17 28 40l30 0z" />
<glyph unicode="&#210;" horiz-adv-x="814" d="M407 710q84 -1 150 -26.5q66 -25.5 112 -72.5q46 -47 70.5 -113.5q24.5 -66.5 24.5 -148.5q0 -77 -25 -142.5q-25 -65.5 -71.5 -113.5q-46.5 -48 -111.5 -75q-65 -27 -145 -28q-85 1 -152 26q-67 25 -113.5 72q-46.5 47 -71 113.5q-24.5 66.5 -24.5 149.5q0 76 25 141.5q25 65.5 71 113q46 47.5 111.5 75q65.5 27.5 146.5 29.5zM100 350q0 -70 21 -128q21 -58 61.5 -99.5q40.5 -41.5 99 -65q58.5 -23.5 133.5 -23.5q66 1 121 24q55 23 94.5 64q39.5 41 61.5 99q22 58 22 129q0 70 -21 128q-21 58 -61.5 100q-40.5 42 -99 65q-58.5 23 -133.5 23q-66 0 -121 -23q-55 -23 -94.5 -64.5q-39.5 -41.5 -61.5 -99.5q-22 -58 -22 -129zt0 0zM204 860h88l135 -120l-45 0z" />
<glyph unicode="&#211;" horiz-adv-x="814" d="M407 710q84 -1 150 -26.5q66 -25.5 112 -72.5q46 -47 70.5 -113.5q24.5 -66.5 24.5 -148.5q0 -77 -25 -142.5q-25 -65.5 -71.5 -113.5q-46.5 -48 -111.5 -75q-65 -27 -145 -28q-85 1 -152 26q-67 25 -113.5 72q-46.5 47 -71 113.5q-24.5 66.5 -24.5 149.5q0 76 25 141.5q25 65.5 71 113q46 47.5 111.5 75q65.5 27.5 146.5 29.5zM100 350q0 -70 21 -128q21 -58 61.5 -99.5q40.5 -41.5 99 -65q58.5 -23.5 133.5 -23.5q66 1 121 24q55 23 94.5 64q39.5 41 61.5 99q22 58 22 129q0 70 -21 128q-21 58 -61.5 100q-40.5 42 -99 65q-58.5 23 -133.5 23q-66 0 -121 -23q-55 -23 -94.5 -64.5q-39.5 -41.5 -61.5 -99.5q-22 -58 -22 -129zt0 0zM387 740l135 120h88l-178 -120z" />
<glyph unicode="&#212;" horiz-adv-x="814" d="M407 710q84 -1 150 -26.5q66 -25.5 112 -72.5q46 -47 70.5 -113.5q24.5 -66.5 24.5 -148.5q0 -77 -25 -142.5q-25 -65.5 -71.5 -113.5q-46.5 -48 -111.5 -75q-65 -27 -145 -28q-85 1 -152 26q-67 25 -113.5 72q-46.5 47 -71 113.5q-24.5 66.5 -24.5 149.5q0 76 25 141.5q25 65.5 71 113q46 47.5 111.5 75q65.5 27.5 146.5 29.5zM100 350q0 -70 21 -128q21 -58 61.5 -99.5q40.5 -41.5 99 -65q58.5 -23.5 133.5 -23.5q66 1 121 24q55 23 94.5 64q39.5 41 61.5 99q22 58 22 129q0 70 -21 128q-21 58 -61.5 100q-40.5 42 -99 65q-58.5 23 -133.5 23q-66 0 -121 -23q-55 -23 -94.5 -64.5q-39.5 -41.5 -61.5 -99.5q-22 -58 -22 -129zt0 0zM586 746h-39l-140 72l-140 -72h-39l155 114l48 0z" />
<glyph unicode="&#213;" horiz-adv-x="814" d="M407 710q84 -1 150 -26.5q66 -25.5 112 -72.5q46 -47 70.5 -113.5q24.5 -66.5 24.5 -148.5q0 -77 -25 -142.5q-25 -65.5 -71.5 -113.5q-46.5 -48 -111.5 -75q-65 -27 -145 -28q-85 1 -152 26q-67 25 -113.5 72q-46.5 47 -71 113.5q-24.5 66.5 -24.5 149.5q0 76 25 141.5q25 65.5 71 113q46 47.5 111.5 75q65.5 27.5 146.5 29.5zM100 350q0 -70 21 -128q21 -58 61.5 -99.5q40.5 -41.5 99 -65q58.5 -23.5 133.5 -23.5q66 1 121 24q55 23 94.5 64q39.5 41 61.5 99q22 58 22 129q0 70 -21 128q-21 58 -61.5 100q-40.5 42 -99 65q-58.5 23 -133.5 23q-66 0 -121 -23q-55 -23 -94.5 -64.5q-39.5 -41.5 -61.5 -99.5q-22 -58 -22 -129zt0 0zM587 848q-9 -31 -21 -50.5q-12 -19.5 -25.5 -31q-13.5 -11.5 -28 -16q-14.5 -4.5 -30.5 -4.5q-23 0 -43 9.5q-20 9.5 -38 21.5q-18 12 -36 21.5q-18 9.5 -36 9.5q-14 0 -25 -6q-11 -6 -19.5 -15q-8.5 -9 -15 -20q-6.5 -11 -10.5 -21l-32 0q11 33 25 54q14 21 29 32.5q15 11.5 29.5 16q14.5 4.5 27.5 4.5q21 0 40 -9.5q19 -9.5 37.5 -21.5q18.5 -12 36 -21.5q17.5 -9.5 34.5 -9.5q25 0 43 17q18 17 28 40l30 0z" />
<glyph unicode="&#214;" horiz-adv-x="814" d="M407 710q84 -1 150 -26.5q66 -25.5 112 -72.5q46 -47 70.5 -113.5q24.5 -66.5 24.5 -148.5q0 -77 -25 -142.5q-25 -65.5 -71.5 -113.5q-46.5 -48 -111.5 -75q-65 -27 -145 -28q-85 1 -152 26q-67 25 -113.5 72q-46.5 47 -71 113.5q-24.5 66.5 -24.5 149.5q0 76 25 141.5q25 65.5 71 113q46 47.5 111.5 75q65.5 27.5 146.5 29.5zM100 350q0 -70 21 -128q21 -58 61.5 -99.5q40.5 -41.5 99 -65q58.5 -23.5 133.5 -23.5q66 1 121 24q55 23 94.5 64q39.5 41 61.5 99q22 58 22 129q0 70 -21 128q-21 58 -61.5 100q-40.5 42 -99 65q-58.5 23 -133.5 23q-66 0 -121 -23q-55 -23 -94.5 -64.5q-39.5 -41.5 -61.5 -99.5q-22 -58 -22 -129zt0 0zM477 823q0 14 9.5 23q9.5 9 24.5 9q16 0 25 -9q9 -9 9 -23q0 -14 -9 -23q-9 -9 -25 -9q-15 0 -24.5 9q-9.5 9 -9.5 23zt0 0zM269 823q0 14 9.5 23q9.5 9 24.5 9q16 0 25 -9q9 -9 9 -23q0 -14 -9 -23q-9 -9 -25 -9q-15 0 -24.5 9t-9.5 23z" />
<glyph unicode="&#215;" horiz-adv-x="584" d="M292 314l-133 -133l-31 31l133 133l-133 133l31 31l133 -133l133 133l31 -31l-133 -133l133 -133l-31 -31z" />
<glyph unicode="&#216;" horiz-adv-x="814" d="M266 13q-103 37 -159.5 123.5q-56.5 86.5 -56.5 214.5q0 76 24.5 142q24.5 66 70.5 114q46 48 110 75.5q64 27.5 144 27.5q61 0 115 -14l34 92l42 -15l-33 -90q99 -38 153 -123.5q54 -85.5 54 -210.5q0 -78 -25.5 -143.5q-25.5 -65.5 -72 -113.5q-46.5 -48 -112.5 -75q-66 -27 -147 -27q-26 1 -50.5 3.5q-24.5 2.5 -47.5 7.5l-37 -102l-42 15zM399 666q-66 -2 -121 -24.5q-55 -22.5 -94.5 -64q-39.5 -41.5 -61.5 -99q-22 -57.5 -22 -128.5q0 -106 47 -182q47 -76 135 -111l217 596q-23 6 -48 9.5q-25 3.5 -52 3.5zt0 0zM415 34q66 1 121 24q55 23 94.5 64q39.5 41 61.5 99q22 58 22 129q0 103 -44.5 178q-44.5 75 -128.5 110l-216 -594q20 -5 43 -7.5t47 -2.5z" />
<glyph unicode="&#217;" horiz-adv-x="750" d="M143 287q0 -69 16.5 -117.5q16.5 -48.5 47 -78.5q30.5 -30 75 -43.5q44.5 -13.5 100.5 -13.5q50 0 91.5 13q41.5 13 71 41.5q29.5 28.5 46 74.5q16.5 46 16.5 112v425h48v-422q0 -78 -20 -133q-20 -55 -57 -89.5q-37 -34.5 -88 -50q-51 -15.5 -113 -15.5q-282 0 -282 289v421h48zM172 860h88l135 -120l-45 0z" />
<glyph unicode="&#218;" horiz-adv-x="750" d="M143 287q0 -69 16.5 -117.5q16.5 -48.5 47 -78.5q30.5 -30 75 -43.5q44.5 -13.5 100.5 -13.5q50 0 91.5 13q41.5 13 71 41.5q29.5 28.5 46 74.5q16.5 46 16.5 112v425h48v-422q0 -78 -20 -133q-20 -55 -57 -89.5q-37 -34.5 -88 -50q-51 -15.5 -113 -15.5q-282 0 -282 289v421h48zM355 740l135 120h88l-178 -120z" />
<glyph unicode="&#219;" horiz-adv-x="750" d="M143 287q0 -69 16.5 -117.5q16.5 -48.5 47 -78.5q30.5 -30 75 -43.5q44.5 -13.5 100.5 -13.5q50 0 91.5 13q41.5 13 71 41.5q29.5 28.5 46 74.5q16.5 46 16.5 112v425h48v-422q0 -78 -20 -133q-20 -55 -57 -89.5q-37 -34.5 -88 -50q-51 -15.5 -113 -15.5q-282 0 -282 289v421h48zM554 746h-39l-140 72l-140 -72h-39l155 114l48 0z" />
<glyph unicode="&#220;" horiz-adv-x="750" d="M143 287q0 -69 16.5 -117.5q16.5 -48.5 47 -78.5q30.5 -30 75 -43.5q44.5 -13.5 100.5 -13.5q50 0 91.5 13q41.5 13 71 41.5q29.5 28.5 46 74.5q16.5 46 16.5 112v425h48v-422q0 -78 -20 -133q-20 -55 -57 -89.5q-37 -34.5 -88 -50q-51 -15.5 -113 -15.5q-282 0 -282 289v421h48zM445 823q0 14 9.5 23q9.5 9 24.5 9q16 0 25 -9q9 -9 9 -23q0 -14 -9 -23q-9 -9 -25 -9q-15 0 -24.5 9q-9.5 9 -9.5 23zt0 0zM237 823q0 14 9.5 23q9.5 9 24.5 9q16 0 25 -9q9 -9 9 -23q0 -14 -9 -23q-9 -9 -25 -9q-15 0 -24.5 9t-9.5 23z" />
<glyph unicode="&#221;" horiz-adv-x="626" d="M338 280v-280h-48v280l-282 420h56l252 -373l247 373h55zM293 740l135 120h88l-178 -120z" />
<glyph unicode="&#222;" horiz-adv-x="647" d="M148 600h166q134 0 205.5 -53q71.5 -53 71.5 -171q0 -116 -76 -173q-76 -57 -220 -57h-147v-146h-48v700h48zM148 556v-366h144q123 0 186 44.5q63 44.5 63 144.5q0 97 -59 137q-59 40 -173 40z" />
<glyph unicode="&#223;" horiz-adv-x="665" d="M379 450q-12 -6 -25 -13q-13 -7 -23.5 -17q-10.5 -10 -17 -23.5q-6.5 -13.5 -6.5 -31.5q0 -30 22.5 -47q22.5 -17 56.5 -28q34 -11 73.5 -20q39.5 -9 73.5 -24q34 -15 56.5 -40q22.5 -25 22.5 -67q0 -69 -48 -108.5q-48 -39.5 -141 -40.5q-64 0 -105 19q-41 19 -58 42l0 62q19 -34 59.5 -58q40.5 -24 103.5 -24q66 0 105 25.5q39 25.5 39 79.5q0 33 -22.5 51.5q-22.5 18.5 -56.5 30q-34 11.5 -74 21q-40 9.5 -74 23.5q-34 14 -56.5 37.5q-22.5 23.5 -22.5 63.5q0 26 9 45.5q9 19.5 22.5 34.5q13.5 15 30.5 25q17 10 34 16q55 26 79 52q24 26 24 67q0 23 -8 43.5q-8 20.5 -25 35.5q-17 15 -44.5 23.5q-27.5 8.5 -66.5 8.5q-53 0 -89 -13.5q-36 -13.5 -58 -40.5q-22 -27 -31.5 -67q-9.5 -40 -9.5 -93v-500h-45v500q0 59 11.5 106q11.5 47 39.5 80q28 33 73.5 51q45.5 18 114.5 18q54 0 89 -14q35 -14 56 -36q21 -22 29.5 -48q8.5 -26 8.5 -51q0 -32 -10 -56q-10 -24 -27 -42q-17 -18 -40 -32t-49 -26z" />
<glyph unicode="&#224;" horiz-adv-x="517" d="M247 238q-77 0 -117 -21.5q-40 -21.5 -40 -75.5q0 -50 35 -78q35 -28 95 -28q42 0 74.5 14.5q32.5 14.5 54.5 37q22 22.5 33.5 49q11.5 26.5 12.5 51.5l0 51zM79 460q25 20 68.5 35q43.5 15 101.5 15q45 0 80.5 -9q35.5 -9 60 -30q24.5 -21 37.5 -56q13 -35 13 -87v-328h-43v114q-20 -56 -70 -89q-50 -33 -118 -33q-75 0 -120 38q-45 38 -45 108q0 39 14 65.5q14 26.5 40.5 42.5q26.5 16 64 23q37.5 7 84.5 7h148v51q0 75 -35.5 108.5q-35.5 33.5 -110.5 33.5q-59 0 -101.5 -21q-42.5 -21 -68.5 -61zM112 750h74l100 -160l-34 0z" />
<glyph unicode="&#225;" horiz-adv-x="517" d="M247 238q-77 0 -117 -21.5q-40 -21.5 -40 -75.5q0 -50 35 -78q35 -28 95 -28q42 0 74.5 14.5q32.5 14.5 54.5 37q22 22.5 33.5 49q11.5 26.5 12.5 51.5l0 51zM79 460q25 20 68.5 35q43.5 15 101.5 15q45 0 80.5 -9q35.5 -9 60 -30q24.5 -21 37.5 -56q13 -35 13 -87v-328h-43v114q-20 -56 -70 -89q-50 -33 -118 -33q-75 0 -120 38q-45 38 -45 108q0 39 14 65.5q14 26.5 40.5 42.5q26.5 16 64 23q37.5 7 84.5 7h148v51q0 75 -35.5 108.5q-35.5 33.5 -110.5 33.5q-59 0 -101.5 -21q-42.5 -21 -68.5 -61zM227 590l100 160h74l-140 -160z" />
<glyph unicode="&#226;" horiz-adv-x="517" d="M247 238q-77 0 -117 -21.5q-40 -21.5 -40 -75.5q0 -50 35 -78q35 -28 95 -28q42 0 74.5 14.5q32.5 14.5 54.5 37q22 22.5 33.5 49q11.5 26.5 12.5 51.5l0 51zM79 460q25 20 68.5 35q43.5 15 101.5 15q45 0 80.5 -9q35.5 -9 60 -30q24.5 -21 37.5 -56q13 -35 13 -87v-328h-43v114q-20 -56 -70 -89q-50 -33 -118 -33q-75 0 -120 38q-45 38 -45 108q0 39 14 65.5q14 26.5 40.5 42.5q26.5 16 64 23q37.5 7 84.5 7h148v51q0 75 -35.5 108.5q-35.5 33.5 -110.5 33.5q-59 0 -101.5 -21q-42.5 -21 -68.5 -61zM279 750l143 -154h-33l-130 109l-130 -109h-33l143 154z" />
<glyph unicode="&#227;" horiz-adv-x="517" d="M247 238q-77 0 -117 -21.5q-40 -21.5 -40 -75.5q0 -50 35 -78q35 -28 95 -28q42 0 74.5 14.5q32.5 14.5 54.5 37q22 22.5 33.5 49q11.5 26.5 12.5 51.5l0 51zM79 460q25 20 68.5 35q43.5 15 101.5 15q45 0 80.5 -9q35.5 -9 60 -30q24.5 -21 37.5 -56q13 -35 13 -87v-328h-43v114q-20 -56 -70 -89q-50 -33 -118 -33q-75 0 -120 38q-45 38 -45 108q0 39 14 65.5q14 26.5 40.5 42.5q26.5 16 64 23q37.5 7 84.5 7h148v51q0 75 -35.5 108.5q-35.5 33.5 -110.5 33.5q-59 0 -101.5 -21q-42.5 -21 -68.5 -61zM435 724q-14 -60 -40.5 -83q-26.5 -23 -59.5 -23q-23 0 -42.5 9.5q-19.5 9.5 -37.5 20.5q-18 11 -36 20.5q-18 9.5 -38 9.5q-26 0 -40.5 -16.5q-14.5 -16.5 -24.5 -43.5l-32 0q10 33 24 53.5q14 20.5 28.5 32q14.5 11.5 28 15.5q13.5 4 24.5 4q23 0 42.5 -9.5q19.5 -9.5 37.5 -20.5q18 -11 35 -20.5q17 -9.5 35 -9.5q20 0 37 13q17 13 28 48l31 0z" />
<glyph unicode="&#228;" horiz-adv-x="517" d="M247 238q-77 0 -117 -21.5q-40 -21.5 -40 -75.5q0 -50 35 -78q35 -28 95 -28q42 0 74.5 14.5q32.5 14.5 54.5 37q22 22.5 33.5 49q11.5 26.5 12.5 51.5l0 51zM79 460q25 20 68.5 35q43.5 15 101.5 15q45 0 80.5 -9q35.5 -9 60 -30q24.5 -21 37.5 -56q13 -35 13 -87v-328h-43v114q-20 -56 -70 -89q-50 -33 -118 -33q-75 0 -120 38q-45 38 -45 108q0 39 14 65.5q14 26.5 40.5 42.5q26.5 16 64 23q37.5 7 84.5 7h148v51q0 75 -35.5 108.5q-35.5 33.5 -110.5 33.5q-59 0 -101.5 -21q-42.5 -21 -68.5 -61zM329 726q0 14 9.5 23q9.5 9 24.5 9q16 0 25 -9q9 -9 9 -23q0 -14 -9 -23q-9 -9 -25 -9q-15 0 -24.5 9q-9.5 9 -9.5 23zt0 0zM121 726q0 14 9.5 23q9.5 9 24.5 9q16 0 25 -9q9 -9 9 -23q0 -14 -9 -23q-9 -9 -25 -9q-15 0 -24.5 9t-9.5 23z" />
<glyph unicode="&#229;" horiz-adv-x="517" d="M247 238q-77 0 -117 -21.5q-40 -21.5 -40 -75.5q0 -50 35 -78q35 -28 95 -28q42 0 74.5 14.5q32.5 14.5 54.5 37q22 22.5 33.5 49q11.5 26.5 12.5 51.5l0 51zM79 460q25 20 68.5 35q43.5 15 101.5 15q45 0 80.5 -9q35.5 -9 60 -30q24.5 -21 37.5 -56q13 -35 13 -87v-328h-43v114q-20 -56 -70 -89q-50 -33 -118 -33q-75 0 -120 38q-45 38 -45 108q0 39 14 65.5q14 26.5 40.5 42.5q26.5 16 64 23q37.5 7 84.5 7h148v51q0 75 -35.5 108.5q-35.5 33.5 -110.5 33.5q-59 0 -101.5 -21q-42.5 -21 -68.5 -61zM158 689q0 43 26.5 71q26.5 28 74.5 28q48 0 74.5 -28q26.5 -28 26.5 -71q0 -45 -27 -72q-27 -27 -74 -27q-47 0 -74 27.5q-27 27.5 -27 71.5zt0 0zM192 689q0 -29 18.5 -48q18.5 -19 48.5 -19q30 0 48.5 18.5q18.5 18.5 18.5 48.5q0 29 -17.5 48q-17.5 19 -49.5 19q-30 0 -48.5 -18.5t-18.5 -48.5z" />
<glyph unicode="&#230;" horiz-adv-x="879" d="M804 51q-19 -23 -64.5 -42q-45.5 -19 -119.5 -19q-81 0 -137.5 34.5q-56.5 34.5 -82.5 103.5q-17 -62 -68 -99q-51 -37 -123 -37q-75 0 -120 38q-45 38 -45 108q0 39 14 65.5q14 26.5 40.5 42.5q26.5 16 64 23q37.5 7 84.5 7h133v39q0 75 -31 110q-31 35 -91 41q-51 5 -97.5 -18q-46.5 -23 -75.5 -65l0 76q29 20 75.5 35.5q46.5 15.5 96.5 13.5q61 -3 101.5 -29q40.5 -26 57.5 -77q31 54 83.5 81q52.5 27 118.5 27q102 0 159 -62q57 -62 57 -174v-37h-409q3 -106 55.5 -156q52.5 -50 139.5 -50q72 0 118 24q46 24 66 58zM618 469q-83 0 -134.5 -48q-51.5 -48 -57.5 -144l363 0v3q0 94 -47.5 141.5q-47.5 47.5 -123.5 47.5zt0 0zM220 35q36 0 65 11q29 11 50 28q21 17 35 39q14 22 20 45q-8 34 -10 80l-133 0q-77 0 -117 -21.5q-40 -21.5 -40 -75.5q0 -50 35 -78t95 -28z" />
<glyph unicode="&#231;" horiz-adv-x="498" d="M450 51q-17 -23 -55.5 -41q-38.5 -18 -98.5 -20l-18 -55q56 -5 85.5 -23.5q29.5 -18.5 29.5 -53.5q0 -29 -18.5 -49.5q-18.5 -20.5 -46.5 -33.5q-28 -13 -61 -19q-33 -6 -63 -6l0 26q25 0 50 5q25 5 45 14.5q20 9.5 33 24q13 14.5 13 34.5q0 29 -31 41q-31 12 -80 13l28 83q-101 7 -158.5 71.5q-57.5 64.5 -57.5 189.5q0 64 18.5 112q18.5 48 50.5 80.5q32 32.5 75.5 49q43.5 16.5 94.5 16.5q51 0 93 -15q42 -15 67 -35l0 -73q-26 40 -67.5 61q-41.5 21 -92.5 21q-88 0 -140.5 -54q-52.5 -54 -52.5 -163v-3q0 -112 53 -165q53 -53 142 -53q63 0 103.5 24q40.5 24 59.5 58l0 -62z" />
<glyph unicode="&#232;" horiz-adv-x="546" d="M285 510q102 0 159 -62q57 -62 57 -174v-37h-409q3 -106 55.5 -156q52.5 -50 139.5 -50q72 0 118 24q46 24 66 58l0 -62q-19 -23 -64.5 -42q-45.5 -19 -119.5 -19q-112 0 -176.5 65q-64.5 65 -64.5 197q0 64 18.5 112q18.5 48 50.5 80.5q32 32.5 75.5 49q43.5 16.5 94.5 16.5zt0 0zM285 469q-83 0 -134.5 -48q-51.5 -48 -57.5 -144l363 0v3q0 94 -47.5 141.5q-47.5 47.5 -123.5 47.5zt0 0zM136 750h74l100 -160l-34 0z" />
<glyph unicode="&#233;" horiz-adv-x="546" d="M285 510q102 0 159 -62q57 -62 57 -174v-37h-409q3 -106 55.5 -156q52.5 -50 139.5 -50q72 0 118 24q46 24 66 58l0 -62q-19 -23 -64.5 -42q-45.5 -19 -119.5 -19q-112 0 -176.5 65q-64.5 65 -64.5 197q0 64 18.5 112q18.5 48 50.5 80.5q32 32.5 75.5 49q43.5 16.5 94.5 16.5zt0 0zM285 469q-83 0 -134.5 -48q-51.5 -48 -57.5 -144l363 0v3q0 94 -47.5 141.5q-47.5 47.5 -123.5 47.5zt0 0zM251 590l100 160h74l-140 -160z" />
<glyph unicode="&#234;" horiz-adv-x="546" d="M285 510q102 0 159 -62q57 -62 57 -174v-37h-409q3 -106 55.5 -156q52.5 -50 139.5 -50q72 0 118 24q46 24 66 58l0 -62q-19 -23 -64.5 -42q-45.5 -19 -119.5 -19q-112 0 -176.5 65q-64.5 65 -64.5 197q0 64 18.5 112q18.5 48 50.5 80.5q32 32.5 75.5 49q43.5 16.5 94.5 16.5zt0 0zM285 469q-83 0 -134.5 -48q-51.5 -48 -57.5 -144l363 0v3q0 94 -47.5 141.5q-47.5 47.5 -123.5 47.5zt0 0zM303 750l143 -154h-33l-130 109l-130 -109h-33l143 154z" />
<glyph unicode="&#235;" horiz-adv-x="546" d="M285 510q102 0 159 -62q57 -62 57 -174v-37h-409q3 -106 55.5 -156q52.5 -50 139.5 -50q72 0 118 24q46 24 66 58l0 -62q-19 -23 -64.5 -42q-45.5 -19 -119.5 -19q-112 0 -176.5 65q-64.5 65 -64.5 197q0 64 18.5 112q18.5 48 50.5 80.5q32 32.5 75.5 49q43.5 16.5 94.5 16.5zt0 0zM285 469q-83 0 -134.5 -48q-51.5 -48 -57.5 -144l363 0v3q0 94 -47.5 141.5q-47.5 47.5 -123.5 47.5zt0 0zM353 726q0 14 9.5 23q9.5 9 24.5 9q16 0 25 -9q9 -9 9 -23q0 -14 -9 -23q-9 -9 -25 -9q-15 0 -24.5 9q-9.5 9 -9.5 23zt0 0zM145 726q0 14 9.5 23q9.5 9 24.5 9q16 0 25 -9q9 -9 9 -23q0 -14 -9 -23q-9 -9 -25 -9q-15 0 -24.5 9t-9.5 23z" />
<glyph unicode="&#236;" horiz-adv-x="222" d="M83 500h45v-500h-45zM-36 750h74l100 -160l-34 0z" />
<glyph unicode="&#237;" horiz-adv-x="222" d="M83 500h45v-500h-45zM79 590l100 160h74l-140 -160z" />
<glyph unicode="&#238;" horiz-adv-x="222" d="M83 500h45v-500h-45zM131 750l143 -154h-33l-130 109l-130 -109h-33l143 154z" />
<glyph unicode="&#239;" horiz-adv-x="222" d="M83 500h45v-500h-45zM181 726q0 14 9.5 23q9.5 9 24.5 9q16 0 25 -9q9 -9 9 -23q0 -14 -9 -23q-9 -9 -25 -9q-15 0 -24.5 9q-9.5 9 -9.5 23zt0 0zM-27 726q0 14 9.5 23q9.5 9 24.5 9q16 0 25 -9q9 -9 9 -23q0 -14 -9 -23q-9 -9 -25 -9q-15 0 -24.5 9t-9.5 23z" />
<glyph unicode="&#240;" horiz-adv-x="572" d="M167 585l128 66q-33 29 -63 47.5q-30 18.5 -50 28.5l18 27q25 -10 59.5 -31q34.5 -21 71.5 -54l103 53l19 -37l-90 -46q50 -53 93 -128.5q43 -75.5 60 -178.5q9 -38 9 -84q0 -64 -18.5 -112q-18.5 -48 -50.5 -80.5q-32 -32.5 -75.5 -49q-43.5 -16.5 -93.5 -16.5q-112 0 -176 65q-64 65 -64 197q0 63 18 111.5q18 48.5 50 80.5q32 32 75 49q43 17 94 17q48 0 87.5 -15q39.5 -15 66.5 -44q-23 54 -51.5 96q-28.5 42 -59.5 74l-141 -72zM92 249q0 -112 52.5 -165q52.5 -53 141.5 -53q88 0 140.5 54q52.5 54 52.5 163v3q0 111 -53 164q-53 53 -141 54q-88 0 -140.5 -54q-52.5 -54 -52.5 -163z" />
<glyph unicode="&#241;" horiz-adv-x="579" d="M457 315q0 84 -39.5 118.5q-39.5 34.5 -114.5 34.5q-89 0 -132 -47q-43 -47 -43 -128v-293h-45v500h44v-106q16 50 62.5 82.5q46.5 32.5 127.5 32.5q88 0 136.5 -43.5q48.5 -43.5 48.5 -136.5v-329h-45zM466 724q-14 -60 -40.5 -83q-26.5 -23 -59.5 -23q-23 0 -42.5 9.5q-19.5 9.5 -37.5 20.5q-18 11 -36 20.5q-18 9.5 -38 9.5q-26 0 -40.5 -16.5q-14.5 -16.5 -24.5 -43.5l-32 0q10 33 24 53.5q14 20.5 28.5 32q14.5 11.5 28 15.5q13.5 4 24.5 4q23 0 42.5 -9.5q19.5 -9.5 37.5 -20.5q18 -11 35 -20.5q17 -9.5 35 -9.5q20 0 37 13q17 13 28 48l31 0z" />
<glyph unicode="&#242;" horiz-adv-x="572" d="M46 252q0 64 18.5 112q18.5 48 50.5 80.5q32 32.5 75.5 49q43.5 16.5 94.5 16.5q111 -1 175.5 -66.5q64.5 -65.5 64.5 -195.5q0 -64 -18.5 -112q-18.5 -48 -50.5 -80.5q-32 -32.5 -75.5 -49q-43.5 -16.5 -94.5 -16.5q-112 1 -176 65.5q-64 64.5 -64 196.5zt0 0zM92 249q0 -112 52.5 -165q52.5 -53 141.5 -53q88 0 140.5 54q52.5 54 52.5 163v3q0 112 -53 165q-53 53 -142 53q-88 -1 -140 -55q-52 -54 -52 -162zM139 750h74l100 -160l-34 0z" />
<glyph unicode="&#243;" horiz-adv-x="572" d="M46 252q0 64 18.5 112q18.5 48 50.5 80.5q32 32.5 75.5 49q43.5 16.5 94.5 16.5q111 -1 175.5 -66.5q64.5 -65.5 64.5 -195.5q0 -64 -18.5 -112q-18.5 -48 -50.5 -80.5q-32 -32.5 -75.5 -49q-43.5 -16.5 -94.5 -16.5q-112 1 -176 65.5q-64 64.5 -64 196.5zt0 0zM92 249q0 -112 52.5 -165q52.5 -53 141.5 -53q88 0 140.5 54q52.5 54 52.5 163v3q0 112 -53 165q-53 53 -142 53q-88 -1 -140 -55q-52 -54 -52 -162zM254 590l100 160h74l-140 -160z" />
<glyph unicode="&#244;" horiz-adv-x="572" d="M46 252q0 64 18.5 112q18.5 48 50.5 80.5q32 32.5 75.5 49q43.5 16.5 94.5 16.5q111 -1 175.5 -66.5q64.5 -65.5 64.5 -195.5q0 -64 -18.5 -112q-18.5 -48 -50.5 -80.5q-32 -32.5 -75.5 -49q-43.5 -16.5 -94.5 -16.5q-112 1 -176 65.5q-64 64.5 -64 196.5zt0 0zM92 249q0 -112 52.5 -165q52.5 -53 141.5 -53q88 0 140.5 54q52.5 54 52.5 163v3q0 112 -53 165q-53 53 -142 53q-88 -1 -140 -55q-52 -54 -52 -162zM306 750l143 -154h-33l-130 109l-130 -109h-33l143 154z" />
<glyph unicode="&#245;" horiz-adv-x="572" d="M46 252q0 64 18.5 112q18.5 48 50.5 80.5q32 32.5 75.5 49q43.5 16.5 94.5 16.5q111 -1 175.5 -66.5q64.5 -65.5 64.5 -195.5q0 -64 -18.5 -112q-18.5 -48 -50.5 -80.5q-32 -32.5 -75.5 -49q-43.5 -16.5 -94.5 -16.5q-112 1 -176 65.5q-64 64.5 -64 196.5zt0 0zM92 249q0 -112 52.5 -165q52.5 -53 141.5 -53q88 0 140.5 54q52.5 54 52.5 163v3q0 112 -53 165q-53 53 -142 53q-88 -1 -140 -55q-52 -54 -52 -162zM462 724q-14 -60 -40.5 -83q-26.5 -23 -59.5 -23q-23 0 -42.5 9.5q-19.5 9.5 -37.5 20.5q-18 11 -36 20.5q-18 9.5 -38 9.5q-26 0 -40.5 -16.5q-14.5 -16.5 -24.5 -43.5l-32 0q10 33 24 53.5q14 20.5 28.5 32q14.5 11.5 28 15.5q13.5 4 24.5 4q23 0 42.5 -9.5q19.5 -9.5 37.5 -20.5q18 -11 35 -20.5q17 -9.5 35 -9.5q20 0 37 13q17 13 28 48l31 0z" />
<glyph unicode="&#246;" horiz-adv-x="572" d="M46 252q0 64 18.5 112q18.5 48 50.5 80.5q32 32.5 75.5 49q43.5 16.5 94.5 16.5q111 -1 175.5 -66.5q64.5 -65.5 64.5 -195.5q0 -64 -18.5 -112q-18.5 -48 -50.5 -80.5q-32 -32.5 -75.5 -49q-43.5 -16.5 -94.5 -16.5q-112 1 -176 65.5q-64 64.5 -64 196.5zt0 0zM92 249q0 -112 52.5 -165q52.5 -53 141.5 -53q88 0 140.5 54q52.5 54 52.5 163v3q0 112 -53 165q-53 53 -142 53q-88 -1 -140 -55q-52 -54 -52 -162zM356 726q0 14 9.5 23q9.5 9 24.5 9q16 0 25 -9q9 -9 9 -23q0 -14 -9 -23q-9 -9 -25 -9q-15 0 -24.5 9q-9.5 9 -9.5 23zt0 0zM148 726q0 14 9.5 23q9.5 9 24.5 9q16 0 25 -9q9 -9 9 -23q0 -14 -9 -23q-9 -9 -25 -9q-15 0 -24.5 9t-9.5 23z" />
<glyph unicode="&#247;" horiz-adv-x="584" d="M502 367v-44h-420v44zM258 515q0 14 9 23q9 9 25 9q16 0 25 -9q9 -9 9 -23q0 -14 -9.5 -23q-9.5 -9 -24.5 -9q-16 0 -25 9q-9 9 -9 23zt0 0zM258 170q0 14 9.5 23q9.5 9 24.5 9q16 0 25 -9q9 -9 9 -23q0 -14 -9 -23q-9 -9 -25 -9q-15 0 -24.5 9t-9.5 23z" />
<glyph unicode="&#248;" horiz-adv-x="572" d="M400 601l37 -14l-37 -100q60 -28 92.5 -87q32.5 -59 32.5 -152q0 -64 -18.5 -112q-18.5 -48 -50.5 -80.5q-32 -32.5 -75.5 -49q-43.5 -16.5 -94.5 -16.5q-17 0 -33.5 2q-16.5 2 -31.5 5l-39 -109l-37 14l38 105q-65 26 -100.5 86.5q-35.5 60.5 -35.5 158.5q0 64 18 112q18 48 50 80.5q32 32.5 75.5 49q43.5 16.5 94.5 16.5q44 0 78 -10zM92 249q0 -81 27.5 -130.5q27.5 -49.5 78.5 -71.5l151 413q-30 9 -65 9q-88 -1 -140 -55q-52 -54 -52 -162zM286 31q88 0 140.5 54q52.5 54 52.5 163v3q0 75 -24.5 123.5q-24.5 48.5 -68.5 71.5l-150 -410q25 -5 50 -5z" />
<glyph unicode="&#249;" horiz-adv-x="573" d="M122 185q0 -83 38 -117.5q38 -34.5 110 -35.5l3 0q88 0 130 47q42 47 42 128v293h45v-500h-44v106q-16 -50 -60.5 -82q-44.5 -32 -123.5 -33l-2 0h-2q-86 2 -133.5 45q-47.5 43 -47.5 135v329h45zM140 750h74l100 -160l-34 0z" />
<glyph unicode="&#250;" horiz-adv-x="573" d="M122 185q0 -83 38 -117.5q38 -34.5 110 -35.5l3 0q88 0 130 47q42 47 42 128v293h45v-500h-44v106q-16 -50 -60.5 -82q-44.5 -32 -123.5 -33l-2 0h-2q-86 2 -133.5 45q-47.5 43 -47.5 135v329h45zM255 590l100 160h74l-140 -160z" />
<glyph unicode="&#251;" horiz-adv-x="573" d="M122 185q0 -83 38 -117.5q38 -34.5 110 -35.5l3 0q88 0 130 47q42 47 42 128v293h45v-500h-44v106q-16 -50 -60.5 -82q-44.5 -32 -123.5 -33l-2 0h-2q-86 2 -133.5 45q-47.5 43 -47.5 135v329h45zM307 750l143 -154h-33l-130 109l-130 -109h-33l143 154z" />
<glyph unicode="&#252;" horiz-adv-x="573" d="M122 185q0 -83 38 -117.5q38 -34.5 110 -35.5l3 0q88 0 130 47q42 47 42 128v293h45v-500h-44v106q-16 -50 -60.5 -82q-44.5 -32 -123.5 -33l-2 0h-2q-86 2 -133.5 45q-47.5 43 -47.5 135v329h45zM357 726q0 14 9.5 23q9.5 9 24.5 9q16 0 25 -9q9 -9 9 -23q0 -14 -9 -23q-9 -9 -25 -9q-15 0 -24.5 9q-9.5 9 -9.5 23zt0 0zM149 726q0 14 9.5 23q9.5 9 24.5 9q16 0 25 -9q9 -9 9 -23q0 -14 -9 -23q-9 -9 -25 -9q-15 0 -24.5 9t-9.5 23z" />
<glyph unicode="&#253;" horiz-adv-x="502" d="M26 500h52l195 -443l166 443h49l-213 -553q-29 -74 -60.5 -104q-31.5 -30 -71.5 -30q-20 0 -38.5 5.5q-18.5 5.5 -28.5 13.5l0 54q10 -11 27.5 -20q17.5 -9 37.5 -9q13 0 26 5.5q13 5.5 26.5 20.5q13.5 15 27.5 42.5q14 27.5 28 72.5zM219 590l100 160h74l-140 -160z" />
<glyph unicode="&#254;" horiz-adv-x="593" d="M128 750v-370q7 24 21 47q14 23 37.5 41.5q23.5 18.5 58 30q34.5 11.5 81.5 11.5q49 0 89.5 -14.5q40.5 -14.5 69.5 -45q29 -30.5 45 -77.5q16 -47 16 -112q0 -74 -16.5 -125.5q-16.5 -51.5 -46.5 -84q-30 -32.5 -71.5 -47.5q-41.5 -15 -91.5 -15q-75 0 -124 33q-49 33 -68 87l0 -289h-45v930zM128 223q0 -90 50.5 -141q50.5 -51 135.5 -51q41 0 75.5 12q34.5 12 59 38.5q24.5 26.5 38.5 69.5q14 43 14 105q0 57 -13.5 97q-13.5 40 -38 65.5q-24.5 25.5 -59 37.5q-34.5 12 -76.5 12q-90 0 -137 -51q-47 -51 -49 -134z" />
<glyph unicode="&#255;" horiz-adv-x="502" d="M26 500h52l195 -443l166 443h49l-213 -553q-29 -74 -60.5 -104q-31.5 -30 -71.5 -30q-20 0 -38.5 5.5q-18.5 5.5 -28.5 13.5l0 54q10 -11 27.5 -20q17.5 -9 37.5 -9q13 0 26 5.5q13 5.5 26.5 20.5q13.5 15 27.5 42.5q14 27.5 28 72.5zM321 726q0 14 9.5 23q9.5 9 24.5 9q16 0 25 -9q9 -9 9 -23q0 -14 -9 -23q-9 -9 -25 -9q-15 0 -24.5 9q-9.5 9 -9.5 23zt0 0zM113 726q0 14 9.5 23q9.5 9 24.5 9q16 0 25 -9q9 -9 9 -23q0 -14 -9 -23q-9 -9 -25 -9q-15 0 -24.5 9t-9.5 23z" />
<glyph unicode="&#256;" horiz-adv-x="699" d="M374 700l313 -700h-52l-92 205h-391l-90 -205h-51l312 700zM172 249h352l-177 396zM200 822h300v-41l-300 0z" />
<glyph unicode="&#257;" horiz-adv-x="517" d="M247 238q-77 0 -117 -21.5q-40 -21.5 -40 -75.5q0 -50 35 -78q35 -28 95 -28q42 0 74.5 14.5q32.5 14.5 54.5 37q22 22.5 33.5 49q11.5 26.5 12.5 51.5l0 51zM79 460q25 20 68.5 35q43.5 15 101.5 15q45 0 80.5 -9q35.5 -9 60 -30q24.5 -21 37.5 -56q13 -35 13 -87v-328h-43v114q-20 -56 -70 -89q-50 -33 -118 -33q-75 0 -120 38q-45 38 -45 108q0 39 14 65.5q14 26.5 40.5 42.5q26.5 16 64 23q37.5 7 84.5 7h148v51q0 75 -35.5 108.5q-35.5 33.5 -110.5 33.5q-59 0 -101.5 -21q-42.5 -21 -68.5 -61zM109 682h300v-41l-300 0z" />
<glyph unicode="&#258;" horiz-adv-x="699" d="M374 700l313 -700h-52l-92 205h-391l-90 -205h-51l312 700zM172 249h352l-177 396zM350 743q-71 0 -114.5 34.5q-43.5 34.5 -57.5 82.5l27 0q20 -32 56.5 -53.5q36.5 -21.5 88.5 -21.5q49 0 89 21.5q40 21.5 56 53.5l27 0q-15 -51 -61 -84t-111 -33z" />
<glyph unicode="&#259;" horiz-adv-x="517" d="M247 238q-77 0 -117 -21.5q-40 -21.5 -40 -75.5q0 -50 35 -78q35 -28 95 -28q42 0 74.5 14.5q32.5 14.5 54.5 37q22 22.5 33.5 49q11.5 26.5 12.5 51.5l0 51zM79 460q25 20 68.5 35q43.5 15 101.5 15q45 0 80.5 -9q35.5 -9 60 -30q24.5 -21 37.5 -56q13 -35 13 -87v-328h-43v114q-20 -56 -70 -89q-50 -33 -118 -33q-75 0 -120 38q-45 38 -45 108q0 39 14 65.5q14 26.5 40.5 42.5q26.5 16 64 23q37.5 7 84.5 7h148v51q0 75 -35.5 108.5q-35.5 33.5 -110.5 33.5q-59 0 -101.5 -21q-42.5 -21 -68.5 -61zM259 602q-64 0 -104 38q-40 38 -52 110l29 0q32 -104 127 -104q48 0 80 26.5q32 26.5 46 77.5l30 0q-11 -72 -53.5 -110t-102.5 -38z" />
<glyph unicode="&#260;" horiz-adv-x="699" d="M374 700l313 -700h-10q-60 -35 -87.5 -72q-27.5 -37 -27.5 -72q0 -35 23 -53q23 -18 60 -18q21 0 45 6l0 -26q-11 -5 -29 -10q-18 -5 -41 -5q-54 0 -81 28.5q-27 28.5 -27 66.5q0 86 122 157l-91 203h-391l-90 -205h-51l312 700zM172 249h352l-177 396z" />
<glyph unicode="&#261;" horiz-adv-x="517" d="M79 460q25 20 68.5 35q43.5 15 101.5 15q45 0 80.5 -9q35.5 -9 60 -30q24.5 -21 37.5 -56q13 -35 13 -87v-328h-3q-60 -35 -87.5 -72q-27.5 -37 -27.5 -72q0 -35 23 -53q23 -18 60 -18q21 0 45 6l0 -26q-11 -5 -29 -10q-18 -5 -41 -5q-54 0 -81 28.5q-27 28.5 -27 66.5q0 87 125 158l0 111q-20 -56 -70 -89q-50 -33 -118 -33q-75 0 -120 38q-45 38 -45 108q0 39 14 65.5q14 26.5 40.5 42.5q26.5 16 64 23q37.5 7 84.5 7h148v51q0 75 -35.5 108.5q-35.5 33.5 -110.5 33.5q-59 0 -101.5 -21q-42.5 -21 -68.5 -61zM247 238q-77 0 -117 -21.5q-40 -21.5 -40 -75.5q0 -50 35 -78q35 -28 95 -28q42 0 74.5 14.5q32.5 14.5 54.5 37q22 22.5 33.5 49q11.5 26.5 12.5 51.5l0 51z" />
<glyph unicode="&#262;" horiz-adv-x="698" d="M658 81q-13 -16 -37 -32q-24 -16 -56.5 -29q-32.5 -13 -73 -21.5q-40.5 -8.5 -86.5 -8.5q-83 1 -149 27q-66 26 -112 72.5q-46 46.5 -70 112.5q-24 66 -24 149q0 78 25.5 143.5q25.5 65.5 72 113.5q46.5 48 112.5 75q66 27 147 27q43 0 80.5 -7.5q37.5 -7.5 68 -19q30.5 -11.5 53 -26q22.5 -14.5 36.5 -28.5l0 -83q-15 27 -39.5 49q-24.5 22 -55.5 37.5q-31 15.5 -67.5 24.5q-36.5 9 -75.5 9q-68 0 -124 -22.5q-56 -22.5 -97 -63.5q-41 -41 -63.5 -99.5q-22.5 -58.5 -22.5 -130.5q0 -68 20 -125q20 -57 58.5 -98.5q38.5 -41.5 94.5 -65.5q56 -24 128 -27q48 0 88.5 10q40.5 10 73 27q32.5 17 56.5 39.5q24 22.5 39 47.5zM387 740l135 120h88l-178 -120z" />
<glyph unicode="&#263;" horiz-adv-x="498" d="M450 51q-17 -23 -58 -42q-41 -19 -105 -19q-112 0 -176.5 65q-64.5 65 -64.5 197q0 64 18.5 112q18.5 48 50.5 80.5q32 32.5 75.5 49q43.5 16.5 94.5 16.5q51 0 93 -15q42 -15 67 -35l0 -73q-26 40 -67.5 61q-41.5 21 -92.5 21q-88 0 -140.5 -54q-52.5 -54 -52.5 -163v-3q0 -112 53 -165q53 -53 142 -53q63 0 103.5 24q40.5 24 59.5 58l0 -62zM251 590l100 160h74l-140 -160z" />
<glyph unicode="&#264;" horiz-adv-x="698" d="M658 81q-13 -16 -37 -32q-24 -16 -56.5 -29q-32.5 -13 -73 -21.5q-40.5 -8.5 -86.5 -8.5q-83 1 -149 27q-66 26 -112 72.5q-46 46.5 -70 112.5q-24 66 -24 149q0 78 25.5 143.5q25.5 65.5 72 113.5q46.5 48 112.5 75q66 27 147 27q43 0 80.5 -7.5q37.5 -7.5 68 -19q30.5 -11.5 53 -26q22.5 -14.5 36.5 -28.5l0 -83q-15 27 -39.5 49q-24.5 22 -55.5 37.5q-31 15.5 -67.5 24.5q-36.5 9 -75.5 9q-68 0 -124 -22.5q-56 -22.5 -97 -63.5q-41 -41 -63.5 -99.5q-22.5 -58.5 -22.5 -130.5q0 -68 20 -125q20 -57 58.5 -98.5q38.5 -41.5 94.5 -65.5q56 -24 128 -27q48 0 88.5 10q40.5 10 73 27q32.5 17 56.5 39.5q24 22.5 39 47.5zM586 746h-39l-140 72l-140 -72h-39l155 114l48 0z" />
<glyph unicode="&#265;" horiz-adv-x="498" d="M450 51q-17 -23 -58 -42q-41 -19 -105 -19q-112 0 -176.5 65q-64.5 65 -64.5 197q0 64 18.5 112q18.5 48 50.5 80.5q32 32.5 75.5 49q43.5 16.5 94.5 16.5q51 0 93 -15q42 -15 67 -35l0 -73q-26 40 -67.5 61q-41.5 21 -92.5 21q-88 0 -140.5 -54q-52.5 -54 -52.5 -163v-3q0 -112 53 -165q53 -53 142 -53q63 0 103.5 24q40.5 24 59.5 58l0 -62zM303 750l143 -154h-33l-130 109l-130 -109h-33l143 154z" />
<glyph unicode="&#266;" horiz-adv-x="698" d="M658 81q-13 -16 -37 -32q-24 -16 -56.5 -29q-32.5 -13 -73 -21.5q-40.5 -8.5 -86.5 -8.5q-83 1 -149 27q-66 26 -112 72.5q-46 46.5 -70 112.5q-24 66 -24 149q0 78 25.5 143.5q25.5 65.5 72 113.5q46.5 48 112.5 75q66 27 147 27q43 0 80.5 -7.5q37.5 -7.5 68 -19q30.5 -11.5 53 -26q22.5 -14.5 36.5 -28.5l0 -83q-15 27 -39.5 49q-24.5 22 -55.5 37.5q-31 15.5 -67.5 24.5q-36.5 9 -75.5 9q-68 0 -124 -22.5q-56 -22.5 -97 -63.5q-41 -41 -63.5 -99.5q-22.5 -58.5 -22.5 -130.5q0 -68 20 -125q20 -57 58.5 -98.5q38.5 -41.5 94.5 -65.5q56 -24 128 -27q48 0 88.5 10q40.5 10 73 27q32.5 17 56.5 39.5q24 22.5 39 47.5zM373 823q0 14 9.5 23q9.5 9 24.5 9q16 0 25 -9q9 -9 9 -23q0 -14 -9 -23q-9 -9 -25 -9q-15 0 -24.5 9t-9.5 23z" />
<glyph unicode="&#267;" horiz-adv-x="498" d="M450 51q-17 -23 -58 -42q-41 -19 -105 -19q-112 0 -176.5 65q-64.5 65 -64.5 197q0 64 18.5 112q18.5 48 50.5 80.5q32 32.5 75.5 49q43.5 16.5 94.5 16.5q51 0 93 -15q42 -15 67 -35l0 -73q-26 40 -67.5 61q-41.5 21 -92.5 21q-88 0 -140.5 -54q-52.5 -54 -52.5 -163v-3q0 -112 53 -165q53 -53 142 -53q63 0 103.5 24q40.5 24 59.5 58l0 -62zM249 726q0 14 9.5 23q9.5 9 24.5 9q16 0 25 -9q9 -9 9 -23q0 -14 -9 -23q-9 -9 -25 -9q-15 0 -24.5 9t-9.5 23z" />
<glyph unicode="&#268;" horiz-adv-x="698" d="M658 81q-13 -16 -37 -32q-24 -16 -56.5 -29q-32.5 -13 -73 -21.5q-40.5 -8.5 -86.5 -8.5q-83 1 -149 27q-66 26 -112 72.5q-46 46.5 -70 112.5q-24 66 -24 149q0 78 25.5 143.5q25.5 65.5 72 113.5q46.5 48 112.5 75q66 27 147 27q43 0 80.5 -7.5q37.5 -7.5 68 -19q30.5 -11.5 53 -26q22.5 -14.5 36.5 -28.5l0 -83q-15 27 -39.5 49q-24.5 22 -55.5 37.5q-31 15.5 -67.5 24.5q-36.5 9 -75.5 9q-68 0 -124 -22.5q-56 -22.5 -97 -63.5q-41 -41 -63.5 -99.5q-22.5 -58.5 -22.5 -130.5q0 -68 20 -125q20 -57 58.5 -98.5q38.5 -41.5 94.5 -65.5q56 -24 128 -27q48 0 88.5 10q40.5 10 73 27q32.5 17 56.5 39.5q24 22.5 39 47.5zM383 746l-155 114h39l140 -72l140 72h39l-155 -114z" />
<glyph unicode="&#269;" horiz-adv-x="498" d="M450 51q-17 -23 -58 -42q-41 -19 -105 -19q-112 0 -176.5 65q-64.5 65 -64.5 197q0 64 18.5 112q18.5 48 50.5 80.5q32 32.5 75.5 49q43.5 16.5 94.5 16.5q51 0 93 -15q42 -15 67 -35l0 -73q-26 40 -67.5 61q-41.5 21 -92.5 21q-88 0 -140.5 -54q-52.5 -54 -52.5 -163v-3q0 -112 53 -165q53 -53 142 -53q63 0 103.5 24q40.5 24 59.5 58l0 -62zM263 596l-143 154h33l130 -109l130 109h33l-143 -154z" />
<glyph unicode="&#270;" horiz-adv-x="745" d="M328 700q177 0 272 -87q95 -87 95 -249q0 -99 -30 -168q-30 -69 -82 -112.5q-52 -43.5 -121.5 -63.5q-69.5 -20 -147.5 -20h-214v700zM309 44q79 0 141 20q62 20 105.5 59.5q43.5 39.5 66.5 98.5q23 59 23 137q0 147 -83.5 222q-83.5 75 -242.5 75h-171v-612zM349 746l-155 114h39l140 -72l140 72h39l-155 -114z" />
<glyph unicode="&#271;" horiz-adv-x="593" d="M509 750v-750h-42v125q-7 -24 -21 -48.5q-14 -24.5 -37.5 -44q-23.5 -19.5 -58.5 -31.5q-35 -12 -83 -12q-49 0 -89.5 14.5q-40.5 14.5 -69.5 45q-29 30.5 -45 77.5q-16 47 -16 112q0 74 16.5 125.5q16.5 51.5 46.5 84q30 32.5 71.5 47.5q41.5 15 92.5 15q74 0 123 -33.5q49 -33.5 68 -86.5l0 360zM465 276q0 90 -50.5 141q-50.5 51 -135.5 51q-41 0 -75.5 -12q-34.5 -12 -59.5 -38.5q-25 -26.5 -38.5 -69.5q-13.5 -43 -13.5 -105q0 -57 13.5 -97q13.5 -40 38.5 -65.5q25 -25.5 59 -37.5q34 -12 76 -12q90 0 137 50.5q47 50.5 49 133.5zM601 750h64l-66 -180l-44 0z" />
<glyph unicode="&#272;" horiz-adv-x="770" d="M354 700q177 0 272 -87q95 -87 95 -249q0 -99 -30 -168q-30 -69 -82 -112.5q-52 -43.5 -121.5 -63.5q-69.5 -20 -147.5 -20h-214v338h-119v44h119v318zM366 338h-192v-294h161q79 0 141 20q62 20 105.5 59.5q43.5 39.5 66.5 98.5q23 59 23 137q0 147 -83.5 222q-83.5 75 -242.5 75h-171v-274l192 0z" />
<glyph unicode="&#273;" horiz-adv-x="608" d="M510 750v-100h76v-42h-76v-608h-42v129q-6 -25 -20 -50q-14 -25 -37.5 -45q-23.5 -20 -59 -32.5q-35.5 -12.5 -84.5 -12.5q-49 0 -89.5 14.5q-40.5 14.5 -69.5 45q-29 30.5 -45 77.5q-16 47 -16 112q0 74 16.5 125.5q16.5 51.5 46.5 84q30 32.5 71.5 47.5q41.5 15 92.5 15q75 0 124.5 -34.5q49.5 -34.5 67.5 -88.5l0 221h-182v42h182v100zM465 276q0 90 -50.5 141q-50.5 51 -135.5 51q-41 0 -75.5 -12q-34.5 -12 -59.5 -38.5q-25 -26.5 -38.5 -69.5q-13.5 -43 -13.5 -105q0 -57 13.5 -97q13.5 -40 38.5 -65.5q25 -25.5 59 -37.5q34 -12 76 -12q92 0 139 53q47 53 47 140z" />
<glyph unicode="&#274;" horiz-adv-x="629" d="M529 338h-381v-294h430v-44h-478v700h467v-44h-419v-274h381zM195 822h300v-41l-300 0z" />
<glyph unicode="&#275;" horiz-adv-x="546" d="M285 510q102 0 159 -62q57 -62 57 -174v-37h-409q3 -106 55.5 -156q52.5 -50 139.5 -50q72 0 118 24q46 24 66 58l0 -62q-19 -23 -64.5 -42q-45.5 -19 -119.5 -19q-112 0 -176.5 65q-64.5 65 -64.5 197q0 64 18.5 112q18.5 48 50.5 80.5q32 32.5 75.5 49q43.5 16.5 94.5 16.5zt0 0zM285 469q-83 0 -134.5 -48q-51.5 -48 -57.5 -144l363 0v3q0 94 -47.5 141.5q-47.5 47.5 -123.5 47.5zt0 0zM133 682h300v-41l-300 0z" />
<glyph unicode="&#278;" horiz-adv-x="629" d="M529 338h-381v-294h430v-44h-478v700h467v-44h-419v-274h381zM311 823q0 14 9.5 23q9.5 9 24.5 9q16 0 25 -9q9 -9 9 -23q0 -14 -9 -23q-9 -9 -25 -9q-15 0 -24.5 9t-9.5 23z" />
<glyph unicode="&#279;" horiz-adv-x="546" d="M285 510q102 0 159 -62q57 -62 57 -174v-37h-409q3 -106 55.5 -156q52.5 -50 139.5 -50q72 0 118 24q46 24 66 58l0 -62q-19 -23 -64.5 -42q-45.5 -19 -119.5 -19q-112 0 -176.5 65q-64.5 65 -64.5 197q0 64 18.5 112q18.5 48 50.5 80.5q32 32.5 75.5 49q43.5 16.5 94.5 16.5zt0 0zM285 469q-83 0 -134.5 -48q-51.5 -48 -57.5 -144l363 0v3q0 94 -47.5 141.5q-47.5 47.5 -123.5 47.5zt0 0zM249 726q0 14 9.5 23q9.5 9 24.5 9q16 0 25 -9q9 -9 9 -23q0 -14 -9 -23q-9 -9 -25 -9q-15 0 -24.5 9t-9.5 23z" />
<glyph unicode="&#280;" horiz-adv-x="629" d="M529 338h-381v-294h430v-44h-7q-60 -35 -87.5 -72q-27.5 -37 -27.5 -72q0 -35 23 -53q23 -18 60 -18q21 0 45 6l0 -26q-11 -5 -29 -10q-18 -5 -41 -5q-54 0 -81 28.5q-27 28.5 -27 66.5q0 85 119 155l-425 0v700h467v-44h-419v-274l381 0z" />
<glyph unicode="&#281;" horiz-adv-x="546" d="M285 510q102 0 159 -62q57 -62 57 -174v-37h-409q3 -106 55.5 -156q52.5 -50 139.5 -50q72 0 118 24q46 24 66 58l0 -62q-14 -17 -42.5 -32.5q-28.5 -15.5 -73.5 -22.5q-57 -35 -82 -70q-25 -35 -25 -70q0 -35 23 -53q23 -18 60 -18q21 0 45 6l0 -26q-11 -5 -29 -10q-18 -5 -41 -5q-54 0 -81 28.5q-27 28.5 -27 66.5q0 78 102 145l-13 0q-112 0 -176.5 65q-64.5 65 -64.5 197q0 64 18.5 112q18.5 48 50.5 80.5q32 32.5 75.5 49q43.5 16.5 94.5 16.5zt0 0zM285 469q-83 0 -134.5 -48q-51.5 -48 -57.5 -144l363 0v3q0 94 -47.5 141.5t-123.5 47.5z" />
<glyph unicode="&#282;" horiz-adv-x="629" d="M529 338h-381v-294h430v-44h-478v700h467v-44h-419v-274h381zM321 746l-155 114h39l140 -72l140 72h39l-155 -114z" />
<glyph unicode="&#283;" horiz-adv-x="546" d="M285 510q102 0 159 -62q57 -62 57 -174v-37h-409q3 -106 55.5 -156q52.5 -50 139.5 -50q72 0 118 24q46 24 66 58l0 -62q-19 -23 -64.5 -42q-45.5 -19 -119.5 -19q-112 0 -176.5 65q-64.5 65 -64.5 197q0 64 18.5 112q18.5 48 50.5 80.5q32 32.5 75.5 49q43.5 16.5 94.5 16.5zt0 0zM285 469q-83 0 -134.5 -48q-51.5 -48 -57.5 -144l363 0v3q0 94 -47.5 141.5q-47.5 47.5 -123.5 47.5zt0 0zM263 596l-143 154h33l130 -109l130 109h33l-143 -154z" />
<glyph unicode="&#284;" horiz-adv-x="739" d="M407 -10q-84 1 -150 26.5q-66 25.5 -112 72q-46 46.5 -70.5 113q-24.5 66.5 -24.5 149.5q0 77 25 142.5q25 65.5 71.5 113.5q46.5 48 112 75.5q65.5 27.5 146.5 27.5q43 0 80.5 -7.5q37.5 -7.5 68 -19q30.5 -11.5 53 -26q22.5 -14.5 36.5 -28.5l0 -83q-15 27 -39.5 49q-24.5 22 -55.5 37.5q-31 15.5 -67.5 24.5q-36.5 9 -75.5 9q-67 0 -123 -23q-56 -23 -96.5 -64q-40.5 -41 -63 -99q-22.5 -58 -22.5 -130q0 -70 21 -128q21 -58 61.5 -99.5q40.5 -41.5 99 -65q58.5 -23.5 133.5 -23.5q75 1 129.5 23q54.5 22 80.5 50l0 201h-225v44h270v-263q-14 -18 -40 -36q-26 -18 -61 -32q-35 -14 -76.5 -22.5q-41.5 -8.5 -85.5 -8.5zt0 0zM586 746h-39l-140 72l-140 -72h-39l155 114l48 0z" />
<glyph unicode="&#285;" horiz-adv-x="593" d="M465 119q-8 -24 -22 -47.5q-14 -23.5 -37.5 -41.5q-23.5 -18 -57.5 -29.5q-34 -11.5 -81 -11.5q-49 0 -89.5 14.5q-40.5 14.5 -69.5 45q-29 30.5 -45 77.5q-16 47 -16 112q0 74 16.5 125.5q16.5 51.5 46.5 84q30 32.5 71.5 47.5q41.5 15 92.5 15q75 0 125 -35q50 -35 68 -89l0 19v95h43v-476q0 -111 -58 -161q-58 -50 -173 -50q-32 0 -62 6q-30 6 -54.5 15q-24.5 9 -43.5 20.5q-19 11.5 -29 22.5l0 68q10 -17 27.5 -33q17.5 -16 41 -29q23.5 -13 54 -20.5q30.5 -7.5 67.5 -7.5q91 0 138 39q47 39 47 129zM465 276q0 90 -50.5 141q-50.5 51 -135.5 51q-41 0 -75.5 -12q-34.5 -12 -59.5 -38.5q-25 -26.5 -38.5 -69.5q-13.5 -43 -13.5 -105q0 -57 13.5 -97q13.5 -40 38.5 -65.5q25 -25.5 59 -37.5q34 -12 76 -12q90 0 137 50.5q47 50.5 49 133.5zM317 750l143 -154h-33l-130 109l-130 -109h-33l143 154z" />
<glyph unicode="&#286;" horiz-adv-x="739" d="M407 -10q-84 1 -150 26.5q-66 25.5 -112 72q-46 46.5 -70.5 113q-24.5 66.5 -24.5 149.5q0 77 25 142.5q25 65.5 71.5 113.5q46.5 48 112 75.5q65.5 27.5 146.5 27.5q43 0 80.5 -7.5q37.5 -7.5 68 -19q30.5 -11.5 53 -26q22.5 -14.5 36.5 -28.5l0 -83q-15 27 -39.5 49q-24.5 22 -55.5 37.5q-31 15.5 -67.5 24.5q-36.5 9 -75.5 9q-67 0 -123 -23q-56 -23 -96.5 -64q-40.5 -41 -63 -99q-22.5 -58 -22.5 -130q0 -70 21 -128q21 -58 61.5 -99.5q40.5 -41.5 99 -65q58.5 -23.5 133.5 -23.5q75 1 129.5 23q54.5 22 80.5 50l0 201h-225v44h270v-263q-14 -18 -40 -36q-26 -18 -61 -32q-35 -14 -76.5 -22.5q-41.5 -8.5 -85.5 -8.5zt0 0zM407 743q-71 0 -114.5 34.5q-43.5 34.5 -57.5 82.5l27 0q20 -32 56.5 -53.5q36.5 -21.5 88.5 -21.5q49 0 89 21.5q40 21.5 56 53.5l27 0q-15 -51 -61 -84t-111 -33z" />
<glyph unicode="&#287;" horiz-adv-x="593" d="M465 119q-8 -24 -22 -47.5q-14 -23.5 -37.5 -41.5q-23.5 -18 -57.5 -29.5q-34 -11.5 -81 -11.5q-49 0 -89.5 14.5q-40.5 14.5 -69.5 45q-29 30.5 -45 77.5q-16 47 -16 112q0 74 16.5 125.5q16.5 51.5 46.5 84q30 32.5 71.5 47.5q41.5 15 92.5 15q75 0 125 -35q50 -35 68 -89l0 19v95h43v-476q0 -111 -58 -161q-58 -50 -173 -50q-32 0 -62 6q-30 6 -54.5 15q-24.5 9 -43.5 20.5q-19 11.5 -29 22.5l0 68q10 -17 27.5 -33q17.5 -16 41 -29q23.5 -13 54 -20.5q30.5 -7.5 67.5 -7.5q91 0 138 39q47 39 47 129zM465 276q0 90 -50.5 141q-50.5 51 -135.5 51q-41 0 -75.5 -12q-34.5 -12 -59.5 -38.5q-25 -26.5 -38.5 -69.5q-13.5 -43 -13.5 -105q0 -57 13.5 -97q13.5 -40 38.5 -65.5q25 -25.5 59 -37.5q34 -12 76 -12q90 0 137 50.5q47 50.5 49 133.5zM297 602q-64 0 -104 38q-40 38 -52 110l29 0q32 -104 127 -104q48 0 80 26.5q32 26.5 46 77.5l30 0q-11 -72 -53.5 -110t-102.5 -38z" />
<glyph unicode="&#288;" horiz-adv-x="739" d="M407 -10q-84 1 -150 26.5q-66 25.5 -112 72q-46 46.5 -70.5 113q-24.5 66.5 -24.5 149.5q0 77 25 142.5q25 65.5 71.5 113.5q46.5 48 112 75.5q65.5 27.5 146.5 27.5q43 0 80.5 -7.5q37.5 -7.5 68 -19q30.5 -11.5 53 -26q22.5 -14.5 36.5 -28.5l0 -83q-15 27 -39.5 49q-24.5 22 -55.5 37.5q-31 15.5 -67.5 24.5q-36.5 9 -75.5 9q-67 0 -123 -23q-56 -23 -96.5 -64q-40.5 -41 -63 -99q-22.5 -58 -22.5 -130q0 -70 21 -128q21 -58 61.5 -99.5q40.5 -41.5 99 -65q58.5 -23.5 133.5 -23.5q75 1 129.5 23q54.5 22 80.5 50l0 201h-225v44h270v-263q-14 -18 -40 -36q-26 -18 -61 -32q-35 -14 -76.5 -22.5q-41.5 -8.5 -85.5 -8.5zt0 0zM373 823q0 14 9.5 23q9.5 9 24.5 9q16 0 25 -9q9 -9 9 -23q0 -14 -9 -23q-9 -9 -25 -9q-15 0 -24.5 9t-9.5 23z" />
<glyph unicode="&#289;" horiz-adv-x="593" d="M465 119q-8 -24 -22 -47.5q-14 -23.5 -37.5 -41.5q-23.5 -18 -57.5 -29.5q-34 -11.5 -81 -11.5q-49 0 -89.5 14.5q-40.5 14.5 -69.5 45q-29 30.5 -45 77.5q-16 47 -16 112q0 74 16.5 125.5q16.5 51.5 46.5 84q30 32.5 71.5 47.5q41.5 15 92.5 15q75 0 125 -35q50 -35 68 -89l0 19v95h43v-476q0 -111 -58 -161q-58 -50 -173 -50q-32 0 -62 6q-30 6 -54.5 15q-24.5 9 -43.5 20.5q-19 11.5 -29 22.5l0 68q10 -17 27.5 -33q17.5 -16 41 -29q23.5 -13 54 -20.5q30.5 -7.5 67.5 -7.5q91 0 138 39q47 39 47 129zM465 276q0 90 -50.5 141q-50.5 51 -135.5 51q-41 0 -75.5 -12q-34.5 -12 -59.5 -38.5q-25 -26.5 -38.5 -69.5q-13.5 -43 -13.5 -105q0 -57 13.5 -97q13.5 -40 38.5 -65.5q25 -25.5 59 -37.5q34 -12 76 -12q90 0 137 50.5q47 50.5 49 133.5zM263 726q0 14 9.5 23q9.5 9 24.5 9q16 0 25 -9q9 -9 9 -23q0 -14 -9 -23q-9 -9 -25 -9q-15 0 -24.5 9t-9.5 23z" />
<glyph unicode="&#290;" horiz-adv-x="739" d="M407 -10q-84 1 -150 26.5q-66 25.5 -112 72q-46 46.5 -70.5 113q-24.5 66.5 -24.5 149.5q0 77 25 142.5q25 65.5 71.5 113.5q46.5 48 112 75.5q65.5 27.5 146.5 27.5q43 0 80.5 -7.5q37.5 -7.5 68 -19q30.5 -11.5 53 -26q22.5 -14.5 36.5 -28.5l0 -83q-15 27 -39.5 49q-24.5 22 -55.5 37.5q-31 15.5 -67.5 24.5q-36.5 9 -75.5 9q-67 0 -123 -23q-56 -23 -96.5 -64q-40.5 -41 -63 -99q-22.5 -58 -22.5 -130q0 -70 21 -128q21 -58 61.5 -99.5q40.5 -41.5 99 -65q58.5 -23.5 133.5 -23.5q75 1 129.5 23q54.5 22 80.5 50l0 201h-225v44h270v-263q-14 -18 -40 -36q-26 -18 -61 -32q-35 -14 -76.5 -22.5q-41.5 -8.5 -85.5 -8.5zt0 0zM347 -224q23 5 39.5 17q16.5 12 26.5 27q10 15 12.5 31q2.5 16 -2.5 28q-5 -5 -13 -5q-20 0 -28 9.5q-8 9.5 -8 23.5q0 14 8.5 23q8.5 9 28.5 9q15 0 26 -6.5q11 -6.5 17.5 -16.5q6.5 -10 9.5 -23q3 -13 3 -25q0 -24 -9 -44q-9 -20 -23 -35q-14 -15 -31 -25q-17 -10 -33 -14l-24 26z" />
<glyph unicode="&#291;" horiz-adv-x="593" d="M465 119q-8 -24 -22 -47.5q-14 -23.5 -37.5 -41.5q-23.5 -18 -57.5 -29.5q-34 -11.5 -81 -11.5q-49 0 -89.5 14.5q-40.5 14.5 -69.5 45q-29 30.5 -45 77.5q-16 47 -16 112q0 74 16.5 125.5q16.5 51.5 46.5 84q30 32.5 71.5 47.5q41.5 15 92.5 15q75 0 125 -35q50 -35 68 -89l0 19v95h43v-476q0 -111 -58 -161q-58 -50 -173 -50q-32 0 -62 6q-30 6 -54.5 15q-24.5 9 -43.5 20.5q-19 11.5 -29 22.5l0 68q10 -17 27.5 -33q17.5 -16 41 -29q23.5 -13 54 -20.5q30.5 -7.5 67.5 -7.5q91 0 138 39q47 39 47 129zM465 276q0 90 -50.5 141q-50.5 51 -135.5 51q-41 0 -75.5 -12q-34.5 -12 -59.5 -38.5q-25 -26.5 -38.5 -69.5q-13.5 -43 -13.5 -105q0 -57 13.5 -97q13.5 -40 38.5 -65.5q25 -25.5 59 -37.5q34 -12 76 -12q90 0 137 50.5q47 50.5 49 133.5zM357 763q-23 -5 -39.5 -17q-16.5 -12 -26.5 -27q-10 -15 -12.5 -31q-2.5 -16 2.5 -28q5 5 13 5q20 0 28 -9.5q8 -9.5 8 -23.5q0 -14 -8.5 -23q-8.5 -9 -28.5 -9q-15 0 -26 6.5q-11 6.5 -17.5 16.5q-6.5 10 -9.5 23q-3 13 -3 25q0 24 9 44q9 20 23 35q14 15 31 25q17 10 33 14l24 -26z" />
<glyph unicode="&#292;" horiz-adv-x="788" d="M640 338h-492v-338h-48v700h48v-318h492v318h48v-700h-48zM573 746h-39l-140 72l-140 -72h-39l155 114l48 0z" />
<glyph unicode="&#293;" horiz-adv-x="579" d="M457 315q0 84 -39.5 118.5q-39.5 34.5 -114.5 34.5q-89 0 -132 -47q-43 -47 -43 -128v-293h-45v750h45v-356q15 50 61.5 82.5q46.5 32.5 127.5 32.5h2q87 -1 135 -44.5q48 -43.5 48 -135.5v-329h-45zM125 890l143 -154h-33l-130 109l-130 -109h-33l143 154z" />
<glyph unicode="&#294;" horiz-adv-x="795" d="M14 580h93v120h48v-120h486v120h48v-120h92v-44h-92v-536h-48v338h-486v-338h-48v536h-93zM155 382h486v154l-486 0z" />
<glyph unicode="&#295;" horiz-adv-x="610" d="M488 315q0 83 -39 117.5q-39 34.5 -112 35.5l-3 0q-89 0 -132 -47q-43 -47 -43 -128v-293h-45v608h-92v42h92v100h45v-100h165v-42h-165v-214q15 50 61.5 82.5q46.5 32.5 127.5 32.5h2q87 -1 135 -44.5q48 -43.5 48 -135.5v-329l-45 0z" />
<glyph unicode="&#298;" horiz-adv-x="248" d="M148 0h-48v700h48zM-26 822h300v-41l-300 0z" />
<glyph unicode="&#299;" horiz-adv-x="222" d="M83 500h45v-500h-45zM-39 682h300v-41l-300 0z" />
<glyph unicode="&#302;" horiz-adv-x="248" d="M148 0h-24q-60 -35 -87.5 -72q-27.5 -37 -27.5 -72q0 -35 23 -53q23 -18 60 -18q21 0 45 6l0 -26q-11 -5 -29 -10q-18 -5 -41 -5q-54 0 -81 28.5q-27 28.5 -27 66.5q0 93 141 167l0 688l48 0z" />
<glyph unicode="&#303;" horiz-adv-x="240" d="M136 0q-60 -35 -87.5 -72q-27.5 -37 -27.5 -72q0 -35 23 -53q23 -18 60 -18q21 0 45 6l0 -26q-11 -5 -29 -10q-18 -5 -41 -5q-54 0 -81 28.5q-27 28.5 -27 66.5q0 87 127 159l0 496h45v-500zM86 726q0 14 9.5 23q9.5 9 24.5 9q16 0 25 -9q9 -9 9 -23q0 -14 -9 -23q-9 -9 -25 -9q-15 0 -24.5 9t-9.5 23z" />
<glyph unicode="&#304;" horiz-adv-x="248" d="M148 0h-48v700h48zM90 823q0 14 9.5 23q9.5 9 24.5 9q16 0 25 -9q9 -9 9 -23q0 -14 -9 -23q-9 -9 -25 -9q-15 0 -24.5 9t-9.5 23z" />
<glyph unicode="&#305;" horiz-adv-x="222" d="M83 500h45v-500l-45 0z" />
<glyph unicode="&#308;" horiz-adv-x="410" d="M310 162q0 -84 -44 -125.5q-44 -41.5 -118 -41.5q-40 0 -72.5 11.5q-32.5 11.5 -49.5 26.5l0 66q20 -29 52 -44.5q32 -15.5 65 -15.5q57 0 88 31q31 31 31 95v535h48zM464 746h-39l-140 72l-140 -72h-39l155 114l48 0z" />
<glyph unicode="&#309;" horiz-adv-x="225" d="M97 500h45v-534q0 -74 -27 -113q-27 -39 -95 -39q-23 0 -43 6q-20 6 -31 13l0 59q29 -34 75 -34q18 0 32.5 5q14.5 5 24 17q9.5 12 14.5 32.5q5 20.5 5 51.5zM133 750l143 -154h-33l-130 109l-130 -109h-33l143 154z" />
<glyph unicode="&#310;" horiz-adv-x="713" d="M148 0h-48v700h48v-323h149l300 323h62l-319 -341l357 -359h-64l-334 335h-151zM297 -224q23 5 39.5 17q16.5 12 26.5 27q10 15 12.5 31q2.5 16 -2.5 28q-5 -5 -13 -5q-20 0 -28 9.5q-8 9.5 -8 23.5q0 14 8.5 23q8.5 9 28.5 9q15 0 26 -6.5q11 -6.5 17.5 -16.5q6.5 -10 9.5 -23q3 -13 3 -25q0 -24 -9 -44q-9 -20 -23 -35q-14 -15 -31 -25q-17 -10 -33 -14l-24 26z" />
<glyph unicode="&#311;" horiz-adv-x="525" d="M128 750v-473h112l177 223h53l-192 -239l224 -261h-58l-204 237h-112v-237h-45v750zM203 -224q23 5 39.5 17q16.5 12 26.5 27q10 15 12.5 31q2.5 16 -2.5 28q-5 -5 -13 -5q-20 0 -28 9.5q-8 9.5 -8 23.5q0 14 8.5 23q8.5 9 28.5 9q15 0 26 -6.5q11 -6.5 17.5 -16.5q6.5 -10 9.5 -23q3 -13 3 -25q0 -24 -9 -44q-9 -20 -23 -35q-14 -15 -31 -25q-17 -10 -33 -14l-24 26z" />
<glyph unicode="&#313;" horiz-adv-x="604" d="M148 44h430v-44h-478v700h48zM105 740l135 120h88l-178 -120z" />
<glyph unicode="&#314;" horiz-adv-x="296" d="M278 6q-12 -7 -33.5 -11.5q-21.5 -4.5 -43.5 -4.5q-59 0 -88.5 30q-29.5 30 -29.5 95v635h45v-623q0 -51 18.5 -72q18.5 -21 61.5 -21q18 0 38 4q20 4 32 10zM83 780l135 120h88l-178 -120z" />
<glyph unicode="&#315;" horiz-adv-x="604" d="M148 44h430v-44h-478v700h48zM242 -224q23 5 39.5 17q16.5 12 26.5 27q10 15 12.5 31q2.5 16 -2.5 28q-5 -5 -13 -5q-20 0 -28 9.5q-8 9.5 -8 23.5q0 14 8.5 23q8.5 9 28.5 9q15 0 26 -6.5q11 -6.5 17.5 -16.5q6.5 -10 9.5 -23q3 -13 3 -25q0 -24 -9 -44q-9 -20 -23 -35q-14 -15 -31 -25q-17 -10 -33 -14l-24 26z" />
<glyph unicode="&#316;" horiz-adv-x="296" d="M278 6q-12 -7 -33.5 -11.5q-21.5 -4.5 -43.5 -4.5q-59 0 -88.5 30q-29.5 30 -29.5 95v635h45v-623q0 -51 18.5 -72q18.5 -21 61.5 -21q18 0 38 4q20 4 32 10zM88 -224q23 5 39.5 17q16.5 12 26.5 27q10 15 12.5 31q2.5 16 -2.5 28q-5 -5 -13 -5q-20 0 -28 9.5q-8 9.5 -8 23.5q0 14 8.5 23q8.5 9 28.5 9q15 0 26 -6.5q11 -6.5 17.5 -16.5q6.5 -10 9.5 -23q3 -13 3 -25q0 -24 -9 -44q-9 -20 -23 -35q-14 -15 -31 -25q-17 -10 -33 -14l-24 26z" />
<glyph unicode="&#317;" horiz-adv-x="604" d="M148 44h430v-44h-478v700h48zM411 700h64l-66 -180l-44 0z" />
<glyph unicode="&#318;" horiz-adv-x="296" d="M278 6q-12 -7 -33.5 -11.5q-21.5 -4.5 -43.5 -4.5q-59 0 -88.5 30q-29.5 30 -29.5 95v635h45v-623q0 -51 18.5 -72q18.5 -21 61.5 -21q18 0 38 4q20 4 32 10zM282 750h64l-66 -180l-44 0z" />
<glyph unicode="&#319;" horiz-adv-x="604" d="M148 44h430v-44h-478v700h48zM386 406q0 14 9.5 23q9.5 9 24.5 9q16 0 25 -9q9 -9 9 -23q0 -14 -9 -23q-9 -9 -25 -9q-15 0 -24.5 9t-9.5 23z" />
<glyph unicode="&#320;" horiz-adv-x="317" d="M278 6q-12 -7 -33.5 -11.5q-21.5 -4.5 -43.5 -4.5q-59 0 -88.5 30q-29.5 30 -29.5 95v635h45v-623q0 -51 18.5 -72q18.5 -21 61.5 -21q18 0 38 4q20 4 32 10zM231 416q0 14 9.5 23q9.5 9 25.5 9q16 0 25 -9q9 -9 9 -23q0 -14 -9.5 -23q-9.5 -9 -24.5 -9q-16 0 -25.5 9t-9.5 23z" />
<glyph unicode="&#321;" horiz-adv-x="626" d="M366 443l-196 -154v-245h430v-44h-478v251l-104 -81l-1 48l105 83v399h48v-361l196 155z" />
<glyph unicode="&#322;" horiz-adv-x="331" d="M298 452l-144 -132v-193q0 -51 18.5 -72q18.5 -21 61.5 -21q18 0 38 4q20 4 32 10l0 -42q-12 -7 -33.5 -11.5q-21.5 -4.5 -44.5 -4.5q-58 0 -87.5 30q-29.5 30 -29.5 95v164l-89 -81l-1 48l90 83v421h45v-380l144 133z" />
<glyph unicode="&#323;" horiz-adv-x="798" d="M148 625v-625h-48v700h51l499 -625v625h48v-700h-51zM379 740l135 120h88l-178 -120z" />
<glyph unicode="&#324;" horiz-adv-x="579" d="M457 315q0 84 -39.5 118.5q-39.5 34.5 -114.5 34.5q-89 0 -132 -47q-43 -47 -43 -128v-293h-45v500h44v-106q16 50 62.5 82.5q46.5 32.5 127.5 32.5q88 0 136.5 -43.5q48.5 -43.5 48.5 -136.5v-329h-45zM258 590l100 160h74l-140 -160z" />
<glyph unicode="&#325;" horiz-adv-x="798" d="M148 625v-625h-48v700h51l499 -625v625h48v-700h-51zM339 -224q23 5 39.5 17q16.5 12 26.5 27q10 15 12.5 31q2.5 16 -2.5 28q-5 -5 -13 -5q-20 0 -28 9.5q-8 9.5 -8 23.5q0 14 8.5 23q8.5 9 28.5 9q15 0 26 -6.5q11 -6.5 17.5 -16.5q6.5 -10 9.5 -23q3 -13 3 -25q0 -24 -9 -44q-9 -20 -23 -35q-14 -15 -31 -25q-17 -10 -33 -14l-24 26z" />
<glyph unicode="&#326;" horiz-adv-x="579" d="M457 315q0 84 -39.5 118.5q-39.5 34.5 -114.5 34.5q-89 0 -132 -47q-43 -47 -43 -128v-293h-45v500h44v-106q16 50 62.5 82.5q46.5 32.5 127.5 32.5q88 0 136.5 -43.5q48.5 -43.5 48.5 -136.5v-329h-45zM230 -224q23 5 39.5 17q16.5 12 26.5 27q10 15 12.5 31q2.5 16 -2.5 28q-5 -5 -13 -5q-20 0 -28 9.5q-8 9.5 -8 23.5q0 14 8.5 23q8.5 9 28.5 9q15 0 26 -6.5q11 -6.5 17.5 -16.5q6.5 -10 9.5 -23q3 -13 3 -25q0 -24 -9 -44q-9 -20 -23 -35q-14 -15 -31 -25q-17 -10 -33 -14l-24 26z" />
<glyph unicode="&#327;" horiz-adv-x="798" d="M148 625v-625h-48v700h51l499 -625v625h48v-700h-51zM375 746l-155 114h39l140 -72l140 72h39l-155 -114z" />
<glyph unicode="&#328;" horiz-adv-x="579" d="M457 315q0 84 -39.5 118.5q-39.5 34.5 -114.5 34.5q-89 0 -132 -47q-43 -47 -43 -128v-293h-45v500h44v-106q16 50 62.5 82.5q46.5 32.5 127.5 32.5q88 0 136.5 -43.5q48.5 -43.5 48.5 -136.5v-329h-45zM270 596l-143 154h33l130 -109l130 109h33l-143 -154z" />
<glyph unicode="&#332;" horiz-adv-x="814" d="M407 710q84 -1 150 -26.5q66 -25.5 112 -72.5q46 -47 70.5 -113.5q24.5 -66.5 24.5 -148.5q0 -77 -25 -142.5q-25 -65.5 -71.5 -113.5q-46.5 -48 -111.5 -75q-65 -27 -145 -28q-85 1 -152 26q-67 25 -113.5 72q-46.5 47 -71 113.5q-24.5 66.5 -24.5 149.5q0 76 25 141.5q25 65.5 71 113q46 47.5 111.5 75q65.5 27.5 146.5 29.5zM100 350q0 -70 21 -128q21 -58 61.5 -99.5q40.5 -41.5 99 -65q58.5 -23.5 133.5 -23.5q66 1 121 24q55 23 94.5 64q39.5 41 61.5 99q22 58 22 129q0 70 -21 128q-21 58 -61.5 100q-40.5 42 -99 65q-58.5 23 -133.5 23q-66 0 -121 -23q-55 -23 -94.5 -64.5q-39.5 -41.5 -61.5 -99.5q-22 -58 -22 -129zt0 0zM257 822h300v-41l-300 0z" />
<glyph unicode="&#333;" horiz-adv-x="572" d="M46 252q0 64 18.5 112q18.5 48 50.5 80.5q32 32.5 75.5 49q43.5 16.5 94.5 16.5q111 -1 175.5 -66.5q64.5 -65.5 64.5 -195.5q0 -64 -18.5 -112q-18.5 -48 -50.5 -80.5q-32 -32.5 -75.5 -49q-43.5 -16.5 -94.5 -16.5q-112 1 -176 65.5q-64 64.5 -64 196.5zt0 0zM92 249q0 -112 52.5 -165q52.5 -53 141.5 -53q88 0 140.5 54q52.5 54 52.5 163v3q0 112 -53 165q-53 53 -142 53q-88 -1 -140 -55q-52 -54 -52 -162zM136 682h300v-41l-300 0z" />
<glyph unicode="&#336;" horiz-adv-x="814" d="M407 710q84 -1 150 -26.5q66 -25.5 112 -72.5q46 -47 70.5 -113.5q24.5 -66.5 24.5 -148.5q0 -77 -25 -142.5q-25 -65.5 -71.5 -113.5q-46.5 -48 -111.5 -75q-65 -27 -145 -28q-85 1 -152 26q-67 25 -113.5 72q-46.5 47 -71 113.5q-24.5 66.5 -24.5 149.5q0 76 25 141.5q25 65.5 71 113q46 47.5 111.5 75q65.5 27.5 146.5 29.5zM100 350q0 -70 21 -128q21 -58 61.5 -99.5q40.5 -41.5 99 -65q58.5 -23.5 133.5 -23.5q66 1 121 24q55 23 94.5 64q39.5 41 61.5 99q22 58 22 129q0 70 -21 128q-21 58 -61.5 100q-40.5 42 -99 65q-58.5 23 -133.5 23q-66 0 -121 -23q-55 -23 -94.5 -64.5q-39.5 -41.5 -61.5 -99.5q-22 -58 -22 -129zt0 0zM313 740l82 120h76l-118 -120zM467 740l123 120h90l-173 -120z" />
<glyph unicode="&#337;" horiz-adv-x="572" d="M46 252q0 64 18.5 112q18.5 48 50.5 80.5q32 32.5 75.5 49q43.5 16.5 94.5 16.5q111 -1 175.5 -66.5q64.5 -65.5 64.5 -195.5q0 -64 -18.5 -112q-18.5 -48 -50.5 -80.5q-32 -32.5 -75.5 -49q-43.5 -16.5 -94.5 -16.5q-112 1 -176 65.5q-64 64.5 -64 196.5zt0 0zM92 249q0 -112 52.5 -165q52.5 -53 141.5 -53q88 0 140.5 54q52.5 54 52.5 163v3q0 112 -53 165q-53 53 -142 53q-88 -1 -140 -55q-52 -54 -52 -162zM156 590l74 160h67l-107 -160zM310 590l109 160h77l-152 -160z" />
<glyph unicode="&#338;" horiz-adv-x="1076" d="M1014 656h-409v-274h372v-44h-372v-294h420v-44h-608q-177 0 -272 87q-95 87 -95 249q0 99 30 168q30 69 82 112.5q52 43.5 121.5 63.5q69.5 20 147.5 20h583zM100 341q0 -147 83.5 -222q83.5 -75 242.5 -75h131v612h-121q-79 0 -141 -20q-62 -20 -105.5 -59.5q-43.5 -39.5 -66.5 -98.5t-23 -137z" />
<glyph unicode="&#339;" horiz-adv-x="934" d="M673 510q102 0 159 -62q57 -62 57 -174v-37h-409q3 -106 55.5 -156q52.5 -50 139.5 -50q72 0 118 24q46 24 66 58l0 -62q-19 -23 -64.5 -42q-45.5 -19 -119.5 -19q-76 0 -127 25.5q-51 25.5 -81 80.5q-9 -20 -24.5 -39.5q-15.5 -19.5 -39.5 -34.5q-24 -15 -57.5 -24q-33.5 -9 -78.5 -9q-49 0 -89.5 14.5q-40.5 14.5 -69.5 45q-29 30.5 -45 77.5q-16 47 -16 112q0 74 16.5 125.5q16.5 51.5 46.5 84q30 32.5 71.5 47.5q41.5 15 92.5 15q73 0 123.5 -29.5q50.5 -29.5 71.5 -81.5q29 54 82 82.5q53 28.5 122 28.5zt0 0zM279 468q-41 0 -75.5 -12q-34.5 -12 -59.5 -38.5q-25 -26.5 -38.5 -69.5q-13.5 -43 -13.5 -105q0 -57 13.5 -97q13.5 -40 38.5 -65.5q25 -25.5 59 -37.5q34 -12 76 -12q66 0 109 28q43 28 62 78q-16 48 -16 115q0 30 4 56.5q4 26.5 12 49.5q-20 52 -64 81q-44 29 -107 29zt0 0zM844 277v3q0 94 -47.5 141.5q-47.5 47.5 -123.5 47.5q-83 0 -134.5 -48q-51.5 -48 -57.5 -144z" />
<glyph unicode="&#340;" horiz-adv-x="681" d="M396 253q-41 -7 -96 -7h-152v-246h-48v700h219q134 0 205.5 -53q71.5 -53 71.5 -171q0 -82 -38.5 -134q-38.5 -52 -111.5 -76l193 -266h-59zM148 656v-366h149q123 0 186 44.5q63 44.5 63 144.5q0 97 -59 137q-59 40 -173 40zM321 740l135 120h88l-178 -120z" />
<glyph unicode="&#341;" horiz-adv-x="358" d="M258 468q-67 0 -99 -47q-32 -47 -31 -128l0 -293h-45v500h44v-106q11 49 45 81.5q34 32.5 94 33.5q18 0 36 -5q18 -5 26 -12l0 -53q-24 27 -70 29zt0 0zM167 590l100 160h74l-140 -160z" />
<glyph unicode="&#342;" horiz-adv-x="681" d="M396 253q-41 -7 -96 -7h-152v-246h-48v700h219q134 0 205.5 -53q71.5 -53 71.5 -171q0 -82 -38.5 -134q-38.5 -52 -111.5 -76l193 -266h-59zM148 656v-366h149q123 0 186 44.5q63 44.5 63 144.5q0 97 -59 137q-59 40 -173 40zM281 -224q23 5 39.5 17q16.5 12 26.5 27q10 15 12.5 31q2.5 16 -2.5 28q-5 -5 -13 -5q-20 0 -28 9.5q-8 9.5 -8 23.5q0 14 8.5 23q8.5 9 28.5 9q15 0 26 -6.5q11 -6.5 17.5 -16.5q6.5 -10 9.5 -23q3 -13 3 -25q0 -24 -9 -44q-9 -20 -23 -35q-14 -15 -31 -25q-17 -10 -33 -14l-24 26z" />
<glyph unicode="&#343;" horiz-adv-x="358" d="M258 468q-67 0 -99 -47q-32 -47 -31 -128l0 -293h-45v500h44v-106q11 49 45 81.5q34 32.5 94 33.5q18 0 36 -5q18 -5 26 -12l0 -53q-24 27 -70 29zt0 0zM45 -224q23 5 39.5 17q16.5 12 26.5 27q10 15 12.5 31q2.5 16 -2.5 28q-5 -5 -13 -5q-20 0 -28 9.5q-8 9.5 -8 23.5q0 14 8.5 23q8.5 9 28.5 9q15 0 26 -6.5q11 -6.5 17.5 -16.5q6.5 -10 9.5 -23q3 -13 3 -25q0 -24 -9 -44q-9 -20 -23 -35q-14 -15 -31 -25q-17 -10 -33 -14l-24 26z" />
<glyph unicode="&#344;" horiz-adv-x="681" d="M396 253q-41 -7 -96 -7h-152v-246h-48v700h219q134 0 205.5 -53q71.5 -53 71.5 -171q0 -82 -38.5 -134q-38.5 -52 -111.5 -76l193 -266h-59zM148 656v-366h149q123 0 186 44.5q63 44.5 63 144.5q0 97 -59 137q-59 40 -173 40zM317 746l-155 114h39l140 -72l140 72h39l-155 -114z" />
<glyph unicode="&#345;" horiz-adv-x="358" d="M258 468q-67 0 -99 -47q-32 -47 -31 -128l0 -293h-45v500h44v-106q11 49 45 81.5q34 32.5 94 33.5q18 0 36 -5q18 -5 26 -12l0 -53q-24 27 -70 29zt0 0zM179 596l-143 154h33l130 -109l130 109h33l-143 -154z" />
<glyph unicode="&#346;" horiz-adv-x="631" d="M548 547q-15 27 -39.5 49q-24.5 22 -55 37.5q-30.5 15.5 -66.5 24.5q-36 9 -74 9q-91 -2 -141 -35.5q-50 -33.5 -50 -94.5q0 -39 19 -64q19 -25 50.5 -42q31.5 -17 71.5 -29q40 -12 82 -23.5q42 -11.5 82 -25.5q40 -14 71.5 -36q31.5 -22 50.5 -55q19 -33 19 -82q0 -43 -17 -78q-17 -35 -48.5 -60q-31.5 -25 -77 -38.5q-45.5 -13.5 -102.5 -13.5q-47 0 -88.5 8.5q-41.5 8.5 -75.5 21.5q-34 13 -58.5 29q-24.5 16 -38.5 32l0 77q15 -25 40 -47.5q25 -22.5 59 -39.5q34 -17 76 -27q42 -10 91 -10q40 0 75 8.5q35 8.5 60.5 26.5q25.5 18 40 45.5q14.5 27.5 14.5 64.5q0 39 -19 65q-19 26 -50.5 43.5q-31.5 17.5 -71.5 29q-40 11.5 -81.5 23q-41.5 11.5 -81.5 25.5q-40 14 -71.5 36q-31.5 22 -50.5 54q-19 32 -19 80q0 43 18 76q18 33 50.5 55q32.5 22 76.5 33.5q44 11.5 95 11.5q42 0 79 -7.5q37 -7.5 67 -19q30 -11.5 52.5 -26q22.5 -14.5 36.5 -28.5l0 -83zM296 740l135 120h88l-178 -120z" />
</font>
</defs>
</svg>
