<?xml version="1.0" ?>
<svg width="127.225372" height="13.833313" viewBox="0 0 127.225 13.8333" fill="none" xmlns="http://www.w3.org/2000/svg" xmlns:xlink="http://www.w3.org/1999/xlink">
    <path id="path" d="M0.33 8.43L0.41 8.5L0.49 8.57L0.58 8.65L0.66 8.72L0.74 8.79L0.83 8.87L0.91 8.94L0.99 9.01L1.08 9.08L1.16 9.15L1.24 9.23L1.33 9.3L1.41 9.37L1.49 9.44L1.58 9.51L1.66 9.58L1.74 9.65L1.83 9.72L1.91 9.78L1.99 9.85L2.08 9.92L2.16 9.99L2.24 10.05L2.33 10.12L2.41 10.19L2.49 10.25L2.58 10.32L2.66 10.38L2.74 10.45L2.83 10.51L2.91 10.57L2.99 10.64L3.08 10.7L3.16 10.76L3.24 10.82L3.33 10.88L3.41 10.94L3.49 11L3.58 11.06L3.66 11.12L3.74 11.17L3.83 11.23L3.91 11.29L3.99 11.34L4.08 11.4L4.16 11.45L4.24 11.5L4.33 11.56L4.41 11.61L4.49 11.66L4.58 11.71L4.66 11.76L4.74 11.81L4.83 11.86L4.91 11.91L4.99 11.96L5.08 12L5.16 12.05L5.24 12.1L5.33 12.14L5.41 12.18L5.49 12.23L5.58 12.27L5.66 12.31L5.74 12.35L5.83 12.39L5.91 12.43L5.99 12.47L6.08 12.51L6.16 12.54L6.24 12.58L6.33 12.62L6.41 12.65L6.49 12.68L6.58 12.72L6.66 12.75L6.74 12.78L6.83 12.81L6.91 12.84L6.99 12.87L7.08 12.9L7.16 12.92L7.24 12.95L7.33 12.98L7.41 13L7.49 13.02L7.58 13.05L7.66 13.07L7.74 13.09L7.83 13.11L7.91 13.13L7.99 13.15L8.08 13.17L8.16 13.18L8.24 13.2L8.33 13.21L8.41 13.23L8.49 13.24L8.58 13.25L8.66 13.26L8.74 13.27L8.83 13.28L8.91 13.29L8.99 13.3L9.08 13.31L9.16 13.31L9.24 13.32L9.33 13.32L9.41 13.32L9.49 13.33L9.58 13.33L9.66 13.33L9.74 13.33L9.83 13.33L9.91 13.32L9.99 13.32L10.08 13.32L10.16 13.31L10.24 13.31L10.33 13.3L10.41 13.29L10.49 13.28L10.58 13.27L10.66 13.26L10.74 13.25L10.83 13.24L10.91 13.23L10.99 13.21L11.08 13.2L11.16 13.18L11.24 13.16L11.33 13.15L11.41 13.13L11.49 13.11L11.58 13.09L11.66 13.07L11.74 13.05L11.83 13.02L11.91 13L11.99 12.97L12.08 12.95L12.16 12.92L12.24 12.89L12.33 12.87L12.41 12.84L12.49 12.81L12.58 12.78L12.66 12.75L12.74 12.71L12.83 12.68L12.91 12.65L12.99 12.61L13.08 12.58L13.16 12.54L13.24 12.5L13.33 12.47L13.41 12.43L13.49 12.39L13.58 12.35L13.66 12.31L13.74 12.27L13.83 12.22L13.91 12.18L13.99 12.14L14.08 12.09L14.16 12.05L14.24 12L14.33 11.95L14.41 11.9L14.49 11.86L14.58 11.81L14.66 11.76L14.74 11.71L14.83 11.66L14.91 11.6L14.99 11.55L15.08 11.5L15.16 11.44L15.24 11.39L15.33 11.34L15.41 11.28L15.49 11.22L15.58 11.17L15.66 11.11L15.74 11.05L15.83 10.99L15.91 10.93L15.99 10.87L16.08 10.81L16.16 10.75L16.24 10.69L16.33 10.63L16.41 10.57L16.49 10.5L16.58 10.44L16.66 10.38L16.74 10.31L16.83 10.25L16.91 10.18L16.99 10.11L17.08 10.05L17.16 9.98L17.24 9.91L17.33 9.85L17.41 9.78L17.49 9.71L17.58 9.64L17.66 9.57L17.74 9.5L17.83 9.43L17.91 9.36L17.99 9.29L18.08 9.22L18.16 9.15L18.24 9.08L18.33 9L18.41 8.93L18.49 8.86L18.58 8.79L18.66 8.71L18.74 8.64L18.83 8.57L18.91 8.49L18.99 8.42L19.08 8.34L19.16 8.27L19.24 8.19L19.33 8.12L19.41 8.04L19.49 7.97L19.58 7.89L19.66 7.82L19.74 7.74L19.83 7.67L19.91 7.59L19.99 7.51L20.08 7.44L20.16 7.36L20.24 7.29L20.33 7.21L20.41 7.13L20.49 7.06L20.58 6.98L20.66 6.9L20.74 6.83L20.83 6.75L20.91 6.67L20.99 6.6L21.08 6.52L21.16 6.45L21.24 6.37L21.33 6.29L21.41 6.22L21.49 6.14L21.58 6.07L21.66 5.99L21.74 5.91L21.83 5.84L21.91 5.76L21.99 5.69L22.08 5.61L22.16 5.54L22.24 5.46L22.33 5.39L22.41 5.32L22.49 5.24L22.58 5.17L22.66 5.1L22.74 5.02L22.83 4.95L22.91 4.88L22.99 4.8L23.08 4.73L23.16 4.66L23.24 4.59L23.33 4.52L23.41 4.45L23.49 4.38L23.58 4.31L23.66 4.24L23.74 4.17L23.83 4.1L23.91 4.03L23.99 3.96L24.08 3.9L24.16 3.83L24.24 3.76L24.33 3.7L24.41 3.63L24.49 3.56L24.58 3.5L24.66 3.43L24.74 3.37L24.83 3.31L24.91 3.24L24.99 3.18L25.08 3.12L25.16 3.06L25.24 3L25.33 2.94L25.41 2.88L25.49 2.82L25.58 2.76L25.66 2.7L25.74 2.64L25.83 2.59L25.91 2.53L25.99 2.48L26.08 2.42L26.16 2.37L26.24 2.31L26.33 2.26L26.41 2.21L26.49 2.16L26.58 2.11L26.66 2.06L26.74 2.01L26.83 1.96L26.91 1.91L26.99 1.86L27.08 1.81L27.16 1.77L27.24 1.72L27.33 1.68L27.41 1.63L27.49 1.59L27.58 1.55L27.66 1.51L27.74 1.47L27.83 1.43L27.91 1.39L27.99 1.35L28.08 1.31L28.16 1.27L28.24 1.24L28.33 1.2L28.41 1.17L28.49 1.14L28.58 1.1L28.66 1.07L28.74 1.04L28.83 1.01L28.91 0.98L28.99 0.95L29.08 0.92L29.16 0.9L29.24 0.87L29.33 0.84L29.41 0.82L29.49 0.8L29.58 0.77L29.66 0.75L29.74 0.73L29.83 0.71L29.91 0.69L29.99 0.67L30.08 0.66L30.16 0.64L30.24 0.62L30.33 0.61L30.41 0.59L30.49 0.58L30.58 0.57L30.66 0.56L30.74 0.55L30.83 0.54L30.91 0.53L30.99 0.52L31.08 0.52L31.16 0.51L31.24 0.51L31.33 0.5L31.41 0.5L31.49 0.5L31.58 0.5L31.66 0.5L31.74 0.5L31.83 0.5L31.91 0.5L31.99 0.5L32.08 0.51L32.16 0.51L32.24 0.52L32.33 0.53L32.41 0.53L32.49 0.54L32.58 0.55L32.66 0.56L32.74 0.57L32.83 0.59L32.91 0.6L32.99 0.61L33.08 0.63L33.16 0.64L33.24 0.66L33.33 0.68L33.41 0.7L33.49 0.72L33.58 0.74L33.66 0.76L33.74 0.78L33.83 0.8L33.91 0.83L33.99 0.85L34.08 0.88L34.16 0.9L34.24 0.93L34.33 0.96L34.41 0.99L34.49 1.02L34.58 1.05L34.66 1.08L34.74 1.11L34.83 1.15L34.91 1.18L34.99 1.21L35.08 1.25L35.16 1.29L35.24 1.32L35.33 1.36L35.41 1.4L35.49 1.44L35.58 1.48L35.66 1.52L35.74 1.56L35.83 1.61L35.91 1.65L35.99 1.69L36.08 1.74L36.16 1.78L36.24 1.83L36.33 1.88L36.41 1.92L36.49 1.97L36.58 2.02L36.66 2.07L36.74 2.12L36.83 2.17L36.91 2.22L36.99 2.28L37.08 2.33L37.16 2.38L37.24 2.44L37.33 2.49L37.41 2.55L37.49 2.61L37.58 2.66L37.66 2.72L37.74 2.78L37.83 2.84L37.91 2.9L37.99 2.96L38.08 3.02L38.16 3.08L38.24 3.14L38.33 3.2L38.41 3.26L38.49 3.33L38.58 3.39L38.66 3.45L38.74 3.52L38.83 3.58L38.91 3.65L38.99 3.72L39.08 3.78L39.16 3.85L39.24 3.92L39.33 3.98L39.41 4.05L39.49 4.12L39.58 4.19L39.66 4.26L39.74 4.33L39.83 4.4L39.91 4.47L39.99 4.54L40.08 4.61L40.16 4.68L40.24 4.76L40.33 4.83L40.41 4.9L40.49 4.97L40.58 5.05L40.66 5.12L40.74 5.19L40.83 5.27L40.91 5.34L40.99 5.41L41.08 5.49L41.16 5.56L41.24 5.64L41.33 5.71L41.41 5.79L41.49 5.86L41.58 5.94L41.66 6.01L41.74 6.09L41.83 6.17L41.91 6.24L41.99 6.32L42.08 6.39L42.16 6.47L42.24 6.55L42.33 6.62L42.41 6.7L42.49 6.78L42.58 6.85L42.66 6.93L42.74 7L42.83 7.08L42.91 7.16L42.99 7.23L43.08 7.31L43.16 7.39L43.24 7.46L43.33 7.54L43.41 7.61L43.49 7.69L43.58 7.77L43.66 7.84L43.74 7.92L43.83 7.99L43.91 8.07L43.99 8.14L44.08 8.22L44.16 8.29L44.24 8.37L44.33 8.44L44.41 8.51L44.49 8.59L44.58 8.66L44.66 8.74L44.74 8.81L44.83 8.88L44.91 8.95L44.99 9.03L45.08 9.1L45.16 9.17L45.24 9.24L45.33 9.31L45.41 9.38L45.49 9.45L45.58 9.52L45.66 9.59L45.74 9.66L45.83 9.73L45.91 9.8L45.99 9.87L46.08 9.94L46.16 10L46.24 10.07L46.33 10.14L46.41 10.2L46.49 10.27L46.58 10.33L46.66 10.4L46.74 10.46L46.83 10.52L46.91 10.59L46.99 10.65L47.08 10.71L47.16 10.77L47.24 10.83L47.33 10.89L47.41 10.95L47.49 11.01L47.58 11.07L47.66 11.13L47.74 11.18L47.83 11.24L47.91 11.3L47.99 11.35L48.08 11.41L48.16 11.46L48.24 11.52L48.33 11.57L48.41 11.62L48.49 11.67L48.58 11.72L48.66 11.77L48.74 11.82L48.83 11.87L48.91 11.92L48.99 11.97L49.08 12.01L49.16 12.06L49.24 12.1L49.33 12.15L49.41 12.19L49.49 12.24L49.58 12.28L49.66 12.32L49.74 12.36L49.83 12.4L49.91 12.44L49.99 12.48L50.08 12.52L50.16 12.55L50.24 12.59L50.33 12.62L50.41 12.66L50.49 12.69L50.58 12.72L50.66 12.76L50.74 12.79L50.83 12.82L50.91 12.85L50.99 12.88L51.08 12.9L51.16 12.93L51.24 12.96L51.33 12.98L51.41 13.01L51.49 13.03L51.58 13.05L51.66 13.07L51.74 13.09L51.83 13.11L51.91 13.13L51.99 13.15L52.08 13.17L52.16 13.19L52.24 13.2L52.33 13.22L52.41 13.23L52.49 13.24L52.58 13.25L52.66 13.27L52.74 13.28L52.83 13.29L52.91 13.29L52.99 13.3L53.08 13.31L53.16 13.31L53.24 13.32L53.33 13.32L53.41 13.32L53.49 13.33L53.58 13.33L53.66 13.33L53.74 13.33L53.83 13.33L53.91 13.32L53.99 13.32L54.08 13.32L54.16 13.31L54.24 13.3L54.33 13.3L54.41 13.29L54.49 13.28L54.58 13.27L54.66 13.26L54.74 13.25L54.83 13.24L54.91 13.22L54.99 13.21L55.08 13.19L55.16 13.18L55.24 13.16L55.33 13.14L55.41 13.12L55.49 13.1L55.58 13.08L55.66 13.06L55.74 13.04L55.83 13.02L55.91 12.99L55.99 12.97L56.08 12.94L56.16 12.92L56.24 12.89L56.33 12.86L56.41 12.83L56.49 12.8L56.58 12.77L56.66 12.74L56.74 12.71L56.83 12.67L56.91 12.64L56.99 12.61L57.08 12.57L57.16 12.53L57.24 12.5L57.33 12.46L57.41 12.42L57.49 12.38L57.58 12.34L57.66 12.3L57.74 12.26L57.83 12.21L57.91 12.17L57.99 12.13L58.08 12.08L58.16 12.04L58.24 11.99L58.33 11.94L58.41 11.89L58.49 11.85L58.58 11.8L58.66 11.75L58.74 11.7L58.83 11.64L58.91 11.59L58.99 11.54L59.08 11.49L59.16 11.43L59.24 11.38L59.33 11.32L59.41 11.27L59.49 11.21L59.58 11.15L59.66 11.1L59.74 11.04L59.83 10.98L59.91 10.92L59.99 10.86L60.08 10.8L60.16 10.74L60.24 10.68L60.33 10.62L60.41 10.55L60.49 10.49L60.58 10.43L60.66 10.36L60.74 10.3L60.83 10.23L60.91 10.17L60.99 10.1L61.08 10.03L61.16 9.97L61.24 9.9L61.33 9.83L61.41 9.76L61.49 9.69L61.58 9.63L61.66 9.56L61.74 9.49L61.83 9.42L61.91 9.35L61.99 9.27L62.08 9.2L62.16 9.13L62.24 9.06L62.33 8.99L62.41 8.92L62.49 8.84L62.58 8.77L62.66 8.7L62.74 8.62L62.83 8.55L62.91 8.48L62.99 8.4L63.08 8.33L63.16 8.25L63.24 8.18L63.33 8.1L63.41 8.03L63.49 7.95L63.58 7.88L63.66 7.8L63.74 7.73L63.83 7.65L63.91 7.57L63.99 7.5L64.08 7.42L64.16 7.35L64.24 7.27L64.33 7.19L64.41 7.12L64.49 7.04L64.58 6.96L64.66 6.89L64.74 6.81L64.83 6.73L64.91 6.66L64.99 6.58L65.08 6.51L65.16 6.43L65.24 6.35L65.33 6.28L65.41 6.2L65.49 6.13L65.58 6.05L65.66 5.97L65.74 5.9L65.83 5.82L65.91 5.75L65.99 5.67L66.08 5.6L66.16 5.52L66.24 5.45L66.33 5.37L66.41 5.3L66.49 5.23L66.58 5.15L66.66 5.08L66.74 5.01L66.83 4.93L66.91 4.86L66.99 4.79L67.08 4.72L67.16 4.65L67.24 4.57L67.33 4.5L67.41 4.43L67.49 4.36L67.58 4.29L67.66 4.22L67.74 4.15L67.83 4.09L67.91 4.02L67.99 3.95L68.08 3.88L68.16 3.81L68.24 3.75L68.33 3.68L68.41 3.62L68.49 3.55L68.58 3.49L68.66 3.42L68.74 3.36L68.83 3.29L68.91 3.23L68.99 3.17L69.08 3.11L69.16 3.05L69.24 2.98L69.33 2.92L69.41 2.87L69.49 2.81L69.58 2.75L69.66 2.69L69.74 2.63L69.83 2.58L69.91 2.52L69.99 2.46L70.08 2.41L70.16 2.36L70.24 2.3L70.33 2.25L70.41 2.2L70.49 2.15L70.58 2.1L70.66 2.04L70.74 2L70.83 1.95L70.91 1.9L70.99 1.85L71.08 1.8L71.16 1.76L71.24 1.71L71.33 1.67L71.41 1.63L71.49 1.58L71.58 1.54L71.66 1.5L71.74 1.46L71.83 1.42L71.91 1.38L71.99 1.34L72.08 1.3L72.16 1.27L72.24 1.23L72.33 1.2L72.41 1.16L72.49 1.13L72.58 1.1L72.66 1.06L72.74 1.03L72.83 1L72.91 0.97L72.99 0.94L73.08 0.92L73.16 0.89L73.24 0.86L73.33 0.84L73.41 0.81L73.49 0.79L73.58 0.77L73.66 0.75L73.74 0.73L73.83 0.71L73.91 0.69L73.99 0.67L74.08 0.65L74.16 0.64L74.24 0.62L74.33 0.61L74.41 0.59L74.49 0.58L74.58 0.57L74.66 0.56L74.74 0.55L74.83 0.54L74.91 0.53L74.99 0.52L75.08 0.51L75.16 0.51L75.24 0.5L75.33 0.5L75.41 0.5L75.49 0.5L75.58 0.5L75.66 0.5L75.74 0.5L75.83 0.5L75.91 0.5L75.99 0.5L76.08 0.51L76.16 0.51L76.24 0.52L76.33 0.53L76.41 0.53L76.49 0.54L76.58 0.55L76.66 0.56L76.74 0.58L76.83 0.59L76.91 0.6L76.99 0.62L77.08 0.63L77.16 0.65L77.24 0.66L77.33 0.68L77.41 0.7L77.49 0.72L77.58 0.74L77.66 0.76L77.74 0.79L77.83 0.81L77.91 0.83L77.99 0.86L78.08 0.88L78.16 0.91L78.24 0.94L78.33 0.97L78.41 0.99L78.49 1.02L78.58 1.06L78.66 1.09L78.74 1.12L78.83 1.15L78.91 1.19L78.99 1.22L79.08 1.26L79.16 1.29L79.24 1.33L79.33 1.37L79.41 1.41L79.49 1.45L79.58 1.49L79.66 1.53L79.74 1.57L79.83 1.61L79.91 1.66L79.99 1.7L80.08 1.75L80.16 1.79L80.24 1.84L80.33 1.89L80.41 1.93L80.49 1.98L80.58 2.03L80.66 2.08L80.74 2.13L80.83 2.18L80.91 2.24L80.99 2.29L81.08 2.34L81.16 2.4L81.24 2.45L81.33 2.51L81.41 2.56L81.49 2.62L81.58 2.68L81.66 2.73L81.74 2.79L81.83 2.85L81.91 2.91L81.99 2.97L82.08 3.03L82.16 3.09L82.24 3.15L82.33 3.21L82.41 3.28L82.49 3.34L82.58 3.4L82.66 3.47L82.74 3.53L82.83 3.6L82.91 3.66L82.99 3.73L83.08 3.8L83.16 3.86L83.24 3.93L83.33 4L83.41 4.07L83.49 4.14L83.58 4.21L83.66 4.27L83.74 4.34L83.83 4.41L83.91 4.49L83.99 4.56L84.08 4.63L84.16 4.7L84.24 4.77L84.33 4.84L84.41 4.92L84.49 4.99L84.58 5.06L84.66 5.13L84.74 5.21L84.83 5.28L84.91 5.36L84.99 5.43L85.08 5.5L85.16 5.58L85.24 5.65L85.33 5.73L85.41 5.8L85.49 5.88L85.58 5.95L85.66 6.03L85.74 6.11L85.83 6.18L85.91 6.26L85.99 6.33L86.08 6.41L86.16 6.49L86.24 6.56L86.33 6.64L86.41 6.71L86.49 6.79L86.58 6.87L86.66 6.94L86.74 7.02L86.83 7.1L86.91 7.17L86.99 7.25L87.08 7.33L87.16 7.4L87.24 7.48L87.33 7.55L87.41 7.63L87.49 7.71L87.58 7.78L87.66 7.86L87.74 7.93L87.83 8.01L87.91 8.08L87.99 8.16L88.08 8.23L88.16 8.31L88.24 8.38L88.33 8.46L88.41 8.53L88.49 8.6L88.58 8.68L88.66 8.75L88.74 8.82L88.83 8.9L88.91 8.97L88.99 9.04L89.08 9.11L89.16 9.19L89.24 9.26L89.33 9.33L89.41 9.4L89.49 9.47L89.58 9.54L89.66 9.61L89.74 9.68L89.83 9.75L89.91 9.81L89.99 9.88L90.08 9.95L90.16 10.02L90.24 10.08L90.33 10.15L90.41 10.22L90.49 10.28L90.58 10.35L90.66 10.41L90.74 10.47L90.83 10.54L90.91 10.6L90.99 10.66L91.08 10.72L91.16 10.78L91.24 10.84L91.33 10.91L91.41 10.96L91.49 11.02L91.58 11.08L91.66 11.14L91.74 11.2L91.83 11.25L91.91 11.31L91.99 11.36L92.08 11.42L92.16 11.47L92.24 11.53L92.33 11.58L92.41 11.63L92.49 11.68L92.58 11.73L92.66 11.78L92.74 11.83L92.83 11.88L92.91 11.93L92.99 11.98L93.08 12.02L93.16 12.07L93.24 12.11L93.33 12.16L93.41 12.2L93.49 12.25L93.58 12.29L93.66 12.33L93.74 12.37L93.83 12.41L93.91 12.45L93.99 12.49L94.08 12.52L94.16 12.56L94.24 12.6L94.33 12.63L94.41 12.67L94.49 12.7L94.58 12.73L94.66 12.76L94.74 12.79L94.83 12.82L94.91 12.85L94.99 12.88L95.08 12.91L95.16 12.94L95.24 12.96L95.33 12.99L95.41 13.01L95.49 13.03L95.58 13.06L95.66 13.08L95.74 13.1L95.83 13.12L95.91 13.14L95.99 13.16L96.08 13.17L96.16 13.19L96.24 13.2L96.33 13.22L96.41 13.23L96.49 13.25L96.58 13.26L96.66 13.27L96.74 13.28L96.83 13.29L96.91 13.3L96.99 13.3L97.08 13.31L97.16 13.31L97.24 13.32L97.33 13.32L97.41 13.33L97.49 13.33L97.58 13.33L97.66 13.33L97.74 13.33L97.83 13.33L97.91 13.32L97.99 13.32L98.08 13.31L98.16 13.31L98.24 13.3L98.33 13.3L98.41 13.29L98.49 13.28L98.58 13.27L98.66 13.26L98.74 13.25L98.83 13.23L98.91 13.22L98.99 13.21L99.08 13.19L99.16 13.17L99.24 13.16L99.33 13.14L99.41 13.12L99.49 13.1L99.58 13.08L99.66 13.06L99.74 13.04L99.83 13.01L99.91 12.99L99.99 12.96L100.08 12.94L100.16 12.91L100.24 12.88L100.33 12.85L100.41 12.83L100.49 12.8L100.58 12.76L100.66 12.73L100.74 12.7L100.83 12.67L100.91 12.63L100.99 12.6L101.08 12.56L101.16 12.53L101.24 12.49L101.33 12.45L101.41 12.41L101.49 12.37L101.58 12.33L101.66 12.29L101.74 12.25L101.83 12.2L101.91 12.16L101.99 12.12L102.08 12.07L102.16 12.03L102.24 11.98L102.33 11.93L102.41 11.88L102.49 11.84L102.58 11.79L102.66 11.74L102.74 11.69L102.83 11.63L102.91 11.58L102.99 11.53L103.08 11.48L103.16 11.42L103.24 11.37L103.33 11.31L103.41 11.26L103.49 11.2L103.58 11.14L103.66 11.08L103.74 11.03L103.83 10.97L103.91 10.91L103.99 10.85L104.08 10.79L104.16 10.73L104.24 10.66L104.33 10.6L104.41 10.54L104.49 10.48L104.58 10.41L104.66 10.35L104.74 10.28L104.83 10.22L104.91 10.15L104.99 10.09L105.08 10.02L105.16 9.95L105.24 9.88L105.33 9.82L105.41 9.75L105.49 9.68L105.58 9.61L105.66 9.54L105.74 9.47L105.83 9.4L105.91 9.33L105.99 9.26L106.08 9.19L106.16 9.12L106.24 9.04L106.33 8.97L106.41 8.9L106.49 8.83L106.58 8.75L106.66 8.68L106.74 8.61L106.83 8.53L106.91 8.46L106.99 8.39L107.08 8.31L107.16 8.24L107.24 8.16L107.33 8.09L107.41 8.01L107.49 7.94L107.58 7.86L107.66 7.79L107.74 7.71L107.83 7.63L107.91 7.56L107.99 7.48L108.08 7.41L108.16 7.33L108.24 7.25L108.33 7.18L108.41 7.1L108.49 7.02L108.58 6.95L108.66 6.87L108.74 6.79L108.83 6.72L108.91 6.64L108.99 6.57L109.08 6.49L109.16 6.41L109.24 6.34L109.33 6.26L109.41 6.19L109.49 6.11L109.58 6.03L109.66 5.96L109.74 5.88L109.83 5.81L109.91 5.73L109.99 5.66L110.08 5.58L110.16 5.51L110.24 5.43L110.33 5.36L110.41 5.28L110.49 5.21L110.58 5.14L110.66 5.06L110.74 4.99L110.83 4.92L110.91 4.85L110.99 4.77L111.08 4.7L111.16 4.63L111.24 4.56L111.33 4.49L111.41 4.42L111.49 4.35L111.58 4.28L111.66 4.21L111.74 4.14L111.83 4.07L111.91 4L111.99 3.93L112.08 3.87L112.16 3.8L112.24 3.73L112.33 3.67L112.41 3.6L112.49 3.54L112.58 3.47L112.66 3.41L112.74 3.34L112.83 3.28L112.91 3.22L112.99 3.16L113.08 3.09L113.16 3.03L113.24 2.97L113.33 2.91L113.41 2.85L113.49 2.79L113.58 2.74L113.66 2.68L113.74 2.62L113.83 2.56L113.91 2.51L113.99 2.45L114.08 2.4L114.16 2.34L114.24 2.29L114.33 2.24L114.41 2.19L114.49 2.14L114.58 2.08L114.66 2.03L114.74 1.99L114.83 1.94L114.91 1.89L114.99 1.84L115.08 1.79L115.16 1.75L115.24 1.7L115.33 1.66L115.41 1.62L115.49 1.57L115.58 1.53L115.66 1.49L115.74 1.45L115.83 1.41L115.91 1.37L115.99 1.33L116.08 1.3L116.16 1.26L116.24 1.22L116.33 1.19L116.41 1.15L116.49 1.12L116.58 1.09L116.66 1.06L116.74 1.03L116.83 1L116.91 0.97L116.99 0.94L117.08 0.91L117.16 0.88L117.24 0.86L117.33 0.83L117.41 0.81L117.49 0.79L117.58 0.76L117.66 0.74L117.74 0.72L117.83 0.7L117.91 0.68L117.99 0.67L118.08 0.65L118.16 0.63L118.24 0.62L118.33 0.6L118.41 0.59L118.49 0.58L118.58 0.56L118.66 0.55L118.74 0.54L118.83 0.54L118.91 0.53L118.99 0.52L119.08 0.51L119.16 0.51L119.24 0.5L119.33 0.5L119.41 0.5L119.49 0.5L119.58 0.5L119.66 0.5L119.74 0.5L119.83 0.5L119.91 0.5L119.99 0.5L120.08 0.51L120.16 0.51L120.24 0.52L120.33 0.53L120.41 0.54L120.49 0.55L120.58 0.56L120.66 0.57L120.74 0.58L120.83 0.59L120.91 0.61L120.99 0.62L121.08 0.64L121.16 0.65L121.24 0.67L121.33 0.69L121.41 0.71L121.49 0.73L121.58 0.75L121.66 0.77L121.74 0.79L121.83 0.81L121.91 0.84L121.99 0.86L122.08 0.89L122.16 0.92L122.24 0.94L122.33 0.97L122.41 1L122.49 1.03L122.58 1.06L122.66 1.09L122.74 1.13L122.83 1.16L122.91 1.19L122.99 1.23L123.08 1.27L123.16 1.3L123.24 1.34L123.33 1.38L123.41 1.42L123.49 1.46L123.58 1.5L123.66 1.54L123.74 1.58L123.83 1.62L123.91 1.67L123.99 1.71L124.08 1.76L124.16 1.8L124.24 1.85L124.33 1.9L124.41 1.94L124.49 1.99L124.58 2.04L124.66 2.09L124.74 2.14L124.83 2.2L124.91 2.25L124.99 2.3L125.08 2.35L125.16 2.41L125.24 2.46L125.33 2.52L125.41 2.57L125.49 2.63L125.58 2.69L125.66 2.75L125.74 2.8L125.83 2.86L125.91 2.92L125.99 2.98L126.08 3.04L126.16 3.1L126.24 3.17L126.33 3.23L126.41 3.29L126.49 3.35L126.58 3.42L126.66 3.48L126.74 3.55L126.83 3.61L126.91 3.68" stroke="#A7A7A7" stroke-opacity="1.000000" stroke-width="1.000000" stroke-linejoin="round" stroke-linecap="round"/>
</svg>
