<?xml version="1.0" ?>
<svg width="1400" height="188" viewBox="0 0 1400 188" fill="none" xmlns="http://www.w3.org/2000/svg" xmlns:xlink="http://www.w3.org/1999/xlink">
	<path d="M205.58 186.28Q206.91 187 208.62 187L221.32 187Q223.1 187 224.43 186.23Q225.05 185.87 225.57 185.35Q226.22 184.69 226.63 183.92Q227.29 182.64 227.29 181.03L227.29 53.12L271.02 137.86Q272.29 140.47 274.07 141.93Q275.91 143.32 279.34 143.32L287.4 143.32Q290.51 143.32 292.54 141.93Q292.95 141.64 293.32 141.31Q294.85 139.96 295.71 137.86L339.13 53.12L339.13 181.03Q339.13 182.74 339.85 184.07Q340.22 184.76 340.78 185.35Q341.37 185.91 342.06 186.28Q343.38 187 345.1 187L357.86 187Q360.21 187 361.75 185.87Q362.07 185.63 362.36 185.35Q363.01 184.69 363.42 183.92Q364.08 182.64 364.08 181.03L364.08 11.23Q364.08 8.99 363.02 7.49Q362.73 7.08 362.36 6.72Q362.01 6.35 361.6 6.06Q360.1 5.01 357.86 5.01L345.1 5.01Q342.05 5.01 340.59 6.53Q340.56 6.56 340.53 6.59Q339.13 8.12 338.62 9.13L283.21 114.19L228.36 9.13Q227.86 8.12 226.27 6.59L226.27 6.59Q224.74 5.01 221.57 5.01L208.62 5.01Q207.01 5.01 205.74 5.67Q204.96 6.07 204.31 6.72Q203.94 7.08 203.65 7.49Q202.59 8.99 202.59 11.23L202.59 181.03Q202.59 182.64 203.25 183.92Q203.66 184.69 204.31 185.35Q204.89 185.91 205.58 186.28ZM411.17 185.84Q412.67 187 415.06 187L524.5 187Q526.91 187 528.38 185.81Q528.64 185.6 528.88 185.35Q529.35 184.83 529.69 184.23Q530.46 182.85 530.46 181.03L530.46 170.87Q530.46 168.34 529.22 166.86Q529.06 166.67 528.88 166.49Q528.7 166.31 528.51 166.15Q527.03 164.91 524.5 164.91L434.04 164.91L434.04 105.87L516.69 105.87Q519.11 105.87 520.57 104.69Q520.83 104.48 521.07 104.22Q521.55 103.71 521.88 103.11Q522.66 101.73 522.66 99.91L522.66 90.26Q522.66 87.78 521.46 86.21Q521.28 85.97 521.07 85.75Q520.78 85.42 520.43 85.15Q519 84.04 516.69 84.04L434.04 84.04L434.04 27.1L522.4 27.1Q525.06 27.1 526.56 25.78Q526.67 25.68 526.78 25.57Q526.98 25.38 527.15 25.17Q528.37 23.64 528.37 21.13L528.37 11.23Q528.37 8.75 527.18 7.18Q526.99 6.94 526.78 6.72Q526.49 6.39 526.15 6.13Q524.71 5.01 522.4 5.01L415.06 5.01Q412.79 5.01 411.32 6.1Q410.94 6.37 410.62 6.72Q410.41 6.94 410.23 7.18Q409.03 8.75 409.03 11.23L409.03 181.03Q409.03 182.85 409.81 184.23Q410.14 184.83 410.62 185.35Q410.88 185.62 411.17 185.84ZM557.12 186.39Q558.34 187 559.86 187L574.65 187Q577.51 187 578.91 185.85Q579.94 185 580.78 183.99Q581.13 183.57 581.45 183.12L631.34 106.38L660.22 106.38L660.22 181.03Q660.22 182.74 660.94 184.07Q661.31 184.76 661.87 185.35Q662.46 185.91 663.15 186.28Q664.47 187 666.19 187L679.2 187Q681.62 187 683.08 185.81Q683.35 185.6 683.58 185.35Q684.36 184.51 684.75 183.51Q685.17 182.48 685.17 181.28L685.17 106.38L713.8 106.38L763.94 183.12L763.97 183.16Q765.04 184.66 766.54 185.85Q768.13 187 770.99 187L785.52 187Q787.11 187 788.34 186.34Q789.13 185.91 789.78 185.22Q790.52 184.41 790.95 183.47Q791.49 182.24 791.49 180.77Q791.49 178.93 790.98 177.92L735.89 93.11L786.03 13.58Q787.11 11.74 787.11 10.21Q787.11 9.02 786.68 8.01Q786.35 7.25 785.78 6.59Q785.53 6.29 785.24 6.04Q784.01 5.01 781.91 5.01L767.62 5.01Q764.45 5.01 762.23 6.09Q761.28 6.53 760.5 7.17Q759.49 7.99 758.74 9.13L712.46 83.27L685.17 83.27L685.17 10.97Q685.17 9.09 684.34 7.71Q684.02 7.18 683.58 6.72Q683.29 6.39 682.95 6.13Q681.51 5.01 679.2 5.01L666.19 5.01Q664.57 5.01 663.3 5.67Q662.52 6.07 661.87 6.72Q661.35 7.25 660.99 7.87Q660.22 9.2 660.22 10.97L660.22 83.27L632.67 83.27L586.4 9.13Q585.53 7.81 584.34 6.92Q583.7 6.44 582.97 6.09Q580.94 5.01 577.51 5.01L563.74 5.01Q561.17 5.01 559.83 6.29Q559.68 6.43 559.55 6.59Q559.06 7.18 558.76 7.84Q558.28 8.92 558.28 10.21Q558.28 11.74 559.61 13.58L609.5 93.11L554.66 177.92Q553.9 178.93 553.9 180.77Q553.9 182.34 554.49 183.62Q554.89 184.48 555.55 185.22Q556.26 185.95 557.12 186.39ZM827.24 186.28Q828.57 187 830.28 187L842.98 187Q844.76 187 846.09 186.23Q846.71 185.87 847.23 185.35Q847.88 184.69 848.29 183.92Q848.95 182.64 848.95 181.03L848.95 53.12L892.68 137.86Q893.95 140.47 895.73 141.93Q897.57 143.32 901 143.32L909.06 143.32Q912.17 143.32 914.2 141.93Q914.61 141.64 914.98 141.31Q916.51 139.96 917.37 137.86L960.79 53.12L960.79 181.03Q960.79 182.74 961.51 184.07Q961.88 184.76 962.44 185.35Q963.03 185.91 963.72 186.28Q965.04 187 966.76 187L979.52 187Q981.87 187 983.41 185.87Q983.73 185.63 984.02 185.35Q984.67 184.69 985.08 183.92Q985.74 182.64 985.74 181.03L985.74 11.23Q985.74 8.99 984.68 7.49Q984.39 7.08 984.02 6.72Q983.67 6.35 983.26 6.06Q981.76 5.01 979.52 5.01L966.76 5.01Q963.71 5.01 962.25 6.53Q962.22 6.56 962.19 6.59Q960.79 8.12 960.28 9.13L904.87 114.19L850.02 9.13Q849.52 8.12 847.93 6.59L847.93 6.59Q846.4 5.01 843.23 5.01L830.28 5.01Q828.67 5.01 827.4 5.67Q826.62 6.07 825.97 6.72Q825.6 7.08 825.31 7.49Q824.25 8.99 824.25 11.23L824.25 181.03Q824.25 182.64 824.91 183.92Q825.32 184.69 825.97 185.35Q826.55 185.91 827.24 186.28ZM1016.87 186.74Q1017.65 187 1018.51 187L1031.78 187Q1034.89 187 1036.41 185.47Q1038 183.89 1038.25 182.55L1052.53 145.67L1137.85 145.67L1152.13 182.55Q1152.64 183.89 1154.03 185.47Q1155.49 187 1158.67 187L1171.87 187Q1172.81 187 1173.65 186.68Q1174.65 186.31 1175.49 185.47Q1176.47 184.49 1176.84 183.32Q1177.06 182.59 1177.06 181.79Q1177.06 180.52 1176.56 178.93L1112.32 10.72Q1111.31 8.12 1109.47 6.59Q1107.68 5.01 1104.01 5.01L1086.37 5.01Q1082.75 5.01 1080.91 6.59Q1079.06 8.12 1078.05 10.72L1013.56 178.93Q1013.31 180.52 1013.31 181.79Q1013.31 182.65 1013.56 183.43Q1013.93 184.54 1014.83 185.47Q1015.76 186.37 1016.87 186.74ZM1320.43 186.28Q1321.76 187 1323.47 187L1336.99 187Q1339.41 187 1340.87 185.81Q1341.14 185.6 1341.37 185.35Q1341.85 184.83 1342.18 184.23Q1342.96 182.85 1342.96 181.03L1342.96 11.23Q1342.96 8.75 1341.77 7.18Q1341.58 6.94 1341.37 6.72Q1341.08 6.39 1340.74 6.13Q1339.3 5.01 1336.99 5.01L1234.03 5.01Q1232.42 5.01 1231.15 5.67Q1230.37 6.07 1229.72 6.72Q1229.18 7.25 1228.84 7.87Q1228.06 9.2 1228.06 10.97L1228.06 66.9Q1228.06 92.1 1225.72 109.93Q1223.37 127.71 1218.93 139.01Q1214.55 150.31 1208.14 156.08Q1204.07 159.74 1199.31 161.57Q1196.63 162.61 1193.73 163.06Q1190.81 163.47 1189.46 165.14Q1188.27 166.6 1188.27 169.03L1188.27 180.52Q1188.27 182.4 1189.06 183.83Q1189.48 184.59 1190.11 185.22Q1190.97 186.05 1192 186.44Q1193.17 186.88 1194.55 186.74Q1210.1 185.98 1221.15 179.38Q1232.18 172.71 1239.24 159.07Q1246.28 145.42 1249.65 123.46Q1253.01 101.43 1253.01 70.26L1253.01 28.37L1317.51 28.37L1317.51 181.03Q1317.51 182.74 1318.22 184.07Q1318.59 184.76 1319.16 185.35Q1319.74 185.91 1320.43 186.28ZM1095.18 30.97L1130.29 123.27L1060.09 123.27L1095.18 30.97Z" fill="#F6F6F6" />
</svg>
